G04 #@! TF.GenerationSoftware,KiCad,Pcbnew,(5.0.2)-1*
G04 #@! TF.CreationDate,2019-02-20T11:37:58+00:00*
G04 #@! TF.ProjectId,vco,76636f2e-6b69-4636-9164-5f7063625858,rev?*
G04 #@! TF.SameCoordinates,Original*
G04 #@! TF.FileFunction,Paste,Top*
G04 #@! TF.FilePolarity,Positive*
%FSLAX46Y46*%
G04 Gerber Fmt 4.6, Leading zero omitted, Abs format (unit mm)*
G04 Created by KiCad (PCBNEW (5.0.2)-1) date 20/02/2019 11:37:58*
%MOMM*%
%LPD*%
G01*
G04 APERTURE LIST*
%ADD10C,0.100000*%
%ADD11C,0.590000*%
%ADD12C,1.600000*%
%ADD13C,1.050000*%
%ADD14R,1.500000X0.600000*%
G04 APERTURE END LIST*
D10*
G04 #@! TO.C,C1*
G36*
X163021958Y-99502710D02*
X163036276Y-99504834D01*
X163050317Y-99508351D01*
X163063946Y-99513228D01*
X163077031Y-99519417D01*
X163089447Y-99526858D01*
X163101073Y-99535481D01*
X163111798Y-99545202D01*
X163121519Y-99555927D01*
X163130142Y-99567553D01*
X163137583Y-99579969D01*
X163143772Y-99593054D01*
X163148649Y-99606683D01*
X163152166Y-99620724D01*
X163154290Y-99635042D01*
X163155000Y-99649500D01*
X163155000Y-99994500D01*
X163154290Y-100008958D01*
X163152166Y-100023276D01*
X163148649Y-100037317D01*
X163143772Y-100050946D01*
X163137583Y-100064031D01*
X163130142Y-100076447D01*
X163121519Y-100088073D01*
X163111798Y-100098798D01*
X163101073Y-100108519D01*
X163089447Y-100117142D01*
X163077031Y-100124583D01*
X163063946Y-100130772D01*
X163050317Y-100135649D01*
X163036276Y-100139166D01*
X163021958Y-100141290D01*
X163007500Y-100142000D01*
X162712500Y-100142000D01*
X162698042Y-100141290D01*
X162683724Y-100139166D01*
X162669683Y-100135649D01*
X162656054Y-100130772D01*
X162642969Y-100124583D01*
X162630553Y-100117142D01*
X162618927Y-100108519D01*
X162608202Y-100098798D01*
X162598481Y-100088073D01*
X162589858Y-100076447D01*
X162582417Y-100064031D01*
X162576228Y-100050946D01*
X162571351Y-100037317D01*
X162567834Y-100023276D01*
X162565710Y-100008958D01*
X162565000Y-99994500D01*
X162565000Y-99649500D01*
X162565710Y-99635042D01*
X162567834Y-99620724D01*
X162571351Y-99606683D01*
X162576228Y-99593054D01*
X162582417Y-99579969D01*
X162589858Y-99567553D01*
X162598481Y-99555927D01*
X162608202Y-99545202D01*
X162618927Y-99535481D01*
X162630553Y-99526858D01*
X162642969Y-99519417D01*
X162656054Y-99513228D01*
X162669683Y-99508351D01*
X162683724Y-99504834D01*
X162698042Y-99502710D01*
X162712500Y-99502000D01*
X163007500Y-99502000D01*
X163021958Y-99502710D01*
X163021958Y-99502710D01*
G37*
D11*
X162860000Y-99822000D03*
D10*
G36*
X163991958Y-99502710D02*
X164006276Y-99504834D01*
X164020317Y-99508351D01*
X164033946Y-99513228D01*
X164047031Y-99519417D01*
X164059447Y-99526858D01*
X164071073Y-99535481D01*
X164081798Y-99545202D01*
X164091519Y-99555927D01*
X164100142Y-99567553D01*
X164107583Y-99579969D01*
X164113772Y-99593054D01*
X164118649Y-99606683D01*
X164122166Y-99620724D01*
X164124290Y-99635042D01*
X164125000Y-99649500D01*
X164125000Y-99994500D01*
X164124290Y-100008958D01*
X164122166Y-100023276D01*
X164118649Y-100037317D01*
X164113772Y-100050946D01*
X164107583Y-100064031D01*
X164100142Y-100076447D01*
X164091519Y-100088073D01*
X164081798Y-100098798D01*
X164071073Y-100108519D01*
X164059447Y-100117142D01*
X164047031Y-100124583D01*
X164033946Y-100130772D01*
X164020317Y-100135649D01*
X164006276Y-100139166D01*
X163991958Y-100141290D01*
X163977500Y-100142000D01*
X163682500Y-100142000D01*
X163668042Y-100141290D01*
X163653724Y-100139166D01*
X163639683Y-100135649D01*
X163626054Y-100130772D01*
X163612969Y-100124583D01*
X163600553Y-100117142D01*
X163588927Y-100108519D01*
X163578202Y-100098798D01*
X163568481Y-100088073D01*
X163559858Y-100076447D01*
X163552417Y-100064031D01*
X163546228Y-100050946D01*
X163541351Y-100037317D01*
X163537834Y-100023276D01*
X163535710Y-100008958D01*
X163535000Y-99994500D01*
X163535000Y-99649500D01*
X163535710Y-99635042D01*
X163537834Y-99620724D01*
X163541351Y-99606683D01*
X163546228Y-99593054D01*
X163552417Y-99579969D01*
X163559858Y-99567553D01*
X163568481Y-99555927D01*
X163578202Y-99545202D01*
X163588927Y-99535481D01*
X163600553Y-99526858D01*
X163612969Y-99519417D01*
X163626054Y-99513228D01*
X163639683Y-99508351D01*
X163653724Y-99504834D01*
X163668042Y-99502710D01*
X163682500Y-99502000D01*
X163977500Y-99502000D01*
X163991958Y-99502710D01*
X163991958Y-99502710D01*
G37*
D11*
X163830000Y-99822000D03*
G04 #@! TD*
D10*
G04 #@! TO.C,C2*
G36*
X118733958Y-112202710D02*
X118748276Y-112204834D01*
X118762317Y-112208351D01*
X118775946Y-112213228D01*
X118789031Y-112219417D01*
X118801447Y-112226858D01*
X118813073Y-112235481D01*
X118823798Y-112245202D01*
X118833519Y-112255927D01*
X118842142Y-112267553D01*
X118849583Y-112279969D01*
X118855772Y-112293054D01*
X118860649Y-112306683D01*
X118864166Y-112320724D01*
X118866290Y-112335042D01*
X118867000Y-112349500D01*
X118867000Y-112694500D01*
X118866290Y-112708958D01*
X118864166Y-112723276D01*
X118860649Y-112737317D01*
X118855772Y-112750946D01*
X118849583Y-112764031D01*
X118842142Y-112776447D01*
X118833519Y-112788073D01*
X118823798Y-112798798D01*
X118813073Y-112808519D01*
X118801447Y-112817142D01*
X118789031Y-112824583D01*
X118775946Y-112830772D01*
X118762317Y-112835649D01*
X118748276Y-112839166D01*
X118733958Y-112841290D01*
X118719500Y-112842000D01*
X118424500Y-112842000D01*
X118410042Y-112841290D01*
X118395724Y-112839166D01*
X118381683Y-112835649D01*
X118368054Y-112830772D01*
X118354969Y-112824583D01*
X118342553Y-112817142D01*
X118330927Y-112808519D01*
X118320202Y-112798798D01*
X118310481Y-112788073D01*
X118301858Y-112776447D01*
X118294417Y-112764031D01*
X118288228Y-112750946D01*
X118283351Y-112737317D01*
X118279834Y-112723276D01*
X118277710Y-112708958D01*
X118277000Y-112694500D01*
X118277000Y-112349500D01*
X118277710Y-112335042D01*
X118279834Y-112320724D01*
X118283351Y-112306683D01*
X118288228Y-112293054D01*
X118294417Y-112279969D01*
X118301858Y-112267553D01*
X118310481Y-112255927D01*
X118320202Y-112245202D01*
X118330927Y-112235481D01*
X118342553Y-112226858D01*
X118354969Y-112219417D01*
X118368054Y-112213228D01*
X118381683Y-112208351D01*
X118395724Y-112204834D01*
X118410042Y-112202710D01*
X118424500Y-112202000D01*
X118719500Y-112202000D01*
X118733958Y-112202710D01*
X118733958Y-112202710D01*
G37*
D11*
X118572000Y-112522000D03*
D10*
G36*
X117763958Y-112202710D02*
X117778276Y-112204834D01*
X117792317Y-112208351D01*
X117805946Y-112213228D01*
X117819031Y-112219417D01*
X117831447Y-112226858D01*
X117843073Y-112235481D01*
X117853798Y-112245202D01*
X117863519Y-112255927D01*
X117872142Y-112267553D01*
X117879583Y-112279969D01*
X117885772Y-112293054D01*
X117890649Y-112306683D01*
X117894166Y-112320724D01*
X117896290Y-112335042D01*
X117897000Y-112349500D01*
X117897000Y-112694500D01*
X117896290Y-112708958D01*
X117894166Y-112723276D01*
X117890649Y-112737317D01*
X117885772Y-112750946D01*
X117879583Y-112764031D01*
X117872142Y-112776447D01*
X117863519Y-112788073D01*
X117853798Y-112798798D01*
X117843073Y-112808519D01*
X117831447Y-112817142D01*
X117819031Y-112824583D01*
X117805946Y-112830772D01*
X117792317Y-112835649D01*
X117778276Y-112839166D01*
X117763958Y-112841290D01*
X117749500Y-112842000D01*
X117454500Y-112842000D01*
X117440042Y-112841290D01*
X117425724Y-112839166D01*
X117411683Y-112835649D01*
X117398054Y-112830772D01*
X117384969Y-112824583D01*
X117372553Y-112817142D01*
X117360927Y-112808519D01*
X117350202Y-112798798D01*
X117340481Y-112788073D01*
X117331858Y-112776447D01*
X117324417Y-112764031D01*
X117318228Y-112750946D01*
X117313351Y-112737317D01*
X117309834Y-112723276D01*
X117307710Y-112708958D01*
X117307000Y-112694500D01*
X117307000Y-112349500D01*
X117307710Y-112335042D01*
X117309834Y-112320724D01*
X117313351Y-112306683D01*
X117318228Y-112293054D01*
X117324417Y-112279969D01*
X117331858Y-112267553D01*
X117340481Y-112255927D01*
X117350202Y-112245202D01*
X117360927Y-112235481D01*
X117372553Y-112226858D01*
X117384969Y-112219417D01*
X117398054Y-112213228D01*
X117411683Y-112208351D01*
X117425724Y-112204834D01*
X117440042Y-112202710D01*
X117454500Y-112202000D01*
X117749500Y-112202000D01*
X117763958Y-112202710D01*
X117763958Y-112202710D01*
G37*
D11*
X117602000Y-112522000D03*
G04 #@! TD*
D10*
G04 #@! TO.C,C3*
G36*
X164778958Y-87335710D02*
X164793276Y-87337834D01*
X164807317Y-87341351D01*
X164820946Y-87346228D01*
X164834031Y-87352417D01*
X164846447Y-87359858D01*
X164858073Y-87368481D01*
X164868798Y-87378202D01*
X164878519Y-87388927D01*
X164887142Y-87400553D01*
X164894583Y-87412969D01*
X164900772Y-87426054D01*
X164905649Y-87439683D01*
X164909166Y-87453724D01*
X164911290Y-87468042D01*
X164912000Y-87482500D01*
X164912000Y-87777500D01*
X164911290Y-87791958D01*
X164909166Y-87806276D01*
X164905649Y-87820317D01*
X164900772Y-87833946D01*
X164894583Y-87847031D01*
X164887142Y-87859447D01*
X164878519Y-87871073D01*
X164868798Y-87881798D01*
X164858073Y-87891519D01*
X164846447Y-87900142D01*
X164834031Y-87907583D01*
X164820946Y-87913772D01*
X164807317Y-87918649D01*
X164793276Y-87922166D01*
X164778958Y-87924290D01*
X164764500Y-87925000D01*
X164419500Y-87925000D01*
X164405042Y-87924290D01*
X164390724Y-87922166D01*
X164376683Y-87918649D01*
X164363054Y-87913772D01*
X164349969Y-87907583D01*
X164337553Y-87900142D01*
X164325927Y-87891519D01*
X164315202Y-87881798D01*
X164305481Y-87871073D01*
X164296858Y-87859447D01*
X164289417Y-87847031D01*
X164283228Y-87833946D01*
X164278351Y-87820317D01*
X164274834Y-87806276D01*
X164272710Y-87791958D01*
X164272000Y-87777500D01*
X164272000Y-87482500D01*
X164272710Y-87468042D01*
X164274834Y-87453724D01*
X164278351Y-87439683D01*
X164283228Y-87426054D01*
X164289417Y-87412969D01*
X164296858Y-87400553D01*
X164305481Y-87388927D01*
X164315202Y-87378202D01*
X164325927Y-87368481D01*
X164337553Y-87359858D01*
X164349969Y-87352417D01*
X164363054Y-87346228D01*
X164376683Y-87341351D01*
X164390724Y-87337834D01*
X164405042Y-87335710D01*
X164419500Y-87335000D01*
X164764500Y-87335000D01*
X164778958Y-87335710D01*
X164778958Y-87335710D01*
G37*
D11*
X164592000Y-87630000D03*
D10*
G36*
X164778958Y-86365710D02*
X164793276Y-86367834D01*
X164807317Y-86371351D01*
X164820946Y-86376228D01*
X164834031Y-86382417D01*
X164846447Y-86389858D01*
X164858073Y-86398481D01*
X164868798Y-86408202D01*
X164878519Y-86418927D01*
X164887142Y-86430553D01*
X164894583Y-86442969D01*
X164900772Y-86456054D01*
X164905649Y-86469683D01*
X164909166Y-86483724D01*
X164911290Y-86498042D01*
X164912000Y-86512500D01*
X164912000Y-86807500D01*
X164911290Y-86821958D01*
X164909166Y-86836276D01*
X164905649Y-86850317D01*
X164900772Y-86863946D01*
X164894583Y-86877031D01*
X164887142Y-86889447D01*
X164878519Y-86901073D01*
X164868798Y-86911798D01*
X164858073Y-86921519D01*
X164846447Y-86930142D01*
X164834031Y-86937583D01*
X164820946Y-86943772D01*
X164807317Y-86948649D01*
X164793276Y-86952166D01*
X164778958Y-86954290D01*
X164764500Y-86955000D01*
X164419500Y-86955000D01*
X164405042Y-86954290D01*
X164390724Y-86952166D01*
X164376683Y-86948649D01*
X164363054Y-86943772D01*
X164349969Y-86937583D01*
X164337553Y-86930142D01*
X164325927Y-86921519D01*
X164315202Y-86911798D01*
X164305481Y-86901073D01*
X164296858Y-86889447D01*
X164289417Y-86877031D01*
X164283228Y-86863946D01*
X164278351Y-86850317D01*
X164274834Y-86836276D01*
X164272710Y-86821958D01*
X164272000Y-86807500D01*
X164272000Y-86512500D01*
X164272710Y-86498042D01*
X164274834Y-86483724D01*
X164278351Y-86469683D01*
X164283228Y-86456054D01*
X164289417Y-86442969D01*
X164296858Y-86430553D01*
X164305481Y-86418927D01*
X164315202Y-86408202D01*
X164325927Y-86398481D01*
X164337553Y-86389858D01*
X164349969Y-86382417D01*
X164363054Y-86376228D01*
X164376683Y-86371351D01*
X164390724Y-86367834D01*
X164405042Y-86365710D01*
X164419500Y-86365000D01*
X164764500Y-86365000D01*
X164778958Y-86365710D01*
X164778958Y-86365710D01*
G37*
D11*
X164592000Y-86660000D03*
G04 #@! TD*
D10*
G04 #@! TO.C,C4*
G36*
X164016958Y-92669710D02*
X164031276Y-92671834D01*
X164045317Y-92675351D01*
X164058946Y-92680228D01*
X164072031Y-92686417D01*
X164084447Y-92693858D01*
X164096073Y-92702481D01*
X164106798Y-92712202D01*
X164116519Y-92722927D01*
X164125142Y-92734553D01*
X164132583Y-92746969D01*
X164138772Y-92760054D01*
X164143649Y-92773683D01*
X164147166Y-92787724D01*
X164149290Y-92802042D01*
X164150000Y-92816500D01*
X164150000Y-93111500D01*
X164149290Y-93125958D01*
X164147166Y-93140276D01*
X164143649Y-93154317D01*
X164138772Y-93167946D01*
X164132583Y-93181031D01*
X164125142Y-93193447D01*
X164116519Y-93205073D01*
X164106798Y-93215798D01*
X164096073Y-93225519D01*
X164084447Y-93234142D01*
X164072031Y-93241583D01*
X164058946Y-93247772D01*
X164045317Y-93252649D01*
X164031276Y-93256166D01*
X164016958Y-93258290D01*
X164002500Y-93259000D01*
X163657500Y-93259000D01*
X163643042Y-93258290D01*
X163628724Y-93256166D01*
X163614683Y-93252649D01*
X163601054Y-93247772D01*
X163587969Y-93241583D01*
X163575553Y-93234142D01*
X163563927Y-93225519D01*
X163553202Y-93215798D01*
X163543481Y-93205073D01*
X163534858Y-93193447D01*
X163527417Y-93181031D01*
X163521228Y-93167946D01*
X163516351Y-93154317D01*
X163512834Y-93140276D01*
X163510710Y-93125958D01*
X163510000Y-93111500D01*
X163510000Y-92816500D01*
X163510710Y-92802042D01*
X163512834Y-92787724D01*
X163516351Y-92773683D01*
X163521228Y-92760054D01*
X163527417Y-92746969D01*
X163534858Y-92734553D01*
X163543481Y-92722927D01*
X163553202Y-92712202D01*
X163563927Y-92702481D01*
X163575553Y-92693858D01*
X163587969Y-92686417D01*
X163601054Y-92680228D01*
X163614683Y-92675351D01*
X163628724Y-92671834D01*
X163643042Y-92669710D01*
X163657500Y-92669000D01*
X164002500Y-92669000D01*
X164016958Y-92669710D01*
X164016958Y-92669710D01*
G37*
D11*
X163830000Y-92964000D03*
D10*
G36*
X164016958Y-93639710D02*
X164031276Y-93641834D01*
X164045317Y-93645351D01*
X164058946Y-93650228D01*
X164072031Y-93656417D01*
X164084447Y-93663858D01*
X164096073Y-93672481D01*
X164106798Y-93682202D01*
X164116519Y-93692927D01*
X164125142Y-93704553D01*
X164132583Y-93716969D01*
X164138772Y-93730054D01*
X164143649Y-93743683D01*
X164147166Y-93757724D01*
X164149290Y-93772042D01*
X164150000Y-93786500D01*
X164150000Y-94081500D01*
X164149290Y-94095958D01*
X164147166Y-94110276D01*
X164143649Y-94124317D01*
X164138772Y-94137946D01*
X164132583Y-94151031D01*
X164125142Y-94163447D01*
X164116519Y-94175073D01*
X164106798Y-94185798D01*
X164096073Y-94195519D01*
X164084447Y-94204142D01*
X164072031Y-94211583D01*
X164058946Y-94217772D01*
X164045317Y-94222649D01*
X164031276Y-94226166D01*
X164016958Y-94228290D01*
X164002500Y-94229000D01*
X163657500Y-94229000D01*
X163643042Y-94228290D01*
X163628724Y-94226166D01*
X163614683Y-94222649D01*
X163601054Y-94217772D01*
X163587969Y-94211583D01*
X163575553Y-94204142D01*
X163563927Y-94195519D01*
X163553202Y-94185798D01*
X163543481Y-94175073D01*
X163534858Y-94163447D01*
X163527417Y-94151031D01*
X163521228Y-94137946D01*
X163516351Y-94124317D01*
X163512834Y-94110276D01*
X163510710Y-94095958D01*
X163510000Y-94081500D01*
X163510000Y-93786500D01*
X163510710Y-93772042D01*
X163512834Y-93757724D01*
X163516351Y-93743683D01*
X163521228Y-93730054D01*
X163527417Y-93716969D01*
X163534858Y-93704553D01*
X163543481Y-93692927D01*
X163553202Y-93682202D01*
X163563927Y-93672481D01*
X163575553Y-93663858D01*
X163587969Y-93656417D01*
X163601054Y-93650228D01*
X163614683Y-93645351D01*
X163628724Y-93641834D01*
X163643042Y-93639710D01*
X163657500Y-93639000D01*
X164002500Y-93639000D01*
X164016958Y-93639710D01*
X164016958Y-93639710D01*
G37*
D11*
X163830000Y-93934000D03*
G04 #@! TD*
D10*
G04 #@! TO.C,C5*
G36*
X159627958Y-69784710D02*
X159642276Y-69786834D01*
X159656317Y-69790351D01*
X159669946Y-69795228D01*
X159683031Y-69801417D01*
X159695447Y-69808858D01*
X159707073Y-69817481D01*
X159717798Y-69827202D01*
X159727519Y-69837927D01*
X159736142Y-69849553D01*
X159743583Y-69861969D01*
X159749772Y-69875054D01*
X159754649Y-69888683D01*
X159758166Y-69902724D01*
X159760290Y-69917042D01*
X159761000Y-69931500D01*
X159761000Y-70276500D01*
X159760290Y-70290958D01*
X159758166Y-70305276D01*
X159754649Y-70319317D01*
X159749772Y-70332946D01*
X159743583Y-70346031D01*
X159736142Y-70358447D01*
X159727519Y-70370073D01*
X159717798Y-70380798D01*
X159707073Y-70390519D01*
X159695447Y-70399142D01*
X159683031Y-70406583D01*
X159669946Y-70412772D01*
X159656317Y-70417649D01*
X159642276Y-70421166D01*
X159627958Y-70423290D01*
X159613500Y-70424000D01*
X159318500Y-70424000D01*
X159304042Y-70423290D01*
X159289724Y-70421166D01*
X159275683Y-70417649D01*
X159262054Y-70412772D01*
X159248969Y-70406583D01*
X159236553Y-70399142D01*
X159224927Y-70390519D01*
X159214202Y-70380798D01*
X159204481Y-70370073D01*
X159195858Y-70358447D01*
X159188417Y-70346031D01*
X159182228Y-70332946D01*
X159177351Y-70319317D01*
X159173834Y-70305276D01*
X159171710Y-70290958D01*
X159171000Y-70276500D01*
X159171000Y-69931500D01*
X159171710Y-69917042D01*
X159173834Y-69902724D01*
X159177351Y-69888683D01*
X159182228Y-69875054D01*
X159188417Y-69861969D01*
X159195858Y-69849553D01*
X159204481Y-69837927D01*
X159214202Y-69827202D01*
X159224927Y-69817481D01*
X159236553Y-69808858D01*
X159248969Y-69801417D01*
X159262054Y-69795228D01*
X159275683Y-69790351D01*
X159289724Y-69786834D01*
X159304042Y-69784710D01*
X159318500Y-69784000D01*
X159613500Y-69784000D01*
X159627958Y-69784710D01*
X159627958Y-69784710D01*
G37*
D11*
X159466000Y-70104000D03*
D10*
G36*
X158657958Y-69784710D02*
X158672276Y-69786834D01*
X158686317Y-69790351D01*
X158699946Y-69795228D01*
X158713031Y-69801417D01*
X158725447Y-69808858D01*
X158737073Y-69817481D01*
X158747798Y-69827202D01*
X158757519Y-69837927D01*
X158766142Y-69849553D01*
X158773583Y-69861969D01*
X158779772Y-69875054D01*
X158784649Y-69888683D01*
X158788166Y-69902724D01*
X158790290Y-69917042D01*
X158791000Y-69931500D01*
X158791000Y-70276500D01*
X158790290Y-70290958D01*
X158788166Y-70305276D01*
X158784649Y-70319317D01*
X158779772Y-70332946D01*
X158773583Y-70346031D01*
X158766142Y-70358447D01*
X158757519Y-70370073D01*
X158747798Y-70380798D01*
X158737073Y-70390519D01*
X158725447Y-70399142D01*
X158713031Y-70406583D01*
X158699946Y-70412772D01*
X158686317Y-70417649D01*
X158672276Y-70421166D01*
X158657958Y-70423290D01*
X158643500Y-70424000D01*
X158348500Y-70424000D01*
X158334042Y-70423290D01*
X158319724Y-70421166D01*
X158305683Y-70417649D01*
X158292054Y-70412772D01*
X158278969Y-70406583D01*
X158266553Y-70399142D01*
X158254927Y-70390519D01*
X158244202Y-70380798D01*
X158234481Y-70370073D01*
X158225858Y-70358447D01*
X158218417Y-70346031D01*
X158212228Y-70332946D01*
X158207351Y-70319317D01*
X158203834Y-70305276D01*
X158201710Y-70290958D01*
X158201000Y-70276500D01*
X158201000Y-69931500D01*
X158201710Y-69917042D01*
X158203834Y-69902724D01*
X158207351Y-69888683D01*
X158212228Y-69875054D01*
X158218417Y-69861969D01*
X158225858Y-69849553D01*
X158234481Y-69837927D01*
X158244202Y-69827202D01*
X158254927Y-69817481D01*
X158266553Y-69808858D01*
X158278969Y-69801417D01*
X158292054Y-69795228D01*
X158305683Y-69790351D01*
X158319724Y-69786834D01*
X158334042Y-69784710D01*
X158348500Y-69784000D01*
X158643500Y-69784000D01*
X158657958Y-69784710D01*
X158657958Y-69784710D01*
G37*
D11*
X158496000Y-70104000D03*
G04 #@! TD*
D10*
G04 #@! TO.C,C6*
G36*
X161624504Y-99785204D02*
X161648773Y-99788804D01*
X161672571Y-99794765D01*
X161695671Y-99803030D01*
X161717849Y-99813520D01*
X161738893Y-99826133D01*
X161758598Y-99840747D01*
X161776777Y-99857223D01*
X161793253Y-99875402D01*
X161807867Y-99895107D01*
X161820480Y-99916151D01*
X161830970Y-99938329D01*
X161839235Y-99961429D01*
X161845196Y-99985227D01*
X161848796Y-100009496D01*
X161850000Y-100034000D01*
X161850000Y-101134000D01*
X161848796Y-101158504D01*
X161845196Y-101182773D01*
X161839235Y-101206571D01*
X161830970Y-101229671D01*
X161820480Y-101251849D01*
X161807867Y-101272893D01*
X161793253Y-101292598D01*
X161776777Y-101310777D01*
X161758598Y-101327253D01*
X161738893Y-101341867D01*
X161717849Y-101354480D01*
X161695671Y-101364970D01*
X161672571Y-101373235D01*
X161648773Y-101379196D01*
X161624504Y-101382796D01*
X161600000Y-101384000D01*
X159500000Y-101384000D01*
X159475496Y-101382796D01*
X159451227Y-101379196D01*
X159427429Y-101373235D01*
X159404329Y-101364970D01*
X159382151Y-101354480D01*
X159361107Y-101341867D01*
X159341402Y-101327253D01*
X159323223Y-101310777D01*
X159306747Y-101292598D01*
X159292133Y-101272893D01*
X159279520Y-101251849D01*
X159269030Y-101229671D01*
X159260765Y-101206571D01*
X159254804Y-101182773D01*
X159251204Y-101158504D01*
X159250000Y-101134000D01*
X159250000Y-100034000D01*
X159251204Y-100009496D01*
X159254804Y-99985227D01*
X159260765Y-99961429D01*
X159269030Y-99938329D01*
X159279520Y-99916151D01*
X159292133Y-99895107D01*
X159306747Y-99875402D01*
X159323223Y-99857223D01*
X159341402Y-99840747D01*
X159361107Y-99826133D01*
X159382151Y-99813520D01*
X159404329Y-99803030D01*
X159427429Y-99794765D01*
X159451227Y-99788804D01*
X159475496Y-99785204D01*
X159500000Y-99784000D01*
X161600000Y-99784000D01*
X161624504Y-99785204D01*
X161624504Y-99785204D01*
G37*
D12*
X160550000Y-100584000D03*
D10*
G36*
X158024504Y-99785204D02*
X158048773Y-99788804D01*
X158072571Y-99794765D01*
X158095671Y-99803030D01*
X158117849Y-99813520D01*
X158138893Y-99826133D01*
X158158598Y-99840747D01*
X158176777Y-99857223D01*
X158193253Y-99875402D01*
X158207867Y-99895107D01*
X158220480Y-99916151D01*
X158230970Y-99938329D01*
X158239235Y-99961429D01*
X158245196Y-99985227D01*
X158248796Y-100009496D01*
X158250000Y-100034000D01*
X158250000Y-101134000D01*
X158248796Y-101158504D01*
X158245196Y-101182773D01*
X158239235Y-101206571D01*
X158230970Y-101229671D01*
X158220480Y-101251849D01*
X158207867Y-101272893D01*
X158193253Y-101292598D01*
X158176777Y-101310777D01*
X158158598Y-101327253D01*
X158138893Y-101341867D01*
X158117849Y-101354480D01*
X158095671Y-101364970D01*
X158072571Y-101373235D01*
X158048773Y-101379196D01*
X158024504Y-101382796D01*
X158000000Y-101384000D01*
X155900000Y-101384000D01*
X155875496Y-101382796D01*
X155851227Y-101379196D01*
X155827429Y-101373235D01*
X155804329Y-101364970D01*
X155782151Y-101354480D01*
X155761107Y-101341867D01*
X155741402Y-101327253D01*
X155723223Y-101310777D01*
X155706747Y-101292598D01*
X155692133Y-101272893D01*
X155679520Y-101251849D01*
X155669030Y-101229671D01*
X155660765Y-101206571D01*
X155654804Y-101182773D01*
X155651204Y-101158504D01*
X155650000Y-101134000D01*
X155650000Y-100034000D01*
X155651204Y-100009496D01*
X155654804Y-99985227D01*
X155660765Y-99961429D01*
X155669030Y-99938329D01*
X155679520Y-99916151D01*
X155692133Y-99895107D01*
X155706747Y-99875402D01*
X155723223Y-99857223D01*
X155741402Y-99840747D01*
X155761107Y-99826133D01*
X155782151Y-99813520D01*
X155804329Y-99803030D01*
X155827429Y-99794765D01*
X155851227Y-99788804D01*
X155875496Y-99785204D01*
X155900000Y-99784000D01*
X158000000Y-99784000D01*
X158024504Y-99785204D01*
X158024504Y-99785204D01*
G37*
D12*
X156950000Y-100584000D03*
G04 #@! TD*
D10*
G04 #@! TO.C,C7*
G36*
X148910504Y-88385204D02*
X148934773Y-88388804D01*
X148958571Y-88394765D01*
X148981671Y-88403030D01*
X149003849Y-88413520D01*
X149024893Y-88426133D01*
X149044598Y-88440747D01*
X149062777Y-88457223D01*
X149079253Y-88475402D01*
X149093867Y-88495107D01*
X149106480Y-88516151D01*
X149116970Y-88538329D01*
X149125235Y-88561429D01*
X149131196Y-88585227D01*
X149134796Y-88609496D01*
X149136000Y-88634000D01*
X149136000Y-90734000D01*
X149134796Y-90758504D01*
X149131196Y-90782773D01*
X149125235Y-90806571D01*
X149116970Y-90829671D01*
X149106480Y-90851849D01*
X149093867Y-90872893D01*
X149079253Y-90892598D01*
X149062777Y-90910777D01*
X149044598Y-90927253D01*
X149024893Y-90941867D01*
X149003849Y-90954480D01*
X148981671Y-90964970D01*
X148958571Y-90973235D01*
X148934773Y-90979196D01*
X148910504Y-90982796D01*
X148886000Y-90984000D01*
X147786000Y-90984000D01*
X147761496Y-90982796D01*
X147737227Y-90979196D01*
X147713429Y-90973235D01*
X147690329Y-90964970D01*
X147668151Y-90954480D01*
X147647107Y-90941867D01*
X147627402Y-90927253D01*
X147609223Y-90910777D01*
X147592747Y-90892598D01*
X147578133Y-90872893D01*
X147565520Y-90851849D01*
X147555030Y-90829671D01*
X147546765Y-90806571D01*
X147540804Y-90782773D01*
X147537204Y-90758504D01*
X147536000Y-90734000D01*
X147536000Y-88634000D01*
X147537204Y-88609496D01*
X147540804Y-88585227D01*
X147546765Y-88561429D01*
X147555030Y-88538329D01*
X147565520Y-88516151D01*
X147578133Y-88495107D01*
X147592747Y-88475402D01*
X147609223Y-88457223D01*
X147627402Y-88440747D01*
X147647107Y-88426133D01*
X147668151Y-88413520D01*
X147690329Y-88403030D01*
X147713429Y-88394765D01*
X147737227Y-88388804D01*
X147761496Y-88385204D01*
X147786000Y-88384000D01*
X148886000Y-88384000D01*
X148910504Y-88385204D01*
X148910504Y-88385204D01*
G37*
D12*
X148336000Y-89684000D03*
D10*
G36*
X148910504Y-84785204D02*
X148934773Y-84788804D01*
X148958571Y-84794765D01*
X148981671Y-84803030D01*
X149003849Y-84813520D01*
X149024893Y-84826133D01*
X149044598Y-84840747D01*
X149062777Y-84857223D01*
X149079253Y-84875402D01*
X149093867Y-84895107D01*
X149106480Y-84916151D01*
X149116970Y-84938329D01*
X149125235Y-84961429D01*
X149131196Y-84985227D01*
X149134796Y-85009496D01*
X149136000Y-85034000D01*
X149136000Y-87134000D01*
X149134796Y-87158504D01*
X149131196Y-87182773D01*
X149125235Y-87206571D01*
X149116970Y-87229671D01*
X149106480Y-87251849D01*
X149093867Y-87272893D01*
X149079253Y-87292598D01*
X149062777Y-87310777D01*
X149044598Y-87327253D01*
X149024893Y-87341867D01*
X149003849Y-87354480D01*
X148981671Y-87364970D01*
X148958571Y-87373235D01*
X148934773Y-87379196D01*
X148910504Y-87382796D01*
X148886000Y-87384000D01*
X147786000Y-87384000D01*
X147761496Y-87382796D01*
X147737227Y-87379196D01*
X147713429Y-87373235D01*
X147690329Y-87364970D01*
X147668151Y-87354480D01*
X147647107Y-87341867D01*
X147627402Y-87327253D01*
X147609223Y-87310777D01*
X147592747Y-87292598D01*
X147578133Y-87272893D01*
X147565520Y-87251849D01*
X147555030Y-87229671D01*
X147546765Y-87206571D01*
X147540804Y-87182773D01*
X147537204Y-87158504D01*
X147536000Y-87134000D01*
X147536000Y-85034000D01*
X147537204Y-85009496D01*
X147540804Y-84985227D01*
X147546765Y-84961429D01*
X147555030Y-84938329D01*
X147565520Y-84916151D01*
X147578133Y-84895107D01*
X147592747Y-84875402D01*
X147609223Y-84857223D01*
X147627402Y-84840747D01*
X147647107Y-84826133D01*
X147668151Y-84813520D01*
X147690329Y-84803030D01*
X147713429Y-84794765D01*
X147737227Y-84788804D01*
X147761496Y-84785204D01*
X147786000Y-84784000D01*
X148886000Y-84784000D01*
X148910504Y-84785204D01*
X148910504Y-84785204D01*
G37*
D12*
X148336000Y-86084000D03*
G04 #@! TD*
D10*
G04 #@! TO.C,C8*
G36*
X149164504Y-92151204D02*
X149188773Y-92154804D01*
X149212571Y-92160765D01*
X149235671Y-92169030D01*
X149257849Y-92179520D01*
X149278893Y-92192133D01*
X149298598Y-92206747D01*
X149316777Y-92223223D01*
X149333253Y-92241402D01*
X149347867Y-92261107D01*
X149360480Y-92282151D01*
X149370970Y-92304329D01*
X149379235Y-92327429D01*
X149385196Y-92351227D01*
X149388796Y-92375496D01*
X149390000Y-92400000D01*
X149390000Y-94500000D01*
X149388796Y-94524504D01*
X149385196Y-94548773D01*
X149379235Y-94572571D01*
X149370970Y-94595671D01*
X149360480Y-94617849D01*
X149347867Y-94638893D01*
X149333253Y-94658598D01*
X149316777Y-94676777D01*
X149298598Y-94693253D01*
X149278893Y-94707867D01*
X149257849Y-94720480D01*
X149235671Y-94730970D01*
X149212571Y-94739235D01*
X149188773Y-94745196D01*
X149164504Y-94748796D01*
X149140000Y-94750000D01*
X148040000Y-94750000D01*
X148015496Y-94748796D01*
X147991227Y-94745196D01*
X147967429Y-94739235D01*
X147944329Y-94730970D01*
X147922151Y-94720480D01*
X147901107Y-94707867D01*
X147881402Y-94693253D01*
X147863223Y-94676777D01*
X147846747Y-94658598D01*
X147832133Y-94638893D01*
X147819520Y-94617849D01*
X147809030Y-94595671D01*
X147800765Y-94572571D01*
X147794804Y-94548773D01*
X147791204Y-94524504D01*
X147790000Y-94500000D01*
X147790000Y-92400000D01*
X147791204Y-92375496D01*
X147794804Y-92351227D01*
X147800765Y-92327429D01*
X147809030Y-92304329D01*
X147819520Y-92282151D01*
X147832133Y-92261107D01*
X147846747Y-92241402D01*
X147863223Y-92223223D01*
X147881402Y-92206747D01*
X147901107Y-92192133D01*
X147922151Y-92179520D01*
X147944329Y-92169030D01*
X147967429Y-92160765D01*
X147991227Y-92154804D01*
X148015496Y-92151204D01*
X148040000Y-92150000D01*
X149140000Y-92150000D01*
X149164504Y-92151204D01*
X149164504Y-92151204D01*
G37*
D12*
X148590000Y-93450000D03*
D10*
G36*
X149164504Y-95751204D02*
X149188773Y-95754804D01*
X149212571Y-95760765D01*
X149235671Y-95769030D01*
X149257849Y-95779520D01*
X149278893Y-95792133D01*
X149298598Y-95806747D01*
X149316777Y-95823223D01*
X149333253Y-95841402D01*
X149347867Y-95861107D01*
X149360480Y-95882151D01*
X149370970Y-95904329D01*
X149379235Y-95927429D01*
X149385196Y-95951227D01*
X149388796Y-95975496D01*
X149390000Y-96000000D01*
X149390000Y-98100000D01*
X149388796Y-98124504D01*
X149385196Y-98148773D01*
X149379235Y-98172571D01*
X149370970Y-98195671D01*
X149360480Y-98217849D01*
X149347867Y-98238893D01*
X149333253Y-98258598D01*
X149316777Y-98276777D01*
X149298598Y-98293253D01*
X149278893Y-98307867D01*
X149257849Y-98320480D01*
X149235671Y-98330970D01*
X149212571Y-98339235D01*
X149188773Y-98345196D01*
X149164504Y-98348796D01*
X149140000Y-98350000D01*
X148040000Y-98350000D01*
X148015496Y-98348796D01*
X147991227Y-98345196D01*
X147967429Y-98339235D01*
X147944329Y-98330970D01*
X147922151Y-98320480D01*
X147901107Y-98307867D01*
X147881402Y-98293253D01*
X147863223Y-98276777D01*
X147846747Y-98258598D01*
X147832133Y-98238893D01*
X147819520Y-98217849D01*
X147809030Y-98195671D01*
X147800765Y-98172571D01*
X147794804Y-98148773D01*
X147791204Y-98124504D01*
X147790000Y-98100000D01*
X147790000Y-96000000D01*
X147791204Y-95975496D01*
X147794804Y-95951227D01*
X147800765Y-95927429D01*
X147809030Y-95904329D01*
X147819520Y-95882151D01*
X147832133Y-95861107D01*
X147846747Y-95841402D01*
X147863223Y-95823223D01*
X147881402Y-95806747D01*
X147901107Y-95792133D01*
X147922151Y-95779520D01*
X147944329Y-95769030D01*
X147967429Y-95760765D01*
X147991227Y-95754804D01*
X148015496Y-95751204D01*
X148040000Y-95750000D01*
X149140000Y-95750000D01*
X149164504Y-95751204D01*
X149164504Y-95751204D01*
G37*
D12*
X148590000Y-97050000D03*
G04 #@! TD*
D10*
G04 #@! TO.C,C9*
G36*
X111551505Y-86178204D02*
X111575773Y-86181804D01*
X111599572Y-86187765D01*
X111622671Y-86196030D01*
X111644850Y-86206520D01*
X111665893Y-86219132D01*
X111685599Y-86233747D01*
X111703777Y-86250223D01*
X111720253Y-86268401D01*
X111734868Y-86288107D01*
X111747480Y-86309150D01*
X111757970Y-86331329D01*
X111766235Y-86354428D01*
X111772196Y-86378227D01*
X111775796Y-86402495D01*
X111777000Y-86426999D01*
X111777000Y-87052001D01*
X111775796Y-87076505D01*
X111772196Y-87100773D01*
X111766235Y-87124572D01*
X111757970Y-87147671D01*
X111747480Y-87169850D01*
X111734868Y-87190893D01*
X111720253Y-87210599D01*
X111703777Y-87228777D01*
X111685599Y-87245253D01*
X111665893Y-87259868D01*
X111644850Y-87272480D01*
X111622671Y-87282970D01*
X111599572Y-87291235D01*
X111575773Y-87297196D01*
X111551505Y-87300796D01*
X111527001Y-87302000D01*
X110976999Y-87302000D01*
X110952495Y-87300796D01*
X110928227Y-87297196D01*
X110904428Y-87291235D01*
X110881329Y-87282970D01*
X110859150Y-87272480D01*
X110838107Y-87259868D01*
X110818401Y-87245253D01*
X110800223Y-87228777D01*
X110783747Y-87210599D01*
X110769132Y-87190893D01*
X110756520Y-87169850D01*
X110746030Y-87147671D01*
X110737765Y-87124572D01*
X110731804Y-87100773D01*
X110728204Y-87076505D01*
X110727000Y-87052001D01*
X110727000Y-86426999D01*
X110728204Y-86402495D01*
X110731804Y-86378227D01*
X110737765Y-86354428D01*
X110746030Y-86331329D01*
X110756520Y-86309150D01*
X110769132Y-86288107D01*
X110783747Y-86268401D01*
X110800223Y-86250223D01*
X110818401Y-86233747D01*
X110838107Y-86219132D01*
X110859150Y-86206520D01*
X110881329Y-86196030D01*
X110904428Y-86187765D01*
X110928227Y-86181804D01*
X110952495Y-86178204D01*
X110976999Y-86177000D01*
X111527001Y-86177000D01*
X111551505Y-86178204D01*
X111551505Y-86178204D01*
G37*
D13*
X111252000Y-86739500D03*
D10*
G36*
X111551505Y-84403204D02*
X111575773Y-84406804D01*
X111599572Y-84412765D01*
X111622671Y-84421030D01*
X111644850Y-84431520D01*
X111665893Y-84444132D01*
X111685599Y-84458747D01*
X111703777Y-84475223D01*
X111720253Y-84493401D01*
X111734868Y-84513107D01*
X111747480Y-84534150D01*
X111757970Y-84556329D01*
X111766235Y-84579428D01*
X111772196Y-84603227D01*
X111775796Y-84627495D01*
X111777000Y-84651999D01*
X111777000Y-85277001D01*
X111775796Y-85301505D01*
X111772196Y-85325773D01*
X111766235Y-85349572D01*
X111757970Y-85372671D01*
X111747480Y-85394850D01*
X111734868Y-85415893D01*
X111720253Y-85435599D01*
X111703777Y-85453777D01*
X111685599Y-85470253D01*
X111665893Y-85484868D01*
X111644850Y-85497480D01*
X111622671Y-85507970D01*
X111599572Y-85516235D01*
X111575773Y-85522196D01*
X111551505Y-85525796D01*
X111527001Y-85527000D01*
X110976999Y-85527000D01*
X110952495Y-85525796D01*
X110928227Y-85522196D01*
X110904428Y-85516235D01*
X110881329Y-85507970D01*
X110859150Y-85497480D01*
X110838107Y-85484868D01*
X110818401Y-85470253D01*
X110800223Y-85453777D01*
X110783747Y-85435599D01*
X110769132Y-85415893D01*
X110756520Y-85394850D01*
X110746030Y-85372671D01*
X110737765Y-85349572D01*
X110731804Y-85325773D01*
X110728204Y-85301505D01*
X110727000Y-85277001D01*
X110727000Y-84651999D01*
X110728204Y-84627495D01*
X110731804Y-84603227D01*
X110737765Y-84579428D01*
X110746030Y-84556329D01*
X110756520Y-84534150D01*
X110769132Y-84513107D01*
X110783747Y-84493401D01*
X110800223Y-84475223D01*
X110818401Y-84458747D01*
X110838107Y-84444132D01*
X110859150Y-84431520D01*
X110881329Y-84421030D01*
X110904428Y-84412765D01*
X110928227Y-84406804D01*
X110952495Y-84403204D01*
X110976999Y-84402000D01*
X111527001Y-84402000D01*
X111551505Y-84403204D01*
X111551505Y-84403204D01*
G37*
D13*
X111252000Y-84964500D03*
G04 #@! TD*
D10*
G04 #@! TO.C,C10*
G36*
X111551505Y-101800704D02*
X111575773Y-101804304D01*
X111599572Y-101810265D01*
X111622671Y-101818530D01*
X111644850Y-101829020D01*
X111665893Y-101841632D01*
X111685599Y-101856247D01*
X111703777Y-101872723D01*
X111720253Y-101890901D01*
X111734868Y-101910607D01*
X111747480Y-101931650D01*
X111757970Y-101953829D01*
X111766235Y-101976928D01*
X111772196Y-102000727D01*
X111775796Y-102024995D01*
X111777000Y-102049499D01*
X111777000Y-102674501D01*
X111775796Y-102699005D01*
X111772196Y-102723273D01*
X111766235Y-102747072D01*
X111757970Y-102770171D01*
X111747480Y-102792350D01*
X111734868Y-102813393D01*
X111720253Y-102833099D01*
X111703777Y-102851277D01*
X111685599Y-102867753D01*
X111665893Y-102882368D01*
X111644850Y-102894980D01*
X111622671Y-102905470D01*
X111599572Y-102913735D01*
X111575773Y-102919696D01*
X111551505Y-102923296D01*
X111527001Y-102924500D01*
X110976999Y-102924500D01*
X110952495Y-102923296D01*
X110928227Y-102919696D01*
X110904428Y-102913735D01*
X110881329Y-102905470D01*
X110859150Y-102894980D01*
X110838107Y-102882368D01*
X110818401Y-102867753D01*
X110800223Y-102851277D01*
X110783747Y-102833099D01*
X110769132Y-102813393D01*
X110756520Y-102792350D01*
X110746030Y-102770171D01*
X110737765Y-102747072D01*
X110731804Y-102723273D01*
X110728204Y-102699005D01*
X110727000Y-102674501D01*
X110727000Y-102049499D01*
X110728204Y-102024995D01*
X110731804Y-102000727D01*
X110737765Y-101976928D01*
X110746030Y-101953829D01*
X110756520Y-101931650D01*
X110769132Y-101910607D01*
X110783747Y-101890901D01*
X110800223Y-101872723D01*
X110818401Y-101856247D01*
X110838107Y-101841632D01*
X110859150Y-101829020D01*
X110881329Y-101818530D01*
X110904428Y-101810265D01*
X110928227Y-101804304D01*
X110952495Y-101800704D01*
X110976999Y-101799500D01*
X111527001Y-101799500D01*
X111551505Y-101800704D01*
X111551505Y-101800704D01*
G37*
D13*
X111252000Y-102362000D03*
D10*
G36*
X111551505Y-103575704D02*
X111575773Y-103579304D01*
X111599572Y-103585265D01*
X111622671Y-103593530D01*
X111644850Y-103604020D01*
X111665893Y-103616632D01*
X111685599Y-103631247D01*
X111703777Y-103647723D01*
X111720253Y-103665901D01*
X111734868Y-103685607D01*
X111747480Y-103706650D01*
X111757970Y-103728829D01*
X111766235Y-103751928D01*
X111772196Y-103775727D01*
X111775796Y-103799995D01*
X111777000Y-103824499D01*
X111777000Y-104449501D01*
X111775796Y-104474005D01*
X111772196Y-104498273D01*
X111766235Y-104522072D01*
X111757970Y-104545171D01*
X111747480Y-104567350D01*
X111734868Y-104588393D01*
X111720253Y-104608099D01*
X111703777Y-104626277D01*
X111685599Y-104642753D01*
X111665893Y-104657368D01*
X111644850Y-104669980D01*
X111622671Y-104680470D01*
X111599572Y-104688735D01*
X111575773Y-104694696D01*
X111551505Y-104698296D01*
X111527001Y-104699500D01*
X110976999Y-104699500D01*
X110952495Y-104698296D01*
X110928227Y-104694696D01*
X110904428Y-104688735D01*
X110881329Y-104680470D01*
X110859150Y-104669980D01*
X110838107Y-104657368D01*
X110818401Y-104642753D01*
X110800223Y-104626277D01*
X110783747Y-104608099D01*
X110769132Y-104588393D01*
X110756520Y-104567350D01*
X110746030Y-104545171D01*
X110737765Y-104522072D01*
X110731804Y-104498273D01*
X110728204Y-104474005D01*
X110727000Y-104449501D01*
X110727000Y-103824499D01*
X110728204Y-103799995D01*
X110731804Y-103775727D01*
X110737765Y-103751928D01*
X110746030Y-103728829D01*
X110756520Y-103706650D01*
X110769132Y-103685607D01*
X110783747Y-103665901D01*
X110800223Y-103647723D01*
X110818401Y-103631247D01*
X110838107Y-103616632D01*
X110859150Y-103604020D01*
X110881329Y-103593530D01*
X110904428Y-103585265D01*
X110928227Y-103579304D01*
X110952495Y-103575704D01*
X110976999Y-103574500D01*
X111527001Y-103574500D01*
X111551505Y-103575704D01*
X111551505Y-103575704D01*
G37*
D13*
X111252000Y-104137000D03*
G04 #@! TD*
D10*
G04 #@! TO.C,R1*
G36*
X164016958Y-97287710D02*
X164031276Y-97289834D01*
X164045317Y-97293351D01*
X164058946Y-97298228D01*
X164072031Y-97304417D01*
X164084447Y-97311858D01*
X164096073Y-97320481D01*
X164106798Y-97330202D01*
X164116519Y-97340927D01*
X164125142Y-97352553D01*
X164132583Y-97364969D01*
X164138772Y-97378054D01*
X164143649Y-97391683D01*
X164147166Y-97405724D01*
X164149290Y-97420042D01*
X164150000Y-97434500D01*
X164150000Y-97729500D01*
X164149290Y-97743958D01*
X164147166Y-97758276D01*
X164143649Y-97772317D01*
X164138772Y-97785946D01*
X164132583Y-97799031D01*
X164125142Y-97811447D01*
X164116519Y-97823073D01*
X164106798Y-97833798D01*
X164096073Y-97843519D01*
X164084447Y-97852142D01*
X164072031Y-97859583D01*
X164058946Y-97865772D01*
X164045317Y-97870649D01*
X164031276Y-97874166D01*
X164016958Y-97876290D01*
X164002500Y-97877000D01*
X163657500Y-97877000D01*
X163643042Y-97876290D01*
X163628724Y-97874166D01*
X163614683Y-97870649D01*
X163601054Y-97865772D01*
X163587969Y-97859583D01*
X163575553Y-97852142D01*
X163563927Y-97843519D01*
X163553202Y-97833798D01*
X163543481Y-97823073D01*
X163534858Y-97811447D01*
X163527417Y-97799031D01*
X163521228Y-97785946D01*
X163516351Y-97772317D01*
X163512834Y-97758276D01*
X163510710Y-97743958D01*
X163510000Y-97729500D01*
X163510000Y-97434500D01*
X163510710Y-97420042D01*
X163512834Y-97405724D01*
X163516351Y-97391683D01*
X163521228Y-97378054D01*
X163527417Y-97364969D01*
X163534858Y-97352553D01*
X163543481Y-97340927D01*
X163553202Y-97330202D01*
X163563927Y-97320481D01*
X163575553Y-97311858D01*
X163587969Y-97304417D01*
X163601054Y-97298228D01*
X163614683Y-97293351D01*
X163628724Y-97289834D01*
X163643042Y-97287710D01*
X163657500Y-97287000D01*
X164002500Y-97287000D01*
X164016958Y-97287710D01*
X164016958Y-97287710D01*
G37*
D11*
X163830000Y-97582000D03*
D10*
G36*
X164016958Y-98257710D02*
X164031276Y-98259834D01*
X164045317Y-98263351D01*
X164058946Y-98268228D01*
X164072031Y-98274417D01*
X164084447Y-98281858D01*
X164096073Y-98290481D01*
X164106798Y-98300202D01*
X164116519Y-98310927D01*
X164125142Y-98322553D01*
X164132583Y-98334969D01*
X164138772Y-98348054D01*
X164143649Y-98361683D01*
X164147166Y-98375724D01*
X164149290Y-98390042D01*
X164150000Y-98404500D01*
X164150000Y-98699500D01*
X164149290Y-98713958D01*
X164147166Y-98728276D01*
X164143649Y-98742317D01*
X164138772Y-98755946D01*
X164132583Y-98769031D01*
X164125142Y-98781447D01*
X164116519Y-98793073D01*
X164106798Y-98803798D01*
X164096073Y-98813519D01*
X164084447Y-98822142D01*
X164072031Y-98829583D01*
X164058946Y-98835772D01*
X164045317Y-98840649D01*
X164031276Y-98844166D01*
X164016958Y-98846290D01*
X164002500Y-98847000D01*
X163657500Y-98847000D01*
X163643042Y-98846290D01*
X163628724Y-98844166D01*
X163614683Y-98840649D01*
X163601054Y-98835772D01*
X163587969Y-98829583D01*
X163575553Y-98822142D01*
X163563927Y-98813519D01*
X163553202Y-98803798D01*
X163543481Y-98793073D01*
X163534858Y-98781447D01*
X163527417Y-98769031D01*
X163521228Y-98755946D01*
X163516351Y-98742317D01*
X163512834Y-98728276D01*
X163510710Y-98713958D01*
X163510000Y-98699500D01*
X163510000Y-98404500D01*
X163510710Y-98390042D01*
X163512834Y-98375724D01*
X163516351Y-98361683D01*
X163521228Y-98348054D01*
X163527417Y-98334969D01*
X163534858Y-98322553D01*
X163543481Y-98310927D01*
X163553202Y-98300202D01*
X163563927Y-98290481D01*
X163575553Y-98281858D01*
X163587969Y-98274417D01*
X163601054Y-98268228D01*
X163614683Y-98263351D01*
X163628724Y-98259834D01*
X163643042Y-98257710D01*
X163657500Y-98257000D01*
X164002500Y-98257000D01*
X164016958Y-98257710D01*
X164016958Y-98257710D01*
G37*
D11*
X163830000Y-98552000D03*
G04 #@! TD*
D10*
G04 #@! TO.C,R2*
G36*
X134573958Y-82992710D02*
X134588276Y-82994834D01*
X134602317Y-82998351D01*
X134615946Y-83003228D01*
X134629031Y-83009417D01*
X134641447Y-83016858D01*
X134653073Y-83025481D01*
X134663798Y-83035202D01*
X134673519Y-83045927D01*
X134682142Y-83057553D01*
X134689583Y-83069969D01*
X134695772Y-83083054D01*
X134700649Y-83096683D01*
X134704166Y-83110724D01*
X134706290Y-83125042D01*
X134707000Y-83139500D01*
X134707000Y-83484500D01*
X134706290Y-83498958D01*
X134704166Y-83513276D01*
X134700649Y-83527317D01*
X134695772Y-83540946D01*
X134689583Y-83554031D01*
X134682142Y-83566447D01*
X134673519Y-83578073D01*
X134663798Y-83588798D01*
X134653073Y-83598519D01*
X134641447Y-83607142D01*
X134629031Y-83614583D01*
X134615946Y-83620772D01*
X134602317Y-83625649D01*
X134588276Y-83629166D01*
X134573958Y-83631290D01*
X134559500Y-83632000D01*
X134264500Y-83632000D01*
X134250042Y-83631290D01*
X134235724Y-83629166D01*
X134221683Y-83625649D01*
X134208054Y-83620772D01*
X134194969Y-83614583D01*
X134182553Y-83607142D01*
X134170927Y-83598519D01*
X134160202Y-83588798D01*
X134150481Y-83578073D01*
X134141858Y-83566447D01*
X134134417Y-83554031D01*
X134128228Y-83540946D01*
X134123351Y-83527317D01*
X134119834Y-83513276D01*
X134117710Y-83498958D01*
X134117000Y-83484500D01*
X134117000Y-83139500D01*
X134117710Y-83125042D01*
X134119834Y-83110724D01*
X134123351Y-83096683D01*
X134128228Y-83083054D01*
X134134417Y-83069969D01*
X134141858Y-83057553D01*
X134150481Y-83045927D01*
X134160202Y-83035202D01*
X134170927Y-83025481D01*
X134182553Y-83016858D01*
X134194969Y-83009417D01*
X134208054Y-83003228D01*
X134221683Y-82998351D01*
X134235724Y-82994834D01*
X134250042Y-82992710D01*
X134264500Y-82992000D01*
X134559500Y-82992000D01*
X134573958Y-82992710D01*
X134573958Y-82992710D01*
G37*
D11*
X134412000Y-83312000D03*
D10*
G36*
X135543958Y-82992710D02*
X135558276Y-82994834D01*
X135572317Y-82998351D01*
X135585946Y-83003228D01*
X135599031Y-83009417D01*
X135611447Y-83016858D01*
X135623073Y-83025481D01*
X135633798Y-83035202D01*
X135643519Y-83045927D01*
X135652142Y-83057553D01*
X135659583Y-83069969D01*
X135665772Y-83083054D01*
X135670649Y-83096683D01*
X135674166Y-83110724D01*
X135676290Y-83125042D01*
X135677000Y-83139500D01*
X135677000Y-83484500D01*
X135676290Y-83498958D01*
X135674166Y-83513276D01*
X135670649Y-83527317D01*
X135665772Y-83540946D01*
X135659583Y-83554031D01*
X135652142Y-83566447D01*
X135643519Y-83578073D01*
X135633798Y-83588798D01*
X135623073Y-83598519D01*
X135611447Y-83607142D01*
X135599031Y-83614583D01*
X135585946Y-83620772D01*
X135572317Y-83625649D01*
X135558276Y-83629166D01*
X135543958Y-83631290D01*
X135529500Y-83632000D01*
X135234500Y-83632000D01*
X135220042Y-83631290D01*
X135205724Y-83629166D01*
X135191683Y-83625649D01*
X135178054Y-83620772D01*
X135164969Y-83614583D01*
X135152553Y-83607142D01*
X135140927Y-83598519D01*
X135130202Y-83588798D01*
X135120481Y-83578073D01*
X135111858Y-83566447D01*
X135104417Y-83554031D01*
X135098228Y-83540946D01*
X135093351Y-83527317D01*
X135089834Y-83513276D01*
X135087710Y-83498958D01*
X135087000Y-83484500D01*
X135087000Y-83139500D01*
X135087710Y-83125042D01*
X135089834Y-83110724D01*
X135093351Y-83096683D01*
X135098228Y-83083054D01*
X135104417Y-83069969D01*
X135111858Y-83057553D01*
X135120481Y-83045927D01*
X135130202Y-83035202D01*
X135140927Y-83025481D01*
X135152553Y-83016858D01*
X135164969Y-83009417D01*
X135178054Y-83003228D01*
X135191683Y-82998351D01*
X135205724Y-82994834D01*
X135220042Y-82992710D01*
X135234500Y-82992000D01*
X135529500Y-82992000D01*
X135543958Y-82992710D01*
X135543958Y-82992710D01*
G37*
D11*
X135382000Y-83312000D03*
G04 #@! TD*
D10*
G04 #@! TO.C,R3*
G36*
X164016958Y-94978710D02*
X164031276Y-94980834D01*
X164045317Y-94984351D01*
X164058946Y-94989228D01*
X164072031Y-94995417D01*
X164084447Y-95002858D01*
X164096073Y-95011481D01*
X164106798Y-95021202D01*
X164116519Y-95031927D01*
X164125142Y-95043553D01*
X164132583Y-95055969D01*
X164138772Y-95069054D01*
X164143649Y-95082683D01*
X164147166Y-95096724D01*
X164149290Y-95111042D01*
X164150000Y-95125500D01*
X164150000Y-95420500D01*
X164149290Y-95434958D01*
X164147166Y-95449276D01*
X164143649Y-95463317D01*
X164138772Y-95476946D01*
X164132583Y-95490031D01*
X164125142Y-95502447D01*
X164116519Y-95514073D01*
X164106798Y-95524798D01*
X164096073Y-95534519D01*
X164084447Y-95543142D01*
X164072031Y-95550583D01*
X164058946Y-95556772D01*
X164045317Y-95561649D01*
X164031276Y-95565166D01*
X164016958Y-95567290D01*
X164002500Y-95568000D01*
X163657500Y-95568000D01*
X163643042Y-95567290D01*
X163628724Y-95565166D01*
X163614683Y-95561649D01*
X163601054Y-95556772D01*
X163587969Y-95550583D01*
X163575553Y-95543142D01*
X163563927Y-95534519D01*
X163553202Y-95524798D01*
X163543481Y-95514073D01*
X163534858Y-95502447D01*
X163527417Y-95490031D01*
X163521228Y-95476946D01*
X163516351Y-95463317D01*
X163512834Y-95449276D01*
X163510710Y-95434958D01*
X163510000Y-95420500D01*
X163510000Y-95125500D01*
X163510710Y-95111042D01*
X163512834Y-95096724D01*
X163516351Y-95082683D01*
X163521228Y-95069054D01*
X163527417Y-95055969D01*
X163534858Y-95043553D01*
X163543481Y-95031927D01*
X163553202Y-95021202D01*
X163563927Y-95011481D01*
X163575553Y-95002858D01*
X163587969Y-94995417D01*
X163601054Y-94989228D01*
X163614683Y-94984351D01*
X163628724Y-94980834D01*
X163643042Y-94978710D01*
X163657500Y-94978000D01*
X164002500Y-94978000D01*
X164016958Y-94978710D01*
X164016958Y-94978710D01*
G37*
D11*
X163830000Y-95273000D03*
D10*
G36*
X164016958Y-95948710D02*
X164031276Y-95950834D01*
X164045317Y-95954351D01*
X164058946Y-95959228D01*
X164072031Y-95965417D01*
X164084447Y-95972858D01*
X164096073Y-95981481D01*
X164106798Y-95991202D01*
X164116519Y-96001927D01*
X164125142Y-96013553D01*
X164132583Y-96025969D01*
X164138772Y-96039054D01*
X164143649Y-96052683D01*
X164147166Y-96066724D01*
X164149290Y-96081042D01*
X164150000Y-96095500D01*
X164150000Y-96390500D01*
X164149290Y-96404958D01*
X164147166Y-96419276D01*
X164143649Y-96433317D01*
X164138772Y-96446946D01*
X164132583Y-96460031D01*
X164125142Y-96472447D01*
X164116519Y-96484073D01*
X164106798Y-96494798D01*
X164096073Y-96504519D01*
X164084447Y-96513142D01*
X164072031Y-96520583D01*
X164058946Y-96526772D01*
X164045317Y-96531649D01*
X164031276Y-96535166D01*
X164016958Y-96537290D01*
X164002500Y-96538000D01*
X163657500Y-96538000D01*
X163643042Y-96537290D01*
X163628724Y-96535166D01*
X163614683Y-96531649D01*
X163601054Y-96526772D01*
X163587969Y-96520583D01*
X163575553Y-96513142D01*
X163563927Y-96504519D01*
X163553202Y-96494798D01*
X163543481Y-96484073D01*
X163534858Y-96472447D01*
X163527417Y-96460031D01*
X163521228Y-96446946D01*
X163516351Y-96433317D01*
X163512834Y-96419276D01*
X163510710Y-96404958D01*
X163510000Y-96390500D01*
X163510000Y-96095500D01*
X163510710Y-96081042D01*
X163512834Y-96066724D01*
X163516351Y-96052683D01*
X163521228Y-96039054D01*
X163527417Y-96025969D01*
X163534858Y-96013553D01*
X163543481Y-96001927D01*
X163553202Y-95991202D01*
X163563927Y-95981481D01*
X163575553Y-95972858D01*
X163587969Y-95965417D01*
X163601054Y-95959228D01*
X163614683Y-95954351D01*
X163628724Y-95950834D01*
X163643042Y-95948710D01*
X163657500Y-95948000D01*
X164002500Y-95948000D01*
X164016958Y-95948710D01*
X164016958Y-95948710D01*
G37*
D11*
X163830000Y-96243000D03*
G04 #@! TD*
D10*
G04 #@! TO.C,R4*
G36*
X163737958Y-91120710D02*
X163752276Y-91122834D01*
X163766317Y-91126351D01*
X163779946Y-91131228D01*
X163793031Y-91137417D01*
X163805447Y-91144858D01*
X163817073Y-91153481D01*
X163827798Y-91163202D01*
X163837519Y-91173927D01*
X163846142Y-91185553D01*
X163853583Y-91197969D01*
X163859772Y-91211054D01*
X163864649Y-91224683D01*
X163868166Y-91238724D01*
X163870290Y-91253042D01*
X163871000Y-91267500D01*
X163871000Y-91612500D01*
X163870290Y-91626958D01*
X163868166Y-91641276D01*
X163864649Y-91655317D01*
X163859772Y-91668946D01*
X163853583Y-91682031D01*
X163846142Y-91694447D01*
X163837519Y-91706073D01*
X163827798Y-91716798D01*
X163817073Y-91726519D01*
X163805447Y-91735142D01*
X163793031Y-91742583D01*
X163779946Y-91748772D01*
X163766317Y-91753649D01*
X163752276Y-91757166D01*
X163737958Y-91759290D01*
X163723500Y-91760000D01*
X163428500Y-91760000D01*
X163414042Y-91759290D01*
X163399724Y-91757166D01*
X163385683Y-91753649D01*
X163372054Y-91748772D01*
X163358969Y-91742583D01*
X163346553Y-91735142D01*
X163334927Y-91726519D01*
X163324202Y-91716798D01*
X163314481Y-91706073D01*
X163305858Y-91694447D01*
X163298417Y-91682031D01*
X163292228Y-91668946D01*
X163287351Y-91655317D01*
X163283834Y-91641276D01*
X163281710Y-91626958D01*
X163281000Y-91612500D01*
X163281000Y-91267500D01*
X163281710Y-91253042D01*
X163283834Y-91238724D01*
X163287351Y-91224683D01*
X163292228Y-91211054D01*
X163298417Y-91197969D01*
X163305858Y-91185553D01*
X163314481Y-91173927D01*
X163324202Y-91163202D01*
X163334927Y-91153481D01*
X163346553Y-91144858D01*
X163358969Y-91137417D01*
X163372054Y-91131228D01*
X163385683Y-91126351D01*
X163399724Y-91122834D01*
X163414042Y-91120710D01*
X163428500Y-91120000D01*
X163723500Y-91120000D01*
X163737958Y-91120710D01*
X163737958Y-91120710D01*
G37*
D11*
X163576000Y-91440000D03*
D10*
G36*
X164707958Y-91120710D02*
X164722276Y-91122834D01*
X164736317Y-91126351D01*
X164749946Y-91131228D01*
X164763031Y-91137417D01*
X164775447Y-91144858D01*
X164787073Y-91153481D01*
X164797798Y-91163202D01*
X164807519Y-91173927D01*
X164816142Y-91185553D01*
X164823583Y-91197969D01*
X164829772Y-91211054D01*
X164834649Y-91224683D01*
X164838166Y-91238724D01*
X164840290Y-91253042D01*
X164841000Y-91267500D01*
X164841000Y-91612500D01*
X164840290Y-91626958D01*
X164838166Y-91641276D01*
X164834649Y-91655317D01*
X164829772Y-91668946D01*
X164823583Y-91682031D01*
X164816142Y-91694447D01*
X164807519Y-91706073D01*
X164797798Y-91716798D01*
X164787073Y-91726519D01*
X164775447Y-91735142D01*
X164763031Y-91742583D01*
X164749946Y-91748772D01*
X164736317Y-91753649D01*
X164722276Y-91757166D01*
X164707958Y-91759290D01*
X164693500Y-91760000D01*
X164398500Y-91760000D01*
X164384042Y-91759290D01*
X164369724Y-91757166D01*
X164355683Y-91753649D01*
X164342054Y-91748772D01*
X164328969Y-91742583D01*
X164316553Y-91735142D01*
X164304927Y-91726519D01*
X164294202Y-91716798D01*
X164284481Y-91706073D01*
X164275858Y-91694447D01*
X164268417Y-91682031D01*
X164262228Y-91668946D01*
X164257351Y-91655317D01*
X164253834Y-91641276D01*
X164251710Y-91626958D01*
X164251000Y-91612500D01*
X164251000Y-91267500D01*
X164251710Y-91253042D01*
X164253834Y-91238724D01*
X164257351Y-91224683D01*
X164262228Y-91211054D01*
X164268417Y-91197969D01*
X164275858Y-91185553D01*
X164284481Y-91173927D01*
X164294202Y-91163202D01*
X164304927Y-91153481D01*
X164316553Y-91144858D01*
X164328969Y-91137417D01*
X164342054Y-91131228D01*
X164355683Y-91126351D01*
X164369724Y-91122834D01*
X164384042Y-91120710D01*
X164398500Y-91120000D01*
X164693500Y-91120000D01*
X164707958Y-91120710D01*
X164707958Y-91120710D01*
G37*
D11*
X164546000Y-91440000D03*
G04 #@! TD*
D10*
G04 #@! TO.C,R5*
G36*
X163762958Y-87335710D02*
X163777276Y-87337834D01*
X163791317Y-87341351D01*
X163804946Y-87346228D01*
X163818031Y-87352417D01*
X163830447Y-87359858D01*
X163842073Y-87368481D01*
X163852798Y-87378202D01*
X163862519Y-87388927D01*
X163871142Y-87400553D01*
X163878583Y-87412969D01*
X163884772Y-87426054D01*
X163889649Y-87439683D01*
X163893166Y-87453724D01*
X163895290Y-87468042D01*
X163896000Y-87482500D01*
X163896000Y-87777500D01*
X163895290Y-87791958D01*
X163893166Y-87806276D01*
X163889649Y-87820317D01*
X163884772Y-87833946D01*
X163878583Y-87847031D01*
X163871142Y-87859447D01*
X163862519Y-87871073D01*
X163852798Y-87881798D01*
X163842073Y-87891519D01*
X163830447Y-87900142D01*
X163818031Y-87907583D01*
X163804946Y-87913772D01*
X163791317Y-87918649D01*
X163777276Y-87922166D01*
X163762958Y-87924290D01*
X163748500Y-87925000D01*
X163403500Y-87925000D01*
X163389042Y-87924290D01*
X163374724Y-87922166D01*
X163360683Y-87918649D01*
X163347054Y-87913772D01*
X163333969Y-87907583D01*
X163321553Y-87900142D01*
X163309927Y-87891519D01*
X163299202Y-87881798D01*
X163289481Y-87871073D01*
X163280858Y-87859447D01*
X163273417Y-87847031D01*
X163267228Y-87833946D01*
X163262351Y-87820317D01*
X163258834Y-87806276D01*
X163256710Y-87791958D01*
X163256000Y-87777500D01*
X163256000Y-87482500D01*
X163256710Y-87468042D01*
X163258834Y-87453724D01*
X163262351Y-87439683D01*
X163267228Y-87426054D01*
X163273417Y-87412969D01*
X163280858Y-87400553D01*
X163289481Y-87388927D01*
X163299202Y-87378202D01*
X163309927Y-87368481D01*
X163321553Y-87359858D01*
X163333969Y-87352417D01*
X163347054Y-87346228D01*
X163360683Y-87341351D01*
X163374724Y-87337834D01*
X163389042Y-87335710D01*
X163403500Y-87335000D01*
X163748500Y-87335000D01*
X163762958Y-87335710D01*
X163762958Y-87335710D01*
G37*
D11*
X163576000Y-87630000D03*
D10*
G36*
X163762958Y-86365710D02*
X163777276Y-86367834D01*
X163791317Y-86371351D01*
X163804946Y-86376228D01*
X163818031Y-86382417D01*
X163830447Y-86389858D01*
X163842073Y-86398481D01*
X163852798Y-86408202D01*
X163862519Y-86418927D01*
X163871142Y-86430553D01*
X163878583Y-86442969D01*
X163884772Y-86456054D01*
X163889649Y-86469683D01*
X163893166Y-86483724D01*
X163895290Y-86498042D01*
X163896000Y-86512500D01*
X163896000Y-86807500D01*
X163895290Y-86821958D01*
X163893166Y-86836276D01*
X163889649Y-86850317D01*
X163884772Y-86863946D01*
X163878583Y-86877031D01*
X163871142Y-86889447D01*
X163862519Y-86901073D01*
X163852798Y-86911798D01*
X163842073Y-86921519D01*
X163830447Y-86930142D01*
X163818031Y-86937583D01*
X163804946Y-86943772D01*
X163791317Y-86948649D01*
X163777276Y-86952166D01*
X163762958Y-86954290D01*
X163748500Y-86955000D01*
X163403500Y-86955000D01*
X163389042Y-86954290D01*
X163374724Y-86952166D01*
X163360683Y-86948649D01*
X163347054Y-86943772D01*
X163333969Y-86937583D01*
X163321553Y-86930142D01*
X163309927Y-86921519D01*
X163299202Y-86911798D01*
X163289481Y-86901073D01*
X163280858Y-86889447D01*
X163273417Y-86877031D01*
X163267228Y-86863946D01*
X163262351Y-86850317D01*
X163258834Y-86836276D01*
X163256710Y-86821958D01*
X163256000Y-86807500D01*
X163256000Y-86512500D01*
X163256710Y-86498042D01*
X163258834Y-86483724D01*
X163262351Y-86469683D01*
X163267228Y-86456054D01*
X163273417Y-86442969D01*
X163280858Y-86430553D01*
X163289481Y-86418927D01*
X163299202Y-86408202D01*
X163309927Y-86398481D01*
X163321553Y-86389858D01*
X163333969Y-86382417D01*
X163347054Y-86376228D01*
X163360683Y-86371351D01*
X163374724Y-86367834D01*
X163389042Y-86365710D01*
X163403500Y-86365000D01*
X163748500Y-86365000D01*
X163762958Y-86365710D01*
X163762958Y-86365710D01*
G37*
D11*
X163576000Y-86660000D03*
G04 #@! TD*
D10*
G04 #@! TO.C,R6*
G36*
X136559958Y-68514710D02*
X136574276Y-68516834D01*
X136588317Y-68520351D01*
X136601946Y-68525228D01*
X136615031Y-68531417D01*
X136627447Y-68538858D01*
X136639073Y-68547481D01*
X136649798Y-68557202D01*
X136659519Y-68567927D01*
X136668142Y-68579553D01*
X136675583Y-68591969D01*
X136681772Y-68605054D01*
X136686649Y-68618683D01*
X136690166Y-68632724D01*
X136692290Y-68647042D01*
X136693000Y-68661500D01*
X136693000Y-69006500D01*
X136692290Y-69020958D01*
X136690166Y-69035276D01*
X136686649Y-69049317D01*
X136681772Y-69062946D01*
X136675583Y-69076031D01*
X136668142Y-69088447D01*
X136659519Y-69100073D01*
X136649798Y-69110798D01*
X136639073Y-69120519D01*
X136627447Y-69129142D01*
X136615031Y-69136583D01*
X136601946Y-69142772D01*
X136588317Y-69147649D01*
X136574276Y-69151166D01*
X136559958Y-69153290D01*
X136545500Y-69154000D01*
X136250500Y-69154000D01*
X136236042Y-69153290D01*
X136221724Y-69151166D01*
X136207683Y-69147649D01*
X136194054Y-69142772D01*
X136180969Y-69136583D01*
X136168553Y-69129142D01*
X136156927Y-69120519D01*
X136146202Y-69110798D01*
X136136481Y-69100073D01*
X136127858Y-69088447D01*
X136120417Y-69076031D01*
X136114228Y-69062946D01*
X136109351Y-69049317D01*
X136105834Y-69035276D01*
X136103710Y-69020958D01*
X136103000Y-69006500D01*
X136103000Y-68661500D01*
X136103710Y-68647042D01*
X136105834Y-68632724D01*
X136109351Y-68618683D01*
X136114228Y-68605054D01*
X136120417Y-68591969D01*
X136127858Y-68579553D01*
X136136481Y-68567927D01*
X136146202Y-68557202D01*
X136156927Y-68547481D01*
X136168553Y-68538858D01*
X136180969Y-68531417D01*
X136194054Y-68525228D01*
X136207683Y-68520351D01*
X136221724Y-68516834D01*
X136236042Y-68514710D01*
X136250500Y-68514000D01*
X136545500Y-68514000D01*
X136559958Y-68514710D01*
X136559958Y-68514710D01*
G37*
D11*
X136398000Y-68834000D03*
D10*
G36*
X135589958Y-68514710D02*
X135604276Y-68516834D01*
X135618317Y-68520351D01*
X135631946Y-68525228D01*
X135645031Y-68531417D01*
X135657447Y-68538858D01*
X135669073Y-68547481D01*
X135679798Y-68557202D01*
X135689519Y-68567927D01*
X135698142Y-68579553D01*
X135705583Y-68591969D01*
X135711772Y-68605054D01*
X135716649Y-68618683D01*
X135720166Y-68632724D01*
X135722290Y-68647042D01*
X135723000Y-68661500D01*
X135723000Y-69006500D01*
X135722290Y-69020958D01*
X135720166Y-69035276D01*
X135716649Y-69049317D01*
X135711772Y-69062946D01*
X135705583Y-69076031D01*
X135698142Y-69088447D01*
X135689519Y-69100073D01*
X135679798Y-69110798D01*
X135669073Y-69120519D01*
X135657447Y-69129142D01*
X135645031Y-69136583D01*
X135631946Y-69142772D01*
X135618317Y-69147649D01*
X135604276Y-69151166D01*
X135589958Y-69153290D01*
X135575500Y-69154000D01*
X135280500Y-69154000D01*
X135266042Y-69153290D01*
X135251724Y-69151166D01*
X135237683Y-69147649D01*
X135224054Y-69142772D01*
X135210969Y-69136583D01*
X135198553Y-69129142D01*
X135186927Y-69120519D01*
X135176202Y-69110798D01*
X135166481Y-69100073D01*
X135157858Y-69088447D01*
X135150417Y-69076031D01*
X135144228Y-69062946D01*
X135139351Y-69049317D01*
X135135834Y-69035276D01*
X135133710Y-69020958D01*
X135133000Y-69006500D01*
X135133000Y-68661500D01*
X135133710Y-68647042D01*
X135135834Y-68632724D01*
X135139351Y-68618683D01*
X135144228Y-68605054D01*
X135150417Y-68591969D01*
X135157858Y-68579553D01*
X135166481Y-68567927D01*
X135176202Y-68557202D01*
X135186927Y-68547481D01*
X135198553Y-68538858D01*
X135210969Y-68531417D01*
X135224054Y-68525228D01*
X135237683Y-68520351D01*
X135251724Y-68516834D01*
X135266042Y-68514710D01*
X135280500Y-68514000D01*
X135575500Y-68514000D01*
X135589958Y-68514710D01*
X135589958Y-68514710D01*
G37*
D11*
X135428000Y-68834000D03*
G04 #@! TD*
D10*
G04 #@! TO.C,R7*
G36*
X148982958Y-68768710D02*
X148997276Y-68770834D01*
X149011317Y-68774351D01*
X149024946Y-68779228D01*
X149038031Y-68785417D01*
X149050447Y-68792858D01*
X149062073Y-68801481D01*
X149072798Y-68811202D01*
X149082519Y-68821927D01*
X149091142Y-68833553D01*
X149098583Y-68845969D01*
X149104772Y-68859054D01*
X149109649Y-68872683D01*
X149113166Y-68886724D01*
X149115290Y-68901042D01*
X149116000Y-68915500D01*
X149116000Y-69260500D01*
X149115290Y-69274958D01*
X149113166Y-69289276D01*
X149109649Y-69303317D01*
X149104772Y-69316946D01*
X149098583Y-69330031D01*
X149091142Y-69342447D01*
X149082519Y-69354073D01*
X149072798Y-69364798D01*
X149062073Y-69374519D01*
X149050447Y-69383142D01*
X149038031Y-69390583D01*
X149024946Y-69396772D01*
X149011317Y-69401649D01*
X148997276Y-69405166D01*
X148982958Y-69407290D01*
X148968500Y-69408000D01*
X148673500Y-69408000D01*
X148659042Y-69407290D01*
X148644724Y-69405166D01*
X148630683Y-69401649D01*
X148617054Y-69396772D01*
X148603969Y-69390583D01*
X148591553Y-69383142D01*
X148579927Y-69374519D01*
X148569202Y-69364798D01*
X148559481Y-69354073D01*
X148550858Y-69342447D01*
X148543417Y-69330031D01*
X148537228Y-69316946D01*
X148532351Y-69303317D01*
X148528834Y-69289276D01*
X148526710Y-69274958D01*
X148526000Y-69260500D01*
X148526000Y-68915500D01*
X148526710Y-68901042D01*
X148528834Y-68886724D01*
X148532351Y-68872683D01*
X148537228Y-68859054D01*
X148543417Y-68845969D01*
X148550858Y-68833553D01*
X148559481Y-68821927D01*
X148569202Y-68811202D01*
X148579927Y-68801481D01*
X148591553Y-68792858D01*
X148603969Y-68785417D01*
X148617054Y-68779228D01*
X148630683Y-68774351D01*
X148644724Y-68770834D01*
X148659042Y-68768710D01*
X148673500Y-68768000D01*
X148968500Y-68768000D01*
X148982958Y-68768710D01*
X148982958Y-68768710D01*
G37*
D11*
X148821000Y-69088000D03*
D10*
G36*
X148012958Y-68768710D02*
X148027276Y-68770834D01*
X148041317Y-68774351D01*
X148054946Y-68779228D01*
X148068031Y-68785417D01*
X148080447Y-68792858D01*
X148092073Y-68801481D01*
X148102798Y-68811202D01*
X148112519Y-68821927D01*
X148121142Y-68833553D01*
X148128583Y-68845969D01*
X148134772Y-68859054D01*
X148139649Y-68872683D01*
X148143166Y-68886724D01*
X148145290Y-68901042D01*
X148146000Y-68915500D01*
X148146000Y-69260500D01*
X148145290Y-69274958D01*
X148143166Y-69289276D01*
X148139649Y-69303317D01*
X148134772Y-69316946D01*
X148128583Y-69330031D01*
X148121142Y-69342447D01*
X148112519Y-69354073D01*
X148102798Y-69364798D01*
X148092073Y-69374519D01*
X148080447Y-69383142D01*
X148068031Y-69390583D01*
X148054946Y-69396772D01*
X148041317Y-69401649D01*
X148027276Y-69405166D01*
X148012958Y-69407290D01*
X147998500Y-69408000D01*
X147703500Y-69408000D01*
X147689042Y-69407290D01*
X147674724Y-69405166D01*
X147660683Y-69401649D01*
X147647054Y-69396772D01*
X147633969Y-69390583D01*
X147621553Y-69383142D01*
X147609927Y-69374519D01*
X147599202Y-69364798D01*
X147589481Y-69354073D01*
X147580858Y-69342447D01*
X147573417Y-69330031D01*
X147567228Y-69316946D01*
X147562351Y-69303317D01*
X147558834Y-69289276D01*
X147556710Y-69274958D01*
X147556000Y-69260500D01*
X147556000Y-68915500D01*
X147556710Y-68901042D01*
X147558834Y-68886724D01*
X147562351Y-68872683D01*
X147567228Y-68859054D01*
X147573417Y-68845969D01*
X147580858Y-68833553D01*
X147589481Y-68821927D01*
X147599202Y-68811202D01*
X147609927Y-68801481D01*
X147621553Y-68792858D01*
X147633969Y-68785417D01*
X147647054Y-68779228D01*
X147660683Y-68774351D01*
X147674724Y-68770834D01*
X147689042Y-68768710D01*
X147703500Y-68768000D01*
X147998500Y-68768000D01*
X148012958Y-68768710D01*
X148012958Y-68768710D01*
G37*
D11*
X147851000Y-69088000D03*
G04 #@! TD*
D10*
G04 #@! TO.C,R8*
G36*
X153831958Y-111948710D02*
X153846276Y-111950834D01*
X153860317Y-111954351D01*
X153873946Y-111959228D01*
X153887031Y-111965417D01*
X153899447Y-111972858D01*
X153911073Y-111981481D01*
X153921798Y-111991202D01*
X153931519Y-112001927D01*
X153940142Y-112013553D01*
X153947583Y-112025969D01*
X153953772Y-112039054D01*
X153958649Y-112052683D01*
X153962166Y-112066724D01*
X153964290Y-112081042D01*
X153965000Y-112095500D01*
X153965000Y-112440500D01*
X153964290Y-112454958D01*
X153962166Y-112469276D01*
X153958649Y-112483317D01*
X153953772Y-112496946D01*
X153947583Y-112510031D01*
X153940142Y-112522447D01*
X153931519Y-112534073D01*
X153921798Y-112544798D01*
X153911073Y-112554519D01*
X153899447Y-112563142D01*
X153887031Y-112570583D01*
X153873946Y-112576772D01*
X153860317Y-112581649D01*
X153846276Y-112585166D01*
X153831958Y-112587290D01*
X153817500Y-112588000D01*
X153522500Y-112588000D01*
X153508042Y-112587290D01*
X153493724Y-112585166D01*
X153479683Y-112581649D01*
X153466054Y-112576772D01*
X153452969Y-112570583D01*
X153440553Y-112563142D01*
X153428927Y-112554519D01*
X153418202Y-112544798D01*
X153408481Y-112534073D01*
X153399858Y-112522447D01*
X153392417Y-112510031D01*
X153386228Y-112496946D01*
X153381351Y-112483317D01*
X153377834Y-112469276D01*
X153375710Y-112454958D01*
X153375000Y-112440500D01*
X153375000Y-112095500D01*
X153375710Y-112081042D01*
X153377834Y-112066724D01*
X153381351Y-112052683D01*
X153386228Y-112039054D01*
X153392417Y-112025969D01*
X153399858Y-112013553D01*
X153408481Y-112001927D01*
X153418202Y-111991202D01*
X153428927Y-111981481D01*
X153440553Y-111972858D01*
X153452969Y-111965417D01*
X153466054Y-111959228D01*
X153479683Y-111954351D01*
X153493724Y-111950834D01*
X153508042Y-111948710D01*
X153522500Y-111948000D01*
X153817500Y-111948000D01*
X153831958Y-111948710D01*
X153831958Y-111948710D01*
G37*
D11*
X153670000Y-112268000D03*
D10*
G36*
X152861958Y-111948710D02*
X152876276Y-111950834D01*
X152890317Y-111954351D01*
X152903946Y-111959228D01*
X152917031Y-111965417D01*
X152929447Y-111972858D01*
X152941073Y-111981481D01*
X152951798Y-111991202D01*
X152961519Y-112001927D01*
X152970142Y-112013553D01*
X152977583Y-112025969D01*
X152983772Y-112039054D01*
X152988649Y-112052683D01*
X152992166Y-112066724D01*
X152994290Y-112081042D01*
X152995000Y-112095500D01*
X152995000Y-112440500D01*
X152994290Y-112454958D01*
X152992166Y-112469276D01*
X152988649Y-112483317D01*
X152983772Y-112496946D01*
X152977583Y-112510031D01*
X152970142Y-112522447D01*
X152961519Y-112534073D01*
X152951798Y-112544798D01*
X152941073Y-112554519D01*
X152929447Y-112563142D01*
X152917031Y-112570583D01*
X152903946Y-112576772D01*
X152890317Y-112581649D01*
X152876276Y-112585166D01*
X152861958Y-112587290D01*
X152847500Y-112588000D01*
X152552500Y-112588000D01*
X152538042Y-112587290D01*
X152523724Y-112585166D01*
X152509683Y-112581649D01*
X152496054Y-112576772D01*
X152482969Y-112570583D01*
X152470553Y-112563142D01*
X152458927Y-112554519D01*
X152448202Y-112544798D01*
X152438481Y-112534073D01*
X152429858Y-112522447D01*
X152422417Y-112510031D01*
X152416228Y-112496946D01*
X152411351Y-112483317D01*
X152407834Y-112469276D01*
X152405710Y-112454958D01*
X152405000Y-112440500D01*
X152405000Y-112095500D01*
X152405710Y-112081042D01*
X152407834Y-112066724D01*
X152411351Y-112052683D01*
X152416228Y-112039054D01*
X152422417Y-112025969D01*
X152429858Y-112013553D01*
X152438481Y-112001927D01*
X152448202Y-111991202D01*
X152458927Y-111981481D01*
X152470553Y-111972858D01*
X152482969Y-111965417D01*
X152496054Y-111959228D01*
X152509683Y-111954351D01*
X152523724Y-111950834D01*
X152538042Y-111948710D01*
X152552500Y-111948000D01*
X152847500Y-111948000D01*
X152861958Y-111948710D01*
X152861958Y-111948710D01*
G37*
D11*
X152700000Y-112268000D03*
G04 #@! TD*
D10*
G04 #@! TO.C,R9*
G36*
X130763958Y-129982710D02*
X130778276Y-129984834D01*
X130792317Y-129988351D01*
X130805946Y-129993228D01*
X130819031Y-129999417D01*
X130831447Y-130006858D01*
X130843073Y-130015481D01*
X130853798Y-130025202D01*
X130863519Y-130035927D01*
X130872142Y-130047553D01*
X130879583Y-130059969D01*
X130885772Y-130073054D01*
X130890649Y-130086683D01*
X130894166Y-130100724D01*
X130896290Y-130115042D01*
X130897000Y-130129500D01*
X130897000Y-130474500D01*
X130896290Y-130488958D01*
X130894166Y-130503276D01*
X130890649Y-130517317D01*
X130885772Y-130530946D01*
X130879583Y-130544031D01*
X130872142Y-130556447D01*
X130863519Y-130568073D01*
X130853798Y-130578798D01*
X130843073Y-130588519D01*
X130831447Y-130597142D01*
X130819031Y-130604583D01*
X130805946Y-130610772D01*
X130792317Y-130615649D01*
X130778276Y-130619166D01*
X130763958Y-130621290D01*
X130749500Y-130622000D01*
X130454500Y-130622000D01*
X130440042Y-130621290D01*
X130425724Y-130619166D01*
X130411683Y-130615649D01*
X130398054Y-130610772D01*
X130384969Y-130604583D01*
X130372553Y-130597142D01*
X130360927Y-130588519D01*
X130350202Y-130578798D01*
X130340481Y-130568073D01*
X130331858Y-130556447D01*
X130324417Y-130544031D01*
X130318228Y-130530946D01*
X130313351Y-130517317D01*
X130309834Y-130503276D01*
X130307710Y-130488958D01*
X130307000Y-130474500D01*
X130307000Y-130129500D01*
X130307710Y-130115042D01*
X130309834Y-130100724D01*
X130313351Y-130086683D01*
X130318228Y-130073054D01*
X130324417Y-130059969D01*
X130331858Y-130047553D01*
X130340481Y-130035927D01*
X130350202Y-130025202D01*
X130360927Y-130015481D01*
X130372553Y-130006858D01*
X130384969Y-129999417D01*
X130398054Y-129993228D01*
X130411683Y-129988351D01*
X130425724Y-129984834D01*
X130440042Y-129982710D01*
X130454500Y-129982000D01*
X130749500Y-129982000D01*
X130763958Y-129982710D01*
X130763958Y-129982710D01*
G37*
D11*
X130602000Y-130302000D03*
D10*
G36*
X131733958Y-129982710D02*
X131748276Y-129984834D01*
X131762317Y-129988351D01*
X131775946Y-129993228D01*
X131789031Y-129999417D01*
X131801447Y-130006858D01*
X131813073Y-130015481D01*
X131823798Y-130025202D01*
X131833519Y-130035927D01*
X131842142Y-130047553D01*
X131849583Y-130059969D01*
X131855772Y-130073054D01*
X131860649Y-130086683D01*
X131864166Y-130100724D01*
X131866290Y-130115042D01*
X131867000Y-130129500D01*
X131867000Y-130474500D01*
X131866290Y-130488958D01*
X131864166Y-130503276D01*
X131860649Y-130517317D01*
X131855772Y-130530946D01*
X131849583Y-130544031D01*
X131842142Y-130556447D01*
X131833519Y-130568073D01*
X131823798Y-130578798D01*
X131813073Y-130588519D01*
X131801447Y-130597142D01*
X131789031Y-130604583D01*
X131775946Y-130610772D01*
X131762317Y-130615649D01*
X131748276Y-130619166D01*
X131733958Y-130621290D01*
X131719500Y-130622000D01*
X131424500Y-130622000D01*
X131410042Y-130621290D01*
X131395724Y-130619166D01*
X131381683Y-130615649D01*
X131368054Y-130610772D01*
X131354969Y-130604583D01*
X131342553Y-130597142D01*
X131330927Y-130588519D01*
X131320202Y-130578798D01*
X131310481Y-130568073D01*
X131301858Y-130556447D01*
X131294417Y-130544031D01*
X131288228Y-130530946D01*
X131283351Y-130517317D01*
X131279834Y-130503276D01*
X131277710Y-130488958D01*
X131277000Y-130474500D01*
X131277000Y-130129500D01*
X131277710Y-130115042D01*
X131279834Y-130100724D01*
X131283351Y-130086683D01*
X131288228Y-130073054D01*
X131294417Y-130059969D01*
X131301858Y-130047553D01*
X131310481Y-130035927D01*
X131320202Y-130025202D01*
X131330927Y-130015481D01*
X131342553Y-130006858D01*
X131354969Y-129999417D01*
X131368054Y-129993228D01*
X131381683Y-129988351D01*
X131395724Y-129984834D01*
X131410042Y-129982710D01*
X131424500Y-129982000D01*
X131719500Y-129982000D01*
X131733958Y-129982710D01*
X131733958Y-129982710D01*
G37*
D11*
X131572000Y-130302000D03*
G04 #@! TD*
D10*
G04 #@! TO.C,R10*
G36*
X164707958Y-88834710D02*
X164722276Y-88836834D01*
X164736317Y-88840351D01*
X164749946Y-88845228D01*
X164763031Y-88851417D01*
X164775447Y-88858858D01*
X164787073Y-88867481D01*
X164797798Y-88877202D01*
X164807519Y-88887927D01*
X164816142Y-88899553D01*
X164823583Y-88911969D01*
X164829772Y-88925054D01*
X164834649Y-88938683D01*
X164838166Y-88952724D01*
X164840290Y-88967042D01*
X164841000Y-88981500D01*
X164841000Y-89326500D01*
X164840290Y-89340958D01*
X164838166Y-89355276D01*
X164834649Y-89369317D01*
X164829772Y-89382946D01*
X164823583Y-89396031D01*
X164816142Y-89408447D01*
X164807519Y-89420073D01*
X164797798Y-89430798D01*
X164787073Y-89440519D01*
X164775447Y-89449142D01*
X164763031Y-89456583D01*
X164749946Y-89462772D01*
X164736317Y-89467649D01*
X164722276Y-89471166D01*
X164707958Y-89473290D01*
X164693500Y-89474000D01*
X164398500Y-89474000D01*
X164384042Y-89473290D01*
X164369724Y-89471166D01*
X164355683Y-89467649D01*
X164342054Y-89462772D01*
X164328969Y-89456583D01*
X164316553Y-89449142D01*
X164304927Y-89440519D01*
X164294202Y-89430798D01*
X164284481Y-89420073D01*
X164275858Y-89408447D01*
X164268417Y-89396031D01*
X164262228Y-89382946D01*
X164257351Y-89369317D01*
X164253834Y-89355276D01*
X164251710Y-89340958D01*
X164251000Y-89326500D01*
X164251000Y-88981500D01*
X164251710Y-88967042D01*
X164253834Y-88952724D01*
X164257351Y-88938683D01*
X164262228Y-88925054D01*
X164268417Y-88911969D01*
X164275858Y-88899553D01*
X164284481Y-88887927D01*
X164294202Y-88877202D01*
X164304927Y-88867481D01*
X164316553Y-88858858D01*
X164328969Y-88851417D01*
X164342054Y-88845228D01*
X164355683Y-88840351D01*
X164369724Y-88836834D01*
X164384042Y-88834710D01*
X164398500Y-88834000D01*
X164693500Y-88834000D01*
X164707958Y-88834710D01*
X164707958Y-88834710D01*
G37*
D11*
X164546000Y-89154000D03*
D10*
G36*
X163737958Y-88834710D02*
X163752276Y-88836834D01*
X163766317Y-88840351D01*
X163779946Y-88845228D01*
X163793031Y-88851417D01*
X163805447Y-88858858D01*
X163817073Y-88867481D01*
X163827798Y-88877202D01*
X163837519Y-88887927D01*
X163846142Y-88899553D01*
X163853583Y-88911969D01*
X163859772Y-88925054D01*
X163864649Y-88938683D01*
X163868166Y-88952724D01*
X163870290Y-88967042D01*
X163871000Y-88981500D01*
X163871000Y-89326500D01*
X163870290Y-89340958D01*
X163868166Y-89355276D01*
X163864649Y-89369317D01*
X163859772Y-89382946D01*
X163853583Y-89396031D01*
X163846142Y-89408447D01*
X163837519Y-89420073D01*
X163827798Y-89430798D01*
X163817073Y-89440519D01*
X163805447Y-89449142D01*
X163793031Y-89456583D01*
X163779946Y-89462772D01*
X163766317Y-89467649D01*
X163752276Y-89471166D01*
X163737958Y-89473290D01*
X163723500Y-89474000D01*
X163428500Y-89474000D01*
X163414042Y-89473290D01*
X163399724Y-89471166D01*
X163385683Y-89467649D01*
X163372054Y-89462772D01*
X163358969Y-89456583D01*
X163346553Y-89449142D01*
X163334927Y-89440519D01*
X163324202Y-89430798D01*
X163314481Y-89420073D01*
X163305858Y-89408447D01*
X163298417Y-89396031D01*
X163292228Y-89382946D01*
X163287351Y-89369317D01*
X163283834Y-89355276D01*
X163281710Y-89340958D01*
X163281000Y-89326500D01*
X163281000Y-88981500D01*
X163281710Y-88967042D01*
X163283834Y-88952724D01*
X163287351Y-88938683D01*
X163292228Y-88925054D01*
X163298417Y-88911969D01*
X163305858Y-88899553D01*
X163314481Y-88887927D01*
X163324202Y-88877202D01*
X163334927Y-88867481D01*
X163346553Y-88858858D01*
X163358969Y-88851417D01*
X163372054Y-88845228D01*
X163385683Y-88840351D01*
X163399724Y-88836834D01*
X163414042Y-88834710D01*
X163428500Y-88834000D01*
X163723500Y-88834000D01*
X163737958Y-88834710D01*
X163737958Y-88834710D01*
G37*
D11*
X163576000Y-89154000D03*
G04 #@! TD*
D10*
G04 #@! TO.C,R11*
G36*
X153785958Y-85532710D02*
X153800276Y-85534834D01*
X153814317Y-85538351D01*
X153827946Y-85543228D01*
X153841031Y-85549417D01*
X153853447Y-85556858D01*
X153865073Y-85565481D01*
X153875798Y-85575202D01*
X153885519Y-85585927D01*
X153894142Y-85597553D01*
X153901583Y-85609969D01*
X153907772Y-85623054D01*
X153912649Y-85636683D01*
X153916166Y-85650724D01*
X153918290Y-85665042D01*
X153919000Y-85679500D01*
X153919000Y-86024500D01*
X153918290Y-86038958D01*
X153916166Y-86053276D01*
X153912649Y-86067317D01*
X153907772Y-86080946D01*
X153901583Y-86094031D01*
X153894142Y-86106447D01*
X153885519Y-86118073D01*
X153875798Y-86128798D01*
X153865073Y-86138519D01*
X153853447Y-86147142D01*
X153841031Y-86154583D01*
X153827946Y-86160772D01*
X153814317Y-86165649D01*
X153800276Y-86169166D01*
X153785958Y-86171290D01*
X153771500Y-86172000D01*
X153476500Y-86172000D01*
X153462042Y-86171290D01*
X153447724Y-86169166D01*
X153433683Y-86165649D01*
X153420054Y-86160772D01*
X153406969Y-86154583D01*
X153394553Y-86147142D01*
X153382927Y-86138519D01*
X153372202Y-86128798D01*
X153362481Y-86118073D01*
X153353858Y-86106447D01*
X153346417Y-86094031D01*
X153340228Y-86080946D01*
X153335351Y-86067317D01*
X153331834Y-86053276D01*
X153329710Y-86038958D01*
X153329000Y-86024500D01*
X153329000Y-85679500D01*
X153329710Y-85665042D01*
X153331834Y-85650724D01*
X153335351Y-85636683D01*
X153340228Y-85623054D01*
X153346417Y-85609969D01*
X153353858Y-85597553D01*
X153362481Y-85585927D01*
X153372202Y-85575202D01*
X153382927Y-85565481D01*
X153394553Y-85556858D01*
X153406969Y-85549417D01*
X153420054Y-85543228D01*
X153433683Y-85538351D01*
X153447724Y-85534834D01*
X153462042Y-85532710D01*
X153476500Y-85532000D01*
X153771500Y-85532000D01*
X153785958Y-85532710D01*
X153785958Y-85532710D01*
G37*
D11*
X153624000Y-85852000D03*
D10*
G36*
X152815958Y-85532710D02*
X152830276Y-85534834D01*
X152844317Y-85538351D01*
X152857946Y-85543228D01*
X152871031Y-85549417D01*
X152883447Y-85556858D01*
X152895073Y-85565481D01*
X152905798Y-85575202D01*
X152915519Y-85585927D01*
X152924142Y-85597553D01*
X152931583Y-85609969D01*
X152937772Y-85623054D01*
X152942649Y-85636683D01*
X152946166Y-85650724D01*
X152948290Y-85665042D01*
X152949000Y-85679500D01*
X152949000Y-86024500D01*
X152948290Y-86038958D01*
X152946166Y-86053276D01*
X152942649Y-86067317D01*
X152937772Y-86080946D01*
X152931583Y-86094031D01*
X152924142Y-86106447D01*
X152915519Y-86118073D01*
X152905798Y-86128798D01*
X152895073Y-86138519D01*
X152883447Y-86147142D01*
X152871031Y-86154583D01*
X152857946Y-86160772D01*
X152844317Y-86165649D01*
X152830276Y-86169166D01*
X152815958Y-86171290D01*
X152801500Y-86172000D01*
X152506500Y-86172000D01*
X152492042Y-86171290D01*
X152477724Y-86169166D01*
X152463683Y-86165649D01*
X152450054Y-86160772D01*
X152436969Y-86154583D01*
X152424553Y-86147142D01*
X152412927Y-86138519D01*
X152402202Y-86128798D01*
X152392481Y-86118073D01*
X152383858Y-86106447D01*
X152376417Y-86094031D01*
X152370228Y-86080946D01*
X152365351Y-86067317D01*
X152361834Y-86053276D01*
X152359710Y-86038958D01*
X152359000Y-86024500D01*
X152359000Y-85679500D01*
X152359710Y-85665042D01*
X152361834Y-85650724D01*
X152365351Y-85636683D01*
X152370228Y-85623054D01*
X152376417Y-85609969D01*
X152383858Y-85597553D01*
X152392481Y-85585927D01*
X152402202Y-85575202D01*
X152412927Y-85565481D01*
X152424553Y-85556858D01*
X152436969Y-85549417D01*
X152450054Y-85543228D01*
X152463683Y-85538351D01*
X152477724Y-85534834D01*
X152492042Y-85532710D01*
X152506500Y-85532000D01*
X152801500Y-85532000D01*
X152815958Y-85532710D01*
X152815958Y-85532710D01*
G37*
D11*
X152654000Y-85852000D03*
G04 #@! TD*
D10*
G04 #@! TO.C,R12*
G36*
X152815958Y-86802710D02*
X152830276Y-86804834D01*
X152844317Y-86808351D01*
X152857946Y-86813228D01*
X152871031Y-86819417D01*
X152883447Y-86826858D01*
X152895073Y-86835481D01*
X152905798Y-86845202D01*
X152915519Y-86855927D01*
X152924142Y-86867553D01*
X152931583Y-86879969D01*
X152937772Y-86893054D01*
X152942649Y-86906683D01*
X152946166Y-86920724D01*
X152948290Y-86935042D01*
X152949000Y-86949500D01*
X152949000Y-87294500D01*
X152948290Y-87308958D01*
X152946166Y-87323276D01*
X152942649Y-87337317D01*
X152937772Y-87350946D01*
X152931583Y-87364031D01*
X152924142Y-87376447D01*
X152915519Y-87388073D01*
X152905798Y-87398798D01*
X152895073Y-87408519D01*
X152883447Y-87417142D01*
X152871031Y-87424583D01*
X152857946Y-87430772D01*
X152844317Y-87435649D01*
X152830276Y-87439166D01*
X152815958Y-87441290D01*
X152801500Y-87442000D01*
X152506500Y-87442000D01*
X152492042Y-87441290D01*
X152477724Y-87439166D01*
X152463683Y-87435649D01*
X152450054Y-87430772D01*
X152436969Y-87424583D01*
X152424553Y-87417142D01*
X152412927Y-87408519D01*
X152402202Y-87398798D01*
X152392481Y-87388073D01*
X152383858Y-87376447D01*
X152376417Y-87364031D01*
X152370228Y-87350946D01*
X152365351Y-87337317D01*
X152361834Y-87323276D01*
X152359710Y-87308958D01*
X152359000Y-87294500D01*
X152359000Y-86949500D01*
X152359710Y-86935042D01*
X152361834Y-86920724D01*
X152365351Y-86906683D01*
X152370228Y-86893054D01*
X152376417Y-86879969D01*
X152383858Y-86867553D01*
X152392481Y-86855927D01*
X152402202Y-86845202D01*
X152412927Y-86835481D01*
X152424553Y-86826858D01*
X152436969Y-86819417D01*
X152450054Y-86813228D01*
X152463683Y-86808351D01*
X152477724Y-86804834D01*
X152492042Y-86802710D01*
X152506500Y-86802000D01*
X152801500Y-86802000D01*
X152815958Y-86802710D01*
X152815958Y-86802710D01*
G37*
D11*
X152654000Y-87122000D03*
D10*
G36*
X153785958Y-86802710D02*
X153800276Y-86804834D01*
X153814317Y-86808351D01*
X153827946Y-86813228D01*
X153841031Y-86819417D01*
X153853447Y-86826858D01*
X153865073Y-86835481D01*
X153875798Y-86845202D01*
X153885519Y-86855927D01*
X153894142Y-86867553D01*
X153901583Y-86879969D01*
X153907772Y-86893054D01*
X153912649Y-86906683D01*
X153916166Y-86920724D01*
X153918290Y-86935042D01*
X153919000Y-86949500D01*
X153919000Y-87294500D01*
X153918290Y-87308958D01*
X153916166Y-87323276D01*
X153912649Y-87337317D01*
X153907772Y-87350946D01*
X153901583Y-87364031D01*
X153894142Y-87376447D01*
X153885519Y-87388073D01*
X153875798Y-87398798D01*
X153865073Y-87408519D01*
X153853447Y-87417142D01*
X153841031Y-87424583D01*
X153827946Y-87430772D01*
X153814317Y-87435649D01*
X153800276Y-87439166D01*
X153785958Y-87441290D01*
X153771500Y-87442000D01*
X153476500Y-87442000D01*
X153462042Y-87441290D01*
X153447724Y-87439166D01*
X153433683Y-87435649D01*
X153420054Y-87430772D01*
X153406969Y-87424583D01*
X153394553Y-87417142D01*
X153382927Y-87408519D01*
X153372202Y-87398798D01*
X153362481Y-87388073D01*
X153353858Y-87376447D01*
X153346417Y-87364031D01*
X153340228Y-87350946D01*
X153335351Y-87337317D01*
X153331834Y-87323276D01*
X153329710Y-87308958D01*
X153329000Y-87294500D01*
X153329000Y-86949500D01*
X153329710Y-86935042D01*
X153331834Y-86920724D01*
X153335351Y-86906683D01*
X153340228Y-86893054D01*
X153346417Y-86879969D01*
X153353858Y-86867553D01*
X153362481Y-86855927D01*
X153372202Y-86845202D01*
X153382927Y-86835481D01*
X153394553Y-86826858D01*
X153406969Y-86819417D01*
X153420054Y-86813228D01*
X153433683Y-86808351D01*
X153447724Y-86804834D01*
X153462042Y-86802710D01*
X153476500Y-86802000D01*
X153771500Y-86802000D01*
X153785958Y-86802710D01*
X153785958Y-86802710D01*
G37*
D11*
X153624000Y-87122000D03*
G04 #@! TD*
D10*
G04 #@! TO.C,R13*
G36*
X164730958Y-90104710D02*
X164745276Y-90106834D01*
X164759317Y-90110351D01*
X164772946Y-90115228D01*
X164786031Y-90121417D01*
X164798447Y-90128858D01*
X164810073Y-90137481D01*
X164820798Y-90147202D01*
X164830519Y-90157927D01*
X164839142Y-90169553D01*
X164846583Y-90181969D01*
X164852772Y-90195054D01*
X164857649Y-90208683D01*
X164861166Y-90222724D01*
X164863290Y-90237042D01*
X164864000Y-90251500D01*
X164864000Y-90596500D01*
X164863290Y-90610958D01*
X164861166Y-90625276D01*
X164857649Y-90639317D01*
X164852772Y-90652946D01*
X164846583Y-90666031D01*
X164839142Y-90678447D01*
X164830519Y-90690073D01*
X164820798Y-90700798D01*
X164810073Y-90710519D01*
X164798447Y-90719142D01*
X164786031Y-90726583D01*
X164772946Y-90732772D01*
X164759317Y-90737649D01*
X164745276Y-90741166D01*
X164730958Y-90743290D01*
X164716500Y-90744000D01*
X164421500Y-90744000D01*
X164407042Y-90743290D01*
X164392724Y-90741166D01*
X164378683Y-90737649D01*
X164365054Y-90732772D01*
X164351969Y-90726583D01*
X164339553Y-90719142D01*
X164327927Y-90710519D01*
X164317202Y-90700798D01*
X164307481Y-90690073D01*
X164298858Y-90678447D01*
X164291417Y-90666031D01*
X164285228Y-90652946D01*
X164280351Y-90639317D01*
X164276834Y-90625276D01*
X164274710Y-90610958D01*
X164274000Y-90596500D01*
X164274000Y-90251500D01*
X164274710Y-90237042D01*
X164276834Y-90222724D01*
X164280351Y-90208683D01*
X164285228Y-90195054D01*
X164291417Y-90181969D01*
X164298858Y-90169553D01*
X164307481Y-90157927D01*
X164317202Y-90147202D01*
X164327927Y-90137481D01*
X164339553Y-90128858D01*
X164351969Y-90121417D01*
X164365054Y-90115228D01*
X164378683Y-90110351D01*
X164392724Y-90106834D01*
X164407042Y-90104710D01*
X164421500Y-90104000D01*
X164716500Y-90104000D01*
X164730958Y-90104710D01*
X164730958Y-90104710D01*
G37*
D11*
X164569000Y-90424000D03*
D10*
G36*
X163760958Y-90104710D02*
X163775276Y-90106834D01*
X163789317Y-90110351D01*
X163802946Y-90115228D01*
X163816031Y-90121417D01*
X163828447Y-90128858D01*
X163840073Y-90137481D01*
X163850798Y-90147202D01*
X163860519Y-90157927D01*
X163869142Y-90169553D01*
X163876583Y-90181969D01*
X163882772Y-90195054D01*
X163887649Y-90208683D01*
X163891166Y-90222724D01*
X163893290Y-90237042D01*
X163894000Y-90251500D01*
X163894000Y-90596500D01*
X163893290Y-90610958D01*
X163891166Y-90625276D01*
X163887649Y-90639317D01*
X163882772Y-90652946D01*
X163876583Y-90666031D01*
X163869142Y-90678447D01*
X163860519Y-90690073D01*
X163850798Y-90700798D01*
X163840073Y-90710519D01*
X163828447Y-90719142D01*
X163816031Y-90726583D01*
X163802946Y-90732772D01*
X163789317Y-90737649D01*
X163775276Y-90741166D01*
X163760958Y-90743290D01*
X163746500Y-90744000D01*
X163451500Y-90744000D01*
X163437042Y-90743290D01*
X163422724Y-90741166D01*
X163408683Y-90737649D01*
X163395054Y-90732772D01*
X163381969Y-90726583D01*
X163369553Y-90719142D01*
X163357927Y-90710519D01*
X163347202Y-90700798D01*
X163337481Y-90690073D01*
X163328858Y-90678447D01*
X163321417Y-90666031D01*
X163315228Y-90652946D01*
X163310351Y-90639317D01*
X163306834Y-90625276D01*
X163304710Y-90610958D01*
X163304000Y-90596500D01*
X163304000Y-90251500D01*
X163304710Y-90237042D01*
X163306834Y-90222724D01*
X163310351Y-90208683D01*
X163315228Y-90195054D01*
X163321417Y-90181969D01*
X163328858Y-90169553D01*
X163337481Y-90157927D01*
X163347202Y-90147202D01*
X163357927Y-90137481D01*
X163369553Y-90128858D01*
X163381969Y-90121417D01*
X163395054Y-90115228D01*
X163408683Y-90110351D01*
X163422724Y-90106834D01*
X163437042Y-90104710D01*
X163451500Y-90104000D01*
X163746500Y-90104000D01*
X163760958Y-90104710D01*
X163760958Y-90104710D01*
G37*
D11*
X163599000Y-90424000D03*
G04 #@! TD*
D10*
G04 #@! TO.C,R14*
G36*
X160714958Y-69763710D02*
X160729276Y-69765834D01*
X160743317Y-69769351D01*
X160756946Y-69774228D01*
X160770031Y-69780417D01*
X160782447Y-69787858D01*
X160794073Y-69796481D01*
X160804798Y-69806202D01*
X160814519Y-69816927D01*
X160823142Y-69828553D01*
X160830583Y-69840969D01*
X160836772Y-69854054D01*
X160841649Y-69867683D01*
X160845166Y-69881724D01*
X160847290Y-69896042D01*
X160848000Y-69910500D01*
X160848000Y-70205500D01*
X160847290Y-70219958D01*
X160845166Y-70234276D01*
X160841649Y-70248317D01*
X160836772Y-70261946D01*
X160830583Y-70275031D01*
X160823142Y-70287447D01*
X160814519Y-70299073D01*
X160804798Y-70309798D01*
X160794073Y-70319519D01*
X160782447Y-70328142D01*
X160770031Y-70335583D01*
X160756946Y-70341772D01*
X160743317Y-70346649D01*
X160729276Y-70350166D01*
X160714958Y-70352290D01*
X160700500Y-70353000D01*
X160355500Y-70353000D01*
X160341042Y-70352290D01*
X160326724Y-70350166D01*
X160312683Y-70346649D01*
X160299054Y-70341772D01*
X160285969Y-70335583D01*
X160273553Y-70328142D01*
X160261927Y-70319519D01*
X160251202Y-70309798D01*
X160241481Y-70299073D01*
X160232858Y-70287447D01*
X160225417Y-70275031D01*
X160219228Y-70261946D01*
X160214351Y-70248317D01*
X160210834Y-70234276D01*
X160208710Y-70219958D01*
X160208000Y-70205500D01*
X160208000Y-69910500D01*
X160208710Y-69896042D01*
X160210834Y-69881724D01*
X160214351Y-69867683D01*
X160219228Y-69854054D01*
X160225417Y-69840969D01*
X160232858Y-69828553D01*
X160241481Y-69816927D01*
X160251202Y-69806202D01*
X160261927Y-69796481D01*
X160273553Y-69787858D01*
X160285969Y-69780417D01*
X160299054Y-69774228D01*
X160312683Y-69769351D01*
X160326724Y-69765834D01*
X160341042Y-69763710D01*
X160355500Y-69763000D01*
X160700500Y-69763000D01*
X160714958Y-69763710D01*
X160714958Y-69763710D01*
G37*
D11*
X160528000Y-70058000D03*
D10*
G36*
X160714958Y-68793710D02*
X160729276Y-68795834D01*
X160743317Y-68799351D01*
X160756946Y-68804228D01*
X160770031Y-68810417D01*
X160782447Y-68817858D01*
X160794073Y-68826481D01*
X160804798Y-68836202D01*
X160814519Y-68846927D01*
X160823142Y-68858553D01*
X160830583Y-68870969D01*
X160836772Y-68884054D01*
X160841649Y-68897683D01*
X160845166Y-68911724D01*
X160847290Y-68926042D01*
X160848000Y-68940500D01*
X160848000Y-69235500D01*
X160847290Y-69249958D01*
X160845166Y-69264276D01*
X160841649Y-69278317D01*
X160836772Y-69291946D01*
X160830583Y-69305031D01*
X160823142Y-69317447D01*
X160814519Y-69329073D01*
X160804798Y-69339798D01*
X160794073Y-69349519D01*
X160782447Y-69358142D01*
X160770031Y-69365583D01*
X160756946Y-69371772D01*
X160743317Y-69376649D01*
X160729276Y-69380166D01*
X160714958Y-69382290D01*
X160700500Y-69383000D01*
X160355500Y-69383000D01*
X160341042Y-69382290D01*
X160326724Y-69380166D01*
X160312683Y-69376649D01*
X160299054Y-69371772D01*
X160285969Y-69365583D01*
X160273553Y-69358142D01*
X160261927Y-69349519D01*
X160251202Y-69339798D01*
X160241481Y-69329073D01*
X160232858Y-69317447D01*
X160225417Y-69305031D01*
X160219228Y-69291946D01*
X160214351Y-69278317D01*
X160210834Y-69264276D01*
X160208710Y-69249958D01*
X160208000Y-69235500D01*
X160208000Y-68940500D01*
X160208710Y-68926042D01*
X160210834Y-68911724D01*
X160214351Y-68897683D01*
X160219228Y-68884054D01*
X160225417Y-68870969D01*
X160232858Y-68858553D01*
X160241481Y-68846927D01*
X160251202Y-68836202D01*
X160261927Y-68826481D01*
X160273553Y-68817858D01*
X160285969Y-68810417D01*
X160299054Y-68804228D01*
X160312683Y-68799351D01*
X160326724Y-68795834D01*
X160341042Y-68793710D01*
X160355500Y-68793000D01*
X160700500Y-68793000D01*
X160714958Y-68793710D01*
X160714958Y-68793710D01*
G37*
D11*
X160528000Y-69088000D03*
G04 #@! TD*
D10*
G04 #@! TO.C,R15*
G36*
X152861958Y-88072710D02*
X152876276Y-88074834D01*
X152890317Y-88078351D01*
X152903946Y-88083228D01*
X152917031Y-88089417D01*
X152929447Y-88096858D01*
X152941073Y-88105481D01*
X152951798Y-88115202D01*
X152961519Y-88125927D01*
X152970142Y-88137553D01*
X152977583Y-88149969D01*
X152983772Y-88163054D01*
X152988649Y-88176683D01*
X152992166Y-88190724D01*
X152994290Y-88205042D01*
X152995000Y-88219500D01*
X152995000Y-88564500D01*
X152994290Y-88578958D01*
X152992166Y-88593276D01*
X152988649Y-88607317D01*
X152983772Y-88620946D01*
X152977583Y-88634031D01*
X152970142Y-88646447D01*
X152961519Y-88658073D01*
X152951798Y-88668798D01*
X152941073Y-88678519D01*
X152929447Y-88687142D01*
X152917031Y-88694583D01*
X152903946Y-88700772D01*
X152890317Y-88705649D01*
X152876276Y-88709166D01*
X152861958Y-88711290D01*
X152847500Y-88712000D01*
X152552500Y-88712000D01*
X152538042Y-88711290D01*
X152523724Y-88709166D01*
X152509683Y-88705649D01*
X152496054Y-88700772D01*
X152482969Y-88694583D01*
X152470553Y-88687142D01*
X152458927Y-88678519D01*
X152448202Y-88668798D01*
X152438481Y-88658073D01*
X152429858Y-88646447D01*
X152422417Y-88634031D01*
X152416228Y-88620946D01*
X152411351Y-88607317D01*
X152407834Y-88593276D01*
X152405710Y-88578958D01*
X152405000Y-88564500D01*
X152405000Y-88219500D01*
X152405710Y-88205042D01*
X152407834Y-88190724D01*
X152411351Y-88176683D01*
X152416228Y-88163054D01*
X152422417Y-88149969D01*
X152429858Y-88137553D01*
X152438481Y-88125927D01*
X152448202Y-88115202D01*
X152458927Y-88105481D01*
X152470553Y-88096858D01*
X152482969Y-88089417D01*
X152496054Y-88083228D01*
X152509683Y-88078351D01*
X152523724Y-88074834D01*
X152538042Y-88072710D01*
X152552500Y-88072000D01*
X152847500Y-88072000D01*
X152861958Y-88072710D01*
X152861958Y-88072710D01*
G37*
D11*
X152700000Y-88392000D03*
D10*
G36*
X153831958Y-88072710D02*
X153846276Y-88074834D01*
X153860317Y-88078351D01*
X153873946Y-88083228D01*
X153887031Y-88089417D01*
X153899447Y-88096858D01*
X153911073Y-88105481D01*
X153921798Y-88115202D01*
X153931519Y-88125927D01*
X153940142Y-88137553D01*
X153947583Y-88149969D01*
X153953772Y-88163054D01*
X153958649Y-88176683D01*
X153962166Y-88190724D01*
X153964290Y-88205042D01*
X153965000Y-88219500D01*
X153965000Y-88564500D01*
X153964290Y-88578958D01*
X153962166Y-88593276D01*
X153958649Y-88607317D01*
X153953772Y-88620946D01*
X153947583Y-88634031D01*
X153940142Y-88646447D01*
X153931519Y-88658073D01*
X153921798Y-88668798D01*
X153911073Y-88678519D01*
X153899447Y-88687142D01*
X153887031Y-88694583D01*
X153873946Y-88700772D01*
X153860317Y-88705649D01*
X153846276Y-88709166D01*
X153831958Y-88711290D01*
X153817500Y-88712000D01*
X153522500Y-88712000D01*
X153508042Y-88711290D01*
X153493724Y-88709166D01*
X153479683Y-88705649D01*
X153466054Y-88700772D01*
X153452969Y-88694583D01*
X153440553Y-88687142D01*
X153428927Y-88678519D01*
X153418202Y-88668798D01*
X153408481Y-88658073D01*
X153399858Y-88646447D01*
X153392417Y-88634031D01*
X153386228Y-88620946D01*
X153381351Y-88607317D01*
X153377834Y-88593276D01*
X153375710Y-88578958D01*
X153375000Y-88564500D01*
X153375000Y-88219500D01*
X153375710Y-88205042D01*
X153377834Y-88190724D01*
X153381351Y-88176683D01*
X153386228Y-88163054D01*
X153392417Y-88149969D01*
X153399858Y-88137553D01*
X153408481Y-88125927D01*
X153418202Y-88115202D01*
X153428927Y-88105481D01*
X153440553Y-88096858D01*
X153452969Y-88089417D01*
X153466054Y-88083228D01*
X153479683Y-88078351D01*
X153493724Y-88074834D01*
X153508042Y-88072710D01*
X153522500Y-88072000D01*
X153817500Y-88072000D01*
X153831958Y-88072710D01*
X153831958Y-88072710D01*
G37*
D11*
X153670000Y-88392000D03*
G04 #@! TD*
D10*
G04 #@! TO.C,R16*
G36*
X152815958Y-89342710D02*
X152830276Y-89344834D01*
X152844317Y-89348351D01*
X152857946Y-89353228D01*
X152871031Y-89359417D01*
X152883447Y-89366858D01*
X152895073Y-89375481D01*
X152905798Y-89385202D01*
X152915519Y-89395927D01*
X152924142Y-89407553D01*
X152931583Y-89419969D01*
X152937772Y-89433054D01*
X152942649Y-89446683D01*
X152946166Y-89460724D01*
X152948290Y-89475042D01*
X152949000Y-89489500D01*
X152949000Y-89834500D01*
X152948290Y-89848958D01*
X152946166Y-89863276D01*
X152942649Y-89877317D01*
X152937772Y-89890946D01*
X152931583Y-89904031D01*
X152924142Y-89916447D01*
X152915519Y-89928073D01*
X152905798Y-89938798D01*
X152895073Y-89948519D01*
X152883447Y-89957142D01*
X152871031Y-89964583D01*
X152857946Y-89970772D01*
X152844317Y-89975649D01*
X152830276Y-89979166D01*
X152815958Y-89981290D01*
X152801500Y-89982000D01*
X152506500Y-89982000D01*
X152492042Y-89981290D01*
X152477724Y-89979166D01*
X152463683Y-89975649D01*
X152450054Y-89970772D01*
X152436969Y-89964583D01*
X152424553Y-89957142D01*
X152412927Y-89948519D01*
X152402202Y-89938798D01*
X152392481Y-89928073D01*
X152383858Y-89916447D01*
X152376417Y-89904031D01*
X152370228Y-89890946D01*
X152365351Y-89877317D01*
X152361834Y-89863276D01*
X152359710Y-89848958D01*
X152359000Y-89834500D01*
X152359000Y-89489500D01*
X152359710Y-89475042D01*
X152361834Y-89460724D01*
X152365351Y-89446683D01*
X152370228Y-89433054D01*
X152376417Y-89419969D01*
X152383858Y-89407553D01*
X152392481Y-89395927D01*
X152402202Y-89385202D01*
X152412927Y-89375481D01*
X152424553Y-89366858D01*
X152436969Y-89359417D01*
X152450054Y-89353228D01*
X152463683Y-89348351D01*
X152477724Y-89344834D01*
X152492042Y-89342710D01*
X152506500Y-89342000D01*
X152801500Y-89342000D01*
X152815958Y-89342710D01*
X152815958Y-89342710D01*
G37*
D11*
X152654000Y-89662000D03*
D10*
G36*
X153785958Y-89342710D02*
X153800276Y-89344834D01*
X153814317Y-89348351D01*
X153827946Y-89353228D01*
X153841031Y-89359417D01*
X153853447Y-89366858D01*
X153865073Y-89375481D01*
X153875798Y-89385202D01*
X153885519Y-89395927D01*
X153894142Y-89407553D01*
X153901583Y-89419969D01*
X153907772Y-89433054D01*
X153912649Y-89446683D01*
X153916166Y-89460724D01*
X153918290Y-89475042D01*
X153919000Y-89489500D01*
X153919000Y-89834500D01*
X153918290Y-89848958D01*
X153916166Y-89863276D01*
X153912649Y-89877317D01*
X153907772Y-89890946D01*
X153901583Y-89904031D01*
X153894142Y-89916447D01*
X153885519Y-89928073D01*
X153875798Y-89938798D01*
X153865073Y-89948519D01*
X153853447Y-89957142D01*
X153841031Y-89964583D01*
X153827946Y-89970772D01*
X153814317Y-89975649D01*
X153800276Y-89979166D01*
X153785958Y-89981290D01*
X153771500Y-89982000D01*
X153476500Y-89982000D01*
X153462042Y-89981290D01*
X153447724Y-89979166D01*
X153433683Y-89975649D01*
X153420054Y-89970772D01*
X153406969Y-89964583D01*
X153394553Y-89957142D01*
X153382927Y-89948519D01*
X153372202Y-89938798D01*
X153362481Y-89928073D01*
X153353858Y-89916447D01*
X153346417Y-89904031D01*
X153340228Y-89890946D01*
X153335351Y-89877317D01*
X153331834Y-89863276D01*
X153329710Y-89848958D01*
X153329000Y-89834500D01*
X153329000Y-89489500D01*
X153329710Y-89475042D01*
X153331834Y-89460724D01*
X153335351Y-89446683D01*
X153340228Y-89433054D01*
X153346417Y-89419969D01*
X153353858Y-89407553D01*
X153362481Y-89395927D01*
X153372202Y-89385202D01*
X153382927Y-89375481D01*
X153394553Y-89366858D01*
X153406969Y-89359417D01*
X153420054Y-89353228D01*
X153433683Y-89348351D01*
X153447724Y-89344834D01*
X153462042Y-89342710D01*
X153476500Y-89342000D01*
X153771500Y-89342000D01*
X153785958Y-89342710D01*
X153785958Y-89342710D01*
G37*
D11*
X153624000Y-89662000D03*
G04 #@! TD*
D10*
G04 #@! TO.C,R17*
G36*
X113999958Y-119314710D02*
X114014276Y-119316834D01*
X114028317Y-119320351D01*
X114041946Y-119325228D01*
X114055031Y-119331417D01*
X114067447Y-119338858D01*
X114079073Y-119347481D01*
X114089798Y-119357202D01*
X114099519Y-119367927D01*
X114108142Y-119379553D01*
X114115583Y-119391969D01*
X114121772Y-119405054D01*
X114126649Y-119418683D01*
X114130166Y-119432724D01*
X114132290Y-119447042D01*
X114133000Y-119461500D01*
X114133000Y-119806500D01*
X114132290Y-119820958D01*
X114130166Y-119835276D01*
X114126649Y-119849317D01*
X114121772Y-119862946D01*
X114115583Y-119876031D01*
X114108142Y-119888447D01*
X114099519Y-119900073D01*
X114089798Y-119910798D01*
X114079073Y-119920519D01*
X114067447Y-119929142D01*
X114055031Y-119936583D01*
X114041946Y-119942772D01*
X114028317Y-119947649D01*
X114014276Y-119951166D01*
X113999958Y-119953290D01*
X113985500Y-119954000D01*
X113690500Y-119954000D01*
X113676042Y-119953290D01*
X113661724Y-119951166D01*
X113647683Y-119947649D01*
X113634054Y-119942772D01*
X113620969Y-119936583D01*
X113608553Y-119929142D01*
X113596927Y-119920519D01*
X113586202Y-119910798D01*
X113576481Y-119900073D01*
X113567858Y-119888447D01*
X113560417Y-119876031D01*
X113554228Y-119862946D01*
X113549351Y-119849317D01*
X113545834Y-119835276D01*
X113543710Y-119820958D01*
X113543000Y-119806500D01*
X113543000Y-119461500D01*
X113543710Y-119447042D01*
X113545834Y-119432724D01*
X113549351Y-119418683D01*
X113554228Y-119405054D01*
X113560417Y-119391969D01*
X113567858Y-119379553D01*
X113576481Y-119367927D01*
X113586202Y-119357202D01*
X113596927Y-119347481D01*
X113608553Y-119338858D01*
X113620969Y-119331417D01*
X113634054Y-119325228D01*
X113647683Y-119320351D01*
X113661724Y-119316834D01*
X113676042Y-119314710D01*
X113690500Y-119314000D01*
X113985500Y-119314000D01*
X113999958Y-119314710D01*
X113999958Y-119314710D01*
G37*
D11*
X113838000Y-119634000D03*
D10*
G36*
X114969958Y-119314710D02*
X114984276Y-119316834D01*
X114998317Y-119320351D01*
X115011946Y-119325228D01*
X115025031Y-119331417D01*
X115037447Y-119338858D01*
X115049073Y-119347481D01*
X115059798Y-119357202D01*
X115069519Y-119367927D01*
X115078142Y-119379553D01*
X115085583Y-119391969D01*
X115091772Y-119405054D01*
X115096649Y-119418683D01*
X115100166Y-119432724D01*
X115102290Y-119447042D01*
X115103000Y-119461500D01*
X115103000Y-119806500D01*
X115102290Y-119820958D01*
X115100166Y-119835276D01*
X115096649Y-119849317D01*
X115091772Y-119862946D01*
X115085583Y-119876031D01*
X115078142Y-119888447D01*
X115069519Y-119900073D01*
X115059798Y-119910798D01*
X115049073Y-119920519D01*
X115037447Y-119929142D01*
X115025031Y-119936583D01*
X115011946Y-119942772D01*
X114998317Y-119947649D01*
X114984276Y-119951166D01*
X114969958Y-119953290D01*
X114955500Y-119954000D01*
X114660500Y-119954000D01*
X114646042Y-119953290D01*
X114631724Y-119951166D01*
X114617683Y-119947649D01*
X114604054Y-119942772D01*
X114590969Y-119936583D01*
X114578553Y-119929142D01*
X114566927Y-119920519D01*
X114556202Y-119910798D01*
X114546481Y-119900073D01*
X114537858Y-119888447D01*
X114530417Y-119876031D01*
X114524228Y-119862946D01*
X114519351Y-119849317D01*
X114515834Y-119835276D01*
X114513710Y-119820958D01*
X114513000Y-119806500D01*
X114513000Y-119461500D01*
X114513710Y-119447042D01*
X114515834Y-119432724D01*
X114519351Y-119418683D01*
X114524228Y-119405054D01*
X114530417Y-119391969D01*
X114537858Y-119379553D01*
X114546481Y-119367927D01*
X114556202Y-119357202D01*
X114566927Y-119347481D01*
X114578553Y-119338858D01*
X114590969Y-119331417D01*
X114604054Y-119325228D01*
X114617683Y-119320351D01*
X114631724Y-119316834D01*
X114646042Y-119314710D01*
X114660500Y-119314000D01*
X114955500Y-119314000D01*
X114969958Y-119314710D01*
X114969958Y-119314710D01*
G37*
D11*
X114808000Y-119634000D03*
G04 #@! TD*
D10*
G04 #@! TO.C,R18*
G36*
X124367958Y-119314710D02*
X124382276Y-119316834D01*
X124396317Y-119320351D01*
X124409946Y-119325228D01*
X124423031Y-119331417D01*
X124435447Y-119338858D01*
X124447073Y-119347481D01*
X124457798Y-119357202D01*
X124467519Y-119367927D01*
X124476142Y-119379553D01*
X124483583Y-119391969D01*
X124489772Y-119405054D01*
X124494649Y-119418683D01*
X124498166Y-119432724D01*
X124500290Y-119447042D01*
X124501000Y-119461500D01*
X124501000Y-119806500D01*
X124500290Y-119820958D01*
X124498166Y-119835276D01*
X124494649Y-119849317D01*
X124489772Y-119862946D01*
X124483583Y-119876031D01*
X124476142Y-119888447D01*
X124467519Y-119900073D01*
X124457798Y-119910798D01*
X124447073Y-119920519D01*
X124435447Y-119929142D01*
X124423031Y-119936583D01*
X124409946Y-119942772D01*
X124396317Y-119947649D01*
X124382276Y-119951166D01*
X124367958Y-119953290D01*
X124353500Y-119954000D01*
X124058500Y-119954000D01*
X124044042Y-119953290D01*
X124029724Y-119951166D01*
X124015683Y-119947649D01*
X124002054Y-119942772D01*
X123988969Y-119936583D01*
X123976553Y-119929142D01*
X123964927Y-119920519D01*
X123954202Y-119910798D01*
X123944481Y-119900073D01*
X123935858Y-119888447D01*
X123928417Y-119876031D01*
X123922228Y-119862946D01*
X123917351Y-119849317D01*
X123913834Y-119835276D01*
X123911710Y-119820958D01*
X123911000Y-119806500D01*
X123911000Y-119461500D01*
X123911710Y-119447042D01*
X123913834Y-119432724D01*
X123917351Y-119418683D01*
X123922228Y-119405054D01*
X123928417Y-119391969D01*
X123935858Y-119379553D01*
X123944481Y-119367927D01*
X123954202Y-119357202D01*
X123964927Y-119347481D01*
X123976553Y-119338858D01*
X123988969Y-119331417D01*
X124002054Y-119325228D01*
X124015683Y-119320351D01*
X124029724Y-119316834D01*
X124044042Y-119314710D01*
X124058500Y-119314000D01*
X124353500Y-119314000D01*
X124367958Y-119314710D01*
X124367958Y-119314710D01*
G37*
D11*
X124206000Y-119634000D03*
D10*
G36*
X125337958Y-119314710D02*
X125352276Y-119316834D01*
X125366317Y-119320351D01*
X125379946Y-119325228D01*
X125393031Y-119331417D01*
X125405447Y-119338858D01*
X125417073Y-119347481D01*
X125427798Y-119357202D01*
X125437519Y-119367927D01*
X125446142Y-119379553D01*
X125453583Y-119391969D01*
X125459772Y-119405054D01*
X125464649Y-119418683D01*
X125468166Y-119432724D01*
X125470290Y-119447042D01*
X125471000Y-119461500D01*
X125471000Y-119806500D01*
X125470290Y-119820958D01*
X125468166Y-119835276D01*
X125464649Y-119849317D01*
X125459772Y-119862946D01*
X125453583Y-119876031D01*
X125446142Y-119888447D01*
X125437519Y-119900073D01*
X125427798Y-119910798D01*
X125417073Y-119920519D01*
X125405447Y-119929142D01*
X125393031Y-119936583D01*
X125379946Y-119942772D01*
X125366317Y-119947649D01*
X125352276Y-119951166D01*
X125337958Y-119953290D01*
X125323500Y-119954000D01*
X125028500Y-119954000D01*
X125014042Y-119953290D01*
X124999724Y-119951166D01*
X124985683Y-119947649D01*
X124972054Y-119942772D01*
X124958969Y-119936583D01*
X124946553Y-119929142D01*
X124934927Y-119920519D01*
X124924202Y-119910798D01*
X124914481Y-119900073D01*
X124905858Y-119888447D01*
X124898417Y-119876031D01*
X124892228Y-119862946D01*
X124887351Y-119849317D01*
X124883834Y-119835276D01*
X124881710Y-119820958D01*
X124881000Y-119806500D01*
X124881000Y-119461500D01*
X124881710Y-119447042D01*
X124883834Y-119432724D01*
X124887351Y-119418683D01*
X124892228Y-119405054D01*
X124898417Y-119391969D01*
X124905858Y-119379553D01*
X124914481Y-119367927D01*
X124924202Y-119357202D01*
X124934927Y-119347481D01*
X124946553Y-119338858D01*
X124958969Y-119331417D01*
X124972054Y-119325228D01*
X124985683Y-119320351D01*
X124999724Y-119316834D01*
X125014042Y-119314710D01*
X125028500Y-119314000D01*
X125323500Y-119314000D01*
X125337958Y-119314710D01*
X125337958Y-119314710D01*
G37*
D11*
X125176000Y-119634000D03*
G04 #@! TD*
D10*
G04 #@! TO.C,R19*
G36*
X137621958Y-119568710D02*
X137636276Y-119570834D01*
X137650317Y-119574351D01*
X137663946Y-119579228D01*
X137677031Y-119585417D01*
X137689447Y-119592858D01*
X137701073Y-119601481D01*
X137711798Y-119611202D01*
X137721519Y-119621927D01*
X137730142Y-119633553D01*
X137737583Y-119645969D01*
X137743772Y-119659054D01*
X137748649Y-119672683D01*
X137752166Y-119686724D01*
X137754290Y-119701042D01*
X137755000Y-119715500D01*
X137755000Y-120060500D01*
X137754290Y-120074958D01*
X137752166Y-120089276D01*
X137748649Y-120103317D01*
X137743772Y-120116946D01*
X137737583Y-120130031D01*
X137730142Y-120142447D01*
X137721519Y-120154073D01*
X137711798Y-120164798D01*
X137701073Y-120174519D01*
X137689447Y-120183142D01*
X137677031Y-120190583D01*
X137663946Y-120196772D01*
X137650317Y-120201649D01*
X137636276Y-120205166D01*
X137621958Y-120207290D01*
X137607500Y-120208000D01*
X137312500Y-120208000D01*
X137298042Y-120207290D01*
X137283724Y-120205166D01*
X137269683Y-120201649D01*
X137256054Y-120196772D01*
X137242969Y-120190583D01*
X137230553Y-120183142D01*
X137218927Y-120174519D01*
X137208202Y-120164798D01*
X137198481Y-120154073D01*
X137189858Y-120142447D01*
X137182417Y-120130031D01*
X137176228Y-120116946D01*
X137171351Y-120103317D01*
X137167834Y-120089276D01*
X137165710Y-120074958D01*
X137165000Y-120060500D01*
X137165000Y-119715500D01*
X137165710Y-119701042D01*
X137167834Y-119686724D01*
X137171351Y-119672683D01*
X137176228Y-119659054D01*
X137182417Y-119645969D01*
X137189858Y-119633553D01*
X137198481Y-119621927D01*
X137208202Y-119611202D01*
X137218927Y-119601481D01*
X137230553Y-119592858D01*
X137242969Y-119585417D01*
X137256054Y-119579228D01*
X137269683Y-119574351D01*
X137283724Y-119570834D01*
X137298042Y-119568710D01*
X137312500Y-119568000D01*
X137607500Y-119568000D01*
X137621958Y-119568710D01*
X137621958Y-119568710D01*
G37*
D11*
X137460000Y-119888000D03*
D10*
G36*
X138591958Y-119568710D02*
X138606276Y-119570834D01*
X138620317Y-119574351D01*
X138633946Y-119579228D01*
X138647031Y-119585417D01*
X138659447Y-119592858D01*
X138671073Y-119601481D01*
X138681798Y-119611202D01*
X138691519Y-119621927D01*
X138700142Y-119633553D01*
X138707583Y-119645969D01*
X138713772Y-119659054D01*
X138718649Y-119672683D01*
X138722166Y-119686724D01*
X138724290Y-119701042D01*
X138725000Y-119715500D01*
X138725000Y-120060500D01*
X138724290Y-120074958D01*
X138722166Y-120089276D01*
X138718649Y-120103317D01*
X138713772Y-120116946D01*
X138707583Y-120130031D01*
X138700142Y-120142447D01*
X138691519Y-120154073D01*
X138681798Y-120164798D01*
X138671073Y-120174519D01*
X138659447Y-120183142D01*
X138647031Y-120190583D01*
X138633946Y-120196772D01*
X138620317Y-120201649D01*
X138606276Y-120205166D01*
X138591958Y-120207290D01*
X138577500Y-120208000D01*
X138282500Y-120208000D01*
X138268042Y-120207290D01*
X138253724Y-120205166D01*
X138239683Y-120201649D01*
X138226054Y-120196772D01*
X138212969Y-120190583D01*
X138200553Y-120183142D01*
X138188927Y-120174519D01*
X138178202Y-120164798D01*
X138168481Y-120154073D01*
X138159858Y-120142447D01*
X138152417Y-120130031D01*
X138146228Y-120116946D01*
X138141351Y-120103317D01*
X138137834Y-120089276D01*
X138135710Y-120074958D01*
X138135000Y-120060500D01*
X138135000Y-119715500D01*
X138135710Y-119701042D01*
X138137834Y-119686724D01*
X138141351Y-119672683D01*
X138146228Y-119659054D01*
X138152417Y-119645969D01*
X138159858Y-119633553D01*
X138168481Y-119621927D01*
X138178202Y-119611202D01*
X138188927Y-119601481D01*
X138200553Y-119592858D01*
X138212969Y-119585417D01*
X138226054Y-119579228D01*
X138239683Y-119574351D01*
X138253724Y-119570834D01*
X138268042Y-119568710D01*
X138282500Y-119568000D01*
X138577500Y-119568000D01*
X138591958Y-119568710D01*
X138591958Y-119568710D01*
G37*
D11*
X138430000Y-119888000D03*
G04 #@! TD*
D10*
G04 #@! TO.C,R20*
G36*
X117788958Y-74335710D02*
X117803276Y-74337834D01*
X117817317Y-74341351D01*
X117830946Y-74346228D01*
X117844031Y-74352417D01*
X117856447Y-74359858D01*
X117868073Y-74368481D01*
X117878798Y-74378202D01*
X117888519Y-74388927D01*
X117897142Y-74400553D01*
X117904583Y-74412969D01*
X117910772Y-74426054D01*
X117915649Y-74439683D01*
X117919166Y-74453724D01*
X117921290Y-74468042D01*
X117922000Y-74482500D01*
X117922000Y-74777500D01*
X117921290Y-74791958D01*
X117919166Y-74806276D01*
X117915649Y-74820317D01*
X117910772Y-74833946D01*
X117904583Y-74847031D01*
X117897142Y-74859447D01*
X117888519Y-74871073D01*
X117878798Y-74881798D01*
X117868073Y-74891519D01*
X117856447Y-74900142D01*
X117844031Y-74907583D01*
X117830946Y-74913772D01*
X117817317Y-74918649D01*
X117803276Y-74922166D01*
X117788958Y-74924290D01*
X117774500Y-74925000D01*
X117429500Y-74925000D01*
X117415042Y-74924290D01*
X117400724Y-74922166D01*
X117386683Y-74918649D01*
X117373054Y-74913772D01*
X117359969Y-74907583D01*
X117347553Y-74900142D01*
X117335927Y-74891519D01*
X117325202Y-74881798D01*
X117315481Y-74871073D01*
X117306858Y-74859447D01*
X117299417Y-74847031D01*
X117293228Y-74833946D01*
X117288351Y-74820317D01*
X117284834Y-74806276D01*
X117282710Y-74791958D01*
X117282000Y-74777500D01*
X117282000Y-74482500D01*
X117282710Y-74468042D01*
X117284834Y-74453724D01*
X117288351Y-74439683D01*
X117293228Y-74426054D01*
X117299417Y-74412969D01*
X117306858Y-74400553D01*
X117315481Y-74388927D01*
X117325202Y-74378202D01*
X117335927Y-74368481D01*
X117347553Y-74359858D01*
X117359969Y-74352417D01*
X117373054Y-74346228D01*
X117386683Y-74341351D01*
X117400724Y-74337834D01*
X117415042Y-74335710D01*
X117429500Y-74335000D01*
X117774500Y-74335000D01*
X117788958Y-74335710D01*
X117788958Y-74335710D01*
G37*
D11*
X117602000Y-74630000D03*
D10*
G36*
X117788958Y-73365710D02*
X117803276Y-73367834D01*
X117817317Y-73371351D01*
X117830946Y-73376228D01*
X117844031Y-73382417D01*
X117856447Y-73389858D01*
X117868073Y-73398481D01*
X117878798Y-73408202D01*
X117888519Y-73418927D01*
X117897142Y-73430553D01*
X117904583Y-73442969D01*
X117910772Y-73456054D01*
X117915649Y-73469683D01*
X117919166Y-73483724D01*
X117921290Y-73498042D01*
X117922000Y-73512500D01*
X117922000Y-73807500D01*
X117921290Y-73821958D01*
X117919166Y-73836276D01*
X117915649Y-73850317D01*
X117910772Y-73863946D01*
X117904583Y-73877031D01*
X117897142Y-73889447D01*
X117888519Y-73901073D01*
X117878798Y-73911798D01*
X117868073Y-73921519D01*
X117856447Y-73930142D01*
X117844031Y-73937583D01*
X117830946Y-73943772D01*
X117817317Y-73948649D01*
X117803276Y-73952166D01*
X117788958Y-73954290D01*
X117774500Y-73955000D01*
X117429500Y-73955000D01*
X117415042Y-73954290D01*
X117400724Y-73952166D01*
X117386683Y-73948649D01*
X117373054Y-73943772D01*
X117359969Y-73937583D01*
X117347553Y-73930142D01*
X117335927Y-73921519D01*
X117325202Y-73911798D01*
X117315481Y-73901073D01*
X117306858Y-73889447D01*
X117299417Y-73877031D01*
X117293228Y-73863946D01*
X117288351Y-73850317D01*
X117284834Y-73836276D01*
X117282710Y-73821958D01*
X117282000Y-73807500D01*
X117282000Y-73512500D01*
X117282710Y-73498042D01*
X117284834Y-73483724D01*
X117288351Y-73469683D01*
X117293228Y-73456054D01*
X117299417Y-73442969D01*
X117306858Y-73430553D01*
X117315481Y-73418927D01*
X117325202Y-73408202D01*
X117335927Y-73398481D01*
X117347553Y-73389858D01*
X117359969Y-73382417D01*
X117373054Y-73376228D01*
X117386683Y-73371351D01*
X117400724Y-73367834D01*
X117415042Y-73365710D01*
X117429500Y-73365000D01*
X117774500Y-73365000D01*
X117788958Y-73365710D01*
X117788958Y-73365710D01*
G37*
D11*
X117602000Y-73660000D03*
G04 #@! TD*
D10*
G04 #@! TO.C,R21*
G36*
X135797958Y-119568710D02*
X135812276Y-119570834D01*
X135826317Y-119574351D01*
X135839946Y-119579228D01*
X135853031Y-119585417D01*
X135865447Y-119592858D01*
X135877073Y-119601481D01*
X135887798Y-119611202D01*
X135897519Y-119621927D01*
X135906142Y-119633553D01*
X135913583Y-119645969D01*
X135919772Y-119659054D01*
X135924649Y-119672683D01*
X135928166Y-119686724D01*
X135930290Y-119701042D01*
X135931000Y-119715500D01*
X135931000Y-120060500D01*
X135930290Y-120074958D01*
X135928166Y-120089276D01*
X135924649Y-120103317D01*
X135919772Y-120116946D01*
X135913583Y-120130031D01*
X135906142Y-120142447D01*
X135897519Y-120154073D01*
X135887798Y-120164798D01*
X135877073Y-120174519D01*
X135865447Y-120183142D01*
X135853031Y-120190583D01*
X135839946Y-120196772D01*
X135826317Y-120201649D01*
X135812276Y-120205166D01*
X135797958Y-120207290D01*
X135783500Y-120208000D01*
X135488500Y-120208000D01*
X135474042Y-120207290D01*
X135459724Y-120205166D01*
X135445683Y-120201649D01*
X135432054Y-120196772D01*
X135418969Y-120190583D01*
X135406553Y-120183142D01*
X135394927Y-120174519D01*
X135384202Y-120164798D01*
X135374481Y-120154073D01*
X135365858Y-120142447D01*
X135358417Y-120130031D01*
X135352228Y-120116946D01*
X135347351Y-120103317D01*
X135343834Y-120089276D01*
X135341710Y-120074958D01*
X135341000Y-120060500D01*
X135341000Y-119715500D01*
X135341710Y-119701042D01*
X135343834Y-119686724D01*
X135347351Y-119672683D01*
X135352228Y-119659054D01*
X135358417Y-119645969D01*
X135365858Y-119633553D01*
X135374481Y-119621927D01*
X135384202Y-119611202D01*
X135394927Y-119601481D01*
X135406553Y-119592858D01*
X135418969Y-119585417D01*
X135432054Y-119579228D01*
X135445683Y-119574351D01*
X135459724Y-119570834D01*
X135474042Y-119568710D01*
X135488500Y-119568000D01*
X135783500Y-119568000D01*
X135797958Y-119568710D01*
X135797958Y-119568710D01*
G37*
D11*
X135636000Y-119888000D03*
D10*
G36*
X134827958Y-119568710D02*
X134842276Y-119570834D01*
X134856317Y-119574351D01*
X134869946Y-119579228D01*
X134883031Y-119585417D01*
X134895447Y-119592858D01*
X134907073Y-119601481D01*
X134917798Y-119611202D01*
X134927519Y-119621927D01*
X134936142Y-119633553D01*
X134943583Y-119645969D01*
X134949772Y-119659054D01*
X134954649Y-119672683D01*
X134958166Y-119686724D01*
X134960290Y-119701042D01*
X134961000Y-119715500D01*
X134961000Y-120060500D01*
X134960290Y-120074958D01*
X134958166Y-120089276D01*
X134954649Y-120103317D01*
X134949772Y-120116946D01*
X134943583Y-120130031D01*
X134936142Y-120142447D01*
X134927519Y-120154073D01*
X134917798Y-120164798D01*
X134907073Y-120174519D01*
X134895447Y-120183142D01*
X134883031Y-120190583D01*
X134869946Y-120196772D01*
X134856317Y-120201649D01*
X134842276Y-120205166D01*
X134827958Y-120207290D01*
X134813500Y-120208000D01*
X134518500Y-120208000D01*
X134504042Y-120207290D01*
X134489724Y-120205166D01*
X134475683Y-120201649D01*
X134462054Y-120196772D01*
X134448969Y-120190583D01*
X134436553Y-120183142D01*
X134424927Y-120174519D01*
X134414202Y-120164798D01*
X134404481Y-120154073D01*
X134395858Y-120142447D01*
X134388417Y-120130031D01*
X134382228Y-120116946D01*
X134377351Y-120103317D01*
X134373834Y-120089276D01*
X134371710Y-120074958D01*
X134371000Y-120060500D01*
X134371000Y-119715500D01*
X134371710Y-119701042D01*
X134373834Y-119686724D01*
X134377351Y-119672683D01*
X134382228Y-119659054D01*
X134388417Y-119645969D01*
X134395858Y-119633553D01*
X134404481Y-119621927D01*
X134414202Y-119611202D01*
X134424927Y-119601481D01*
X134436553Y-119592858D01*
X134448969Y-119585417D01*
X134462054Y-119579228D01*
X134475683Y-119574351D01*
X134489724Y-119570834D01*
X134504042Y-119568710D01*
X134518500Y-119568000D01*
X134813500Y-119568000D01*
X134827958Y-119568710D01*
X134827958Y-119568710D01*
G37*
D11*
X134666000Y-119888000D03*
G04 #@! TD*
D10*
G04 #@! TO.C,R22*
G36*
X117763958Y-75626710D02*
X117778276Y-75628834D01*
X117792317Y-75632351D01*
X117805946Y-75637228D01*
X117819031Y-75643417D01*
X117831447Y-75650858D01*
X117843073Y-75659481D01*
X117853798Y-75669202D01*
X117863519Y-75679927D01*
X117872142Y-75691553D01*
X117879583Y-75703969D01*
X117885772Y-75717054D01*
X117890649Y-75730683D01*
X117894166Y-75744724D01*
X117896290Y-75759042D01*
X117897000Y-75773500D01*
X117897000Y-76118500D01*
X117896290Y-76132958D01*
X117894166Y-76147276D01*
X117890649Y-76161317D01*
X117885772Y-76174946D01*
X117879583Y-76188031D01*
X117872142Y-76200447D01*
X117863519Y-76212073D01*
X117853798Y-76222798D01*
X117843073Y-76232519D01*
X117831447Y-76241142D01*
X117819031Y-76248583D01*
X117805946Y-76254772D01*
X117792317Y-76259649D01*
X117778276Y-76263166D01*
X117763958Y-76265290D01*
X117749500Y-76266000D01*
X117454500Y-76266000D01*
X117440042Y-76265290D01*
X117425724Y-76263166D01*
X117411683Y-76259649D01*
X117398054Y-76254772D01*
X117384969Y-76248583D01*
X117372553Y-76241142D01*
X117360927Y-76232519D01*
X117350202Y-76222798D01*
X117340481Y-76212073D01*
X117331858Y-76200447D01*
X117324417Y-76188031D01*
X117318228Y-76174946D01*
X117313351Y-76161317D01*
X117309834Y-76147276D01*
X117307710Y-76132958D01*
X117307000Y-76118500D01*
X117307000Y-75773500D01*
X117307710Y-75759042D01*
X117309834Y-75744724D01*
X117313351Y-75730683D01*
X117318228Y-75717054D01*
X117324417Y-75703969D01*
X117331858Y-75691553D01*
X117340481Y-75679927D01*
X117350202Y-75669202D01*
X117360927Y-75659481D01*
X117372553Y-75650858D01*
X117384969Y-75643417D01*
X117398054Y-75637228D01*
X117411683Y-75632351D01*
X117425724Y-75628834D01*
X117440042Y-75626710D01*
X117454500Y-75626000D01*
X117749500Y-75626000D01*
X117763958Y-75626710D01*
X117763958Y-75626710D01*
G37*
D11*
X117602000Y-75946000D03*
D10*
G36*
X116793958Y-75626710D02*
X116808276Y-75628834D01*
X116822317Y-75632351D01*
X116835946Y-75637228D01*
X116849031Y-75643417D01*
X116861447Y-75650858D01*
X116873073Y-75659481D01*
X116883798Y-75669202D01*
X116893519Y-75679927D01*
X116902142Y-75691553D01*
X116909583Y-75703969D01*
X116915772Y-75717054D01*
X116920649Y-75730683D01*
X116924166Y-75744724D01*
X116926290Y-75759042D01*
X116927000Y-75773500D01*
X116927000Y-76118500D01*
X116926290Y-76132958D01*
X116924166Y-76147276D01*
X116920649Y-76161317D01*
X116915772Y-76174946D01*
X116909583Y-76188031D01*
X116902142Y-76200447D01*
X116893519Y-76212073D01*
X116883798Y-76222798D01*
X116873073Y-76232519D01*
X116861447Y-76241142D01*
X116849031Y-76248583D01*
X116835946Y-76254772D01*
X116822317Y-76259649D01*
X116808276Y-76263166D01*
X116793958Y-76265290D01*
X116779500Y-76266000D01*
X116484500Y-76266000D01*
X116470042Y-76265290D01*
X116455724Y-76263166D01*
X116441683Y-76259649D01*
X116428054Y-76254772D01*
X116414969Y-76248583D01*
X116402553Y-76241142D01*
X116390927Y-76232519D01*
X116380202Y-76222798D01*
X116370481Y-76212073D01*
X116361858Y-76200447D01*
X116354417Y-76188031D01*
X116348228Y-76174946D01*
X116343351Y-76161317D01*
X116339834Y-76147276D01*
X116337710Y-76132958D01*
X116337000Y-76118500D01*
X116337000Y-75773500D01*
X116337710Y-75759042D01*
X116339834Y-75744724D01*
X116343351Y-75730683D01*
X116348228Y-75717054D01*
X116354417Y-75703969D01*
X116361858Y-75691553D01*
X116370481Y-75679927D01*
X116380202Y-75669202D01*
X116390927Y-75659481D01*
X116402553Y-75650858D01*
X116414969Y-75643417D01*
X116428054Y-75637228D01*
X116441683Y-75632351D01*
X116455724Y-75628834D01*
X116470042Y-75626710D01*
X116484500Y-75626000D01*
X116779500Y-75626000D01*
X116793958Y-75626710D01*
X116793958Y-75626710D01*
G37*
D11*
X116632000Y-75946000D03*
G04 #@! TD*
D10*
G04 #@! TO.C,R23*
G36*
X127440958Y-79415710D02*
X127455276Y-79417834D01*
X127469317Y-79421351D01*
X127482946Y-79426228D01*
X127496031Y-79432417D01*
X127508447Y-79439858D01*
X127520073Y-79448481D01*
X127530798Y-79458202D01*
X127540519Y-79468927D01*
X127549142Y-79480553D01*
X127556583Y-79492969D01*
X127562772Y-79506054D01*
X127567649Y-79519683D01*
X127571166Y-79533724D01*
X127573290Y-79548042D01*
X127574000Y-79562500D01*
X127574000Y-79857500D01*
X127573290Y-79871958D01*
X127571166Y-79886276D01*
X127567649Y-79900317D01*
X127562772Y-79913946D01*
X127556583Y-79927031D01*
X127549142Y-79939447D01*
X127540519Y-79951073D01*
X127530798Y-79961798D01*
X127520073Y-79971519D01*
X127508447Y-79980142D01*
X127496031Y-79987583D01*
X127482946Y-79993772D01*
X127469317Y-79998649D01*
X127455276Y-80002166D01*
X127440958Y-80004290D01*
X127426500Y-80005000D01*
X127081500Y-80005000D01*
X127067042Y-80004290D01*
X127052724Y-80002166D01*
X127038683Y-79998649D01*
X127025054Y-79993772D01*
X127011969Y-79987583D01*
X126999553Y-79980142D01*
X126987927Y-79971519D01*
X126977202Y-79961798D01*
X126967481Y-79951073D01*
X126958858Y-79939447D01*
X126951417Y-79927031D01*
X126945228Y-79913946D01*
X126940351Y-79900317D01*
X126936834Y-79886276D01*
X126934710Y-79871958D01*
X126934000Y-79857500D01*
X126934000Y-79562500D01*
X126934710Y-79548042D01*
X126936834Y-79533724D01*
X126940351Y-79519683D01*
X126945228Y-79506054D01*
X126951417Y-79492969D01*
X126958858Y-79480553D01*
X126967481Y-79468927D01*
X126977202Y-79458202D01*
X126987927Y-79448481D01*
X126999553Y-79439858D01*
X127011969Y-79432417D01*
X127025054Y-79426228D01*
X127038683Y-79421351D01*
X127052724Y-79417834D01*
X127067042Y-79415710D01*
X127081500Y-79415000D01*
X127426500Y-79415000D01*
X127440958Y-79415710D01*
X127440958Y-79415710D01*
G37*
D11*
X127254000Y-79710000D03*
D10*
G36*
X127440958Y-78445710D02*
X127455276Y-78447834D01*
X127469317Y-78451351D01*
X127482946Y-78456228D01*
X127496031Y-78462417D01*
X127508447Y-78469858D01*
X127520073Y-78478481D01*
X127530798Y-78488202D01*
X127540519Y-78498927D01*
X127549142Y-78510553D01*
X127556583Y-78522969D01*
X127562772Y-78536054D01*
X127567649Y-78549683D01*
X127571166Y-78563724D01*
X127573290Y-78578042D01*
X127574000Y-78592500D01*
X127574000Y-78887500D01*
X127573290Y-78901958D01*
X127571166Y-78916276D01*
X127567649Y-78930317D01*
X127562772Y-78943946D01*
X127556583Y-78957031D01*
X127549142Y-78969447D01*
X127540519Y-78981073D01*
X127530798Y-78991798D01*
X127520073Y-79001519D01*
X127508447Y-79010142D01*
X127496031Y-79017583D01*
X127482946Y-79023772D01*
X127469317Y-79028649D01*
X127455276Y-79032166D01*
X127440958Y-79034290D01*
X127426500Y-79035000D01*
X127081500Y-79035000D01*
X127067042Y-79034290D01*
X127052724Y-79032166D01*
X127038683Y-79028649D01*
X127025054Y-79023772D01*
X127011969Y-79017583D01*
X126999553Y-79010142D01*
X126987927Y-79001519D01*
X126977202Y-78991798D01*
X126967481Y-78981073D01*
X126958858Y-78969447D01*
X126951417Y-78957031D01*
X126945228Y-78943946D01*
X126940351Y-78930317D01*
X126936834Y-78916276D01*
X126934710Y-78901958D01*
X126934000Y-78887500D01*
X126934000Y-78592500D01*
X126934710Y-78578042D01*
X126936834Y-78563724D01*
X126940351Y-78549683D01*
X126945228Y-78536054D01*
X126951417Y-78522969D01*
X126958858Y-78510553D01*
X126967481Y-78498927D01*
X126977202Y-78488202D01*
X126987927Y-78478481D01*
X126999553Y-78469858D01*
X127011969Y-78462417D01*
X127025054Y-78456228D01*
X127038683Y-78451351D01*
X127052724Y-78447834D01*
X127067042Y-78445710D01*
X127081500Y-78445000D01*
X127426500Y-78445000D01*
X127440958Y-78445710D01*
X127440958Y-78445710D01*
G37*
D11*
X127254000Y-78740000D03*
G04 #@! TD*
D10*
G04 #@! TO.C,R24*
G36*
X117280958Y-82001710D02*
X117295276Y-82003834D01*
X117309317Y-82007351D01*
X117322946Y-82012228D01*
X117336031Y-82018417D01*
X117348447Y-82025858D01*
X117360073Y-82034481D01*
X117370798Y-82044202D01*
X117380519Y-82054927D01*
X117389142Y-82066553D01*
X117396583Y-82078969D01*
X117402772Y-82092054D01*
X117407649Y-82105683D01*
X117411166Y-82119724D01*
X117413290Y-82134042D01*
X117414000Y-82148500D01*
X117414000Y-82443500D01*
X117413290Y-82457958D01*
X117411166Y-82472276D01*
X117407649Y-82486317D01*
X117402772Y-82499946D01*
X117396583Y-82513031D01*
X117389142Y-82525447D01*
X117380519Y-82537073D01*
X117370798Y-82547798D01*
X117360073Y-82557519D01*
X117348447Y-82566142D01*
X117336031Y-82573583D01*
X117322946Y-82579772D01*
X117309317Y-82584649D01*
X117295276Y-82588166D01*
X117280958Y-82590290D01*
X117266500Y-82591000D01*
X116921500Y-82591000D01*
X116907042Y-82590290D01*
X116892724Y-82588166D01*
X116878683Y-82584649D01*
X116865054Y-82579772D01*
X116851969Y-82573583D01*
X116839553Y-82566142D01*
X116827927Y-82557519D01*
X116817202Y-82547798D01*
X116807481Y-82537073D01*
X116798858Y-82525447D01*
X116791417Y-82513031D01*
X116785228Y-82499946D01*
X116780351Y-82486317D01*
X116776834Y-82472276D01*
X116774710Y-82457958D01*
X116774000Y-82443500D01*
X116774000Y-82148500D01*
X116774710Y-82134042D01*
X116776834Y-82119724D01*
X116780351Y-82105683D01*
X116785228Y-82092054D01*
X116791417Y-82078969D01*
X116798858Y-82066553D01*
X116807481Y-82054927D01*
X116817202Y-82044202D01*
X116827927Y-82034481D01*
X116839553Y-82025858D01*
X116851969Y-82018417D01*
X116865054Y-82012228D01*
X116878683Y-82007351D01*
X116892724Y-82003834D01*
X116907042Y-82001710D01*
X116921500Y-82001000D01*
X117266500Y-82001000D01*
X117280958Y-82001710D01*
X117280958Y-82001710D01*
G37*
D11*
X117094000Y-82296000D03*
D10*
G36*
X117280958Y-81031710D02*
X117295276Y-81033834D01*
X117309317Y-81037351D01*
X117322946Y-81042228D01*
X117336031Y-81048417D01*
X117348447Y-81055858D01*
X117360073Y-81064481D01*
X117370798Y-81074202D01*
X117380519Y-81084927D01*
X117389142Y-81096553D01*
X117396583Y-81108969D01*
X117402772Y-81122054D01*
X117407649Y-81135683D01*
X117411166Y-81149724D01*
X117413290Y-81164042D01*
X117414000Y-81178500D01*
X117414000Y-81473500D01*
X117413290Y-81487958D01*
X117411166Y-81502276D01*
X117407649Y-81516317D01*
X117402772Y-81529946D01*
X117396583Y-81543031D01*
X117389142Y-81555447D01*
X117380519Y-81567073D01*
X117370798Y-81577798D01*
X117360073Y-81587519D01*
X117348447Y-81596142D01*
X117336031Y-81603583D01*
X117322946Y-81609772D01*
X117309317Y-81614649D01*
X117295276Y-81618166D01*
X117280958Y-81620290D01*
X117266500Y-81621000D01*
X116921500Y-81621000D01*
X116907042Y-81620290D01*
X116892724Y-81618166D01*
X116878683Y-81614649D01*
X116865054Y-81609772D01*
X116851969Y-81603583D01*
X116839553Y-81596142D01*
X116827927Y-81587519D01*
X116817202Y-81577798D01*
X116807481Y-81567073D01*
X116798858Y-81555447D01*
X116791417Y-81543031D01*
X116785228Y-81529946D01*
X116780351Y-81516317D01*
X116776834Y-81502276D01*
X116774710Y-81487958D01*
X116774000Y-81473500D01*
X116774000Y-81178500D01*
X116774710Y-81164042D01*
X116776834Y-81149724D01*
X116780351Y-81135683D01*
X116785228Y-81122054D01*
X116791417Y-81108969D01*
X116798858Y-81096553D01*
X116807481Y-81084927D01*
X116817202Y-81074202D01*
X116827927Y-81064481D01*
X116839553Y-81055858D01*
X116851969Y-81048417D01*
X116865054Y-81042228D01*
X116878683Y-81037351D01*
X116892724Y-81033834D01*
X116907042Y-81031710D01*
X116921500Y-81031000D01*
X117266500Y-81031000D01*
X117280958Y-81031710D01*
X117280958Y-81031710D01*
G37*
D11*
X117094000Y-81326000D03*
G04 #@! TD*
D10*
G04 #@! TO.C,R25*
G36*
X115756958Y-80939710D02*
X115771276Y-80941834D01*
X115785317Y-80945351D01*
X115798946Y-80950228D01*
X115812031Y-80956417D01*
X115824447Y-80963858D01*
X115836073Y-80972481D01*
X115846798Y-80982202D01*
X115856519Y-80992927D01*
X115865142Y-81004553D01*
X115872583Y-81016969D01*
X115878772Y-81030054D01*
X115883649Y-81043683D01*
X115887166Y-81057724D01*
X115889290Y-81072042D01*
X115890000Y-81086500D01*
X115890000Y-81381500D01*
X115889290Y-81395958D01*
X115887166Y-81410276D01*
X115883649Y-81424317D01*
X115878772Y-81437946D01*
X115872583Y-81451031D01*
X115865142Y-81463447D01*
X115856519Y-81475073D01*
X115846798Y-81485798D01*
X115836073Y-81495519D01*
X115824447Y-81504142D01*
X115812031Y-81511583D01*
X115798946Y-81517772D01*
X115785317Y-81522649D01*
X115771276Y-81526166D01*
X115756958Y-81528290D01*
X115742500Y-81529000D01*
X115397500Y-81529000D01*
X115383042Y-81528290D01*
X115368724Y-81526166D01*
X115354683Y-81522649D01*
X115341054Y-81517772D01*
X115327969Y-81511583D01*
X115315553Y-81504142D01*
X115303927Y-81495519D01*
X115293202Y-81485798D01*
X115283481Y-81475073D01*
X115274858Y-81463447D01*
X115267417Y-81451031D01*
X115261228Y-81437946D01*
X115256351Y-81424317D01*
X115252834Y-81410276D01*
X115250710Y-81395958D01*
X115250000Y-81381500D01*
X115250000Y-81086500D01*
X115250710Y-81072042D01*
X115252834Y-81057724D01*
X115256351Y-81043683D01*
X115261228Y-81030054D01*
X115267417Y-81016969D01*
X115274858Y-81004553D01*
X115283481Y-80992927D01*
X115293202Y-80982202D01*
X115303927Y-80972481D01*
X115315553Y-80963858D01*
X115327969Y-80956417D01*
X115341054Y-80950228D01*
X115354683Y-80945351D01*
X115368724Y-80941834D01*
X115383042Y-80939710D01*
X115397500Y-80939000D01*
X115742500Y-80939000D01*
X115756958Y-80939710D01*
X115756958Y-80939710D01*
G37*
D11*
X115570000Y-81234000D03*
D10*
G36*
X115756958Y-79969710D02*
X115771276Y-79971834D01*
X115785317Y-79975351D01*
X115798946Y-79980228D01*
X115812031Y-79986417D01*
X115824447Y-79993858D01*
X115836073Y-80002481D01*
X115846798Y-80012202D01*
X115856519Y-80022927D01*
X115865142Y-80034553D01*
X115872583Y-80046969D01*
X115878772Y-80060054D01*
X115883649Y-80073683D01*
X115887166Y-80087724D01*
X115889290Y-80102042D01*
X115890000Y-80116500D01*
X115890000Y-80411500D01*
X115889290Y-80425958D01*
X115887166Y-80440276D01*
X115883649Y-80454317D01*
X115878772Y-80467946D01*
X115872583Y-80481031D01*
X115865142Y-80493447D01*
X115856519Y-80505073D01*
X115846798Y-80515798D01*
X115836073Y-80525519D01*
X115824447Y-80534142D01*
X115812031Y-80541583D01*
X115798946Y-80547772D01*
X115785317Y-80552649D01*
X115771276Y-80556166D01*
X115756958Y-80558290D01*
X115742500Y-80559000D01*
X115397500Y-80559000D01*
X115383042Y-80558290D01*
X115368724Y-80556166D01*
X115354683Y-80552649D01*
X115341054Y-80547772D01*
X115327969Y-80541583D01*
X115315553Y-80534142D01*
X115303927Y-80525519D01*
X115293202Y-80515798D01*
X115283481Y-80505073D01*
X115274858Y-80493447D01*
X115267417Y-80481031D01*
X115261228Y-80467946D01*
X115256351Y-80454317D01*
X115252834Y-80440276D01*
X115250710Y-80425958D01*
X115250000Y-80411500D01*
X115250000Y-80116500D01*
X115250710Y-80102042D01*
X115252834Y-80087724D01*
X115256351Y-80073683D01*
X115261228Y-80060054D01*
X115267417Y-80046969D01*
X115274858Y-80034553D01*
X115283481Y-80022927D01*
X115293202Y-80012202D01*
X115303927Y-80002481D01*
X115315553Y-79993858D01*
X115327969Y-79986417D01*
X115341054Y-79980228D01*
X115354683Y-79975351D01*
X115368724Y-79971834D01*
X115383042Y-79969710D01*
X115397500Y-79969000D01*
X115742500Y-79969000D01*
X115756958Y-79969710D01*
X115756958Y-79969710D01*
G37*
D11*
X115570000Y-80264000D03*
G04 #@! TD*
D10*
G04 #@! TO.C,R26*
G36*
X142172958Y-104076710D02*
X142187276Y-104078834D01*
X142201317Y-104082351D01*
X142214946Y-104087228D01*
X142228031Y-104093417D01*
X142240447Y-104100858D01*
X142252073Y-104109481D01*
X142262798Y-104119202D01*
X142272519Y-104129927D01*
X142281142Y-104141553D01*
X142288583Y-104153969D01*
X142294772Y-104167054D01*
X142299649Y-104180683D01*
X142303166Y-104194724D01*
X142305290Y-104209042D01*
X142306000Y-104223500D01*
X142306000Y-104518500D01*
X142305290Y-104532958D01*
X142303166Y-104547276D01*
X142299649Y-104561317D01*
X142294772Y-104574946D01*
X142288583Y-104588031D01*
X142281142Y-104600447D01*
X142272519Y-104612073D01*
X142262798Y-104622798D01*
X142252073Y-104632519D01*
X142240447Y-104641142D01*
X142228031Y-104648583D01*
X142214946Y-104654772D01*
X142201317Y-104659649D01*
X142187276Y-104663166D01*
X142172958Y-104665290D01*
X142158500Y-104666000D01*
X141813500Y-104666000D01*
X141799042Y-104665290D01*
X141784724Y-104663166D01*
X141770683Y-104659649D01*
X141757054Y-104654772D01*
X141743969Y-104648583D01*
X141731553Y-104641142D01*
X141719927Y-104632519D01*
X141709202Y-104622798D01*
X141699481Y-104612073D01*
X141690858Y-104600447D01*
X141683417Y-104588031D01*
X141677228Y-104574946D01*
X141672351Y-104561317D01*
X141668834Y-104547276D01*
X141666710Y-104532958D01*
X141666000Y-104518500D01*
X141666000Y-104223500D01*
X141666710Y-104209042D01*
X141668834Y-104194724D01*
X141672351Y-104180683D01*
X141677228Y-104167054D01*
X141683417Y-104153969D01*
X141690858Y-104141553D01*
X141699481Y-104129927D01*
X141709202Y-104119202D01*
X141719927Y-104109481D01*
X141731553Y-104100858D01*
X141743969Y-104093417D01*
X141757054Y-104087228D01*
X141770683Y-104082351D01*
X141784724Y-104078834D01*
X141799042Y-104076710D01*
X141813500Y-104076000D01*
X142158500Y-104076000D01*
X142172958Y-104076710D01*
X142172958Y-104076710D01*
G37*
D11*
X141986000Y-104371000D03*
D10*
G36*
X142172958Y-103106710D02*
X142187276Y-103108834D01*
X142201317Y-103112351D01*
X142214946Y-103117228D01*
X142228031Y-103123417D01*
X142240447Y-103130858D01*
X142252073Y-103139481D01*
X142262798Y-103149202D01*
X142272519Y-103159927D01*
X142281142Y-103171553D01*
X142288583Y-103183969D01*
X142294772Y-103197054D01*
X142299649Y-103210683D01*
X142303166Y-103224724D01*
X142305290Y-103239042D01*
X142306000Y-103253500D01*
X142306000Y-103548500D01*
X142305290Y-103562958D01*
X142303166Y-103577276D01*
X142299649Y-103591317D01*
X142294772Y-103604946D01*
X142288583Y-103618031D01*
X142281142Y-103630447D01*
X142272519Y-103642073D01*
X142262798Y-103652798D01*
X142252073Y-103662519D01*
X142240447Y-103671142D01*
X142228031Y-103678583D01*
X142214946Y-103684772D01*
X142201317Y-103689649D01*
X142187276Y-103693166D01*
X142172958Y-103695290D01*
X142158500Y-103696000D01*
X141813500Y-103696000D01*
X141799042Y-103695290D01*
X141784724Y-103693166D01*
X141770683Y-103689649D01*
X141757054Y-103684772D01*
X141743969Y-103678583D01*
X141731553Y-103671142D01*
X141719927Y-103662519D01*
X141709202Y-103652798D01*
X141699481Y-103642073D01*
X141690858Y-103630447D01*
X141683417Y-103618031D01*
X141677228Y-103604946D01*
X141672351Y-103591317D01*
X141668834Y-103577276D01*
X141666710Y-103562958D01*
X141666000Y-103548500D01*
X141666000Y-103253500D01*
X141666710Y-103239042D01*
X141668834Y-103224724D01*
X141672351Y-103210683D01*
X141677228Y-103197054D01*
X141683417Y-103183969D01*
X141690858Y-103171553D01*
X141699481Y-103159927D01*
X141709202Y-103149202D01*
X141719927Y-103139481D01*
X141731553Y-103130858D01*
X141743969Y-103123417D01*
X141757054Y-103117228D01*
X141770683Y-103112351D01*
X141784724Y-103108834D01*
X141799042Y-103106710D01*
X141813500Y-103106000D01*
X142158500Y-103106000D01*
X142172958Y-103106710D01*
X142172958Y-103106710D01*
G37*
D11*
X141986000Y-103401000D03*
G04 #@! TD*
D10*
G04 #@! TO.C,R27*
G36*
X130234958Y-103083710D02*
X130249276Y-103085834D01*
X130263317Y-103089351D01*
X130276946Y-103094228D01*
X130290031Y-103100417D01*
X130302447Y-103107858D01*
X130314073Y-103116481D01*
X130324798Y-103126202D01*
X130334519Y-103136927D01*
X130343142Y-103148553D01*
X130350583Y-103160969D01*
X130356772Y-103174054D01*
X130361649Y-103187683D01*
X130365166Y-103201724D01*
X130367290Y-103216042D01*
X130368000Y-103230500D01*
X130368000Y-103525500D01*
X130367290Y-103539958D01*
X130365166Y-103554276D01*
X130361649Y-103568317D01*
X130356772Y-103581946D01*
X130350583Y-103595031D01*
X130343142Y-103607447D01*
X130334519Y-103619073D01*
X130324798Y-103629798D01*
X130314073Y-103639519D01*
X130302447Y-103648142D01*
X130290031Y-103655583D01*
X130276946Y-103661772D01*
X130263317Y-103666649D01*
X130249276Y-103670166D01*
X130234958Y-103672290D01*
X130220500Y-103673000D01*
X129875500Y-103673000D01*
X129861042Y-103672290D01*
X129846724Y-103670166D01*
X129832683Y-103666649D01*
X129819054Y-103661772D01*
X129805969Y-103655583D01*
X129793553Y-103648142D01*
X129781927Y-103639519D01*
X129771202Y-103629798D01*
X129761481Y-103619073D01*
X129752858Y-103607447D01*
X129745417Y-103595031D01*
X129739228Y-103581946D01*
X129734351Y-103568317D01*
X129730834Y-103554276D01*
X129728710Y-103539958D01*
X129728000Y-103525500D01*
X129728000Y-103230500D01*
X129728710Y-103216042D01*
X129730834Y-103201724D01*
X129734351Y-103187683D01*
X129739228Y-103174054D01*
X129745417Y-103160969D01*
X129752858Y-103148553D01*
X129761481Y-103136927D01*
X129771202Y-103126202D01*
X129781927Y-103116481D01*
X129793553Y-103107858D01*
X129805969Y-103100417D01*
X129819054Y-103094228D01*
X129832683Y-103089351D01*
X129846724Y-103085834D01*
X129861042Y-103083710D01*
X129875500Y-103083000D01*
X130220500Y-103083000D01*
X130234958Y-103083710D01*
X130234958Y-103083710D01*
G37*
D11*
X130048000Y-103378000D03*
D10*
G36*
X130234958Y-104053710D02*
X130249276Y-104055834D01*
X130263317Y-104059351D01*
X130276946Y-104064228D01*
X130290031Y-104070417D01*
X130302447Y-104077858D01*
X130314073Y-104086481D01*
X130324798Y-104096202D01*
X130334519Y-104106927D01*
X130343142Y-104118553D01*
X130350583Y-104130969D01*
X130356772Y-104144054D01*
X130361649Y-104157683D01*
X130365166Y-104171724D01*
X130367290Y-104186042D01*
X130368000Y-104200500D01*
X130368000Y-104495500D01*
X130367290Y-104509958D01*
X130365166Y-104524276D01*
X130361649Y-104538317D01*
X130356772Y-104551946D01*
X130350583Y-104565031D01*
X130343142Y-104577447D01*
X130334519Y-104589073D01*
X130324798Y-104599798D01*
X130314073Y-104609519D01*
X130302447Y-104618142D01*
X130290031Y-104625583D01*
X130276946Y-104631772D01*
X130263317Y-104636649D01*
X130249276Y-104640166D01*
X130234958Y-104642290D01*
X130220500Y-104643000D01*
X129875500Y-104643000D01*
X129861042Y-104642290D01*
X129846724Y-104640166D01*
X129832683Y-104636649D01*
X129819054Y-104631772D01*
X129805969Y-104625583D01*
X129793553Y-104618142D01*
X129781927Y-104609519D01*
X129771202Y-104599798D01*
X129761481Y-104589073D01*
X129752858Y-104577447D01*
X129745417Y-104565031D01*
X129739228Y-104551946D01*
X129734351Y-104538317D01*
X129730834Y-104524276D01*
X129728710Y-104509958D01*
X129728000Y-104495500D01*
X129728000Y-104200500D01*
X129728710Y-104186042D01*
X129730834Y-104171724D01*
X129734351Y-104157683D01*
X129739228Y-104144054D01*
X129745417Y-104130969D01*
X129752858Y-104118553D01*
X129761481Y-104106927D01*
X129771202Y-104096202D01*
X129781927Y-104086481D01*
X129793553Y-104077858D01*
X129805969Y-104070417D01*
X129819054Y-104064228D01*
X129832683Y-104059351D01*
X129846724Y-104055834D01*
X129861042Y-104053710D01*
X129875500Y-104053000D01*
X130220500Y-104053000D01*
X130234958Y-104053710D01*
X130234958Y-104053710D01*
G37*
D11*
X130048000Y-104348000D03*
G04 #@! TD*
D10*
G04 #@! TO.C,R28*
G36*
X146257958Y-119314710D02*
X146272276Y-119316834D01*
X146286317Y-119320351D01*
X146299946Y-119325228D01*
X146313031Y-119331417D01*
X146325447Y-119338858D01*
X146337073Y-119347481D01*
X146347798Y-119357202D01*
X146357519Y-119367927D01*
X146366142Y-119379553D01*
X146373583Y-119391969D01*
X146379772Y-119405054D01*
X146384649Y-119418683D01*
X146388166Y-119432724D01*
X146390290Y-119447042D01*
X146391000Y-119461500D01*
X146391000Y-119806500D01*
X146390290Y-119820958D01*
X146388166Y-119835276D01*
X146384649Y-119849317D01*
X146379772Y-119862946D01*
X146373583Y-119876031D01*
X146366142Y-119888447D01*
X146357519Y-119900073D01*
X146347798Y-119910798D01*
X146337073Y-119920519D01*
X146325447Y-119929142D01*
X146313031Y-119936583D01*
X146299946Y-119942772D01*
X146286317Y-119947649D01*
X146272276Y-119951166D01*
X146257958Y-119953290D01*
X146243500Y-119954000D01*
X145948500Y-119954000D01*
X145934042Y-119953290D01*
X145919724Y-119951166D01*
X145905683Y-119947649D01*
X145892054Y-119942772D01*
X145878969Y-119936583D01*
X145866553Y-119929142D01*
X145854927Y-119920519D01*
X145844202Y-119910798D01*
X145834481Y-119900073D01*
X145825858Y-119888447D01*
X145818417Y-119876031D01*
X145812228Y-119862946D01*
X145807351Y-119849317D01*
X145803834Y-119835276D01*
X145801710Y-119820958D01*
X145801000Y-119806500D01*
X145801000Y-119461500D01*
X145801710Y-119447042D01*
X145803834Y-119432724D01*
X145807351Y-119418683D01*
X145812228Y-119405054D01*
X145818417Y-119391969D01*
X145825858Y-119379553D01*
X145834481Y-119367927D01*
X145844202Y-119357202D01*
X145854927Y-119347481D01*
X145866553Y-119338858D01*
X145878969Y-119331417D01*
X145892054Y-119325228D01*
X145905683Y-119320351D01*
X145919724Y-119316834D01*
X145934042Y-119314710D01*
X145948500Y-119314000D01*
X146243500Y-119314000D01*
X146257958Y-119314710D01*
X146257958Y-119314710D01*
G37*
D11*
X146096000Y-119634000D03*
D10*
G36*
X147227958Y-119314710D02*
X147242276Y-119316834D01*
X147256317Y-119320351D01*
X147269946Y-119325228D01*
X147283031Y-119331417D01*
X147295447Y-119338858D01*
X147307073Y-119347481D01*
X147317798Y-119357202D01*
X147327519Y-119367927D01*
X147336142Y-119379553D01*
X147343583Y-119391969D01*
X147349772Y-119405054D01*
X147354649Y-119418683D01*
X147358166Y-119432724D01*
X147360290Y-119447042D01*
X147361000Y-119461500D01*
X147361000Y-119806500D01*
X147360290Y-119820958D01*
X147358166Y-119835276D01*
X147354649Y-119849317D01*
X147349772Y-119862946D01*
X147343583Y-119876031D01*
X147336142Y-119888447D01*
X147327519Y-119900073D01*
X147317798Y-119910798D01*
X147307073Y-119920519D01*
X147295447Y-119929142D01*
X147283031Y-119936583D01*
X147269946Y-119942772D01*
X147256317Y-119947649D01*
X147242276Y-119951166D01*
X147227958Y-119953290D01*
X147213500Y-119954000D01*
X146918500Y-119954000D01*
X146904042Y-119953290D01*
X146889724Y-119951166D01*
X146875683Y-119947649D01*
X146862054Y-119942772D01*
X146848969Y-119936583D01*
X146836553Y-119929142D01*
X146824927Y-119920519D01*
X146814202Y-119910798D01*
X146804481Y-119900073D01*
X146795858Y-119888447D01*
X146788417Y-119876031D01*
X146782228Y-119862946D01*
X146777351Y-119849317D01*
X146773834Y-119835276D01*
X146771710Y-119820958D01*
X146771000Y-119806500D01*
X146771000Y-119461500D01*
X146771710Y-119447042D01*
X146773834Y-119432724D01*
X146777351Y-119418683D01*
X146782228Y-119405054D01*
X146788417Y-119391969D01*
X146795858Y-119379553D01*
X146804481Y-119367927D01*
X146814202Y-119357202D01*
X146824927Y-119347481D01*
X146836553Y-119338858D01*
X146848969Y-119331417D01*
X146862054Y-119325228D01*
X146875683Y-119320351D01*
X146889724Y-119316834D01*
X146904042Y-119314710D01*
X146918500Y-119314000D01*
X147213500Y-119314000D01*
X147227958Y-119314710D01*
X147227958Y-119314710D01*
G37*
D11*
X147066000Y-119634000D03*
G04 #@! TD*
D10*
G04 #@! TO.C,R29*
G36*
X155609958Y-119568710D02*
X155624276Y-119570834D01*
X155638317Y-119574351D01*
X155651946Y-119579228D01*
X155665031Y-119585417D01*
X155677447Y-119592858D01*
X155689073Y-119601481D01*
X155699798Y-119611202D01*
X155709519Y-119621927D01*
X155718142Y-119633553D01*
X155725583Y-119645969D01*
X155731772Y-119659054D01*
X155736649Y-119672683D01*
X155740166Y-119686724D01*
X155742290Y-119701042D01*
X155743000Y-119715500D01*
X155743000Y-120060500D01*
X155742290Y-120074958D01*
X155740166Y-120089276D01*
X155736649Y-120103317D01*
X155731772Y-120116946D01*
X155725583Y-120130031D01*
X155718142Y-120142447D01*
X155709519Y-120154073D01*
X155699798Y-120164798D01*
X155689073Y-120174519D01*
X155677447Y-120183142D01*
X155665031Y-120190583D01*
X155651946Y-120196772D01*
X155638317Y-120201649D01*
X155624276Y-120205166D01*
X155609958Y-120207290D01*
X155595500Y-120208000D01*
X155300500Y-120208000D01*
X155286042Y-120207290D01*
X155271724Y-120205166D01*
X155257683Y-120201649D01*
X155244054Y-120196772D01*
X155230969Y-120190583D01*
X155218553Y-120183142D01*
X155206927Y-120174519D01*
X155196202Y-120164798D01*
X155186481Y-120154073D01*
X155177858Y-120142447D01*
X155170417Y-120130031D01*
X155164228Y-120116946D01*
X155159351Y-120103317D01*
X155155834Y-120089276D01*
X155153710Y-120074958D01*
X155153000Y-120060500D01*
X155153000Y-119715500D01*
X155153710Y-119701042D01*
X155155834Y-119686724D01*
X155159351Y-119672683D01*
X155164228Y-119659054D01*
X155170417Y-119645969D01*
X155177858Y-119633553D01*
X155186481Y-119621927D01*
X155196202Y-119611202D01*
X155206927Y-119601481D01*
X155218553Y-119592858D01*
X155230969Y-119585417D01*
X155244054Y-119579228D01*
X155257683Y-119574351D01*
X155271724Y-119570834D01*
X155286042Y-119568710D01*
X155300500Y-119568000D01*
X155595500Y-119568000D01*
X155609958Y-119568710D01*
X155609958Y-119568710D01*
G37*
D11*
X155448000Y-119888000D03*
D10*
G36*
X156579958Y-119568710D02*
X156594276Y-119570834D01*
X156608317Y-119574351D01*
X156621946Y-119579228D01*
X156635031Y-119585417D01*
X156647447Y-119592858D01*
X156659073Y-119601481D01*
X156669798Y-119611202D01*
X156679519Y-119621927D01*
X156688142Y-119633553D01*
X156695583Y-119645969D01*
X156701772Y-119659054D01*
X156706649Y-119672683D01*
X156710166Y-119686724D01*
X156712290Y-119701042D01*
X156713000Y-119715500D01*
X156713000Y-120060500D01*
X156712290Y-120074958D01*
X156710166Y-120089276D01*
X156706649Y-120103317D01*
X156701772Y-120116946D01*
X156695583Y-120130031D01*
X156688142Y-120142447D01*
X156679519Y-120154073D01*
X156669798Y-120164798D01*
X156659073Y-120174519D01*
X156647447Y-120183142D01*
X156635031Y-120190583D01*
X156621946Y-120196772D01*
X156608317Y-120201649D01*
X156594276Y-120205166D01*
X156579958Y-120207290D01*
X156565500Y-120208000D01*
X156270500Y-120208000D01*
X156256042Y-120207290D01*
X156241724Y-120205166D01*
X156227683Y-120201649D01*
X156214054Y-120196772D01*
X156200969Y-120190583D01*
X156188553Y-120183142D01*
X156176927Y-120174519D01*
X156166202Y-120164798D01*
X156156481Y-120154073D01*
X156147858Y-120142447D01*
X156140417Y-120130031D01*
X156134228Y-120116946D01*
X156129351Y-120103317D01*
X156125834Y-120089276D01*
X156123710Y-120074958D01*
X156123000Y-120060500D01*
X156123000Y-119715500D01*
X156123710Y-119701042D01*
X156125834Y-119686724D01*
X156129351Y-119672683D01*
X156134228Y-119659054D01*
X156140417Y-119645969D01*
X156147858Y-119633553D01*
X156156481Y-119621927D01*
X156166202Y-119611202D01*
X156176927Y-119601481D01*
X156188553Y-119592858D01*
X156200969Y-119585417D01*
X156214054Y-119579228D01*
X156227683Y-119574351D01*
X156241724Y-119570834D01*
X156256042Y-119568710D01*
X156270500Y-119568000D01*
X156565500Y-119568000D01*
X156579958Y-119568710D01*
X156579958Y-119568710D01*
G37*
D11*
X156418000Y-119888000D03*
G04 #@! TD*
D10*
G04 #@! TO.C,R30*
G36*
X135081958Y-102042710D02*
X135096276Y-102044834D01*
X135110317Y-102048351D01*
X135123946Y-102053228D01*
X135137031Y-102059417D01*
X135149447Y-102066858D01*
X135161073Y-102075481D01*
X135171798Y-102085202D01*
X135181519Y-102095927D01*
X135190142Y-102107553D01*
X135197583Y-102119969D01*
X135203772Y-102133054D01*
X135208649Y-102146683D01*
X135212166Y-102160724D01*
X135214290Y-102175042D01*
X135215000Y-102189500D01*
X135215000Y-102534500D01*
X135214290Y-102548958D01*
X135212166Y-102563276D01*
X135208649Y-102577317D01*
X135203772Y-102590946D01*
X135197583Y-102604031D01*
X135190142Y-102616447D01*
X135181519Y-102628073D01*
X135171798Y-102638798D01*
X135161073Y-102648519D01*
X135149447Y-102657142D01*
X135137031Y-102664583D01*
X135123946Y-102670772D01*
X135110317Y-102675649D01*
X135096276Y-102679166D01*
X135081958Y-102681290D01*
X135067500Y-102682000D01*
X134772500Y-102682000D01*
X134758042Y-102681290D01*
X134743724Y-102679166D01*
X134729683Y-102675649D01*
X134716054Y-102670772D01*
X134702969Y-102664583D01*
X134690553Y-102657142D01*
X134678927Y-102648519D01*
X134668202Y-102638798D01*
X134658481Y-102628073D01*
X134649858Y-102616447D01*
X134642417Y-102604031D01*
X134636228Y-102590946D01*
X134631351Y-102577317D01*
X134627834Y-102563276D01*
X134625710Y-102548958D01*
X134625000Y-102534500D01*
X134625000Y-102189500D01*
X134625710Y-102175042D01*
X134627834Y-102160724D01*
X134631351Y-102146683D01*
X134636228Y-102133054D01*
X134642417Y-102119969D01*
X134649858Y-102107553D01*
X134658481Y-102095927D01*
X134668202Y-102085202D01*
X134678927Y-102075481D01*
X134690553Y-102066858D01*
X134702969Y-102059417D01*
X134716054Y-102053228D01*
X134729683Y-102048351D01*
X134743724Y-102044834D01*
X134758042Y-102042710D01*
X134772500Y-102042000D01*
X135067500Y-102042000D01*
X135081958Y-102042710D01*
X135081958Y-102042710D01*
G37*
D11*
X134920000Y-102362000D03*
D10*
G36*
X136051958Y-102042710D02*
X136066276Y-102044834D01*
X136080317Y-102048351D01*
X136093946Y-102053228D01*
X136107031Y-102059417D01*
X136119447Y-102066858D01*
X136131073Y-102075481D01*
X136141798Y-102085202D01*
X136151519Y-102095927D01*
X136160142Y-102107553D01*
X136167583Y-102119969D01*
X136173772Y-102133054D01*
X136178649Y-102146683D01*
X136182166Y-102160724D01*
X136184290Y-102175042D01*
X136185000Y-102189500D01*
X136185000Y-102534500D01*
X136184290Y-102548958D01*
X136182166Y-102563276D01*
X136178649Y-102577317D01*
X136173772Y-102590946D01*
X136167583Y-102604031D01*
X136160142Y-102616447D01*
X136151519Y-102628073D01*
X136141798Y-102638798D01*
X136131073Y-102648519D01*
X136119447Y-102657142D01*
X136107031Y-102664583D01*
X136093946Y-102670772D01*
X136080317Y-102675649D01*
X136066276Y-102679166D01*
X136051958Y-102681290D01*
X136037500Y-102682000D01*
X135742500Y-102682000D01*
X135728042Y-102681290D01*
X135713724Y-102679166D01*
X135699683Y-102675649D01*
X135686054Y-102670772D01*
X135672969Y-102664583D01*
X135660553Y-102657142D01*
X135648927Y-102648519D01*
X135638202Y-102638798D01*
X135628481Y-102628073D01*
X135619858Y-102616447D01*
X135612417Y-102604031D01*
X135606228Y-102590946D01*
X135601351Y-102577317D01*
X135597834Y-102563276D01*
X135595710Y-102548958D01*
X135595000Y-102534500D01*
X135595000Y-102189500D01*
X135595710Y-102175042D01*
X135597834Y-102160724D01*
X135601351Y-102146683D01*
X135606228Y-102133054D01*
X135612417Y-102119969D01*
X135619858Y-102107553D01*
X135628481Y-102095927D01*
X135638202Y-102085202D01*
X135648927Y-102075481D01*
X135660553Y-102066858D01*
X135672969Y-102059417D01*
X135686054Y-102053228D01*
X135699683Y-102048351D01*
X135713724Y-102044834D01*
X135728042Y-102042710D01*
X135742500Y-102042000D01*
X136037500Y-102042000D01*
X136051958Y-102042710D01*
X136051958Y-102042710D01*
G37*
D11*
X135890000Y-102362000D03*
G04 #@! TD*
D10*
G04 #@! TO.C,R31*
G36*
X135568958Y-96502710D02*
X135583276Y-96504834D01*
X135597317Y-96508351D01*
X135610946Y-96513228D01*
X135624031Y-96519417D01*
X135636447Y-96526858D01*
X135648073Y-96535481D01*
X135658798Y-96545202D01*
X135668519Y-96555927D01*
X135677142Y-96567553D01*
X135684583Y-96579969D01*
X135690772Y-96593054D01*
X135695649Y-96606683D01*
X135699166Y-96620724D01*
X135701290Y-96635042D01*
X135702000Y-96649500D01*
X135702000Y-96944500D01*
X135701290Y-96958958D01*
X135699166Y-96973276D01*
X135695649Y-96987317D01*
X135690772Y-97000946D01*
X135684583Y-97014031D01*
X135677142Y-97026447D01*
X135668519Y-97038073D01*
X135658798Y-97048798D01*
X135648073Y-97058519D01*
X135636447Y-97067142D01*
X135624031Y-97074583D01*
X135610946Y-97080772D01*
X135597317Y-97085649D01*
X135583276Y-97089166D01*
X135568958Y-97091290D01*
X135554500Y-97092000D01*
X135209500Y-97092000D01*
X135195042Y-97091290D01*
X135180724Y-97089166D01*
X135166683Y-97085649D01*
X135153054Y-97080772D01*
X135139969Y-97074583D01*
X135127553Y-97067142D01*
X135115927Y-97058519D01*
X135105202Y-97048798D01*
X135095481Y-97038073D01*
X135086858Y-97026447D01*
X135079417Y-97014031D01*
X135073228Y-97000946D01*
X135068351Y-96987317D01*
X135064834Y-96973276D01*
X135062710Y-96958958D01*
X135062000Y-96944500D01*
X135062000Y-96649500D01*
X135062710Y-96635042D01*
X135064834Y-96620724D01*
X135068351Y-96606683D01*
X135073228Y-96593054D01*
X135079417Y-96579969D01*
X135086858Y-96567553D01*
X135095481Y-96555927D01*
X135105202Y-96545202D01*
X135115927Y-96535481D01*
X135127553Y-96526858D01*
X135139969Y-96519417D01*
X135153054Y-96513228D01*
X135166683Y-96508351D01*
X135180724Y-96504834D01*
X135195042Y-96502710D01*
X135209500Y-96502000D01*
X135554500Y-96502000D01*
X135568958Y-96502710D01*
X135568958Y-96502710D01*
G37*
D11*
X135382000Y-96797000D03*
D10*
G36*
X135568958Y-97472710D02*
X135583276Y-97474834D01*
X135597317Y-97478351D01*
X135610946Y-97483228D01*
X135624031Y-97489417D01*
X135636447Y-97496858D01*
X135648073Y-97505481D01*
X135658798Y-97515202D01*
X135668519Y-97525927D01*
X135677142Y-97537553D01*
X135684583Y-97549969D01*
X135690772Y-97563054D01*
X135695649Y-97576683D01*
X135699166Y-97590724D01*
X135701290Y-97605042D01*
X135702000Y-97619500D01*
X135702000Y-97914500D01*
X135701290Y-97928958D01*
X135699166Y-97943276D01*
X135695649Y-97957317D01*
X135690772Y-97970946D01*
X135684583Y-97984031D01*
X135677142Y-97996447D01*
X135668519Y-98008073D01*
X135658798Y-98018798D01*
X135648073Y-98028519D01*
X135636447Y-98037142D01*
X135624031Y-98044583D01*
X135610946Y-98050772D01*
X135597317Y-98055649D01*
X135583276Y-98059166D01*
X135568958Y-98061290D01*
X135554500Y-98062000D01*
X135209500Y-98062000D01*
X135195042Y-98061290D01*
X135180724Y-98059166D01*
X135166683Y-98055649D01*
X135153054Y-98050772D01*
X135139969Y-98044583D01*
X135127553Y-98037142D01*
X135115927Y-98028519D01*
X135105202Y-98018798D01*
X135095481Y-98008073D01*
X135086858Y-97996447D01*
X135079417Y-97984031D01*
X135073228Y-97970946D01*
X135068351Y-97957317D01*
X135064834Y-97943276D01*
X135062710Y-97928958D01*
X135062000Y-97914500D01*
X135062000Y-97619500D01*
X135062710Y-97605042D01*
X135064834Y-97590724D01*
X135068351Y-97576683D01*
X135073228Y-97563054D01*
X135079417Y-97549969D01*
X135086858Y-97537553D01*
X135095481Y-97525927D01*
X135105202Y-97515202D01*
X135115927Y-97505481D01*
X135127553Y-97496858D01*
X135139969Y-97489417D01*
X135153054Y-97483228D01*
X135166683Y-97478351D01*
X135180724Y-97474834D01*
X135195042Y-97472710D01*
X135209500Y-97472000D01*
X135554500Y-97472000D01*
X135568958Y-97472710D01*
X135568958Y-97472710D01*
G37*
D11*
X135382000Y-97767000D03*
G04 #@! TD*
D10*
G04 #@! TO.C,R32*
G36*
X127694958Y-104053710D02*
X127709276Y-104055834D01*
X127723317Y-104059351D01*
X127736946Y-104064228D01*
X127750031Y-104070417D01*
X127762447Y-104077858D01*
X127774073Y-104086481D01*
X127784798Y-104096202D01*
X127794519Y-104106927D01*
X127803142Y-104118553D01*
X127810583Y-104130969D01*
X127816772Y-104144054D01*
X127821649Y-104157683D01*
X127825166Y-104171724D01*
X127827290Y-104186042D01*
X127828000Y-104200500D01*
X127828000Y-104495500D01*
X127827290Y-104509958D01*
X127825166Y-104524276D01*
X127821649Y-104538317D01*
X127816772Y-104551946D01*
X127810583Y-104565031D01*
X127803142Y-104577447D01*
X127794519Y-104589073D01*
X127784798Y-104599798D01*
X127774073Y-104609519D01*
X127762447Y-104618142D01*
X127750031Y-104625583D01*
X127736946Y-104631772D01*
X127723317Y-104636649D01*
X127709276Y-104640166D01*
X127694958Y-104642290D01*
X127680500Y-104643000D01*
X127335500Y-104643000D01*
X127321042Y-104642290D01*
X127306724Y-104640166D01*
X127292683Y-104636649D01*
X127279054Y-104631772D01*
X127265969Y-104625583D01*
X127253553Y-104618142D01*
X127241927Y-104609519D01*
X127231202Y-104599798D01*
X127221481Y-104589073D01*
X127212858Y-104577447D01*
X127205417Y-104565031D01*
X127199228Y-104551946D01*
X127194351Y-104538317D01*
X127190834Y-104524276D01*
X127188710Y-104509958D01*
X127188000Y-104495500D01*
X127188000Y-104200500D01*
X127188710Y-104186042D01*
X127190834Y-104171724D01*
X127194351Y-104157683D01*
X127199228Y-104144054D01*
X127205417Y-104130969D01*
X127212858Y-104118553D01*
X127221481Y-104106927D01*
X127231202Y-104096202D01*
X127241927Y-104086481D01*
X127253553Y-104077858D01*
X127265969Y-104070417D01*
X127279054Y-104064228D01*
X127292683Y-104059351D01*
X127306724Y-104055834D01*
X127321042Y-104053710D01*
X127335500Y-104053000D01*
X127680500Y-104053000D01*
X127694958Y-104053710D01*
X127694958Y-104053710D01*
G37*
D11*
X127508000Y-104348000D03*
D10*
G36*
X127694958Y-103083710D02*
X127709276Y-103085834D01*
X127723317Y-103089351D01*
X127736946Y-103094228D01*
X127750031Y-103100417D01*
X127762447Y-103107858D01*
X127774073Y-103116481D01*
X127784798Y-103126202D01*
X127794519Y-103136927D01*
X127803142Y-103148553D01*
X127810583Y-103160969D01*
X127816772Y-103174054D01*
X127821649Y-103187683D01*
X127825166Y-103201724D01*
X127827290Y-103216042D01*
X127828000Y-103230500D01*
X127828000Y-103525500D01*
X127827290Y-103539958D01*
X127825166Y-103554276D01*
X127821649Y-103568317D01*
X127816772Y-103581946D01*
X127810583Y-103595031D01*
X127803142Y-103607447D01*
X127794519Y-103619073D01*
X127784798Y-103629798D01*
X127774073Y-103639519D01*
X127762447Y-103648142D01*
X127750031Y-103655583D01*
X127736946Y-103661772D01*
X127723317Y-103666649D01*
X127709276Y-103670166D01*
X127694958Y-103672290D01*
X127680500Y-103673000D01*
X127335500Y-103673000D01*
X127321042Y-103672290D01*
X127306724Y-103670166D01*
X127292683Y-103666649D01*
X127279054Y-103661772D01*
X127265969Y-103655583D01*
X127253553Y-103648142D01*
X127241927Y-103639519D01*
X127231202Y-103629798D01*
X127221481Y-103619073D01*
X127212858Y-103607447D01*
X127205417Y-103595031D01*
X127199228Y-103581946D01*
X127194351Y-103568317D01*
X127190834Y-103554276D01*
X127188710Y-103539958D01*
X127188000Y-103525500D01*
X127188000Y-103230500D01*
X127188710Y-103216042D01*
X127190834Y-103201724D01*
X127194351Y-103187683D01*
X127199228Y-103174054D01*
X127205417Y-103160969D01*
X127212858Y-103148553D01*
X127221481Y-103136927D01*
X127231202Y-103126202D01*
X127241927Y-103116481D01*
X127253553Y-103107858D01*
X127265969Y-103100417D01*
X127279054Y-103094228D01*
X127292683Y-103089351D01*
X127306724Y-103085834D01*
X127321042Y-103083710D01*
X127335500Y-103083000D01*
X127680500Y-103083000D01*
X127694958Y-103083710D01*
X127694958Y-103083710D01*
G37*
D11*
X127508000Y-103378000D03*
G04 #@! TD*
D10*
G04 #@! TO.C,R33*
G36*
X118802958Y-97470710D02*
X118817276Y-97472834D01*
X118831317Y-97476351D01*
X118844946Y-97481228D01*
X118858031Y-97487417D01*
X118870447Y-97494858D01*
X118882073Y-97503481D01*
X118892798Y-97513202D01*
X118902519Y-97523927D01*
X118911142Y-97535553D01*
X118918583Y-97547969D01*
X118924772Y-97561054D01*
X118929649Y-97574683D01*
X118933166Y-97588724D01*
X118935290Y-97603042D01*
X118936000Y-97617500D01*
X118936000Y-97962500D01*
X118935290Y-97976958D01*
X118933166Y-97991276D01*
X118929649Y-98005317D01*
X118924772Y-98018946D01*
X118918583Y-98032031D01*
X118911142Y-98044447D01*
X118902519Y-98056073D01*
X118892798Y-98066798D01*
X118882073Y-98076519D01*
X118870447Y-98085142D01*
X118858031Y-98092583D01*
X118844946Y-98098772D01*
X118831317Y-98103649D01*
X118817276Y-98107166D01*
X118802958Y-98109290D01*
X118788500Y-98110000D01*
X118493500Y-98110000D01*
X118479042Y-98109290D01*
X118464724Y-98107166D01*
X118450683Y-98103649D01*
X118437054Y-98098772D01*
X118423969Y-98092583D01*
X118411553Y-98085142D01*
X118399927Y-98076519D01*
X118389202Y-98066798D01*
X118379481Y-98056073D01*
X118370858Y-98044447D01*
X118363417Y-98032031D01*
X118357228Y-98018946D01*
X118352351Y-98005317D01*
X118348834Y-97991276D01*
X118346710Y-97976958D01*
X118346000Y-97962500D01*
X118346000Y-97617500D01*
X118346710Y-97603042D01*
X118348834Y-97588724D01*
X118352351Y-97574683D01*
X118357228Y-97561054D01*
X118363417Y-97547969D01*
X118370858Y-97535553D01*
X118379481Y-97523927D01*
X118389202Y-97513202D01*
X118399927Y-97503481D01*
X118411553Y-97494858D01*
X118423969Y-97487417D01*
X118437054Y-97481228D01*
X118450683Y-97476351D01*
X118464724Y-97472834D01*
X118479042Y-97470710D01*
X118493500Y-97470000D01*
X118788500Y-97470000D01*
X118802958Y-97470710D01*
X118802958Y-97470710D01*
G37*
D11*
X118641000Y-97790000D03*
D10*
G36*
X119772958Y-97470710D02*
X119787276Y-97472834D01*
X119801317Y-97476351D01*
X119814946Y-97481228D01*
X119828031Y-97487417D01*
X119840447Y-97494858D01*
X119852073Y-97503481D01*
X119862798Y-97513202D01*
X119872519Y-97523927D01*
X119881142Y-97535553D01*
X119888583Y-97547969D01*
X119894772Y-97561054D01*
X119899649Y-97574683D01*
X119903166Y-97588724D01*
X119905290Y-97603042D01*
X119906000Y-97617500D01*
X119906000Y-97962500D01*
X119905290Y-97976958D01*
X119903166Y-97991276D01*
X119899649Y-98005317D01*
X119894772Y-98018946D01*
X119888583Y-98032031D01*
X119881142Y-98044447D01*
X119872519Y-98056073D01*
X119862798Y-98066798D01*
X119852073Y-98076519D01*
X119840447Y-98085142D01*
X119828031Y-98092583D01*
X119814946Y-98098772D01*
X119801317Y-98103649D01*
X119787276Y-98107166D01*
X119772958Y-98109290D01*
X119758500Y-98110000D01*
X119463500Y-98110000D01*
X119449042Y-98109290D01*
X119434724Y-98107166D01*
X119420683Y-98103649D01*
X119407054Y-98098772D01*
X119393969Y-98092583D01*
X119381553Y-98085142D01*
X119369927Y-98076519D01*
X119359202Y-98066798D01*
X119349481Y-98056073D01*
X119340858Y-98044447D01*
X119333417Y-98032031D01*
X119327228Y-98018946D01*
X119322351Y-98005317D01*
X119318834Y-97991276D01*
X119316710Y-97976958D01*
X119316000Y-97962500D01*
X119316000Y-97617500D01*
X119316710Y-97603042D01*
X119318834Y-97588724D01*
X119322351Y-97574683D01*
X119327228Y-97561054D01*
X119333417Y-97547969D01*
X119340858Y-97535553D01*
X119349481Y-97523927D01*
X119359202Y-97513202D01*
X119369927Y-97503481D01*
X119381553Y-97494858D01*
X119393969Y-97487417D01*
X119407054Y-97481228D01*
X119420683Y-97476351D01*
X119434724Y-97472834D01*
X119449042Y-97470710D01*
X119463500Y-97470000D01*
X119758500Y-97470000D01*
X119772958Y-97470710D01*
X119772958Y-97470710D01*
G37*
D11*
X119611000Y-97790000D03*
G04 #@! TD*
D10*
G04 #@! TO.C,R34*
G36*
X143879958Y-76896710D02*
X143894276Y-76898834D01*
X143908317Y-76902351D01*
X143921946Y-76907228D01*
X143935031Y-76913417D01*
X143947447Y-76920858D01*
X143959073Y-76929481D01*
X143969798Y-76939202D01*
X143979519Y-76949927D01*
X143988142Y-76961553D01*
X143995583Y-76973969D01*
X144001772Y-76987054D01*
X144006649Y-77000683D01*
X144010166Y-77014724D01*
X144012290Y-77029042D01*
X144013000Y-77043500D01*
X144013000Y-77388500D01*
X144012290Y-77402958D01*
X144010166Y-77417276D01*
X144006649Y-77431317D01*
X144001772Y-77444946D01*
X143995583Y-77458031D01*
X143988142Y-77470447D01*
X143979519Y-77482073D01*
X143969798Y-77492798D01*
X143959073Y-77502519D01*
X143947447Y-77511142D01*
X143935031Y-77518583D01*
X143921946Y-77524772D01*
X143908317Y-77529649D01*
X143894276Y-77533166D01*
X143879958Y-77535290D01*
X143865500Y-77536000D01*
X143570500Y-77536000D01*
X143556042Y-77535290D01*
X143541724Y-77533166D01*
X143527683Y-77529649D01*
X143514054Y-77524772D01*
X143500969Y-77518583D01*
X143488553Y-77511142D01*
X143476927Y-77502519D01*
X143466202Y-77492798D01*
X143456481Y-77482073D01*
X143447858Y-77470447D01*
X143440417Y-77458031D01*
X143434228Y-77444946D01*
X143429351Y-77431317D01*
X143425834Y-77417276D01*
X143423710Y-77402958D01*
X143423000Y-77388500D01*
X143423000Y-77043500D01*
X143423710Y-77029042D01*
X143425834Y-77014724D01*
X143429351Y-77000683D01*
X143434228Y-76987054D01*
X143440417Y-76973969D01*
X143447858Y-76961553D01*
X143456481Y-76949927D01*
X143466202Y-76939202D01*
X143476927Y-76929481D01*
X143488553Y-76920858D01*
X143500969Y-76913417D01*
X143514054Y-76907228D01*
X143527683Y-76902351D01*
X143541724Y-76898834D01*
X143556042Y-76896710D01*
X143570500Y-76896000D01*
X143865500Y-76896000D01*
X143879958Y-76896710D01*
X143879958Y-76896710D01*
G37*
D11*
X143718000Y-77216000D03*
D10*
G36*
X142909958Y-76896710D02*
X142924276Y-76898834D01*
X142938317Y-76902351D01*
X142951946Y-76907228D01*
X142965031Y-76913417D01*
X142977447Y-76920858D01*
X142989073Y-76929481D01*
X142999798Y-76939202D01*
X143009519Y-76949927D01*
X143018142Y-76961553D01*
X143025583Y-76973969D01*
X143031772Y-76987054D01*
X143036649Y-77000683D01*
X143040166Y-77014724D01*
X143042290Y-77029042D01*
X143043000Y-77043500D01*
X143043000Y-77388500D01*
X143042290Y-77402958D01*
X143040166Y-77417276D01*
X143036649Y-77431317D01*
X143031772Y-77444946D01*
X143025583Y-77458031D01*
X143018142Y-77470447D01*
X143009519Y-77482073D01*
X142999798Y-77492798D01*
X142989073Y-77502519D01*
X142977447Y-77511142D01*
X142965031Y-77518583D01*
X142951946Y-77524772D01*
X142938317Y-77529649D01*
X142924276Y-77533166D01*
X142909958Y-77535290D01*
X142895500Y-77536000D01*
X142600500Y-77536000D01*
X142586042Y-77535290D01*
X142571724Y-77533166D01*
X142557683Y-77529649D01*
X142544054Y-77524772D01*
X142530969Y-77518583D01*
X142518553Y-77511142D01*
X142506927Y-77502519D01*
X142496202Y-77492798D01*
X142486481Y-77482073D01*
X142477858Y-77470447D01*
X142470417Y-77458031D01*
X142464228Y-77444946D01*
X142459351Y-77431317D01*
X142455834Y-77417276D01*
X142453710Y-77402958D01*
X142453000Y-77388500D01*
X142453000Y-77043500D01*
X142453710Y-77029042D01*
X142455834Y-77014724D01*
X142459351Y-77000683D01*
X142464228Y-76987054D01*
X142470417Y-76973969D01*
X142477858Y-76961553D01*
X142486481Y-76949927D01*
X142496202Y-76939202D01*
X142506927Y-76929481D01*
X142518553Y-76920858D01*
X142530969Y-76913417D01*
X142544054Y-76907228D01*
X142557683Y-76902351D01*
X142571724Y-76898834D01*
X142586042Y-76896710D01*
X142600500Y-76896000D01*
X142895500Y-76896000D01*
X142909958Y-76896710D01*
X142909958Y-76896710D01*
G37*
D11*
X142748000Y-77216000D03*
G04 #@! TD*
D10*
G04 #@! TO.C,R35*
G36*
X142955958Y-79436710D02*
X142970276Y-79438834D01*
X142984317Y-79442351D01*
X142997946Y-79447228D01*
X143011031Y-79453417D01*
X143023447Y-79460858D01*
X143035073Y-79469481D01*
X143045798Y-79479202D01*
X143055519Y-79489927D01*
X143064142Y-79501553D01*
X143071583Y-79513969D01*
X143077772Y-79527054D01*
X143082649Y-79540683D01*
X143086166Y-79554724D01*
X143088290Y-79569042D01*
X143089000Y-79583500D01*
X143089000Y-79928500D01*
X143088290Y-79942958D01*
X143086166Y-79957276D01*
X143082649Y-79971317D01*
X143077772Y-79984946D01*
X143071583Y-79998031D01*
X143064142Y-80010447D01*
X143055519Y-80022073D01*
X143045798Y-80032798D01*
X143035073Y-80042519D01*
X143023447Y-80051142D01*
X143011031Y-80058583D01*
X142997946Y-80064772D01*
X142984317Y-80069649D01*
X142970276Y-80073166D01*
X142955958Y-80075290D01*
X142941500Y-80076000D01*
X142646500Y-80076000D01*
X142632042Y-80075290D01*
X142617724Y-80073166D01*
X142603683Y-80069649D01*
X142590054Y-80064772D01*
X142576969Y-80058583D01*
X142564553Y-80051142D01*
X142552927Y-80042519D01*
X142542202Y-80032798D01*
X142532481Y-80022073D01*
X142523858Y-80010447D01*
X142516417Y-79998031D01*
X142510228Y-79984946D01*
X142505351Y-79971317D01*
X142501834Y-79957276D01*
X142499710Y-79942958D01*
X142499000Y-79928500D01*
X142499000Y-79583500D01*
X142499710Y-79569042D01*
X142501834Y-79554724D01*
X142505351Y-79540683D01*
X142510228Y-79527054D01*
X142516417Y-79513969D01*
X142523858Y-79501553D01*
X142532481Y-79489927D01*
X142542202Y-79479202D01*
X142552927Y-79469481D01*
X142564553Y-79460858D01*
X142576969Y-79453417D01*
X142590054Y-79447228D01*
X142603683Y-79442351D01*
X142617724Y-79438834D01*
X142632042Y-79436710D01*
X142646500Y-79436000D01*
X142941500Y-79436000D01*
X142955958Y-79436710D01*
X142955958Y-79436710D01*
G37*
D11*
X142794000Y-79756000D03*
D10*
G36*
X143925958Y-79436710D02*
X143940276Y-79438834D01*
X143954317Y-79442351D01*
X143967946Y-79447228D01*
X143981031Y-79453417D01*
X143993447Y-79460858D01*
X144005073Y-79469481D01*
X144015798Y-79479202D01*
X144025519Y-79489927D01*
X144034142Y-79501553D01*
X144041583Y-79513969D01*
X144047772Y-79527054D01*
X144052649Y-79540683D01*
X144056166Y-79554724D01*
X144058290Y-79569042D01*
X144059000Y-79583500D01*
X144059000Y-79928500D01*
X144058290Y-79942958D01*
X144056166Y-79957276D01*
X144052649Y-79971317D01*
X144047772Y-79984946D01*
X144041583Y-79998031D01*
X144034142Y-80010447D01*
X144025519Y-80022073D01*
X144015798Y-80032798D01*
X144005073Y-80042519D01*
X143993447Y-80051142D01*
X143981031Y-80058583D01*
X143967946Y-80064772D01*
X143954317Y-80069649D01*
X143940276Y-80073166D01*
X143925958Y-80075290D01*
X143911500Y-80076000D01*
X143616500Y-80076000D01*
X143602042Y-80075290D01*
X143587724Y-80073166D01*
X143573683Y-80069649D01*
X143560054Y-80064772D01*
X143546969Y-80058583D01*
X143534553Y-80051142D01*
X143522927Y-80042519D01*
X143512202Y-80032798D01*
X143502481Y-80022073D01*
X143493858Y-80010447D01*
X143486417Y-79998031D01*
X143480228Y-79984946D01*
X143475351Y-79971317D01*
X143471834Y-79957276D01*
X143469710Y-79942958D01*
X143469000Y-79928500D01*
X143469000Y-79583500D01*
X143469710Y-79569042D01*
X143471834Y-79554724D01*
X143475351Y-79540683D01*
X143480228Y-79527054D01*
X143486417Y-79513969D01*
X143493858Y-79501553D01*
X143502481Y-79489927D01*
X143512202Y-79479202D01*
X143522927Y-79469481D01*
X143534553Y-79460858D01*
X143546969Y-79453417D01*
X143560054Y-79447228D01*
X143573683Y-79442351D01*
X143587724Y-79438834D01*
X143602042Y-79436710D01*
X143616500Y-79436000D01*
X143911500Y-79436000D01*
X143925958Y-79436710D01*
X143925958Y-79436710D01*
G37*
D11*
X143764000Y-79756000D03*
G04 #@! TD*
D14*
G04 #@! TO.C,U1*
X156304000Y-87503000D03*
X156304000Y-88773000D03*
X156304000Y-90043000D03*
X156304000Y-91313000D03*
X156304000Y-92583000D03*
X156304000Y-93853000D03*
X156304000Y-95123000D03*
X156304000Y-96393000D03*
X161704000Y-96393000D03*
X161704000Y-95123000D03*
X161704000Y-93853000D03*
X161704000Y-92583000D03*
X161704000Y-91313000D03*
X161704000Y-90043000D03*
X161704000Y-88773000D03*
X161704000Y-87503000D03*
G04 #@! TD*
G04 #@! TO.C,U2*
X124874000Y-74676000D03*
X124874000Y-75946000D03*
X124874000Y-77216000D03*
X124874000Y-78486000D03*
X124874000Y-79756000D03*
X124874000Y-81026000D03*
X124874000Y-82296000D03*
X119474000Y-82296000D03*
X119474000Y-81026000D03*
X119474000Y-79756000D03*
X119474000Y-78486000D03*
X119474000Y-77216000D03*
X119474000Y-75946000D03*
X119474000Y-74676000D03*
G04 #@! TD*
G04 #@! TO.C,U3*
X145890000Y-74676000D03*
X145890000Y-75946000D03*
X145890000Y-77216000D03*
X145890000Y-78486000D03*
X145890000Y-79756000D03*
X145890000Y-81026000D03*
X145890000Y-82296000D03*
X151290000Y-82296000D03*
X151290000Y-81026000D03*
X151290000Y-79756000D03*
X151290000Y-78486000D03*
X151290000Y-77216000D03*
X151290000Y-75946000D03*
X151290000Y-74676000D03*
G04 #@! TD*
M02*
