G04 #@! TF.GenerationSoftware,KiCad,Pcbnew,(5.0.2)-1*
G04 #@! TF.CreationDate,2019-02-20T11:37:58+00:00*
G04 #@! TF.ProjectId,vco,76636f2e-6b69-4636-9164-5f7063625858,rev?*
G04 #@! TF.SameCoordinates,Original*
G04 #@! TF.FileFunction,Soldermask,Top*
G04 #@! TF.FilePolarity,Negative*
%FSLAX46Y46*%
G04 Gerber Fmt 4.6, Leading zero omitted, Abs format (unit mm)*
G04 Created by KiCad (PCBNEW (5.0.2)-1) date 20/02/2019 11:37:58*
%MOMM*%
%LPD*%
G01*
G04 APERTURE LIST*
%ADD10C,0.100000*%
G04 APERTURE END LIST*
D10*
G36*
X142271000Y-136945000D02*
X139669000Y-136945000D01*
X139669000Y-135343000D01*
X142271000Y-135343000D01*
X142271000Y-136945000D01*
X142271000Y-136945000D01*
G37*
G36*
X131857000Y-136945000D02*
X129255000Y-136945000D01*
X129255000Y-135343000D01*
X131857000Y-135343000D01*
X131857000Y-136945000D01*
X131857000Y-136945000D01*
G37*
G36*
X129317000Y-134405000D02*
X126715000Y-134405000D01*
X126715000Y-132803000D01*
X129317000Y-132803000D01*
X129317000Y-134405000D01*
X129317000Y-134405000D01*
G37*
G36*
X139731000Y-134405000D02*
X137129000Y-134405000D01*
X137129000Y-132803000D01*
X139731000Y-132803000D01*
X139731000Y-134405000D01*
X139731000Y-134405000D01*
G37*
G36*
X144811000Y-132881000D02*
X142209000Y-132881000D01*
X142209000Y-131279000D01*
X144811000Y-131279000D01*
X144811000Y-132881000D01*
X144811000Y-132881000D01*
G37*
G36*
X134397000Y-132881000D02*
X131795000Y-132881000D01*
X131795000Y-131279000D01*
X134397000Y-131279000D01*
X134397000Y-132881000D01*
X134397000Y-132881000D01*
G37*
G36*
X131828938Y-129933716D02*
X131849556Y-129939970D01*
X131868556Y-129950126D01*
X131885208Y-129963792D01*
X131898874Y-129980444D01*
X131909030Y-129999444D01*
X131915284Y-130020062D01*
X131918000Y-130047640D01*
X131918000Y-130556360D01*
X131915284Y-130583938D01*
X131909030Y-130604556D01*
X131898874Y-130623556D01*
X131885208Y-130640208D01*
X131868556Y-130653874D01*
X131849556Y-130664030D01*
X131828938Y-130670284D01*
X131801360Y-130673000D01*
X131342640Y-130673000D01*
X131315062Y-130670284D01*
X131294444Y-130664030D01*
X131275444Y-130653874D01*
X131258792Y-130640208D01*
X131245126Y-130623556D01*
X131234970Y-130604556D01*
X131228716Y-130583938D01*
X131226000Y-130556360D01*
X131226000Y-130047640D01*
X131228716Y-130020062D01*
X131234970Y-129999444D01*
X131245126Y-129980444D01*
X131258792Y-129963792D01*
X131275444Y-129950126D01*
X131294444Y-129939970D01*
X131315062Y-129933716D01*
X131342640Y-129931000D01*
X131801360Y-129931000D01*
X131828938Y-129933716D01*
X131828938Y-129933716D01*
G37*
G36*
X130858938Y-129933716D02*
X130879556Y-129939970D01*
X130898556Y-129950126D01*
X130915208Y-129963792D01*
X130928874Y-129980444D01*
X130939030Y-129999444D01*
X130945284Y-130020062D01*
X130948000Y-130047640D01*
X130948000Y-130556360D01*
X130945284Y-130583938D01*
X130939030Y-130604556D01*
X130928874Y-130623556D01*
X130915208Y-130640208D01*
X130898556Y-130653874D01*
X130879556Y-130664030D01*
X130858938Y-130670284D01*
X130831360Y-130673000D01*
X130372640Y-130673000D01*
X130345062Y-130670284D01*
X130324444Y-130664030D01*
X130305444Y-130653874D01*
X130288792Y-130640208D01*
X130275126Y-130623556D01*
X130264970Y-130604556D01*
X130258716Y-130583938D01*
X130256000Y-130556360D01*
X130256000Y-130047640D01*
X130258716Y-130020062D01*
X130264970Y-129999444D01*
X130275126Y-129980444D01*
X130288792Y-129963792D01*
X130305444Y-129950126D01*
X130324444Y-129939970D01*
X130345062Y-129933716D01*
X130372640Y-129931000D01*
X130831360Y-129931000D01*
X130858938Y-129933716D01*
X130858938Y-129933716D01*
G37*
G36*
X131857000Y-129325000D02*
X129255000Y-129325000D01*
X129255000Y-127723000D01*
X131857000Y-127723000D01*
X131857000Y-129325000D01*
X131857000Y-129325000D01*
G37*
G36*
X142271000Y-129325000D02*
X139669000Y-129325000D01*
X139669000Y-127723000D01*
X142271000Y-127723000D01*
X142271000Y-129325000D01*
X142271000Y-129325000D01*
G37*
G36*
X126523000Y-126277000D02*
X123921000Y-126277000D01*
X123921000Y-124675000D01*
X126523000Y-124675000D01*
X126523000Y-126277000D01*
X126523000Y-126277000D01*
G37*
G36*
X157765000Y-126277000D02*
X155163000Y-126277000D01*
X155163000Y-124675000D01*
X157765000Y-124675000D01*
X157765000Y-126277000D01*
X157765000Y-126277000D01*
G37*
G36*
X147351000Y-126277000D02*
X144749000Y-126277000D01*
X144749000Y-124675000D01*
X147351000Y-124675000D01*
X147351000Y-126277000D01*
X147351000Y-126277000D01*
G37*
G36*
X116109000Y-126277000D02*
X113507000Y-126277000D01*
X113507000Y-124675000D01*
X116109000Y-124675000D01*
X116109000Y-126277000D01*
X116109000Y-126277000D01*
G37*
G36*
X136937000Y-126277000D02*
X134335000Y-126277000D01*
X134335000Y-124675000D01*
X136937000Y-124675000D01*
X136937000Y-126277000D01*
X136937000Y-126277000D01*
G37*
G36*
X113569000Y-123737000D02*
X110967000Y-123737000D01*
X110967000Y-122135000D01*
X113569000Y-122135000D01*
X113569000Y-123737000D01*
X113569000Y-123737000D01*
G37*
G36*
X155225000Y-123737000D02*
X152623000Y-123737000D01*
X152623000Y-122135000D01*
X155225000Y-122135000D01*
X155225000Y-123737000D01*
X155225000Y-123737000D01*
G37*
G36*
X144811000Y-123737000D02*
X142209000Y-123737000D01*
X142209000Y-122135000D01*
X144811000Y-122135000D01*
X144811000Y-123737000D01*
X144811000Y-123737000D01*
G37*
G36*
X134397000Y-123737000D02*
X131795000Y-123737000D01*
X131795000Y-122135000D01*
X134397000Y-122135000D01*
X134397000Y-123737000D01*
X134397000Y-123737000D01*
G37*
G36*
X123983000Y-123737000D02*
X121381000Y-123737000D01*
X121381000Y-122135000D01*
X123983000Y-122135000D01*
X123983000Y-123737000D01*
X123983000Y-123737000D01*
G37*
G36*
X139477000Y-122213000D02*
X136875000Y-122213000D01*
X136875000Y-120611000D01*
X139477000Y-120611000D01*
X139477000Y-122213000D01*
X139477000Y-122213000D01*
G37*
G36*
X118649000Y-122213000D02*
X116047000Y-122213000D01*
X116047000Y-120611000D01*
X118649000Y-120611000D01*
X118649000Y-122213000D01*
X118649000Y-122213000D01*
G37*
G36*
X129063000Y-122213000D02*
X126461000Y-122213000D01*
X126461000Y-120611000D01*
X129063000Y-120611000D01*
X129063000Y-122213000D01*
X129063000Y-122213000D01*
G37*
G36*
X160305000Y-122213000D02*
X157703000Y-122213000D01*
X157703000Y-120611000D01*
X160305000Y-120611000D01*
X160305000Y-122213000D01*
X160305000Y-122213000D01*
G37*
G36*
X149891000Y-122213000D02*
X147289000Y-122213000D01*
X147289000Y-120611000D01*
X149891000Y-120611000D01*
X149891000Y-122213000D01*
X149891000Y-122213000D01*
G37*
G36*
X156674938Y-119519716D02*
X156695556Y-119525970D01*
X156714556Y-119536126D01*
X156731208Y-119549792D01*
X156744874Y-119566444D01*
X156755030Y-119585444D01*
X156761284Y-119606062D01*
X156764000Y-119633640D01*
X156764000Y-120142360D01*
X156761284Y-120169938D01*
X156755030Y-120190556D01*
X156744874Y-120209556D01*
X156731208Y-120226208D01*
X156714556Y-120239874D01*
X156695556Y-120250030D01*
X156674938Y-120256284D01*
X156647360Y-120259000D01*
X156188640Y-120259000D01*
X156161062Y-120256284D01*
X156140444Y-120250030D01*
X156121444Y-120239874D01*
X156104792Y-120226208D01*
X156091126Y-120209556D01*
X156080970Y-120190556D01*
X156074716Y-120169938D01*
X156072000Y-120142360D01*
X156072000Y-119633640D01*
X156074716Y-119606062D01*
X156080970Y-119585444D01*
X156091126Y-119566444D01*
X156104792Y-119549792D01*
X156121444Y-119536126D01*
X156140444Y-119525970D01*
X156161062Y-119519716D01*
X156188640Y-119517000D01*
X156647360Y-119517000D01*
X156674938Y-119519716D01*
X156674938Y-119519716D01*
G37*
G36*
X155704938Y-119519716D02*
X155725556Y-119525970D01*
X155744556Y-119536126D01*
X155761208Y-119549792D01*
X155774874Y-119566444D01*
X155785030Y-119585444D01*
X155791284Y-119606062D01*
X155794000Y-119633640D01*
X155794000Y-120142360D01*
X155791284Y-120169938D01*
X155785030Y-120190556D01*
X155774874Y-120209556D01*
X155761208Y-120226208D01*
X155744556Y-120239874D01*
X155725556Y-120250030D01*
X155704938Y-120256284D01*
X155677360Y-120259000D01*
X155218640Y-120259000D01*
X155191062Y-120256284D01*
X155170444Y-120250030D01*
X155151444Y-120239874D01*
X155134792Y-120226208D01*
X155121126Y-120209556D01*
X155110970Y-120190556D01*
X155104716Y-120169938D01*
X155102000Y-120142360D01*
X155102000Y-119633640D01*
X155104716Y-119606062D01*
X155110970Y-119585444D01*
X155121126Y-119566444D01*
X155134792Y-119549792D01*
X155151444Y-119536126D01*
X155170444Y-119525970D01*
X155191062Y-119519716D01*
X155218640Y-119517000D01*
X155677360Y-119517000D01*
X155704938Y-119519716D01*
X155704938Y-119519716D01*
G37*
G36*
X138686938Y-119519716D02*
X138707556Y-119525970D01*
X138726556Y-119536126D01*
X138743208Y-119549792D01*
X138756874Y-119566444D01*
X138767030Y-119585444D01*
X138773284Y-119606062D01*
X138776000Y-119633640D01*
X138776000Y-120142360D01*
X138773284Y-120169938D01*
X138767030Y-120190556D01*
X138756874Y-120209556D01*
X138743208Y-120226208D01*
X138726556Y-120239874D01*
X138707556Y-120250030D01*
X138686938Y-120256284D01*
X138659360Y-120259000D01*
X138200640Y-120259000D01*
X138173062Y-120256284D01*
X138152444Y-120250030D01*
X138133444Y-120239874D01*
X138116792Y-120226208D01*
X138103126Y-120209556D01*
X138092970Y-120190556D01*
X138086716Y-120169938D01*
X138084000Y-120142360D01*
X138084000Y-119633640D01*
X138086716Y-119606062D01*
X138092970Y-119585444D01*
X138103126Y-119566444D01*
X138116792Y-119549792D01*
X138133444Y-119536126D01*
X138152444Y-119525970D01*
X138173062Y-119519716D01*
X138200640Y-119517000D01*
X138659360Y-119517000D01*
X138686938Y-119519716D01*
X138686938Y-119519716D01*
G37*
G36*
X137716938Y-119519716D02*
X137737556Y-119525970D01*
X137756556Y-119536126D01*
X137773208Y-119549792D01*
X137786874Y-119566444D01*
X137797030Y-119585444D01*
X137803284Y-119606062D01*
X137806000Y-119633640D01*
X137806000Y-120142360D01*
X137803284Y-120169938D01*
X137797030Y-120190556D01*
X137786874Y-120209556D01*
X137773208Y-120226208D01*
X137756556Y-120239874D01*
X137737556Y-120250030D01*
X137716938Y-120256284D01*
X137689360Y-120259000D01*
X137230640Y-120259000D01*
X137203062Y-120256284D01*
X137182444Y-120250030D01*
X137163444Y-120239874D01*
X137146792Y-120226208D01*
X137133126Y-120209556D01*
X137122970Y-120190556D01*
X137116716Y-120169938D01*
X137114000Y-120142360D01*
X137114000Y-119633640D01*
X137116716Y-119606062D01*
X137122970Y-119585444D01*
X137133126Y-119566444D01*
X137146792Y-119549792D01*
X137163444Y-119536126D01*
X137182444Y-119525970D01*
X137203062Y-119519716D01*
X137230640Y-119517000D01*
X137689360Y-119517000D01*
X137716938Y-119519716D01*
X137716938Y-119519716D01*
G37*
G36*
X135892938Y-119519716D02*
X135913556Y-119525970D01*
X135932556Y-119536126D01*
X135949208Y-119549792D01*
X135962874Y-119566444D01*
X135973030Y-119585444D01*
X135979284Y-119606062D01*
X135982000Y-119633640D01*
X135982000Y-120142360D01*
X135979284Y-120169938D01*
X135973030Y-120190556D01*
X135962874Y-120209556D01*
X135949208Y-120226208D01*
X135932556Y-120239874D01*
X135913556Y-120250030D01*
X135892938Y-120256284D01*
X135865360Y-120259000D01*
X135406640Y-120259000D01*
X135379062Y-120256284D01*
X135358444Y-120250030D01*
X135339444Y-120239874D01*
X135322792Y-120226208D01*
X135309126Y-120209556D01*
X135298970Y-120190556D01*
X135292716Y-120169938D01*
X135290000Y-120142360D01*
X135290000Y-119633640D01*
X135292716Y-119606062D01*
X135298970Y-119585444D01*
X135309126Y-119566444D01*
X135322792Y-119549792D01*
X135339444Y-119536126D01*
X135358444Y-119525970D01*
X135379062Y-119519716D01*
X135406640Y-119517000D01*
X135865360Y-119517000D01*
X135892938Y-119519716D01*
X135892938Y-119519716D01*
G37*
G36*
X134922938Y-119519716D02*
X134943556Y-119525970D01*
X134962556Y-119536126D01*
X134979208Y-119549792D01*
X134992874Y-119566444D01*
X135003030Y-119585444D01*
X135009284Y-119606062D01*
X135012000Y-119633640D01*
X135012000Y-120142360D01*
X135009284Y-120169938D01*
X135003030Y-120190556D01*
X134992874Y-120209556D01*
X134979208Y-120226208D01*
X134962556Y-120239874D01*
X134943556Y-120250030D01*
X134922938Y-120256284D01*
X134895360Y-120259000D01*
X134436640Y-120259000D01*
X134409062Y-120256284D01*
X134388444Y-120250030D01*
X134369444Y-120239874D01*
X134352792Y-120226208D01*
X134339126Y-120209556D01*
X134328970Y-120190556D01*
X134322716Y-120169938D01*
X134320000Y-120142360D01*
X134320000Y-119633640D01*
X134322716Y-119606062D01*
X134328970Y-119585444D01*
X134339126Y-119566444D01*
X134352792Y-119549792D01*
X134369444Y-119536126D01*
X134388444Y-119525970D01*
X134409062Y-119519716D01*
X134436640Y-119517000D01*
X134895360Y-119517000D01*
X134922938Y-119519716D01*
X134922938Y-119519716D01*
G37*
G36*
X115064938Y-119265716D02*
X115085556Y-119271970D01*
X115104556Y-119282126D01*
X115121208Y-119295792D01*
X115134874Y-119312444D01*
X115145030Y-119331444D01*
X115151284Y-119352062D01*
X115154000Y-119379640D01*
X115154000Y-119888360D01*
X115151284Y-119915938D01*
X115145030Y-119936556D01*
X115134874Y-119955556D01*
X115121208Y-119972208D01*
X115104556Y-119985874D01*
X115085556Y-119996030D01*
X115064938Y-120002284D01*
X115037360Y-120005000D01*
X114578640Y-120005000D01*
X114551062Y-120002284D01*
X114530444Y-119996030D01*
X114511444Y-119985874D01*
X114494792Y-119972208D01*
X114481126Y-119955556D01*
X114470970Y-119936556D01*
X114464716Y-119915938D01*
X114462000Y-119888360D01*
X114462000Y-119379640D01*
X114464716Y-119352062D01*
X114470970Y-119331444D01*
X114481126Y-119312444D01*
X114494792Y-119295792D01*
X114511444Y-119282126D01*
X114530444Y-119271970D01*
X114551062Y-119265716D01*
X114578640Y-119263000D01*
X115037360Y-119263000D01*
X115064938Y-119265716D01*
X115064938Y-119265716D01*
G37*
G36*
X124462938Y-119265716D02*
X124483556Y-119271970D01*
X124502556Y-119282126D01*
X124519208Y-119295792D01*
X124532874Y-119312444D01*
X124543030Y-119331444D01*
X124549284Y-119352062D01*
X124552000Y-119379640D01*
X124552000Y-119888360D01*
X124549284Y-119915938D01*
X124543030Y-119936556D01*
X124532874Y-119955556D01*
X124519208Y-119972208D01*
X124502556Y-119985874D01*
X124483556Y-119996030D01*
X124462938Y-120002284D01*
X124435360Y-120005000D01*
X123976640Y-120005000D01*
X123949062Y-120002284D01*
X123928444Y-119996030D01*
X123909444Y-119985874D01*
X123892792Y-119972208D01*
X123879126Y-119955556D01*
X123868970Y-119936556D01*
X123862716Y-119915938D01*
X123860000Y-119888360D01*
X123860000Y-119379640D01*
X123862716Y-119352062D01*
X123868970Y-119331444D01*
X123879126Y-119312444D01*
X123892792Y-119295792D01*
X123909444Y-119282126D01*
X123928444Y-119271970D01*
X123949062Y-119265716D01*
X123976640Y-119263000D01*
X124435360Y-119263000D01*
X124462938Y-119265716D01*
X124462938Y-119265716D01*
G37*
G36*
X146352938Y-119265716D02*
X146373556Y-119271970D01*
X146392556Y-119282126D01*
X146409208Y-119295792D01*
X146422874Y-119312444D01*
X146433030Y-119331444D01*
X146439284Y-119352062D01*
X146442000Y-119379640D01*
X146442000Y-119888360D01*
X146439284Y-119915938D01*
X146433030Y-119936556D01*
X146422874Y-119955556D01*
X146409208Y-119972208D01*
X146392556Y-119985874D01*
X146373556Y-119996030D01*
X146352938Y-120002284D01*
X146325360Y-120005000D01*
X145866640Y-120005000D01*
X145839062Y-120002284D01*
X145818444Y-119996030D01*
X145799444Y-119985874D01*
X145782792Y-119972208D01*
X145769126Y-119955556D01*
X145758970Y-119936556D01*
X145752716Y-119915938D01*
X145750000Y-119888360D01*
X145750000Y-119379640D01*
X145752716Y-119352062D01*
X145758970Y-119331444D01*
X145769126Y-119312444D01*
X145782792Y-119295792D01*
X145799444Y-119282126D01*
X145818444Y-119271970D01*
X145839062Y-119265716D01*
X145866640Y-119263000D01*
X146325360Y-119263000D01*
X146352938Y-119265716D01*
X146352938Y-119265716D01*
G37*
G36*
X114094938Y-119265716D02*
X114115556Y-119271970D01*
X114134556Y-119282126D01*
X114151208Y-119295792D01*
X114164874Y-119312444D01*
X114175030Y-119331444D01*
X114181284Y-119352062D01*
X114184000Y-119379640D01*
X114184000Y-119888360D01*
X114181284Y-119915938D01*
X114175030Y-119936556D01*
X114164874Y-119955556D01*
X114151208Y-119972208D01*
X114134556Y-119985874D01*
X114115556Y-119996030D01*
X114094938Y-120002284D01*
X114067360Y-120005000D01*
X113608640Y-120005000D01*
X113581062Y-120002284D01*
X113560444Y-119996030D01*
X113541444Y-119985874D01*
X113524792Y-119972208D01*
X113511126Y-119955556D01*
X113500970Y-119936556D01*
X113494716Y-119915938D01*
X113492000Y-119888360D01*
X113492000Y-119379640D01*
X113494716Y-119352062D01*
X113500970Y-119331444D01*
X113511126Y-119312444D01*
X113524792Y-119295792D01*
X113541444Y-119282126D01*
X113560444Y-119271970D01*
X113581062Y-119265716D01*
X113608640Y-119263000D01*
X114067360Y-119263000D01*
X114094938Y-119265716D01*
X114094938Y-119265716D01*
G37*
G36*
X147322938Y-119265716D02*
X147343556Y-119271970D01*
X147362556Y-119282126D01*
X147379208Y-119295792D01*
X147392874Y-119312444D01*
X147403030Y-119331444D01*
X147409284Y-119352062D01*
X147412000Y-119379640D01*
X147412000Y-119888360D01*
X147409284Y-119915938D01*
X147403030Y-119936556D01*
X147392874Y-119955556D01*
X147379208Y-119972208D01*
X147362556Y-119985874D01*
X147343556Y-119996030D01*
X147322938Y-120002284D01*
X147295360Y-120005000D01*
X146836640Y-120005000D01*
X146809062Y-120002284D01*
X146788444Y-119996030D01*
X146769444Y-119985874D01*
X146752792Y-119972208D01*
X146739126Y-119955556D01*
X146728970Y-119936556D01*
X146722716Y-119915938D01*
X146720000Y-119888360D01*
X146720000Y-119379640D01*
X146722716Y-119352062D01*
X146728970Y-119331444D01*
X146739126Y-119312444D01*
X146752792Y-119295792D01*
X146769444Y-119282126D01*
X146788444Y-119271970D01*
X146809062Y-119265716D01*
X146836640Y-119263000D01*
X147295360Y-119263000D01*
X147322938Y-119265716D01*
X147322938Y-119265716D01*
G37*
G36*
X125432938Y-119265716D02*
X125453556Y-119271970D01*
X125472556Y-119282126D01*
X125489208Y-119295792D01*
X125502874Y-119312444D01*
X125513030Y-119331444D01*
X125519284Y-119352062D01*
X125522000Y-119379640D01*
X125522000Y-119888360D01*
X125519284Y-119915938D01*
X125513030Y-119936556D01*
X125502874Y-119955556D01*
X125489208Y-119972208D01*
X125472556Y-119985874D01*
X125453556Y-119996030D01*
X125432938Y-120002284D01*
X125405360Y-120005000D01*
X124946640Y-120005000D01*
X124919062Y-120002284D01*
X124898444Y-119996030D01*
X124879444Y-119985874D01*
X124862792Y-119972208D01*
X124849126Y-119955556D01*
X124838970Y-119936556D01*
X124832716Y-119915938D01*
X124830000Y-119888360D01*
X124830000Y-119379640D01*
X124832716Y-119352062D01*
X124838970Y-119331444D01*
X124849126Y-119312444D01*
X124862792Y-119295792D01*
X124879444Y-119282126D01*
X124898444Y-119271970D01*
X124919062Y-119265716D01*
X124946640Y-119263000D01*
X125405360Y-119263000D01*
X125432938Y-119265716D01*
X125432938Y-119265716D01*
G37*
G36*
X116109000Y-118657000D02*
X113507000Y-118657000D01*
X113507000Y-117055000D01*
X116109000Y-117055000D01*
X116109000Y-118657000D01*
X116109000Y-118657000D01*
G37*
G36*
X126523000Y-118657000D02*
X123921000Y-118657000D01*
X123921000Y-117055000D01*
X126523000Y-117055000D01*
X126523000Y-118657000D01*
X126523000Y-118657000D01*
G37*
G36*
X136937000Y-118657000D02*
X134335000Y-118657000D01*
X134335000Y-117055000D01*
X136937000Y-117055000D01*
X136937000Y-118657000D01*
X136937000Y-118657000D01*
G37*
G36*
X147351000Y-118657000D02*
X144749000Y-118657000D01*
X144749000Y-117055000D01*
X147351000Y-117055000D01*
X147351000Y-118657000D01*
X147351000Y-118657000D01*
G37*
G36*
X157765000Y-118657000D02*
X155163000Y-118657000D01*
X155163000Y-117055000D01*
X157765000Y-117055000D01*
X157765000Y-118657000D01*
X157765000Y-118657000D01*
G37*
G36*
X116355396Y-113639546D02*
X116528466Y-113711234D01*
X116684230Y-113815312D01*
X116816688Y-113947770D01*
X116920766Y-114103534D01*
X116992454Y-114276604D01*
X117029000Y-114460333D01*
X117029000Y-114647667D01*
X116992454Y-114831396D01*
X116920766Y-115004466D01*
X116816688Y-115160230D01*
X116684230Y-115292688D01*
X116528466Y-115396766D01*
X116355396Y-115468454D01*
X116171667Y-115505000D01*
X115984333Y-115505000D01*
X115800604Y-115468454D01*
X115627534Y-115396766D01*
X115471770Y-115292688D01*
X115339312Y-115160230D01*
X115235234Y-115004466D01*
X115163546Y-114831396D01*
X115127000Y-114647667D01*
X115127000Y-114460333D01*
X115163546Y-114276604D01*
X115235234Y-114103534D01*
X115339312Y-113947770D01*
X115471770Y-113815312D01*
X115627534Y-113711234D01*
X115800604Y-113639546D01*
X115984333Y-113603000D01*
X116171667Y-113603000D01*
X116355396Y-113639546D01*
X116355396Y-113639546D01*
G37*
G36*
X118855396Y-113639546D02*
X119028466Y-113711234D01*
X119184230Y-113815312D01*
X119316688Y-113947770D01*
X119420766Y-114103534D01*
X119492454Y-114276604D01*
X119529000Y-114460333D01*
X119529000Y-114647667D01*
X119492454Y-114831396D01*
X119420766Y-115004466D01*
X119316688Y-115160230D01*
X119184230Y-115292688D01*
X119028466Y-115396766D01*
X118855396Y-115468454D01*
X118671667Y-115505000D01*
X118484333Y-115505000D01*
X118300604Y-115468454D01*
X118127534Y-115396766D01*
X117971770Y-115292688D01*
X117839312Y-115160230D01*
X117735234Y-115004466D01*
X117663546Y-114831396D01*
X117627000Y-114647667D01*
X117627000Y-114460333D01*
X117663546Y-114276604D01*
X117735234Y-114103534D01*
X117839312Y-113947770D01*
X117971770Y-113815312D01*
X118127534Y-113711234D01*
X118300604Y-113639546D01*
X118484333Y-113603000D01*
X118671667Y-113603000D01*
X118855396Y-113639546D01*
X118855396Y-113639546D01*
G37*
G36*
X121355396Y-113639546D02*
X121528466Y-113711234D01*
X121684230Y-113815312D01*
X121816688Y-113947770D01*
X121920766Y-114103534D01*
X121992454Y-114276604D01*
X122029000Y-114460333D01*
X122029000Y-114647667D01*
X121992454Y-114831396D01*
X121920766Y-115004466D01*
X121816688Y-115160230D01*
X121684230Y-115292688D01*
X121528466Y-115396766D01*
X121355396Y-115468454D01*
X121171667Y-115505000D01*
X120984333Y-115505000D01*
X120800604Y-115468454D01*
X120627534Y-115396766D01*
X120471770Y-115292688D01*
X120339312Y-115160230D01*
X120235234Y-115004466D01*
X120163546Y-114831396D01*
X120127000Y-114647667D01*
X120127000Y-114460333D01*
X120163546Y-114276604D01*
X120235234Y-114103534D01*
X120339312Y-113947770D01*
X120471770Y-113815312D01*
X120627534Y-113711234D01*
X120800604Y-113639546D01*
X120984333Y-113603000D01*
X121171667Y-113603000D01*
X121355396Y-113639546D01*
X121355396Y-113639546D01*
G37*
G36*
X155391396Y-113639546D02*
X155564466Y-113711234D01*
X155720230Y-113815312D01*
X155852688Y-113947770D01*
X155956766Y-114103534D01*
X156028454Y-114276604D01*
X156065000Y-114460333D01*
X156065000Y-114647667D01*
X156028454Y-114831396D01*
X155956766Y-115004466D01*
X155852688Y-115160230D01*
X155720230Y-115292688D01*
X155564466Y-115396766D01*
X155391396Y-115468454D01*
X155207667Y-115505000D01*
X155020333Y-115505000D01*
X154836604Y-115468454D01*
X154663534Y-115396766D01*
X154507770Y-115292688D01*
X154375312Y-115160230D01*
X154271234Y-115004466D01*
X154199546Y-114831396D01*
X154163000Y-114647667D01*
X154163000Y-114460333D01*
X154199546Y-114276604D01*
X154271234Y-114103534D01*
X154375312Y-113947770D01*
X154507770Y-113815312D01*
X154663534Y-113711234D01*
X154836604Y-113639546D01*
X155020333Y-113603000D01*
X155207667Y-113603000D01*
X155391396Y-113639546D01*
X155391396Y-113639546D01*
G37*
G36*
X150391396Y-113639546D02*
X150564466Y-113711234D01*
X150720230Y-113815312D01*
X150852688Y-113947770D01*
X150956766Y-114103534D01*
X151028454Y-114276604D01*
X151065000Y-114460333D01*
X151065000Y-114647667D01*
X151028454Y-114831396D01*
X150956766Y-115004466D01*
X150852688Y-115160230D01*
X150720230Y-115292688D01*
X150564466Y-115396766D01*
X150391396Y-115468454D01*
X150207667Y-115505000D01*
X150020333Y-115505000D01*
X149836604Y-115468454D01*
X149663534Y-115396766D01*
X149507770Y-115292688D01*
X149375312Y-115160230D01*
X149271234Y-115004466D01*
X149199546Y-114831396D01*
X149163000Y-114647667D01*
X149163000Y-114460333D01*
X149199546Y-114276604D01*
X149271234Y-114103534D01*
X149375312Y-113947770D01*
X149507770Y-113815312D01*
X149663534Y-113711234D01*
X149836604Y-113639546D01*
X150020333Y-113603000D01*
X150207667Y-113603000D01*
X150391396Y-113639546D01*
X150391396Y-113639546D01*
G37*
G36*
X152891396Y-113639546D02*
X153064466Y-113711234D01*
X153220230Y-113815312D01*
X153352688Y-113947770D01*
X153456766Y-114103534D01*
X153528454Y-114276604D01*
X153565000Y-114460333D01*
X153565000Y-114647667D01*
X153528454Y-114831396D01*
X153456766Y-115004466D01*
X153352688Y-115160230D01*
X153220230Y-115292688D01*
X153064466Y-115396766D01*
X152891396Y-115468454D01*
X152707667Y-115505000D01*
X152520333Y-115505000D01*
X152336604Y-115468454D01*
X152163534Y-115396766D01*
X152007770Y-115292688D01*
X151875312Y-115160230D01*
X151771234Y-115004466D01*
X151699546Y-114831396D01*
X151663000Y-114647667D01*
X151663000Y-114460333D01*
X151699546Y-114276604D01*
X151771234Y-114103534D01*
X151875312Y-113947770D01*
X152007770Y-113815312D01*
X152163534Y-113711234D01*
X152336604Y-113639546D01*
X152520333Y-113603000D01*
X152707667Y-113603000D01*
X152891396Y-113639546D01*
X152891396Y-113639546D01*
G37*
G36*
X142017000Y-114847000D02*
X139415000Y-114847000D01*
X139415000Y-113245000D01*
X142017000Y-113245000D01*
X142017000Y-114847000D01*
X142017000Y-114847000D01*
G37*
G36*
X131603000Y-114847000D02*
X129001000Y-114847000D01*
X129001000Y-113245000D01*
X131603000Y-113245000D01*
X131603000Y-114847000D01*
X131603000Y-114847000D01*
G37*
G36*
X117858938Y-112153716D02*
X117879556Y-112159970D01*
X117898556Y-112170126D01*
X117915208Y-112183792D01*
X117928874Y-112200444D01*
X117939030Y-112219444D01*
X117945284Y-112240062D01*
X117948000Y-112267640D01*
X117948000Y-112776360D01*
X117945284Y-112803938D01*
X117939030Y-112824556D01*
X117928874Y-112843556D01*
X117915208Y-112860208D01*
X117898556Y-112873874D01*
X117879556Y-112884030D01*
X117858938Y-112890284D01*
X117831360Y-112893000D01*
X117372640Y-112893000D01*
X117345062Y-112890284D01*
X117324444Y-112884030D01*
X117305444Y-112873874D01*
X117288792Y-112860208D01*
X117275126Y-112843556D01*
X117264970Y-112824556D01*
X117258716Y-112803938D01*
X117256000Y-112776360D01*
X117256000Y-112267640D01*
X117258716Y-112240062D01*
X117264970Y-112219444D01*
X117275126Y-112200444D01*
X117288792Y-112183792D01*
X117305444Y-112170126D01*
X117324444Y-112159970D01*
X117345062Y-112153716D01*
X117372640Y-112151000D01*
X117831360Y-112151000D01*
X117858938Y-112153716D01*
X117858938Y-112153716D01*
G37*
G36*
X118828938Y-112153716D02*
X118849556Y-112159970D01*
X118868556Y-112170126D01*
X118885208Y-112183792D01*
X118898874Y-112200444D01*
X118909030Y-112219444D01*
X118915284Y-112240062D01*
X118918000Y-112267640D01*
X118918000Y-112776360D01*
X118915284Y-112803938D01*
X118909030Y-112824556D01*
X118898874Y-112843556D01*
X118885208Y-112860208D01*
X118868556Y-112873874D01*
X118849556Y-112884030D01*
X118828938Y-112890284D01*
X118801360Y-112893000D01*
X118342640Y-112893000D01*
X118315062Y-112890284D01*
X118294444Y-112884030D01*
X118275444Y-112873874D01*
X118258792Y-112860208D01*
X118245126Y-112843556D01*
X118234970Y-112824556D01*
X118228716Y-112803938D01*
X118226000Y-112776360D01*
X118226000Y-112267640D01*
X118228716Y-112240062D01*
X118234970Y-112219444D01*
X118245126Y-112200444D01*
X118258792Y-112183792D01*
X118275444Y-112170126D01*
X118294444Y-112159970D01*
X118315062Y-112153716D01*
X118342640Y-112151000D01*
X118801360Y-112151000D01*
X118828938Y-112153716D01*
X118828938Y-112153716D01*
G37*
G36*
X152956938Y-111899716D02*
X152977556Y-111905970D01*
X152996556Y-111916126D01*
X153013208Y-111929792D01*
X153026874Y-111946444D01*
X153037030Y-111965444D01*
X153043284Y-111986062D01*
X153046000Y-112013640D01*
X153046000Y-112522360D01*
X153043284Y-112549938D01*
X153037030Y-112570556D01*
X153026874Y-112589556D01*
X153013208Y-112606208D01*
X152996556Y-112619874D01*
X152977556Y-112630030D01*
X152956938Y-112636284D01*
X152929360Y-112639000D01*
X152470640Y-112639000D01*
X152443062Y-112636284D01*
X152422444Y-112630030D01*
X152403444Y-112619874D01*
X152386792Y-112606208D01*
X152373126Y-112589556D01*
X152362970Y-112570556D01*
X152356716Y-112549938D01*
X152354000Y-112522360D01*
X152354000Y-112013640D01*
X152356716Y-111986062D01*
X152362970Y-111965444D01*
X152373126Y-111946444D01*
X152386792Y-111929792D01*
X152403444Y-111916126D01*
X152422444Y-111905970D01*
X152443062Y-111899716D01*
X152470640Y-111897000D01*
X152929360Y-111897000D01*
X152956938Y-111899716D01*
X152956938Y-111899716D01*
G37*
G36*
X153926938Y-111899716D02*
X153947556Y-111905970D01*
X153966556Y-111916126D01*
X153983208Y-111929792D01*
X153996874Y-111946444D01*
X154007030Y-111965444D01*
X154013284Y-111986062D01*
X154016000Y-112013640D01*
X154016000Y-112522360D01*
X154013284Y-112549938D01*
X154007030Y-112570556D01*
X153996874Y-112589556D01*
X153983208Y-112606208D01*
X153966556Y-112619874D01*
X153947556Y-112630030D01*
X153926938Y-112636284D01*
X153899360Y-112639000D01*
X153440640Y-112639000D01*
X153413062Y-112636284D01*
X153392444Y-112630030D01*
X153373444Y-112619874D01*
X153356792Y-112606208D01*
X153343126Y-112589556D01*
X153332970Y-112570556D01*
X153326716Y-112549938D01*
X153324000Y-112522360D01*
X153324000Y-112013640D01*
X153326716Y-111986062D01*
X153332970Y-111965444D01*
X153343126Y-111946444D01*
X153356792Y-111929792D01*
X153373444Y-111916126D01*
X153392444Y-111905970D01*
X153413062Y-111899716D01*
X153440640Y-111897000D01*
X153899360Y-111897000D01*
X153926938Y-111899716D01*
X153926938Y-111899716D01*
G37*
G36*
X129063000Y-112307000D02*
X126461000Y-112307000D01*
X126461000Y-110705000D01*
X129063000Y-110705000D01*
X129063000Y-112307000D01*
X129063000Y-112307000D01*
G37*
G36*
X139477000Y-112307000D02*
X136875000Y-112307000D01*
X136875000Y-110705000D01*
X139477000Y-110705000D01*
X139477000Y-112307000D01*
X139477000Y-112307000D01*
G37*
G36*
X144557000Y-110783000D02*
X141955000Y-110783000D01*
X141955000Y-109181000D01*
X144557000Y-109181000D01*
X144557000Y-110783000D01*
X144557000Y-110783000D01*
G37*
G36*
X134143000Y-110783000D02*
X131541000Y-110783000D01*
X131541000Y-109181000D01*
X134143000Y-109181000D01*
X134143000Y-110783000D01*
X134143000Y-110783000D01*
G37*
G36*
X157612252Y-105581818D02*
X157612254Y-105581819D01*
X157612255Y-105581819D01*
X157985513Y-105736427D01*
X157985514Y-105736428D01*
X158321439Y-105960886D01*
X158607114Y-106246561D01*
X158607116Y-106246564D01*
X158831573Y-106582487D01*
X158986181Y-106955745D01*
X159065000Y-107351994D01*
X159065000Y-107756006D01*
X158986181Y-108152255D01*
X158831573Y-108525513D01*
X158831572Y-108525514D01*
X158607114Y-108861439D01*
X158321439Y-109147114D01*
X158321436Y-109147116D01*
X157985513Y-109371573D01*
X157612255Y-109526181D01*
X157612254Y-109526181D01*
X157612252Y-109526182D01*
X157216007Y-109605000D01*
X156811993Y-109605000D01*
X156415748Y-109526182D01*
X156415746Y-109526181D01*
X156415745Y-109526181D01*
X156042487Y-109371573D01*
X155706564Y-109147116D01*
X155706561Y-109147114D01*
X155420886Y-108861439D01*
X155196428Y-108525514D01*
X155196427Y-108525513D01*
X155041819Y-108152255D01*
X154963000Y-107756006D01*
X154963000Y-107351994D01*
X155041819Y-106955745D01*
X155196427Y-106582487D01*
X155420884Y-106246564D01*
X155420886Y-106246561D01*
X155706561Y-105960886D01*
X156042486Y-105736428D01*
X156042487Y-105736427D01*
X156415745Y-105581819D01*
X156415746Y-105581819D01*
X156415748Y-105581818D01*
X156811993Y-105503000D01*
X157216007Y-105503000D01*
X157612252Y-105581818D01*
X157612252Y-105581818D01*
G37*
G36*
X148812252Y-105581818D02*
X148812254Y-105581819D01*
X148812255Y-105581819D01*
X149185513Y-105736427D01*
X149185514Y-105736428D01*
X149521439Y-105960886D01*
X149807114Y-106246561D01*
X149807116Y-106246564D01*
X150031573Y-106582487D01*
X150186181Y-106955745D01*
X150265000Y-107351994D01*
X150265000Y-107756006D01*
X150186181Y-108152255D01*
X150031573Y-108525513D01*
X150031572Y-108525514D01*
X149807114Y-108861439D01*
X149521439Y-109147114D01*
X149521436Y-109147116D01*
X149185513Y-109371573D01*
X148812255Y-109526181D01*
X148812254Y-109526181D01*
X148812252Y-109526182D01*
X148416007Y-109605000D01*
X148011993Y-109605000D01*
X147615748Y-109526182D01*
X147615746Y-109526181D01*
X147615745Y-109526181D01*
X147242487Y-109371573D01*
X146906564Y-109147116D01*
X146906561Y-109147114D01*
X146620886Y-108861439D01*
X146396428Y-108525514D01*
X146396427Y-108525513D01*
X146241819Y-108152255D01*
X146163000Y-107756006D01*
X146163000Y-107351994D01*
X146241819Y-106955745D01*
X146396427Y-106582487D01*
X146620884Y-106246564D01*
X146620886Y-106246561D01*
X146906561Y-105960886D01*
X147242486Y-105736428D01*
X147242487Y-105736427D01*
X147615745Y-105581819D01*
X147615746Y-105581819D01*
X147615748Y-105581818D01*
X148011993Y-105503000D01*
X148416007Y-105503000D01*
X148812252Y-105581818D01*
X148812252Y-105581818D01*
G37*
G36*
X114776252Y-105581818D02*
X114776254Y-105581819D01*
X114776255Y-105581819D01*
X115149513Y-105736427D01*
X115149514Y-105736428D01*
X115485439Y-105960886D01*
X115771114Y-106246561D01*
X115771116Y-106246564D01*
X115995573Y-106582487D01*
X116150181Y-106955745D01*
X116229000Y-107351994D01*
X116229000Y-107756006D01*
X116150181Y-108152255D01*
X115995573Y-108525513D01*
X115995572Y-108525514D01*
X115771114Y-108861439D01*
X115485439Y-109147114D01*
X115485436Y-109147116D01*
X115149513Y-109371573D01*
X114776255Y-109526181D01*
X114776254Y-109526181D01*
X114776252Y-109526182D01*
X114380007Y-109605000D01*
X113975993Y-109605000D01*
X113579748Y-109526182D01*
X113579746Y-109526181D01*
X113579745Y-109526181D01*
X113206487Y-109371573D01*
X112870564Y-109147116D01*
X112870561Y-109147114D01*
X112584886Y-108861439D01*
X112360428Y-108525514D01*
X112360427Y-108525513D01*
X112205819Y-108152255D01*
X112127000Y-107756006D01*
X112127000Y-107351994D01*
X112205819Y-106955745D01*
X112360427Y-106582487D01*
X112584884Y-106246564D01*
X112584886Y-106246561D01*
X112870561Y-105960886D01*
X113206486Y-105736428D01*
X113206487Y-105736427D01*
X113579745Y-105581819D01*
X113579746Y-105581819D01*
X113579748Y-105581818D01*
X113975993Y-105503000D01*
X114380007Y-105503000D01*
X114776252Y-105581818D01*
X114776252Y-105581818D01*
G37*
G36*
X123576252Y-105581818D02*
X123576254Y-105581819D01*
X123576255Y-105581819D01*
X123949513Y-105736427D01*
X123949514Y-105736428D01*
X124285439Y-105960886D01*
X124571114Y-106246561D01*
X124571116Y-106246564D01*
X124795573Y-106582487D01*
X124950181Y-106955745D01*
X125029000Y-107351994D01*
X125029000Y-107756006D01*
X124950181Y-108152255D01*
X124795573Y-108525513D01*
X124795572Y-108525514D01*
X124571114Y-108861439D01*
X124285439Y-109147114D01*
X124285436Y-109147116D01*
X123949513Y-109371573D01*
X123576255Y-109526181D01*
X123576254Y-109526181D01*
X123576252Y-109526182D01*
X123180007Y-109605000D01*
X122775993Y-109605000D01*
X122379748Y-109526182D01*
X122379746Y-109526181D01*
X122379745Y-109526181D01*
X122006487Y-109371573D01*
X121670564Y-109147116D01*
X121670561Y-109147114D01*
X121384886Y-108861439D01*
X121160428Y-108525514D01*
X121160427Y-108525513D01*
X121005819Y-108152255D01*
X120927000Y-107756006D01*
X120927000Y-107351994D01*
X121005819Y-106955745D01*
X121160427Y-106582487D01*
X121384884Y-106246564D01*
X121384886Y-106246561D01*
X121670561Y-105960886D01*
X122006486Y-105736428D01*
X122006487Y-105736427D01*
X122379745Y-105581819D01*
X122379746Y-105581819D01*
X122379748Y-105581818D01*
X122775993Y-105503000D01*
X123180007Y-105503000D01*
X123576252Y-105581818D01*
X123576252Y-105581818D01*
G37*
G36*
X142017000Y-107227000D02*
X139415000Y-107227000D01*
X139415000Y-105625000D01*
X142017000Y-105625000D01*
X142017000Y-107227000D01*
X142017000Y-107227000D01*
G37*
G36*
X131603000Y-107227000D02*
X129001000Y-107227000D01*
X129001000Y-105625000D01*
X131603000Y-105625000D01*
X131603000Y-107227000D01*
X131603000Y-107227000D01*
G37*
G36*
X111659811Y-103528105D02*
X111698867Y-103539953D01*
X111734863Y-103559193D01*
X111766414Y-103585086D01*
X111792307Y-103616637D01*
X111811547Y-103652633D01*
X111823395Y-103691689D01*
X111828000Y-103738449D01*
X111828000Y-104535551D01*
X111823395Y-104582311D01*
X111811547Y-104621367D01*
X111792307Y-104657363D01*
X111766414Y-104688914D01*
X111734863Y-104714807D01*
X111698867Y-104734047D01*
X111659811Y-104745895D01*
X111613051Y-104750500D01*
X110890949Y-104750500D01*
X110844189Y-104745895D01*
X110805133Y-104734047D01*
X110769137Y-104714807D01*
X110737586Y-104688914D01*
X110711693Y-104657363D01*
X110692453Y-104621367D01*
X110680605Y-104582311D01*
X110676000Y-104535551D01*
X110676000Y-103738449D01*
X110680605Y-103691689D01*
X110692453Y-103652633D01*
X110711693Y-103616637D01*
X110737586Y-103585086D01*
X110769137Y-103559193D01*
X110805133Y-103539953D01*
X110844189Y-103528105D01*
X110890949Y-103523500D01*
X111613051Y-103523500D01*
X111659811Y-103528105D01*
X111659811Y-103528105D01*
G37*
G36*
X142267938Y-104027716D02*
X142288556Y-104033970D01*
X142307556Y-104044126D01*
X142324208Y-104057792D01*
X142337874Y-104074444D01*
X142348030Y-104093444D01*
X142354284Y-104114062D01*
X142357000Y-104141640D01*
X142357000Y-104600360D01*
X142354284Y-104627938D01*
X142348030Y-104648556D01*
X142337874Y-104667556D01*
X142324208Y-104684208D01*
X142307556Y-104697874D01*
X142288556Y-104708030D01*
X142267938Y-104714284D01*
X142240360Y-104717000D01*
X141731640Y-104717000D01*
X141704062Y-104714284D01*
X141683444Y-104708030D01*
X141664444Y-104697874D01*
X141647792Y-104684208D01*
X141634126Y-104667556D01*
X141623970Y-104648556D01*
X141617716Y-104627938D01*
X141615000Y-104600360D01*
X141615000Y-104141640D01*
X141617716Y-104114062D01*
X141623970Y-104093444D01*
X141634126Y-104074444D01*
X141647792Y-104057792D01*
X141664444Y-104044126D01*
X141683444Y-104033970D01*
X141704062Y-104027716D01*
X141731640Y-104025000D01*
X142240360Y-104025000D01*
X142267938Y-104027716D01*
X142267938Y-104027716D01*
G37*
G36*
X127789938Y-104004716D02*
X127810556Y-104010970D01*
X127829556Y-104021126D01*
X127846208Y-104034792D01*
X127859874Y-104051444D01*
X127870030Y-104070444D01*
X127876284Y-104091062D01*
X127879000Y-104118640D01*
X127879000Y-104577360D01*
X127876284Y-104604938D01*
X127870030Y-104625556D01*
X127859874Y-104644556D01*
X127846208Y-104661208D01*
X127829556Y-104674874D01*
X127810556Y-104685030D01*
X127789938Y-104691284D01*
X127762360Y-104694000D01*
X127253640Y-104694000D01*
X127226062Y-104691284D01*
X127205444Y-104685030D01*
X127186444Y-104674874D01*
X127169792Y-104661208D01*
X127156126Y-104644556D01*
X127145970Y-104625556D01*
X127139716Y-104604938D01*
X127137000Y-104577360D01*
X127137000Y-104118640D01*
X127139716Y-104091062D01*
X127145970Y-104070444D01*
X127156126Y-104051444D01*
X127169792Y-104034792D01*
X127186444Y-104021126D01*
X127205444Y-104010970D01*
X127226062Y-104004716D01*
X127253640Y-104002000D01*
X127762360Y-104002000D01*
X127789938Y-104004716D01*
X127789938Y-104004716D01*
G37*
G36*
X130329938Y-104004716D02*
X130350556Y-104010970D01*
X130369556Y-104021126D01*
X130386208Y-104034792D01*
X130399874Y-104051444D01*
X130410030Y-104070444D01*
X130416284Y-104091062D01*
X130419000Y-104118640D01*
X130419000Y-104577360D01*
X130416284Y-104604938D01*
X130410030Y-104625556D01*
X130399874Y-104644556D01*
X130386208Y-104661208D01*
X130369556Y-104674874D01*
X130350556Y-104685030D01*
X130329938Y-104691284D01*
X130302360Y-104694000D01*
X129793640Y-104694000D01*
X129766062Y-104691284D01*
X129745444Y-104685030D01*
X129726444Y-104674874D01*
X129709792Y-104661208D01*
X129696126Y-104644556D01*
X129685970Y-104625556D01*
X129679716Y-104604938D01*
X129677000Y-104577360D01*
X129677000Y-104118640D01*
X129679716Y-104091062D01*
X129685970Y-104070444D01*
X129696126Y-104051444D01*
X129709792Y-104034792D01*
X129726444Y-104021126D01*
X129745444Y-104010970D01*
X129766062Y-104004716D01*
X129793640Y-104002000D01*
X130302360Y-104002000D01*
X130329938Y-104004716D01*
X130329938Y-104004716D01*
G37*
G36*
X142267938Y-103057716D02*
X142288556Y-103063970D01*
X142307556Y-103074126D01*
X142324208Y-103087792D01*
X142337874Y-103104444D01*
X142348030Y-103123444D01*
X142354284Y-103144062D01*
X142357000Y-103171640D01*
X142357000Y-103630360D01*
X142354284Y-103657938D01*
X142348030Y-103678556D01*
X142337874Y-103697556D01*
X142324208Y-103714208D01*
X142307556Y-103727874D01*
X142288556Y-103738030D01*
X142267938Y-103744284D01*
X142240360Y-103747000D01*
X141731640Y-103747000D01*
X141704062Y-103744284D01*
X141683444Y-103738030D01*
X141664444Y-103727874D01*
X141647792Y-103714208D01*
X141634126Y-103697556D01*
X141623970Y-103678556D01*
X141617716Y-103657938D01*
X141615000Y-103630360D01*
X141615000Y-103171640D01*
X141617716Y-103144062D01*
X141623970Y-103123444D01*
X141634126Y-103104444D01*
X141647792Y-103087792D01*
X141664444Y-103074126D01*
X141683444Y-103063970D01*
X141704062Y-103057716D01*
X141731640Y-103055000D01*
X142240360Y-103055000D01*
X142267938Y-103057716D01*
X142267938Y-103057716D01*
G37*
G36*
X130329938Y-103034716D02*
X130350556Y-103040970D01*
X130369556Y-103051126D01*
X130386208Y-103064792D01*
X130399874Y-103081444D01*
X130410030Y-103100444D01*
X130416284Y-103121062D01*
X130419000Y-103148640D01*
X130419000Y-103607360D01*
X130416284Y-103634938D01*
X130410030Y-103655556D01*
X130399874Y-103674556D01*
X130386208Y-103691208D01*
X130369556Y-103704874D01*
X130350556Y-103715030D01*
X130329938Y-103721284D01*
X130302360Y-103724000D01*
X129793640Y-103724000D01*
X129766062Y-103721284D01*
X129745444Y-103715030D01*
X129726444Y-103704874D01*
X129709792Y-103691208D01*
X129696126Y-103674556D01*
X129685970Y-103655556D01*
X129679716Y-103634938D01*
X129677000Y-103607360D01*
X129677000Y-103148640D01*
X129679716Y-103121062D01*
X129685970Y-103100444D01*
X129696126Y-103081444D01*
X129709792Y-103064792D01*
X129726444Y-103051126D01*
X129745444Y-103040970D01*
X129766062Y-103034716D01*
X129793640Y-103032000D01*
X130302360Y-103032000D01*
X130329938Y-103034716D01*
X130329938Y-103034716D01*
G37*
G36*
X127789938Y-103034716D02*
X127810556Y-103040970D01*
X127829556Y-103051126D01*
X127846208Y-103064792D01*
X127859874Y-103081444D01*
X127870030Y-103100444D01*
X127876284Y-103121062D01*
X127879000Y-103148640D01*
X127879000Y-103607360D01*
X127876284Y-103634938D01*
X127870030Y-103655556D01*
X127859874Y-103674556D01*
X127846208Y-103691208D01*
X127829556Y-103704874D01*
X127810556Y-103715030D01*
X127789938Y-103721284D01*
X127762360Y-103724000D01*
X127253640Y-103724000D01*
X127226062Y-103721284D01*
X127205444Y-103715030D01*
X127186444Y-103704874D01*
X127169792Y-103691208D01*
X127156126Y-103674556D01*
X127145970Y-103655556D01*
X127139716Y-103634938D01*
X127137000Y-103607360D01*
X127137000Y-103148640D01*
X127139716Y-103121062D01*
X127145970Y-103100444D01*
X127156126Y-103081444D01*
X127169792Y-103064792D01*
X127186444Y-103051126D01*
X127205444Y-103040970D01*
X127226062Y-103034716D01*
X127253640Y-103032000D01*
X127762360Y-103032000D01*
X127789938Y-103034716D01*
X127789938Y-103034716D01*
G37*
G36*
X111659811Y-101753105D02*
X111698867Y-101764953D01*
X111734863Y-101784193D01*
X111766414Y-101810086D01*
X111792307Y-101841637D01*
X111811547Y-101877633D01*
X111823395Y-101916689D01*
X111828000Y-101963449D01*
X111828000Y-102760551D01*
X111823395Y-102807311D01*
X111811547Y-102846367D01*
X111792307Y-102882363D01*
X111766414Y-102913914D01*
X111734863Y-102939807D01*
X111698867Y-102959047D01*
X111659811Y-102970895D01*
X111613051Y-102975500D01*
X110890949Y-102975500D01*
X110844189Y-102970895D01*
X110805133Y-102959047D01*
X110769137Y-102939807D01*
X110737586Y-102913914D01*
X110711693Y-102882363D01*
X110692453Y-102846367D01*
X110680605Y-102807311D01*
X110676000Y-102760551D01*
X110676000Y-101963449D01*
X110680605Y-101916689D01*
X110692453Y-101877633D01*
X110711693Y-101841637D01*
X110737586Y-101810086D01*
X110769137Y-101784193D01*
X110805133Y-101764953D01*
X110844189Y-101753105D01*
X110890949Y-101748500D01*
X111613051Y-101748500D01*
X111659811Y-101753105D01*
X111659811Y-101753105D01*
G37*
G36*
X136146938Y-101993716D02*
X136167556Y-101999970D01*
X136186556Y-102010126D01*
X136203208Y-102023792D01*
X136216874Y-102040444D01*
X136227030Y-102059444D01*
X136233284Y-102080062D01*
X136236000Y-102107640D01*
X136236000Y-102616360D01*
X136233284Y-102643938D01*
X136227030Y-102664556D01*
X136216874Y-102683556D01*
X136203208Y-102700208D01*
X136186556Y-102713874D01*
X136167556Y-102724030D01*
X136146938Y-102730284D01*
X136119360Y-102733000D01*
X135660640Y-102733000D01*
X135633062Y-102730284D01*
X135612444Y-102724030D01*
X135593444Y-102713874D01*
X135576792Y-102700208D01*
X135563126Y-102683556D01*
X135552970Y-102664556D01*
X135546716Y-102643938D01*
X135544000Y-102616360D01*
X135544000Y-102107640D01*
X135546716Y-102080062D01*
X135552970Y-102059444D01*
X135563126Y-102040444D01*
X135576792Y-102023792D01*
X135593444Y-102010126D01*
X135612444Y-101999970D01*
X135633062Y-101993716D01*
X135660640Y-101991000D01*
X136119360Y-101991000D01*
X136146938Y-101993716D01*
X136146938Y-101993716D01*
G37*
G36*
X135176938Y-101993716D02*
X135197556Y-101999970D01*
X135216556Y-102010126D01*
X135233208Y-102023792D01*
X135246874Y-102040444D01*
X135257030Y-102059444D01*
X135263284Y-102080062D01*
X135266000Y-102107640D01*
X135266000Y-102616360D01*
X135263284Y-102643938D01*
X135257030Y-102664556D01*
X135246874Y-102683556D01*
X135233208Y-102700208D01*
X135216556Y-102713874D01*
X135197556Y-102724030D01*
X135176938Y-102730284D01*
X135149360Y-102733000D01*
X134690640Y-102733000D01*
X134663062Y-102730284D01*
X134642444Y-102724030D01*
X134623444Y-102713874D01*
X134606792Y-102700208D01*
X134593126Y-102683556D01*
X134582970Y-102664556D01*
X134576716Y-102643938D01*
X134574000Y-102616360D01*
X134574000Y-102107640D01*
X134576716Y-102080062D01*
X134582970Y-102059444D01*
X134593126Y-102040444D01*
X134606792Y-102023792D01*
X134623444Y-102010126D01*
X134642444Y-101999970D01*
X134663062Y-101993716D01*
X134690640Y-101991000D01*
X135149360Y-101991000D01*
X135176938Y-101993716D01*
X135176938Y-101993716D01*
G37*
G36*
X161755996Y-99737051D02*
X161789653Y-99747261D01*
X161820667Y-99763838D01*
X161847852Y-99786148D01*
X161870162Y-99813333D01*
X161886739Y-99844347D01*
X161896949Y-99878004D01*
X161901000Y-99919138D01*
X161901000Y-101248862D01*
X161896949Y-101289996D01*
X161886739Y-101323653D01*
X161870162Y-101354667D01*
X161847852Y-101381852D01*
X161820667Y-101404162D01*
X161789653Y-101420739D01*
X161755996Y-101430949D01*
X161714862Y-101435000D01*
X159385138Y-101435000D01*
X159344004Y-101430949D01*
X159310347Y-101420739D01*
X159279333Y-101404162D01*
X159252148Y-101381852D01*
X159229838Y-101354667D01*
X159213261Y-101323653D01*
X159203051Y-101289996D01*
X159199000Y-101248862D01*
X159199000Y-99919138D01*
X159203051Y-99878004D01*
X159213261Y-99844347D01*
X159229838Y-99813333D01*
X159252148Y-99786148D01*
X159279333Y-99763838D01*
X159310347Y-99747261D01*
X159344004Y-99737051D01*
X159385138Y-99733000D01*
X161714862Y-99733000D01*
X161755996Y-99737051D01*
X161755996Y-99737051D01*
G37*
G36*
X158155996Y-99737051D02*
X158189653Y-99747261D01*
X158220667Y-99763838D01*
X158247852Y-99786148D01*
X158270162Y-99813333D01*
X158286739Y-99844347D01*
X158296949Y-99878004D01*
X158301000Y-99919138D01*
X158301000Y-101248862D01*
X158296949Y-101289996D01*
X158286739Y-101323653D01*
X158270162Y-101354667D01*
X158247852Y-101381852D01*
X158220667Y-101404162D01*
X158189653Y-101420739D01*
X158155996Y-101430949D01*
X158114862Y-101435000D01*
X155785138Y-101435000D01*
X155744004Y-101430949D01*
X155710347Y-101420739D01*
X155679333Y-101404162D01*
X155652148Y-101381852D01*
X155629838Y-101354667D01*
X155613261Y-101323653D01*
X155603051Y-101289996D01*
X155599000Y-101248862D01*
X155599000Y-99919138D01*
X155603051Y-99878004D01*
X155613261Y-99844347D01*
X155629838Y-99813333D01*
X155652148Y-99786148D01*
X155679333Y-99763838D01*
X155710347Y-99747261D01*
X155744004Y-99737051D01*
X155785138Y-99733000D01*
X158114862Y-99733000D01*
X158155996Y-99737051D01*
X158155996Y-99737051D01*
G37*
G36*
X135619396Y-99161546D02*
X135792466Y-99233234D01*
X135948230Y-99337312D01*
X136080688Y-99469770D01*
X136184766Y-99625534D01*
X136256454Y-99798604D01*
X136293000Y-99982333D01*
X136293000Y-100169667D01*
X136256454Y-100353396D01*
X136184766Y-100526466D01*
X136080688Y-100682230D01*
X135948230Y-100814688D01*
X135792466Y-100918766D01*
X135619396Y-100990454D01*
X135435667Y-101027000D01*
X135248333Y-101027000D01*
X135064604Y-100990454D01*
X134891534Y-100918766D01*
X134735770Y-100814688D01*
X134603312Y-100682230D01*
X134499234Y-100526466D01*
X134427546Y-100353396D01*
X134391000Y-100169667D01*
X134391000Y-99982333D01*
X134427546Y-99798604D01*
X134499234Y-99625534D01*
X134603312Y-99469770D01*
X134735770Y-99337312D01*
X134891534Y-99233234D01*
X135064604Y-99161546D01*
X135248333Y-99125000D01*
X135435667Y-99125000D01*
X135619396Y-99161546D01*
X135619396Y-99161546D01*
G37*
G36*
X122411396Y-99161546D02*
X122584466Y-99233234D01*
X122740230Y-99337312D01*
X122872688Y-99469770D01*
X122976766Y-99625534D01*
X123048454Y-99798604D01*
X123085000Y-99982333D01*
X123085000Y-100169667D01*
X123048454Y-100353396D01*
X122976766Y-100526466D01*
X122872688Y-100682230D01*
X122740230Y-100814688D01*
X122584466Y-100918766D01*
X122411396Y-100990454D01*
X122227667Y-101027000D01*
X122040333Y-101027000D01*
X121856604Y-100990454D01*
X121683534Y-100918766D01*
X121527770Y-100814688D01*
X121395312Y-100682230D01*
X121291234Y-100526466D01*
X121219546Y-100353396D01*
X121183000Y-100169667D01*
X121183000Y-99982333D01*
X121219546Y-99798604D01*
X121291234Y-99625534D01*
X121395312Y-99469770D01*
X121527770Y-99337312D01*
X121683534Y-99233234D01*
X121856604Y-99161546D01*
X122040333Y-99125000D01*
X122227667Y-99125000D01*
X122411396Y-99161546D01*
X122411396Y-99161546D01*
G37*
G36*
X119911396Y-99161546D02*
X120084466Y-99233234D01*
X120240230Y-99337312D01*
X120372688Y-99469770D01*
X120476766Y-99625534D01*
X120548454Y-99798604D01*
X120585000Y-99982333D01*
X120585000Y-100169667D01*
X120548454Y-100353396D01*
X120476766Y-100526466D01*
X120372688Y-100682230D01*
X120240230Y-100814688D01*
X120084466Y-100918766D01*
X119911396Y-100990454D01*
X119727667Y-101027000D01*
X119540333Y-101027000D01*
X119356604Y-100990454D01*
X119183534Y-100918766D01*
X119027770Y-100814688D01*
X118895312Y-100682230D01*
X118791234Y-100526466D01*
X118719546Y-100353396D01*
X118683000Y-100169667D01*
X118683000Y-99982333D01*
X118719546Y-99798604D01*
X118791234Y-99625534D01*
X118895312Y-99469770D01*
X119027770Y-99337312D01*
X119183534Y-99233234D01*
X119356604Y-99161546D01*
X119540333Y-99125000D01*
X119727667Y-99125000D01*
X119911396Y-99161546D01*
X119911396Y-99161546D01*
G37*
G36*
X133119396Y-99161546D02*
X133292466Y-99233234D01*
X133448230Y-99337312D01*
X133580688Y-99469770D01*
X133684766Y-99625534D01*
X133756454Y-99798604D01*
X133793000Y-99982333D01*
X133793000Y-100169667D01*
X133756454Y-100353396D01*
X133684766Y-100526466D01*
X133580688Y-100682230D01*
X133448230Y-100814688D01*
X133292466Y-100918766D01*
X133119396Y-100990454D01*
X132935667Y-101027000D01*
X132748333Y-101027000D01*
X132564604Y-100990454D01*
X132391534Y-100918766D01*
X132235770Y-100814688D01*
X132103312Y-100682230D01*
X131999234Y-100526466D01*
X131927546Y-100353396D01*
X131891000Y-100169667D01*
X131891000Y-99982333D01*
X131927546Y-99798604D01*
X131999234Y-99625534D01*
X132103312Y-99469770D01*
X132235770Y-99337312D01*
X132391534Y-99233234D01*
X132564604Y-99161546D01*
X132748333Y-99125000D01*
X132935667Y-99125000D01*
X133119396Y-99161546D01*
X133119396Y-99161546D01*
G37*
G36*
X146327396Y-99161546D02*
X146500466Y-99233234D01*
X146656230Y-99337312D01*
X146788688Y-99469770D01*
X146892766Y-99625534D01*
X146964454Y-99798604D01*
X147001000Y-99982333D01*
X147001000Y-100169667D01*
X146964454Y-100353396D01*
X146892766Y-100526466D01*
X146788688Y-100682230D01*
X146656230Y-100814688D01*
X146500466Y-100918766D01*
X146327396Y-100990454D01*
X146143667Y-101027000D01*
X145956333Y-101027000D01*
X145772604Y-100990454D01*
X145599534Y-100918766D01*
X145443770Y-100814688D01*
X145311312Y-100682230D01*
X145207234Y-100526466D01*
X145135546Y-100353396D01*
X145099000Y-100169667D01*
X145099000Y-99982333D01*
X145135546Y-99798604D01*
X145207234Y-99625534D01*
X145311312Y-99469770D01*
X145443770Y-99337312D01*
X145599534Y-99233234D01*
X145772604Y-99161546D01*
X145956333Y-99125000D01*
X146143667Y-99125000D01*
X146327396Y-99161546D01*
X146327396Y-99161546D01*
G37*
G36*
X148827396Y-99161546D02*
X149000466Y-99233234D01*
X149156230Y-99337312D01*
X149288688Y-99469770D01*
X149392766Y-99625534D01*
X149464454Y-99798604D01*
X149501000Y-99982333D01*
X149501000Y-100169667D01*
X149464454Y-100353396D01*
X149392766Y-100526466D01*
X149288688Y-100682230D01*
X149156230Y-100814688D01*
X149000466Y-100918766D01*
X148827396Y-100990454D01*
X148643667Y-101027000D01*
X148456333Y-101027000D01*
X148272604Y-100990454D01*
X148099534Y-100918766D01*
X147943770Y-100814688D01*
X147811312Y-100682230D01*
X147707234Y-100526466D01*
X147635546Y-100353396D01*
X147599000Y-100169667D01*
X147599000Y-99982333D01*
X147635546Y-99798604D01*
X147707234Y-99625534D01*
X147811312Y-99469770D01*
X147943770Y-99337312D01*
X148099534Y-99233234D01*
X148272604Y-99161546D01*
X148456333Y-99125000D01*
X148643667Y-99125000D01*
X148827396Y-99161546D01*
X148827396Y-99161546D01*
G37*
G36*
X151327396Y-99161546D02*
X151500466Y-99233234D01*
X151656230Y-99337312D01*
X151788688Y-99469770D01*
X151892766Y-99625534D01*
X151964454Y-99798604D01*
X152001000Y-99982333D01*
X152001000Y-100169667D01*
X151964454Y-100353396D01*
X151892766Y-100526466D01*
X151788688Y-100682230D01*
X151656230Y-100814688D01*
X151500466Y-100918766D01*
X151327396Y-100990454D01*
X151143667Y-101027000D01*
X150956333Y-101027000D01*
X150772604Y-100990454D01*
X150599534Y-100918766D01*
X150443770Y-100814688D01*
X150311312Y-100682230D01*
X150207234Y-100526466D01*
X150135546Y-100353396D01*
X150099000Y-100169667D01*
X150099000Y-99982333D01*
X150135546Y-99798604D01*
X150207234Y-99625534D01*
X150311312Y-99469770D01*
X150443770Y-99337312D01*
X150599534Y-99233234D01*
X150772604Y-99161546D01*
X150956333Y-99125000D01*
X151143667Y-99125000D01*
X151327396Y-99161546D01*
X151327396Y-99161546D01*
G37*
G36*
X138119396Y-99161546D02*
X138292466Y-99233234D01*
X138448230Y-99337312D01*
X138580688Y-99469770D01*
X138684766Y-99625534D01*
X138756454Y-99798604D01*
X138793000Y-99982333D01*
X138793000Y-100169667D01*
X138756454Y-100353396D01*
X138684766Y-100526466D01*
X138580688Y-100682230D01*
X138448230Y-100814688D01*
X138292466Y-100918766D01*
X138119396Y-100990454D01*
X137935667Y-101027000D01*
X137748333Y-101027000D01*
X137564604Y-100990454D01*
X137391534Y-100918766D01*
X137235770Y-100814688D01*
X137103312Y-100682230D01*
X136999234Y-100526466D01*
X136927546Y-100353396D01*
X136891000Y-100169667D01*
X136891000Y-99982333D01*
X136927546Y-99798604D01*
X136999234Y-99625534D01*
X137103312Y-99469770D01*
X137235770Y-99337312D01*
X137391534Y-99233234D01*
X137564604Y-99161546D01*
X137748333Y-99125000D01*
X137935667Y-99125000D01*
X138119396Y-99161546D01*
X138119396Y-99161546D01*
G37*
G36*
X124911396Y-99161546D02*
X125084466Y-99233234D01*
X125240230Y-99337312D01*
X125372688Y-99469770D01*
X125476766Y-99625534D01*
X125548454Y-99798604D01*
X125585000Y-99982333D01*
X125585000Y-100169667D01*
X125548454Y-100353396D01*
X125476766Y-100526466D01*
X125372688Y-100682230D01*
X125240230Y-100814688D01*
X125084466Y-100918766D01*
X124911396Y-100990454D01*
X124727667Y-101027000D01*
X124540333Y-101027000D01*
X124356604Y-100990454D01*
X124183534Y-100918766D01*
X124027770Y-100814688D01*
X123895312Y-100682230D01*
X123791234Y-100526466D01*
X123719546Y-100353396D01*
X123683000Y-100169667D01*
X123683000Y-99982333D01*
X123719546Y-99798604D01*
X123791234Y-99625534D01*
X123895312Y-99469770D01*
X124027770Y-99337312D01*
X124183534Y-99233234D01*
X124356604Y-99161546D01*
X124540333Y-99125000D01*
X124727667Y-99125000D01*
X124911396Y-99161546D01*
X124911396Y-99161546D01*
G37*
G36*
X143368915Y-99283334D02*
X143477491Y-99316271D01*
X143577556Y-99369756D01*
X143665264Y-99441736D01*
X143737244Y-99529443D01*
X143790729Y-99629508D01*
X143823666Y-99738084D01*
X143832000Y-99822702D01*
X143832000Y-100329297D01*
X143823666Y-100413916D01*
X143790729Y-100522492D01*
X143737244Y-100622557D01*
X143665264Y-100710264D01*
X143577557Y-100782244D01*
X143477492Y-100835729D01*
X143368916Y-100868666D01*
X143256000Y-100879787D01*
X143143085Y-100868666D01*
X143034509Y-100835729D01*
X142934444Y-100782244D01*
X142846737Y-100710264D01*
X142774757Y-100622557D01*
X142767366Y-100608729D01*
X142731240Y-100541143D01*
X142717627Y-100520768D01*
X142700299Y-100503441D01*
X142679925Y-100489827D01*
X142657286Y-100480450D01*
X142633253Y-100475669D01*
X142608748Y-100475669D01*
X142584715Y-100480449D01*
X142562076Y-100489827D01*
X142541701Y-100503440D01*
X142524374Y-100520768D01*
X142510761Y-100541142D01*
X142467244Y-100622557D01*
X142395264Y-100710264D01*
X142307557Y-100782244D01*
X142207492Y-100835729D01*
X142098916Y-100868666D01*
X141986000Y-100879787D01*
X141873085Y-100868666D01*
X141764509Y-100835729D01*
X141664444Y-100782244D01*
X141576737Y-100710264D01*
X141513626Y-100633364D01*
X141496299Y-100616036D01*
X141475924Y-100602423D01*
X141453285Y-100593045D01*
X141429252Y-100588265D01*
X141404748Y-100588265D01*
X141380714Y-100593046D01*
X141358075Y-100602423D01*
X141337701Y-100616037D01*
X141320373Y-100633364D01*
X141306760Y-100653739D01*
X141297382Y-100676378D01*
X141292000Y-100712663D01*
X141292000Y-100877000D01*
X140140000Y-100877000D01*
X140140000Y-99275000D01*
X141292000Y-99275000D01*
X141292000Y-99439337D01*
X141294402Y-99463723D01*
X141301515Y-99487172D01*
X141313066Y-99508783D01*
X141328612Y-99527725D01*
X141347554Y-99543271D01*
X141369165Y-99554822D01*
X141392614Y-99561935D01*
X141417000Y-99564337D01*
X141441386Y-99561935D01*
X141464835Y-99554822D01*
X141486446Y-99543271D01*
X141513626Y-99518636D01*
X141545206Y-99480156D01*
X141576736Y-99441736D01*
X141664443Y-99369756D01*
X141764508Y-99316271D01*
X141873084Y-99283334D01*
X141986000Y-99272213D01*
X142098915Y-99283334D01*
X142207491Y-99316271D01*
X142307556Y-99369756D01*
X142395264Y-99441736D01*
X142467244Y-99529443D01*
X142510767Y-99610869D01*
X142524373Y-99631232D01*
X142541700Y-99648560D01*
X142562075Y-99662174D01*
X142584713Y-99671551D01*
X142608747Y-99676332D01*
X142633251Y-99676332D01*
X142657285Y-99671552D01*
X142679924Y-99662175D01*
X142700298Y-99648561D01*
X142717626Y-99631234D01*
X142731240Y-99610858D01*
X142774756Y-99529444D01*
X142815206Y-99480156D01*
X142846736Y-99441736D01*
X142934443Y-99369756D01*
X143034508Y-99316271D01*
X143143084Y-99283334D01*
X143256000Y-99272213D01*
X143368915Y-99283334D01*
X143368915Y-99283334D01*
G37*
G36*
X128890916Y-99283334D02*
X128999492Y-99316271D01*
X129099555Y-99369755D01*
X129099557Y-99369756D01*
X129187264Y-99441736D01*
X129250374Y-99518635D01*
X129267701Y-99535962D01*
X129288076Y-99549576D01*
X129310715Y-99558954D01*
X129334748Y-99563734D01*
X129359252Y-99563734D01*
X129383286Y-99558953D01*
X129405925Y-99549576D01*
X129426299Y-99535962D01*
X129443626Y-99518635D01*
X129457240Y-99498260D01*
X129466618Y-99475621D01*
X129472000Y-99439336D01*
X129472000Y-99275000D01*
X130624000Y-99275000D01*
X130624000Y-100877000D01*
X129472000Y-100877000D01*
X129472000Y-100712663D01*
X129469598Y-100688277D01*
X129462485Y-100664828D01*
X129450934Y-100643217D01*
X129435388Y-100624275D01*
X129416446Y-100608729D01*
X129394835Y-100597178D01*
X129371386Y-100590065D01*
X129347000Y-100587663D01*
X129322614Y-100590065D01*
X129299165Y-100597178D01*
X129277554Y-100608729D01*
X129250377Y-100633361D01*
X129187264Y-100710264D01*
X129099556Y-100782244D01*
X128999491Y-100835729D01*
X128890915Y-100868666D01*
X128778000Y-100879787D01*
X128665084Y-100868666D01*
X128556508Y-100835729D01*
X128456443Y-100782244D01*
X128368736Y-100710264D01*
X128296756Y-100622556D01*
X128253240Y-100541142D01*
X128239627Y-100520767D01*
X128222299Y-100503440D01*
X128201925Y-100489826D01*
X128179286Y-100480449D01*
X128155253Y-100475668D01*
X128130748Y-100475668D01*
X128106715Y-100480448D01*
X128084076Y-100489826D01*
X128063701Y-100503439D01*
X128046374Y-100520767D01*
X128032767Y-100541131D01*
X127989244Y-100622557D01*
X127917264Y-100710264D01*
X127829556Y-100782244D01*
X127729491Y-100835729D01*
X127620915Y-100868666D01*
X127508000Y-100879787D01*
X127395084Y-100868666D01*
X127286508Y-100835729D01*
X127186443Y-100782244D01*
X127098736Y-100710264D01*
X127026756Y-100622556D01*
X126973271Y-100522491D01*
X126940334Y-100413915D01*
X126932000Y-100329297D01*
X126932000Y-99822702D01*
X126940334Y-99738084D01*
X126973271Y-99629508D01*
X127008428Y-99563734D01*
X127026755Y-99529446D01*
X127026756Y-99529445D01*
X127026757Y-99529443D01*
X127098737Y-99441736D01*
X127186444Y-99369756D01*
X127286509Y-99316271D01*
X127395085Y-99283334D01*
X127508000Y-99272213D01*
X127620916Y-99283334D01*
X127729492Y-99316271D01*
X127829555Y-99369755D01*
X127829557Y-99369756D01*
X127917264Y-99441736D01*
X127989244Y-99529443D01*
X128032760Y-99610857D01*
X128046373Y-99631232D01*
X128063701Y-99648559D01*
X128084075Y-99662173D01*
X128106714Y-99671550D01*
X128130747Y-99676331D01*
X128155252Y-99676331D01*
X128179285Y-99671551D01*
X128201924Y-99662173D01*
X128222299Y-99648560D01*
X128239626Y-99631232D01*
X128253240Y-99610857D01*
X128296755Y-99529446D01*
X128296756Y-99529445D01*
X128296757Y-99529443D01*
X128368737Y-99441736D01*
X128456444Y-99369756D01*
X128556509Y-99316271D01*
X128665085Y-99283334D01*
X128778000Y-99272213D01*
X128890916Y-99283334D01*
X128890916Y-99283334D01*
G37*
G36*
X111362442Y-98673518D02*
X111428627Y-98680037D01*
X111541853Y-98714384D01*
X111598467Y-98731557D01*
X111691640Y-98781360D01*
X111754991Y-98815222D01*
X111762170Y-98821114D01*
X111892186Y-98927814D01*
X111975448Y-99029271D01*
X112004778Y-99065009D01*
X112004779Y-99065011D01*
X112088443Y-99221533D01*
X112103816Y-99272213D01*
X112139963Y-99391373D01*
X112157359Y-99568000D01*
X112139963Y-99744627D01*
X112105616Y-99857853D01*
X112088443Y-99914467D01*
X112014348Y-100053087D01*
X112004778Y-100070991D01*
X111992293Y-100086204D01*
X111892186Y-100208186D01*
X111790729Y-100291448D01*
X111754991Y-100320778D01*
X111754989Y-100320779D01*
X111598467Y-100404443D01*
X111567251Y-100413912D01*
X111428627Y-100455963D01*
X111362442Y-100462482D01*
X111296260Y-100469000D01*
X111207740Y-100469000D01*
X111141557Y-100462481D01*
X111075373Y-100455963D01*
X110936749Y-100413912D01*
X110905533Y-100404443D01*
X110749011Y-100320779D01*
X110749009Y-100320778D01*
X110713271Y-100291448D01*
X110611814Y-100208186D01*
X110511707Y-100086204D01*
X110499222Y-100070991D01*
X110489652Y-100053087D01*
X110415557Y-99914467D01*
X110398384Y-99857853D01*
X110364037Y-99744627D01*
X110346641Y-99568000D01*
X110364037Y-99391373D01*
X110400184Y-99272213D01*
X110415557Y-99221533D01*
X110499221Y-99065011D01*
X110499222Y-99065009D01*
X110528552Y-99029271D01*
X110611814Y-98927814D01*
X110741830Y-98821114D01*
X110749009Y-98815222D01*
X110812360Y-98781360D01*
X110905533Y-98731557D01*
X110962147Y-98714384D01*
X111075373Y-98680037D01*
X111141558Y-98673518D01*
X111207740Y-98667000D01*
X111296260Y-98667000D01*
X111362442Y-98673518D01*
X111362442Y-98673518D01*
G37*
G36*
X113902442Y-98673518D02*
X113968627Y-98680037D01*
X114081853Y-98714384D01*
X114138467Y-98731557D01*
X114231640Y-98781360D01*
X114294991Y-98815222D01*
X114302170Y-98821114D01*
X114432186Y-98927814D01*
X114515448Y-99029271D01*
X114544778Y-99065009D01*
X114544779Y-99065011D01*
X114628443Y-99221533D01*
X114643816Y-99272213D01*
X114679963Y-99391373D01*
X114697359Y-99568000D01*
X114679963Y-99744627D01*
X114645616Y-99857853D01*
X114628443Y-99914467D01*
X114554348Y-100053087D01*
X114544778Y-100070991D01*
X114532293Y-100086204D01*
X114432186Y-100208186D01*
X114330729Y-100291448D01*
X114294991Y-100320778D01*
X114294989Y-100320779D01*
X114138467Y-100404443D01*
X114107251Y-100413912D01*
X113968627Y-100455963D01*
X113902442Y-100462482D01*
X113836260Y-100469000D01*
X113747740Y-100469000D01*
X113681557Y-100462481D01*
X113615373Y-100455963D01*
X113476749Y-100413912D01*
X113445533Y-100404443D01*
X113289011Y-100320779D01*
X113289009Y-100320778D01*
X113253271Y-100291448D01*
X113151814Y-100208186D01*
X113051707Y-100086204D01*
X113039222Y-100070991D01*
X113029652Y-100053087D01*
X112955557Y-99914467D01*
X112938384Y-99857853D01*
X112904037Y-99744627D01*
X112886641Y-99568000D01*
X112904037Y-99391373D01*
X112940184Y-99272213D01*
X112955557Y-99221533D01*
X113039221Y-99065011D01*
X113039222Y-99065009D01*
X113068552Y-99029271D01*
X113151814Y-98927814D01*
X113281830Y-98821114D01*
X113289009Y-98815222D01*
X113352360Y-98781360D01*
X113445533Y-98731557D01*
X113502147Y-98714384D01*
X113615373Y-98680037D01*
X113681558Y-98673518D01*
X113747740Y-98667000D01*
X113836260Y-98667000D01*
X113902442Y-98673518D01*
X113902442Y-98673518D01*
G37*
G36*
X163116938Y-99453716D02*
X163137556Y-99459970D01*
X163156556Y-99470126D01*
X163173208Y-99483792D01*
X163186874Y-99500444D01*
X163197030Y-99519444D01*
X163203284Y-99540062D01*
X163206000Y-99567640D01*
X163206000Y-100076360D01*
X163203284Y-100103938D01*
X163197030Y-100124556D01*
X163186874Y-100143556D01*
X163173208Y-100160208D01*
X163156556Y-100173874D01*
X163137556Y-100184030D01*
X163116938Y-100190284D01*
X163089360Y-100193000D01*
X162630640Y-100193000D01*
X162603062Y-100190284D01*
X162582444Y-100184030D01*
X162563444Y-100173874D01*
X162546792Y-100160208D01*
X162533126Y-100143556D01*
X162522970Y-100124556D01*
X162516716Y-100103938D01*
X162514000Y-100076360D01*
X162514000Y-99567640D01*
X162516716Y-99540062D01*
X162522970Y-99519444D01*
X162533126Y-99500444D01*
X162546792Y-99483792D01*
X162563444Y-99470126D01*
X162582444Y-99459970D01*
X162603062Y-99453716D01*
X162630640Y-99451000D01*
X163089360Y-99451000D01*
X163116938Y-99453716D01*
X163116938Y-99453716D01*
G37*
G36*
X164086938Y-99453716D02*
X164107556Y-99459970D01*
X164126556Y-99470126D01*
X164143208Y-99483792D01*
X164156874Y-99500444D01*
X164167030Y-99519444D01*
X164173284Y-99540062D01*
X164176000Y-99567640D01*
X164176000Y-100076360D01*
X164173284Y-100103938D01*
X164167030Y-100124556D01*
X164156874Y-100143556D01*
X164143208Y-100160208D01*
X164126556Y-100173874D01*
X164107556Y-100184030D01*
X164086938Y-100190284D01*
X164059360Y-100193000D01*
X163600640Y-100193000D01*
X163573062Y-100190284D01*
X163552444Y-100184030D01*
X163533444Y-100173874D01*
X163516792Y-100160208D01*
X163503126Y-100143556D01*
X163492970Y-100124556D01*
X163486716Y-100103938D01*
X163484000Y-100076360D01*
X163484000Y-99567640D01*
X163486716Y-99540062D01*
X163492970Y-99519444D01*
X163503126Y-99500444D01*
X163516792Y-99483792D01*
X163533444Y-99470126D01*
X163552444Y-99459970D01*
X163573062Y-99453716D01*
X163600640Y-99451000D01*
X164059360Y-99451000D01*
X164086938Y-99453716D01*
X164086938Y-99453716D01*
G37*
G36*
X164111938Y-98208716D02*
X164132556Y-98214970D01*
X164151556Y-98225126D01*
X164168208Y-98238792D01*
X164181874Y-98255444D01*
X164192030Y-98274444D01*
X164198284Y-98295062D01*
X164201000Y-98322640D01*
X164201000Y-98781360D01*
X164198284Y-98808938D01*
X164192030Y-98829556D01*
X164181874Y-98848556D01*
X164168208Y-98865208D01*
X164151556Y-98878874D01*
X164132556Y-98889030D01*
X164111938Y-98895284D01*
X164084360Y-98898000D01*
X163575640Y-98898000D01*
X163548062Y-98895284D01*
X163527444Y-98889030D01*
X163508444Y-98878874D01*
X163491792Y-98865208D01*
X163478126Y-98848556D01*
X163467970Y-98829556D01*
X163461716Y-98808938D01*
X163459000Y-98781360D01*
X163459000Y-98322640D01*
X163461716Y-98295062D01*
X163467970Y-98274444D01*
X163478126Y-98255444D01*
X163491792Y-98238792D01*
X163508444Y-98225126D01*
X163527444Y-98214970D01*
X163548062Y-98208716D01*
X163575640Y-98206000D01*
X164084360Y-98206000D01*
X164111938Y-98208716D01*
X164111938Y-98208716D01*
G37*
G36*
X149295996Y-95703051D02*
X149329653Y-95713261D01*
X149360667Y-95729838D01*
X149387852Y-95752148D01*
X149410162Y-95779333D01*
X149426739Y-95810347D01*
X149436949Y-95844004D01*
X149441000Y-95885138D01*
X149441000Y-98214862D01*
X149436949Y-98255996D01*
X149426739Y-98289653D01*
X149410162Y-98320667D01*
X149387852Y-98347852D01*
X149360667Y-98370162D01*
X149329653Y-98386739D01*
X149295996Y-98396949D01*
X149254862Y-98401000D01*
X147925138Y-98401000D01*
X147884004Y-98396949D01*
X147850347Y-98386739D01*
X147819333Y-98370162D01*
X147792148Y-98347852D01*
X147769838Y-98320667D01*
X147753261Y-98289653D01*
X147743051Y-98255996D01*
X147739000Y-98214862D01*
X147739000Y-95885138D01*
X147743051Y-95844004D01*
X147753261Y-95810347D01*
X147769838Y-95779333D01*
X147792148Y-95752148D01*
X147819333Y-95729838D01*
X147850347Y-95713261D01*
X147884004Y-95703051D01*
X147925138Y-95699000D01*
X149254862Y-95699000D01*
X149295996Y-95703051D01*
X149295996Y-95703051D01*
G37*
G36*
X119867938Y-97421716D02*
X119888556Y-97427970D01*
X119907556Y-97438126D01*
X119924208Y-97451792D01*
X119937874Y-97468444D01*
X119948030Y-97487444D01*
X119954284Y-97508062D01*
X119957000Y-97535640D01*
X119957000Y-98044360D01*
X119954284Y-98071938D01*
X119948030Y-98092556D01*
X119937874Y-98111556D01*
X119924208Y-98128208D01*
X119907556Y-98141874D01*
X119888556Y-98152030D01*
X119867938Y-98158284D01*
X119840360Y-98161000D01*
X119381640Y-98161000D01*
X119354062Y-98158284D01*
X119333444Y-98152030D01*
X119314444Y-98141874D01*
X119297792Y-98128208D01*
X119284126Y-98111556D01*
X119273970Y-98092556D01*
X119267716Y-98071938D01*
X119265000Y-98044360D01*
X119265000Y-97535640D01*
X119267716Y-97508062D01*
X119273970Y-97487444D01*
X119284126Y-97468444D01*
X119297792Y-97451792D01*
X119314444Y-97438126D01*
X119333444Y-97427970D01*
X119354062Y-97421716D01*
X119381640Y-97419000D01*
X119840360Y-97419000D01*
X119867938Y-97421716D01*
X119867938Y-97421716D01*
G37*
G36*
X118897938Y-97421716D02*
X118918556Y-97427970D01*
X118937556Y-97438126D01*
X118954208Y-97451792D01*
X118967874Y-97468444D01*
X118978030Y-97487444D01*
X118984284Y-97508062D01*
X118987000Y-97535640D01*
X118987000Y-98044360D01*
X118984284Y-98071938D01*
X118978030Y-98092556D01*
X118967874Y-98111556D01*
X118954208Y-98128208D01*
X118937556Y-98141874D01*
X118918556Y-98152030D01*
X118897938Y-98158284D01*
X118870360Y-98161000D01*
X118411640Y-98161000D01*
X118384062Y-98158284D01*
X118363444Y-98152030D01*
X118344444Y-98141874D01*
X118327792Y-98128208D01*
X118314126Y-98111556D01*
X118303970Y-98092556D01*
X118297716Y-98071938D01*
X118295000Y-98044360D01*
X118295000Y-97535640D01*
X118297716Y-97508062D01*
X118303970Y-97487444D01*
X118314126Y-97468444D01*
X118327792Y-97451792D01*
X118344444Y-97438126D01*
X118363444Y-97427970D01*
X118384062Y-97421716D01*
X118411640Y-97419000D01*
X118870360Y-97419000D01*
X118897938Y-97421716D01*
X118897938Y-97421716D01*
G37*
G36*
X135663938Y-97423716D02*
X135684556Y-97429970D01*
X135703556Y-97440126D01*
X135720208Y-97453792D01*
X135733874Y-97470444D01*
X135744030Y-97489444D01*
X135750284Y-97510062D01*
X135753000Y-97537640D01*
X135753000Y-97996360D01*
X135750284Y-98023938D01*
X135744030Y-98044556D01*
X135733874Y-98063556D01*
X135720208Y-98080208D01*
X135703556Y-98093874D01*
X135684556Y-98104030D01*
X135663938Y-98110284D01*
X135636360Y-98113000D01*
X135127640Y-98113000D01*
X135100062Y-98110284D01*
X135079444Y-98104030D01*
X135060444Y-98093874D01*
X135043792Y-98080208D01*
X135030126Y-98063556D01*
X135019970Y-98044556D01*
X135013716Y-98023938D01*
X135011000Y-97996360D01*
X135011000Y-97537640D01*
X135013716Y-97510062D01*
X135019970Y-97489444D01*
X135030126Y-97470444D01*
X135043792Y-97453792D01*
X135060444Y-97440126D01*
X135079444Y-97429970D01*
X135100062Y-97423716D01*
X135127640Y-97421000D01*
X135636360Y-97421000D01*
X135663938Y-97423716D01*
X135663938Y-97423716D01*
G37*
G36*
X111362443Y-96133519D02*
X111428627Y-96140037D01*
X111541853Y-96174384D01*
X111598467Y-96191557D01*
X111737087Y-96265652D01*
X111754991Y-96275222D01*
X111790729Y-96304552D01*
X111892186Y-96387814D01*
X111961570Y-96472360D01*
X112004778Y-96525009D01*
X112004779Y-96525011D01*
X112088443Y-96681533D01*
X112088443Y-96681534D01*
X112139963Y-96851373D01*
X112157359Y-97028000D01*
X112139963Y-97204627D01*
X112120499Y-97268792D01*
X112088443Y-97374467D01*
X112028055Y-97487444D01*
X112004778Y-97530991D01*
X111999321Y-97537640D01*
X111892186Y-97668186D01*
X111790729Y-97751448D01*
X111754991Y-97780778D01*
X111754989Y-97780779D01*
X111598467Y-97864443D01*
X111551942Y-97878556D01*
X111428627Y-97915963D01*
X111362442Y-97922482D01*
X111296260Y-97929000D01*
X111207740Y-97929000D01*
X111141558Y-97922482D01*
X111075373Y-97915963D01*
X110952058Y-97878556D01*
X110905533Y-97864443D01*
X110749011Y-97780779D01*
X110749009Y-97780778D01*
X110713271Y-97751448D01*
X110611814Y-97668186D01*
X110504679Y-97537640D01*
X110499222Y-97530991D01*
X110475945Y-97487444D01*
X110415557Y-97374467D01*
X110383501Y-97268792D01*
X110364037Y-97204627D01*
X110346641Y-97028000D01*
X110364037Y-96851373D01*
X110415557Y-96681534D01*
X110415557Y-96681533D01*
X110499221Y-96525011D01*
X110499222Y-96525009D01*
X110542430Y-96472360D01*
X110611814Y-96387814D01*
X110713271Y-96304552D01*
X110749009Y-96275222D01*
X110766913Y-96265652D01*
X110905533Y-96191557D01*
X110962147Y-96174384D01*
X111075373Y-96140037D01*
X111141557Y-96133519D01*
X111207740Y-96127000D01*
X111296260Y-96127000D01*
X111362443Y-96133519D01*
X111362443Y-96133519D01*
G37*
G36*
X113902443Y-96133519D02*
X113968627Y-96140037D01*
X114081853Y-96174384D01*
X114138467Y-96191557D01*
X114277087Y-96265652D01*
X114294991Y-96275222D01*
X114330729Y-96304552D01*
X114432186Y-96387814D01*
X114501570Y-96472360D01*
X114544778Y-96525009D01*
X114544779Y-96525011D01*
X114628443Y-96681533D01*
X114628443Y-96681534D01*
X114679963Y-96851373D01*
X114697359Y-97028000D01*
X114679963Y-97204627D01*
X114660499Y-97268792D01*
X114628443Y-97374467D01*
X114568055Y-97487444D01*
X114544778Y-97530991D01*
X114539321Y-97537640D01*
X114432186Y-97668186D01*
X114330729Y-97751448D01*
X114294991Y-97780778D01*
X114294989Y-97780779D01*
X114138467Y-97864443D01*
X114091942Y-97878556D01*
X113968627Y-97915963D01*
X113902442Y-97922482D01*
X113836260Y-97929000D01*
X113747740Y-97929000D01*
X113681558Y-97922482D01*
X113615373Y-97915963D01*
X113492058Y-97878556D01*
X113445533Y-97864443D01*
X113289011Y-97780779D01*
X113289009Y-97780778D01*
X113253271Y-97751448D01*
X113151814Y-97668186D01*
X113044679Y-97537640D01*
X113039222Y-97530991D01*
X113015945Y-97487444D01*
X112955557Y-97374467D01*
X112923501Y-97268792D01*
X112904037Y-97204627D01*
X112886641Y-97028000D01*
X112904037Y-96851373D01*
X112955557Y-96681534D01*
X112955557Y-96681533D01*
X113039221Y-96525011D01*
X113039222Y-96525009D01*
X113082430Y-96472360D01*
X113151814Y-96387814D01*
X113253271Y-96304552D01*
X113289009Y-96275222D01*
X113306913Y-96265652D01*
X113445533Y-96191557D01*
X113502147Y-96174384D01*
X113615373Y-96140037D01*
X113681557Y-96133519D01*
X113747740Y-96127000D01*
X113836260Y-96127000D01*
X113902443Y-96133519D01*
X113902443Y-96133519D01*
G37*
G36*
X164111938Y-97238716D02*
X164132556Y-97244970D01*
X164151556Y-97255126D01*
X164168208Y-97268792D01*
X164181874Y-97285444D01*
X164192030Y-97304444D01*
X164198284Y-97325062D01*
X164201000Y-97352640D01*
X164201000Y-97811360D01*
X164198284Y-97838938D01*
X164192030Y-97859556D01*
X164181874Y-97878556D01*
X164168208Y-97895208D01*
X164151556Y-97908874D01*
X164132556Y-97919030D01*
X164111938Y-97925284D01*
X164084360Y-97928000D01*
X163575640Y-97928000D01*
X163548062Y-97925284D01*
X163527444Y-97919030D01*
X163508444Y-97908874D01*
X163491792Y-97895208D01*
X163478126Y-97878556D01*
X163467970Y-97859556D01*
X163461716Y-97838938D01*
X163459000Y-97811360D01*
X163459000Y-97352640D01*
X163461716Y-97325062D01*
X163467970Y-97304444D01*
X163478126Y-97285444D01*
X163491792Y-97268792D01*
X163508444Y-97255126D01*
X163527444Y-97244970D01*
X163548062Y-97238716D01*
X163575640Y-97236000D01*
X164084360Y-97236000D01*
X164111938Y-97238716D01*
X164111938Y-97238716D01*
G37*
G36*
X135663938Y-96453716D02*
X135684556Y-96459970D01*
X135703556Y-96470126D01*
X135720208Y-96483792D01*
X135733874Y-96500444D01*
X135744030Y-96519444D01*
X135750284Y-96540062D01*
X135753000Y-96567640D01*
X135753000Y-97026360D01*
X135750284Y-97053938D01*
X135744030Y-97074556D01*
X135733874Y-97093556D01*
X135720208Y-97110208D01*
X135703556Y-97123874D01*
X135684556Y-97134030D01*
X135663938Y-97140284D01*
X135636360Y-97143000D01*
X135127640Y-97143000D01*
X135100062Y-97140284D01*
X135079444Y-97134030D01*
X135060444Y-97123874D01*
X135043792Y-97110208D01*
X135030126Y-97093556D01*
X135019970Y-97074556D01*
X135013716Y-97053938D01*
X135011000Y-97026360D01*
X135011000Y-96567640D01*
X135013716Y-96540062D01*
X135019970Y-96519444D01*
X135030126Y-96500444D01*
X135043792Y-96483792D01*
X135060444Y-96470126D01*
X135079444Y-96459970D01*
X135100062Y-96453716D01*
X135127640Y-96451000D01*
X135636360Y-96451000D01*
X135663938Y-96453716D01*
X135663938Y-96453716D01*
G37*
G36*
X162505000Y-96744000D02*
X160903000Y-96744000D01*
X160903000Y-96042000D01*
X162505000Y-96042000D01*
X162505000Y-96744000D01*
X162505000Y-96744000D01*
G37*
G36*
X157105000Y-96744000D02*
X155503000Y-96744000D01*
X155503000Y-96042000D01*
X157105000Y-96042000D01*
X157105000Y-96744000D01*
X157105000Y-96744000D01*
G37*
G36*
X164111938Y-95899716D02*
X164132556Y-95905970D01*
X164151556Y-95916126D01*
X164168208Y-95929792D01*
X164181874Y-95946444D01*
X164192030Y-95965444D01*
X164198284Y-95986062D01*
X164201000Y-96013640D01*
X164201000Y-96472360D01*
X164198284Y-96499938D01*
X164192030Y-96520556D01*
X164181874Y-96539556D01*
X164168208Y-96556208D01*
X164151556Y-96569874D01*
X164132556Y-96580030D01*
X164111938Y-96586284D01*
X164084360Y-96589000D01*
X163575640Y-96589000D01*
X163548062Y-96586284D01*
X163527444Y-96580030D01*
X163508444Y-96569874D01*
X163491792Y-96556208D01*
X163478126Y-96539556D01*
X163467970Y-96520556D01*
X163461716Y-96499938D01*
X163459000Y-96472360D01*
X163459000Y-96013640D01*
X163461716Y-95986062D01*
X163467970Y-95965444D01*
X163478126Y-95946444D01*
X163491792Y-95929792D01*
X163508444Y-95916126D01*
X163527444Y-95905970D01*
X163548062Y-95899716D01*
X163575640Y-95897000D01*
X164084360Y-95897000D01*
X164111938Y-95899716D01*
X164111938Y-95899716D01*
G37*
G36*
X164111938Y-94929716D02*
X164132556Y-94935970D01*
X164151556Y-94946126D01*
X164168208Y-94959792D01*
X164181874Y-94976444D01*
X164192030Y-94995444D01*
X164198284Y-95016062D01*
X164201000Y-95043640D01*
X164201000Y-95502360D01*
X164198284Y-95529938D01*
X164192030Y-95550556D01*
X164181874Y-95569556D01*
X164168208Y-95586208D01*
X164151556Y-95599874D01*
X164132556Y-95610030D01*
X164111938Y-95616284D01*
X164084360Y-95619000D01*
X163575640Y-95619000D01*
X163548062Y-95616284D01*
X163527444Y-95610030D01*
X163508444Y-95599874D01*
X163491792Y-95586208D01*
X163478126Y-95569556D01*
X163467970Y-95550556D01*
X163461716Y-95529938D01*
X163459000Y-95502360D01*
X163459000Y-95043640D01*
X163461716Y-95016062D01*
X163467970Y-94995444D01*
X163478126Y-94976444D01*
X163491792Y-94959792D01*
X163508444Y-94946126D01*
X163527444Y-94935970D01*
X163548062Y-94929716D01*
X163575640Y-94927000D01*
X164084360Y-94927000D01*
X164111938Y-94929716D01*
X164111938Y-94929716D01*
G37*
G36*
X157105000Y-95474000D02*
X155503000Y-95474000D01*
X155503000Y-94772000D01*
X157105000Y-94772000D01*
X157105000Y-95474000D01*
X157105000Y-95474000D01*
G37*
G36*
X162505000Y-95474000D02*
X160903000Y-95474000D01*
X160903000Y-94772000D01*
X162505000Y-94772000D01*
X162505000Y-95474000D01*
X162505000Y-95474000D01*
G37*
G36*
X113902442Y-93593518D02*
X113968627Y-93600037D01*
X114081853Y-93634384D01*
X114138467Y-93651557D01*
X114219360Y-93694796D01*
X114294991Y-93735222D01*
X114326401Y-93761000D01*
X114432186Y-93847814D01*
X114515448Y-93949271D01*
X114544778Y-93985009D01*
X114544779Y-93985011D01*
X114628443Y-94141533D01*
X114628443Y-94141534D01*
X114679963Y-94311373D01*
X114697359Y-94488000D01*
X114679963Y-94664627D01*
X114654717Y-94747852D01*
X114628443Y-94834467D01*
X114574188Y-94935970D01*
X114544778Y-94990991D01*
X114515448Y-95026729D01*
X114432186Y-95128186D01*
X114330729Y-95211448D01*
X114294991Y-95240778D01*
X114294989Y-95240779D01*
X114138467Y-95324443D01*
X114081853Y-95341616D01*
X113968627Y-95375963D01*
X113902443Y-95382481D01*
X113836260Y-95389000D01*
X113747740Y-95389000D01*
X113681557Y-95382481D01*
X113615373Y-95375963D01*
X113502147Y-95341616D01*
X113445533Y-95324443D01*
X113289011Y-95240779D01*
X113289009Y-95240778D01*
X113253271Y-95211448D01*
X113151814Y-95128186D01*
X113068552Y-95026729D01*
X113039222Y-94990991D01*
X113009812Y-94935970D01*
X112955557Y-94834467D01*
X112929283Y-94747852D01*
X112904037Y-94664627D01*
X112886641Y-94488000D01*
X112904037Y-94311373D01*
X112955557Y-94141534D01*
X112955557Y-94141533D01*
X113039221Y-93985011D01*
X113039222Y-93985009D01*
X113068552Y-93949271D01*
X113151814Y-93847814D01*
X113257599Y-93761000D01*
X113289009Y-93735222D01*
X113364640Y-93694796D01*
X113445533Y-93651557D01*
X113502147Y-93634384D01*
X113615373Y-93600037D01*
X113681558Y-93593518D01*
X113747740Y-93587000D01*
X113836260Y-93587000D01*
X113902442Y-93593518D01*
X113902442Y-93593518D01*
G37*
G36*
X111362442Y-93593518D02*
X111428627Y-93600037D01*
X111541853Y-93634384D01*
X111598467Y-93651557D01*
X111679360Y-93694796D01*
X111754991Y-93735222D01*
X111786401Y-93761000D01*
X111892186Y-93847814D01*
X111975448Y-93949271D01*
X112004778Y-93985009D01*
X112004779Y-93985011D01*
X112088443Y-94141533D01*
X112088443Y-94141534D01*
X112139963Y-94311373D01*
X112157359Y-94488000D01*
X112139963Y-94664627D01*
X112114717Y-94747852D01*
X112088443Y-94834467D01*
X112034188Y-94935970D01*
X112004778Y-94990991D01*
X111975448Y-95026729D01*
X111892186Y-95128186D01*
X111790729Y-95211448D01*
X111754991Y-95240778D01*
X111754989Y-95240779D01*
X111598467Y-95324443D01*
X111541853Y-95341616D01*
X111428627Y-95375963D01*
X111362443Y-95382481D01*
X111296260Y-95389000D01*
X111207740Y-95389000D01*
X111141557Y-95382481D01*
X111075373Y-95375963D01*
X110962147Y-95341616D01*
X110905533Y-95324443D01*
X110749011Y-95240779D01*
X110749009Y-95240778D01*
X110713271Y-95211448D01*
X110611814Y-95128186D01*
X110528552Y-95026729D01*
X110499222Y-94990991D01*
X110469812Y-94935970D01*
X110415557Y-94834467D01*
X110389283Y-94747852D01*
X110364037Y-94664627D01*
X110346641Y-94488000D01*
X110364037Y-94311373D01*
X110415557Y-94141534D01*
X110415557Y-94141533D01*
X110499221Y-93985011D01*
X110499222Y-93985009D01*
X110528552Y-93949271D01*
X110611814Y-93847814D01*
X110717599Y-93761000D01*
X110749009Y-93735222D01*
X110824640Y-93694796D01*
X110905533Y-93651557D01*
X110962147Y-93634384D01*
X111075373Y-93600037D01*
X111141558Y-93593518D01*
X111207740Y-93587000D01*
X111296260Y-93587000D01*
X111362442Y-93593518D01*
X111362442Y-93593518D01*
G37*
G36*
X127132252Y-91103818D02*
X127132254Y-91103819D01*
X127132255Y-91103819D01*
X127505513Y-91258427D01*
X127579427Y-91307815D01*
X127841439Y-91482886D01*
X128127114Y-91768561D01*
X128127116Y-91768564D01*
X128351573Y-92104487D01*
X128495098Y-92450989D01*
X128506182Y-92477748D01*
X128585000Y-92873993D01*
X128585000Y-93278007D01*
X128513504Y-93637444D01*
X128506181Y-93674255D01*
X128351573Y-94047513D01*
X128241963Y-94211556D01*
X128127114Y-94383439D01*
X127841439Y-94669114D01*
X127841436Y-94669116D01*
X127505513Y-94893573D01*
X127132255Y-95048181D01*
X127132254Y-95048181D01*
X127132252Y-95048182D01*
X126736007Y-95127000D01*
X126331993Y-95127000D01*
X125935748Y-95048182D01*
X125935746Y-95048181D01*
X125935745Y-95048181D01*
X125562487Y-94893573D01*
X125226564Y-94669116D01*
X125226561Y-94669114D01*
X124940886Y-94383439D01*
X124826037Y-94211556D01*
X124716427Y-94047513D01*
X124561819Y-93674255D01*
X124554497Y-93637444D01*
X124483000Y-93278007D01*
X124483000Y-92873993D01*
X124561818Y-92477748D01*
X124572902Y-92450989D01*
X124716427Y-92104487D01*
X124940884Y-91768564D01*
X124940886Y-91768561D01*
X125226561Y-91482886D01*
X125488573Y-91307815D01*
X125562487Y-91258427D01*
X125935745Y-91103819D01*
X125935746Y-91103819D01*
X125935748Y-91103818D01*
X126331993Y-91025000D01*
X126736007Y-91025000D01*
X127132252Y-91103818D01*
X127132252Y-91103818D01*
G37*
G36*
X131540252Y-91103818D02*
X131540254Y-91103819D01*
X131540255Y-91103819D01*
X131913513Y-91258427D01*
X131987427Y-91307815D01*
X132249439Y-91482886D01*
X132535114Y-91768561D01*
X132535116Y-91768564D01*
X132759573Y-92104487D01*
X132903098Y-92450989D01*
X132914182Y-92477748D01*
X132993000Y-92873993D01*
X132993000Y-93278007D01*
X132921504Y-93637444D01*
X132914181Y-93674255D01*
X132759573Y-94047513D01*
X132649963Y-94211556D01*
X132535114Y-94383439D01*
X132249439Y-94669114D01*
X132249436Y-94669116D01*
X131913513Y-94893573D01*
X131540255Y-95048181D01*
X131540254Y-95048181D01*
X131540252Y-95048182D01*
X131144007Y-95127000D01*
X130739993Y-95127000D01*
X130343748Y-95048182D01*
X130343746Y-95048181D01*
X130343745Y-95048181D01*
X129970487Y-94893573D01*
X129634564Y-94669116D01*
X129634561Y-94669114D01*
X129348886Y-94383439D01*
X129234037Y-94211556D01*
X129124427Y-94047513D01*
X128969819Y-93674255D01*
X128962497Y-93637444D01*
X128891000Y-93278007D01*
X128891000Y-92873993D01*
X128969818Y-92477748D01*
X128980902Y-92450989D01*
X129124427Y-92104487D01*
X129348884Y-91768564D01*
X129348886Y-91768561D01*
X129634561Y-91482886D01*
X129896573Y-91307815D01*
X129970487Y-91258427D01*
X130343745Y-91103819D01*
X130343746Y-91103819D01*
X130343748Y-91103818D01*
X130739993Y-91025000D01*
X131144007Y-91025000D01*
X131540252Y-91103818D01*
X131540252Y-91103818D01*
G37*
G36*
X118332252Y-91103818D02*
X118332254Y-91103819D01*
X118332255Y-91103819D01*
X118705513Y-91258427D01*
X118779427Y-91307815D01*
X119041439Y-91482886D01*
X119327114Y-91768561D01*
X119327116Y-91768564D01*
X119551573Y-92104487D01*
X119695098Y-92450989D01*
X119706182Y-92477748D01*
X119785000Y-92873993D01*
X119785000Y-93278007D01*
X119713504Y-93637444D01*
X119706181Y-93674255D01*
X119551573Y-94047513D01*
X119441963Y-94211556D01*
X119327114Y-94383439D01*
X119041439Y-94669114D01*
X119041436Y-94669116D01*
X118705513Y-94893573D01*
X118332255Y-95048181D01*
X118332254Y-95048181D01*
X118332252Y-95048182D01*
X117936007Y-95127000D01*
X117531993Y-95127000D01*
X117135748Y-95048182D01*
X117135746Y-95048181D01*
X117135745Y-95048181D01*
X116762487Y-94893573D01*
X116426564Y-94669116D01*
X116426561Y-94669114D01*
X116140886Y-94383439D01*
X116026037Y-94211556D01*
X115916427Y-94047513D01*
X115761819Y-93674255D01*
X115754497Y-93637444D01*
X115683000Y-93278007D01*
X115683000Y-92873993D01*
X115761818Y-92477748D01*
X115772902Y-92450989D01*
X115916427Y-92104487D01*
X116140884Y-91768564D01*
X116140886Y-91768561D01*
X116426561Y-91482886D01*
X116688573Y-91307815D01*
X116762487Y-91258427D01*
X117135745Y-91103819D01*
X117135746Y-91103819D01*
X117135748Y-91103818D01*
X117531993Y-91025000D01*
X117936007Y-91025000D01*
X118332252Y-91103818D01*
X118332252Y-91103818D01*
G37*
G36*
X140340252Y-91103818D02*
X140340254Y-91103819D01*
X140340255Y-91103819D01*
X140713513Y-91258427D01*
X140787427Y-91307815D01*
X141049439Y-91482886D01*
X141335114Y-91768561D01*
X141335116Y-91768564D01*
X141559573Y-92104487D01*
X141703098Y-92450989D01*
X141714182Y-92477748D01*
X141793000Y-92873993D01*
X141793000Y-93278007D01*
X141721504Y-93637444D01*
X141714181Y-93674255D01*
X141559573Y-94047513D01*
X141449963Y-94211556D01*
X141335114Y-94383439D01*
X141049439Y-94669114D01*
X141049436Y-94669116D01*
X140713513Y-94893573D01*
X140340255Y-95048181D01*
X140340254Y-95048181D01*
X140340252Y-95048182D01*
X139944007Y-95127000D01*
X139539993Y-95127000D01*
X139143748Y-95048182D01*
X139143746Y-95048181D01*
X139143745Y-95048181D01*
X138770487Y-94893573D01*
X138434564Y-94669116D01*
X138434561Y-94669114D01*
X138148886Y-94383439D01*
X138034037Y-94211556D01*
X137924427Y-94047513D01*
X137769819Y-93674255D01*
X137762497Y-93637444D01*
X137691000Y-93278007D01*
X137691000Y-92873993D01*
X137769818Y-92477748D01*
X137780902Y-92450989D01*
X137924427Y-92104487D01*
X138148884Y-91768564D01*
X138148886Y-91768561D01*
X138434561Y-91482886D01*
X138696573Y-91307815D01*
X138770487Y-91258427D01*
X139143745Y-91103819D01*
X139143746Y-91103819D01*
X139143748Y-91103818D01*
X139539993Y-91025000D01*
X139944007Y-91025000D01*
X140340252Y-91103818D01*
X140340252Y-91103818D01*
G37*
G36*
X144748252Y-91103818D02*
X144748254Y-91103819D01*
X144748255Y-91103819D01*
X145121513Y-91258427D01*
X145195427Y-91307815D01*
X145457439Y-91482886D01*
X145743114Y-91768561D01*
X145743116Y-91768564D01*
X145967573Y-92104487D01*
X146111098Y-92450989D01*
X146122182Y-92477748D01*
X146201000Y-92873993D01*
X146201000Y-93278007D01*
X146129504Y-93637444D01*
X146122181Y-93674255D01*
X145967573Y-94047513D01*
X145857963Y-94211556D01*
X145743114Y-94383439D01*
X145457439Y-94669114D01*
X145457436Y-94669116D01*
X145121513Y-94893573D01*
X144748255Y-95048181D01*
X144748254Y-95048181D01*
X144748252Y-95048182D01*
X144352007Y-95127000D01*
X143947993Y-95127000D01*
X143551748Y-95048182D01*
X143551746Y-95048181D01*
X143551745Y-95048181D01*
X143178487Y-94893573D01*
X142842564Y-94669116D01*
X142842561Y-94669114D01*
X142556886Y-94383439D01*
X142442037Y-94211556D01*
X142332427Y-94047513D01*
X142177819Y-93674255D01*
X142170497Y-93637444D01*
X142099000Y-93278007D01*
X142099000Y-92873993D01*
X142177818Y-92477748D01*
X142188902Y-92450989D01*
X142332427Y-92104487D01*
X142556884Y-91768564D01*
X142556886Y-91768561D01*
X142842561Y-91482886D01*
X143104573Y-91307815D01*
X143178487Y-91258427D01*
X143551745Y-91103819D01*
X143551746Y-91103819D01*
X143551748Y-91103818D01*
X143947993Y-91025000D01*
X144352007Y-91025000D01*
X144748252Y-91103818D01*
X144748252Y-91103818D01*
G37*
G36*
X153548252Y-91103818D02*
X153548254Y-91103819D01*
X153548255Y-91103819D01*
X153921513Y-91258427D01*
X153995427Y-91307815D01*
X154257439Y-91482886D01*
X154543114Y-91768561D01*
X154543116Y-91768564D01*
X154767573Y-92104487D01*
X154911098Y-92450989D01*
X154922182Y-92477748D01*
X155001000Y-92873993D01*
X155001000Y-93278007D01*
X154929504Y-93637444D01*
X154922181Y-93674255D01*
X154767573Y-94047513D01*
X154657963Y-94211556D01*
X154543114Y-94383439D01*
X154257439Y-94669114D01*
X154257436Y-94669116D01*
X153921513Y-94893573D01*
X153548255Y-95048181D01*
X153548254Y-95048181D01*
X153548252Y-95048182D01*
X153152007Y-95127000D01*
X152747993Y-95127000D01*
X152351748Y-95048182D01*
X152351746Y-95048181D01*
X152351745Y-95048181D01*
X151978487Y-94893573D01*
X151642564Y-94669116D01*
X151642561Y-94669114D01*
X151356886Y-94383439D01*
X151242037Y-94211556D01*
X151132427Y-94047513D01*
X150977819Y-93674255D01*
X150970497Y-93637444D01*
X150899000Y-93278007D01*
X150899000Y-92873993D01*
X150977818Y-92477748D01*
X150988902Y-92450989D01*
X151132427Y-92104487D01*
X151356884Y-91768564D01*
X151356886Y-91768561D01*
X151642561Y-91482886D01*
X151904573Y-91307815D01*
X151978487Y-91258427D01*
X152351745Y-91103819D01*
X152351746Y-91103819D01*
X152351748Y-91103818D01*
X152747993Y-91025000D01*
X153152007Y-91025000D01*
X153548252Y-91103818D01*
X153548252Y-91103818D01*
G37*
G36*
X149295996Y-92103051D02*
X149329653Y-92113261D01*
X149360667Y-92129838D01*
X149387852Y-92152148D01*
X149410162Y-92179333D01*
X149426739Y-92210347D01*
X149436949Y-92244004D01*
X149441000Y-92285138D01*
X149441000Y-94614862D01*
X149436949Y-94655996D01*
X149426739Y-94689653D01*
X149410162Y-94720667D01*
X149387852Y-94747852D01*
X149360667Y-94770162D01*
X149329653Y-94786739D01*
X149295996Y-94796949D01*
X149254862Y-94801000D01*
X147925138Y-94801000D01*
X147884004Y-94796949D01*
X147850347Y-94786739D01*
X147819333Y-94770162D01*
X147792148Y-94747852D01*
X147769838Y-94720667D01*
X147753261Y-94689653D01*
X147743051Y-94655996D01*
X147739000Y-94614862D01*
X147739000Y-92285138D01*
X147743051Y-92244004D01*
X147753261Y-92210347D01*
X147769838Y-92179333D01*
X147792148Y-92152148D01*
X147819333Y-92129838D01*
X147850347Y-92113261D01*
X147884004Y-92103051D01*
X147925138Y-92099000D01*
X149254862Y-92099000D01*
X149295996Y-92103051D01*
X149295996Y-92103051D01*
G37*
G36*
X164111938Y-93590716D02*
X164132556Y-93596970D01*
X164151556Y-93607126D01*
X164168208Y-93620792D01*
X164181874Y-93637444D01*
X164192030Y-93656444D01*
X164198284Y-93677062D01*
X164201000Y-93704640D01*
X164201000Y-94163360D01*
X164198284Y-94190938D01*
X164192030Y-94211556D01*
X164181874Y-94230556D01*
X164168208Y-94247208D01*
X164151556Y-94260874D01*
X164132556Y-94271030D01*
X164111938Y-94277284D01*
X164084360Y-94280000D01*
X163575640Y-94280000D01*
X163548062Y-94277284D01*
X163527444Y-94271030D01*
X163508444Y-94260874D01*
X163491792Y-94247208D01*
X163478126Y-94230556D01*
X163467970Y-94211556D01*
X163461716Y-94190938D01*
X163459000Y-94163360D01*
X163459000Y-93704640D01*
X163461716Y-93677062D01*
X163467970Y-93656444D01*
X163478126Y-93637444D01*
X163491792Y-93620792D01*
X163508444Y-93607126D01*
X163527444Y-93596970D01*
X163548062Y-93590716D01*
X163575640Y-93588000D01*
X164084360Y-93588000D01*
X164111938Y-93590716D01*
X164111938Y-93590716D01*
G37*
G36*
X162505000Y-94204000D02*
X160903000Y-94204000D01*
X160903000Y-93502000D01*
X162505000Y-93502000D01*
X162505000Y-94204000D01*
X162505000Y-94204000D01*
G37*
G36*
X157105000Y-94204000D02*
X155503000Y-94204000D01*
X155503000Y-93502000D01*
X157105000Y-93502000D01*
X157105000Y-94204000D01*
X157105000Y-94204000D01*
G37*
G36*
X164111938Y-92620716D02*
X164132556Y-92626970D01*
X164151556Y-92637126D01*
X164168208Y-92650792D01*
X164181874Y-92667444D01*
X164192030Y-92686444D01*
X164198284Y-92707062D01*
X164201000Y-92734640D01*
X164201000Y-93193360D01*
X164198284Y-93220938D01*
X164192030Y-93241556D01*
X164181874Y-93260556D01*
X164168208Y-93277208D01*
X164151556Y-93290874D01*
X164132556Y-93301030D01*
X164111938Y-93307284D01*
X164084360Y-93310000D01*
X163575640Y-93310000D01*
X163548062Y-93307284D01*
X163527444Y-93301030D01*
X163508444Y-93290874D01*
X163491792Y-93277208D01*
X163478126Y-93260556D01*
X163467970Y-93241556D01*
X163461716Y-93220938D01*
X163459000Y-93193360D01*
X163459000Y-92734640D01*
X163461716Y-92707062D01*
X163467970Y-92686444D01*
X163478126Y-92667444D01*
X163491792Y-92650792D01*
X163508444Y-92637126D01*
X163527444Y-92626970D01*
X163548062Y-92620716D01*
X163575640Y-92618000D01*
X164084360Y-92618000D01*
X164111938Y-92620716D01*
X164111938Y-92620716D01*
G37*
G36*
X157105000Y-92934000D02*
X155503000Y-92934000D01*
X155503000Y-92232000D01*
X157105000Y-92232000D01*
X157105000Y-92934000D01*
X157105000Y-92934000D01*
G37*
G36*
X162505000Y-92934000D02*
X160903000Y-92934000D01*
X160903000Y-92232000D01*
X162505000Y-92232000D01*
X162505000Y-92934000D01*
X162505000Y-92934000D01*
G37*
G36*
X113902442Y-91053518D02*
X113968627Y-91060037D01*
X114061224Y-91088126D01*
X114138467Y-91111557D01*
X114186897Y-91137444D01*
X114294991Y-91195222D01*
X114310864Y-91208249D01*
X114432186Y-91307814D01*
X114515448Y-91409271D01*
X114544778Y-91445009D01*
X114544779Y-91445011D01*
X114628443Y-91601533D01*
X114628443Y-91601534D01*
X114679963Y-91771373D01*
X114697359Y-91948000D01*
X114679963Y-92124627D01*
X114664109Y-92176891D01*
X114628443Y-92294467D01*
X114618507Y-92313055D01*
X114544778Y-92450991D01*
X114522821Y-92477745D01*
X114432186Y-92588186D01*
X114355899Y-92650792D01*
X114294991Y-92700778D01*
X114294989Y-92700779D01*
X114138467Y-92784443D01*
X114081853Y-92801616D01*
X113968627Y-92835963D01*
X113902442Y-92842482D01*
X113836260Y-92849000D01*
X113747740Y-92849000D01*
X113681558Y-92842482D01*
X113615373Y-92835963D01*
X113502147Y-92801616D01*
X113445533Y-92784443D01*
X113289011Y-92700779D01*
X113289009Y-92700778D01*
X113228101Y-92650792D01*
X113151814Y-92588186D01*
X113061179Y-92477745D01*
X113039222Y-92450991D01*
X112965493Y-92313055D01*
X112955557Y-92294467D01*
X112919891Y-92176891D01*
X112904037Y-92124627D01*
X112886641Y-91948000D01*
X112904037Y-91771373D01*
X112955557Y-91601534D01*
X112955557Y-91601533D01*
X113039221Y-91445011D01*
X113039222Y-91445009D01*
X113068552Y-91409271D01*
X113151814Y-91307814D01*
X113273136Y-91208249D01*
X113289009Y-91195222D01*
X113397103Y-91137444D01*
X113445533Y-91111557D01*
X113522776Y-91088126D01*
X113615373Y-91060037D01*
X113681558Y-91053518D01*
X113747740Y-91047000D01*
X113836260Y-91047000D01*
X113902442Y-91053518D01*
X113902442Y-91053518D01*
G37*
G36*
X111362442Y-91053518D02*
X111428627Y-91060037D01*
X111521224Y-91088126D01*
X111598467Y-91111557D01*
X111646897Y-91137444D01*
X111754991Y-91195222D01*
X111770864Y-91208249D01*
X111892186Y-91307814D01*
X111975448Y-91409271D01*
X112004778Y-91445009D01*
X112004779Y-91445011D01*
X112088443Y-91601533D01*
X112088443Y-91601534D01*
X112139963Y-91771373D01*
X112157359Y-91948000D01*
X112139963Y-92124627D01*
X112124109Y-92176891D01*
X112088443Y-92294467D01*
X112078507Y-92313055D01*
X112004778Y-92450991D01*
X111982821Y-92477745D01*
X111892186Y-92588186D01*
X111815899Y-92650792D01*
X111754991Y-92700778D01*
X111754989Y-92700779D01*
X111598467Y-92784443D01*
X111541853Y-92801616D01*
X111428627Y-92835963D01*
X111362442Y-92842482D01*
X111296260Y-92849000D01*
X111207740Y-92849000D01*
X111141558Y-92842482D01*
X111075373Y-92835963D01*
X110962147Y-92801616D01*
X110905533Y-92784443D01*
X110749011Y-92700779D01*
X110749009Y-92700778D01*
X110688101Y-92650792D01*
X110611814Y-92588186D01*
X110521179Y-92477745D01*
X110499222Y-92450991D01*
X110425493Y-92313055D01*
X110415557Y-92294467D01*
X110379891Y-92176891D01*
X110364037Y-92124627D01*
X110346641Y-91948000D01*
X110364037Y-91771373D01*
X110415557Y-91601534D01*
X110415557Y-91601533D01*
X110499221Y-91445011D01*
X110499222Y-91445009D01*
X110528552Y-91409271D01*
X110611814Y-91307814D01*
X110733136Y-91208249D01*
X110749009Y-91195222D01*
X110857103Y-91137444D01*
X110905533Y-91111557D01*
X110982776Y-91088126D01*
X111075373Y-91060037D01*
X111141558Y-91053518D01*
X111207740Y-91047000D01*
X111296260Y-91047000D01*
X111362442Y-91053518D01*
X111362442Y-91053518D01*
G37*
G36*
X163832938Y-91071716D02*
X163853556Y-91077970D01*
X163872556Y-91088126D01*
X163889208Y-91101792D01*
X163902874Y-91118444D01*
X163913030Y-91137444D01*
X163919284Y-91158062D01*
X163922000Y-91185640D01*
X163922000Y-91694360D01*
X163919284Y-91721938D01*
X163913030Y-91742556D01*
X163902874Y-91761556D01*
X163889208Y-91778208D01*
X163872556Y-91791874D01*
X163853556Y-91802030D01*
X163832938Y-91808284D01*
X163805360Y-91811000D01*
X163346640Y-91811000D01*
X163319062Y-91808284D01*
X163298444Y-91802030D01*
X163279444Y-91791874D01*
X163262792Y-91778208D01*
X163249126Y-91761556D01*
X163238970Y-91742556D01*
X163232716Y-91721938D01*
X163230000Y-91694360D01*
X163230000Y-91185640D01*
X163232716Y-91158062D01*
X163238970Y-91137444D01*
X163249126Y-91118444D01*
X163262792Y-91101792D01*
X163279444Y-91088126D01*
X163298444Y-91077970D01*
X163319062Y-91071716D01*
X163346640Y-91069000D01*
X163805360Y-91069000D01*
X163832938Y-91071716D01*
X163832938Y-91071716D01*
G37*
G36*
X164802938Y-91071716D02*
X164823556Y-91077970D01*
X164842556Y-91088126D01*
X164859208Y-91101792D01*
X164872874Y-91118444D01*
X164883030Y-91137444D01*
X164889284Y-91158062D01*
X164892000Y-91185640D01*
X164892000Y-91694360D01*
X164889284Y-91721938D01*
X164883030Y-91742556D01*
X164872874Y-91761556D01*
X164859208Y-91778208D01*
X164842556Y-91791874D01*
X164823556Y-91802030D01*
X164802938Y-91808284D01*
X164775360Y-91811000D01*
X164316640Y-91811000D01*
X164289062Y-91808284D01*
X164268444Y-91802030D01*
X164249444Y-91791874D01*
X164232792Y-91778208D01*
X164219126Y-91761556D01*
X164208970Y-91742556D01*
X164202716Y-91721938D01*
X164200000Y-91694360D01*
X164200000Y-91185640D01*
X164202716Y-91158062D01*
X164208970Y-91137444D01*
X164219126Y-91118444D01*
X164232792Y-91101792D01*
X164249444Y-91088126D01*
X164268444Y-91077970D01*
X164289062Y-91071716D01*
X164316640Y-91069000D01*
X164775360Y-91069000D01*
X164802938Y-91071716D01*
X164802938Y-91071716D01*
G37*
G36*
X162505000Y-91664000D02*
X160903000Y-91664000D01*
X160903000Y-90962000D01*
X162505000Y-90962000D01*
X162505000Y-91664000D01*
X162505000Y-91664000D01*
G37*
G36*
X157105000Y-91664000D02*
X155503000Y-91664000D01*
X155503000Y-90962000D01*
X157105000Y-90962000D01*
X157105000Y-91664000D01*
X157105000Y-91664000D01*
G37*
G36*
X149041996Y-88337051D02*
X149075653Y-88347261D01*
X149106667Y-88363838D01*
X149133852Y-88386148D01*
X149156162Y-88413333D01*
X149172739Y-88444347D01*
X149182949Y-88478004D01*
X149187000Y-88519138D01*
X149187000Y-90848862D01*
X149182949Y-90889996D01*
X149172739Y-90923653D01*
X149156162Y-90954667D01*
X149133852Y-90981852D01*
X149106667Y-91004162D01*
X149075653Y-91020739D01*
X149041996Y-91030949D01*
X149000862Y-91035000D01*
X147671138Y-91035000D01*
X147630004Y-91030949D01*
X147596347Y-91020739D01*
X147565333Y-91004162D01*
X147538148Y-90981852D01*
X147515838Y-90954667D01*
X147499261Y-90923653D01*
X147489051Y-90889996D01*
X147485000Y-90848862D01*
X147485000Y-88519138D01*
X147489051Y-88478004D01*
X147499261Y-88444347D01*
X147515838Y-88413333D01*
X147538148Y-88386148D01*
X147565333Y-88363838D01*
X147596347Y-88347261D01*
X147630004Y-88337051D01*
X147671138Y-88333000D01*
X149000862Y-88333000D01*
X149041996Y-88337051D01*
X149041996Y-88337051D01*
G37*
G36*
X164825938Y-90055716D02*
X164846556Y-90061970D01*
X164865556Y-90072126D01*
X164882208Y-90085792D01*
X164895874Y-90102444D01*
X164906030Y-90121444D01*
X164912284Y-90142062D01*
X164915000Y-90169640D01*
X164915000Y-90678360D01*
X164912284Y-90705938D01*
X164906030Y-90726556D01*
X164895874Y-90745556D01*
X164882208Y-90762208D01*
X164865556Y-90775874D01*
X164846556Y-90786030D01*
X164825938Y-90792284D01*
X164798360Y-90795000D01*
X164339640Y-90795000D01*
X164312062Y-90792284D01*
X164291444Y-90786030D01*
X164272444Y-90775874D01*
X164255792Y-90762208D01*
X164242126Y-90745556D01*
X164231970Y-90726556D01*
X164225716Y-90705938D01*
X164223000Y-90678360D01*
X164223000Y-90169640D01*
X164225716Y-90142062D01*
X164231970Y-90121444D01*
X164242126Y-90102444D01*
X164255792Y-90085792D01*
X164272444Y-90072126D01*
X164291444Y-90061970D01*
X164312062Y-90055716D01*
X164339640Y-90053000D01*
X164798360Y-90053000D01*
X164825938Y-90055716D01*
X164825938Y-90055716D01*
G37*
G36*
X163855938Y-90055716D02*
X163876556Y-90061970D01*
X163895556Y-90072126D01*
X163912208Y-90085792D01*
X163925874Y-90102444D01*
X163936030Y-90121444D01*
X163942284Y-90142062D01*
X163945000Y-90169640D01*
X163945000Y-90678360D01*
X163942284Y-90705938D01*
X163936030Y-90726556D01*
X163925874Y-90745556D01*
X163912208Y-90762208D01*
X163895556Y-90775874D01*
X163876556Y-90786030D01*
X163855938Y-90792284D01*
X163828360Y-90795000D01*
X163369640Y-90795000D01*
X163342062Y-90792284D01*
X163321444Y-90786030D01*
X163302444Y-90775874D01*
X163285792Y-90762208D01*
X163272126Y-90745556D01*
X163261970Y-90726556D01*
X163255716Y-90705938D01*
X163253000Y-90678360D01*
X163253000Y-90169640D01*
X163255716Y-90142062D01*
X163261970Y-90121444D01*
X163272126Y-90102444D01*
X163285792Y-90085792D01*
X163302444Y-90072126D01*
X163321444Y-90061970D01*
X163342062Y-90055716D01*
X163369640Y-90053000D01*
X163828360Y-90053000D01*
X163855938Y-90055716D01*
X163855938Y-90055716D01*
G37*
G36*
X157105000Y-90394000D02*
X155503000Y-90394000D01*
X155503000Y-89692000D01*
X157105000Y-89692000D01*
X157105000Y-90394000D01*
X157105000Y-90394000D01*
G37*
G36*
X162505000Y-90394000D02*
X160903000Y-90394000D01*
X160903000Y-89692000D01*
X162505000Y-89692000D01*
X162505000Y-90394000D01*
X162505000Y-90394000D01*
G37*
G36*
X111362443Y-88513519D02*
X111428627Y-88520037D01*
X111541853Y-88554384D01*
X111598467Y-88571557D01*
X111737087Y-88645652D01*
X111754991Y-88655222D01*
X111777796Y-88673938D01*
X111892186Y-88767814D01*
X111960818Y-88851444D01*
X112004778Y-88905009D01*
X112004779Y-88905011D01*
X112088443Y-89061533D01*
X112088443Y-89061534D01*
X112139963Y-89231373D01*
X112157359Y-89408000D01*
X112139963Y-89584627D01*
X112107392Y-89692000D01*
X112088443Y-89754467D01*
X112014348Y-89893087D01*
X112004778Y-89910991D01*
X111992293Y-89926204D01*
X111892186Y-90048186D01*
X111792633Y-90129886D01*
X111754991Y-90160778D01*
X111754989Y-90160779D01*
X111598467Y-90244443D01*
X111541853Y-90261616D01*
X111428627Y-90295963D01*
X111362443Y-90302481D01*
X111296260Y-90309000D01*
X111207740Y-90309000D01*
X111141557Y-90302481D01*
X111075373Y-90295963D01*
X110962147Y-90261616D01*
X110905533Y-90244443D01*
X110749011Y-90160779D01*
X110749009Y-90160778D01*
X110711367Y-90129886D01*
X110611814Y-90048186D01*
X110511707Y-89926204D01*
X110499222Y-89910991D01*
X110489652Y-89893087D01*
X110415557Y-89754467D01*
X110396608Y-89692000D01*
X110364037Y-89584627D01*
X110346641Y-89408000D01*
X110364037Y-89231373D01*
X110415557Y-89061534D01*
X110415557Y-89061533D01*
X110499221Y-88905011D01*
X110499222Y-88905009D01*
X110543182Y-88851444D01*
X110611814Y-88767814D01*
X110726204Y-88673938D01*
X110749009Y-88655222D01*
X110766913Y-88645652D01*
X110905533Y-88571557D01*
X110962147Y-88554384D01*
X111075373Y-88520037D01*
X111141557Y-88513519D01*
X111207740Y-88507000D01*
X111296260Y-88507000D01*
X111362443Y-88513519D01*
X111362443Y-88513519D01*
G37*
G36*
X114693000Y-90309000D02*
X112891000Y-90309000D01*
X112891000Y-88507000D01*
X114693000Y-88507000D01*
X114693000Y-90309000D01*
X114693000Y-90309000D01*
G37*
G36*
X153880938Y-89293716D02*
X153901556Y-89299970D01*
X153920556Y-89310126D01*
X153937208Y-89323792D01*
X153950874Y-89340444D01*
X153961030Y-89359444D01*
X153967284Y-89380062D01*
X153970000Y-89407640D01*
X153970000Y-89916360D01*
X153967284Y-89943938D01*
X153961030Y-89964556D01*
X153950874Y-89983556D01*
X153937208Y-90000208D01*
X153920556Y-90013874D01*
X153901556Y-90024030D01*
X153880938Y-90030284D01*
X153853360Y-90033000D01*
X153394640Y-90033000D01*
X153367062Y-90030284D01*
X153346444Y-90024030D01*
X153327444Y-90013874D01*
X153310792Y-90000208D01*
X153297126Y-89983556D01*
X153286970Y-89964556D01*
X153280716Y-89943938D01*
X153278000Y-89916360D01*
X153278000Y-89407640D01*
X153280716Y-89380062D01*
X153286970Y-89359444D01*
X153297126Y-89340444D01*
X153310792Y-89323792D01*
X153327444Y-89310126D01*
X153346444Y-89299970D01*
X153367062Y-89293716D01*
X153394640Y-89291000D01*
X153853360Y-89291000D01*
X153880938Y-89293716D01*
X153880938Y-89293716D01*
G37*
G36*
X152910938Y-89293716D02*
X152931556Y-89299970D01*
X152950556Y-89310126D01*
X152967208Y-89323792D01*
X152980874Y-89340444D01*
X152991030Y-89359444D01*
X152997284Y-89380062D01*
X153000000Y-89407640D01*
X153000000Y-89916360D01*
X152997284Y-89943938D01*
X152991030Y-89964556D01*
X152980874Y-89983556D01*
X152967208Y-90000208D01*
X152950556Y-90013874D01*
X152931556Y-90024030D01*
X152910938Y-90030284D01*
X152883360Y-90033000D01*
X152424640Y-90033000D01*
X152397062Y-90030284D01*
X152376444Y-90024030D01*
X152357444Y-90013874D01*
X152340792Y-90000208D01*
X152327126Y-89983556D01*
X152316970Y-89964556D01*
X152310716Y-89943938D01*
X152308000Y-89916360D01*
X152308000Y-89407640D01*
X152310716Y-89380062D01*
X152316970Y-89359444D01*
X152327126Y-89340444D01*
X152340792Y-89323792D01*
X152357444Y-89310126D01*
X152376444Y-89299970D01*
X152397062Y-89293716D01*
X152424640Y-89291000D01*
X152883360Y-89291000D01*
X152910938Y-89293716D01*
X152910938Y-89293716D01*
G37*
G36*
X164802938Y-88785716D02*
X164823556Y-88791970D01*
X164842556Y-88802126D01*
X164859208Y-88815792D01*
X164872874Y-88832444D01*
X164883030Y-88851444D01*
X164889284Y-88872062D01*
X164892000Y-88899640D01*
X164892000Y-89408360D01*
X164889284Y-89435938D01*
X164883030Y-89456556D01*
X164872874Y-89475556D01*
X164859208Y-89492208D01*
X164842556Y-89505874D01*
X164823556Y-89516030D01*
X164802938Y-89522284D01*
X164775360Y-89525000D01*
X164316640Y-89525000D01*
X164289062Y-89522284D01*
X164268444Y-89516030D01*
X164249444Y-89505874D01*
X164232792Y-89492208D01*
X164219126Y-89475556D01*
X164208970Y-89456556D01*
X164202716Y-89435938D01*
X164200000Y-89408360D01*
X164200000Y-88899640D01*
X164202716Y-88872062D01*
X164208970Y-88851444D01*
X164219126Y-88832444D01*
X164232792Y-88815792D01*
X164249444Y-88802126D01*
X164268444Y-88791970D01*
X164289062Y-88785716D01*
X164316640Y-88783000D01*
X164775360Y-88783000D01*
X164802938Y-88785716D01*
X164802938Y-88785716D01*
G37*
G36*
X163832938Y-88785716D02*
X163853556Y-88791970D01*
X163872556Y-88802126D01*
X163889208Y-88815792D01*
X163902874Y-88832444D01*
X163913030Y-88851444D01*
X163919284Y-88872062D01*
X163922000Y-88899640D01*
X163922000Y-89408360D01*
X163919284Y-89435938D01*
X163913030Y-89456556D01*
X163902874Y-89475556D01*
X163889208Y-89492208D01*
X163872556Y-89505874D01*
X163853556Y-89516030D01*
X163832938Y-89522284D01*
X163805360Y-89525000D01*
X163346640Y-89525000D01*
X163319062Y-89522284D01*
X163298444Y-89516030D01*
X163279444Y-89505874D01*
X163262792Y-89492208D01*
X163249126Y-89475556D01*
X163238970Y-89456556D01*
X163232716Y-89435938D01*
X163230000Y-89408360D01*
X163230000Y-88899640D01*
X163232716Y-88872062D01*
X163238970Y-88851444D01*
X163249126Y-88832444D01*
X163262792Y-88815792D01*
X163279444Y-88802126D01*
X163298444Y-88791970D01*
X163319062Y-88785716D01*
X163346640Y-88783000D01*
X163805360Y-88783000D01*
X163832938Y-88785716D01*
X163832938Y-88785716D01*
G37*
G36*
X157105000Y-89124000D02*
X155503000Y-89124000D01*
X155503000Y-88422000D01*
X157105000Y-88422000D01*
X157105000Y-89124000D01*
X157105000Y-89124000D01*
G37*
G36*
X162505000Y-89124000D02*
X160903000Y-89124000D01*
X160903000Y-88422000D01*
X162505000Y-88422000D01*
X162505000Y-89124000D01*
X162505000Y-89124000D01*
G37*
G36*
X153926938Y-88023716D02*
X153947556Y-88029970D01*
X153966556Y-88040126D01*
X153983208Y-88053792D01*
X153996874Y-88070444D01*
X154007030Y-88089444D01*
X154013284Y-88110062D01*
X154016000Y-88137640D01*
X154016000Y-88646360D01*
X154013284Y-88673938D01*
X154007030Y-88694556D01*
X153996874Y-88713556D01*
X153983208Y-88730208D01*
X153966556Y-88743874D01*
X153947556Y-88754030D01*
X153926938Y-88760284D01*
X153899360Y-88763000D01*
X153440640Y-88763000D01*
X153413062Y-88760284D01*
X153392444Y-88754030D01*
X153373444Y-88743874D01*
X153356792Y-88730208D01*
X153343126Y-88713556D01*
X153332970Y-88694556D01*
X153326716Y-88673938D01*
X153324000Y-88646360D01*
X153324000Y-88137640D01*
X153326716Y-88110062D01*
X153332970Y-88089444D01*
X153343126Y-88070444D01*
X153356792Y-88053792D01*
X153373444Y-88040126D01*
X153392444Y-88029970D01*
X153413062Y-88023716D01*
X153440640Y-88021000D01*
X153899360Y-88021000D01*
X153926938Y-88023716D01*
X153926938Y-88023716D01*
G37*
G36*
X152956938Y-88023716D02*
X152977556Y-88029970D01*
X152996556Y-88040126D01*
X153013208Y-88053792D01*
X153026874Y-88070444D01*
X153037030Y-88089444D01*
X153043284Y-88110062D01*
X153046000Y-88137640D01*
X153046000Y-88646360D01*
X153043284Y-88673938D01*
X153037030Y-88694556D01*
X153026874Y-88713556D01*
X153013208Y-88730208D01*
X152996556Y-88743874D01*
X152977556Y-88754030D01*
X152956938Y-88760284D01*
X152929360Y-88763000D01*
X152470640Y-88763000D01*
X152443062Y-88760284D01*
X152422444Y-88754030D01*
X152403444Y-88743874D01*
X152386792Y-88730208D01*
X152373126Y-88713556D01*
X152362970Y-88694556D01*
X152356716Y-88673938D01*
X152354000Y-88646360D01*
X152354000Y-88137640D01*
X152356716Y-88110062D01*
X152362970Y-88089444D01*
X152373126Y-88070444D01*
X152386792Y-88053792D01*
X152403444Y-88040126D01*
X152422444Y-88029970D01*
X152443062Y-88023716D01*
X152470640Y-88021000D01*
X152929360Y-88021000D01*
X152956938Y-88023716D01*
X152956938Y-88023716D01*
G37*
G36*
X164873938Y-87286716D02*
X164894556Y-87292970D01*
X164913556Y-87303126D01*
X164930208Y-87316792D01*
X164943874Y-87333444D01*
X164954030Y-87352444D01*
X164960284Y-87373062D01*
X164963000Y-87400640D01*
X164963000Y-87859360D01*
X164960284Y-87886938D01*
X164954030Y-87907556D01*
X164943874Y-87926556D01*
X164930208Y-87943208D01*
X164913556Y-87956874D01*
X164894556Y-87967030D01*
X164873938Y-87973284D01*
X164846360Y-87976000D01*
X164337640Y-87976000D01*
X164310062Y-87973284D01*
X164289444Y-87967030D01*
X164270444Y-87956874D01*
X164253792Y-87943208D01*
X164240126Y-87926556D01*
X164229970Y-87907556D01*
X164223716Y-87886938D01*
X164221000Y-87859360D01*
X164221000Y-87400640D01*
X164223716Y-87373062D01*
X164229970Y-87352444D01*
X164240126Y-87333444D01*
X164253792Y-87316792D01*
X164270444Y-87303126D01*
X164289444Y-87292970D01*
X164310062Y-87286716D01*
X164337640Y-87284000D01*
X164846360Y-87284000D01*
X164873938Y-87286716D01*
X164873938Y-87286716D01*
G37*
G36*
X163857938Y-87286716D02*
X163878556Y-87292970D01*
X163897556Y-87303126D01*
X163914208Y-87316792D01*
X163927874Y-87333444D01*
X163938030Y-87352444D01*
X163944284Y-87373062D01*
X163947000Y-87400640D01*
X163947000Y-87859360D01*
X163944284Y-87886938D01*
X163938030Y-87907556D01*
X163927874Y-87926556D01*
X163914208Y-87943208D01*
X163897556Y-87956874D01*
X163878556Y-87967030D01*
X163857938Y-87973284D01*
X163830360Y-87976000D01*
X163321640Y-87976000D01*
X163294062Y-87973284D01*
X163273444Y-87967030D01*
X163254444Y-87956874D01*
X163237792Y-87943208D01*
X163224126Y-87926556D01*
X163213970Y-87907556D01*
X163207716Y-87886938D01*
X163205000Y-87859360D01*
X163205000Y-87400640D01*
X163207716Y-87373062D01*
X163213970Y-87352444D01*
X163224126Y-87333444D01*
X163237792Y-87316792D01*
X163254444Y-87303126D01*
X163273444Y-87292970D01*
X163294062Y-87286716D01*
X163321640Y-87284000D01*
X163830360Y-87284000D01*
X163857938Y-87286716D01*
X163857938Y-87286716D01*
G37*
G36*
X162505000Y-87854000D02*
X160903000Y-87854000D01*
X160903000Y-87152000D01*
X162505000Y-87152000D01*
X162505000Y-87854000D01*
X162505000Y-87854000D01*
G37*
G36*
X157105000Y-87854000D02*
X155503000Y-87854000D01*
X155503000Y-87152000D01*
X157105000Y-87152000D01*
X157105000Y-87854000D01*
X157105000Y-87854000D01*
G37*
G36*
X153880938Y-86753716D02*
X153901556Y-86759970D01*
X153920556Y-86770126D01*
X153937208Y-86783792D01*
X153950874Y-86800444D01*
X153961030Y-86819444D01*
X153967284Y-86840062D01*
X153970000Y-86867640D01*
X153970000Y-87376360D01*
X153967284Y-87403938D01*
X153961030Y-87424556D01*
X153950874Y-87443556D01*
X153937208Y-87460208D01*
X153920556Y-87473874D01*
X153901556Y-87484030D01*
X153880938Y-87490284D01*
X153853360Y-87493000D01*
X153394640Y-87493000D01*
X153367062Y-87490284D01*
X153346444Y-87484030D01*
X153327444Y-87473874D01*
X153310792Y-87460208D01*
X153297126Y-87443556D01*
X153286970Y-87424556D01*
X153280716Y-87403938D01*
X153278000Y-87376360D01*
X153278000Y-86867640D01*
X153280716Y-86840062D01*
X153286970Y-86819444D01*
X153297126Y-86800444D01*
X153310792Y-86783792D01*
X153327444Y-86770126D01*
X153346444Y-86759970D01*
X153367062Y-86753716D01*
X153394640Y-86751000D01*
X153853360Y-86751000D01*
X153880938Y-86753716D01*
X153880938Y-86753716D01*
G37*
G36*
X152910938Y-86753716D02*
X152931556Y-86759970D01*
X152950556Y-86770126D01*
X152967208Y-86783792D01*
X152980874Y-86800444D01*
X152991030Y-86819444D01*
X152997284Y-86840062D01*
X153000000Y-86867640D01*
X153000000Y-87376360D01*
X152997284Y-87403938D01*
X152991030Y-87424556D01*
X152980874Y-87443556D01*
X152967208Y-87460208D01*
X152950556Y-87473874D01*
X152931556Y-87484030D01*
X152910938Y-87490284D01*
X152883360Y-87493000D01*
X152424640Y-87493000D01*
X152397062Y-87490284D01*
X152376444Y-87484030D01*
X152357444Y-87473874D01*
X152340792Y-87460208D01*
X152327126Y-87443556D01*
X152316970Y-87424556D01*
X152310716Y-87403938D01*
X152308000Y-87376360D01*
X152308000Y-86867640D01*
X152310716Y-86840062D01*
X152316970Y-86819444D01*
X152327126Y-86800444D01*
X152340792Y-86783792D01*
X152357444Y-86770126D01*
X152376444Y-86759970D01*
X152397062Y-86753716D01*
X152424640Y-86751000D01*
X152883360Y-86751000D01*
X152910938Y-86753716D01*
X152910938Y-86753716D01*
G37*
G36*
X149041996Y-84737051D02*
X149075653Y-84747261D01*
X149106667Y-84763838D01*
X149133852Y-84786148D01*
X149156162Y-84813333D01*
X149172739Y-84844347D01*
X149182949Y-84878004D01*
X149187000Y-84919138D01*
X149187000Y-87248862D01*
X149182949Y-87289996D01*
X149172739Y-87323653D01*
X149156162Y-87354667D01*
X149133852Y-87381852D01*
X149106667Y-87404162D01*
X149075653Y-87420739D01*
X149041996Y-87430949D01*
X149000862Y-87435000D01*
X147671138Y-87435000D01*
X147630004Y-87430949D01*
X147596347Y-87420739D01*
X147565333Y-87404162D01*
X147538148Y-87381852D01*
X147515838Y-87354667D01*
X147499261Y-87323653D01*
X147489051Y-87289996D01*
X147485000Y-87248862D01*
X147485000Y-84919138D01*
X147489051Y-84878004D01*
X147499261Y-84844347D01*
X147515838Y-84813333D01*
X147538148Y-84786148D01*
X147565333Y-84763838D01*
X147596347Y-84747261D01*
X147630004Y-84737051D01*
X147671138Y-84733000D01*
X149000862Y-84733000D01*
X149041996Y-84737051D01*
X149041996Y-84737051D01*
G37*
G36*
X111659811Y-86130605D02*
X111698867Y-86142453D01*
X111734863Y-86161693D01*
X111766414Y-86187586D01*
X111792307Y-86219137D01*
X111811547Y-86255133D01*
X111823395Y-86294189D01*
X111828000Y-86340949D01*
X111828000Y-87138051D01*
X111823395Y-87184811D01*
X111811547Y-87223867D01*
X111792307Y-87259863D01*
X111766414Y-87291414D01*
X111734863Y-87317307D01*
X111698867Y-87336547D01*
X111659811Y-87348395D01*
X111613051Y-87353000D01*
X110890949Y-87353000D01*
X110844189Y-87348395D01*
X110805133Y-87336547D01*
X110769137Y-87317307D01*
X110737586Y-87291414D01*
X110711693Y-87259863D01*
X110692453Y-87223867D01*
X110680605Y-87184811D01*
X110676000Y-87138051D01*
X110676000Y-86340949D01*
X110680605Y-86294189D01*
X110692453Y-86255133D01*
X110711693Y-86219137D01*
X110737586Y-86187586D01*
X110769137Y-86161693D01*
X110805133Y-86142453D01*
X110844189Y-86130605D01*
X110890949Y-86126000D01*
X111613051Y-86126000D01*
X111659811Y-86130605D01*
X111659811Y-86130605D01*
G37*
G36*
X164873938Y-86316716D02*
X164894556Y-86322970D01*
X164913556Y-86333126D01*
X164930208Y-86346792D01*
X164943874Y-86363444D01*
X164954030Y-86382444D01*
X164960284Y-86403062D01*
X164963000Y-86430640D01*
X164963000Y-86889360D01*
X164960284Y-86916938D01*
X164954030Y-86937556D01*
X164943874Y-86956556D01*
X164930208Y-86973208D01*
X164913556Y-86986874D01*
X164894556Y-86997030D01*
X164873938Y-87003284D01*
X164846360Y-87006000D01*
X164337640Y-87006000D01*
X164310062Y-87003284D01*
X164289444Y-86997030D01*
X164270444Y-86986874D01*
X164253792Y-86973208D01*
X164240126Y-86956556D01*
X164229970Y-86937556D01*
X164223716Y-86916938D01*
X164221000Y-86889360D01*
X164221000Y-86430640D01*
X164223716Y-86403062D01*
X164229970Y-86382444D01*
X164240126Y-86363444D01*
X164253792Y-86346792D01*
X164270444Y-86333126D01*
X164289444Y-86322970D01*
X164310062Y-86316716D01*
X164337640Y-86314000D01*
X164846360Y-86314000D01*
X164873938Y-86316716D01*
X164873938Y-86316716D01*
G37*
G36*
X163857938Y-86316716D02*
X163878556Y-86322970D01*
X163897556Y-86333126D01*
X163914208Y-86346792D01*
X163927874Y-86363444D01*
X163938030Y-86382444D01*
X163944284Y-86403062D01*
X163947000Y-86430640D01*
X163947000Y-86889360D01*
X163944284Y-86916938D01*
X163938030Y-86937556D01*
X163927874Y-86956556D01*
X163914208Y-86973208D01*
X163897556Y-86986874D01*
X163878556Y-86997030D01*
X163857938Y-87003284D01*
X163830360Y-87006000D01*
X163321640Y-87006000D01*
X163294062Y-87003284D01*
X163273444Y-86997030D01*
X163254444Y-86986874D01*
X163237792Y-86973208D01*
X163224126Y-86956556D01*
X163213970Y-86937556D01*
X163207716Y-86916938D01*
X163205000Y-86889360D01*
X163205000Y-86430640D01*
X163207716Y-86403062D01*
X163213970Y-86382444D01*
X163224126Y-86363444D01*
X163237792Y-86346792D01*
X163254444Y-86333126D01*
X163273444Y-86322970D01*
X163294062Y-86316716D01*
X163321640Y-86314000D01*
X163830360Y-86314000D01*
X163857938Y-86316716D01*
X163857938Y-86316716D01*
G37*
G36*
X135619396Y-84683546D02*
X135792466Y-84755234D01*
X135948230Y-84859312D01*
X136080688Y-84991770D01*
X136184766Y-85147534D01*
X136256454Y-85320604D01*
X136293000Y-85504333D01*
X136293000Y-85691667D01*
X136256454Y-85875396D01*
X136184766Y-86048466D01*
X136080688Y-86204230D01*
X135948230Y-86336688D01*
X135792466Y-86440766D01*
X135619396Y-86512454D01*
X135435667Y-86549000D01*
X135248333Y-86549000D01*
X135064604Y-86512454D01*
X134891534Y-86440766D01*
X134735770Y-86336688D01*
X134603312Y-86204230D01*
X134499234Y-86048466D01*
X134427546Y-85875396D01*
X134391000Y-85691667D01*
X134391000Y-85504333D01*
X134427546Y-85320604D01*
X134499234Y-85147534D01*
X134603312Y-84991770D01*
X134735770Y-84859312D01*
X134891534Y-84755234D01*
X135064604Y-84683546D01*
X135248333Y-84647000D01*
X135435667Y-84647000D01*
X135619396Y-84683546D01*
X135619396Y-84683546D01*
G37*
G36*
X133119396Y-84683546D02*
X133292466Y-84755234D01*
X133448230Y-84859312D01*
X133580688Y-84991770D01*
X133684766Y-85147534D01*
X133756454Y-85320604D01*
X133793000Y-85504333D01*
X133793000Y-85691667D01*
X133756454Y-85875396D01*
X133684766Y-86048466D01*
X133580688Y-86204230D01*
X133448230Y-86336688D01*
X133292466Y-86440766D01*
X133119396Y-86512454D01*
X132935667Y-86549000D01*
X132748333Y-86549000D01*
X132564604Y-86512454D01*
X132391534Y-86440766D01*
X132235770Y-86336688D01*
X132103312Y-86204230D01*
X131999234Y-86048466D01*
X131927546Y-85875396D01*
X131891000Y-85691667D01*
X131891000Y-85504333D01*
X131927546Y-85320604D01*
X131999234Y-85147534D01*
X132103312Y-84991770D01*
X132235770Y-84859312D01*
X132391534Y-84755234D01*
X132564604Y-84683546D01*
X132748333Y-84647000D01*
X132935667Y-84647000D01*
X133119396Y-84683546D01*
X133119396Y-84683546D01*
G37*
G36*
X138119396Y-84683546D02*
X138292466Y-84755234D01*
X138448230Y-84859312D01*
X138580688Y-84991770D01*
X138684766Y-85147534D01*
X138756454Y-85320604D01*
X138793000Y-85504333D01*
X138793000Y-85691667D01*
X138756454Y-85875396D01*
X138684766Y-86048466D01*
X138580688Y-86204230D01*
X138448230Y-86336688D01*
X138292466Y-86440766D01*
X138119396Y-86512454D01*
X137935667Y-86549000D01*
X137748333Y-86549000D01*
X137564604Y-86512454D01*
X137391534Y-86440766D01*
X137235770Y-86336688D01*
X137103312Y-86204230D01*
X136999234Y-86048466D01*
X136927546Y-85875396D01*
X136891000Y-85691667D01*
X136891000Y-85504333D01*
X136927546Y-85320604D01*
X136999234Y-85147534D01*
X137103312Y-84991770D01*
X137235770Y-84859312D01*
X137391534Y-84755234D01*
X137564604Y-84683546D01*
X137748333Y-84647000D01*
X137935667Y-84647000D01*
X138119396Y-84683546D01*
X138119396Y-84683546D01*
G37*
G36*
X152910938Y-85483716D02*
X152931556Y-85489970D01*
X152950556Y-85500126D01*
X152967208Y-85513792D01*
X152980874Y-85530444D01*
X152991030Y-85549444D01*
X152997284Y-85570062D01*
X153000000Y-85597640D01*
X153000000Y-86106360D01*
X152997284Y-86133938D01*
X152991030Y-86154556D01*
X152980874Y-86173556D01*
X152967208Y-86190208D01*
X152950556Y-86203874D01*
X152931556Y-86214030D01*
X152910938Y-86220284D01*
X152883360Y-86223000D01*
X152424640Y-86223000D01*
X152397062Y-86220284D01*
X152376444Y-86214030D01*
X152357444Y-86203874D01*
X152340792Y-86190208D01*
X152327126Y-86173556D01*
X152316970Y-86154556D01*
X152310716Y-86133938D01*
X152308000Y-86106360D01*
X152308000Y-85597640D01*
X152310716Y-85570062D01*
X152316970Y-85549444D01*
X152327126Y-85530444D01*
X152340792Y-85513792D01*
X152357444Y-85500126D01*
X152376444Y-85489970D01*
X152397062Y-85483716D01*
X152424640Y-85481000D01*
X152883360Y-85481000D01*
X152910938Y-85483716D01*
X152910938Y-85483716D01*
G37*
G36*
X153880938Y-85483716D02*
X153901556Y-85489970D01*
X153920556Y-85500126D01*
X153937208Y-85513792D01*
X153950874Y-85530444D01*
X153961030Y-85549444D01*
X153967284Y-85570062D01*
X153970000Y-85597640D01*
X153970000Y-86106360D01*
X153967284Y-86133938D01*
X153961030Y-86154556D01*
X153950874Y-86173556D01*
X153937208Y-86190208D01*
X153920556Y-86203874D01*
X153901556Y-86214030D01*
X153880938Y-86220284D01*
X153853360Y-86223000D01*
X153394640Y-86223000D01*
X153367062Y-86220284D01*
X153346444Y-86214030D01*
X153327444Y-86203874D01*
X153310792Y-86190208D01*
X153297126Y-86173556D01*
X153286970Y-86154556D01*
X153280716Y-86133938D01*
X153278000Y-86106360D01*
X153278000Y-85597640D01*
X153280716Y-85570062D01*
X153286970Y-85549444D01*
X153297126Y-85530444D01*
X153310792Y-85513792D01*
X153327444Y-85500126D01*
X153346444Y-85489970D01*
X153367062Y-85483716D01*
X153394640Y-85481000D01*
X153853360Y-85481000D01*
X153880938Y-85483716D01*
X153880938Y-85483716D01*
G37*
G36*
X111659811Y-84355605D02*
X111698867Y-84367453D01*
X111734863Y-84386693D01*
X111766414Y-84412586D01*
X111792307Y-84444137D01*
X111811547Y-84480133D01*
X111823395Y-84519189D01*
X111828000Y-84565949D01*
X111828000Y-85363051D01*
X111823395Y-85409811D01*
X111811547Y-85448867D01*
X111792307Y-85484863D01*
X111766414Y-85516414D01*
X111734863Y-85542307D01*
X111698867Y-85561547D01*
X111659811Y-85573395D01*
X111613051Y-85578000D01*
X110890949Y-85578000D01*
X110844189Y-85573395D01*
X110805133Y-85561547D01*
X110769137Y-85542307D01*
X110737586Y-85516414D01*
X110711693Y-85484863D01*
X110692453Y-85448867D01*
X110680605Y-85409811D01*
X110676000Y-85363051D01*
X110676000Y-84565949D01*
X110680605Y-84519189D01*
X110692453Y-84480133D01*
X110711693Y-84444137D01*
X110737586Y-84412586D01*
X110769137Y-84386693D01*
X110805133Y-84367453D01*
X110844189Y-84355605D01*
X110890949Y-84351000D01*
X111613051Y-84351000D01*
X111659811Y-84355605D01*
X111659811Y-84355605D01*
G37*
G36*
X159289000Y-85383000D02*
X156687000Y-85383000D01*
X156687000Y-83781000D01*
X159289000Y-83781000D01*
X159289000Y-85383000D01*
X159289000Y-85383000D01*
G37*
G36*
X134668938Y-82943716D02*
X134689556Y-82949970D01*
X134708556Y-82960126D01*
X134725208Y-82973792D01*
X134738874Y-82990444D01*
X134749030Y-83009444D01*
X134755284Y-83030062D01*
X134758000Y-83057640D01*
X134758000Y-83566360D01*
X134755284Y-83593938D01*
X134749030Y-83614556D01*
X134738874Y-83633556D01*
X134725208Y-83650208D01*
X134708556Y-83663874D01*
X134689556Y-83674030D01*
X134668938Y-83680284D01*
X134641360Y-83683000D01*
X134182640Y-83683000D01*
X134155062Y-83680284D01*
X134134444Y-83674030D01*
X134115444Y-83663874D01*
X134098792Y-83650208D01*
X134085126Y-83633556D01*
X134074970Y-83614556D01*
X134068716Y-83593938D01*
X134066000Y-83566360D01*
X134066000Y-83057640D01*
X134068716Y-83030062D01*
X134074970Y-83009444D01*
X134085126Y-82990444D01*
X134098792Y-82973792D01*
X134115444Y-82960126D01*
X134134444Y-82949970D01*
X134155062Y-82943716D01*
X134182640Y-82941000D01*
X134641360Y-82941000D01*
X134668938Y-82943716D01*
X134668938Y-82943716D01*
G37*
G36*
X135638938Y-82943716D02*
X135659556Y-82949970D01*
X135678556Y-82960126D01*
X135695208Y-82973792D01*
X135708874Y-82990444D01*
X135719030Y-83009444D01*
X135725284Y-83030062D01*
X135728000Y-83057640D01*
X135728000Y-83566360D01*
X135725284Y-83593938D01*
X135719030Y-83614556D01*
X135708874Y-83633556D01*
X135695208Y-83650208D01*
X135678556Y-83663874D01*
X135659556Y-83674030D01*
X135638938Y-83680284D01*
X135611360Y-83683000D01*
X135152640Y-83683000D01*
X135125062Y-83680284D01*
X135104444Y-83674030D01*
X135085444Y-83663874D01*
X135068792Y-83650208D01*
X135055126Y-83633556D01*
X135044970Y-83614556D01*
X135038716Y-83593938D01*
X135036000Y-83566360D01*
X135036000Y-83057640D01*
X135038716Y-83030062D01*
X135044970Y-83009444D01*
X135055126Y-82990444D01*
X135068792Y-82973792D01*
X135085444Y-82960126D01*
X135104444Y-82949970D01*
X135125062Y-82943716D01*
X135152640Y-82941000D01*
X135611360Y-82941000D01*
X135638938Y-82943716D01*
X135638938Y-82943716D01*
G37*
G36*
X156749000Y-82843000D02*
X154147000Y-82843000D01*
X154147000Y-81241000D01*
X156749000Y-81241000D01*
X156749000Y-82843000D01*
X156749000Y-82843000D01*
G37*
G36*
X146691000Y-82647000D02*
X145089000Y-82647000D01*
X145089000Y-81945000D01*
X146691000Y-81945000D01*
X146691000Y-82647000D01*
X146691000Y-82647000D01*
G37*
G36*
X120275000Y-82647000D02*
X118673000Y-82647000D01*
X118673000Y-81945000D01*
X120275000Y-81945000D01*
X120275000Y-82647000D01*
X120275000Y-82647000D01*
G37*
G36*
X125675000Y-82647000D02*
X124073000Y-82647000D01*
X124073000Y-81945000D01*
X125675000Y-81945000D01*
X125675000Y-82647000D01*
X125675000Y-82647000D01*
G37*
G36*
X152091000Y-82647000D02*
X150489000Y-82647000D01*
X150489000Y-81945000D01*
X152091000Y-81945000D01*
X152091000Y-82647000D01*
X152091000Y-82647000D01*
G37*
G36*
X117375938Y-81952716D02*
X117396556Y-81958970D01*
X117415556Y-81969126D01*
X117432208Y-81982792D01*
X117445874Y-81999444D01*
X117456030Y-82018444D01*
X117462284Y-82039062D01*
X117465000Y-82066640D01*
X117465000Y-82525360D01*
X117462284Y-82552938D01*
X117456030Y-82573556D01*
X117445874Y-82592556D01*
X117432208Y-82609208D01*
X117415556Y-82622874D01*
X117396556Y-82633030D01*
X117375938Y-82639284D01*
X117348360Y-82642000D01*
X116839640Y-82642000D01*
X116812062Y-82639284D01*
X116791444Y-82633030D01*
X116772444Y-82622874D01*
X116755792Y-82609208D01*
X116742126Y-82592556D01*
X116731970Y-82573556D01*
X116725716Y-82552938D01*
X116723000Y-82525360D01*
X116723000Y-82066640D01*
X116725716Y-82039062D01*
X116731970Y-82018444D01*
X116742126Y-81999444D01*
X116755792Y-81982792D01*
X116772444Y-81969126D01*
X116791444Y-81958970D01*
X116812062Y-81952716D01*
X116839640Y-81950000D01*
X117348360Y-81950000D01*
X117375938Y-81952716D01*
X117375938Y-81952716D01*
G37*
G36*
X117375938Y-80982716D02*
X117396556Y-80988970D01*
X117415556Y-80999126D01*
X117432208Y-81012792D01*
X117445874Y-81029444D01*
X117456030Y-81048444D01*
X117462284Y-81069062D01*
X117465000Y-81096640D01*
X117465000Y-81555360D01*
X117462284Y-81582938D01*
X117456030Y-81603556D01*
X117445874Y-81622556D01*
X117432208Y-81639208D01*
X117415556Y-81652874D01*
X117396556Y-81663030D01*
X117375938Y-81669284D01*
X117348360Y-81672000D01*
X116839640Y-81672000D01*
X116812062Y-81669284D01*
X116791444Y-81663030D01*
X116772444Y-81652874D01*
X116755792Y-81639208D01*
X116742126Y-81622556D01*
X116731970Y-81603556D01*
X116725716Y-81582938D01*
X116723000Y-81555360D01*
X116723000Y-81096640D01*
X116725716Y-81069062D01*
X116731970Y-81048444D01*
X116742126Y-81029444D01*
X116755792Y-81012792D01*
X116772444Y-80999126D01*
X116791444Y-80988970D01*
X116812062Y-80982716D01*
X116839640Y-80980000D01*
X117348360Y-80980000D01*
X117375938Y-80982716D01*
X117375938Y-80982716D01*
G37*
G36*
X115851938Y-80890716D02*
X115872556Y-80896970D01*
X115891556Y-80907126D01*
X115908208Y-80920792D01*
X115921874Y-80937444D01*
X115932030Y-80956444D01*
X115938284Y-80977062D01*
X115941000Y-81004640D01*
X115941000Y-81463360D01*
X115938284Y-81490938D01*
X115932030Y-81511556D01*
X115921874Y-81530556D01*
X115908208Y-81547208D01*
X115891556Y-81560874D01*
X115872556Y-81571030D01*
X115851938Y-81577284D01*
X115824360Y-81580000D01*
X115315640Y-81580000D01*
X115288062Y-81577284D01*
X115267444Y-81571030D01*
X115248444Y-81560874D01*
X115231792Y-81547208D01*
X115218126Y-81530556D01*
X115207970Y-81511556D01*
X115201716Y-81490938D01*
X115199000Y-81463360D01*
X115199000Y-81004640D01*
X115201716Y-80977062D01*
X115207970Y-80956444D01*
X115218126Y-80937444D01*
X115231792Y-80920792D01*
X115248444Y-80907126D01*
X115267444Y-80896970D01*
X115288062Y-80890716D01*
X115315640Y-80888000D01*
X115824360Y-80888000D01*
X115851938Y-80890716D01*
X115851938Y-80890716D01*
G37*
G36*
X125675000Y-81377000D02*
X124073000Y-81377000D01*
X124073000Y-80675000D01*
X125675000Y-80675000D01*
X125675000Y-81377000D01*
X125675000Y-81377000D01*
G37*
G36*
X152091000Y-81377000D02*
X150489000Y-81377000D01*
X150489000Y-80675000D01*
X152091000Y-80675000D01*
X152091000Y-81377000D01*
X152091000Y-81377000D01*
G37*
G36*
X146691000Y-81377000D02*
X145089000Y-81377000D01*
X145089000Y-80675000D01*
X146691000Y-80675000D01*
X146691000Y-81377000D01*
X146691000Y-81377000D01*
G37*
G36*
X120275000Y-81377000D02*
X118673000Y-81377000D01*
X118673000Y-80675000D01*
X120275000Y-80675000D01*
X120275000Y-81377000D01*
X120275000Y-81377000D01*
G37*
G36*
X161829000Y-81319000D02*
X159227000Y-81319000D01*
X159227000Y-79717000D01*
X161829000Y-79717000D01*
X161829000Y-81319000D01*
X161829000Y-81319000D01*
G37*
G36*
X131540252Y-76625818D02*
X131540254Y-76625819D01*
X131540255Y-76625819D01*
X131913513Y-76780427D01*
X132169984Y-76951796D01*
X132249439Y-77004886D01*
X132535114Y-77290561D01*
X132535116Y-77290564D01*
X132759573Y-77626487D01*
X132816118Y-77763000D01*
X132914182Y-77999748D01*
X132993000Y-78395993D01*
X132993000Y-78800007D01*
X132936653Y-79083284D01*
X132914181Y-79196255D01*
X132759573Y-79569513D01*
X132759572Y-79569514D01*
X132535114Y-79905439D01*
X132249439Y-80191114D01*
X132249436Y-80191116D01*
X131913513Y-80415573D01*
X131540255Y-80570181D01*
X131540254Y-80570181D01*
X131540252Y-80570182D01*
X131144007Y-80649000D01*
X130739993Y-80649000D01*
X130343748Y-80570182D01*
X130343746Y-80570181D01*
X130343745Y-80570181D01*
X129970487Y-80415573D01*
X129634564Y-80191116D01*
X129634561Y-80191114D01*
X129348886Y-79905439D01*
X129124428Y-79569514D01*
X129124427Y-79569513D01*
X128969819Y-79196255D01*
X128947348Y-79083284D01*
X128891000Y-78800007D01*
X128891000Y-78395993D01*
X128969818Y-77999748D01*
X129067882Y-77763000D01*
X129124427Y-77626487D01*
X129348884Y-77290564D01*
X129348886Y-77290561D01*
X129634561Y-77004886D01*
X129714016Y-76951796D01*
X129970487Y-76780427D01*
X130343745Y-76625819D01*
X130343746Y-76625819D01*
X130343748Y-76625818D01*
X130739993Y-76547000D01*
X131144007Y-76547000D01*
X131540252Y-76625818D01*
X131540252Y-76625818D01*
G37*
G36*
X140340252Y-76625818D02*
X140340254Y-76625819D01*
X140340255Y-76625819D01*
X140713513Y-76780427D01*
X140969984Y-76951796D01*
X141049439Y-77004886D01*
X141335114Y-77290561D01*
X141335116Y-77290564D01*
X141559573Y-77626487D01*
X141616118Y-77763000D01*
X141714182Y-77999748D01*
X141793000Y-78395993D01*
X141793000Y-78800007D01*
X141736653Y-79083284D01*
X141714181Y-79196255D01*
X141559573Y-79569513D01*
X141559572Y-79569514D01*
X141335114Y-79905439D01*
X141049439Y-80191114D01*
X141049436Y-80191116D01*
X140713513Y-80415573D01*
X140340255Y-80570181D01*
X140340254Y-80570181D01*
X140340252Y-80570182D01*
X139944007Y-80649000D01*
X139539993Y-80649000D01*
X139143748Y-80570182D01*
X139143746Y-80570181D01*
X139143745Y-80570181D01*
X138770487Y-80415573D01*
X138434564Y-80191116D01*
X138434561Y-80191114D01*
X138148886Y-79905439D01*
X137924428Y-79569514D01*
X137924427Y-79569513D01*
X137769819Y-79196255D01*
X137747348Y-79083284D01*
X137691000Y-78800007D01*
X137691000Y-78395993D01*
X137769818Y-77999748D01*
X137867882Y-77763000D01*
X137924427Y-77626487D01*
X138148884Y-77290564D01*
X138148886Y-77290561D01*
X138434561Y-77004886D01*
X138514016Y-76951796D01*
X138770487Y-76780427D01*
X139143745Y-76625819D01*
X139143746Y-76625819D01*
X139143748Y-76625818D01*
X139539993Y-76547000D01*
X139944007Y-76547000D01*
X140340252Y-76625818D01*
X140340252Y-76625818D01*
G37*
G36*
X115851938Y-79920716D02*
X115872556Y-79926970D01*
X115891556Y-79937126D01*
X115908208Y-79950792D01*
X115921874Y-79967444D01*
X115932030Y-79986444D01*
X115938284Y-80007062D01*
X115941000Y-80034640D01*
X115941000Y-80493360D01*
X115938284Y-80520938D01*
X115932030Y-80541556D01*
X115921874Y-80560556D01*
X115908208Y-80577208D01*
X115891556Y-80590874D01*
X115872556Y-80601030D01*
X115851938Y-80607284D01*
X115824360Y-80610000D01*
X115315640Y-80610000D01*
X115288062Y-80607284D01*
X115267444Y-80601030D01*
X115248444Y-80590874D01*
X115231792Y-80577208D01*
X115218126Y-80560556D01*
X115207970Y-80541556D01*
X115201716Y-80520938D01*
X115199000Y-80493360D01*
X115199000Y-80034640D01*
X115201716Y-80007062D01*
X115207970Y-79986444D01*
X115218126Y-79967444D01*
X115231792Y-79950792D01*
X115248444Y-79937126D01*
X115267444Y-79926970D01*
X115288062Y-79920716D01*
X115315640Y-79918000D01*
X115824360Y-79918000D01*
X115851938Y-79920716D01*
X115851938Y-79920716D01*
G37*
G36*
X144020938Y-79387716D02*
X144041556Y-79393970D01*
X144060556Y-79404126D01*
X144077208Y-79417792D01*
X144090874Y-79434444D01*
X144101030Y-79453444D01*
X144107284Y-79474062D01*
X144110000Y-79501640D01*
X144110000Y-80010360D01*
X144107284Y-80037938D01*
X144101030Y-80058556D01*
X144090874Y-80077556D01*
X144077208Y-80094208D01*
X144060556Y-80107874D01*
X144041556Y-80118030D01*
X144020938Y-80124284D01*
X143993360Y-80127000D01*
X143534640Y-80127000D01*
X143507062Y-80124284D01*
X143486444Y-80118030D01*
X143467444Y-80107874D01*
X143450792Y-80094208D01*
X143437126Y-80077556D01*
X143426970Y-80058556D01*
X143420716Y-80037938D01*
X143418000Y-80010360D01*
X143418000Y-79501640D01*
X143420716Y-79474062D01*
X143426970Y-79453444D01*
X143437126Y-79434444D01*
X143450792Y-79417792D01*
X143467444Y-79404126D01*
X143486444Y-79393970D01*
X143507062Y-79387716D01*
X143534640Y-79385000D01*
X143993360Y-79385000D01*
X144020938Y-79387716D01*
X144020938Y-79387716D01*
G37*
G36*
X143050938Y-79387716D02*
X143071556Y-79393970D01*
X143090556Y-79404126D01*
X143107208Y-79417792D01*
X143120874Y-79434444D01*
X143131030Y-79453444D01*
X143137284Y-79474062D01*
X143140000Y-79501640D01*
X143140000Y-80010360D01*
X143137284Y-80037938D01*
X143131030Y-80058556D01*
X143120874Y-80077556D01*
X143107208Y-80094208D01*
X143090556Y-80107874D01*
X143071556Y-80118030D01*
X143050938Y-80124284D01*
X143023360Y-80127000D01*
X142564640Y-80127000D01*
X142537062Y-80124284D01*
X142516444Y-80118030D01*
X142497444Y-80107874D01*
X142480792Y-80094208D01*
X142467126Y-80077556D01*
X142456970Y-80058556D01*
X142450716Y-80037938D01*
X142448000Y-80010360D01*
X142448000Y-79501640D01*
X142450716Y-79474062D01*
X142456970Y-79453444D01*
X142467126Y-79434444D01*
X142480792Y-79417792D01*
X142497444Y-79404126D01*
X142516444Y-79393970D01*
X142537062Y-79387716D01*
X142564640Y-79385000D01*
X143023360Y-79385000D01*
X143050938Y-79387716D01*
X143050938Y-79387716D01*
G37*
G36*
X152091000Y-80107000D02*
X150489000Y-80107000D01*
X150489000Y-79405000D01*
X152091000Y-79405000D01*
X152091000Y-80107000D01*
X152091000Y-80107000D01*
G37*
G36*
X120275000Y-80107000D02*
X118673000Y-80107000D01*
X118673000Y-79405000D01*
X120275000Y-79405000D01*
X120275000Y-80107000D01*
X120275000Y-80107000D01*
G37*
G36*
X146691000Y-80107000D02*
X145089000Y-80107000D01*
X145089000Y-79405000D01*
X146691000Y-79405000D01*
X146691000Y-80107000D01*
X146691000Y-80107000D01*
G37*
G36*
X125675000Y-80107000D02*
X124073000Y-80107000D01*
X124073000Y-79405000D01*
X125675000Y-79405000D01*
X125675000Y-80107000D01*
X125675000Y-80107000D01*
G37*
G36*
X127535938Y-79366716D02*
X127556556Y-79372970D01*
X127575556Y-79383126D01*
X127592208Y-79396792D01*
X127605874Y-79413444D01*
X127616030Y-79432444D01*
X127622284Y-79453062D01*
X127625000Y-79480640D01*
X127625000Y-79939360D01*
X127622284Y-79966938D01*
X127616030Y-79987556D01*
X127605874Y-80006556D01*
X127592208Y-80023208D01*
X127575556Y-80036874D01*
X127556556Y-80047030D01*
X127535938Y-80053284D01*
X127508360Y-80056000D01*
X126999640Y-80056000D01*
X126972062Y-80053284D01*
X126951444Y-80047030D01*
X126932444Y-80036874D01*
X126915792Y-80023208D01*
X126902126Y-80006556D01*
X126891970Y-79987556D01*
X126885716Y-79966938D01*
X126883000Y-79939360D01*
X126883000Y-79480640D01*
X126885716Y-79453062D01*
X126891970Y-79432444D01*
X126902126Y-79413444D01*
X126915792Y-79396792D01*
X126932444Y-79383126D01*
X126951444Y-79372970D01*
X126972062Y-79366716D01*
X126999640Y-79364000D01*
X127508360Y-79364000D01*
X127535938Y-79366716D01*
X127535938Y-79366716D01*
G37*
G36*
X127535938Y-78396716D02*
X127556556Y-78402970D01*
X127575556Y-78413126D01*
X127592208Y-78426792D01*
X127605874Y-78443444D01*
X127616030Y-78462444D01*
X127622284Y-78483062D01*
X127625000Y-78510640D01*
X127625000Y-78969360D01*
X127622284Y-78996938D01*
X127616030Y-79017556D01*
X127605874Y-79036556D01*
X127592208Y-79053208D01*
X127575556Y-79066874D01*
X127556556Y-79077030D01*
X127535938Y-79083284D01*
X127508360Y-79086000D01*
X126999640Y-79086000D01*
X126972062Y-79083284D01*
X126951444Y-79077030D01*
X126932444Y-79066874D01*
X126915792Y-79053208D01*
X126902126Y-79036556D01*
X126891970Y-79017556D01*
X126885716Y-78996938D01*
X126883000Y-78969360D01*
X126883000Y-78510640D01*
X126885716Y-78483062D01*
X126891970Y-78462444D01*
X126902126Y-78443444D01*
X126915792Y-78426792D01*
X126932444Y-78413126D01*
X126951444Y-78402970D01*
X126972062Y-78396716D01*
X126999640Y-78394000D01*
X127508360Y-78394000D01*
X127535938Y-78396716D01*
X127535938Y-78396716D01*
G37*
G36*
X152091000Y-78837000D02*
X150489000Y-78837000D01*
X150489000Y-78135000D01*
X152091000Y-78135000D01*
X152091000Y-78837000D01*
X152091000Y-78837000D01*
G37*
G36*
X125675000Y-78837000D02*
X124073000Y-78837000D01*
X124073000Y-78135000D01*
X125675000Y-78135000D01*
X125675000Y-78837000D01*
X125675000Y-78837000D01*
G37*
G36*
X120275000Y-78837000D02*
X118673000Y-78837000D01*
X118673000Y-78135000D01*
X120275000Y-78135000D01*
X120275000Y-78837000D01*
X120275000Y-78837000D01*
G37*
G36*
X146691000Y-78837000D02*
X145089000Y-78837000D01*
X145089000Y-78135000D01*
X146691000Y-78135000D01*
X146691000Y-78837000D01*
X146691000Y-78837000D01*
G37*
G36*
X159289000Y-77763000D02*
X156687000Y-77763000D01*
X156687000Y-76161000D01*
X159289000Y-76161000D01*
X159289000Y-77763000D01*
X159289000Y-77763000D01*
G37*
G36*
X143974938Y-76847716D02*
X143995556Y-76853970D01*
X144014556Y-76864126D01*
X144031208Y-76877792D01*
X144044874Y-76894444D01*
X144055030Y-76913444D01*
X144061284Y-76934062D01*
X144064000Y-76961640D01*
X144064000Y-77470360D01*
X144061284Y-77497938D01*
X144055030Y-77518556D01*
X144044874Y-77537556D01*
X144031208Y-77554208D01*
X144014556Y-77567874D01*
X143995556Y-77578030D01*
X143974938Y-77584284D01*
X143947360Y-77587000D01*
X143488640Y-77587000D01*
X143461062Y-77584284D01*
X143440444Y-77578030D01*
X143421444Y-77567874D01*
X143404792Y-77554208D01*
X143391126Y-77537556D01*
X143380970Y-77518556D01*
X143374716Y-77497938D01*
X143372000Y-77470360D01*
X143372000Y-76961640D01*
X143374716Y-76934062D01*
X143380970Y-76913444D01*
X143391126Y-76894444D01*
X143404792Y-76877792D01*
X143421444Y-76864126D01*
X143440444Y-76853970D01*
X143461062Y-76847716D01*
X143488640Y-76845000D01*
X143947360Y-76845000D01*
X143974938Y-76847716D01*
X143974938Y-76847716D01*
G37*
G36*
X143004938Y-76847716D02*
X143025556Y-76853970D01*
X143044556Y-76864126D01*
X143061208Y-76877792D01*
X143074874Y-76894444D01*
X143085030Y-76913444D01*
X143091284Y-76934062D01*
X143094000Y-76961640D01*
X143094000Y-77470360D01*
X143091284Y-77497938D01*
X143085030Y-77518556D01*
X143074874Y-77537556D01*
X143061208Y-77554208D01*
X143044556Y-77567874D01*
X143025556Y-77578030D01*
X143004938Y-77584284D01*
X142977360Y-77587000D01*
X142518640Y-77587000D01*
X142491062Y-77584284D01*
X142470444Y-77578030D01*
X142451444Y-77567874D01*
X142434792Y-77554208D01*
X142421126Y-77537556D01*
X142410970Y-77518556D01*
X142404716Y-77497938D01*
X142402000Y-77470360D01*
X142402000Y-76961640D01*
X142404716Y-76934062D01*
X142410970Y-76913444D01*
X142421126Y-76894444D01*
X142434792Y-76877792D01*
X142451444Y-76864126D01*
X142470444Y-76853970D01*
X142491062Y-76847716D01*
X142518640Y-76845000D01*
X142977360Y-76845000D01*
X143004938Y-76847716D01*
X143004938Y-76847716D01*
G37*
G36*
X146691000Y-77567000D02*
X145089000Y-77567000D01*
X145089000Y-76865000D01*
X146691000Y-76865000D01*
X146691000Y-77567000D01*
X146691000Y-77567000D01*
G37*
G36*
X152091000Y-77567000D02*
X150489000Y-77567000D01*
X150489000Y-76865000D01*
X152091000Y-76865000D01*
X152091000Y-77567000D01*
X152091000Y-77567000D01*
G37*
G36*
X125675000Y-77567000D02*
X124073000Y-77567000D01*
X124073000Y-76865000D01*
X125675000Y-76865000D01*
X125675000Y-77567000D01*
X125675000Y-77567000D01*
G37*
G36*
X120275000Y-77567000D02*
X118673000Y-77567000D01*
X118673000Y-76865000D01*
X120275000Y-76865000D01*
X120275000Y-77567000D01*
X120275000Y-77567000D01*
G37*
G36*
X117858938Y-75577716D02*
X117879556Y-75583970D01*
X117898556Y-75594126D01*
X117915208Y-75607792D01*
X117928874Y-75624444D01*
X117939030Y-75643444D01*
X117945284Y-75664062D01*
X117948000Y-75691640D01*
X117948000Y-76200360D01*
X117945284Y-76227938D01*
X117939030Y-76248556D01*
X117928874Y-76267556D01*
X117915208Y-76284208D01*
X117898556Y-76297874D01*
X117879556Y-76308030D01*
X117858938Y-76314284D01*
X117831360Y-76317000D01*
X117372640Y-76317000D01*
X117345062Y-76314284D01*
X117324444Y-76308030D01*
X117305444Y-76297874D01*
X117288792Y-76284208D01*
X117275126Y-76267556D01*
X117264970Y-76248556D01*
X117258716Y-76227938D01*
X117256000Y-76200360D01*
X117256000Y-75691640D01*
X117258716Y-75664062D01*
X117264970Y-75643444D01*
X117275126Y-75624444D01*
X117288792Y-75607792D01*
X117305444Y-75594126D01*
X117324444Y-75583970D01*
X117345062Y-75577716D01*
X117372640Y-75575000D01*
X117831360Y-75575000D01*
X117858938Y-75577716D01*
X117858938Y-75577716D01*
G37*
G36*
X116888938Y-75577716D02*
X116909556Y-75583970D01*
X116928556Y-75594126D01*
X116945208Y-75607792D01*
X116958874Y-75624444D01*
X116969030Y-75643444D01*
X116975284Y-75664062D01*
X116978000Y-75691640D01*
X116978000Y-76200360D01*
X116975284Y-76227938D01*
X116969030Y-76248556D01*
X116958874Y-76267556D01*
X116945208Y-76284208D01*
X116928556Y-76297874D01*
X116909556Y-76308030D01*
X116888938Y-76314284D01*
X116861360Y-76317000D01*
X116402640Y-76317000D01*
X116375062Y-76314284D01*
X116354444Y-76308030D01*
X116335444Y-76297874D01*
X116318792Y-76284208D01*
X116305126Y-76267556D01*
X116294970Y-76248556D01*
X116288716Y-76227938D01*
X116286000Y-76200360D01*
X116286000Y-75691640D01*
X116288716Y-75664062D01*
X116294970Y-75643444D01*
X116305126Y-75624444D01*
X116318792Y-75607792D01*
X116335444Y-75594126D01*
X116354444Y-75583970D01*
X116375062Y-75577716D01*
X116402640Y-75575000D01*
X116861360Y-75575000D01*
X116888938Y-75577716D01*
X116888938Y-75577716D01*
G37*
G36*
X120275000Y-76297000D02*
X118673000Y-76297000D01*
X118673000Y-75595000D01*
X120275000Y-75595000D01*
X120275000Y-76297000D01*
X120275000Y-76297000D01*
G37*
G36*
X146691000Y-76297000D02*
X145089000Y-76297000D01*
X145089000Y-75595000D01*
X146691000Y-75595000D01*
X146691000Y-76297000D01*
X146691000Y-76297000D01*
G37*
G36*
X152091000Y-76297000D02*
X150489000Y-76297000D01*
X150489000Y-75595000D01*
X152091000Y-75595000D01*
X152091000Y-76297000D01*
X152091000Y-76297000D01*
G37*
G36*
X125675000Y-76297000D02*
X124073000Y-76297000D01*
X124073000Y-75595000D01*
X125675000Y-75595000D01*
X125675000Y-76297000D01*
X125675000Y-76297000D01*
G37*
G36*
X125675000Y-75027000D02*
X124073000Y-75027000D01*
X124073000Y-74325000D01*
X125675000Y-74325000D01*
X125675000Y-75027000D01*
X125675000Y-75027000D01*
G37*
G36*
X152091000Y-75027000D02*
X150489000Y-75027000D01*
X150489000Y-74325000D01*
X152091000Y-74325000D01*
X152091000Y-75027000D01*
X152091000Y-75027000D01*
G37*
G36*
X146691000Y-75027000D02*
X145089000Y-75027000D01*
X145089000Y-74325000D01*
X146691000Y-74325000D01*
X146691000Y-75027000D01*
X146691000Y-75027000D01*
G37*
G36*
X120275000Y-75027000D02*
X118673000Y-75027000D01*
X118673000Y-74325000D01*
X120275000Y-74325000D01*
X120275000Y-75027000D01*
X120275000Y-75027000D01*
G37*
G36*
X117883938Y-74286716D02*
X117904556Y-74292970D01*
X117923556Y-74303126D01*
X117940208Y-74316792D01*
X117953874Y-74333444D01*
X117964030Y-74352444D01*
X117970284Y-74373062D01*
X117973000Y-74400640D01*
X117973000Y-74859360D01*
X117970284Y-74886938D01*
X117964030Y-74907556D01*
X117953874Y-74926556D01*
X117940208Y-74943208D01*
X117923556Y-74956874D01*
X117904556Y-74967030D01*
X117883938Y-74973284D01*
X117856360Y-74976000D01*
X117347640Y-74976000D01*
X117320062Y-74973284D01*
X117299444Y-74967030D01*
X117280444Y-74956874D01*
X117263792Y-74943208D01*
X117250126Y-74926556D01*
X117239970Y-74907556D01*
X117233716Y-74886938D01*
X117231000Y-74859360D01*
X117231000Y-74400640D01*
X117233716Y-74373062D01*
X117239970Y-74352444D01*
X117250126Y-74333444D01*
X117263792Y-74316792D01*
X117280444Y-74303126D01*
X117299444Y-74292970D01*
X117320062Y-74286716D01*
X117347640Y-74284000D01*
X117856360Y-74284000D01*
X117883938Y-74286716D01*
X117883938Y-74286716D01*
G37*
G36*
X154081634Y-71113654D02*
X154298599Y-71179470D01*
X154298601Y-71179471D01*
X154298604Y-71179472D01*
X154498555Y-71286347D01*
X154673818Y-71430182D01*
X154817653Y-71605444D01*
X154919760Y-71796474D01*
X154933374Y-71816849D01*
X154950701Y-71834176D01*
X154971075Y-71847790D01*
X154993714Y-71857167D01*
X155017748Y-71861948D01*
X155042252Y-71861948D01*
X155066285Y-71857168D01*
X155088924Y-71847790D01*
X155109299Y-71834176D01*
X155126626Y-71816849D01*
X155140240Y-71796475D01*
X155149617Y-71773836D01*
X155154398Y-71749802D01*
X155155000Y-71737550D01*
X155155000Y-71597000D01*
X156757000Y-71597000D01*
X156757000Y-74199000D01*
X155155000Y-74199000D01*
X155155000Y-74058450D01*
X155152598Y-74034064D01*
X155145485Y-74010615D01*
X155133934Y-73989004D01*
X155118388Y-73970062D01*
X155099446Y-73954516D01*
X155077835Y-73942965D01*
X155054386Y-73935852D01*
X155030000Y-73933450D01*
X155005614Y-73935852D01*
X154982165Y-73942965D01*
X154960554Y-73954516D01*
X154941612Y-73970062D01*
X154926066Y-73989004D01*
X154919760Y-73999526D01*
X154817653Y-74190556D01*
X154673818Y-74365818D01*
X154498556Y-74509653D01*
X154298605Y-74616528D01*
X154298602Y-74616529D01*
X154298600Y-74616530D01*
X154081635Y-74682346D01*
X153856000Y-74704569D01*
X153630366Y-74682346D01*
X153413401Y-74616530D01*
X153413399Y-74616529D01*
X153413396Y-74616528D01*
X153213445Y-74509653D01*
X153038183Y-74365818D01*
X152894349Y-74190557D01*
X152787471Y-73990602D01*
X152786340Y-73986874D01*
X152721654Y-73773635D01*
X152705000Y-73604543D01*
X152705000Y-72191458D01*
X152721654Y-72022366D01*
X152787470Y-71805401D01*
X152787471Y-71805399D01*
X152787472Y-71805396D01*
X152894347Y-71605445D01*
X153038182Y-71430182D01*
X153213444Y-71286347D01*
X153413395Y-71179472D01*
X153413398Y-71179471D01*
X153413400Y-71179470D01*
X153630365Y-71113654D01*
X153856000Y-71091431D01*
X154081634Y-71113654D01*
X154081634Y-71113654D01*
G37*
G36*
X162281634Y-71113654D02*
X162498599Y-71179470D01*
X162498601Y-71179471D01*
X162498604Y-71179472D01*
X162698555Y-71286347D01*
X162873818Y-71430182D01*
X163017653Y-71605444D01*
X163124528Y-71805395D01*
X163124528Y-71805396D01*
X163124530Y-71805400D01*
X163190346Y-72022365D01*
X163207000Y-72191457D01*
X163207000Y-73604543D01*
X163190346Y-73773635D01*
X163125660Y-73986874D01*
X163124528Y-73990605D01*
X163017653Y-74190556D01*
X162873818Y-74365818D01*
X162698556Y-74509653D01*
X162498605Y-74616528D01*
X162498602Y-74616529D01*
X162498600Y-74616530D01*
X162281635Y-74682346D01*
X162056000Y-74704569D01*
X161830366Y-74682346D01*
X161613401Y-74616530D01*
X161613399Y-74616529D01*
X161613396Y-74616528D01*
X161413445Y-74509653D01*
X161238183Y-74365818D01*
X161094349Y-74190557D01*
X160987471Y-73990602D01*
X160983298Y-73976844D01*
X160921654Y-73773635D01*
X160921011Y-73771515D01*
X160917091Y-73751803D01*
X160907713Y-73729164D01*
X160894100Y-73708789D01*
X160876772Y-73691462D01*
X160856398Y-73677848D01*
X160833759Y-73668471D01*
X160809726Y-73663690D01*
X160785221Y-73663690D01*
X160761188Y-73668470D01*
X160738549Y-73677848D01*
X160718174Y-73691461D01*
X160700847Y-73708789D01*
X160687233Y-73729164D01*
X160625230Y-73845165D01*
X160525133Y-73967133D01*
X160403165Y-74067230D01*
X160264012Y-74141608D01*
X160113025Y-74187410D01*
X159956000Y-74202875D01*
X159798976Y-74187410D01*
X159647989Y-74141608D01*
X159508836Y-74067230D01*
X159386868Y-73967133D01*
X159286771Y-73845165D01*
X159212393Y-73706012D01*
X159166591Y-73555025D01*
X159155001Y-73437346D01*
X159155000Y-72358655D01*
X159166590Y-72240976D01*
X159212392Y-72089989D01*
X159286768Y-71950839D01*
X159336819Y-71889851D01*
X159386867Y-71828867D01*
X159386869Y-71828866D01*
X159386870Y-71828864D01*
X159508835Y-71728770D01*
X159647988Y-71654392D01*
X159798975Y-71608590D01*
X159956000Y-71593125D01*
X160113024Y-71608590D01*
X160264011Y-71654392D01*
X160403161Y-71728768D01*
X160428791Y-71749802D01*
X160525133Y-71828867D01*
X160525134Y-71828869D01*
X160525136Y-71828870D01*
X160625230Y-71950835D01*
X160687233Y-72066836D01*
X160700846Y-72087211D01*
X160718174Y-72104538D01*
X160738548Y-72118152D01*
X160761187Y-72127529D01*
X160785220Y-72132310D01*
X160809725Y-72132310D01*
X160833758Y-72127530D01*
X160856397Y-72118152D01*
X160876772Y-72104539D01*
X160894099Y-72087211D01*
X160907713Y-72066837D01*
X160917090Y-72044198D01*
X160921011Y-72024488D01*
X160921654Y-72022368D01*
X160921654Y-72022366D01*
X160987470Y-71805401D01*
X160987471Y-71805399D01*
X160987472Y-71805396D01*
X161094347Y-71605445D01*
X161238182Y-71430182D01*
X161413444Y-71286347D01*
X161613395Y-71179472D01*
X161613398Y-71179471D01*
X161613400Y-71179470D01*
X161830365Y-71113654D01*
X162056000Y-71091431D01*
X162281634Y-71113654D01*
X162281634Y-71113654D01*
G37*
G36*
X158113024Y-71608590D02*
X158264011Y-71654392D01*
X158403161Y-71728768D01*
X158428791Y-71749802D01*
X158525133Y-71828867D01*
X158525134Y-71828869D01*
X158525136Y-71828870D01*
X158625230Y-71950835D01*
X158699608Y-72089988D01*
X158745410Y-72240975D01*
X158757000Y-72358654D01*
X158757000Y-73437346D01*
X158745410Y-73555025D01*
X158699608Y-73706012D01*
X158625230Y-73845165D01*
X158525133Y-73967133D01*
X158403165Y-74067230D01*
X158264012Y-74141608D01*
X158113025Y-74187410D01*
X157956000Y-74202875D01*
X157798976Y-74187410D01*
X157647989Y-74141608D01*
X157508836Y-74067230D01*
X157386868Y-73967133D01*
X157286771Y-73845165D01*
X157212393Y-73706012D01*
X157166591Y-73555025D01*
X157155001Y-73437346D01*
X157155000Y-72358655D01*
X157166590Y-72240976D01*
X157212392Y-72089989D01*
X157286768Y-71950839D01*
X157336819Y-71889851D01*
X157386867Y-71828867D01*
X157386869Y-71828866D01*
X157386870Y-71828864D01*
X157508835Y-71728770D01*
X157647988Y-71654392D01*
X157798975Y-71608590D01*
X157956000Y-71593125D01*
X158113024Y-71608590D01*
X158113024Y-71608590D01*
G37*
G36*
X117883938Y-73316716D02*
X117904556Y-73322970D01*
X117923556Y-73333126D01*
X117940208Y-73346792D01*
X117953874Y-73363444D01*
X117964030Y-73382444D01*
X117970284Y-73403062D01*
X117973000Y-73430640D01*
X117973000Y-73889360D01*
X117970284Y-73916938D01*
X117964030Y-73937556D01*
X117953874Y-73956556D01*
X117940208Y-73973208D01*
X117923556Y-73986874D01*
X117904556Y-73997030D01*
X117883938Y-74003284D01*
X117856360Y-74006000D01*
X117347640Y-74006000D01*
X117320062Y-74003284D01*
X117299444Y-73997030D01*
X117280444Y-73986874D01*
X117263792Y-73973208D01*
X117250126Y-73956556D01*
X117239970Y-73937556D01*
X117233716Y-73916938D01*
X117231000Y-73889360D01*
X117231000Y-73430640D01*
X117233716Y-73403062D01*
X117239970Y-73382444D01*
X117250126Y-73363444D01*
X117263792Y-73346792D01*
X117280444Y-73333126D01*
X117299444Y-73322970D01*
X117320062Y-73316716D01*
X117347640Y-73314000D01*
X117856360Y-73314000D01*
X117883938Y-73316716D01*
X117883938Y-73316716D01*
G37*
G36*
X133119396Y-70205546D02*
X133292466Y-70277234D01*
X133448230Y-70381312D01*
X133580688Y-70513770D01*
X133684766Y-70669534D01*
X133756454Y-70842604D01*
X133793000Y-71026333D01*
X133793000Y-71213667D01*
X133756454Y-71397396D01*
X133684766Y-71570466D01*
X133580688Y-71726230D01*
X133448230Y-71858688D01*
X133292466Y-71962766D01*
X133119396Y-72034454D01*
X132935667Y-72071000D01*
X132748333Y-72071000D01*
X132564604Y-72034454D01*
X132391534Y-71962766D01*
X132235770Y-71858688D01*
X132103312Y-71726230D01*
X131999234Y-71570466D01*
X131927546Y-71397396D01*
X131891000Y-71213667D01*
X131891000Y-71026333D01*
X131927546Y-70842604D01*
X131999234Y-70669534D01*
X132103312Y-70513770D01*
X132235770Y-70381312D01*
X132391534Y-70277234D01*
X132564604Y-70205546D01*
X132748333Y-70169000D01*
X132935667Y-70169000D01*
X133119396Y-70205546D01*
X133119396Y-70205546D01*
G37*
G36*
X149081396Y-70205546D02*
X149254466Y-70277234D01*
X149410230Y-70381312D01*
X149542688Y-70513770D01*
X149646766Y-70669534D01*
X149718454Y-70842604D01*
X149755000Y-71026333D01*
X149755000Y-71213667D01*
X149718454Y-71397396D01*
X149646766Y-71570466D01*
X149542688Y-71726230D01*
X149410230Y-71858688D01*
X149254466Y-71962766D01*
X149081396Y-72034454D01*
X148897667Y-72071000D01*
X148710333Y-72071000D01*
X148526604Y-72034454D01*
X148353534Y-71962766D01*
X148197770Y-71858688D01*
X148065312Y-71726230D01*
X147961234Y-71570466D01*
X147889546Y-71397396D01*
X147853000Y-71213667D01*
X147853000Y-71026333D01*
X147889546Y-70842604D01*
X147961234Y-70669534D01*
X148065312Y-70513770D01*
X148197770Y-70381312D01*
X148353534Y-70277234D01*
X148526604Y-70205546D01*
X148710333Y-70169000D01*
X148897667Y-70169000D01*
X149081396Y-70205546D01*
X149081396Y-70205546D01*
G37*
G36*
X135619396Y-70205546D02*
X135792466Y-70277234D01*
X135948230Y-70381312D01*
X136080688Y-70513770D01*
X136184766Y-70669534D01*
X136256454Y-70842604D01*
X136293000Y-71026333D01*
X136293000Y-71213667D01*
X136256454Y-71397396D01*
X136184766Y-71570466D01*
X136080688Y-71726230D01*
X135948230Y-71858688D01*
X135792466Y-71962766D01*
X135619396Y-72034454D01*
X135435667Y-72071000D01*
X135248333Y-72071000D01*
X135064604Y-72034454D01*
X134891534Y-71962766D01*
X134735770Y-71858688D01*
X134603312Y-71726230D01*
X134499234Y-71570466D01*
X134427546Y-71397396D01*
X134391000Y-71213667D01*
X134391000Y-71026333D01*
X134427546Y-70842604D01*
X134499234Y-70669534D01*
X134603312Y-70513770D01*
X134735770Y-70381312D01*
X134891534Y-70277234D01*
X135064604Y-70205546D01*
X135248333Y-70169000D01*
X135435667Y-70169000D01*
X135619396Y-70205546D01*
X135619396Y-70205546D01*
G37*
G36*
X151581396Y-70205546D02*
X151754466Y-70277234D01*
X151910230Y-70381312D01*
X152042688Y-70513770D01*
X152146766Y-70669534D01*
X152218454Y-70842604D01*
X152255000Y-71026333D01*
X152255000Y-71213667D01*
X152218454Y-71397396D01*
X152146766Y-71570466D01*
X152042688Y-71726230D01*
X151910230Y-71858688D01*
X151754466Y-71962766D01*
X151581396Y-72034454D01*
X151397667Y-72071000D01*
X151210333Y-72071000D01*
X151026604Y-72034454D01*
X150853534Y-71962766D01*
X150697770Y-71858688D01*
X150565312Y-71726230D01*
X150461234Y-71570466D01*
X150389546Y-71397396D01*
X150353000Y-71213667D01*
X150353000Y-71026333D01*
X150389546Y-70842604D01*
X150461234Y-70669534D01*
X150565312Y-70513770D01*
X150697770Y-70381312D01*
X150853534Y-70277234D01*
X151026604Y-70205546D01*
X151210333Y-70169000D01*
X151397667Y-70169000D01*
X151581396Y-70205546D01*
X151581396Y-70205546D01*
G37*
G36*
X138119396Y-70205546D02*
X138292466Y-70277234D01*
X138448230Y-70381312D01*
X138580688Y-70513770D01*
X138684766Y-70669534D01*
X138756454Y-70842604D01*
X138793000Y-71026333D01*
X138793000Y-71213667D01*
X138756454Y-71397396D01*
X138684766Y-71570466D01*
X138580688Y-71726230D01*
X138448230Y-71858688D01*
X138292466Y-71962766D01*
X138119396Y-72034454D01*
X137935667Y-72071000D01*
X137748333Y-72071000D01*
X137564604Y-72034454D01*
X137391534Y-71962766D01*
X137235770Y-71858688D01*
X137103312Y-71726230D01*
X136999234Y-71570466D01*
X136927546Y-71397396D01*
X136891000Y-71213667D01*
X136891000Y-71026333D01*
X136927546Y-70842604D01*
X136999234Y-70669534D01*
X137103312Y-70513770D01*
X137235770Y-70381312D01*
X137391534Y-70277234D01*
X137564604Y-70205546D01*
X137748333Y-70169000D01*
X137935667Y-70169000D01*
X138119396Y-70205546D01*
X138119396Y-70205546D01*
G37*
G36*
X146581396Y-70205546D02*
X146754466Y-70277234D01*
X146910230Y-70381312D01*
X147042688Y-70513770D01*
X147146766Y-70669534D01*
X147218454Y-70842604D01*
X147255000Y-71026333D01*
X147255000Y-71213667D01*
X147218454Y-71397396D01*
X147146766Y-71570466D01*
X147042688Y-71726230D01*
X146910230Y-71858688D01*
X146754466Y-71962766D01*
X146581396Y-72034454D01*
X146397667Y-72071000D01*
X146210333Y-72071000D01*
X146026604Y-72034454D01*
X145853534Y-71962766D01*
X145697770Y-71858688D01*
X145565312Y-71726230D01*
X145461234Y-71570466D01*
X145389546Y-71397396D01*
X145353000Y-71213667D01*
X145353000Y-71026333D01*
X145389546Y-70842604D01*
X145461234Y-70669534D01*
X145565312Y-70513770D01*
X145697770Y-70381312D01*
X145853534Y-70277234D01*
X146026604Y-70205546D01*
X146210333Y-70169000D01*
X146397667Y-70169000D01*
X146581396Y-70205546D01*
X146581396Y-70205546D01*
G37*
G36*
X119657396Y-70205546D02*
X119830466Y-70277234D01*
X119986230Y-70381312D01*
X120118688Y-70513770D01*
X120222766Y-70669534D01*
X120294454Y-70842604D01*
X120331000Y-71026333D01*
X120331000Y-71213667D01*
X120294454Y-71397396D01*
X120222766Y-71570466D01*
X120118688Y-71726230D01*
X119986230Y-71858688D01*
X119830466Y-71962766D01*
X119657396Y-72034454D01*
X119473667Y-72071000D01*
X119286333Y-72071000D01*
X119102604Y-72034454D01*
X118929534Y-71962766D01*
X118773770Y-71858688D01*
X118641312Y-71726230D01*
X118537234Y-71570466D01*
X118465546Y-71397396D01*
X118429000Y-71213667D01*
X118429000Y-71026333D01*
X118465546Y-70842604D01*
X118537234Y-70669534D01*
X118641312Y-70513770D01*
X118773770Y-70381312D01*
X118929534Y-70277234D01*
X119102604Y-70205546D01*
X119286333Y-70169000D01*
X119473667Y-70169000D01*
X119657396Y-70205546D01*
X119657396Y-70205546D01*
G37*
G36*
X122157396Y-70205546D02*
X122330466Y-70277234D01*
X122486230Y-70381312D01*
X122618688Y-70513770D01*
X122722766Y-70669534D01*
X122794454Y-70842604D01*
X122831000Y-71026333D01*
X122831000Y-71213667D01*
X122794454Y-71397396D01*
X122722766Y-71570466D01*
X122618688Y-71726230D01*
X122486230Y-71858688D01*
X122330466Y-71962766D01*
X122157396Y-72034454D01*
X121973667Y-72071000D01*
X121786333Y-72071000D01*
X121602604Y-72034454D01*
X121429534Y-71962766D01*
X121273770Y-71858688D01*
X121141312Y-71726230D01*
X121037234Y-71570466D01*
X120965546Y-71397396D01*
X120929000Y-71213667D01*
X120929000Y-71026333D01*
X120965546Y-70842604D01*
X121037234Y-70669534D01*
X121141312Y-70513770D01*
X121273770Y-70381312D01*
X121429534Y-70277234D01*
X121602604Y-70205546D01*
X121786333Y-70169000D01*
X121973667Y-70169000D01*
X122157396Y-70205546D01*
X122157396Y-70205546D01*
G37*
G36*
X124657396Y-70205546D02*
X124830466Y-70277234D01*
X124986230Y-70381312D01*
X125118688Y-70513770D01*
X125222766Y-70669534D01*
X125294454Y-70842604D01*
X125331000Y-71026333D01*
X125331000Y-71213667D01*
X125294454Y-71397396D01*
X125222766Y-71570466D01*
X125118688Y-71726230D01*
X124986230Y-71858688D01*
X124830466Y-71962766D01*
X124657396Y-72034454D01*
X124473667Y-72071000D01*
X124286333Y-72071000D01*
X124102604Y-72034454D01*
X123929534Y-71962766D01*
X123773770Y-71858688D01*
X123641312Y-71726230D01*
X123537234Y-71570466D01*
X123465546Y-71397396D01*
X123429000Y-71213667D01*
X123429000Y-71026333D01*
X123465546Y-70842604D01*
X123537234Y-70669534D01*
X123641312Y-70513770D01*
X123773770Y-70381312D01*
X123929534Y-70277234D01*
X124102604Y-70205546D01*
X124286333Y-70169000D01*
X124473667Y-70169000D01*
X124657396Y-70205546D01*
X124657396Y-70205546D01*
G37*
G36*
X158752938Y-69735716D02*
X158773556Y-69741970D01*
X158792556Y-69752126D01*
X158809208Y-69765792D01*
X158822874Y-69782444D01*
X158833030Y-69801444D01*
X158839284Y-69822062D01*
X158842000Y-69849640D01*
X158842000Y-70358360D01*
X158839284Y-70385938D01*
X158833030Y-70406556D01*
X158822874Y-70425556D01*
X158809208Y-70442208D01*
X158792556Y-70455874D01*
X158773556Y-70466030D01*
X158752938Y-70472284D01*
X158725360Y-70475000D01*
X158266640Y-70475000D01*
X158239062Y-70472284D01*
X158218444Y-70466030D01*
X158199444Y-70455874D01*
X158182792Y-70442208D01*
X158169126Y-70425556D01*
X158158970Y-70406556D01*
X158152716Y-70385938D01*
X158150000Y-70358360D01*
X158150000Y-69849640D01*
X158152716Y-69822062D01*
X158158970Y-69801444D01*
X158169126Y-69782444D01*
X158182792Y-69765792D01*
X158199444Y-69752126D01*
X158218444Y-69741970D01*
X158239062Y-69735716D01*
X158266640Y-69733000D01*
X158725360Y-69733000D01*
X158752938Y-69735716D01*
X158752938Y-69735716D01*
G37*
G36*
X159722938Y-69735716D02*
X159743556Y-69741970D01*
X159762556Y-69752126D01*
X159779208Y-69765792D01*
X159792874Y-69782444D01*
X159803030Y-69801444D01*
X159809284Y-69822062D01*
X159812000Y-69849640D01*
X159812000Y-70358360D01*
X159809284Y-70385938D01*
X159803030Y-70406556D01*
X159792874Y-70425556D01*
X159779208Y-70442208D01*
X159762556Y-70455874D01*
X159743556Y-70466030D01*
X159722938Y-70472284D01*
X159695360Y-70475000D01*
X159236640Y-70475000D01*
X159209062Y-70472284D01*
X159188444Y-70466030D01*
X159169444Y-70455874D01*
X159152792Y-70442208D01*
X159139126Y-70425556D01*
X159128970Y-70406556D01*
X159122716Y-70385938D01*
X159120000Y-70358360D01*
X159120000Y-69849640D01*
X159122716Y-69822062D01*
X159128970Y-69801444D01*
X159139126Y-69782444D01*
X159152792Y-69765792D01*
X159169444Y-69752126D01*
X159188444Y-69741970D01*
X159209062Y-69735716D01*
X159236640Y-69733000D01*
X159695360Y-69733000D01*
X159722938Y-69735716D01*
X159722938Y-69735716D01*
G37*
G36*
X160809938Y-69714716D02*
X160830556Y-69720970D01*
X160849556Y-69731126D01*
X160866208Y-69744792D01*
X160879874Y-69761444D01*
X160890030Y-69780444D01*
X160896284Y-69801062D01*
X160899000Y-69828640D01*
X160899000Y-70287360D01*
X160896284Y-70314938D01*
X160890030Y-70335556D01*
X160879874Y-70354556D01*
X160866208Y-70371208D01*
X160849556Y-70384874D01*
X160830556Y-70395030D01*
X160809938Y-70401284D01*
X160782360Y-70404000D01*
X160273640Y-70404000D01*
X160246062Y-70401284D01*
X160225444Y-70395030D01*
X160206444Y-70384874D01*
X160189792Y-70371208D01*
X160176126Y-70354556D01*
X160165970Y-70335556D01*
X160159716Y-70314938D01*
X160157000Y-70287360D01*
X160157000Y-69828640D01*
X160159716Y-69801062D01*
X160165970Y-69780444D01*
X160176126Y-69761444D01*
X160189792Y-69744792D01*
X160206444Y-69731126D01*
X160225444Y-69720970D01*
X160246062Y-69714716D01*
X160273640Y-69712000D01*
X160782360Y-69712000D01*
X160809938Y-69714716D01*
X160809938Y-69714716D01*
G37*
G36*
X149077938Y-68719716D02*
X149098556Y-68725970D01*
X149117556Y-68736126D01*
X149134208Y-68749792D01*
X149147874Y-68766444D01*
X149158030Y-68785444D01*
X149164284Y-68806062D01*
X149167000Y-68833640D01*
X149167000Y-69342360D01*
X149164284Y-69369938D01*
X149158030Y-69390556D01*
X149147874Y-69409556D01*
X149134208Y-69426208D01*
X149117556Y-69439874D01*
X149098556Y-69450030D01*
X149077938Y-69456284D01*
X149050360Y-69459000D01*
X148591640Y-69459000D01*
X148564062Y-69456284D01*
X148543444Y-69450030D01*
X148524444Y-69439874D01*
X148507792Y-69426208D01*
X148494126Y-69409556D01*
X148483970Y-69390556D01*
X148477716Y-69369938D01*
X148475000Y-69342360D01*
X148475000Y-68833640D01*
X148477716Y-68806062D01*
X148483970Y-68785444D01*
X148494126Y-68766444D01*
X148507792Y-68749792D01*
X148524444Y-68736126D01*
X148543444Y-68725970D01*
X148564062Y-68719716D01*
X148591640Y-68717000D01*
X149050360Y-68717000D01*
X149077938Y-68719716D01*
X149077938Y-68719716D01*
G37*
G36*
X148107938Y-68719716D02*
X148128556Y-68725970D01*
X148147556Y-68736126D01*
X148164208Y-68749792D01*
X148177874Y-68766444D01*
X148188030Y-68785444D01*
X148194284Y-68806062D01*
X148197000Y-68833640D01*
X148197000Y-69342360D01*
X148194284Y-69369938D01*
X148188030Y-69390556D01*
X148177874Y-69409556D01*
X148164208Y-69426208D01*
X148147556Y-69439874D01*
X148128556Y-69450030D01*
X148107938Y-69456284D01*
X148080360Y-69459000D01*
X147621640Y-69459000D01*
X147594062Y-69456284D01*
X147573444Y-69450030D01*
X147554444Y-69439874D01*
X147537792Y-69426208D01*
X147524126Y-69409556D01*
X147513970Y-69390556D01*
X147507716Y-69369938D01*
X147505000Y-69342360D01*
X147505000Y-68833640D01*
X147507716Y-68806062D01*
X147513970Y-68785444D01*
X147524126Y-68766444D01*
X147537792Y-68749792D01*
X147554444Y-68736126D01*
X147573444Y-68725970D01*
X147594062Y-68719716D01*
X147621640Y-68717000D01*
X148080360Y-68717000D01*
X148107938Y-68719716D01*
X148107938Y-68719716D01*
G37*
G36*
X160809938Y-68744716D02*
X160830556Y-68750970D01*
X160849556Y-68761126D01*
X160866208Y-68774792D01*
X160879874Y-68791444D01*
X160890030Y-68810444D01*
X160896284Y-68831062D01*
X160899000Y-68858640D01*
X160899000Y-69317360D01*
X160896284Y-69344938D01*
X160890030Y-69365556D01*
X160879874Y-69384556D01*
X160866208Y-69401208D01*
X160849556Y-69414874D01*
X160830556Y-69425030D01*
X160809938Y-69431284D01*
X160782360Y-69434000D01*
X160273640Y-69434000D01*
X160246062Y-69431284D01*
X160225444Y-69425030D01*
X160206444Y-69414874D01*
X160189792Y-69401208D01*
X160176126Y-69384556D01*
X160165970Y-69365556D01*
X160159716Y-69344938D01*
X160157000Y-69317360D01*
X160157000Y-68858640D01*
X160159716Y-68831062D01*
X160165970Y-68810444D01*
X160176126Y-68791444D01*
X160189792Y-68774792D01*
X160206444Y-68761126D01*
X160225444Y-68750970D01*
X160246062Y-68744716D01*
X160273640Y-68742000D01*
X160782360Y-68742000D01*
X160809938Y-68744716D01*
X160809938Y-68744716D01*
G37*
G36*
X135684938Y-68465716D02*
X135705556Y-68471970D01*
X135724556Y-68482126D01*
X135741208Y-68495792D01*
X135754874Y-68512444D01*
X135765030Y-68531444D01*
X135771284Y-68552062D01*
X135774000Y-68579640D01*
X135774000Y-69088360D01*
X135771284Y-69115938D01*
X135765030Y-69136556D01*
X135754874Y-69155556D01*
X135741208Y-69172208D01*
X135724556Y-69185874D01*
X135705556Y-69196030D01*
X135684938Y-69202284D01*
X135657360Y-69205000D01*
X135198640Y-69205000D01*
X135171062Y-69202284D01*
X135150444Y-69196030D01*
X135131444Y-69185874D01*
X135114792Y-69172208D01*
X135101126Y-69155556D01*
X135090970Y-69136556D01*
X135084716Y-69115938D01*
X135082000Y-69088360D01*
X135082000Y-68579640D01*
X135084716Y-68552062D01*
X135090970Y-68531444D01*
X135101126Y-68512444D01*
X135114792Y-68495792D01*
X135131444Y-68482126D01*
X135150444Y-68471970D01*
X135171062Y-68465716D01*
X135198640Y-68463000D01*
X135657360Y-68463000D01*
X135684938Y-68465716D01*
X135684938Y-68465716D01*
G37*
G36*
X136654938Y-68465716D02*
X136675556Y-68471970D01*
X136694556Y-68482126D01*
X136711208Y-68495792D01*
X136724874Y-68512444D01*
X136735030Y-68531444D01*
X136741284Y-68552062D01*
X136744000Y-68579640D01*
X136744000Y-69088360D01*
X136741284Y-69115938D01*
X136735030Y-69136556D01*
X136724874Y-69155556D01*
X136711208Y-69172208D01*
X136694556Y-69185874D01*
X136675556Y-69196030D01*
X136654938Y-69202284D01*
X136627360Y-69205000D01*
X136168640Y-69205000D01*
X136141062Y-69202284D01*
X136120444Y-69196030D01*
X136101444Y-69185874D01*
X136084792Y-69172208D01*
X136071126Y-69155556D01*
X136060970Y-69136556D01*
X136054716Y-69115938D01*
X136052000Y-69088360D01*
X136052000Y-68579640D01*
X136054716Y-68552062D01*
X136060970Y-68531444D01*
X136071126Y-68512444D01*
X136084792Y-68495792D01*
X136101444Y-68482126D01*
X136120444Y-68471970D01*
X136141062Y-68465716D01*
X136168640Y-68463000D01*
X136627360Y-68463000D01*
X136654938Y-68465716D01*
X136654938Y-68465716D01*
G37*
G36*
X140340252Y-62147818D02*
X140340254Y-62147819D01*
X140340255Y-62147819D01*
X140713513Y-62302427D01*
X140713514Y-62302428D01*
X141049439Y-62526886D01*
X141335114Y-62812561D01*
X141335116Y-62812564D01*
X141559573Y-63148487D01*
X141714181Y-63521745D01*
X141793000Y-63917994D01*
X141793000Y-64322006D01*
X141714181Y-64718255D01*
X141559573Y-65091513D01*
X141559572Y-65091514D01*
X141335114Y-65427439D01*
X141049439Y-65713114D01*
X141049436Y-65713116D01*
X140713513Y-65937573D01*
X140340255Y-66092181D01*
X140340254Y-66092181D01*
X140340252Y-66092182D01*
X139944007Y-66171000D01*
X139539993Y-66171000D01*
X139143748Y-66092182D01*
X139143746Y-66092181D01*
X139143745Y-66092181D01*
X138770487Y-65937573D01*
X138434564Y-65713116D01*
X138434561Y-65713114D01*
X138148886Y-65427439D01*
X137924428Y-65091514D01*
X137924427Y-65091513D01*
X137769819Y-64718255D01*
X137691000Y-64322006D01*
X137691000Y-63917994D01*
X137769819Y-63521745D01*
X137924427Y-63148487D01*
X138148884Y-62812564D01*
X138148886Y-62812561D01*
X138434561Y-62526886D01*
X138770486Y-62302428D01*
X138770487Y-62302427D01*
X139143745Y-62147819D01*
X139143746Y-62147819D01*
X139143748Y-62147818D01*
X139539993Y-62069000D01*
X139944007Y-62069000D01*
X140340252Y-62147818D01*
X140340252Y-62147818D01*
G37*
G36*
X153802252Y-62147818D02*
X153802254Y-62147819D01*
X153802255Y-62147819D01*
X154175513Y-62302427D01*
X154175514Y-62302428D01*
X154511439Y-62526886D01*
X154797114Y-62812561D01*
X154797116Y-62812564D01*
X155021573Y-63148487D01*
X155176181Y-63521745D01*
X155255000Y-63917994D01*
X155255000Y-64322006D01*
X155176181Y-64718255D01*
X155021573Y-65091513D01*
X155021572Y-65091514D01*
X154797114Y-65427439D01*
X154511439Y-65713114D01*
X154511436Y-65713116D01*
X154175513Y-65937573D01*
X153802255Y-66092181D01*
X153802254Y-66092181D01*
X153802252Y-66092182D01*
X153406007Y-66171000D01*
X153001993Y-66171000D01*
X152605748Y-66092182D01*
X152605746Y-66092181D01*
X152605745Y-66092181D01*
X152232487Y-65937573D01*
X151896564Y-65713116D01*
X151896561Y-65713114D01*
X151610886Y-65427439D01*
X151386428Y-65091514D01*
X151386427Y-65091513D01*
X151231819Y-64718255D01*
X151153000Y-64322006D01*
X151153000Y-63917994D01*
X151231819Y-63521745D01*
X151386427Y-63148487D01*
X151610884Y-62812564D01*
X151610886Y-62812561D01*
X151896561Y-62526886D01*
X152232486Y-62302428D01*
X152232487Y-62302427D01*
X152605745Y-62147819D01*
X152605746Y-62147819D01*
X152605748Y-62147818D01*
X153001993Y-62069000D01*
X153406007Y-62069000D01*
X153802252Y-62147818D01*
X153802252Y-62147818D01*
G37*
G36*
X145002252Y-62147818D02*
X145002254Y-62147819D01*
X145002255Y-62147819D01*
X145375513Y-62302427D01*
X145375514Y-62302428D01*
X145711439Y-62526886D01*
X145997114Y-62812561D01*
X145997116Y-62812564D01*
X146221573Y-63148487D01*
X146376181Y-63521745D01*
X146455000Y-63917994D01*
X146455000Y-64322006D01*
X146376181Y-64718255D01*
X146221573Y-65091513D01*
X146221572Y-65091514D01*
X145997114Y-65427439D01*
X145711439Y-65713114D01*
X145711436Y-65713116D01*
X145375513Y-65937573D01*
X145002255Y-66092181D01*
X145002254Y-66092181D01*
X145002252Y-66092182D01*
X144606007Y-66171000D01*
X144201993Y-66171000D01*
X143805748Y-66092182D01*
X143805746Y-66092181D01*
X143805745Y-66092181D01*
X143432487Y-65937573D01*
X143096564Y-65713116D01*
X143096561Y-65713114D01*
X142810886Y-65427439D01*
X142586428Y-65091514D01*
X142586427Y-65091513D01*
X142431819Y-64718255D01*
X142353000Y-64322006D01*
X142353000Y-63917994D01*
X142431819Y-63521745D01*
X142586427Y-63148487D01*
X142810884Y-62812564D01*
X142810886Y-62812561D01*
X143096561Y-62526886D01*
X143432486Y-62302428D01*
X143432487Y-62302427D01*
X143805745Y-62147819D01*
X143805746Y-62147819D01*
X143805748Y-62147818D01*
X144201993Y-62069000D01*
X144606007Y-62069000D01*
X145002252Y-62147818D01*
X145002252Y-62147818D01*
G37*
G36*
X131540252Y-62147818D02*
X131540254Y-62147819D01*
X131540255Y-62147819D01*
X131913513Y-62302427D01*
X131913514Y-62302428D01*
X132249439Y-62526886D01*
X132535114Y-62812561D01*
X132535116Y-62812564D01*
X132759573Y-63148487D01*
X132914181Y-63521745D01*
X132993000Y-63917994D01*
X132993000Y-64322006D01*
X132914181Y-64718255D01*
X132759573Y-65091513D01*
X132759572Y-65091514D01*
X132535114Y-65427439D01*
X132249439Y-65713114D01*
X132249436Y-65713116D01*
X131913513Y-65937573D01*
X131540255Y-66092181D01*
X131540254Y-66092181D01*
X131540252Y-66092182D01*
X131144007Y-66171000D01*
X130739993Y-66171000D01*
X130343748Y-66092182D01*
X130343746Y-66092181D01*
X130343745Y-66092181D01*
X129970487Y-65937573D01*
X129634564Y-65713116D01*
X129634561Y-65713114D01*
X129348886Y-65427439D01*
X129124428Y-65091514D01*
X129124427Y-65091513D01*
X128969819Y-64718255D01*
X128891000Y-64322006D01*
X128891000Y-63917994D01*
X128969819Y-63521745D01*
X129124427Y-63148487D01*
X129348884Y-62812564D01*
X129348886Y-62812561D01*
X129634561Y-62526886D01*
X129970486Y-62302428D01*
X129970487Y-62302427D01*
X130343745Y-62147819D01*
X130343746Y-62147819D01*
X130343748Y-62147818D01*
X130739993Y-62069000D01*
X131144007Y-62069000D01*
X131540252Y-62147818D01*
X131540252Y-62147818D01*
G37*
G36*
X126878252Y-62147818D02*
X126878254Y-62147819D01*
X126878255Y-62147819D01*
X127251513Y-62302427D01*
X127251514Y-62302428D01*
X127587439Y-62526886D01*
X127873114Y-62812561D01*
X127873116Y-62812564D01*
X128097573Y-63148487D01*
X128252181Y-63521745D01*
X128331000Y-63917994D01*
X128331000Y-64322006D01*
X128252181Y-64718255D01*
X128097573Y-65091513D01*
X128097572Y-65091514D01*
X127873114Y-65427439D01*
X127587439Y-65713114D01*
X127587436Y-65713116D01*
X127251513Y-65937573D01*
X126878255Y-66092181D01*
X126878254Y-66092181D01*
X126878252Y-66092182D01*
X126482007Y-66171000D01*
X126077993Y-66171000D01*
X125681748Y-66092182D01*
X125681746Y-66092181D01*
X125681745Y-66092181D01*
X125308487Y-65937573D01*
X124972564Y-65713116D01*
X124972561Y-65713114D01*
X124686886Y-65427439D01*
X124462428Y-65091514D01*
X124462427Y-65091513D01*
X124307819Y-64718255D01*
X124229000Y-64322006D01*
X124229000Y-63917994D01*
X124307819Y-63521745D01*
X124462427Y-63148487D01*
X124686884Y-62812564D01*
X124686886Y-62812561D01*
X124972561Y-62526886D01*
X125308486Y-62302428D01*
X125308487Y-62302427D01*
X125681745Y-62147819D01*
X125681746Y-62147819D01*
X125681748Y-62147818D01*
X126077993Y-62069000D01*
X126482007Y-62069000D01*
X126878252Y-62147818D01*
X126878252Y-62147818D01*
G37*
G36*
X118078252Y-62147818D02*
X118078254Y-62147819D01*
X118078255Y-62147819D01*
X118451513Y-62302427D01*
X118451514Y-62302428D01*
X118787439Y-62526886D01*
X119073114Y-62812561D01*
X119073116Y-62812564D01*
X119297573Y-63148487D01*
X119452181Y-63521745D01*
X119531000Y-63917994D01*
X119531000Y-64322006D01*
X119452181Y-64718255D01*
X119297573Y-65091513D01*
X119297572Y-65091514D01*
X119073114Y-65427439D01*
X118787439Y-65713114D01*
X118787436Y-65713116D01*
X118451513Y-65937573D01*
X118078255Y-66092181D01*
X118078254Y-66092181D01*
X118078252Y-66092182D01*
X117682007Y-66171000D01*
X117277993Y-66171000D01*
X116881748Y-66092182D01*
X116881746Y-66092181D01*
X116881745Y-66092181D01*
X116508487Y-65937573D01*
X116172564Y-65713116D01*
X116172561Y-65713114D01*
X115886886Y-65427439D01*
X115662428Y-65091514D01*
X115662427Y-65091513D01*
X115507819Y-64718255D01*
X115429000Y-64322006D01*
X115429000Y-63917994D01*
X115507819Y-63521745D01*
X115662427Y-63148487D01*
X115886884Y-62812564D01*
X115886886Y-62812561D01*
X116172561Y-62526886D01*
X116508486Y-62302428D01*
X116508487Y-62302427D01*
X116881745Y-62147819D01*
X116881746Y-62147819D01*
X116881748Y-62147818D01*
X117277993Y-62069000D01*
X117682007Y-62069000D01*
X118078252Y-62147818D01*
X118078252Y-62147818D01*
G37*
M02*
