M48
;DRILL file {KiCad (5.0.2)-1} date 20/02/2019 11:38:19
;FORMAT={-:-/ absolute / inch / decimal}
FMAT,2
INCH,TZ
T1C0.0157
T2C0.0295
T3C0.0354
T4C0.0394
T5C0.0591
T6C0.0787
%
G90
G05
T1
X4.385Y-3.26
X4.505Y-3.21
X4.595Y-3.82
X4.635Y-3.09
X4.76Y-3.645
X4.825Y-3.58
X4.845Y-4.71
X4.875Y-3.585
X4.915Y-3.35
X4.96Y-3.86
X5.Y-2.96
X5.0122Y-3.0522
X5.015Y-3.825
X5.02Y-3.37
X5.065Y-2.795
X5.23Y-5.13
X5.26Y-4.72
X5.295Y-2.885
X5.33Y-3.125
X5.54Y-4.105
X5.68Y-3.29
X5.685Y-3.39
X5.71Y-4.06
X5.76Y-3.565
X5.82Y-2.99
X5.8228Y-4.63
X5.845Y-3.3
X5.855Y-3.135
X5.8854Y-3.23
X5.945Y-3.525
X5.96Y-3.365
X5.96Y-4.5542
X5.985Y-3.31
X6.05Y-3.335
X6.075Y-4.72
X6.12Y-3.3
X6.205Y-3.625
X6.225Y-3.23
X6.2854Y-3.885
X6.305Y-3.6
X6.315Y-3.415
X6.32Y-3.335
X6.365Y-3.385
X6.365Y-3.845
X6.4134Y-3.975
X6.5024Y-3.56
X6.5024Y-3.605
T2
X5.02Y-3.94
X5.07Y-3.94
X5.12Y-3.94
X5.54Y-3.94
X5.59Y-3.94
X5.64Y-3.94
T3
X6.14Y-2.87
X6.2187Y-2.87
X6.2975Y-2.87
T4
X5.75Y-3.94
X5.8484Y-3.94
X5.9469Y-3.94
X4.57Y-4.51
X4.6684Y-4.51
X4.7669Y-4.51
X4.38Y-3.52
X4.38Y-3.62
X4.38Y-3.72
X4.38Y-3.82
X4.38Y-3.92
X4.48Y-3.52
X4.48Y-3.62
X4.48Y-3.72
X4.48Y-3.82
X4.48Y-3.92
X5.23Y-3.94
X5.3284Y-3.94
X5.4269Y-3.94
X5.23Y-3.37
X5.3284Y-3.37
X5.4269Y-3.37
X4.71Y-3.94
X4.8084Y-3.94
X4.9069Y-3.94
X4.7Y-2.8
X4.7984Y-2.8
X4.8969Y-2.8
X5.91Y-4.51
X6.0084Y-4.51
X6.1069Y-4.51
X5.76Y-2.8
X5.8584Y-2.8
X5.9569Y-2.8
X5.23Y-2.8
X5.3284Y-2.8
X5.4269Y-2.8
T5
X6.0573Y-2.87
X6.3802Y-2.87
T6
X4.6352Y-3.6644
X4.9817Y-3.6644
X4.6252Y-2.5244
X4.9717Y-2.5244
X5.8352Y-4.2344
X6.1817Y-4.2344
X5.6852Y-2.5244
X6.0317Y-2.5244
X5.1552Y-2.5244
X5.5017Y-2.5244
X5.6752Y-3.6644
X6.0217Y-3.6644
X4.4952Y-4.2344
X4.8417Y-4.2344
X5.1552Y-3.6644
X5.5017Y-3.6644
X5.1552Y-3.0944
X5.5017Y-3.0944
T4
X6.0797Y-4.84G85X6.0403Y-4.84
G05
X6.1797Y-4.64G85X6.1403Y-4.64
G05
X6.1797Y-4.94G85X6.1403Y-4.94
G05
X6.2797Y-4.78G85X6.2403Y-4.78
G05
X4.4397Y-4.84G85X4.4003Y-4.84
G05
X4.5397Y-4.64G85X4.5003Y-4.64
G05
X4.5397Y-4.94G85X4.5003Y-4.94
G05
X4.6397Y-4.78G85X4.6003Y-4.78
G05
X5.4597Y-4.39G85X5.4203Y-4.39
G05
X5.5597Y-4.19G85X5.5203Y-4.19
G05
X5.5597Y-4.49G85X5.5203Y-4.49
G05
X5.6597Y-4.33G85X5.6203Y-4.33
G05
X5.4697Y-5.26G85X5.4303Y-5.26
G05
X5.5697Y-5.06G85X5.5303Y-5.06
G05
X5.5697Y-5.36G85X5.5303Y-5.36
G05
X5.6697Y-5.2G85X5.6303Y-5.2
G05
X5.0597Y-5.26G85X5.0203Y-5.26
G05
X5.1597Y-5.06G85X5.1203Y-5.06
G05
X5.1597Y-5.36G85X5.1203Y-5.36
G05
X5.2597Y-5.2G85X5.2203Y-5.2
G05
X5.0497Y-4.39G85X5.0103Y-4.39
G05
X5.1497Y-4.19G85X5.1103Y-4.19
G05
X5.1497Y-4.49G85X5.1103Y-4.49
G05
X5.2497Y-4.33G85X5.2103Y-4.33
G05
X5.6697Y-4.84G85X5.6303Y-4.84
G05
X5.7697Y-4.64G85X5.7303Y-4.64
G05
X5.7697Y-4.94G85X5.7303Y-4.94
G05
X5.8697Y-4.78G85X5.8303Y-4.78
G05
X6.1397Y-3.23G85X6.1003Y-3.23
G05
X6.2397Y-3.03G85X6.2003Y-3.03
G05
X6.2397Y-3.33G85X6.2003Y-3.33
G05
X6.3397Y-3.17G85X6.3003Y-3.17
G05
X4.8497Y-4.84G85X4.8103Y-4.84
G05
X4.9497Y-4.64G85X4.9103Y-4.64
G05
X4.9497Y-4.94G85X4.9103Y-4.94
G05
X5.0497Y-4.78G85X5.0103Y-4.78
G05
X5.2597Y-4.84G85X5.2203Y-4.84
G05
X5.3597Y-4.64G85X5.3203Y-4.64
G05
X5.3597Y-4.94G85X5.3203Y-4.94
G05
X5.4597Y-4.78G85X5.4203Y-4.78
G05
T0
M30
