G04 #@! TF.GenerationSoftware,KiCad,Pcbnew,(5.0.2)-1*
G04 #@! TF.CreationDate,2019-03-15T10:50:12+00:00*
G04 #@! TF.ProjectId,mixer,6d697865-722e-46b6-9963-61645f706362,rev?*
G04 #@! TF.SameCoordinates,Original*
G04 #@! TF.FileFunction,Soldermask,Top*
G04 #@! TF.FilePolarity,Negative*
%FSLAX46Y46*%
G04 Gerber Fmt 4.6, Leading zero omitted, Abs format (unit mm)*
G04 Created by KiCad (PCBNEW (5.0.2)-1) date 15/03/2019 10:50:12*
%MOMM*%
%LPD*%
G01*
G04 APERTURE LIST*
%ADD10C,0.100000*%
G04 APERTURE END LIST*
D10*
G36*
X99816228Y-67507703D02*
X99971100Y-67571853D01*
X100110481Y-67664985D01*
X100229015Y-67783519D01*
X100322147Y-67922900D01*
X100386297Y-68077772D01*
X100419000Y-68242184D01*
X100419000Y-68409816D01*
X100386297Y-68574228D01*
X100322147Y-68729100D01*
X100229015Y-68868481D01*
X100110481Y-68987015D01*
X99971100Y-69080147D01*
X99816228Y-69144297D01*
X99651816Y-69177000D01*
X99484184Y-69177000D01*
X99319772Y-69144297D01*
X99164900Y-69080147D01*
X99025519Y-68987015D01*
X98906985Y-68868481D01*
X98813853Y-68729100D01*
X98749703Y-68574228D01*
X98717000Y-68409816D01*
X98717000Y-68242184D01*
X98749703Y-68077772D01*
X98813853Y-67922900D01*
X98906985Y-67783519D01*
X99025519Y-67664985D01*
X99164900Y-67571853D01*
X99319772Y-67507703D01*
X99484184Y-67475000D01*
X99651816Y-67475000D01*
X99816228Y-67507703D01*
X99816228Y-67507703D01*
G37*
G36*
X97316228Y-67507703D02*
X97471100Y-67571853D01*
X97610481Y-67664985D01*
X97729015Y-67783519D01*
X97822147Y-67922900D01*
X97886297Y-68077772D01*
X97919000Y-68242184D01*
X97919000Y-68409816D01*
X97886297Y-68574228D01*
X97822147Y-68729100D01*
X97729015Y-68868481D01*
X97610481Y-68987015D01*
X97471100Y-69080147D01*
X97316228Y-69144297D01*
X97151816Y-69177000D01*
X96984184Y-69177000D01*
X96819772Y-69144297D01*
X96664900Y-69080147D01*
X96525519Y-68987015D01*
X96406985Y-68868481D01*
X96313853Y-68729100D01*
X96249703Y-68574228D01*
X96217000Y-68409816D01*
X96217000Y-68242184D01*
X96249703Y-68077772D01*
X96313853Y-67922900D01*
X96406985Y-67783519D01*
X96525519Y-67664985D01*
X96664900Y-67571853D01*
X96819772Y-67507703D01*
X96984184Y-67475000D01*
X97151816Y-67475000D01*
X97316228Y-67507703D01*
X97316228Y-67507703D01*
G37*
G36*
X102610228Y-63951703D02*
X102765100Y-64015853D01*
X102904481Y-64108985D01*
X103023015Y-64227519D01*
X103116147Y-64366900D01*
X103180297Y-64521772D01*
X103213000Y-64686184D01*
X103213000Y-64853816D01*
X103180297Y-65018228D01*
X103116147Y-65173100D01*
X103023015Y-65312481D01*
X102904481Y-65431015D01*
X102765100Y-65524147D01*
X102610228Y-65588297D01*
X102445816Y-65621000D01*
X102278184Y-65621000D01*
X102113772Y-65588297D01*
X101958900Y-65524147D01*
X101819519Y-65431015D01*
X101700985Y-65312481D01*
X101607853Y-65173100D01*
X101543703Y-65018228D01*
X101511000Y-64853816D01*
X101511000Y-64686184D01*
X101543703Y-64521772D01*
X101607853Y-64366900D01*
X101700985Y-64227519D01*
X101819519Y-64108985D01*
X101958900Y-64015853D01*
X102113772Y-63951703D01*
X102278184Y-63919000D01*
X102445816Y-63919000D01*
X102610228Y-63951703D01*
X102610228Y-63951703D01*
G37*
G36*
X112688821Y-63931313D02*
X112688824Y-63931314D01*
X112688825Y-63931314D01*
X112849239Y-63979975D01*
X112849241Y-63979976D01*
X112849244Y-63979977D01*
X112997078Y-64058995D01*
X113126659Y-64165341D01*
X113233005Y-64294922D01*
X113312023Y-64442756D01*
X113312024Y-64442759D01*
X113312025Y-64442761D01*
X113360686Y-64603175D01*
X113360687Y-64603179D01*
X113377117Y-64770000D01*
X113360687Y-64936821D01*
X113360686Y-64936824D01*
X113360686Y-64936825D01*
X113335993Y-65018228D01*
X113312023Y-65097244D01*
X113233005Y-65245078D01*
X113126659Y-65374659D01*
X112997078Y-65481005D01*
X112849244Y-65560023D01*
X112849241Y-65560024D01*
X112849239Y-65560025D01*
X112688825Y-65608686D01*
X112688824Y-65608686D01*
X112688821Y-65608687D01*
X112563804Y-65621000D01*
X112480196Y-65621000D01*
X112355179Y-65608687D01*
X112355176Y-65608686D01*
X112355175Y-65608686D01*
X112194761Y-65560025D01*
X112194759Y-65560024D01*
X112194756Y-65560023D01*
X112046922Y-65481005D01*
X111917341Y-65374659D01*
X111810995Y-65245078D01*
X111731977Y-65097244D01*
X111708008Y-65018228D01*
X111683314Y-64936825D01*
X111683314Y-64936824D01*
X111683313Y-64936821D01*
X111666883Y-64770000D01*
X111683313Y-64603179D01*
X111683314Y-64603175D01*
X111731975Y-64442761D01*
X111731976Y-64442759D01*
X111731977Y-64442756D01*
X111810995Y-64294922D01*
X111917341Y-64165341D01*
X112046922Y-64058995D01*
X112194756Y-63979977D01*
X112194759Y-63979976D01*
X112194761Y-63979975D01*
X112355175Y-63931314D01*
X112355176Y-63931314D01*
X112355179Y-63931313D01*
X112480196Y-63919000D01*
X112563804Y-63919000D01*
X112688821Y-63931313D01*
X112688821Y-63931313D01*
G37*
G36*
X99757473Y-63948939D02*
X99885050Y-64001783D01*
X99999866Y-64078501D01*
X100097501Y-64176136D01*
X100174219Y-64290952D01*
X100227063Y-64418529D01*
X100254001Y-64553957D01*
X100254001Y-64692045D01*
X100227063Y-64827473D01*
X100174219Y-64955050D01*
X100097501Y-65069866D01*
X99999866Y-65167501D01*
X99885050Y-65244219D01*
X99757473Y-65297063D01*
X99622045Y-65324001D01*
X99483957Y-65324001D01*
X99348529Y-65297063D01*
X99220952Y-65244219D01*
X99106136Y-65167501D01*
X99008501Y-65069866D01*
X98931783Y-64955050D01*
X98878939Y-64827473D01*
X98852001Y-64692045D01*
X98852001Y-64553957D01*
X98878939Y-64418529D01*
X98931783Y-64290952D01*
X99008501Y-64176136D01*
X99106136Y-64078501D01*
X99220952Y-64001783D01*
X99348529Y-63948939D01*
X99483957Y-63922001D01*
X99622045Y-63922001D01*
X99757473Y-63948939D01*
X99757473Y-63948939D01*
G37*
G36*
X98487473Y-62678939D02*
X98615050Y-62731783D01*
X98729866Y-62808501D01*
X98827501Y-62906136D01*
X98904219Y-63020952D01*
X98957063Y-63148529D01*
X98984001Y-63283957D01*
X98984001Y-63422045D01*
X98957063Y-63557473D01*
X98904219Y-63685050D01*
X98827501Y-63799866D01*
X98729866Y-63897501D01*
X98615050Y-63974219D01*
X98487473Y-64027063D01*
X98352045Y-64054001D01*
X98213957Y-64054001D01*
X98078529Y-64027063D01*
X97950952Y-63974219D01*
X97908447Y-63945818D01*
X97886836Y-63934267D01*
X97863387Y-63927154D01*
X97839001Y-63924752D01*
X97814615Y-63927154D01*
X97791165Y-63934267D01*
X97769555Y-63945818D01*
X97750613Y-63961364D01*
X97735067Y-63980306D01*
X97723516Y-64001917D01*
X97716403Y-64025366D01*
X97714001Y-64049752D01*
X97714001Y-65324001D01*
X96312001Y-65324001D01*
X96312001Y-63922001D01*
X97586250Y-63922001D01*
X97610636Y-63919599D01*
X97634085Y-63912486D01*
X97655696Y-63900935D01*
X97674638Y-63885389D01*
X97690184Y-63866447D01*
X97701735Y-63844836D01*
X97708848Y-63821387D01*
X97711250Y-63797001D01*
X97708848Y-63772615D01*
X97701735Y-63749166D01*
X97690184Y-63727555D01*
X97661783Y-63685050D01*
X97608939Y-63557473D01*
X97582001Y-63422045D01*
X97582001Y-63283957D01*
X97608939Y-63148529D01*
X97661783Y-63020952D01*
X97738501Y-62906136D01*
X97836136Y-62808501D01*
X97950952Y-62731783D01*
X98078529Y-62678939D01*
X98213957Y-62652001D01*
X98352045Y-62652001D01*
X98487473Y-62678939D01*
X98487473Y-62678939D01*
G37*
G36*
X90209821Y-61391313D02*
X90209824Y-61391314D01*
X90209825Y-61391314D01*
X90370239Y-61439975D01*
X90370241Y-61439976D01*
X90370244Y-61439977D01*
X90518078Y-61518995D01*
X90647659Y-61625341D01*
X90754005Y-61754922D01*
X90833023Y-61902756D01*
X90881687Y-62063179D01*
X90898117Y-62230000D01*
X90881687Y-62396821D01*
X90833023Y-62557244D01*
X90754005Y-62705078D01*
X90647659Y-62834659D01*
X90518078Y-62941005D01*
X90370244Y-63020023D01*
X90370241Y-63020024D01*
X90370239Y-63020025D01*
X90209825Y-63068686D01*
X90209824Y-63068686D01*
X90209821Y-63068687D01*
X90084804Y-63081000D01*
X90001196Y-63081000D01*
X89876179Y-63068687D01*
X89876176Y-63068686D01*
X89876175Y-63068686D01*
X89715761Y-63020025D01*
X89715759Y-63020024D01*
X89715756Y-63020023D01*
X89567922Y-62941005D01*
X89438341Y-62834659D01*
X89331995Y-62705078D01*
X89252977Y-62557244D01*
X89204313Y-62396821D01*
X89187883Y-62230000D01*
X89204313Y-62063179D01*
X89252977Y-61902756D01*
X89331995Y-61754922D01*
X89438341Y-61625341D01*
X89567922Y-61518995D01*
X89715756Y-61439977D01*
X89715759Y-61439976D01*
X89715761Y-61439975D01*
X89876175Y-61391314D01*
X89876176Y-61391314D01*
X89876179Y-61391313D01*
X90001196Y-61379000D01*
X90084804Y-61379000D01*
X90209821Y-61391313D01*
X90209821Y-61391313D01*
G37*
G36*
X87669821Y-61391313D02*
X87669824Y-61391314D01*
X87669825Y-61391314D01*
X87830239Y-61439975D01*
X87830241Y-61439976D01*
X87830244Y-61439977D01*
X87978078Y-61518995D01*
X88107659Y-61625341D01*
X88214005Y-61754922D01*
X88293023Y-61902756D01*
X88341687Y-62063179D01*
X88358117Y-62230000D01*
X88341687Y-62396821D01*
X88293023Y-62557244D01*
X88214005Y-62705078D01*
X88107659Y-62834659D01*
X87978078Y-62941005D01*
X87830244Y-63020023D01*
X87830241Y-63020024D01*
X87830239Y-63020025D01*
X87669825Y-63068686D01*
X87669824Y-63068686D01*
X87669821Y-63068687D01*
X87544804Y-63081000D01*
X87461196Y-63081000D01*
X87336179Y-63068687D01*
X87336176Y-63068686D01*
X87336175Y-63068686D01*
X87175761Y-63020025D01*
X87175759Y-63020024D01*
X87175756Y-63020023D01*
X87027922Y-62941005D01*
X86898341Y-62834659D01*
X86791995Y-62705078D01*
X86712977Y-62557244D01*
X86664313Y-62396821D01*
X86647883Y-62230000D01*
X86664313Y-62063179D01*
X86712977Y-61902756D01*
X86791995Y-61754922D01*
X86898341Y-61625341D01*
X87027922Y-61518995D01*
X87175756Y-61439977D01*
X87175759Y-61439976D01*
X87175761Y-61439975D01*
X87336175Y-61391314D01*
X87336176Y-61391314D01*
X87336179Y-61391313D01*
X87461196Y-61379000D01*
X87544804Y-61379000D01*
X87669821Y-61391313D01*
X87669821Y-61391313D01*
G37*
G36*
X85129821Y-61391313D02*
X85129824Y-61391314D01*
X85129825Y-61391314D01*
X85290239Y-61439975D01*
X85290241Y-61439976D01*
X85290244Y-61439977D01*
X85438078Y-61518995D01*
X85567659Y-61625341D01*
X85674005Y-61754922D01*
X85753023Y-61902756D01*
X85801687Y-62063179D01*
X85818117Y-62230000D01*
X85801687Y-62396821D01*
X85753023Y-62557244D01*
X85674005Y-62705078D01*
X85567659Y-62834659D01*
X85438078Y-62941005D01*
X85290244Y-63020023D01*
X85290241Y-63020024D01*
X85290239Y-63020025D01*
X85129825Y-63068686D01*
X85129824Y-63068686D01*
X85129821Y-63068687D01*
X85004804Y-63081000D01*
X84921196Y-63081000D01*
X84796179Y-63068687D01*
X84796176Y-63068686D01*
X84796175Y-63068686D01*
X84635761Y-63020025D01*
X84635759Y-63020024D01*
X84635756Y-63020023D01*
X84487922Y-62941005D01*
X84358341Y-62834659D01*
X84251995Y-62705078D01*
X84172977Y-62557244D01*
X84124313Y-62396821D01*
X84107883Y-62230000D01*
X84124313Y-62063179D01*
X84172977Y-61902756D01*
X84251995Y-61754922D01*
X84358341Y-61625341D01*
X84487922Y-61518995D01*
X84635756Y-61439977D01*
X84635759Y-61439976D01*
X84635761Y-61439975D01*
X84796175Y-61391314D01*
X84796176Y-61391314D01*
X84796179Y-61391313D01*
X84921196Y-61379000D01*
X85004804Y-61379000D01*
X85129821Y-61391313D01*
X85129821Y-61391313D01*
G37*
G36*
X82589821Y-61391313D02*
X82589824Y-61391314D01*
X82589825Y-61391314D01*
X82750239Y-61439975D01*
X82750241Y-61439976D01*
X82750244Y-61439977D01*
X82898078Y-61518995D01*
X83027659Y-61625341D01*
X83134005Y-61754922D01*
X83213023Y-61902756D01*
X83261687Y-62063179D01*
X83278117Y-62230000D01*
X83261687Y-62396821D01*
X83213023Y-62557244D01*
X83134005Y-62705078D01*
X83027659Y-62834659D01*
X82898078Y-62941005D01*
X82750244Y-63020023D01*
X82750241Y-63020024D01*
X82750239Y-63020025D01*
X82589825Y-63068686D01*
X82589824Y-63068686D01*
X82589821Y-63068687D01*
X82464804Y-63081000D01*
X82381196Y-63081000D01*
X82256179Y-63068687D01*
X82256176Y-63068686D01*
X82256175Y-63068686D01*
X82095761Y-63020025D01*
X82095759Y-63020024D01*
X82095756Y-63020023D01*
X81947922Y-62941005D01*
X81818341Y-62834659D01*
X81711995Y-62705078D01*
X81632977Y-62557244D01*
X81584313Y-62396821D01*
X81567883Y-62230000D01*
X81584313Y-62063179D01*
X81632977Y-61902756D01*
X81711995Y-61754922D01*
X81818341Y-61625341D01*
X81947922Y-61518995D01*
X82095756Y-61439977D01*
X82095759Y-61439976D01*
X82095761Y-61439975D01*
X82256175Y-61391314D01*
X82256176Y-61391314D01*
X82256179Y-61391313D01*
X82381196Y-61379000D01*
X82464804Y-61379000D01*
X82589821Y-61391313D01*
X82589821Y-61391313D01*
G37*
G36*
X80049821Y-61391313D02*
X80049824Y-61391314D01*
X80049825Y-61391314D01*
X80210239Y-61439975D01*
X80210241Y-61439976D01*
X80210244Y-61439977D01*
X80358078Y-61518995D01*
X80487659Y-61625341D01*
X80594005Y-61754922D01*
X80673023Y-61902756D01*
X80721687Y-62063179D01*
X80738117Y-62230000D01*
X80721687Y-62396821D01*
X80673023Y-62557244D01*
X80594005Y-62705078D01*
X80487659Y-62834659D01*
X80358078Y-62941005D01*
X80210244Y-63020023D01*
X80210241Y-63020024D01*
X80210239Y-63020025D01*
X80049825Y-63068686D01*
X80049824Y-63068686D01*
X80049821Y-63068687D01*
X79924804Y-63081000D01*
X79841196Y-63081000D01*
X79716179Y-63068687D01*
X79716176Y-63068686D01*
X79716175Y-63068686D01*
X79555761Y-63020025D01*
X79555759Y-63020024D01*
X79555756Y-63020023D01*
X79407922Y-62941005D01*
X79278341Y-62834659D01*
X79171995Y-62705078D01*
X79092977Y-62557244D01*
X79044313Y-62396821D01*
X79027883Y-62230000D01*
X79044313Y-62063179D01*
X79092977Y-61902756D01*
X79171995Y-61754922D01*
X79278341Y-61625341D01*
X79407922Y-61518995D01*
X79555756Y-61439977D01*
X79555759Y-61439976D01*
X79555761Y-61439975D01*
X79716175Y-61391314D01*
X79716176Y-61391314D01*
X79716179Y-61391313D01*
X79841196Y-61379000D01*
X79924804Y-61379000D01*
X80049821Y-61391313D01*
X80049821Y-61391313D01*
G37*
G36*
X77509821Y-61391313D02*
X77509824Y-61391314D01*
X77509825Y-61391314D01*
X77670239Y-61439975D01*
X77670241Y-61439976D01*
X77670244Y-61439977D01*
X77818078Y-61518995D01*
X77947659Y-61625341D01*
X78054005Y-61754922D01*
X78133023Y-61902756D01*
X78181687Y-62063179D01*
X78198117Y-62230000D01*
X78181687Y-62396821D01*
X78133023Y-62557244D01*
X78054005Y-62705078D01*
X77947659Y-62834659D01*
X77818078Y-62941005D01*
X77670244Y-63020023D01*
X77670241Y-63020024D01*
X77670239Y-63020025D01*
X77509825Y-63068686D01*
X77509824Y-63068686D01*
X77509821Y-63068687D01*
X77384804Y-63081000D01*
X77301196Y-63081000D01*
X77176179Y-63068687D01*
X77176176Y-63068686D01*
X77176175Y-63068686D01*
X77015761Y-63020025D01*
X77015759Y-63020024D01*
X77015756Y-63020023D01*
X76867922Y-62941005D01*
X76738341Y-62834659D01*
X76631995Y-62705078D01*
X76552977Y-62557244D01*
X76504313Y-62396821D01*
X76487883Y-62230000D01*
X76504313Y-62063179D01*
X76552977Y-61902756D01*
X76631995Y-61754922D01*
X76738341Y-61625341D01*
X76867922Y-61518995D01*
X77015756Y-61439977D01*
X77015759Y-61439976D01*
X77015761Y-61439975D01*
X77176175Y-61391314D01*
X77176176Y-61391314D01*
X77176179Y-61391313D01*
X77301196Y-61379000D01*
X77384804Y-61379000D01*
X77509821Y-61391313D01*
X77509821Y-61391313D01*
G37*
G36*
X74969821Y-61391313D02*
X74969824Y-61391314D01*
X74969825Y-61391314D01*
X75130239Y-61439975D01*
X75130241Y-61439976D01*
X75130244Y-61439977D01*
X75278078Y-61518995D01*
X75407659Y-61625341D01*
X75514005Y-61754922D01*
X75593023Y-61902756D01*
X75641687Y-62063179D01*
X75658117Y-62230000D01*
X75641687Y-62396821D01*
X75593023Y-62557244D01*
X75514005Y-62705078D01*
X75407659Y-62834659D01*
X75278078Y-62941005D01*
X75130244Y-63020023D01*
X75130241Y-63020024D01*
X75130239Y-63020025D01*
X74969825Y-63068686D01*
X74969824Y-63068686D01*
X74969821Y-63068687D01*
X74844804Y-63081000D01*
X74761196Y-63081000D01*
X74636179Y-63068687D01*
X74636176Y-63068686D01*
X74636175Y-63068686D01*
X74475761Y-63020025D01*
X74475759Y-63020024D01*
X74475756Y-63020023D01*
X74327922Y-62941005D01*
X74198341Y-62834659D01*
X74091995Y-62705078D01*
X74012977Y-62557244D01*
X73964313Y-62396821D01*
X73947883Y-62230000D01*
X73964313Y-62063179D01*
X74012977Y-61902756D01*
X74091995Y-61754922D01*
X74198341Y-61625341D01*
X74327922Y-61518995D01*
X74475756Y-61439977D01*
X74475759Y-61439976D01*
X74475761Y-61439975D01*
X74636175Y-61391314D01*
X74636176Y-61391314D01*
X74636179Y-61391313D01*
X74761196Y-61379000D01*
X74844804Y-61379000D01*
X74969821Y-61391313D01*
X74969821Y-61391313D01*
G37*
G36*
X111092001Y-62468999D02*
X109390001Y-62468999D01*
X109390001Y-60766999D01*
X111092001Y-60766999D01*
X111092001Y-62468999D01*
X111092001Y-62468999D01*
G37*
G36*
X113642001Y-62468999D02*
X111940001Y-62468999D01*
X111940001Y-60766999D01*
X113642001Y-60766999D01*
X113642001Y-62468999D01*
X113642001Y-62468999D01*
G37*
G36*
X94228228Y-60649703D02*
X94383100Y-60713853D01*
X94522481Y-60806985D01*
X94641015Y-60925519D01*
X94734147Y-61064900D01*
X94798297Y-61219772D01*
X94831000Y-61384184D01*
X94831000Y-61551816D01*
X94798297Y-61716228D01*
X94734147Y-61871100D01*
X94641015Y-62010481D01*
X94522481Y-62129015D01*
X94383100Y-62222147D01*
X94228228Y-62286297D01*
X94063816Y-62319000D01*
X93896184Y-62319000D01*
X93731772Y-62286297D01*
X93576900Y-62222147D01*
X93437519Y-62129015D01*
X93318985Y-62010481D01*
X93225853Y-61871100D01*
X93161703Y-61716228D01*
X93129000Y-61551816D01*
X93129000Y-61384184D01*
X93161703Y-61219772D01*
X93225853Y-61064900D01*
X93318985Y-60925519D01*
X93437519Y-60806985D01*
X93576900Y-60713853D01*
X93731772Y-60649703D01*
X93896184Y-60617000D01*
X94063816Y-60617000D01*
X94228228Y-60649703D01*
X94228228Y-60649703D01*
G37*
G36*
X97316228Y-59252703D02*
X97471100Y-59316853D01*
X97610481Y-59409985D01*
X97729015Y-59528519D01*
X97822147Y-59667900D01*
X97886297Y-59822772D01*
X97919000Y-59987184D01*
X97919000Y-60154816D01*
X97886297Y-60319228D01*
X97822147Y-60474100D01*
X97729015Y-60613481D01*
X97610481Y-60732015D01*
X97471100Y-60825147D01*
X97316228Y-60889297D01*
X97151816Y-60922000D01*
X96984184Y-60922000D01*
X96819772Y-60889297D01*
X96664900Y-60825147D01*
X96525519Y-60732015D01*
X96406985Y-60613481D01*
X96313853Y-60474100D01*
X96249703Y-60319228D01*
X96217000Y-60154816D01*
X96217000Y-59987184D01*
X96249703Y-59822772D01*
X96313853Y-59667900D01*
X96406985Y-59528519D01*
X96525519Y-59409985D01*
X96664900Y-59316853D01*
X96819772Y-59252703D01*
X96984184Y-59220000D01*
X97151816Y-59220000D01*
X97316228Y-59252703D01*
X97316228Y-59252703D01*
G37*
G36*
X99816228Y-59252703D02*
X99971100Y-59316853D01*
X100110481Y-59409985D01*
X100229015Y-59528519D01*
X100322147Y-59667900D01*
X100386297Y-59822772D01*
X100419000Y-59987184D01*
X100419000Y-60154816D01*
X100386297Y-60319228D01*
X100322147Y-60474100D01*
X100229015Y-60613481D01*
X100110481Y-60732015D01*
X99971100Y-60825147D01*
X99816228Y-60889297D01*
X99651816Y-60922000D01*
X99484184Y-60922000D01*
X99319772Y-60889297D01*
X99164900Y-60825147D01*
X99025519Y-60732015D01*
X98906985Y-60613481D01*
X98813853Y-60474100D01*
X98749703Y-60319228D01*
X98717000Y-60154816D01*
X98717000Y-59987184D01*
X98749703Y-59822772D01*
X98813853Y-59667900D01*
X98906985Y-59528519D01*
X99025519Y-59409985D01*
X99164900Y-59316853D01*
X99319772Y-59252703D01*
X99484184Y-59220000D01*
X99651816Y-59220000D01*
X99816228Y-59252703D01*
X99816228Y-59252703D01*
G37*
G36*
X104329000Y-60641000D02*
X102427000Y-60641000D01*
X102427000Y-58739000D01*
X104329000Y-58739000D01*
X104329000Y-60641000D01*
X104329000Y-60641000D01*
G37*
G36*
X106195396Y-58775546D02*
X106368466Y-58847234D01*
X106524230Y-58951312D01*
X106656688Y-59083770D01*
X106760766Y-59239534D01*
X106832454Y-59412604D01*
X106869000Y-59596333D01*
X106869000Y-59783667D01*
X106832454Y-59967396D01*
X106760766Y-60140466D01*
X106656688Y-60296230D01*
X106524230Y-60428688D01*
X106368466Y-60532766D01*
X106195396Y-60604454D01*
X106011667Y-60641000D01*
X105824333Y-60641000D01*
X105640604Y-60604454D01*
X105467534Y-60532766D01*
X105311770Y-60428688D01*
X105179312Y-60296230D01*
X105075234Y-60140466D01*
X105003546Y-59967396D01*
X104967000Y-59783667D01*
X104967000Y-59596333D01*
X105003546Y-59412604D01*
X105075234Y-59239534D01*
X105179312Y-59083770D01*
X105311770Y-58951312D01*
X105467534Y-58847234D01*
X105640604Y-58775546D01*
X105824333Y-58739000D01*
X106011667Y-58739000D01*
X106195396Y-58775546D01*
X106195396Y-58775546D01*
G37*
G36*
X65190821Y-56057313D02*
X65190824Y-56057314D01*
X65190825Y-56057314D01*
X65351239Y-56105975D01*
X65351241Y-56105976D01*
X65351244Y-56105977D01*
X65499078Y-56184995D01*
X65628659Y-56291341D01*
X65735005Y-56420922D01*
X65814023Y-56568756D01*
X65814024Y-56568759D01*
X65814025Y-56568761D01*
X65862686Y-56729175D01*
X65862687Y-56729179D01*
X65879117Y-56896000D01*
X65862687Y-57062821D01*
X65862686Y-57062824D01*
X65862686Y-57062825D01*
X65841672Y-57132100D01*
X65814023Y-57223244D01*
X65735005Y-57371078D01*
X65628659Y-57500659D01*
X65499078Y-57607005D01*
X65351244Y-57686023D01*
X65351241Y-57686024D01*
X65351239Y-57686025D01*
X65190825Y-57734686D01*
X65190824Y-57734686D01*
X65190821Y-57734687D01*
X65065804Y-57747000D01*
X64982196Y-57747000D01*
X64857179Y-57734687D01*
X64857176Y-57734686D01*
X64857175Y-57734686D01*
X64696761Y-57686025D01*
X64696759Y-57686024D01*
X64696756Y-57686023D01*
X64548922Y-57607005D01*
X64419341Y-57500659D01*
X64312995Y-57371078D01*
X64233977Y-57223244D01*
X64206329Y-57132100D01*
X64185314Y-57062825D01*
X64185314Y-57062824D01*
X64185313Y-57062821D01*
X64168883Y-56896000D01*
X64185313Y-56729179D01*
X64185314Y-56729175D01*
X64233975Y-56568761D01*
X64233976Y-56568759D01*
X64233977Y-56568756D01*
X64312995Y-56420922D01*
X64419341Y-56291341D01*
X64548922Y-56184995D01*
X64696756Y-56105977D01*
X64696759Y-56105976D01*
X64696761Y-56105975D01*
X64857175Y-56057314D01*
X64857176Y-56057314D01*
X64857179Y-56057313D01*
X64982196Y-56045000D01*
X65065804Y-56045000D01*
X65190821Y-56057313D01*
X65190821Y-56057313D01*
G37*
G36*
X70098228Y-55910703D02*
X70253100Y-55974853D01*
X70392481Y-56067985D01*
X70511015Y-56186519D01*
X70604147Y-56325900D01*
X70668297Y-56480772D01*
X70701000Y-56645184D01*
X70701000Y-56812816D01*
X70668297Y-56977228D01*
X70604147Y-57132100D01*
X70511015Y-57271481D01*
X70392481Y-57390015D01*
X70253100Y-57483147D01*
X70098228Y-57547297D01*
X69933816Y-57580000D01*
X69766184Y-57580000D01*
X69601772Y-57547297D01*
X69446900Y-57483147D01*
X69307519Y-57390015D01*
X69188985Y-57271481D01*
X69095853Y-57132100D01*
X69031703Y-56977228D01*
X68999000Y-56812816D01*
X68999000Y-56645184D01*
X69031703Y-56480772D01*
X69095853Y-56325900D01*
X69188985Y-56186519D01*
X69307519Y-56067985D01*
X69446900Y-55974853D01*
X69601772Y-55910703D01*
X69766184Y-55878000D01*
X69933816Y-55878000D01*
X70098228Y-55910703D01*
X70098228Y-55910703D01*
G37*
G36*
X74969821Y-53771313D02*
X74969824Y-53771314D01*
X74969825Y-53771314D01*
X75130239Y-53819975D01*
X75130241Y-53819976D01*
X75130244Y-53819977D01*
X75278078Y-53898995D01*
X75407659Y-54005341D01*
X75514005Y-54134922D01*
X75593023Y-54282756D01*
X75593024Y-54282759D01*
X75593025Y-54282761D01*
X75625701Y-54390481D01*
X75641687Y-54443179D01*
X75658117Y-54610000D01*
X75641687Y-54776821D01*
X75641686Y-54776824D01*
X75641686Y-54776825D01*
X75616993Y-54858228D01*
X75593023Y-54937244D01*
X75514005Y-55085078D01*
X75407659Y-55214659D01*
X75278078Y-55321005D01*
X75130244Y-55400023D01*
X75130241Y-55400024D01*
X75130239Y-55400025D01*
X74969825Y-55448686D01*
X74969824Y-55448686D01*
X74969821Y-55448687D01*
X74844804Y-55461000D01*
X74761196Y-55461000D01*
X74636179Y-55448687D01*
X74636176Y-55448686D01*
X74636175Y-55448686D01*
X74475761Y-55400025D01*
X74475759Y-55400024D01*
X74475756Y-55400023D01*
X74327922Y-55321005D01*
X74198341Y-55214659D01*
X74091995Y-55085078D01*
X74012977Y-54937244D01*
X73989008Y-54858228D01*
X73964314Y-54776825D01*
X73964314Y-54776824D01*
X73964313Y-54776821D01*
X73947883Y-54610000D01*
X73964313Y-54443179D01*
X73980299Y-54390481D01*
X74012975Y-54282761D01*
X74012976Y-54282759D01*
X74012977Y-54282756D01*
X74091995Y-54134922D01*
X74198341Y-54005341D01*
X74327922Y-53898995D01*
X74475756Y-53819977D01*
X74475759Y-53819976D01*
X74475761Y-53819975D01*
X74636175Y-53771314D01*
X74636176Y-53771314D01*
X74636179Y-53771313D01*
X74761196Y-53759000D01*
X74844804Y-53759000D01*
X74969821Y-53771313D01*
X74969821Y-53771313D01*
G37*
G36*
X87669821Y-53771313D02*
X87669824Y-53771314D01*
X87669825Y-53771314D01*
X87830239Y-53819975D01*
X87830241Y-53819976D01*
X87830244Y-53819977D01*
X87978078Y-53898995D01*
X88107659Y-54005341D01*
X88214005Y-54134922D01*
X88293023Y-54282756D01*
X88293024Y-54282759D01*
X88293025Y-54282761D01*
X88325701Y-54390481D01*
X88341687Y-54443179D01*
X88358117Y-54610000D01*
X88341687Y-54776821D01*
X88341686Y-54776824D01*
X88341686Y-54776825D01*
X88316993Y-54858228D01*
X88293023Y-54937244D01*
X88214005Y-55085078D01*
X88107659Y-55214659D01*
X87978078Y-55321005D01*
X87830244Y-55400023D01*
X87830241Y-55400024D01*
X87830239Y-55400025D01*
X87669825Y-55448686D01*
X87669824Y-55448686D01*
X87669821Y-55448687D01*
X87544804Y-55461000D01*
X87461196Y-55461000D01*
X87336179Y-55448687D01*
X87336176Y-55448686D01*
X87336175Y-55448686D01*
X87175761Y-55400025D01*
X87175759Y-55400024D01*
X87175756Y-55400023D01*
X87027922Y-55321005D01*
X86898341Y-55214659D01*
X86791995Y-55085078D01*
X86712977Y-54937244D01*
X86689008Y-54858228D01*
X86664314Y-54776825D01*
X86664314Y-54776824D01*
X86664313Y-54776821D01*
X86647883Y-54610000D01*
X86664313Y-54443179D01*
X86680299Y-54390481D01*
X86712975Y-54282761D01*
X86712976Y-54282759D01*
X86712977Y-54282756D01*
X86791995Y-54134922D01*
X86898341Y-54005341D01*
X87027922Y-53898995D01*
X87175756Y-53819977D01*
X87175759Y-53819976D01*
X87175761Y-53819975D01*
X87336175Y-53771314D01*
X87336176Y-53771314D01*
X87336179Y-53771313D01*
X87461196Y-53759000D01*
X87544804Y-53759000D01*
X87669821Y-53771313D01*
X87669821Y-53771313D01*
G37*
G36*
X77509821Y-53771313D02*
X77509824Y-53771314D01*
X77509825Y-53771314D01*
X77670239Y-53819975D01*
X77670241Y-53819976D01*
X77670244Y-53819977D01*
X77818078Y-53898995D01*
X77947659Y-54005341D01*
X78054005Y-54134922D01*
X78133023Y-54282756D01*
X78133024Y-54282759D01*
X78133025Y-54282761D01*
X78165701Y-54390481D01*
X78181687Y-54443179D01*
X78198117Y-54610000D01*
X78181687Y-54776821D01*
X78181686Y-54776824D01*
X78181686Y-54776825D01*
X78156993Y-54858228D01*
X78133023Y-54937244D01*
X78054005Y-55085078D01*
X77947659Y-55214659D01*
X77818078Y-55321005D01*
X77670244Y-55400023D01*
X77670241Y-55400024D01*
X77670239Y-55400025D01*
X77509825Y-55448686D01*
X77509824Y-55448686D01*
X77509821Y-55448687D01*
X77384804Y-55461000D01*
X77301196Y-55461000D01*
X77176179Y-55448687D01*
X77176176Y-55448686D01*
X77176175Y-55448686D01*
X77015761Y-55400025D01*
X77015759Y-55400024D01*
X77015756Y-55400023D01*
X76867922Y-55321005D01*
X76738341Y-55214659D01*
X76631995Y-55085078D01*
X76552977Y-54937244D01*
X76529008Y-54858228D01*
X76504314Y-54776825D01*
X76504314Y-54776824D01*
X76504313Y-54776821D01*
X76487883Y-54610000D01*
X76504313Y-54443179D01*
X76520299Y-54390481D01*
X76552975Y-54282761D01*
X76552976Y-54282759D01*
X76552977Y-54282756D01*
X76631995Y-54134922D01*
X76738341Y-54005341D01*
X76867922Y-53898995D01*
X77015756Y-53819977D01*
X77015759Y-53819976D01*
X77015761Y-53819975D01*
X77176175Y-53771314D01*
X77176176Y-53771314D01*
X77176179Y-53771313D01*
X77301196Y-53759000D01*
X77384804Y-53759000D01*
X77509821Y-53771313D01*
X77509821Y-53771313D01*
G37*
G36*
X97321821Y-53771313D02*
X97321824Y-53771314D01*
X97321825Y-53771314D01*
X97482239Y-53819975D01*
X97482241Y-53819976D01*
X97482244Y-53819977D01*
X97630078Y-53898995D01*
X97759659Y-54005341D01*
X97866005Y-54134922D01*
X97945023Y-54282756D01*
X97945024Y-54282759D01*
X97945025Y-54282761D01*
X97977701Y-54390481D01*
X97993687Y-54443179D01*
X98010117Y-54610000D01*
X97993687Y-54776821D01*
X97993686Y-54776824D01*
X97993686Y-54776825D01*
X97968993Y-54858228D01*
X97945023Y-54937244D01*
X97866005Y-55085078D01*
X97759659Y-55214659D01*
X97630078Y-55321005D01*
X97482244Y-55400023D01*
X97482241Y-55400024D01*
X97482239Y-55400025D01*
X97321825Y-55448686D01*
X97321824Y-55448686D01*
X97321821Y-55448687D01*
X97196804Y-55461000D01*
X97113196Y-55461000D01*
X96988179Y-55448687D01*
X96988176Y-55448686D01*
X96988175Y-55448686D01*
X96827761Y-55400025D01*
X96827759Y-55400024D01*
X96827756Y-55400023D01*
X96679922Y-55321005D01*
X96550341Y-55214659D01*
X96443995Y-55085078D01*
X96364977Y-54937244D01*
X96341008Y-54858228D01*
X96316314Y-54776825D01*
X96316314Y-54776824D01*
X96316313Y-54776821D01*
X96299883Y-54610000D01*
X96316313Y-54443179D01*
X96332299Y-54390481D01*
X96364975Y-54282761D01*
X96364976Y-54282759D01*
X96364977Y-54282756D01*
X96443995Y-54134922D01*
X96550341Y-54005341D01*
X96679922Y-53898995D01*
X96827756Y-53819977D01*
X96827759Y-53819976D01*
X96827761Y-53819975D01*
X96988175Y-53771314D01*
X96988176Y-53771314D01*
X96988179Y-53771313D01*
X97113196Y-53759000D01*
X97196804Y-53759000D01*
X97321821Y-53771313D01*
X97321821Y-53771313D01*
G37*
G36*
X85129821Y-53771313D02*
X85129824Y-53771314D01*
X85129825Y-53771314D01*
X85290239Y-53819975D01*
X85290241Y-53819976D01*
X85290244Y-53819977D01*
X85438078Y-53898995D01*
X85567659Y-54005341D01*
X85674005Y-54134922D01*
X85753023Y-54282756D01*
X85753024Y-54282759D01*
X85753025Y-54282761D01*
X85785701Y-54390481D01*
X85801687Y-54443179D01*
X85818117Y-54610000D01*
X85801687Y-54776821D01*
X85801686Y-54776824D01*
X85801686Y-54776825D01*
X85776993Y-54858228D01*
X85753023Y-54937244D01*
X85674005Y-55085078D01*
X85567659Y-55214659D01*
X85438078Y-55321005D01*
X85290244Y-55400023D01*
X85290241Y-55400024D01*
X85290239Y-55400025D01*
X85129825Y-55448686D01*
X85129824Y-55448686D01*
X85129821Y-55448687D01*
X85004804Y-55461000D01*
X84921196Y-55461000D01*
X84796179Y-55448687D01*
X84796176Y-55448686D01*
X84796175Y-55448686D01*
X84635761Y-55400025D01*
X84635759Y-55400024D01*
X84635756Y-55400023D01*
X84487922Y-55321005D01*
X84358341Y-55214659D01*
X84251995Y-55085078D01*
X84172977Y-54937244D01*
X84149008Y-54858228D01*
X84124314Y-54776825D01*
X84124314Y-54776824D01*
X84124313Y-54776821D01*
X84107883Y-54610000D01*
X84124313Y-54443179D01*
X84140299Y-54390481D01*
X84172975Y-54282761D01*
X84172976Y-54282759D01*
X84172977Y-54282756D01*
X84251995Y-54134922D01*
X84358341Y-54005341D01*
X84487922Y-53898995D01*
X84635756Y-53819977D01*
X84635759Y-53819976D01*
X84635761Y-53819975D01*
X84796175Y-53771314D01*
X84796176Y-53771314D01*
X84796179Y-53771313D01*
X84921196Y-53759000D01*
X85004804Y-53759000D01*
X85129821Y-53771313D01*
X85129821Y-53771313D01*
G37*
G36*
X82589821Y-53771313D02*
X82589824Y-53771314D01*
X82589825Y-53771314D01*
X82750239Y-53819975D01*
X82750241Y-53819976D01*
X82750244Y-53819977D01*
X82898078Y-53898995D01*
X83027659Y-54005341D01*
X83134005Y-54134922D01*
X83213023Y-54282756D01*
X83213024Y-54282759D01*
X83213025Y-54282761D01*
X83245701Y-54390481D01*
X83261687Y-54443179D01*
X83278117Y-54610000D01*
X83261687Y-54776821D01*
X83261686Y-54776824D01*
X83261686Y-54776825D01*
X83236993Y-54858228D01*
X83213023Y-54937244D01*
X83134005Y-55085078D01*
X83027659Y-55214659D01*
X82898078Y-55321005D01*
X82750244Y-55400023D01*
X82750241Y-55400024D01*
X82750239Y-55400025D01*
X82589825Y-55448686D01*
X82589824Y-55448686D01*
X82589821Y-55448687D01*
X82464804Y-55461000D01*
X82381196Y-55461000D01*
X82256179Y-55448687D01*
X82256176Y-55448686D01*
X82256175Y-55448686D01*
X82095761Y-55400025D01*
X82095759Y-55400024D01*
X82095756Y-55400023D01*
X81947922Y-55321005D01*
X81818341Y-55214659D01*
X81711995Y-55085078D01*
X81632977Y-54937244D01*
X81609008Y-54858228D01*
X81584314Y-54776825D01*
X81584314Y-54776824D01*
X81584313Y-54776821D01*
X81567883Y-54610000D01*
X81584313Y-54443179D01*
X81600299Y-54390481D01*
X81632975Y-54282761D01*
X81632976Y-54282759D01*
X81632977Y-54282756D01*
X81711995Y-54134922D01*
X81818341Y-54005341D01*
X81947922Y-53898995D01*
X82095756Y-53819977D01*
X82095759Y-53819976D01*
X82095761Y-53819975D01*
X82256175Y-53771314D01*
X82256176Y-53771314D01*
X82256179Y-53771313D01*
X82381196Y-53759000D01*
X82464804Y-53759000D01*
X82589821Y-53771313D01*
X82589821Y-53771313D01*
G37*
G36*
X80049821Y-53771313D02*
X80049824Y-53771314D01*
X80049825Y-53771314D01*
X80210239Y-53819975D01*
X80210241Y-53819976D01*
X80210244Y-53819977D01*
X80358078Y-53898995D01*
X80487659Y-54005341D01*
X80594005Y-54134922D01*
X80673023Y-54282756D01*
X80673024Y-54282759D01*
X80673025Y-54282761D01*
X80705701Y-54390481D01*
X80721687Y-54443179D01*
X80738117Y-54610000D01*
X80721687Y-54776821D01*
X80721686Y-54776824D01*
X80721686Y-54776825D01*
X80696993Y-54858228D01*
X80673023Y-54937244D01*
X80594005Y-55085078D01*
X80487659Y-55214659D01*
X80358078Y-55321005D01*
X80210244Y-55400023D01*
X80210241Y-55400024D01*
X80210239Y-55400025D01*
X80049825Y-55448686D01*
X80049824Y-55448686D01*
X80049821Y-55448687D01*
X79924804Y-55461000D01*
X79841196Y-55461000D01*
X79716179Y-55448687D01*
X79716176Y-55448686D01*
X79716175Y-55448686D01*
X79555761Y-55400025D01*
X79555759Y-55400024D01*
X79555756Y-55400023D01*
X79407922Y-55321005D01*
X79278341Y-55214659D01*
X79171995Y-55085078D01*
X79092977Y-54937244D01*
X79069008Y-54858228D01*
X79044314Y-54776825D01*
X79044314Y-54776824D01*
X79044313Y-54776821D01*
X79027883Y-54610000D01*
X79044313Y-54443179D01*
X79060299Y-54390481D01*
X79092975Y-54282761D01*
X79092976Y-54282759D01*
X79092977Y-54282756D01*
X79171995Y-54134922D01*
X79278341Y-54005341D01*
X79407922Y-53898995D01*
X79555756Y-53819977D01*
X79555759Y-53819976D01*
X79555761Y-53819975D01*
X79716175Y-53771314D01*
X79716176Y-53771314D01*
X79716179Y-53771313D01*
X79841196Y-53759000D01*
X79924804Y-53759000D01*
X80049821Y-53771313D01*
X80049821Y-53771313D01*
G37*
G36*
X107563228Y-53791703D02*
X107718100Y-53855853D01*
X107857481Y-53948985D01*
X107976015Y-54067519D01*
X108069147Y-54206900D01*
X108133297Y-54361772D01*
X108166000Y-54526184D01*
X108166000Y-54693816D01*
X108133297Y-54858228D01*
X108069147Y-55013100D01*
X107976015Y-55152481D01*
X107857481Y-55271015D01*
X107718100Y-55364147D01*
X107563228Y-55428297D01*
X107398816Y-55461000D01*
X107231184Y-55461000D01*
X107066772Y-55428297D01*
X106911900Y-55364147D01*
X106772519Y-55271015D01*
X106653985Y-55152481D01*
X106560853Y-55013100D01*
X106496703Y-54858228D01*
X106464000Y-54693816D01*
X106464000Y-54526184D01*
X106496703Y-54361772D01*
X106560853Y-54206900D01*
X106653985Y-54067519D01*
X106772519Y-53948985D01*
X106911900Y-53855853D01*
X107066772Y-53791703D01*
X107231184Y-53759000D01*
X107398816Y-53759000D01*
X107563228Y-53791703D01*
X107563228Y-53791703D01*
G37*
G36*
X90894000Y-55461000D02*
X89192000Y-55461000D01*
X89192000Y-53759000D01*
X90894000Y-53759000D01*
X90894000Y-55461000D01*
X90894000Y-55461000D01*
G37*
G36*
X70701000Y-55080000D02*
X68999000Y-55080000D01*
X68999000Y-53378000D01*
X70701000Y-53378000D01*
X70701000Y-55080000D01*
X70701000Y-55080000D01*
G37*
G36*
X112957822Y-53159312D02*
X112957825Y-53159313D01*
X112957826Y-53159313D01*
X113118240Y-53207974D01*
X113118242Y-53207975D01*
X113118245Y-53207976D01*
X113266079Y-53286994D01*
X113395660Y-53393340D01*
X113502006Y-53522921D01*
X113581024Y-53670755D01*
X113581025Y-53670758D01*
X113581026Y-53670760D01*
X113617714Y-53791704D01*
X113629688Y-53831178D01*
X113646118Y-53997999D01*
X113629688Y-54164820D01*
X113629687Y-54164823D01*
X113629687Y-54164824D01*
X113593913Y-54282756D01*
X113581024Y-54325243D01*
X113502006Y-54473077D01*
X113395660Y-54602658D01*
X113266079Y-54709004D01*
X113118245Y-54788022D01*
X113118242Y-54788023D01*
X113118240Y-54788024D01*
X112957826Y-54836685D01*
X112957825Y-54836685D01*
X112957822Y-54836686D01*
X112832805Y-54848999D01*
X112749197Y-54848999D01*
X112624180Y-54836686D01*
X112624177Y-54836685D01*
X112624176Y-54836685D01*
X112463762Y-54788024D01*
X112463760Y-54788023D01*
X112463757Y-54788022D01*
X112315923Y-54709004D01*
X112186342Y-54602658D01*
X112079996Y-54473077D01*
X112000978Y-54325243D01*
X111988090Y-54282756D01*
X111952315Y-54164824D01*
X111952315Y-54164823D01*
X111952314Y-54164820D01*
X111935884Y-53997999D01*
X111952314Y-53831178D01*
X111964288Y-53791704D01*
X112000976Y-53670760D01*
X112000977Y-53670758D01*
X112000978Y-53670755D01*
X112079996Y-53522921D01*
X112186342Y-53393340D01*
X112315923Y-53286994D01*
X112463757Y-53207976D01*
X112463760Y-53207975D01*
X112463762Y-53207974D01*
X112624176Y-53159313D01*
X112624177Y-53159313D01*
X112624180Y-53159312D01*
X112749197Y-53146999D01*
X112832805Y-53146999D01*
X112957822Y-53159312D01*
X112957822Y-53159312D01*
G37*
G36*
X110407822Y-53159312D02*
X110407825Y-53159313D01*
X110407826Y-53159313D01*
X110568240Y-53207974D01*
X110568242Y-53207975D01*
X110568245Y-53207976D01*
X110716079Y-53286994D01*
X110845660Y-53393340D01*
X110952006Y-53522921D01*
X111031024Y-53670755D01*
X111031025Y-53670758D01*
X111031026Y-53670760D01*
X111067714Y-53791704D01*
X111079688Y-53831178D01*
X111096118Y-53997999D01*
X111079688Y-54164820D01*
X111079687Y-54164823D01*
X111079687Y-54164824D01*
X111043913Y-54282756D01*
X111031024Y-54325243D01*
X110952006Y-54473077D01*
X110845660Y-54602658D01*
X110716079Y-54709004D01*
X110568245Y-54788022D01*
X110568242Y-54788023D01*
X110568240Y-54788024D01*
X110407826Y-54836685D01*
X110407825Y-54836685D01*
X110407822Y-54836686D01*
X110282805Y-54848999D01*
X110199197Y-54848999D01*
X110074180Y-54836686D01*
X110074177Y-54836685D01*
X110074176Y-54836685D01*
X109913762Y-54788024D01*
X109913760Y-54788023D01*
X109913757Y-54788022D01*
X109765923Y-54709004D01*
X109636342Y-54602658D01*
X109529996Y-54473077D01*
X109450978Y-54325243D01*
X109438090Y-54282756D01*
X109402315Y-54164824D01*
X109402315Y-54164823D01*
X109402314Y-54164820D01*
X109385884Y-53997999D01*
X109402314Y-53831178D01*
X109414288Y-53791704D01*
X109450976Y-53670760D01*
X109450977Y-53670758D01*
X109450978Y-53670755D01*
X109529996Y-53522921D01*
X109636342Y-53393340D01*
X109765923Y-53286994D01*
X109913757Y-53207976D01*
X109913760Y-53207975D01*
X109913762Y-53207974D01*
X110074176Y-53159313D01*
X110074177Y-53159313D01*
X110074180Y-53159312D01*
X110199197Y-53146999D01*
X110282805Y-53146999D01*
X110407822Y-53159312D01*
X110407822Y-53159312D01*
G37*
G36*
X118326000Y-54699000D02*
X116624000Y-54699000D01*
X116624000Y-52997000D01*
X118326000Y-52997000D01*
X118326000Y-54699000D01*
X118326000Y-54699000D01*
G37*
G36*
X119723228Y-53029703D02*
X119878100Y-53093853D01*
X120017481Y-53186985D01*
X120136015Y-53305519D01*
X120229147Y-53444900D01*
X120293297Y-53599772D01*
X120326000Y-53764184D01*
X120326000Y-53931816D01*
X120293297Y-54096228D01*
X120229147Y-54251100D01*
X120136015Y-54390481D01*
X120017481Y-54509015D01*
X119878100Y-54602147D01*
X119723228Y-54666297D01*
X119558816Y-54699000D01*
X119391184Y-54699000D01*
X119226772Y-54666297D01*
X119071900Y-54602147D01*
X118932519Y-54509015D01*
X118813985Y-54390481D01*
X118720853Y-54251100D01*
X118656703Y-54096228D01*
X118624000Y-53931816D01*
X118624000Y-53764184D01*
X118656703Y-53599772D01*
X118720853Y-53444900D01*
X118813985Y-53305519D01*
X118932519Y-53186985D01*
X119071900Y-53093853D01*
X119226772Y-53029703D01*
X119391184Y-52997000D01*
X119558816Y-52997000D01*
X119723228Y-53029703D01*
X119723228Y-53029703D01*
G37*
G36*
X107436228Y-50616703D02*
X107591100Y-50680853D01*
X107730481Y-50773985D01*
X107849015Y-50892519D01*
X107942147Y-51031900D01*
X108006297Y-51186772D01*
X108039000Y-51351184D01*
X108039000Y-51518816D01*
X108006297Y-51683228D01*
X107942147Y-51838100D01*
X107849015Y-51977481D01*
X107730481Y-52096015D01*
X107591100Y-52189147D01*
X107436228Y-52253297D01*
X107271816Y-52286000D01*
X107104184Y-52286000D01*
X106939772Y-52253297D01*
X106784900Y-52189147D01*
X106645519Y-52096015D01*
X106526985Y-51977481D01*
X106433853Y-51838100D01*
X106369703Y-51683228D01*
X106337000Y-51518816D01*
X106337000Y-51351184D01*
X106369703Y-51186772D01*
X106433853Y-51031900D01*
X106526985Y-50892519D01*
X106645519Y-50773985D01*
X106784900Y-50680853D01*
X106939772Y-50616703D01*
X107104184Y-50584000D01*
X107271816Y-50584000D01*
X107436228Y-50616703D01*
X107436228Y-50616703D01*
G37*
G36*
X97194821Y-50596313D02*
X97194824Y-50596314D01*
X97194825Y-50596314D01*
X97355239Y-50644975D01*
X97355241Y-50644976D01*
X97355244Y-50644977D01*
X97503078Y-50723995D01*
X97632659Y-50830341D01*
X97739005Y-50959922D01*
X97818023Y-51107756D01*
X97818024Y-51107759D01*
X97818025Y-51107761D01*
X97853341Y-51224184D01*
X97866687Y-51268179D01*
X97883117Y-51435000D01*
X97866687Y-51601821D01*
X97866686Y-51601824D01*
X97866686Y-51601825D01*
X97833538Y-51711100D01*
X97818023Y-51762244D01*
X97739005Y-51910078D01*
X97632659Y-52039659D01*
X97503078Y-52146005D01*
X97355244Y-52225023D01*
X97355241Y-52225024D01*
X97355239Y-52225025D01*
X97194825Y-52273686D01*
X97194824Y-52273686D01*
X97194821Y-52273687D01*
X97069804Y-52286000D01*
X96986196Y-52286000D01*
X96861179Y-52273687D01*
X96861176Y-52273686D01*
X96861175Y-52273686D01*
X96700761Y-52225025D01*
X96700759Y-52225024D01*
X96700756Y-52225023D01*
X96552922Y-52146005D01*
X96423341Y-52039659D01*
X96316995Y-51910078D01*
X96237977Y-51762244D01*
X96222463Y-51711100D01*
X96189314Y-51601825D01*
X96189314Y-51601824D01*
X96189313Y-51601821D01*
X96172883Y-51435000D01*
X96189313Y-51268179D01*
X96202659Y-51224184D01*
X96237975Y-51107761D01*
X96237976Y-51107759D01*
X96237977Y-51107756D01*
X96316995Y-50959922D01*
X96423341Y-50830341D01*
X96552922Y-50723995D01*
X96700756Y-50644977D01*
X96700759Y-50644976D01*
X96700761Y-50644975D01*
X96861175Y-50596314D01*
X96861176Y-50596314D01*
X96861179Y-50596313D01*
X96986196Y-50584000D01*
X97069804Y-50584000D01*
X97194821Y-50596313D01*
X97194821Y-50596313D01*
G37*
G36*
X81319821Y-50469313D02*
X81319824Y-50469314D01*
X81319825Y-50469314D01*
X81480239Y-50517975D01*
X81480241Y-50517976D01*
X81480244Y-50517977D01*
X81628078Y-50596995D01*
X81757659Y-50703341D01*
X81864005Y-50832922D01*
X81943023Y-50980756D01*
X81943024Y-50980759D01*
X81943025Y-50980761D01*
X81978341Y-51097184D01*
X81991687Y-51141179D01*
X82008117Y-51308000D01*
X81991687Y-51474821D01*
X81991686Y-51474824D01*
X81991686Y-51474825D01*
X81958538Y-51584100D01*
X81943023Y-51635244D01*
X81864005Y-51783078D01*
X81757659Y-51912659D01*
X81628078Y-52019005D01*
X81480244Y-52098023D01*
X81480241Y-52098024D01*
X81480239Y-52098025D01*
X81319825Y-52146686D01*
X81319824Y-52146686D01*
X81319821Y-52146687D01*
X81194804Y-52159000D01*
X81111196Y-52159000D01*
X80986179Y-52146687D01*
X80986176Y-52146686D01*
X80986175Y-52146686D01*
X80825761Y-52098025D01*
X80825759Y-52098024D01*
X80825756Y-52098023D01*
X80677922Y-52019005D01*
X80548341Y-51912659D01*
X80441995Y-51783078D01*
X80362977Y-51635244D01*
X80347463Y-51584100D01*
X80314314Y-51474825D01*
X80314314Y-51474824D01*
X80314313Y-51474821D01*
X80297883Y-51308000D01*
X80314313Y-51141179D01*
X80327659Y-51097184D01*
X80362975Y-50980761D01*
X80362976Y-50980759D01*
X80362977Y-50980756D01*
X80441995Y-50832922D01*
X80548341Y-50703341D01*
X80677922Y-50596995D01*
X80825756Y-50517977D01*
X80825759Y-50517976D01*
X80825761Y-50517975D01*
X80986175Y-50469314D01*
X80986176Y-50469314D01*
X80986179Y-50469313D01*
X81111196Y-50457000D01*
X81194804Y-50457000D01*
X81319821Y-50469313D01*
X81319821Y-50469313D01*
G37*
G36*
X91561228Y-50489703D02*
X91716100Y-50553853D01*
X91855481Y-50646985D01*
X91974015Y-50765519D01*
X92067147Y-50904900D01*
X92131297Y-51059772D01*
X92164000Y-51224184D01*
X92164000Y-51391816D01*
X92131297Y-51556228D01*
X92067147Y-51711100D01*
X91974015Y-51850481D01*
X91855481Y-51969015D01*
X91716100Y-52062147D01*
X91561228Y-52126297D01*
X91396816Y-52159000D01*
X91229184Y-52159000D01*
X91064772Y-52126297D01*
X90909900Y-52062147D01*
X90770519Y-51969015D01*
X90651985Y-51850481D01*
X90558853Y-51711100D01*
X90494703Y-51556228D01*
X90462000Y-51391816D01*
X90462000Y-51224184D01*
X90494703Y-51059772D01*
X90558853Y-50904900D01*
X90651985Y-50765519D01*
X90770519Y-50646985D01*
X90909900Y-50553853D01*
X91064772Y-50489703D01*
X91229184Y-50457000D01*
X91396816Y-50457000D01*
X91561228Y-50489703D01*
X91561228Y-50489703D01*
G37*
G36*
X94146821Y-50469313D02*
X94146824Y-50469314D01*
X94146825Y-50469314D01*
X94307239Y-50517975D01*
X94307241Y-50517976D01*
X94307244Y-50517977D01*
X94455078Y-50596995D01*
X94584659Y-50703341D01*
X94691005Y-50832922D01*
X94770023Y-50980756D01*
X94770024Y-50980759D01*
X94770025Y-50980761D01*
X94805341Y-51097184D01*
X94818687Y-51141179D01*
X94835117Y-51308000D01*
X94818687Y-51474821D01*
X94818686Y-51474824D01*
X94818686Y-51474825D01*
X94785538Y-51584100D01*
X94770023Y-51635244D01*
X94691005Y-51783078D01*
X94584659Y-51912659D01*
X94455078Y-52019005D01*
X94307244Y-52098023D01*
X94307241Y-52098024D01*
X94307239Y-52098025D01*
X94146825Y-52146686D01*
X94146824Y-52146686D01*
X94146821Y-52146687D01*
X94021804Y-52159000D01*
X93938196Y-52159000D01*
X93813179Y-52146687D01*
X93813176Y-52146686D01*
X93813175Y-52146686D01*
X93652761Y-52098025D01*
X93652759Y-52098024D01*
X93652756Y-52098023D01*
X93504922Y-52019005D01*
X93375341Y-51912659D01*
X93268995Y-51783078D01*
X93189977Y-51635244D01*
X93174463Y-51584100D01*
X93141314Y-51474825D01*
X93141314Y-51474824D01*
X93141313Y-51474821D01*
X93124883Y-51308000D01*
X93141313Y-51141179D01*
X93154659Y-51097184D01*
X93189975Y-50980761D01*
X93189976Y-50980759D01*
X93189977Y-50980756D01*
X93268995Y-50832922D01*
X93375341Y-50703341D01*
X93504922Y-50596995D01*
X93652756Y-50517977D01*
X93652759Y-50517976D01*
X93652761Y-50517975D01*
X93813175Y-50469314D01*
X93813176Y-50469314D01*
X93813179Y-50469313D01*
X93938196Y-50457000D01*
X94021804Y-50457000D01*
X94146821Y-50469313D01*
X94146821Y-50469313D01*
G37*
G36*
X68828228Y-50362703D02*
X68983100Y-50426853D01*
X69122481Y-50519985D01*
X69241015Y-50638519D01*
X69334147Y-50777900D01*
X69398297Y-50932772D01*
X69431000Y-51097184D01*
X69431000Y-51264816D01*
X69398297Y-51429228D01*
X69334147Y-51584100D01*
X69241015Y-51723481D01*
X69122481Y-51842015D01*
X68983100Y-51935147D01*
X68828228Y-51999297D01*
X68663816Y-52032000D01*
X68496184Y-52032000D01*
X68331772Y-51999297D01*
X68176900Y-51935147D01*
X68037519Y-51842015D01*
X67918985Y-51723481D01*
X67825853Y-51584100D01*
X67761703Y-51429228D01*
X67729000Y-51264816D01*
X67729000Y-51097184D01*
X67761703Y-50932772D01*
X67825853Y-50777900D01*
X67918985Y-50638519D01*
X68037519Y-50519985D01*
X68176900Y-50426853D01*
X68331772Y-50362703D01*
X68496184Y-50330000D01*
X68663816Y-50330000D01*
X68828228Y-50362703D01*
X68828228Y-50362703D01*
G37*
G36*
X78906821Y-50342313D02*
X78906824Y-50342314D01*
X78906825Y-50342314D01*
X79067239Y-50390975D01*
X79067241Y-50390976D01*
X79067244Y-50390977D01*
X79215078Y-50469995D01*
X79344659Y-50576341D01*
X79451005Y-50705922D01*
X79530023Y-50853756D01*
X79530024Y-50853759D01*
X79530025Y-50853761D01*
X79568548Y-50980756D01*
X79578687Y-51014179D01*
X79595117Y-51181000D01*
X79578687Y-51347821D01*
X79578686Y-51347824D01*
X79578686Y-51347825D01*
X79552242Y-51435000D01*
X79530023Y-51508244D01*
X79451005Y-51656078D01*
X79344659Y-51785659D01*
X79215078Y-51892005D01*
X79067244Y-51971023D01*
X79067241Y-51971024D01*
X79067239Y-51971025D01*
X78906825Y-52019686D01*
X78906824Y-52019686D01*
X78906821Y-52019687D01*
X78781804Y-52032000D01*
X78698196Y-52032000D01*
X78573179Y-52019687D01*
X78573176Y-52019686D01*
X78573175Y-52019686D01*
X78412761Y-51971025D01*
X78412759Y-51971024D01*
X78412756Y-51971023D01*
X78264922Y-51892005D01*
X78135341Y-51785659D01*
X78028995Y-51656078D01*
X77949977Y-51508244D01*
X77927759Y-51435000D01*
X77901314Y-51347825D01*
X77901314Y-51347824D01*
X77901313Y-51347821D01*
X77884883Y-51181000D01*
X77901313Y-51014179D01*
X77911452Y-50980756D01*
X77949975Y-50853761D01*
X77949976Y-50853759D01*
X77949977Y-50853756D01*
X78028995Y-50705922D01*
X78135341Y-50576341D01*
X78264922Y-50469995D01*
X78412756Y-50390977D01*
X78412759Y-50390976D01*
X78412761Y-50390975D01*
X78573175Y-50342314D01*
X78573176Y-50342314D01*
X78573179Y-50342313D01*
X78698196Y-50330000D01*
X78781804Y-50330000D01*
X78906821Y-50342313D01*
X78906821Y-50342313D01*
G37*
G36*
X102624000Y-49792000D02*
X100322000Y-49792000D01*
X100322000Y-47490000D01*
X102624000Y-47490000D01*
X102624000Y-49792000D01*
X102624000Y-49792000D01*
G37*
G36*
X118118000Y-49792000D02*
X115816000Y-49792000D01*
X115816000Y-47490000D01*
X118118000Y-47490000D01*
X118118000Y-49792000D01*
X118118000Y-49792000D01*
G37*
G36*
X107980443Y-47725519D02*
X108046628Y-47732038D01*
X108159854Y-47766385D01*
X108216468Y-47783558D01*
X108342594Y-47850975D01*
X108372992Y-47867223D01*
X108396911Y-47886853D01*
X108510187Y-47979815D01*
X108593449Y-48081272D01*
X108622779Y-48117010D01*
X108622780Y-48117012D01*
X108706444Y-48273534D01*
X108710230Y-48286015D01*
X108757964Y-48443374D01*
X108775360Y-48620001D01*
X108757964Y-48796628D01*
X108754567Y-48807825D01*
X108706444Y-48966468D01*
X108664948Y-49044100D01*
X108622779Y-49122992D01*
X108593449Y-49158730D01*
X108510187Y-49260187D01*
X108408730Y-49343449D01*
X108372992Y-49372779D01*
X108372990Y-49372780D01*
X108216468Y-49456444D01*
X108159854Y-49473617D01*
X108046628Y-49507964D01*
X107980443Y-49514483D01*
X107914261Y-49521001D01*
X107825741Y-49521001D01*
X107759559Y-49514483D01*
X107693374Y-49507964D01*
X107580148Y-49473617D01*
X107523534Y-49456444D01*
X107367012Y-49372780D01*
X107367010Y-49372779D01*
X107331272Y-49343449D01*
X107229815Y-49260187D01*
X107146553Y-49158730D01*
X107117223Y-49122992D01*
X107075054Y-49044100D01*
X107033558Y-48966468D01*
X106985435Y-48807825D01*
X106982038Y-48796628D01*
X106964642Y-48620001D01*
X106982038Y-48443374D01*
X107029772Y-48286015D01*
X107033558Y-48273534D01*
X107117222Y-48117012D01*
X107117223Y-48117010D01*
X107146553Y-48081272D01*
X107229815Y-47979815D01*
X107343091Y-47886853D01*
X107367010Y-47867223D01*
X107397408Y-47850975D01*
X107523534Y-47783558D01*
X107580148Y-47766385D01*
X107693374Y-47732038D01*
X107759558Y-47725520D01*
X107825741Y-47719001D01*
X107914261Y-47719001D01*
X107980443Y-47725519D01*
X107980443Y-47725519D01*
G37*
G36*
X110520443Y-47725519D02*
X110586628Y-47732038D01*
X110699854Y-47766385D01*
X110756468Y-47783558D01*
X110882594Y-47850975D01*
X110912992Y-47867223D01*
X110936911Y-47886853D01*
X111050187Y-47979815D01*
X111133449Y-48081272D01*
X111162779Y-48117010D01*
X111162780Y-48117012D01*
X111246444Y-48273534D01*
X111250230Y-48286015D01*
X111297964Y-48443374D01*
X111315360Y-48620001D01*
X111297964Y-48796628D01*
X111294567Y-48807825D01*
X111246444Y-48966468D01*
X111204948Y-49044100D01*
X111162779Y-49122992D01*
X111133449Y-49158730D01*
X111050187Y-49260187D01*
X110948730Y-49343449D01*
X110912992Y-49372779D01*
X110912990Y-49372780D01*
X110756468Y-49456444D01*
X110699854Y-49473617D01*
X110586628Y-49507964D01*
X110520443Y-49514483D01*
X110454261Y-49521001D01*
X110365741Y-49521001D01*
X110299559Y-49514483D01*
X110233374Y-49507964D01*
X110120148Y-49473617D01*
X110063534Y-49456444D01*
X109907012Y-49372780D01*
X109907010Y-49372779D01*
X109871272Y-49343449D01*
X109769815Y-49260187D01*
X109686553Y-49158730D01*
X109657223Y-49122992D01*
X109615054Y-49044100D01*
X109573558Y-48966468D01*
X109525435Y-48807825D01*
X109522038Y-48796628D01*
X109504642Y-48620001D01*
X109522038Y-48443374D01*
X109569772Y-48286015D01*
X109573558Y-48273534D01*
X109657222Y-48117012D01*
X109657223Y-48117010D01*
X109686553Y-48081272D01*
X109769815Y-47979815D01*
X109883091Y-47886853D01*
X109907010Y-47867223D01*
X109937408Y-47850975D01*
X110063534Y-47783558D01*
X110120148Y-47766385D01*
X110233374Y-47732038D01*
X110299558Y-47725520D01*
X110365741Y-47719001D01*
X110454261Y-47719001D01*
X110520443Y-47725519D01*
X110520443Y-47725519D01*
G37*
G36*
X120390228Y-47822703D02*
X120545100Y-47886853D01*
X120684481Y-47979985D01*
X120803015Y-48098519D01*
X120896147Y-48237900D01*
X120960297Y-48392772D01*
X120993000Y-48557184D01*
X120993000Y-48724816D01*
X120960297Y-48889228D01*
X120896147Y-49044100D01*
X120803015Y-49183481D01*
X120684481Y-49302015D01*
X120545100Y-49395147D01*
X120390228Y-49459297D01*
X120225816Y-49492000D01*
X120058184Y-49492000D01*
X119893772Y-49459297D01*
X119738900Y-49395147D01*
X119599519Y-49302015D01*
X119480985Y-49183481D01*
X119387853Y-49044100D01*
X119323703Y-48889228D01*
X119291000Y-48724816D01*
X119291000Y-48557184D01*
X119323703Y-48392772D01*
X119387853Y-48237900D01*
X119480985Y-48098519D01*
X119599519Y-47979985D01*
X119738900Y-47886853D01*
X119893772Y-47822703D01*
X120058184Y-47790000D01*
X120225816Y-47790000D01*
X120390228Y-47822703D01*
X120390228Y-47822703D01*
G37*
G36*
X105023228Y-47822703D02*
X105178100Y-47886853D01*
X105317481Y-47979985D01*
X105436015Y-48098519D01*
X105529147Y-48237900D01*
X105593297Y-48392772D01*
X105626000Y-48557184D01*
X105626000Y-48724816D01*
X105593297Y-48889228D01*
X105529147Y-49044100D01*
X105436015Y-49183481D01*
X105317481Y-49302015D01*
X105178100Y-49395147D01*
X105023228Y-49459297D01*
X104858816Y-49492000D01*
X104691184Y-49492000D01*
X104526772Y-49459297D01*
X104371900Y-49395147D01*
X104232519Y-49302015D01*
X104113985Y-49183481D01*
X104020853Y-49044100D01*
X103956703Y-48889228D01*
X103924000Y-48724816D01*
X103924000Y-48557184D01*
X103956703Y-48392772D01*
X104020853Y-48237900D01*
X104113985Y-48098519D01*
X104232519Y-47979985D01*
X104371900Y-47886853D01*
X104526772Y-47822703D01*
X104691184Y-47790000D01*
X104858816Y-47790000D01*
X105023228Y-47822703D01*
X105023228Y-47822703D01*
G37*
G36*
X113831821Y-47802313D02*
X113831824Y-47802314D01*
X113831825Y-47802314D01*
X113992239Y-47850975D01*
X113992241Y-47850976D01*
X113992244Y-47850977D01*
X114140078Y-47929995D01*
X114269659Y-48036341D01*
X114376005Y-48165922D01*
X114455023Y-48313756D01*
X114455024Y-48313759D01*
X114455025Y-48313761D01*
X114494343Y-48443376D01*
X114503687Y-48474179D01*
X114520117Y-48641000D01*
X114503687Y-48807821D01*
X114503686Y-48807824D01*
X114503686Y-48807825D01*
X114455563Y-48966467D01*
X114455023Y-48968244D01*
X114376005Y-49116078D01*
X114269659Y-49245659D01*
X114140078Y-49352005D01*
X113992244Y-49431023D01*
X113992241Y-49431024D01*
X113992239Y-49431025D01*
X113831825Y-49479686D01*
X113831824Y-49479686D01*
X113831821Y-49479687D01*
X113706804Y-49492000D01*
X113623196Y-49492000D01*
X113498179Y-49479687D01*
X113498176Y-49479686D01*
X113498175Y-49479686D01*
X113337761Y-49431025D01*
X113337759Y-49431024D01*
X113337756Y-49431023D01*
X113189922Y-49352005D01*
X113060341Y-49245659D01*
X112953995Y-49116078D01*
X112874977Y-48968244D01*
X112874438Y-48966467D01*
X112826314Y-48807825D01*
X112826314Y-48807824D01*
X112826313Y-48807821D01*
X112809883Y-48641000D01*
X112826313Y-48474179D01*
X112835657Y-48443376D01*
X112874975Y-48313761D01*
X112874976Y-48313759D01*
X112874977Y-48313756D01*
X112953995Y-48165922D01*
X113060341Y-48036341D01*
X113189922Y-47929995D01*
X113337756Y-47850977D01*
X113337759Y-47850976D01*
X113337761Y-47850975D01*
X113498175Y-47802314D01*
X113498176Y-47802314D01*
X113498179Y-47802313D01*
X113623196Y-47790000D01*
X113706804Y-47790000D01*
X113831821Y-47802313D01*
X113831821Y-47802313D01*
G37*
G36*
X77297228Y-46806703D02*
X77452100Y-46870853D01*
X77591481Y-46963985D01*
X77710015Y-47082519D01*
X77803147Y-47221900D01*
X77867297Y-47376772D01*
X77900000Y-47541184D01*
X77900000Y-47708816D01*
X77867297Y-47873228D01*
X77803147Y-48028100D01*
X77710015Y-48167481D01*
X77591481Y-48286015D01*
X77452100Y-48379147D01*
X77297228Y-48443297D01*
X77132816Y-48476000D01*
X76965184Y-48476000D01*
X76800772Y-48443297D01*
X76645900Y-48379147D01*
X76506519Y-48286015D01*
X76387985Y-48167481D01*
X76294853Y-48028100D01*
X76230703Y-47873228D01*
X76198000Y-47708816D01*
X76198000Y-47541184D01*
X76230703Y-47376772D01*
X76294853Y-47221900D01*
X76387985Y-47082519D01*
X76506519Y-46963985D01*
X76645900Y-46870853D01*
X76800772Y-46806703D01*
X76965184Y-46774000D01*
X77132816Y-46774000D01*
X77297228Y-46806703D01*
X77297228Y-46806703D01*
G37*
G36*
X74797228Y-46806703D02*
X74952100Y-46870853D01*
X75091481Y-46963985D01*
X75210015Y-47082519D01*
X75303147Y-47221900D01*
X75367297Y-47376772D01*
X75400000Y-47541184D01*
X75400000Y-47708816D01*
X75367297Y-47873228D01*
X75303147Y-48028100D01*
X75210015Y-48167481D01*
X75091481Y-48286015D01*
X74952100Y-48379147D01*
X74797228Y-48443297D01*
X74632816Y-48476000D01*
X74465184Y-48476000D01*
X74300772Y-48443297D01*
X74145900Y-48379147D01*
X74006519Y-48286015D01*
X73887985Y-48167481D01*
X73794853Y-48028100D01*
X73730703Y-47873228D01*
X73698000Y-47708816D01*
X73698000Y-47541184D01*
X73730703Y-47376772D01*
X73794853Y-47221900D01*
X73887985Y-47082519D01*
X74006519Y-46963985D01*
X74145900Y-46870853D01*
X74300772Y-46806703D01*
X74465184Y-46774000D01*
X74632816Y-46774000D01*
X74797228Y-46806703D01*
X74797228Y-46806703D01*
G37*
G36*
X65272228Y-45917703D02*
X65427100Y-45981853D01*
X65566481Y-46074985D01*
X65685015Y-46193519D01*
X65778147Y-46332900D01*
X65842297Y-46487772D01*
X65875000Y-46652184D01*
X65875000Y-46819816D01*
X65842297Y-46984228D01*
X65778147Y-47139100D01*
X65685015Y-47278481D01*
X65566481Y-47397015D01*
X65427100Y-47490147D01*
X65272228Y-47554297D01*
X65107816Y-47587000D01*
X64940184Y-47587000D01*
X64775772Y-47554297D01*
X64620900Y-47490147D01*
X64481519Y-47397015D01*
X64362985Y-47278481D01*
X64269853Y-47139100D01*
X64205703Y-46984228D01*
X64173000Y-46819816D01*
X64173000Y-46652184D01*
X64205703Y-46487772D01*
X64269853Y-46332900D01*
X64362985Y-46193519D01*
X64481519Y-46074985D01*
X64620900Y-45981853D01*
X64775772Y-45917703D01*
X64940184Y-45885000D01*
X65107816Y-45885000D01*
X65272228Y-45917703D01*
X65272228Y-45917703D01*
G37*
G36*
X120390228Y-45322703D02*
X120545100Y-45386853D01*
X120684481Y-45479985D01*
X120803015Y-45598519D01*
X120896147Y-45737900D01*
X120960297Y-45892772D01*
X120993000Y-46057184D01*
X120993000Y-46224816D01*
X120960297Y-46389228D01*
X120896147Y-46544100D01*
X120803015Y-46683481D01*
X120684481Y-46802015D01*
X120545100Y-46895147D01*
X120390228Y-46959297D01*
X120225816Y-46992000D01*
X120058184Y-46992000D01*
X119893772Y-46959297D01*
X119738900Y-46895147D01*
X119599519Y-46802015D01*
X119480985Y-46683481D01*
X119387853Y-46544100D01*
X119323703Y-46389228D01*
X119291000Y-46224816D01*
X119291000Y-46057184D01*
X119323703Y-45892772D01*
X119387853Y-45737900D01*
X119480985Y-45598519D01*
X119599519Y-45479985D01*
X119738900Y-45386853D01*
X119893772Y-45322703D01*
X120058184Y-45290000D01*
X120225816Y-45290000D01*
X120390228Y-45322703D01*
X120390228Y-45322703D01*
G37*
G36*
X110520443Y-45185519D02*
X110586628Y-45192038D01*
X110699854Y-45226385D01*
X110756468Y-45243558D01*
X110895088Y-45317653D01*
X110912992Y-45327223D01*
X110948730Y-45356553D01*
X111050187Y-45439815D01*
X111133449Y-45541272D01*
X111162779Y-45577010D01*
X111162780Y-45577012D01*
X111246444Y-45733534D01*
X111246444Y-45733535D01*
X111297964Y-45903374D01*
X111315360Y-46080001D01*
X111297964Y-46256628D01*
X111274827Y-46332900D01*
X111246444Y-46426468D01*
X111213676Y-46487772D01*
X111162779Y-46582992D01*
X111133449Y-46618730D01*
X111050187Y-46720187D01*
X110950479Y-46802014D01*
X110912992Y-46832779D01*
X110912990Y-46832780D01*
X110756468Y-46916444D01*
X110699854Y-46933617D01*
X110586628Y-46967964D01*
X110520444Y-46974482D01*
X110454261Y-46981001D01*
X110365741Y-46981001D01*
X110299559Y-46974483D01*
X110233374Y-46967964D01*
X110120148Y-46933617D01*
X110063534Y-46916444D01*
X109907012Y-46832780D01*
X109907010Y-46832779D01*
X109869523Y-46802014D01*
X109769815Y-46720187D01*
X109686553Y-46618730D01*
X109657223Y-46582992D01*
X109606326Y-46487772D01*
X109573558Y-46426468D01*
X109545175Y-46332900D01*
X109522038Y-46256628D01*
X109504642Y-46080001D01*
X109522038Y-45903374D01*
X109573558Y-45733535D01*
X109573558Y-45733534D01*
X109657222Y-45577012D01*
X109657223Y-45577010D01*
X109686553Y-45541272D01*
X109769815Y-45439815D01*
X109871272Y-45356553D01*
X109907010Y-45327223D01*
X109924914Y-45317653D01*
X110063534Y-45243558D01*
X110120148Y-45226385D01*
X110233374Y-45192038D01*
X110299559Y-45185519D01*
X110365741Y-45179001D01*
X110454261Y-45179001D01*
X110520443Y-45185519D01*
X110520443Y-45185519D01*
G37*
G36*
X107980443Y-45185519D02*
X108046628Y-45192038D01*
X108159854Y-45226385D01*
X108216468Y-45243558D01*
X108355088Y-45317653D01*
X108372992Y-45327223D01*
X108408730Y-45356553D01*
X108510187Y-45439815D01*
X108593449Y-45541272D01*
X108622779Y-45577010D01*
X108622780Y-45577012D01*
X108706444Y-45733534D01*
X108706444Y-45733535D01*
X108757964Y-45903374D01*
X108775360Y-46080001D01*
X108757964Y-46256628D01*
X108734827Y-46332900D01*
X108706444Y-46426468D01*
X108673676Y-46487772D01*
X108622779Y-46582992D01*
X108593449Y-46618730D01*
X108510187Y-46720187D01*
X108410479Y-46802014D01*
X108372992Y-46832779D01*
X108372990Y-46832780D01*
X108216468Y-46916444D01*
X108159854Y-46933617D01*
X108046628Y-46967964D01*
X107980444Y-46974482D01*
X107914261Y-46981001D01*
X107825741Y-46981001D01*
X107759559Y-46974483D01*
X107693374Y-46967964D01*
X107580148Y-46933617D01*
X107523534Y-46916444D01*
X107367012Y-46832780D01*
X107367010Y-46832779D01*
X107329523Y-46802014D01*
X107229815Y-46720187D01*
X107146553Y-46618730D01*
X107117223Y-46582992D01*
X107066326Y-46487772D01*
X107033558Y-46426468D01*
X107005175Y-46332900D01*
X106982038Y-46256628D01*
X106964642Y-46080001D01*
X106982038Y-45903374D01*
X107033558Y-45733535D01*
X107033558Y-45733534D01*
X107117222Y-45577012D01*
X107117223Y-45577010D01*
X107146553Y-45541272D01*
X107229815Y-45439815D01*
X107331272Y-45356553D01*
X107367010Y-45327223D01*
X107384914Y-45317653D01*
X107523534Y-45243558D01*
X107580148Y-45226385D01*
X107693374Y-45192038D01*
X107759559Y-45185519D01*
X107825741Y-45179001D01*
X107914261Y-45179001D01*
X107980443Y-45185519D01*
X107980443Y-45185519D01*
G37*
G36*
X78307252Y-40995818D02*
X78307254Y-40995819D01*
X78307255Y-40995819D01*
X78680513Y-41150427D01*
X79011905Y-41371857D01*
X79016439Y-41374886D01*
X79302114Y-41660561D01*
X79302116Y-41660564D01*
X79526573Y-41996487D01*
X79535898Y-42019000D01*
X79681182Y-42369748D01*
X79760000Y-42765993D01*
X79760000Y-43170007D01*
X79686404Y-43540001D01*
X79681181Y-43566255D01*
X79526573Y-43939513D01*
X79526572Y-43939514D01*
X79302114Y-44275439D01*
X79016439Y-44561114D01*
X79016436Y-44561116D01*
X78680513Y-44785573D01*
X78307255Y-44940181D01*
X78307254Y-44940181D01*
X78307252Y-44940182D01*
X77911007Y-45019000D01*
X77506993Y-45019000D01*
X77110748Y-44940182D01*
X77110746Y-44940181D01*
X77110745Y-44940181D01*
X76737487Y-44785573D01*
X76401564Y-44561116D01*
X76401561Y-44561114D01*
X76115886Y-44275439D01*
X75891428Y-43939514D01*
X75891427Y-43939513D01*
X75736819Y-43566255D01*
X75731597Y-43540001D01*
X75658000Y-43170007D01*
X75658000Y-42765993D01*
X75736818Y-42369748D01*
X75882102Y-42019000D01*
X75891427Y-41996487D01*
X76115884Y-41660564D01*
X76115886Y-41660561D01*
X76401561Y-41374886D01*
X76406095Y-41371857D01*
X76737487Y-41150427D01*
X77110745Y-40995819D01*
X77110746Y-40995819D01*
X77110748Y-40995818D01*
X77506993Y-40917000D01*
X77911007Y-40917000D01*
X78307252Y-40995818D01*
X78307252Y-40995818D01*
G37*
G36*
X107980443Y-42645519D02*
X108046628Y-42652038D01*
X108159854Y-42686385D01*
X108216468Y-42703558D01*
X108333274Y-42765993D01*
X108372992Y-42787223D01*
X108408730Y-42816553D01*
X108510187Y-42899815D01*
X108593449Y-43001272D01*
X108622779Y-43037010D01*
X108622780Y-43037012D01*
X108706444Y-43193534D01*
X108706444Y-43193535D01*
X108757964Y-43363374D01*
X108775360Y-43540001D01*
X108757964Y-43716628D01*
X108723617Y-43829854D01*
X108706444Y-43886468D01*
X108678090Y-43939513D01*
X108622779Y-44042992D01*
X108593449Y-44078730D01*
X108510187Y-44180187D01*
X108408730Y-44263449D01*
X108372992Y-44292779D01*
X108372990Y-44292780D01*
X108216468Y-44376444D01*
X108159854Y-44393617D01*
X108046628Y-44427964D01*
X107980444Y-44434482D01*
X107914261Y-44441001D01*
X107825741Y-44441001D01*
X107759559Y-44434483D01*
X107693374Y-44427964D01*
X107580148Y-44393617D01*
X107523534Y-44376444D01*
X107367012Y-44292780D01*
X107367010Y-44292779D01*
X107331272Y-44263449D01*
X107229815Y-44180187D01*
X107146553Y-44078730D01*
X107117223Y-44042992D01*
X107061912Y-43939513D01*
X107033558Y-43886468D01*
X107016385Y-43829854D01*
X106982038Y-43716628D01*
X106964642Y-43540001D01*
X106982038Y-43363374D01*
X107033558Y-43193535D01*
X107033558Y-43193534D01*
X107117222Y-43037012D01*
X107117223Y-43037010D01*
X107146553Y-43001272D01*
X107229815Y-42899815D01*
X107331272Y-42816553D01*
X107367010Y-42787223D01*
X107406728Y-42765993D01*
X107523534Y-42703558D01*
X107580148Y-42686385D01*
X107693374Y-42652038D01*
X107759559Y-42645519D01*
X107825741Y-42639001D01*
X107914261Y-42639001D01*
X107980443Y-42645519D01*
X107980443Y-42645519D01*
G37*
G36*
X110520443Y-42645519D02*
X110586628Y-42652038D01*
X110699854Y-42686385D01*
X110756468Y-42703558D01*
X110873274Y-42765993D01*
X110912992Y-42787223D01*
X110948730Y-42816553D01*
X111050187Y-42899815D01*
X111133449Y-43001272D01*
X111162779Y-43037010D01*
X111162780Y-43037012D01*
X111246444Y-43193534D01*
X111246444Y-43193535D01*
X111297964Y-43363374D01*
X111315360Y-43540001D01*
X111297964Y-43716628D01*
X111263617Y-43829854D01*
X111246444Y-43886468D01*
X111218090Y-43939513D01*
X111162779Y-44042992D01*
X111133449Y-44078730D01*
X111050187Y-44180187D01*
X110948730Y-44263449D01*
X110912992Y-44292779D01*
X110912990Y-44292780D01*
X110756468Y-44376444D01*
X110699854Y-44393617D01*
X110586628Y-44427964D01*
X110520444Y-44434482D01*
X110454261Y-44441001D01*
X110365741Y-44441001D01*
X110299559Y-44434483D01*
X110233374Y-44427964D01*
X110120148Y-44393617D01*
X110063534Y-44376444D01*
X109907012Y-44292780D01*
X109907010Y-44292779D01*
X109871272Y-44263449D01*
X109769815Y-44180187D01*
X109686553Y-44078730D01*
X109657223Y-44042992D01*
X109601912Y-43939513D01*
X109573558Y-43886468D01*
X109556385Y-43829854D01*
X109522038Y-43716628D01*
X109504642Y-43540001D01*
X109522038Y-43363374D01*
X109573558Y-43193535D01*
X109573558Y-43193534D01*
X109657222Y-43037012D01*
X109657223Y-43037010D01*
X109686553Y-43001272D01*
X109769815Y-42899815D01*
X109871272Y-42816553D01*
X109907010Y-42787223D01*
X109946728Y-42765993D01*
X110063534Y-42703558D01*
X110120148Y-42686385D01*
X110233374Y-42652038D01*
X110299559Y-42645519D01*
X110365741Y-42639001D01*
X110454261Y-42639001D01*
X110520443Y-42645519D01*
X110520443Y-42645519D01*
G37*
G36*
X84986396Y-40153546D02*
X85159466Y-40225234D01*
X85315230Y-40329312D01*
X85447688Y-40461770D01*
X85551766Y-40617534D01*
X85623454Y-40790604D01*
X85660000Y-40974333D01*
X85660000Y-41161667D01*
X85623454Y-41345396D01*
X85551766Y-41518466D01*
X85447688Y-41674230D01*
X85315230Y-41806688D01*
X85159466Y-41910766D01*
X84986396Y-41982454D01*
X84802667Y-42019000D01*
X84615333Y-42019000D01*
X84431604Y-41982454D01*
X84258534Y-41910766D01*
X84102770Y-41806688D01*
X83970312Y-41674230D01*
X83866234Y-41518466D01*
X83794546Y-41345396D01*
X83758000Y-41161667D01*
X83758000Y-40974333D01*
X83794546Y-40790604D01*
X83866234Y-40617534D01*
X83970312Y-40461770D01*
X84102770Y-40329312D01*
X84258534Y-40225234D01*
X84431604Y-40153546D01*
X84615333Y-40117000D01*
X84802667Y-40117000D01*
X84986396Y-40153546D01*
X84986396Y-40153546D01*
G37*
G36*
X98546228Y-40329703D02*
X98701100Y-40393853D01*
X98840481Y-40486985D01*
X98959015Y-40605519D01*
X99052147Y-40744900D01*
X99116297Y-40899772D01*
X99149000Y-41064184D01*
X99149000Y-41231816D01*
X99116297Y-41396228D01*
X99052147Y-41551100D01*
X98959015Y-41690481D01*
X98840481Y-41809015D01*
X98701100Y-41902147D01*
X98546228Y-41966297D01*
X98381816Y-41999000D01*
X98214184Y-41999000D01*
X98049772Y-41966297D01*
X97894900Y-41902147D01*
X97755519Y-41809015D01*
X97636985Y-41690481D01*
X97543853Y-41551100D01*
X97479703Y-41396228D01*
X97447000Y-41231816D01*
X97447000Y-41064184D01*
X97479703Y-40899772D01*
X97543853Y-40744900D01*
X97636985Y-40605519D01*
X97755519Y-40486985D01*
X97894900Y-40393853D01*
X98049772Y-40329703D01*
X98214184Y-40297000D01*
X98381816Y-40297000D01*
X98546228Y-40329703D01*
X98546228Y-40329703D01*
G37*
G36*
X92487000Y-41949000D02*
X89885000Y-41949000D01*
X89885000Y-40347000D01*
X92487000Y-40347000D01*
X92487000Y-41949000D01*
X92487000Y-41949000D01*
G37*
G36*
X110520444Y-40105520D02*
X110586628Y-40112038D01*
X110699854Y-40146385D01*
X110756468Y-40163558D01*
X110871854Y-40225234D01*
X110912992Y-40247223D01*
X110948730Y-40276553D01*
X111050187Y-40359815D01*
X111133449Y-40461272D01*
X111162779Y-40497010D01*
X111162780Y-40497012D01*
X111246444Y-40653534D01*
X111246444Y-40653535D01*
X111297964Y-40823374D01*
X111315360Y-41000001D01*
X111297964Y-41176628D01*
X111281223Y-41231816D01*
X111246444Y-41346468D01*
X111231255Y-41374884D01*
X111162779Y-41502992D01*
X111150079Y-41518467D01*
X111050187Y-41640187D01*
X110948730Y-41723449D01*
X110912992Y-41752779D01*
X110912990Y-41752780D01*
X110756468Y-41836444D01*
X110699854Y-41853617D01*
X110586628Y-41887964D01*
X110520444Y-41894482D01*
X110454261Y-41901001D01*
X110365741Y-41901001D01*
X110299558Y-41894482D01*
X110233374Y-41887964D01*
X110120148Y-41853617D01*
X110063534Y-41836444D01*
X109907012Y-41752780D01*
X109907010Y-41752779D01*
X109871272Y-41723449D01*
X109769815Y-41640187D01*
X109669923Y-41518467D01*
X109657223Y-41502992D01*
X109588747Y-41374884D01*
X109573558Y-41346468D01*
X109538779Y-41231816D01*
X109522038Y-41176628D01*
X109504642Y-41000001D01*
X109522038Y-40823374D01*
X109573558Y-40653535D01*
X109573558Y-40653534D01*
X109657222Y-40497012D01*
X109657223Y-40497010D01*
X109686553Y-40461272D01*
X109769815Y-40359815D01*
X109871272Y-40276553D01*
X109907010Y-40247223D01*
X109948148Y-40225234D01*
X110063534Y-40163558D01*
X110120148Y-40146385D01*
X110233374Y-40112038D01*
X110299558Y-40105520D01*
X110365741Y-40099001D01*
X110454261Y-40099001D01*
X110520444Y-40105520D01*
X110520444Y-40105520D01*
G37*
G36*
X107980444Y-40105520D02*
X108046628Y-40112038D01*
X108159854Y-40146385D01*
X108216468Y-40163558D01*
X108331854Y-40225234D01*
X108372992Y-40247223D01*
X108408730Y-40276553D01*
X108510187Y-40359815D01*
X108593449Y-40461272D01*
X108622779Y-40497010D01*
X108622780Y-40497012D01*
X108706444Y-40653534D01*
X108706444Y-40653535D01*
X108757964Y-40823374D01*
X108775360Y-41000001D01*
X108757964Y-41176628D01*
X108741223Y-41231816D01*
X108706444Y-41346468D01*
X108691255Y-41374884D01*
X108622779Y-41502992D01*
X108610079Y-41518467D01*
X108510187Y-41640187D01*
X108408730Y-41723449D01*
X108372992Y-41752779D01*
X108372990Y-41752780D01*
X108216468Y-41836444D01*
X108159854Y-41853617D01*
X108046628Y-41887964D01*
X107980444Y-41894482D01*
X107914261Y-41901001D01*
X107825741Y-41901001D01*
X107759558Y-41894482D01*
X107693374Y-41887964D01*
X107580148Y-41853617D01*
X107523534Y-41836444D01*
X107367012Y-41752780D01*
X107367010Y-41752779D01*
X107331272Y-41723449D01*
X107229815Y-41640187D01*
X107129923Y-41518467D01*
X107117223Y-41502992D01*
X107048747Y-41374884D01*
X107033558Y-41346468D01*
X106998779Y-41231816D01*
X106982038Y-41176628D01*
X106964642Y-41000001D01*
X106982038Y-40823374D01*
X107033558Y-40653535D01*
X107033558Y-40653534D01*
X107117222Y-40497012D01*
X107117223Y-40497010D01*
X107146553Y-40461272D01*
X107229815Y-40359815D01*
X107331272Y-40276553D01*
X107367010Y-40247223D01*
X107408148Y-40225234D01*
X107523534Y-40163558D01*
X107580148Y-40146385D01*
X107693374Y-40112038D01*
X107759558Y-40105520D01*
X107825741Y-40099001D01*
X107914261Y-40099001D01*
X107980444Y-40105520D01*
X107980444Y-40105520D01*
G37*
G36*
X117091180Y-37336662D02*
X117192635Y-37346654D01*
X117409600Y-37412470D01*
X117409602Y-37412471D01*
X117409605Y-37412472D01*
X117609556Y-37519347D01*
X117784818Y-37663182D01*
X117928653Y-37838444D01*
X118035528Y-38038395D01*
X118035529Y-38038398D01*
X118035530Y-38038400D01*
X118101346Y-38255365D01*
X118123569Y-38481000D01*
X118101346Y-38706635D01*
X118047512Y-38884100D01*
X118035528Y-38923605D01*
X117928653Y-39123556D01*
X117784818Y-39298818D01*
X117609556Y-39442653D01*
X117409605Y-39549528D01*
X117409602Y-39549529D01*
X117409600Y-39549530D01*
X117192635Y-39615346D01*
X117091180Y-39625338D01*
X117023545Y-39632000D01*
X116910455Y-39632000D01*
X116842820Y-39625338D01*
X116741365Y-39615346D01*
X116524400Y-39549530D01*
X116524398Y-39549529D01*
X116524395Y-39549528D01*
X116324444Y-39442653D01*
X116149182Y-39298818D01*
X116005347Y-39123556D01*
X115898472Y-38923605D01*
X115886488Y-38884100D01*
X115832654Y-38706635D01*
X115810431Y-38481000D01*
X115832654Y-38255365D01*
X115898470Y-38038400D01*
X115898471Y-38038398D01*
X115898472Y-38038395D01*
X116005347Y-37838444D01*
X116149182Y-37663182D01*
X116324444Y-37519347D01*
X116524395Y-37412472D01*
X116524398Y-37412471D01*
X116524400Y-37412470D01*
X116741365Y-37346654D01*
X116842820Y-37336662D01*
X116910455Y-37330000D01*
X117023545Y-37330000D01*
X117091180Y-37336662D01*
X117091180Y-37336662D01*
G37*
G36*
X101597180Y-37336662D02*
X101698635Y-37346654D01*
X101915600Y-37412470D01*
X101915602Y-37412471D01*
X101915605Y-37412472D01*
X102115556Y-37519347D01*
X102290818Y-37663182D01*
X102434653Y-37838444D01*
X102541528Y-38038395D01*
X102541529Y-38038398D01*
X102541530Y-38038400D01*
X102607346Y-38255365D01*
X102629569Y-38481000D01*
X102607346Y-38706635D01*
X102553512Y-38884100D01*
X102541528Y-38923605D01*
X102434653Y-39123556D01*
X102290818Y-39298818D01*
X102115556Y-39442653D01*
X101915605Y-39549528D01*
X101915602Y-39549529D01*
X101915600Y-39549530D01*
X101698635Y-39615346D01*
X101597180Y-39625338D01*
X101529545Y-39632000D01*
X101416455Y-39632000D01*
X101348820Y-39625338D01*
X101247365Y-39615346D01*
X101030400Y-39549530D01*
X101030398Y-39549529D01*
X101030395Y-39549528D01*
X100830444Y-39442653D01*
X100655182Y-39298818D01*
X100511347Y-39123556D01*
X100404472Y-38923605D01*
X100392488Y-38884100D01*
X100338654Y-38706635D01*
X100316431Y-38481000D01*
X100338654Y-38255365D01*
X100404470Y-38038400D01*
X100404471Y-38038398D01*
X100404472Y-38038395D01*
X100511347Y-37838444D01*
X100655182Y-37663182D01*
X100830444Y-37519347D01*
X101030395Y-37412472D01*
X101030398Y-37412471D01*
X101030400Y-37412470D01*
X101247365Y-37346654D01*
X101348820Y-37336662D01*
X101416455Y-37330000D01*
X101529545Y-37330000D01*
X101597180Y-37336662D01*
X101597180Y-37336662D01*
G37*
G36*
X84986396Y-37653546D02*
X85159466Y-37725234D01*
X85315230Y-37829312D01*
X85447688Y-37961770D01*
X85551766Y-38117534D01*
X85623454Y-38290604D01*
X85660000Y-38474333D01*
X85660000Y-38661667D01*
X85623454Y-38845396D01*
X85551766Y-39018466D01*
X85447688Y-39174230D01*
X85315230Y-39306688D01*
X85159466Y-39410766D01*
X84986396Y-39482454D01*
X84802667Y-39519000D01*
X84615333Y-39519000D01*
X84431604Y-39482454D01*
X84258534Y-39410766D01*
X84102770Y-39306688D01*
X83970312Y-39174230D01*
X83866234Y-39018466D01*
X83794546Y-38845396D01*
X83758000Y-38661667D01*
X83758000Y-38474333D01*
X83794546Y-38290604D01*
X83866234Y-38117534D01*
X83970312Y-37961770D01*
X84102770Y-37829312D01*
X84258534Y-37725234D01*
X84431604Y-37653546D01*
X84615333Y-37617000D01*
X84802667Y-37617000D01*
X84986396Y-37653546D01*
X84986396Y-37653546D01*
G37*
G36*
X98546228Y-37829703D02*
X98701100Y-37893853D01*
X98840481Y-37986985D01*
X98959015Y-38105519D01*
X99052147Y-38244900D01*
X99116297Y-38399772D01*
X99149000Y-38564184D01*
X99149000Y-38731816D01*
X99116297Y-38896228D01*
X99052147Y-39051100D01*
X98959015Y-39190481D01*
X98840481Y-39309015D01*
X98701100Y-39402147D01*
X98546228Y-39466297D01*
X98381816Y-39499000D01*
X98214184Y-39499000D01*
X98049772Y-39466297D01*
X97894900Y-39402147D01*
X97755519Y-39309015D01*
X97636985Y-39190481D01*
X97543853Y-39051100D01*
X97479703Y-38896228D01*
X97447000Y-38731816D01*
X97447000Y-38564184D01*
X97479703Y-38399772D01*
X97543853Y-38244900D01*
X97636985Y-38105519D01*
X97755519Y-37986985D01*
X97894900Y-37893853D01*
X98049772Y-37829703D01*
X98214184Y-37797000D01*
X98381816Y-37797000D01*
X98546228Y-37829703D01*
X98546228Y-37829703D01*
G37*
G36*
X108771001Y-39361001D02*
X106969001Y-39361001D01*
X106969001Y-37559001D01*
X108771001Y-37559001D01*
X108771001Y-39361001D01*
X108771001Y-39361001D01*
G37*
G36*
X110520444Y-37565520D02*
X110586628Y-37572038D01*
X110699854Y-37606385D01*
X110756468Y-37623558D01*
X110830598Y-37663182D01*
X110912992Y-37707223D01*
X110936911Y-37726853D01*
X111050187Y-37819815D01*
X111110948Y-37893854D01*
X111162779Y-37957010D01*
X111162780Y-37957012D01*
X111246444Y-38113534D01*
X111246444Y-38113535D01*
X111297964Y-38283374D01*
X111315360Y-38460001D01*
X111297964Y-38636628D01*
X111269874Y-38729228D01*
X111246444Y-38806468D01*
X111183835Y-38923600D01*
X111162779Y-38962992D01*
X111133449Y-38998730D01*
X111050187Y-39100187D01*
X110959964Y-39174230D01*
X110912992Y-39212779D01*
X110912990Y-39212780D01*
X110756468Y-39296444D01*
X110715029Y-39309014D01*
X110586628Y-39347964D01*
X110520443Y-39354483D01*
X110454261Y-39361001D01*
X110365741Y-39361001D01*
X110299559Y-39354483D01*
X110233374Y-39347964D01*
X110104973Y-39309014D01*
X110063534Y-39296444D01*
X109907012Y-39212780D01*
X109907010Y-39212779D01*
X109860038Y-39174230D01*
X109769815Y-39100187D01*
X109686553Y-38998730D01*
X109657223Y-38962992D01*
X109636167Y-38923600D01*
X109573558Y-38806468D01*
X109550128Y-38729228D01*
X109522038Y-38636628D01*
X109504642Y-38460001D01*
X109522038Y-38283374D01*
X109573558Y-38113535D01*
X109573558Y-38113534D01*
X109657222Y-37957012D01*
X109657223Y-37957010D01*
X109709054Y-37893854D01*
X109769815Y-37819815D01*
X109883091Y-37726853D01*
X109907010Y-37707223D01*
X109989404Y-37663182D01*
X110063534Y-37623558D01*
X110120148Y-37606385D01*
X110233374Y-37572038D01*
X110299558Y-37565520D01*
X110365741Y-37559001D01*
X110454261Y-37559001D01*
X110520444Y-37565520D01*
X110520444Y-37565520D01*
G37*
G36*
X113913228Y-37662703D02*
X114068100Y-37726853D01*
X114207481Y-37819985D01*
X114326015Y-37938519D01*
X114419147Y-38077900D01*
X114483297Y-38232772D01*
X114516000Y-38397184D01*
X114516000Y-38564816D01*
X114483297Y-38729228D01*
X114419147Y-38884100D01*
X114326015Y-39023481D01*
X114207481Y-39142015D01*
X114068100Y-39235147D01*
X113913228Y-39299297D01*
X113748816Y-39332000D01*
X113581184Y-39332000D01*
X113416772Y-39299297D01*
X113261900Y-39235147D01*
X113122519Y-39142015D01*
X113003985Y-39023481D01*
X112910853Y-38884100D01*
X112846703Y-38729228D01*
X112814000Y-38564816D01*
X112814000Y-38397184D01*
X112846703Y-38232772D01*
X112910853Y-38077900D01*
X113003985Y-37938519D01*
X113122519Y-37819985D01*
X113261900Y-37726853D01*
X113416772Y-37662703D01*
X113581184Y-37630000D01*
X113748816Y-37630000D01*
X113913228Y-37662703D01*
X113913228Y-37662703D01*
G37*
G36*
X104941821Y-37642313D02*
X104941824Y-37642314D01*
X104941825Y-37642314D01*
X105102239Y-37690975D01*
X105102241Y-37690976D01*
X105102244Y-37690977D01*
X105250078Y-37769995D01*
X105379659Y-37876341D01*
X105486005Y-38005922D01*
X105565023Y-38153756D01*
X105565024Y-38153759D01*
X105565025Y-38153761D01*
X105604343Y-38283376D01*
X105613687Y-38314179D01*
X105630117Y-38481000D01*
X105613687Y-38647821D01*
X105613686Y-38647824D01*
X105613686Y-38647825D01*
X105565563Y-38806467D01*
X105565023Y-38808244D01*
X105486005Y-38956078D01*
X105379659Y-39085659D01*
X105250078Y-39192005D01*
X105102244Y-39271023D01*
X105102241Y-39271024D01*
X105102239Y-39271025D01*
X104941825Y-39319686D01*
X104941824Y-39319686D01*
X104941821Y-39319687D01*
X104816804Y-39332000D01*
X104733196Y-39332000D01*
X104608179Y-39319687D01*
X104608176Y-39319686D01*
X104608175Y-39319686D01*
X104447761Y-39271025D01*
X104447759Y-39271024D01*
X104447756Y-39271023D01*
X104299922Y-39192005D01*
X104170341Y-39085659D01*
X104063995Y-38956078D01*
X103984977Y-38808244D01*
X103984438Y-38806467D01*
X103936314Y-38647825D01*
X103936314Y-38647824D01*
X103936313Y-38647821D01*
X103919883Y-38481000D01*
X103936313Y-38314179D01*
X103945657Y-38283376D01*
X103984975Y-38153761D01*
X103984976Y-38153759D01*
X103984977Y-38153756D01*
X104063995Y-38005922D01*
X104170341Y-37876341D01*
X104299922Y-37769995D01*
X104447756Y-37690977D01*
X104447759Y-37690976D01*
X104447761Y-37690975D01*
X104608175Y-37642314D01*
X104608176Y-37642314D01*
X104608179Y-37642313D01*
X104733196Y-37630000D01*
X104816804Y-37630000D01*
X104941821Y-37642313D01*
X104941821Y-37642313D01*
G37*
G36*
X95027000Y-38393000D02*
X92425000Y-38393000D01*
X92425000Y-36791000D01*
X95027000Y-36791000D01*
X95027000Y-38393000D01*
X95027000Y-38393000D01*
G37*
G36*
X84986396Y-35153546D02*
X85159466Y-35225234D01*
X85315230Y-35329312D01*
X85447688Y-35461770D01*
X85551766Y-35617534D01*
X85623454Y-35790604D01*
X85660000Y-35974333D01*
X85660000Y-36161667D01*
X85623454Y-36345396D01*
X85551766Y-36518466D01*
X85447688Y-36674230D01*
X85315230Y-36806688D01*
X85159466Y-36910766D01*
X84986396Y-36982454D01*
X84802667Y-37019000D01*
X84615333Y-37019000D01*
X84431604Y-36982454D01*
X84258534Y-36910766D01*
X84102770Y-36806688D01*
X83970312Y-36674230D01*
X83866234Y-36518466D01*
X83794546Y-36345396D01*
X83758000Y-36161667D01*
X83758000Y-35974333D01*
X83794546Y-35790604D01*
X83866234Y-35617534D01*
X83970312Y-35461770D01*
X84102770Y-35329312D01*
X84258534Y-35225234D01*
X84431604Y-35153546D01*
X84615333Y-35117000D01*
X84802667Y-35117000D01*
X84986396Y-35153546D01*
X84986396Y-35153546D01*
G37*
G36*
X89947000Y-36869000D02*
X87345000Y-36869000D01*
X87345000Y-35267000D01*
X89947000Y-35267000D01*
X89947000Y-36869000D01*
X89947000Y-36869000D01*
G37*
G36*
X78307252Y-32195818D02*
X78307254Y-32195819D01*
X78307255Y-32195819D01*
X78680513Y-32350427D01*
X78885962Y-32487704D01*
X79016439Y-32574886D01*
X79302114Y-32860561D01*
X79302116Y-32860564D01*
X79526573Y-33196487D01*
X79681181Y-33569745D01*
X79681182Y-33569748D01*
X79736625Y-33848481D01*
X79760000Y-33965994D01*
X79760000Y-34370006D01*
X79681181Y-34766255D01*
X79526573Y-35139513D01*
X79469296Y-35225234D01*
X79302114Y-35475439D01*
X79016439Y-35761114D01*
X79016436Y-35761116D01*
X78680513Y-35985573D01*
X78307255Y-36140181D01*
X78307254Y-36140181D01*
X78307252Y-36140182D01*
X77911007Y-36219000D01*
X77506993Y-36219000D01*
X77110748Y-36140182D01*
X77110746Y-36140181D01*
X77110745Y-36140181D01*
X76737487Y-35985573D01*
X76401564Y-35761116D01*
X76401561Y-35761114D01*
X76115886Y-35475439D01*
X75948704Y-35225234D01*
X75891427Y-35139513D01*
X75736819Y-34766255D01*
X75658000Y-34370006D01*
X75658000Y-33965994D01*
X75681375Y-33848481D01*
X75736818Y-33569748D01*
X75736819Y-33569745D01*
X75891427Y-33196487D01*
X76115884Y-32860564D01*
X76115886Y-32860561D01*
X76401561Y-32574886D01*
X76532038Y-32487704D01*
X76737487Y-32350427D01*
X77110745Y-32195819D01*
X77110746Y-32195819D01*
X77110748Y-32195818D01*
X77506993Y-32117000D01*
X77911007Y-32117000D01*
X78307252Y-32195818D01*
X78307252Y-32195818D01*
G37*
G36*
X100292000Y-36157000D02*
X98590000Y-36157000D01*
X98590000Y-34455000D01*
X100292000Y-34455000D01*
X100292000Y-36157000D01*
X100292000Y-36157000D01*
G37*
G36*
X92487000Y-34329000D02*
X89885000Y-34329000D01*
X89885000Y-32727000D01*
X92487000Y-32727000D01*
X92487000Y-34329000D01*
X92487000Y-34329000D01*
G37*
G36*
X99689228Y-32487703D02*
X99844100Y-32551853D01*
X99983481Y-32644985D01*
X100102015Y-32763519D01*
X100195147Y-32902900D01*
X100259297Y-33057772D01*
X100292000Y-33222184D01*
X100292000Y-33389816D01*
X100259297Y-33554228D01*
X100195147Y-33709100D01*
X100102015Y-33848481D01*
X99983481Y-33967015D01*
X99844100Y-34060147D01*
X99689228Y-34124297D01*
X99524816Y-34157000D01*
X99357184Y-34157000D01*
X99192772Y-34124297D01*
X99037900Y-34060147D01*
X98898519Y-33967015D01*
X98779985Y-33848481D01*
X98686853Y-33709100D01*
X98622703Y-33554228D01*
X98590000Y-33389816D01*
X98590000Y-33222184D01*
X98622703Y-33057772D01*
X98686853Y-32902900D01*
X98779985Y-32763519D01*
X98898519Y-32644985D01*
X99037900Y-32551853D01*
X99192772Y-32487703D01*
X99357184Y-32455000D01*
X99524816Y-32455000D01*
X99689228Y-32487703D01*
X99689228Y-32487703D01*
G37*
G36*
X91307228Y-29280703D02*
X91462100Y-29344853D01*
X91601481Y-29437985D01*
X91720015Y-29556519D01*
X91813147Y-29695900D01*
X91877297Y-29850772D01*
X91910000Y-30015184D01*
X91910000Y-30182816D01*
X91877297Y-30347228D01*
X91813147Y-30502100D01*
X91720015Y-30641481D01*
X91601481Y-30760015D01*
X91462100Y-30853147D01*
X91307228Y-30917297D01*
X91142816Y-30950000D01*
X90975184Y-30950000D01*
X90810772Y-30917297D01*
X90655900Y-30853147D01*
X90516519Y-30760015D01*
X90397985Y-30641481D01*
X90304853Y-30502100D01*
X90240703Y-30347228D01*
X90208000Y-30182816D01*
X90208000Y-30015184D01*
X90240703Y-29850772D01*
X90304853Y-29695900D01*
X90397985Y-29556519D01*
X90516519Y-29437985D01*
X90655900Y-29344853D01*
X90810772Y-29280703D01*
X90975184Y-29248000D01*
X91142816Y-29248000D01*
X91307228Y-29280703D01*
X91307228Y-29280703D01*
G37*
G36*
X81065821Y-29260313D02*
X81065824Y-29260314D01*
X81065825Y-29260314D01*
X81226239Y-29308975D01*
X81226241Y-29308976D01*
X81226244Y-29308977D01*
X81374078Y-29387995D01*
X81503659Y-29494341D01*
X81610005Y-29623922D01*
X81689023Y-29771756D01*
X81689024Y-29771759D01*
X81689025Y-29771761D01*
X81737686Y-29932175D01*
X81737687Y-29932179D01*
X81754117Y-30099000D01*
X81737687Y-30265821D01*
X81737686Y-30265824D01*
X81737686Y-30265825D01*
X81712993Y-30347228D01*
X81689023Y-30426244D01*
X81610005Y-30574078D01*
X81503659Y-30703659D01*
X81374078Y-30810005D01*
X81226244Y-30889023D01*
X81226241Y-30889024D01*
X81226239Y-30889025D01*
X81065825Y-30937686D01*
X81065824Y-30937686D01*
X81065821Y-30937687D01*
X80940804Y-30950000D01*
X80857196Y-30950000D01*
X80732179Y-30937687D01*
X80732176Y-30937686D01*
X80732175Y-30937686D01*
X80571761Y-30889025D01*
X80571759Y-30889024D01*
X80571756Y-30889023D01*
X80423922Y-30810005D01*
X80294341Y-30703659D01*
X80187995Y-30574078D01*
X80108977Y-30426244D01*
X80085008Y-30347228D01*
X80060314Y-30265825D01*
X80060314Y-30265824D01*
X80060313Y-30265821D01*
X80043883Y-30099000D01*
X80060313Y-29932179D01*
X80060314Y-29932175D01*
X80108975Y-29771761D01*
X80108976Y-29771759D01*
X80108977Y-29771756D01*
X80187995Y-29623922D01*
X80294341Y-29494341D01*
X80423922Y-29387995D01*
X80571756Y-29308977D01*
X80571759Y-29308976D01*
X80571761Y-29308975D01*
X80732175Y-29260314D01*
X80732176Y-29260314D01*
X80732179Y-29260313D01*
X80857196Y-29248000D01*
X80940804Y-29248000D01*
X81065821Y-29260313D01*
X81065821Y-29260313D01*
G37*
G36*
X101512821Y-29260313D02*
X101512824Y-29260314D01*
X101512825Y-29260314D01*
X101673239Y-29308975D01*
X101673241Y-29308976D01*
X101673244Y-29308977D01*
X101821078Y-29387995D01*
X101950659Y-29494341D01*
X102057005Y-29623922D01*
X102136023Y-29771756D01*
X102136024Y-29771759D01*
X102136025Y-29771761D01*
X102184686Y-29932175D01*
X102184687Y-29932179D01*
X102201117Y-30099000D01*
X102184687Y-30265821D01*
X102184686Y-30265824D01*
X102184686Y-30265825D01*
X102159993Y-30347228D01*
X102136023Y-30426244D01*
X102057005Y-30574078D01*
X101950659Y-30703659D01*
X101821078Y-30810005D01*
X101673244Y-30889023D01*
X101673241Y-30889024D01*
X101673239Y-30889025D01*
X101512825Y-30937686D01*
X101512824Y-30937686D01*
X101512821Y-30937687D01*
X101387804Y-30950000D01*
X101304196Y-30950000D01*
X101179179Y-30937687D01*
X101179176Y-30937686D01*
X101179175Y-30937686D01*
X101018761Y-30889025D01*
X101018759Y-30889024D01*
X101018756Y-30889023D01*
X100870922Y-30810005D01*
X100741341Y-30703659D01*
X100634995Y-30574078D01*
X100555977Y-30426244D01*
X100532008Y-30347228D01*
X100507314Y-30265825D01*
X100507314Y-30265824D01*
X100507313Y-30265821D01*
X100490883Y-30099000D01*
X100507313Y-29932179D01*
X100507314Y-29932175D01*
X100555975Y-29771761D01*
X100555976Y-29771759D01*
X100555977Y-29771756D01*
X100634995Y-29623922D01*
X100741341Y-29494341D01*
X100870922Y-29387995D01*
X101018756Y-29308977D01*
X101018759Y-29308976D01*
X101018761Y-29308975D01*
X101179175Y-29260314D01*
X101179176Y-29260314D01*
X101179179Y-29260313D01*
X101304196Y-29248000D01*
X101387804Y-29248000D01*
X101512821Y-29260313D01*
X101512821Y-29260313D01*
G37*
G36*
X111754228Y-29280703D02*
X111909100Y-29344853D01*
X112048481Y-29437985D01*
X112167015Y-29556519D01*
X112260147Y-29695900D01*
X112324297Y-29850772D01*
X112357000Y-30015184D01*
X112357000Y-30182816D01*
X112324297Y-30347228D01*
X112260147Y-30502100D01*
X112167015Y-30641481D01*
X112048481Y-30760015D01*
X111909100Y-30853147D01*
X111754228Y-30917297D01*
X111589816Y-30950000D01*
X111422184Y-30950000D01*
X111257772Y-30917297D01*
X111102900Y-30853147D01*
X110963519Y-30760015D01*
X110844985Y-30641481D01*
X110751853Y-30502100D01*
X110687703Y-30347228D01*
X110655000Y-30182816D01*
X110655000Y-30015184D01*
X110687703Y-29850772D01*
X110751853Y-29695900D01*
X110844985Y-29556519D01*
X110963519Y-29437985D01*
X111102900Y-29344853D01*
X111257772Y-29280703D01*
X111422184Y-29248000D01*
X111589816Y-29248000D01*
X111754228Y-29280703D01*
X111754228Y-29280703D01*
G37*
G36*
X71876228Y-29280703D02*
X72031100Y-29344853D01*
X72170481Y-29437985D01*
X72289015Y-29556519D01*
X72382147Y-29695900D01*
X72446297Y-29850772D01*
X72479000Y-30015184D01*
X72479000Y-30182816D01*
X72446297Y-30347228D01*
X72382147Y-30502100D01*
X72289015Y-30641481D01*
X72170481Y-30760015D01*
X72031100Y-30853147D01*
X71876228Y-30917297D01*
X71711816Y-30950000D01*
X71544184Y-30950000D01*
X71379772Y-30917297D01*
X71224900Y-30853147D01*
X71085519Y-30760015D01*
X70966985Y-30641481D01*
X70873853Y-30502100D01*
X70809703Y-30347228D01*
X70777000Y-30182816D01*
X70777000Y-30015184D01*
X70809703Y-29850772D01*
X70873853Y-29695900D01*
X70966985Y-29556519D01*
X71085519Y-29437985D01*
X71224900Y-29344853D01*
X71379772Y-29280703D01*
X71544184Y-29248000D01*
X71711816Y-29248000D01*
X71876228Y-29280703D01*
X71876228Y-29280703D01*
G37*
G36*
X61634821Y-29260313D02*
X61634824Y-29260314D01*
X61634825Y-29260314D01*
X61795239Y-29308975D01*
X61795241Y-29308976D01*
X61795244Y-29308977D01*
X61943078Y-29387995D01*
X62072659Y-29494341D01*
X62179005Y-29623922D01*
X62258023Y-29771756D01*
X62258024Y-29771759D01*
X62258025Y-29771761D01*
X62306686Y-29932175D01*
X62306687Y-29932179D01*
X62323117Y-30099000D01*
X62306687Y-30265821D01*
X62306686Y-30265824D01*
X62306686Y-30265825D01*
X62281993Y-30347228D01*
X62258023Y-30426244D01*
X62179005Y-30574078D01*
X62072659Y-30703659D01*
X61943078Y-30810005D01*
X61795244Y-30889023D01*
X61795241Y-30889024D01*
X61795239Y-30889025D01*
X61634825Y-30937686D01*
X61634824Y-30937686D01*
X61634821Y-30937687D01*
X61509804Y-30950000D01*
X61426196Y-30950000D01*
X61301179Y-30937687D01*
X61301176Y-30937686D01*
X61301175Y-30937686D01*
X61140761Y-30889025D01*
X61140759Y-30889024D01*
X61140756Y-30889023D01*
X60992922Y-30810005D01*
X60863341Y-30703659D01*
X60756995Y-30574078D01*
X60677977Y-30426244D01*
X60654008Y-30347228D01*
X60629314Y-30265825D01*
X60629314Y-30265824D01*
X60629313Y-30265821D01*
X60612883Y-30099000D01*
X60629313Y-29932179D01*
X60629314Y-29932175D01*
X60677975Y-29771761D01*
X60677976Y-29771759D01*
X60677977Y-29771756D01*
X60756995Y-29623922D01*
X60863341Y-29494341D01*
X60992922Y-29387995D01*
X61140756Y-29308977D01*
X61140759Y-29308976D01*
X61140761Y-29308975D01*
X61301175Y-29260314D01*
X61301176Y-29260314D01*
X61301179Y-29260313D01*
X61426196Y-29248000D01*
X61509804Y-29248000D01*
X61634821Y-29260313D01*
X61634821Y-29260313D01*
G37*
G36*
X107981000Y-27725000D02*
X105379000Y-27725000D01*
X105379000Y-26123000D01*
X107981000Y-26123000D01*
X107981000Y-27725000D01*
X107981000Y-27725000D01*
G37*
G36*
X118268000Y-27725000D02*
X115666000Y-27725000D01*
X115666000Y-26123000D01*
X118268000Y-26123000D01*
X118268000Y-27725000D01*
X118268000Y-27725000D01*
G37*
G36*
X97694000Y-27725000D02*
X95092000Y-27725000D01*
X95092000Y-26123000D01*
X97694000Y-26123000D01*
X97694000Y-27725000D01*
X97694000Y-27725000D01*
G37*
G36*
X66706000Y-27725000D02*
X64104000Y-27725000D01*
X64104000Y-26123000D01*
X66706000Y-26123000D01*
X66706000Y-27725000D01*
X66706000Y-27725000D01*
G37*
G36*
X87280000Y-27725000D02*
X84678000Y-27725000D01*
X84678000Y-26123000D01*
X87280000Y-26123000D01*
X87280000Y-27725000D01*
X87280000Y-27725000D01*
G37*
G36*
X76993000Y-27725000D02*
X74391000Y-27725000D01*
X74391000Y-26123000D01*
X76993000Y-26123000D01*
X76993000Y-27725000D01*
X76993000Y-27725000D01*
G37*
G36*
X110521000Y-25185000D02*
X107919000Y-25185000D01*
X107919000Y-23583000D01*
X110521000Y-23583000D01*
X110521000Y-25185000D01*
X110521000Y-25185000D01*
G37*
G36*
X120808000Y-25185000D02*
X118206000Y-25185000D01*
X118206000Y-23583000D01*
X120808000Y-23583000D01*
X120808000Y-25185000D01*
X120808000Y-25185000D01*
G37*
G36*
X100234000Y-25185000D02*
X97632000Y-25185000D01*
X97632000Y-23583000D01*
X100234000Y-23583000D01*
X100234000Y-25185000D01*
X100234000Y-25185000D01*
G37*
G36*
X89820000Y-25185000D02*
X87218000Y-25185000D01*
X87218000Y-23583000D01*
X89820000Y-23583000D01*
X89820000Y-25185000D01*
X89820000Y-25185000D01*
G37*
G36*
X79533000Y-25185000D02*
X76931000Y-25185000D01*
X76931000Y-23583000D01*
X79533000Y-23583000D01*
X79533000Y-25185000D01*
X79533000Y-25185000D01*
G37*
G36*
X69246000Y-25185000D02*
X66644000Y-25185000D01*
X66644000Y-23583000D01*
X69246000Y-23583000D01*
X69246000Y-25185000D01*
X69246000Y-25185000D01*
G37*
G36*
X64166000Y-23661000D02*
X61564000Y-23661000D01*
X61564000Y-22059000D01*
X64166000Y-22059000D01*
X64166000Y-23661000D01*
X64166000Y-23661000D01*
G37*
G36*
X115728000Y-23661000D02*
X113126000Y-23661000D01*
X113126000Y-22059000D01*
X115728000Y-22059000D01*
X115728000Y-23661000D01*
X115728000Y-23661000D01*
G37*
G36*
X74453000Y-23661000D02*
X71851000Y-23661000D01*
X71851000Y-22059000D01*
X74453000Y-22059000D01*
X74453000Y-23661000D01*
X74453000Y-23661000D01*
G37*
G36*
X84740000Y-23661000D02*
X82138000Y-23661000D01*
X82138000Y-22059000D01*
X84740000Y-22059000D01*
X84740000Y-23661000D01*
X84740000Y-23661000D01*
G37*
G36*
X95154000Y-23661000D02*
X92552000Y-23661000D01*
X92552000Y-22059000D01*
X95154000Y-22059000D01*
X95154000Y-23661000D01*
X95154000Y-23661000D01*
G37*
G36*
X105441000Y-23661000D02*
X102839000Y-23661000D01*
X102839000Y-22059000D01*
X105441000Y-22059000D01*
X105441000Y-23661000D01*
X105441000Y-23661000D01*
G37*
G36*
X66706000Y-20105000D02*
X64104000Y-20105000D01*
X64104000Y-18503000D01*
X66706000Y-18503000D01*
X66706000Y-20105000D01*
X66706000Y-20105000D01*
G37*
G36*
X87280000Y-20105000D02*
X84678000Y-20105000D01*
X84678000Y-18503000D01*
X87280000Y-18503000D01*
X87280000Y-20105000D01*
X87280000Y-20105000D01*
G37*
G36*
X76993000Y-20105000D02*
X74391000Y-20105000D01*
X74391000Y-18503000D01*
X76993000Y-18503000D01*
X76993000Y-20105000D01*
X76993000Y-20105000D01*
G37*
G36*
X97694000Y-20105000D02*
X95092000Y-20105000D01*
X95092000Y-18503000D01*
X97694000Y-18503000D01*
X97694000Y-20105000D01*
X97694000Y-20105000D01*
G37*
G36*
X107981000Y-20105000D02*
X105379000Y-20105000D01*
X105379000Y-18503000D01*
X107981000Y-18503000D01*
X107981000Y-20105000D01*
X107981000Y-20105000D01*
G37*
G36*
X118268000Y-20105000D02*
X115666000Y-20105000D01*
X115666000Y-18503000D01*
X118268000Y-18503000D01*
X118268000Y-20105000D01*
X118268000Y-20105000D01*
G37*
G36*
X80811821Y-15544313D02*
X80811824Y-15544314D01*
X80811825Y-15544314D01*
X80972239Y-15592975D01*
X80972241Y-15592976D01*
X80972244Y-15592977D01*
X81120078Y-15671995D01*
X81249659Y-15778341D01*
X81356005Y-15907922D01*
X81435023Y-16055756D01*
X81435024Y-16055759D01*
X81435025Y-16055761D01*
X81483686Y-16216175D01*
X81483687Y-16216179D01*
X81500117Y-16383000D01*
X81483687Y-16549821D01*
X81483686Y-16549824D01*
X81483686Y-16549825D01*
X81458993Y-16631228D01*
X81435023Y-16710244D01*
X81356005Y-16858078D01*
X81249659Y-16987659D01*
X81120078Y-17094005D01*
X80972244Y-17173023D01*
X80972241Y-17173024D01*
X80972239Y-17173025D01*
X80811825Y-17221686D01*
X80811824Y-17221686D01*
X80811821Y-17221687D01*
X80686804Y-17234000D01*
X80603196Y-17234000D01*
X80478179Y-17221687D01*
X80478176Y-17221686D01*
X80478175Y-17221686D01*
X80317761Y-17173025D01*
X80317759Y-17173024D01*
X80317756Y-17173023D01*
X80169922Y-17094005D01*
X80040341Y-16987659D01*
X79933995Y-16858078D01*
X79854977Y-16710244D01*
X79831008Y-16631228D01*
X79806314Y-16549825D01*
X79806314Y-16549824D01*
X79806313Y-16549821D01*
X79789883Y-16383000D01*
X79806313Y-16216179D01*
X79806314Y-16216175D01*
X79854975Y-16055761D01*
X79854976Y-16055759D01*
X79854977Y-16055756D01*
X79933995Y-15907922D01*
X80040341Y-15778341D01*
X80169922Y-15671995D01*
X80317756Y-15592977D01*
X80317759Y-15592976D01*
X80317761Y-15592975D01*
X80478175Y-15544314D01*
X80478176Y-15544314D01*
X80478179Y-15544313D01*
X80603196Y-15532000D01*
X80686804Y-15532000D01*
X80811821Y-15544313D01*
X80811821Y-15544313D01*
G37*
G36*
X70733228Y-15564703D02*
X70888100Y-15628853D01*
X71027481Y-15721985D01*
X71146015Y-15840519D01*
X71239147Y-15979900D01*
X71303297Y-16134772D01*
X71336000Y-16299184D01*
X71336000Y-16466816D01*
X71303297Y-16631228D01*
X71239147Y-16786100D01*
X71146015Y-16925481D01*
X71027481Y-17044015D01*
X70888100Y-17137147D01*
X70733228Y-17201297D01*
X70568816Y-17234000D01*
X70401184Y-17234000D01*
X70236772Y-17201297D01*
X70081900Y-17137147D01*
X69942519Y-17044015D01*
X69823985Y-16925481D01*
X69730853Y-16786100D01*
X69666703Y-16631228D01*
X69634000Y-16466816D01*
X69634000Y-16299184D01*
X69666703Y-16134772D01*
X69730853Y-15979900D01*
X69823985Y-15840519D01*
X69942519Y-15721985D01*
X70081900Y-15628853D01*
X70236772Y-15564703D01*
X70401184Y-15532000D01*
X70568816Y-15532000D01*
X70733228Y-15564703D01*
X70733228Y-15564703D01*
G37*
G36*
X91561228Y-15564703D02*
X91716100Y-15628853D01*
X91855481Y-15721985D01*
X91974015Y-15840519D01*
X92067147Y-15979900D01*
X92131297Y-16134772D01*
X92164000Y-16299184D01*
X92164000Y-16466816D01*
X92131297Y-16631228D01*
X92067147Y-16786100D01*
X91974015Y-16925481D01*
X91855481Y-17044015D01*
X91716100Y-17137147D01*
X91561228Y-17201297D01*
X91396816Y-17234000D01*
X91229184Y-17234000D01*
X91064772Y-17201297D01*
X90909900Y-17137147D01*
X90770519Y-17044015D01*
X90651985Y-16925481D01*
X90558853Y-16786100D01*
X90494703Y-16631228D01*
X90462000Y-16466816D01*
X90462000Y-16299184D01*
X90494703Y-16134772D01*
X90558853Y-15979900D01*
X90651985Y-15840519D01*
X90770519Y-15721985D01*
X90909900Y-15628853D01*
X91064772Y-15564703D01*
X91229184Y-15532000D01*
X91396816Y-15532000D01*
X91561228Y-15564703D01*
X91561228Y-15564703D01*
G37*
G36*
X101639821Y-15544313D02*
X101639824Y-15544314D01*
X101639825Y-15544314D01*
X101800239Y-15592975D01*
X101800241Y-15592976D01*
X101800244Y-15592977D01*
X101948078Y-15671995D01*
X102077659Y-15778341D01*
X102184005Y-15907922D01*
X102263023Y-16055756D01*
X102263024Y-16055759D01*
X102263025Y-16055761D01*
X102311686Y-16216175D01*
X102311687Y-16216179D01*
X102328117Y-16383000D01*
X102311687Y-16549821D01*
X102311686Y-16549824D01*
X102311686Y-16549825D01*
X102286993Y-16631228D01*
X102263023Y-16710244D01*
X102184005Y-16858078D01*
X102077659Y-16987659D01*
X101948078Y-17094005D01*
X101800244Y-17173023D01*
X101800241Y-17173024D01*
X101800239Y-17173025D01*
X101639825Y-17221686D01*
X101639824Y-17221686D01*
X101639821Y-17221687D01*
X101514804Y-17234000D01*
X101431196Y-17234000D01*
X101306179Y-17221687D01*
X101306176Y-17221686D01*
X101306175Y-17221686D01*
X101145761Y-17173025D01*
X101145759Y-17173024D01*
X101145756Y-17173023D01*
X100997922Y-17094005D01*
X100868341Y-16987659D01*
X100761995Y-16858078D01*
X100682977Y-16710244D01*
X100659008Y-16631228D01*
X100634314Y-16549825D01*
X100634314Y-16549824D01*
X100634313Y-16549821D01*
X100617883Y-16383000D01*
X100634313Y-16216179D01*
X100634314Y-16216175D01*
X100682975Y-16055761D01*
X100682976Y-16055759D01*
X100682977Y-16055756D01*
X100761995Y-15907922D01*
X100868341Y-15778341D01*
X100997922Y-15671995D01*
X101145756Y-15592977D01*
X101145759Y-15592976D01*
X101145761Y-15592975D01*
X101306175Y-15544314D01*
X101306176Y-15544314D01*
X101306179Y-15544313D01*
X101431196Y-15532000D01*
X101514804Y-15532000D01*
X101639821Y-15544313D01*
X101639821Y-15544313D01*
G37*
G36*
X110992228Y-15564703D02*
X111147100Y-15628853D01*
X111286481Y-15721985D01*
X111405015Y-15840519D01*
X111498147Y-15979900D01*
X111562297Y-16134772D01*
X111595000Y-16299184D01*
X111595000Y-16466816D01*
X111562297Y-16631228D01*
X111498147Y-16786100D01*
X111405015Y-16925481D01*
X111286481Y-17044015D01*
X111147100Y-17137147D01*
X110992228Y-17201297D01*
X110827816Y-17234000D01*
X110660184Y-17234000D01*
X110495772Y-17201297D01*
X110340900Y-17137147D01*
X110201519Y-17044015D01*
X110082985Y-16925481D01*
X109989853Y-16786100D01*
X109925703Y-16631228D01*
X109893000Y-16466816D01*
X109893000Y-16299184D01*
X109925703Y-16134772D01*
X109989853Y-15979900D01*
X110082985Y-15840519D01*
X110201519Y-15721985D01*
X110340900Y-15628853D01*
X110495772Y-15564703D01*
X110660184Y-15532000D01*
X110827816Y-15532000D01*
X110992228Y-15564703D01*
X110992228Y-15564703D01*
G37*
G36*
X121070821Y-15544313D02*
X121070824Y-15544314D01*
X121070825Y-15544314D01*
X121231239Y-15592975D01*
X121231241Y-15592976D01*
X121231244Y-15592977D01*
X121379078Y-15671995D01*
X121508659Y-15778341D01*
X121615005Y-15907922D01*
X121694023Y-16055756D01*
X121694024Y-16055759D01*
X121694025Y-16055761D01*
X121742686Y-16216175D01*
X121742687Y-16216179D01*
X121759117Y-16383000D01*
X121742687Y-16549821D01*
X121742686Y-16549824D01*
X121742686Y-16549825D01*
X121717993Y-16631228D01*
X121694023Y-16710244D01*
X121615005Y-16858078D01*
X121508659Y-16987659D01*
X121379078Y-17094005D01*
X121231244Y-17173023D01*
X121231241Y-17173024D01*
X121231239Y-17173025D01*
X121070825Y-17221686D01*
X121070824Y-17221686D01*
X121070821Y-17221687D01*
X120945804Y-17234000D01*
X120862196Y-17234000D01*
X120737179Y-17221687D01*
X120737176Y-17221686D01*
X120737175Y-17221686D01*
X120576761Y-17173025D01*
X120576759Y-17173024D01*
X120576756Y-17173023D01*
X120428922Y-17094005D01*
X120299341Y-16987659D01*
X120192995Y-16858078D01*
X120113977Y-16710244D01*
X120090008Y-16631228D01*
X120065314Y-16549825D01*
X120065314Y-16549824D01*
X120065313Y-16549821D01*
X120048883Y-16383000D01*
X120065313Y-16216179D01*
X120065314Y-16216175D01*
X120113975Y-16055761D01*
X120113976Y-16055759D01*
X120113977Y-16055756D01*
X120192995Y-15907922D01*
X120299341Y-15778341D01*
X120428922Y-15671995D01*
X120576756Y-15592977D01*
X120576759Y-15592976D01*
X120576761Y-15592975D01*
X120737175Y-15544314D01*
X120737176Y-15544314D01*
X120737179Y-15544313D01*
X120862196Y-15532000D01*
X120945804Y-15532000D01*
X121070821Y-15544313D01*
X121070821Y-15544313D01*
G37*
M02*
