G04 #@! TF.GenerationSoftware,KiCad,Pcbnew,(5.0.2)-1*
G04 #@! TF.CreationDate,2019-03-15T10:50:12+00:00*
G04 #@! TF.ProjectId,mixer,6d697865-722e-46b6-9963-61645f706362,rev?*
G04 #@! TF.SameCoordinates,Original*
G04 #@! TF.FileFunction,Legend,Top*
G04 #@! TF.FilePolarity,Positive*
%FSLAX46Y46*%
G04 Gerber Fmt 4.6, Leading zero omitted, Abs format (unit mm)*
G04 Created by KiCad (PCBNEW (5.0.2)-1) date 15/03/2019 10:50:12*
%MOMM*%
%LPD*%
G01*
G04 APERTURE LIST*
%ADD10C,0.150000*%
%ADD11C,0.120000*%
G04 APERTURE END LIST*
D10*
G04 #@! TO.C,J1*
X111887000Y-18034000D02*
X122047000Y-18034000D01*
X122047000Y-18034000D02*
X122047000Y-28448000D01*
X122047000Y-28448000D02*
X111887000Y-28448000D01*
X111887000Y-28448000D02*
X111887000Y-18034000D01*
X120934607Y-24384000D02*
G75*
G03X120934607Y-24384000I-3967607J0D01*
G01*
X118745000Y-24384000D02*
G75*
G03X118745000Y-24384000I-1778000J0D01*
G01*
G04 #@! TO.C,J2*
X67183000Y-24384000D02*
G75*
G03X67183000Y-24384000I-1778000J0D01*
G01*
X69372607Y-24384000D02*
G75*
G03X69372607Y-24384000I-3967607J0D01*
G01*
X60325000Y-28448000D02*
X60325000Y-18034000D01*
X70485000Y-28448000D02*
X60325000Y-28448000D01*
X70485000Y-18034000D02*
X70485000Y-28448000D01*
X60325000Y-18034000D02*
X70485000Y-18034000D01*
G04 #@! TO.C,J3*
X80899000Y-18034000D02*
X91059000Y-18034000D01*
X91059000Y-18034000D02*
X91059000Y-28448000D01*
X91059000Y-28448000D02*
X80899000Y-28448000D01*
X80899000Y-28448000D02*
X80899000Y-18034000D01*
X89946607Y-24384000D02*
G75*
G03X89946607Y-24384000I-3967607J0D01*
G01*
X87757000Y-24384000D02*
G75*
G03X87757000Y-24384000I-1778000J0D01*
G01*
G04 #@! TO.C,J4*
X77470000Y-24384000D02*
G75*
G03X77470000Y-24384000I-1778000J0D01*
G01*
X79659607Y-24384000D02*
G75*
G03X79659607Y-24384000I-3967607J0D01*
G01*
X70612000Y-28448000D02*
X70612000Y-18034000D01*
X80772000Y-28448000D02*
X70612000Y-28448000D01*
X80772000Y-18034000D02*
X80772000Y-28448000D01*
X70612000Y-18034000D02*
X80772000Y-18034000D01*
G04 #@! TO.C,J5*
X91313000Y-18034000D02*
X101473000Y-18034000D01*
X101473000Y-18034000D02*
X101473000Y-28448000D01*
X101473000Y-28448000D02*
X91313000Y-28448000D01*
X91313000Y-28448000D02*
X91313000Y-18034000D01*
X100360607Y-24384000D02*
G75*
G03X100360607Y-24384000I-3967607J0D01*
G01*
X98171000Y-24384000D02*
G75*
G03X98171000Y-24384000I-1778000J0D01*
G01*
G04 #@! TO.C,J6*
X108458000Y-24384000D02*
G75*
G03X108458000Y-24384000I-1778000J0D01*
G01*
X110647607Y-24384000D02*
G75*
G03X110647607Y-24384000I-3967607J0D01*
G01*
X101600000Y-28448000D02*
X101600000Y-18034000D01*
X111760000Y-28448000D02*
X101600000Y-28448000D01*
X111760000Y-18034000D02*
X111760000Y-28448000D01*
X101600000Y-18034000D02*
X111760000Y-18034000D01*
G04 #@! TO.C,J7*
X96266000Y-42418000D02*
X86106000Y-42418000D01*
X86106000Y-42418000D02*
X86106000Y-32004000D01*
X86106000Y-32004000D02*
X96266000Y-32004000D01*
X96266000Y-32004000D02*
X96266000Y-42418000D01*
X95153607Y-36068000D02*
G75*
G03X95153607Y-36068000I-3967607J0D01*
G01*
X92964000Y-36068000D02*
G75*
G03X92964000Y-36068000I-1778000J0D01*
G01*
D11*
G04 #@! TO.C,C1*
X73179000Y-46255000D02*
X78419000Y-46255000D01*
X73179000Y-48995000D02*
X78419000Y-48995000D01*
X73179000Y-46255000D02*
X73179000Y-48995000D01*
X78419000Y-46255000D02*
X78419000Y-48995000D01*
G04 #@! TO.C,C2*
X72470000Y-55479000D02*
G75*
G03X72470000Y-55479000I-2620000J0D01*
G01*
X72430000Y-55479000D02*
X67270000Y-55479000D01*
X72430000Y-55519000D02*
X67270000Y-55519000D01*
X72429000Y-55559000D02*
X67271000Y-55559000D01*
X72428000Y-55599000D02*
X67272000Y-55599000D01*
X72426000Y-55639000D02*
X67274000Y-55639000D01*
X72423000Y-55679000D02*
X67277000Y-55679000D01*
X72419000Y-55719000D02*
X70890000Y-55719000D01*
X68810000Y-55719000D02*
X67281000Y-55719000D01*
X72415000Y-55759000D02*
X70890000Y-55759000D01*
X68810000Y-55759000D02*
X67285000Y-55759000D01*
X72411000Y-55799000D02*
X70890000Y-55799000D01*
X68810000Y-55799000D02*
X67289000Y-55799000D01*
X72406000Y-55839000D02*
X70890000Y-55839000D01*
X68810000Y-55839000D02*
X67294000Y-55839000D01*
X72400000Y-55879000D02*
X70890000Y-55879000D01*
X68810000Y-55879000D02*
X67300000Y-55879000D01*
X72393000Y-55919000D02*
X70890000Y-55919000D01*
X68810000Y-55919000D02*
X67307000Y-55919000D01*
X72386000Y-55959000D02*
X70890000Y-55959000D01*
X68810000Y-55959000D02*
X67314000Y-55959000D01*
X72378000Y-55999000D02*
X70890000Y-55999000D01*
X68810000Y-55999000D02*
X67322000Y-55999000D01*
X72370000Y-56039000D02*
X70890000Y-56039000D01*
X68810000Y-56039000D02*
X67330000Y-56039000D01*
X72361000Y-56079000D02*
X70890000Y-56079000D01*
X68810000Y-56079000D02*
X67339000Y-56079000D01*
X72351000Y-56119000D02*
X70890000Y-56119000D01*
X68810000Y-56119000D02*
X67349000Y-56119000D01*
X72341000Y-56159000D02*
X70890000Y-56159000D01*
X68810000Y-56159000D02*
X67359000Y-56159000D01*
X72330000Y-56200000D02*
X70890000Y-56200000D01*
X68810000Y-56200000D02*
X67370000Y-56200000D01*
X72318000Y-56240000D02*
X70890000Y-56240000D01*
X68810000Y-56240000D02*
X67382000Y-56240000D01*
X72305000Y-56280000D02*
X70890000Y-56280000D01*
X68810000Y-56280000D02*
X67395000Y-56280000D01*
X72292000Y-56320000D02*
X70890000Y-56320000D01*
X68810000Y-56320000D02*
X67408000Y-56320000D01*
X72278000Y-56360000D02*
X70890000Y-56360000D01*
X68810000Y-56360000D02*
X67422000Y-56360000D01*
X72264000Y-56400000D02*
X70890000Y-56400000D01*
X68810000Y-56400000D02*
X67436000Y-56400000D01*
X72248000Y-56440000D02*
X70890000Y-56440000D01*
X68810000Y-56440000D02*
X67452000Y-56440000D01*
X72232000Y-56480000D02*
X70890000Y-56480000D01*
X68810000Y-56480000D02*
X67468000Y-56480000D01*
X72215000Y-56520000D02*
X70890000Y-56520000D01*
X68810000Y-56520000D02*
X67485000Y-56520000D01*
X72198000Y-56560000D02*
X70890000Y-56560000D01*
X68810000Y-56560000D02*
X67502000Y-56560000D01*
X72179000Y-56600000D02*
X70890000Y-56600000D01*
X68810000Y-56600000D02*
X67521000Y-56600000D01*
X72160000Y-56640000D02*
X70890000Y-56640000D01*
X68810000Y-56640000D02*
X67540000Y-56640000D01*
X72140000Y-56680000D02*
X70890000Y-56680000D01*
X68810000Y-56680000D02*
X67560000Y-56680000D01*
X72118000Y-56720000D02*
X70890000Y-56720000D01*
X68810000Y-56720000D02*
X67582000Y-56720000D01*
X72097000Y-56760000D02*
X70890000Y-56760000D01*
X68810000Y-56760000D02*
X67603000Y-56760000D01*
X72074000Y-56800000D02*
X70890000Y-56800000D01*
X68810000Y-56800000D02*
X67626000Y-56800000D01*
X72050000Y-56840000D02*
X70890000Y-56840000D01*
X68810000Y-56840000D02*
X67650000Y-56840000D01*
X72025000Y-56880000D02*
X70890000Y-56880000D01*
X68810000Y-56880000D02*
X67675000Y-56880000D01*
X71999000Y-56920000D02*
X70890000Y-56920000D01*
X68810000Y-56920000D02*
X67701000Y-56920000D01*
X71972000Y-56960000D02*
X70890000Y-56960000D01*
X68810000Y-56960000D02*
X67728000Y-56960000D01*
X71945000Y-57000000D02*
X70890000Y-57000000D01*
X68810000Y-57000000D02*
X67755000Y-57000000D01*
X71915000Y-57040000D02*
X70890000Y-57040000D01*
X68810000Y-57040000D02*
X67785000Y-57040000D01*
X71885000Y-57080000D02*
X70890000Y-57080000D01*
X68810000Y-57080000D02*
X67815000Y-57080000D01*
X71854000Y-57120000D02*
X70890000Y-57120000D01*
X68810000Y-57120000D02*
X67846000Y-57120000D01*
X71821000Y-57160000D02*
X70890000Y-57160000D01*
X68810000Y-57160000D02*
X67879000Y-57160000D01*
X71787000Y-57200000D02*
X70890000Y-57200000D01*
X68810000Y-57200000D02*
X67913000Y-57200000D01*
X71751000Y-57240000D02*
X70890000Y-57240000D01*
X68810000Y-57240000D02*
X67949000Y-57240000D01*
X71714000Y-57280000D02*
X70890000Y-57280000D01*
X68810000Y-57280000D02*
X67986000Y-57280000D01*
X71676000Y-57320000D02*
X70890000Y-57320000D01*
X68810000Y-57320000D02*
X68024000Y-57320000D01*
X71635000Y-57360000D02*
X70890000Y-57360000D01*
X68810000Y-57360000D02*
X68065000Y-57360000D01*
X71593000Y-57400000D02*
X70890000Y-57400000D01*
X68810000Y-57400000D02*
X68107000Y-57400000D01*
X71549000Y-57440000D02*
X70890000Y-57440000D01*
X68810000Y-57440000D02*
X68151000Y-57440000D01*
X71503000Y-57480000D02*
X70890000Y-57480000D01*
X68810000Y-57480000D02*
X68197000Y-57480000D01*
X71455000Y-57520000D02*
X70890000Y-57520000D01*
X68810000Y-57520000D02*
X68245000Y-57520000D01*
X71404000Y-57560000D02*
X70890000Y-57560000D01*
X68810000Y-57560000D02*
X68296000Y-57560000D01*
X71350000Y-57600000D02*
X70890000Y-57600000D01*
X68810000Y-57600000D02*
X68350000Y-57600000D01*
X71293000Y-57640000D02*
X70890000Y-57640000D01*
X68810000Y-57640000D02*
X68407000Y-57640000D01*
X71233000Y-57680000D02*
X70890000Y-57680000D01*
X68810000Y-57680000D02*
X68467000Y-57680000D01*
X71169000Y-57720000D02*
X70890000Y-57720000D01*
X68810000Y-57720000D02*
X68531000Y-57720000D01*
X71101000Y-57760000D02*
X70890000Y-57760000D01*
X68810000Y-57760000D02*
X68599000Y-57760000D01*
X71028000Y-57800000D02*
X68672000Y-57800000D01*
X70948000Y-57840000D02*
X68752000Y-57840000D01*
X70861000Y-57880000D02*
X68839000Y-57880000D01*
X70765000Y-57920000D02*
X68935000Y-57920000D01*
X70655000Y-57960000D02*
X69045000Y-57960000D01*
X70527000Y-58000000D02*
X69173000Y-58000000D01*
X70368000Y-58040000D02*
X69332000Y-58040000D01*
X70134000Y-58080000D02*
X69566000Y-58080000D01*
X71325000Y-52674225D02*
X71325000Y-53174225D01*
X71575000Y-52924225D02*
X71075000Y-52924225D01*
G04 #@! TO.C,C3*
X95698000Y-58701000D02*
X100938000Y-58701000D01*
X95698000Y-61441000D02*
X100938000Y-61441000D01*
X95698000Y-58701000D02*
X95698000Y-61441000D01*
X100938000Y-58701000D02*
X100938000Y-61441000D01*
G04 #@! TO.C,C4*
X95698000Y-69696000D02*
X95698000Y-66956000D01*
X100938000Y-69696000D02*
X100938000Y-66956000D01*
X100938000Y-66956000D02*
X95698000Y-66956000D01*
X100938000Y-69696000D02*
X95698000Y-69696000D01*
G04 #@! TO.C,C5*
X121095000Y-53848000D02*
G75*
G03X121095000Y-53848000I-2620000J0D01*
G01*
X118475000Y-54888000D02*
X118475000Y-56428000D01*
X118475000Y-51268000D02*
X118475000Y-52808000D01*
X118515000Y-54888000D02*
X118515000Y-56428000D01*
X118515000Y-51268000D02*
X118515000Y-52808000D01*
X118555000Y-51269000D02*
X118555000Y-52808000D01*
X118555000Y-54888000D02*
X118555000Y-56427000D01*
X118595000Y-51270000D02*
X118595000Y-52808000D01*
X118595000Y-54888000D02*
X118595000Y-56426000D01*
X118635000Y-51272000D02*
X118635000Y-52808000D01*
X118635000Y-54888000D02*
X118635000Y-56424000D01*
X118675000Y-51275000D02*
X118675000Y-52808000D01*
X118675000Y-54888000D02*
X118675000Y-56421000D01*
X118715000Y-51279000D02*
X118715000Y-52808000D01*
X118715000Y-54888000D02*
X118715000Y-56417000D01*
X118755000Y-51283000D02*
X118755000Y-52808000D01*
X118755000Y-54888000D02*
X118755000Y-56413000D01*
X118795000Y-51287000D02*
X118795000Y-52808000D01*
X118795000Y-54888000D02*
X118795000Y-56409000D01*
X118835000Y-51292000D02*
X118835000Y-52808000D01*
X118835000Y-54888000D02*
X118835000Y-56404000D01*
X118875000Y-51298000D02*
X118875000Y-52808000D01*
X118875000Y-54888000D02*
X118875000Y-56398000D01*
X118915000Y-51305000D02*
X118915000Y-52808000D01*
X118915000Y-54888000D02*
X118915000Y-56391000D01*
X118955000Y-51312000D02*
X118955000Y-52808000D01*
X118955000Y-54888000D02*
X118955000Y-56384000D01*
X118995000Y-51320000D02*
X118995000Y-52808000D01*
X118995000Y-54888000D02*
X118995000Y-56376000D01*
X119035000Y-51328000D02*
X119035000Y-52808000D01*
X119035000Y-54888000D02*
X119035000Y-56368000D01*
X119075000Y-51337000D02*
X119075000Y-52808000D01*
X119075000Y-54888000D02*
X119075000Y-56359000D01*
X119115000Y-51347000D02*
X119115000Y-52808000D01*
X119115000Y-54888000D02*
X119115000Y-56349000D01*
X119155000Y-51357000D02*
X119155000Y-52808000D01*
X119155000Y-54888000D02*
X119155000Y-56339000D01*
X119196000Y-51368000D02*
X119196000Y-52808000D01*
X119196000Y-54888000D02*
X119196000Y-56328000D01*
X119236000Y-51380000D02*
X119236000Y-52808000D01*
X119236000Y-54888000D02*
X119236000Y-56316000D01*
X119276000Y-51393000D02*
X119276000Y-52808000D01*
X119276000Y-54888000D02*
X119276000Y-56303000D01*
X119316000Y-51406000D02*
X119316000Y-52808000D01*
X119316000Y-54888000D02*
X119316000Y-56290000D01*
X119356000Y-51420000D02*
X119356000Y-52808000D01*
X119356000Y-54888000D02*
X119356000Y-56276000D01*
X119396000Y-51434000D02*
X119396000Y-52808000D01*
X119396000Y-54888000D02*
X119396000Y-56262000D01*
X119436000Y-51450000D02*
X119436000Y-52808000D01*
X119436000Y-54888000D02*
X119436000Y-56246000D01*
X119476000Y-51466000D02*
X119476000Y-52808000D01*
X119476000Y-54888000D02*
X119476000Y-56230000D01*
X119516000Y-51483000D02*
X119516000Y-52808000D01*
X119516000Y-54888000D02*
X119516000Y-56213000D01*
X119556000Y-51500000D02*
X119556000Y-52808000D01*
X119556000Y-54888000D02*
X119556000Y-56196000D01*
X119596000Y-51519000D02*
X119596000Y-52808000D01*
X119596000Y-54888000D02*
X119596000Y-56177000D01*
X119636000Y-51538000D02*
X119636000Y-52808000D01*
X119636000Y-54888000D02*
X119636000Y-56158000D01*
X119676000Y-51558000D02*
X119676000Y-52808000D01*
X119676000Y-54888000D02*
X119676000Y-56138000D01*
X119716000Y-51580000D02*
X119716000Y-52808000D01*
X119716000Y-54888000D02*
X119716000Y-56116000D01*
X119756000Y-51601000D02*
X119756000Y-52808000D01*
X119756000Y-54888000D02*
X119756000Y-56095000D01*
X119796000Y-51624000D02*
X119796000Y-52808000D01*
X119796000Y-54888000D02*
X119796000Y-56072000D01*
X119836000Y-51648000D02*
X119836000Y-52808000D01*
X119836000Y-54888000D02*
X119836000Y-56048000D01*
X119876000Y-51673000D02*
X119876000Y-52808000D01*
X119876000Y-54888000D02*
X119876000Y-56023000D01*
X119916000Y-51699000D02*
X119916000Y-52808000D01*
X119916000Y-54888000D02*
X119916000Y-55997000D01*
X119956000Y-51726000D02*
X119956000Y-52808000D01*
X119956000Y-54888000D02*
X119956000Y-55970000D01*
X119996000Y-51753000D02*
X119996000Y-52808000D01*
X119996000Y-54888000D02*
X119996000Y-55943000D01*
X120036000Y-51783000D02*
X120036000Y-52808000D01*
X120036000Y-54888000D02*
X120036000Y-55913000D01*
X120076000Y-51813000D02*
X120076000Y-52808000D01*
X120076000Y-54888000D02*
X120076000Y-55883000D01*
X120116000Y-51844000D02*
X120116000Y-52808000D01*
X120116000Y-54888000D02*
X120116000Y-55852000D01*
X120156000Y-51877000D02*
X120156000Y-52808000D01*
X120156000Y-54888000D02*
X120156000Y-55819000D01*
X120196000Y-51911000D02*
X120196000Y-52808000D01*
X120196000Y-54888000D02*
X120196000Y-55785000D01*
X120236000Y-51947000D02*
X120236000Y-52808000D01*
X120236000Y-54888000D02*
X120236000Y-55749000D01*
X120276000Y-51984000D02*
X120276000Y-52808000D01*
X120276000Y-54888000D02*
X120276000Y-55712000D01*
X120316000Y-52022000D02*
X120316000Y-52808000D01*
X120316000Y-54888000D02*
X120316000Y-55674000D01*
X120356000Y-52063000D02*
X120356000Y-52808000D01*
X120356000Y-54888000D02*
X120356000Y-55633000D01*
X120396000Y-52105000D02*
X120396000Y-52808000D01*
X120396000Y-54888000D02*
X120396000Y-55591000D01*
X120436000Y-52149000D02*
X120436000Y-52808000D01*
X120436000Y-54888000D02*
X120436000Y-55547000D01*
X120476000Y-52195000D02*
X120476000Y-52808000D01*
X120476000Y-54888000D02*
X120476000Y-55501000D01*
X120516000Y-52243000D02*
X120516000Y-55453000D01*
X120556000Y-52294000D02*
X120556000Y-55402000D01*
X120596000Y-52348000D02*
X120596000Y-55348000D01*
X120636000Y-52405000D02*
X120636000Y-55291000D01*
X120676000Y-52465000D02*
X120676000Y-55231000D01*
X120716000Y-52529000D02*
X120716000Y-55167000D01*
X120756000Y-52597000D02*
X120756000Y-55099000D01*
X120796000Y-52670000D02*
X120796000Y-55026000D01*
X120836000Y-52750000D02*
X120836000Y-54946000D01*
X120876000Y-52837000D02*
X120876000Y-54859000D01*
X120916000Y-52933000D02*
X120916000Y-54763000D01*
X120956000Y-53043000D02*
X120956000Y-54653000D01*
X120996000Y-53171000D02*
X120996000Y-54525000D01*
X121036000Y-53330000D02*
X121036000Y-54366000D01*
X121076000Y-53564000D02*
X121076000Y-54132000D01*
X115670225Y-52373000D02*
X116170225Y-52373000D01*
X115920225Y-52123000D02*
X115920225Y-52623000D01*
G04 #@! TO.C,C6*
X97716000Y-36860775D02*
X98216000Y-36860775D01*
X97966000Y-37110775D02*
X97966000Y-36610775D01*
X99157000Y-31705000D02*
X99725000Y-31705000D01*
X98923000Y-31745000D02*
X99959000Y-31745000D01*
X98764000Y-31785000D02*
X100118000Y-31785000D01*
X98636000Y-31825000D02*
X100246000Y-31825000D01*
X98526000Y-31865000D02*
X100356000Y-31865000D01*
X98430000Y-31905000D02*
X100452000Y-31905000D01*
X98343000Y-31945000D02*
X100539000Y-31945000D01*
X98263000Y-31985000D02*
X100619000Y-31985000D01*
X98190000Y-32025000D02*
X100692000Y-32025000D01*
X98122000Y-32065000D02*
X100760000Y-32065000D01*
X98058000Y-32105000D02*
X100824000Y-32105000D01*
X97998000Y-32145000D02*
X100884000Y-32145000D01*
X97941000Y-32185000D02*
X100941000Y-32185000D01*
X97887000Y-32225000D02*
X100995000Y-32225000D01*
X97836000Y-32265000D02*
X101046000Y-32265000D01*
X100481000Y-32305000D02*
X101094000Y-32305000D01*
X97788000Y-32305000D02*
X98401000Y-32305000D01*
X100481000Y-32345000D02*
X101140000Y-32345000D01*
X97742000Y-32345000D02*
X98401000Y-32345000D01*
X100481000Y-32385000D02*
X101184000Y-32385000D01*
X97698000Y-32385000D02*
X98401000Y-32385000D01*
X100481000Y-32425000D02*
X101226000Y-32425000D01*
X97656000Y-32425000D02*
X98401000Y-32425000D01*
X100481000Y-32465000D02*
X101267000Y-32465000D01*
X97615000Y-32465000D02*
X98401000Y-32465000D01*
X100481000Y-32505000D02*
X101305000Y-32505000D01*
X97577000Y-32505000D02*
X98401000Y-32505000D01*
X100481000Y-32545000D02*
X101342000Y-32545000D01*
X97540000Y-32545000D02*
X98401000Y-32545000D01*
X100481000Y-32585000D02*
X101378000Y-32585000D01*
X97504000Y-32585000D02*
X98401000Y-32585000D01*
X100481000Y-32625000D02*
X101412000Y-32625000D01*
X97470000Y-32625000D02*
X98401000Y-32625000D01*
X100481000Y-32665000D02*
X101445000Y-32665000D01*
X97437000Y-32665000D02*
X98401000Y-32665000D01*
X100481000Y-32705000D02*
X101476000Y-32705000D01*
X97406000Y-32705000D02*
X98401000Y-32705000D01*
X100481000Y-32745000D02*
X101506000Y-32745000D01*
X97376000Y-32745000D02*
X98401000Y-32745000D01*
X100481000Y-32785000D02*
X101536000Y-32785000D01*
X97346000Y-32785000D02*
X98401000Y-32785000D01*
X100481000Y-32825000D02*
X101563000Y-32825000D01*
X97319000Y-32825000D02*
X98401000Y-32825000D01*
X100481000Y-32865000D02*
X101590000Y-32865000D01*
X97292000Y-32865000D02*
X98401000Y-32865000D01*
X100481000Y-32905000D02*
X101616000Y-32905000D01*
X97266000Y-32905000D02*
X98401000Y-32905000D01*
X100481000Y-32945000D02*
X101641000Y-32945000D01*
X97241000Y-32945000D02*
X98401000Y-32945000D01*
X100481000Y-32985000D02*
X101665000Y-32985000D01*
X97217000Y-32985000D02*
X98401000Y-32985000D01*
X100481000Y-33025000D02*
X101688000Y-33025000D01*
X97194000Y-33025000D02*
X98401000Y-33025000D01*
X100481000Y-33065000D02*
X101709000Y-33065000D01*
X97173000Y-33065000D02*
X98401000Y-33065000D01*
X100481000Y-33105000D02*
X101731000Y-33105000D01*
X97151000Y-33105000D02*
X98401000Y-33105000D01*
X100481000Y-33145000D02*
X101751000Y-33145000D01*
X97131000Y-33145000D02*
X98401000Y-33145000D01*
X100481000Y-33185000D02*
X101770000Y-33185000D01*
X97112000Y-33185000D02*
X98401000Y-33185000D01*
X100481000Y-33225000D02*
X101789000Y-33225000D01*
X97093000Y-33225000D02*
X98401000Y-33225000D01*
X100481000Y-33265000D02*
X101806000Y-33265000D01*
X97076000Y-33265000D02*
X98401000Y-33265000D01*
X100481000Y-33305000D02*
X101823000Y-33305000D01*
X97059000Y-33305000D02*
X98401000Y-33305000D01*
X100481000Y-33345000D02*
X101839000Y-33345000D01*
X97043000Y-33345000D02*
X98401000Y-33345000D01*
X100481000Y-33385000D02*
X101855000Y-33385000D01*
X97027000Y-33385000D02*
X98401000Y-33385000D01*
X100481000Y-33425000D02*
X101869000Y-33425000D01*
X97013000Y-33425000D02*
X98401000Y-33425000D01*
X100481000Y-33465000D02*
X101883000Y-33465000D01*
X96999000Y-33465000D02*
X98401000Y-33465000D01*
X100481000Y-33505000D02*
X101896000Y-33505000D01*
X96986000Y-33505000D02*
X98401000Y-33505000D01*
X100481000Y-33545000D02*
X101909000Y-33545000D01*
X96973000Y-33545000D02*
X98401000Y-33545000D01*
X100481000Y-33585000D02*
X101921000Y-33585000D01*
X96961000Y-33585000D02*
X98401000Y-33585000D01*
X100481000Y-33626000D02*
X101932000Y-33626000D01*
X96950000Y-33626000D02*
X98401000Y-33626000D01*
X100481000Y-33666000D02*
X101942000Y-33666000D01*
X96940000Y-33666000D02*
X98401000Y-33666000D01*
X100481000Y-33706000D02*
X101952000Y-33706000D01*
X96930000Y-33706000D02*
X98401000Y-33706000D01*
X100481000Y-33746000D02*
X101961000Y-33746000D01*
X96921000Y-33746000D02*
X98401000Y-33746000D01*
X100481000Y-33786000D02*
X101969000Y-33786000D01*
X96913000Y-33786000D02*
X98401000Y-33786000D01*
X100481000Y-33826000D02*
X101977000Y-33826000D01*
X96905000Y-33826000D02*
X98401000Y-33826000D01*
X100481000Y-33866000D02*
X101984000Y-33866000D01*
X96898000Y-33866000D02*
X98401000Y-33866000D01*
X100481000Y-33906000D02*
X101991000Y-33906000D01*
X96891000Y-33906000D02*
X98401000Y-33906000D01*
X100481000Y-33946000D02*
X101997000Y-33946000D01*
X96885000Y-33946000D02*
X98401000Y-33946000D01*
X100481000Y-33986000D02*
X102002000Y-33986000D01*
X96880000Y-33986000D02*
X98401000Y-33986000D01*
X100481000Y-34026000D02*
X102006000Y-34026000D01*
X96876000Y-34026000D02*
X98401000Y-34026000D01*
X100481000Y-34066000D02*
X102010000Y-34066000D01*
X96872000Y-34066000D02*
X98401000Y-34066000D01*
X100481000Y-34106000D02*
X102014000Y-34106000D01*
X96868000Y-34106000D02*
X98401000Y-34106000D01*
X100481000Y-34146000D02*
X102017000Y-34146000D01*
X96865000Y-34146000D02*
X98401000Y-34146000D01*
X100481000Y-34186000D02*
X102019000Y-34186000D01*
X96863000Y-34186000D02*
X98401000Y-34186000D01*
X100481000Y-34226000D02*
X102020000Y-34226000D01*
X96862000Y-34226000D02*
X98401000Y-34226000D01*
X96861000Y-34266000D02*
X98401000Y-34266000D01*
X100481000Y-34266000D02*
X102021000Y-34266000D01*
X96861000Y-34306000D02*
X98401000Y-34306000D01*
X100481000Y-34306000D02*
X102021000Y-34306000D01*
X102061000Y-34306000D02*
G75*
G03X102061000Y-34306000I-2620000J0D01*
G01*
G04 #@! TO.C,C7*
X118772000Y-50011000D02*
X118772000Y-44771000D01*
X121512000Y-50011000D02*
X121512000Y-44771000D01*
X118772000Y-50011000D02*
X121512000Y-50011000D01*
X118772000Y-44771000D02*
X121512000Y-44771000D01*
G04 #@! TO.C,C8*
X96928000Y-37278000D02*
X99668000Y-37278000D01*
X96928000Y-42518000D02*
X99668000Y-42518000D01*
X99668000Y-42518000D02*
X99668000Y-37278000D01*
X96928000Y-42518000D02*
X96928000Y-37278000D01*
G04 #@! TO.C,D1*
X111671001Y-59927999D02*
X113911001Y-59927999D01*
X113911001Y-59927999D02*
X113911001Y-55687999D01*
X113911001Y-55687999D02*
X111671001Y-55687999D01*
X111671001Y-55687999D02*
X111671001Y-59927999D01*
X112791001Y-60577999D02*
X112791001Y-59927999D01*
X112791001Y-55037999D02*
X112791001Y-55687999D01*
X111671001Y-59207999D02*
X113911001Y-59207999D01*
X111671001Y-59087999D02*
X113911001Y-59087999D01*
X111671001Y-59327999D02*
X113911001Y-59327999D01*
G04 #@! TO.C,D2*
X109121001Y-59327999D02*
X111361001Y-59327999D01*
X109121001Y-59087999D02*
X111361001Y-59087999D01*
X109121001Y-59207999D02*
X111361001Y-59207999D01*
X110241001Y-55037999D02*
X110241001Y-55687999D01*
X110241001Y-60577999D02*
X110241001Y-59927999D01*
X109121001Y-55687999D02*
X109121001Y-59927999D01*
X111361001Y-55687999D02*
X109121001Y-55687999D01*
X111361001Y-59927999D02*
X111361001Y-55687999D01*
X109121001Y-59927999D02*
X111361001Y-59927999D01*
G04 #@! TO.C,D3*
X107638000Y-59690462D02*
G75*
G03X102088000Y-58145170I-2990000J462D01*
G01*
X107638000Y-59689538D02*
G75*
G02X102088000Y-61234830I-2990000J-462D01*
G01*
X107148000Y-59690000D02*
G75*
G03X107148000Y-59690000I-2500000J0D01*
G01*
X102088000Y-58145000D02*
X102088000Y-61235000D01*
G04 #@! TO.C,D4*
X115497000Y-46281000D02*
X118437000Y-46281000D01*
X118437000Y-46281000D02*
X118437000Y-40841000D01*
X118437000Y-40841000D02*
X115497000Y-40841000D01*
X115497000Y-40841000D02*
X115497000Y-46281000D01*
X116967000Y-47301000D02*
X116967000Y-46281000D01*
X116967000Y-39821000D02*
X116967000Y-40841000D01*
X115497000Y-45381000D02*
X118437000Y-45381000D01*
X115497000Y-45261000D02*
X118437000Y-45261000D01*
X115497000Y-45501000D02*
X118437000Y-45501000D01*
G04 #@! TO.C,D5*
X100003000Y-45501000D02*
X102943000Y-45501000D01*
X100003000Y-45261000D02*
X102943000Y-45261000D01*
X100003000Y-45381000D02*
X102943000Y-45381000D01*
X101473000Y-39821000D02*
X101473000Y-40841000D01*
X101473000Y-47301000D02*
X101473000Y-46281000D01*
X100003000Y-40841000D02*
X100003000Y-46281000D01*
X102943000Y-40841000D02*
X100003000Y-40841000D01*
X102943000Y-46281000D02*
X102943000Y-40841000D01*
X100003000Y-46281000D02*
X102943000Y-46281000D01*
G04 #@! TO.C,J8*
X106540001Y-49950001D02*
X111740001Y-49950001D01*
X106540001Y-39730001D02*
X106540001Y-49950001D01*
X111740001Y-37130001D02*
X111740001Y-49950001D01*
X106540001Y-39730001D02*
X109140001Y-39730001D01*
X109140001Y-39730001D02*
X109140001Y-37130001D01*
X109140001Y-37130001D02*
X111740001Y-37130001D01*
X106540001Y-38460001D02*
X106540001Y-37130001D01*
X106540001Y-37130001D02*
X107870001Y-37130001D01*
G04 #@! TO.C,L1*
X113665000Y-47601000D02*
X113665000Y-46331000D01*
X113665000Y-39521000D02*
X113665000Y-40791000D01*
X114885000Y-46331000D02*
X114885000Y-40791000D01*
X112445000Y-46331000D02*
X114885000Y-46331000D01*
X112445000Y-40791000D02*
X112445000Y-46331000D01*
X114885000Y-40791000D02*
X112445000Y-40791000D01*
G04 #@! TO.C,L2*
X103555000Y-46331000D02*
X105995000Y-46331000D01*
X105995000Y-46331000D02*
X105995000Y-40791000D01*
X105995000Y-40791000D02*
X103555000Y-40791000D01*
X103555000Y-40791000D02*
X103555000Y-46331000D01*
X104775000Y-47601000D02*
X104775000Y-46331000D01*
X104775000Y-39521000D02*
X104775000Y-40791000D01*
G04 #@! TO.C,Q1*
X96483001Y-66473001D02*
X100083001Y-66473001D01*
X96444523Y-66461479D02*
G75*
G02X98283001Y-62023001I1838478J1838478D01*
G01*
X100121479Y-66461479D02*
G75*
G03X98283001Y-62023001I-1838478J1838478D01*
G01*
G04 #@! TO.C,R1*
X119864000Y-16383000D02*
X119094000Y-16383000D01*
X111784000Y-16383000D02*
X112554000Y-16383000D01*
X119094000Y-15013000D02*
X112554000Y-15013000D01*
X119094000Y-17753000D02*
X119094000Y-15013000D01*
X112554000Y-17753000D02*
X119094000Y-17753000D01*
X112554000Y-15013000D02*
X112554000Y-17753000D01*
G04 #@! TO.C,R3*
X89249000Y-31469000D02*
X89249000Y-28729000D01*
X89249000Y-28729000D02*
X82709000Y-28729000D01*
X82709000Y-28729000D02*
X82709000Y-31469000D01*
X82709000Y-31469000D02*
X89249000Y-31469000D01*
X90019000Y-30099000D02*
X89249000Y-30099000D01*
X81939000Y-30099000D02*
X82709000Y-30099000D01*
G04 #@! TO.C,R4*
X79605000Y-16383000D02*
X78835000Y-16383000D01*
X71525000Y-16383000D02*
X72295000Y-16383000D01*
X78835000Y-15013000D02*
X72295000Y-15013000D01*
X78835000Y-17753000D02*
X78835000Y-15013000D01*
X72295000Y-17753000D02*
X78835000Y-17753000D01*
X72295000Y-15013000D02*
X72295000Y-17753000D01*
G04 #@! TO.C,R5*
X93123000Y-15013000D02*
X93123000Y-17753000D01*
X93123000Y-17753000D02*
X99663000Y-17753000D01*
X99663000Y-17753000D02*
X99663000Y-15013000D01*
X99663000Y-15013000D02*
X93123000Y-15013000D01*
X92353000Y-16383000D02*
X93123000Y-16383000D01*
X100433000Y-16383000D02*
X99663000Y-16383000D01*
G04 #@! TO.C,R6*
X102386000Y-30099000D02*
X103156000Y-30099000D01*
X110466000Y-30099000D02*
X109696000Y-30099000D01*
X103156000Y-31469000D02*
X109696000Y-31469000D01*
X103156000Y-28729000D02*
X103156000Y-31469000D01*
X109696000Y-28729000D02*
X103156000Y-28729000D01*
X109696000Y-31469000D02*
X109696000Y-28729000D01*
G04 #@! TO.C,R7*
X89503000Y-52678000D02*
X89503000Y-49938000D01*
X89503000Y-49938000D02*
X82963000Y-49938000D01*
X82963000Y-49938000D02*
X82963000Y-52678000D01*
X82963000Y-52678000D02*
X89503000Y-52678000D01*
X90273000Y-51308000D02*
X89503000Y-51308000D01*
X82193000Y-51308000D02*
X82963000Y-51308000D01*
G04 #@! TO.C,R8*
X93980000Y-52348000D02*
X93980000Y-53118000D01*
X93980000Y-60428000D02*
X93980000Y-59658000D01*
X92610000Y-53118000D02*
X92610000Y-59658000D01*
X95350000Y-53118000D02*
X92610000Y-53118000D01*
X95350000Y-59658000D02*
X95350000Y-53118000D01*
X92610000Y-59658000D02*
X95350000Y-59658000D01*
G04 #@! TO.C,R9*
X70390000Y-49811000D02*
X70390000Y-52551000D01*
X70390000Y-52551000D02*
X76930000Y-52551000D01*
X76930000Y-52551000D02*
X76930000Y-49811000D01*
X76930000Y-49811000D02*
X70390000Y-49811000D01*
X69620000Y-51181000D02*
X70390000Y-51181000D01*
X77700000Y-51181000D02*
X76930000Y-51181000D01*
G04 #@! TO.C,R10*
X98068000Y-51435000D02*
X98838000Y-51435000D01*
X106148000Y-51435000D02*
X105378000Y-51435000D01*
X98838000Y-52805000D02*
X105378000Y-52805000D01*
X98838000Y-50065000D02*
X98838000Y-52805000D01*
X105378000Y-50065000D02*
X98838000Y-50065000D01*
X105378000Y-52805000D02*
X105378000Y-50065000D01*
G04 #@! TO.C,R11*
X105505000Y-55980000D02*
X105505000Y-53240000D01*
X105505000Y-53240000D02*
X98965000Y-53240000D01*
X98965000Y-53240000D02*
X98965000Y-55980000D01*
X98965000Y-55980000D02*
X105505000Y-55980000D01*
X106275000Y-54610000D02*
X105505000Y-54610000D01*
X98195000Y-54610000D02*
X98965000Y-54610000D01*
G04 #@! TO.C,R12*
X65024000Y-55856000D02*
X65024000Y-55086000D01*
X65024000Y-47776000D02*
X65024000Y-48546000D01*
X66394000Y-55086000D02*
X66394000Y-48546000D01*
X63654000Y-55086000D02*
X66394000Y-55086000D01*
X63654000Y-48546000D02*
X63654000Y-55086000D01*
X66394000Y-48546000D02*
X63654000Y-48546000D01*
G04 #@! TO.C,R13*
X104172000Y-63400000D02*
X104172000Y-66140000D01*
X104172000Y-66140000D02*
X110712000Y-66140000D01*
X110712000Y-66140000D02*
X110712000Y-63400000D01*
X110712000Y-63400000D02*
X104172000Y-63400000D01*
X103402000Y-64770000D02*
X104172000Y-64770000D01*
X111482000Y-64770000D02*
X110712000Y-64770000D01*
G04 #@! TO.C,RV1*
X83829000Y-43538000D02*
X79964000Y-43538000D01*
X75454000Y-43538000D02*
X71589000Y-43538000D01*
X83829000Y-33598000D02*
X79964000Y-33598000D01*
X75454000Y-33598000D02*
X71589000Y-33598000D01*
X83829000Y-43538000D02*
X83829000Y-41939000D01*
X83829000Y-40197000D02*
X83829000Y-39438000D01*
X83829000Y-37697000D02*
X83829000Y-36938000D01*
X83829000Y-35198000D02*
X83829000Y-33598000D01*
X71589000Y-43538000D02*
X71589000Y-33598000D01*
G04 #@! TO.C,U1*
X91373000Y-59420000D02*
G75*
G02X91373000Y-57420000I0J1000000D01*
G01*
X91373000Y-57420000D02*
X91373000Y-55770000D01*
X91373000Y-55770000D02*
X73473000Y-55770000D01*
X73473000Y-55770000D02*
X73473000Y-61070000D01*
X73473000Y-61070000D02*
X91373000Y-61070000D01*
X91373000Y-61070000D02*
X91373000Y-59420000D01*
X91433000Y-53280000D02*
X73413000Y-53280000D01*
X73413000Y-53280000D02*
X73413000Y-63560000D01*
X73413000Y-63560000D02*
X91433000Y-63560000D01*
X91433000Y-63560000D02*
X91433000Y-53280000D01*
G04 #@! TO.C,R2*
X69818000Y-31469000D02*
X69818000Y-28729000D01*
X69818000Y-28729000D02*
X63278000Y-28729000D01*
X63278000Y-28729000D02*
X63278000Y-31469000D01*
X63278000Y-31469000D02*
X69818000Y-31469000D01*
X70588000Y-30099000D02*
X69818000Y-30099000D01*
X62508000Y-30099000D02*
X63278000Y-30099000D01*
G04 #@! TO.C,J1*
D10*
X116633666Y-15954380D02*
X116633666Y-16668666D01*
X116586047Y-16811523D01*
X116490809Y-16906761D01*
X116347952Y-16954380D01*
X116252714Y-16954380D01*
X117633666Y-16954380D02*
X117062238Y-16954380D01*
X117347952Y-16954380D02*
X117347952Y-15954380D01*
X117252714Y-16097238D01*
X117157476Y-16192476D01*
X117062238Y-16240095D01*
G04 #@! TO.C,J2*
X65071666Y-15954380D02*
X65071666Y-16668666D01*
X65024047Y-16811523D01*
X64928809Y-16906761D01*
X64785952Y-16954380D01*
X64690714Y-16954380D01*
X65500238Y-16049619D02*
X65547857Y-16002000D01*
X65643095Y-15954380D01*
X65881190Y-15954380D01*
X65976428Y-16002000D01*
X66024047Y-16049619D01*
X66071666Y-16144857D01*
X66071666Y-16240095D01*
X66024047Y-16382952D01*
X65452619Y-16954380D01*
X66071666Y-16954380D01*
G04 #@! TO.C,J3*
X85645666Y-15954380D02*
X85645666Y-16668666D01*
X85598047Y-16811523D01*
X85502809Y-16906761D01*
X85359952Y-16954380D01*
X85264714Y-16954380D01*
X86026619Y-15954380D02*
X86645666Y-15954380D01*
X86312333Y-16335333D01*
X86455190Y-16335333D01*
X86550428Y-16382952D01*
X86598047Y-16430571D01*
X86645666Y-16525809D01*
X86645666Y-16763904D01*
X86598047Y-16859142D01*
X86550428Y-16906761D01*
X86455190Y-16954380D01*
X86169476Y-16954380D01*
X86074238Y-16906761D01*
X86026619Y-16859142D01*
G04 #@! TO.C,J4*
X75358666Y-15954380D02*
X75358666Y-16668666D01*
X75311047Y-16811523D01*
X75215809Y-16906761D01*
X75072952Y-16954380D01*
X74977714Y-16954380D01*
X76263428Y-16287714D02*
X76263428Y-16954380D01*
X76025333Y-15906761D02*
X75787238Y-16621047D01*
X76406285Y-16621047D01*
G04 #@! TO.C,J5*
X96059666Y-15954380D02*
X96059666Y-16668666D01*
X96012047Y-16811523D01*
X95916809Y-16906761D01*
X95773952Y-16954380D01*
X95678714Y-16954380D01*
X97012047Y-15954380D02*
X96535857Y-15954380D01*
X96488238Y-16430571D01*
X96535857Y-16382952D01*
X96631095Y-16335333D01*
X96869190Y-16335333D01*
X96964428Y-16382952D01*
X97012047Y-16430571D01*
X97059666Y-16525809D01*
X97059666Y-16763904D01*
X97012047Y-16859142D01*
X96964428Y-16906761D01*
X96869190Y-16954380D01*
X96631095Y-16954380D01*
X96535857Y-16906761D01*
X96488238Y-16859142D01*
G04 #@! TO.C,J6*
X106346666Y-15954380D02*
X106346666Y-16668666D01*
X106299047Y-16811523D01*
X106203809Y-16906761D01*
X106060952Y-16954380D01*
X105965714Y-16954380D01*
X107251428Y-15954380D02*
X107060952Y-15954380D01*
X106965714Y-16002000D01*
X106918095Y-16049619D01*
X106822857Y-16192476D01*
X106775238Y-16382952D01*
X106775238Y-16763904D01*
X106822857Y-16859142D01*
X106870476Y-16906761D01*
X106965714Y-16954380D01*
X107156190Y-16954380D01*
X107251428Y-16906761D01*
X107299047Y-16859142D01*
X107346666Y-16763904D01*
X107346666Y-16525809D01*
X107299047Y-16430571D01*
X107251428Y-16382952D01*
X107156190Y-16335333D01*
X106965714Y-16335333D01*
X106870476Y-16382952D01*
X106822857Y-16430571D01*
X106775238Y-16525809D01*
G04 #@! TO.C,J7*
X90852666Y-43402380D02*
X90852666Y-44116666D01*
X90805047Y-44259523D01*
X90709809Y-44354761D01*
X90566952Y-44402380D01*
X90471714Y-44402380D01*
X91233619Y-43402380D02*
X91900285Y-43402380D01*
X91471714Y-44402380D01*
G04 #@! TO.C,C1*
X75632333Y-45482142D02*
X75584714Y-45529761D01*
X75441857Y-45577380D01*
X75346619Y-45577380D01*
X75203761Y-45529761D01*
X75108523Y-45434523D01*
X75060904Y-45339285D01*
X75013285Y-45148809D01*
X75013285Y-45005952D01*
X75060904Y-44815476D01*
X75108523Y-44720238D01*
X75203761Y-44625000D01*
X75346619Y-44577380D01*
X75441857Y-44577380D01*
X75584714Y-44625000D01*
X75632333Y-44672619D01*
X76584714Y-45577380D02*
X76013285Y-45577380D01*
X76299000Y-45577380D02*
X76299000Y-44577380D01*
X76203761Y-44720238D01*
X76108523Y-44815476D01*
X76013285Y-44863095D01*
G04 #@! TO.C,C2*
X73957142Y-55645666D02*
X74004761Y-55693285D01*
X74052380Y-55836142D01*
X74052380Y-55931380D01*
X74004761Y-56074238D01*
X73909523Y-56169476D01*
X73814285Y-56217095D01*
X73623809Y-56264714D01*
X73480952Y-56264714D01*
X73290476Y-56217095D01*
X73195238Y-56169476D01*
X73100000Y-56074238D01*
X73052380Y-55931380D01*
X73052380Y-55836142D01*
X73100000Y-55693285D01*
X73147619Y-55645666D01*
X73147619Y-55264714D02*
X73100000Y-55217095D01*
X73052380Y-55121857D01*
X73052380Y-54883761D01*
X73100000Y-54788523D01*
X73147619Y-54740904D01*
X73242857Y-54693285D01*
X73338095Y-54693285D01*
X73480952Y-54740904D01*
X74052380Y-55312333D01*
X74052380Y-54693285D01*
G04 #@! TO.C,C3*
X98151333Y-57928142D02*
X98103714Y-57975761D01*
X97960857Y-58023380D01*
X97865619Y-58023380D01*
X97722761Y-57975761D01*
X97627523Y-57880523D01*
X97579904Y-57785285D01*
X97532285Y-57594809D01*
X97532285Y-57451952D01*
X97579904Y-57261476D01*
X97627523Y-57166238D01*
X97722761Y-57071000D01*
X97865619Y-57023380D01*
X97960857Y-57023380D01*
X98103714Y-57071000D01*
X98151333Y-57118619D01*
X98484666Y-57023380D02*
X99103714Y-57023380D01*
X98770380Y-57404333D01*
X98913238Y-57404333D01*
X99008476Y-57451952D01*
X99056095Y-57499571D01*
X99103714Y-57594809D01*
X99103714Y-57832904D01*
X99056095Y-57928142D01*
X99008476Y-57975761D01*
X98913238Y-58023380D01*
X98627523Y-58023380D01*
X98532285Y-57975761D01*
X98484666Y-57928142D01*
G04 #@! TO.C,C4*
X98151333Y-71183142D02*
X98103714Y-71230761D01*
X97960857Y-71278380D01*
X97865619Y-71278380D01*
X97722761Y-71230761D01*
X97627523Y-71135523D01*
X97579904Y-71040285D01*
X97532285Y-70849809D01*
X97532285Y-70706952D01*
X97579904Y-70516476D01*
X97627523Y-70421238D01*
X97722761Y-70326000D01*
X97865619Y-70278380D01*
X97960857Y-70278380D01*
X98103714Y-70326000D01*
X98151333Y-70373619D01*
X99008476Y-70611714D02*
X99008476Y-71278380D01*
X98770380Y-70230761D02*
X98532285Y-70945047D01*
X99151333Y-70945047D01*
G04 #@! TO.C,C5*
X118308333Y-50455142D02*
X118260714Y-50502761D01*
X118117857Y-50550380D01*
X118022619Y-50550380D01*
X117879761Y-50502761D01*
X117784523Y-50407523D01*
X117736904Y-50312285D01*
X117689285Y-50121809D01*
X117689285Y-49978952D01*
X117736904Y-49788476D01*
X117784523Y-49693238D01*
X117879761Y-49598000D01*
X118022619Y-49550380D01*
X118117857Y-49550380D01*
X118260714Y-49598000D01*
X118308333Y-49645619D01*
X119213095Y-49550380D02*
X118736904Y-49550380D01*
X118689285Y-50026571D01*
X118736904Y-49978952D01*
X118832142Y-49931333D01*
X119070238Y-49931333D01*
X119165476Y-49978952D01*
X119213095Y-50026571D01*
X119260714Y-50121809D01*
X119260714Y-50359904D01*
X119213095Y-50455142D01*
X119165476Y-50502761D01*
X119070238Y-50550380D01*
X118832142Y-50550380D01*
X118736904Y-50502761D01*
X118689285Y-50455142D01*
G04 #@! TO.C,C6*
X96048142Y-34472666D02*
X96095761Y-34520285D01*
X96143380Y-34663142D01*
X96143380Y-34758380D01*
X96095761Y-34901238D01*
X96000523Y-34996476D01*
X95905285Y-35044095D01*
X95714809Y-35091714D01*
X95571952Y-35091714D01*
X95381476Y-35044095D01*
X95286238Y-34996476D01*
X95191000Y-34901238D01*
X95143380Y-34758380D01*
X95143380Y-34663142D01*
X95191000Y-34520285D01*
X95238619Y-34472666D01*
X95143380Y-33615523D02*
X95143380Y-33806000D01*
X95191000Y-33901238D01*
X95238619Y-33948857D01*
X95381476Y-34044095D01*
X95571952Y-34091714D01*
X95952904Y-34091714D01*
X96048142Y-34044095D01*
X96095761Y-33996476D01*
X96143380Y-33901238D01*
X96143380Y-33710761D01*
X96095761Y-33615523D01*
X96048142Y-33567904D01*
X95952904Y-33520285D01*
X95714809Y-33520285D01*
X95619571Y-33567904D01*
X95571952Y-33615523D01*
X95524333Y-33710761D01*
X95524333Y-33901238D01*
X95571952Y-33996476D01*
X95619571Y-34044095D01*
X95714809Y-34091714D01*
G04 #@! TO.C,C7*
X117999142Y-47557666D02*
X118046761Y-47605285D01*
X118094380Y-47748142D01*
X118094380Y-47843380D01*
X118046761Y-47986238D01*
X117951523Y-48081476D01*
X117856285Y-48129095D01*
X117665809Y-48176714D01*
X117522952Y-48176714D01*
X117332476Y-48129095D01*
X117237238Y-48081476D01*
X117142000Y-47986238D01*
X117094380Y-47843380D01*
X117094380Y-47748142D01*
X117142000Y-47605285D01*
X117189619Y-47557666D01*
X117094380Y-47224333D02*
X117094380Y-46557666D01*
X118094380Y-46986238D01*
G04 #@! TO.C,C8*
X96155142Y-40064666D02*
X96202761Y-40112285D01*
X96250380Y-40255142D01*
X96250380Y-40350380D01*
X96202761Y-40493238D01*
X96107523Y-40588476D01*
X96012285Y-40636095D01*
X95821809Y-40683714D01*
X95678952Y-40683714D01*
X95488476Y-40636095D01*
X95393238Y-40588476D01*
X95298000Y-40493238D01*
X95250380Y-40350380D01*
X95250380Y-40255142D01*
X95298000Y-40112285D01*
X95345619Y-40064666D01*
X95678952Y-39493238D02*
X95631333Y-39588476D01*
X95583714Y-39636095D01*
X95488476Y-39683714D01*
X95440857Y-39683714D01*
X95345619Y-39636095D01*
X95298000Y-39588476D01*
X95250380Y-39493238D01*
X95250380Y-39302761D01*
X95298000Y-39207523D01*
X95345619Y-39159904D01*
X95440857Y-39112285D01*
X95488476Y-39112285D01*
X95583714Y-39159904D01*
X95631333Y-39207523D01*
X95678952Y-39302761D01*
X95678952Y-39493238D01*
X95726571Y-39588476D01*
X95774190Y-39636095D01*
X95869428Y-39683714D01*
X96059904Y-39683714D01*
X96155142Y-39636095D01*
X96202761Y-39588476D01*
X96250380Y-39493238D01*
X96250380Y-39302761D01*
X96202761Y-39207523D01*
X96155142Y-39159904D01*
X96059904Y-39112285D01*
X95869428Y-39112285D01*
X95774190Y-39159904D01*
X95726571Y-39207523D01*
X95678952Y-39302761D01*
G04 #@! TO.C,D1*
X111123381Y-58546094D02*
X110123381Y-58546094D01*
X110123381Y-58307999D01*
X110171001Y-58165141D01*
X110266239Y-58069903D01*
X110361477Y-58022284D01*
X110551953Y-57974665D01*
X110694810Y-57974665D01*
X110885286Y-58022284D01*
X110980524Y-58069903D01*
X111075762Y-58165141D01*
X111123381Y-58307999D01*
X111123381Y-58546094D01*
X111123381Y-57022284D02*
X111123381Y-57593713D01*
X111123381Y-57307999D02*
X110123381Y-57307999D01*
X110266239Y-57403237D01*
X110361477Y-57498475D01*
X110409096Y-57593713D01*
X111443381Y-61879903D02*
X110443381Y-61879903D01*
X111443381Y-61308475D02*
X110871953Y-61737046D01*
X110443381Y-61308475D02*
X111014810Y-61879903D01*
G04 #@! TO.C,D2*
X108573381Y-58546094D02*
X107573381Y-58546094D01*
X107573381Y-58307999D01*
X107621001Y-58165141D01*
X107716239Y-58069903D01*
X107811477Y-58022284D01*
X108001953Y-57974665D01*
X108144810Y-57974665D01*
X108335286Y-58022284D01*
X108430524Y-58069903D01*
X108525762Y-58165141D01*
X108573381Y-58307999D01*
X108573381Y-58546094D01*
X107668620Y-57593713D02*
X107621001Y-57546094D01*
X107573381Y-57450856D01*
X107573381Y-57212760D01*
X107621001Y-57117522D01*
X107668620Y-57069903D01*
X107763858Y-57022284D01*
X107859096Y-57022284D01*
X108001953Y-57069903D01*
X108573381Y-57641332D01*
X108573381Y-57022284D01*
X108893381Y-61879903D02*
X107893381Y-61879903D01*
X108893381Y-61308475D02*
X108321953Y-61737046D01*
X107893381Y-61308475D02*
X108464810Y-61879903D01*
G04 #@! TO.C,D3*
X103909904Y-56182380D02*
X103909904Y-55182380D01*
X104148000Y-55182380D01*
X104290857Y-55230000D01*
X104386095Y-55325238D01*
X104433714Y-55420476D01*
X104481333Y-55610952D01*
X104481333Y-55753809D01*
X104433714Y-55944285D01*
X104386095Y-56039523D01*
X104290857Y-56134761D01*
X104148000Y-56182380D01*
X103909904Y-56182380D01*
X104814666Y-55182380D02*
X105433714Y-55182380D01*
X105100380Y-55563333D01*
X105243238Y-55563333D01*
X105338476Y-55610952D01*
X105386095Y-55658571D01*
X105433714Y-55753809D01*
X105433714Y-55991904D01*
X105386095Y-56087142D01*
X105338476Y-56134761D01*
X105243238Y-56182380D01*
X104957523Y-56182380D01*
X104862285Y-56134761D01*
X104814666Y-56087142D01*
G04 #@! TO.C,D4*
X114949380Y-44299095D02*
X113949380Y-44299095D01*
X113949380Y-44061000D01*
X113997000Y-43918142D01*
X114092238Y-43822904D01*
X114187476Y-43775285D01*
X114377952Y-43727666D01*
X114520809Y-43727666D01*
X114711285Y-43775285D01*
X114806523Y-43822904D01*
X114901761Y-43918142D01*
X114949380Y-44061000D01*
X114949380Y-44299095D01*
X114282714Y-42870523D02*
X114949380Y-42870523D01*
X113901761Y-43108619D02*
X114616047Y-43346714D01*
X114616047Y-42727666D01*
X115319380Y-48902904D02*
X114319380Y-48902904D01*
X115319380Y-48331476D02*
X114747952Y-48760047D01*
X114319380Y-48331476D02*
X114890809Y-48902904D01*
G04 #@! TO.C,D5*
X99455380Y-44299095D02*
X98455380Y-44299095D01*
X98455380Y-44061000D01*
X98503000Y-43918142D01*
X98598238Y-43822904D01*
X98693476Y-43775285D01*
X98883952Y-43727666D01*
X99026809Y-43727666D01*
X99217285Y-43775285D01*
X99312523Y-43822904D01*
X99407761Y-43918142D01*
X99455380Y-44061000D01*
X99455380Y-44299095D01*
X98455380Y-42822904D02*
X98455380Y-43299095D01*
X98931571Y-43346714D01*
X98883952Y-43299095D01*
X98836333Y-43203857D01*
X98836333Y-42965761D01*
X98883952Y-42870523D01*
X98931571Y-42822904D01*
X99026809Y-42775285D01*
X99264904Y-42775285D01*
X99360142Y-42822904D01*
X99407761Y-42870523D01*
X99455380Y-42965761D01*
X99455380Y-43203857D01*
X99407761Y-43299095D01*
X99360142Y-43346714D01*
X99825380Y-48902904D02*
X98825380Y-48902904D01*
X99825380Y-48331476D02*
X99253952Y-48760047D01*
X98825380Y-48331476D02*
X99396809Y-48902904D01*
G04 #@! TO.C,J8*
X108806667Y-35582381D02*
X108806667Y-36296667D01*
X108759048Y-36439524D01*
X108663810Y-36534762D01*
X108520953Y-36582381D01*
X108425715Y-36582381D01*
X109425715Y-36010953D02*
X109330477Y-35963334D01*
X109282858Y-35915715D01*
X109235239Y-35820477D01*
X109235239Y-35772858D01*
X109282858Y-35677620D01*
X109330477Y-35630001D01*
X109425715Y-35582381D01*
X109616191Y-35582381D01*
X109711429Y-35630001D01*
X109759048Y-35677620D01*
X109806667Y-35772858D01*
X109806667Y-35820477D01*
X109759048Y-35915715D01*
X109711429Y-35963334D01*
X109616191Y-36010953D01*
X109425715Y-36010953D01*
X109330477Y-36058572D01*
X109282858Y-36106191D01*
X109235239Y-36201429D01*
X109235239Y-36391905D01*
X109282858Y-36487143D01*
X109330477Y-36534762D01*
X109425715Y-36582381D01*
X109616191Y-36582381D01*
X109711429Y-36534762D01*
X109759048Y-36487143D01*
X109806667Y-36391905D01*
X109806667Y-36201429D01*
X109759048Y-36106191D01*
X109711429Y-36058572D01*
X109616191Y-36010953D01*
G04 #@! TO.C,L1*
X116337380Y-43727666D02*
X116337380Y-44203857D01*
X115337380Y-44203857D01*
X116337380Y-42870523D02*
X116337380Y-43441952D01*
X116337380Y-43156238D02*
X115337380Y-43156238D01*
X115480238Y-43251476D01*
X115575476Y-43346714D01*
X115623095Y-43441952D01*
G04 #@! TO.C,L2*
X103007380Y-43727666D02*
X103007380Y-44203857D01*
X102007380Y-44203857D01*
X102102619Y-43441952D02*
X102055000Y-43394333D01*
X102007380Y-43299095D01*
X102007380Y-43061000D01*
X102055000Y-42965761D01*
X102102619Y-42918142D01*
X102197857Y-42870523D01*
X102293095Y-42870523D01*
X102435952Y-42918142D01*
X103007380Y-43489571D01*
X103007380Y-42870523D01*
G04 #@! TO.C,Q1*
X98187762Y-61610620D02*
X98092524Y-61563001D01*
X97997286Y-61467762D01*
X97854429Y-61324905D01*
X97759191Y-61277286D01*
X97663953Y-61277286D01*
X97711572Y-61515381D02*
X97616334Y-61467762D01*
X97521096Y-61372524D01*
X97473477Y-61182048D01*
X97473477Y-60848715D01*
X97521096Y-60658239D01*
X97616334Y-60563001D01*
X97711572Y-60515381D01*
X97902048Y-60515381D01*
X97997286Y-60563001D01*
X98092524Y-60658239D01*
X98140143Y-60848715D01*
X98140143Y-61182048D01*
X98092524Y-61372524D01*
X97997286Y-61467762D01*
X97902048Y-61515381D01*
X97711572Y-61515381D01*
X99092524Y-61515381D02*
X98521096Y-61515381D01*
X98806810Y-61515381D02*
X98806810Y-60515381D01*
X98711572Y-60658239D01*
X98616334Y-60753477D01*
X98521096Y-60801096D01*
G04 #@! TO.C,R1*
X115657333Y-14465380D02*
X115324000Y-13989190D01*
X115085904Y-14465380D02*
X115085904Y-13465380D01*
X115466857Y-13465380D01*
X115562095Y-13513000D01*
X115609714Y-13560619D01*
X115657333Y-13655857D01*
X115657333Y-13798714D01*
X115609714Y-13893952D01*
X115562095Y-13941571D01*
X115466857Y-13989190D01*
X115085904Y-13989190D01*
X116609714Y-14465380D02*
X116038285Y-14465380D01*
X116324000Y-14465380D02*
X116324000Y-13465380D01*
X116228761Y-13608238D01*
X116133523Y-13703476D01*
X116038285Y-13751095D01*
G04 #@! TO.C,R3*
X85812333Y-32921380D02*
X85479000Y-32445190D01*
X85240904Y-32921380D02*
X85240904Y-31921380D01*
X85621857Y-31921380D01*
X85717095Y-31969000D01*
X85764714Y-32016619D01*
X85812333Y-32111857D01*
X85812333Y-32254714D01*
X85764714Y-32349952D01*
X85717095Y-32397571D01*
X85621857Y-32445190D01*
X85240904Y-32445190D01*
X86145666Y-31921380D02*
X86764714Y-31921380D01*
X86431380Y-32302333D01*
X86574238Y-32302333D01*
X86669476Y-32349952D01*
X86717095Y-32397571D01*
X86764714Y-32492809D01*
X86764714Y-32730904D01*
X86717095Y-32826142D01*
X86669476Y-32873761D01*
X86574238Y-32921380D01*
X86288523Y-32921380D01*
X86193285Y-32873761D01*
X86145666Y-32826142D01*
G04 #@! TO.C,R4*
X75398333Y-14465380D02*
X75065000Y-13989190D01*
X74826904Y-14465380D02*
X74826904Y-13465380D01*
X75207857Y-13465380D01*
X75303095Y-13513000D01*
X75350714Y-13560619D01*
X75398333Y-13655857D01*
X75398333Y-13798714D01*
X75350714Y-13893952D01*
X75303095Y-13941571D01*
X75207857Y-13989190D01*
X74826904Y-13989190D01*
X76255476Y-13798714D02*
X76255476Y-14465380D01*
X76017380Y-13417761D02*
X75779285Y-14132047D01*
X76398333Y-14132047D01*
G04 #@! TO.C,R5*
X96226333Y-14465380D02*
X95893000Y-13989190D01*
X95654904Y-14465380D02*
X95654904Y-13465380D01*
X96035857Y-13465380D01*
X96131095Y-13513000D01*
X96178714Y-13560619D01*
X96226333Y-13655857D01*
X96226333Y-13798714D01*
X96178714Y-13893952D01*
X96131095Y-13941571D01*
X96035857Y-13989190D01*
X95654904Y-13989190D01*
X97131095Y-13465380D02*
X96654904Y-13465380D01*
X96607285Y-13941571D01*
X96654904Y-13893952D01*
X96750142Y-13846333D01*
X96988238Y-13846333D01*
X97083476Y-13893952D01*
X97131095Y-13941571D01*
X97178714Y-14036809D01*
X97178714Y-14274904D01*
X97131095Y-14370142D01*
X97083476Y-14417761D01*
X96988238Y-14465380D01*
X96750142Y-14465380D01*
X96654904Y-14417761D01*
X96607285Y-14370142D01*
G04 #@! TO.C,R6*
X106259333Y-32921380D02*
X105926000Y-32445190D01*
X105687904Y-32921380D02*
X105687904Y-31921380D01*
X106068857Y-31921380D01*
X106164095Y-31969000D01*
X106211714Y-32016619D01*
X106259333Y-32111857D01*
X106259333Y-32254714D01*
X106211714Y-32349952D01*
X106164095Y-32397571D01*
X106068857Y-32445190D01*
X105687904Y-32445190D01*
X107116476Y-31921380D02*
X106926000Y-31921380D01*
X106830761Y-31969000D01*
X106783142Y-32016619D01*
X106687904Y-32159476D01*
X106640285Y-32349952D01*
X106640285Y-32730904D01*
X106687904Y-32826142D01*
X106735523Y-32873761D01*
X106830761Y-32921380D01*
X107021238Y-32921380D01*
X107116476Y-32873761D01*
X107164095Y-32826142D01*
X107211714Y-32730904D01*
X107211714Y-32492809D01*
X107164095Y-32397571D01*
X107116476Y-32349952D01*
X107021238Y-32302333D01*
X106830761Y-32302333D01*
X106735523Y-32349952D01*
X106687904Y-32397571D01*
X106640285Y-32492809D01*
G04 #@! TO.C,R7*
X86066333Y-54130380D02*
X85733000Y-53654190D01*
X85494904Y-54130380D02*
X85494904Y-53130380D01*
X85875857Y-53130380D01*
X85971095Y-53178000D01*
X86018714Y-53225619D01*
X86066333Y-53320857D01*
X86066333Y-53463714D01*
X86018714Y-53558952D01*
X85971095Y-53606571D01*
X85875857Y-53654190D01*
X85494904Y-53654190D01*
X86399666Y-53130380D02*
X87066333Y-53130380D01*
X86637761Y-54130380D01*
G04 #@! TO.C,R8*
X92062380Y-56554666D02*
X91586190Y-56888000D01*
X92062380Y-57126095D02*
X91062380Y-57126095D01*
X91062380Y-56745142D01*
X91110000Y-56649904D01*
X91157619Y-56602285D01*
X91252857Y-56554666D01*
X91395714Y-56554666D01*
X91490952Y-56602285D01*
X91538571Y-56649904D01*
X91586190Y-56745142D01*
X91586190Y-57126095D01*
X91490952Y-55983238D02*
X91443333Y-56078476D01*
X91395714Y-56126095D01*
X91300476Y-56173714D01*
X91252857Y-56173714D01*
X91157619Y-56126095D01*
X91110000Y-56078476D01*
X91062380Y-55983238D01*
X91062380Y-55792761D01*
X91110000Y-55697523D01*
X91157619Y-55649904D01*
X91252857Y-55602285D01*
X91300476Y-55602285D01*
X91395714Y-55649904D01*
X91443333Y-55697523D01*
X91490952Y-55792761D01*
X91490952Y-55983238D01*
X91538571Y-56078476D01*
X91586190Y-56126095D01*
X91681428Y-56173714D01*
X91871904Y-56173714D01*
X91967142Y-56126095D01*
X92014761Y-56078476D01*
X92062380Y-55983238D01*
X92062380Y-55792761D01*
X92014761Y-55697523D01*
X91967142Y-55649904D01*
X91871904Y-55602285D01*
X91681428Y-55602285D01*
X91586190Y-55649904D01*
X91538571Y-55697523D01*
X91490952Y-55792761D01*
G04 #@! TO.C,R9*
X73493333Y-49263380D02*
X73160000Y-48787190D01*
X72921904Y-49263380D02*
X72921904Y-48263380D01*
X73302857Y-48263380D01*
X73398095Y-48311000D01*
X73445714Y-48358619D01*
X73493333Y-48453857D01*
X73493333Y-48596714D01*
X73445714Y-48691952D01*
X73398095Y-48739571D01*
X73302857Y-48787190D01*
X72921904Y-48787190D01*
X73969523Y-49263380D02*
X74160000Y-49263380D01*
X74255238Y-49215761D01*
X74302857Y-49168142D01*
X74398095Y-49025285D01*
X74445714Y-48834809D01*
X74445714Y-48453857D01*
X74398095Y-48358619D01*
X74350476Y-48311000D01*
X74255238Y-48263380D01*
X74064761Y-48263380D01*
X73969523Y-48311000D01*
X73921904Y-48358619D01*
X73874285Y-48453857D01*
X73874285Y-48691952D01*
X73921904Y-48787190D01*
X73969523Y-48834809D01*
X74064761Y-48882428D01*
X74255238Y-48882428D01*
X74350476Y-48834809D01*
X74398095Y-48787190D01*
X74445714Y-48691952D01*
G04 #@! TO.C,R10*
X101465142Y-54257380D02*
X101131809Y-53781190D01*
X100893714Y-54257380D02*
X100893714Y-53257380D01*
X101274666Y-53257380D01*
X101369904Y-53305000D01*
X101417523Y-53352619D01*
X101465142Y-53447857D01*
X101465142Y-53590714D01*
X101417523Y-53685952D01*
X101369904Y-53733571D01*
X101274666Y-53781190D01*
X100893714Y-53781190D01*
X102417523Y-54257380D02*
X101846095Y-54257380D01*
X102131809Y-54257380D02*
X102131809Y-53257380D01*
X102036571Y-53400238D01*
X101941333Y-53495476D01*
X101846095Y-53543095D01*
X103036571Y-53257380D02*
X103131809Y-53257380D01*
X103227047Y-53305000D01*
X103274666Y-53352619D01*
X103322285Y-53447857D01*
X103369904Y-53638333D01*
X103369904Y-53876428D01*
X103322285Y-54066904D01*
X103274666Y-54162142D01*
X103227047Y-54209761D01*
X103131809Y-54257380D01*
X103036571Y-54257380D01*
X102941333Y-54209761D01*
X102893714Y-54162142D01*
X102846095Y-54066904D01*
X102798476Y-53876428D01*
X102798476Y-53638333D01*
X102846095Y-53447857D01*
X102893714Y-53352619D01*
X102941333Y-53305000D01*
X103036571Y-53257380D01*
G04 #@! TO.C,R11*
X101592142Y-57432380D02*
X101258809Y-56956190D01*
X101020714Y-57432380D02*
X101020714Y-56432380D01*
X101401666Y-56432380D01*
X101496904Y-56480000D01*
X101544523Y-56527619D01*
X101592142Y-56622857D01*
X101592142Y-56765714D01*
X101544523Y-56860952D01*
X101496904Y-56908571D01*
X101401666Y-56956190D01*
X101020714Y-56956190D01*
X102544523Y-57432380D02*
X101973095Y-57432380D01*
X102258809Y-57432380D02*
X102258809Y-56432380D01*
X102163571Y-56575238D01*
X102068333Y-56670476D01*
X101973095Y-56718095D01*
X103496904Y-57432380D02*
X102925476Y-57432380D01*
X103211190Y-57432380D02*
X103211190Y-56432380D01*
X103115952Y-56575238D01*
X103020714Y-56670476D01*
X102925476Y-56718095D01*
G04 #@! TO.C,R12*
X67846380Y-52458857D02*
X67370190Y-52792190D01*
X67846380Y-53030285D02*
X66846380Y-53030285D01*
X66846380Y-52649333D01*
X66894000Y-52554095D01*
X66941619Y-52506476D01*
X67036857Y-52458857D01*
X67179714Y-52458857D01*
X67274952Y-52506476D01*
X67322571Y-52554095D01*
X67370190Y-52649333D01*
X67370190Y-53030285D01*
X67846380Y-51506476D02*
X67846380Y-52077904D01*
X67846380Y-51792190D02*
X66846380Y-51792190D01*
X66989238Y-51887428D01*
X67084476Y-51982666D01*
X67132095Y-52077904D01*
X66941619Y-51125523D02*
X66894000Y-51077904D01*
X66846380Y-50982666D01*
X66846380Y-50744571D01*
X66894000Y-50649333D01*
X66941619Y-50601714D01*
X67036857Y-50554095D01*
X67132095Y-50554095D01*
X67274952Y-50601714D01*
X67846380Y-51173142D01*
X67846380Y-50554095D01*
G04 #@! TO.C,R13*
X106799142Y-62852380D02*
X106465809Y-62376190D01*
X106227714Y-62852380D02*
X106227714Y-61852380D01*
X106608666Y-61852380D01*
X106703904Y-61900000D01*
X106751523Y-61947619D01*
X106799142Y-62042857D01*
X106799142Y-62185714D01*
X106751523Y-62280952D01*
X106703904Y-62328571D01*
X106608666Y-62376190D01*
X106227714Y-62376190D01*
X107751523Y-62852380D02*
X107180095Y-62852380D01*
X107465809Y-62852380D02*
X107465809Y-61852380D01*
X107370571Y-61995238D01*
X107275333Y-62090476D01*
X107180095Y-62138095D01*
X108084857Y-61852380D02*
X108703904Y-61852380D01*
X108370571Y-62233333D01*
X108513428Y-62233333D01*
X108608666Y-62280952D01*
X108656285Y-62328571D01*
X108703904Y-62423809D01*
X108703904Y-62661904D01*
X108656285Y-62757142D01*
X108608666Y-62804761D01*
X108513428Y-62852380D01*
X108227714Y-62852380D01*
X108132476Y-62804761D01*
X108084857Y-62757142D01*
G04 #@! TO.C,RV1*
X78063761Y-46670380D02*
X77730428Y-46194190D01*
X77492333Y-46670380D02*
X77492333Y-45670380D01*
X77873285Y-45670380D01*
X77968523Y-45718000D01*
X78016142Y-45765619D01*
X78063761Y-45860857D01*
X78063761Y-46003714D01*
X78016142Y-46098952D01*
X77968523Y-46146571D01*
X77873285Y-46194190D01*
X77492333Y-46194190D01*
X78349476Y-45670380D02*
X78682809Y-46670380D01*
X79016142Y-45670380D01*
X79873285Y-46670380D02*
X79301857Y-46670380D01*
X79587571Y-46670380D02*
X79587571Y-45670380D01*
X79492333Y-45813238D01*
X79397095Y-45908476D01*
X79301857Y-45956095D01*
G04 #@! TO.C,U1*
X91825380Y-59181904D02*
X92634904Y-59181904D01*
X92730142Y-59134285D01*
X92777761Y-59086666D01*
X92825380Y-58991428D01*
X92825380Y-58800952D01*
X92777761Y-58705714D01*
X92730142Y-58658095D01*
X92634904Y-58610476D01*
X91825380Y-58610476D01*
X92825380Y-57610476D02*
X92825380Y-58181904D01*
X92825380Y-57896190D02*
X91825380Y-57896190D01*
X91968238Y-57991428D01*
X92063476Y-58086666D01*
X92111095Y-58181904D01*
G04 #@! TO.C,R2*
X66381333Y-32921380D02*
X66048000Y-32445190D01*
X65809904Y-32921380D02*
X65809904Y-31921380D01*
X66190857Y-31921380D01*
X66286095Y-31969000D01*
X66333714Y-32016619D01*
X66381333Y-32111857D01*
X66381333Y-32254714D01*
X66333714Y-32349952D01*
X66286095Y-32397571D01*
X66190857Y-32445190D01*
X65809904Y-32445190D01*
X66762285Y-32016619D02*
X66809904Y-31969000D01*
X66905142Y-31921380D01*
X67143238Y-31921380D01*
X67238476Y-31969000D01*
X67286095Y-32016619D01*
X67333714Y-32111857D01*
X67333714Y-32207095D01*
X67286095Y-32349952D01*
X66714666Y-32921380D01*
X67333714Y-32921380D01*
G04 #@! TD*
M02*
