M48
;DRILL file {KiCad (5.0.2)-1} date 15/03/2019 10:50:16
;FORMAT={-:-/ absolute / inch / decimal}
FMAT,2
INCH,TZ
T1C0.0295
T2C0.0315
T3C0.0354
T4C0.0394
T5C0.0433
T6C0.0787
%
G90
G05
T1
X3.8194Y-2.5442
X3.8694Y-2.4942
X3.9194Y-2.5442
T2
X3.8216Y-2.365
X3.92Y-2.365
X2.775Y-0.645
X3.175Y-0.645
X2.42Y-1.185
X2.82Y-1.185
X3.99Y-1.185
X4.39Y-1.185
X4.36Y-0.645
X4.76Y-0.645
X2.7Y-2.015
X3.1Y-2.015
X4.3402Y-2.1259
X4.3402Y-2.4259
X3.595Y-0.645
X3.995Y-0.645
X2.75Y-2.135
X2.75Y-2.2334
X4.73Y-1.8166
X4.73Y-1.915
X3.8216Y-2.69
X3.92Y-2.69
X4.4406Y-2.1259
X4.4406Y-2.4259
X2.945Y-2.15
X2.945Y-2.45
X3.045Y-2.15
X3.045Y-2.45
X3.145Y-2.15
X3.145Y-2.45
X3.245Y-2.15
X3.245Y-2.45
X3.345Y-2.15
X3.345Y-2.45
X3.445Y-2.15
X3.445Y-2.45
X3.545Y-2.15
X3.545Y-2.45
X3.185Y-1.185
X3.585Y-1.185
X4.125Y-1.515
X4.125Y-1.915
X3.82Y-2.025
X4.22Y-2.025
X4.625Y-2.12
X4.7037Y-2.12
X4.475Y-1.515
X4.475Y-1.915
X3.87Y-1.5216
X3.87Y-1.62
X4.03Y-2.55
X4.43Y-2.55
X3.195Y-2.02
X3.595Y-2.02
X3.915Y-1.3113
X3.915Y-1.39
X2.935Y-1.875
X3.0334Y-1.875
X2.56Y-1.84
X2.56Y-2.24
X3.825Y-2.15
X4.225Y-2.15
X3.7Y-2.02
X3.7Y-2.42
T3
X4.07Y-2.35
X4.17Y-2.35
T4
X4.2469Y-1.5142
X4.2469Y-1.6142
X4.2469Y-1.7142
X4.2469Y-1.8142
X4.2469Y-1.9142
X4.3469Y-1.5142
X4.3469Y-1.6142
X4.3469Y-1.7142
X4.3469Y-1.8142
X4.3469Y-1.9142
X3.335Y-1.42
X3.335Y-1.5184
X3.335Y-1.6169
T5
X4.605Y-1.515
X4.605Y-1.915
X3.995Y-1.515
X3.995Y-1.915
T6
X3.0594Y-1.3452
X3.0594Y-1.6917
T4
X2.8603Y-0.9G85X2.8997Y-0.9
G05
X2.9603Y-0.76G85X2.9997Y-0.76
G05
X2.9603Y-1.06G85X2.9997Y-1.06
G05
X3.0603Y-0.96G85X3.0997Y-0.96
G05
X4.0803Y-0.9G85X4.1197Y-0.9
G05
X4.1803Y-0.76G85X4.2197Y-0.76
G05
X4.1803Y-1.06G85X4.2197Y-1.06
G05
X4.2803Y-0.96G85X4.3197Y-0.96
G05
X3.2653Y-0.9G85X3.3047Y-0.9
G05
X3.3653Y-0.76G85X3.4047Y-0.76
G05
X3.3653Y-1.06G85X3.4047Y-1.06
G05
X3.4653Y-0.96G85X3.5047Y-0.96
G05
X2.4553Y-0.9G85X2.4947Y-0.9
G05
X2.5553Y-0.76G85X2.5947Y-0.76
G05
X2.5553Y-1.06G85X2.5947Y-1.06
G05
X2.6553Y-0.96G85X2.6947Y-0.96
G05
X3.5097Y-1.42G85X3.4703Y-1.42
G05
X3.6097Y-1.32G85X3.5703Y-1.32
G05
X3.6097Y-1.62G85X3.5703Y-1.62
G05
X3.7097Y-1.48G85X3.6703Y-1.48
G05
X4.4853Y-0.9G85X4.5247Y-0.9
G05
X4.5853Y-0.76G85X4.6247Y-0.76
G05
X4.5853Y-1.06G85X4.6247Y-1.06
G05
X4.6853Y-0.96G85X4.7247Y-0.96
G05
X3.6753Y-0.9G85X3.7147Y-0.9
G05
X3.7753Y-0.76G85X3.8147Y-0.76
G05
X3.7753Y-1.06G85X3.8147Y-1.06
G05
X3.8753Y-0.96G85X3.9147Y-0.96
G05
T0
M30
