G04 #@! TF.GenerationSoftware,KiCad,Pcbnew,(5.0.2)-1*
G04 #@! TF.CreationDate,2019-02-15T13:53:22+00:00*
G04 #@! TF.ProjectId,panel,70616e65-6c2e-46b6-9963-61645f706362,rev?*
G04 #@! TF.SameCoordinates,Original*
G04 #@! TF.FileFunction,Legend,Top*
G04 #@! TF.FilePolarity,Positive*
%FSLAX46Y46*%
G04 Gerber Fmt 4.6, Leading zero omitted, Abs format (unit mm)*
G04 Created by KiCad (PCBNEW (5.0.2)-1) date 15/02/2019 13:53:22*
%MOMM*%
%LPD*%
G01*
G04 APERTURE LIST*
%ADD10C,0.120000*%
%ADD11C,0.150000*%
G04 APERTURE END LIST*
D10*
G04 #@! TO.C,D1*
X117311500Y-97091500D02*
X117311500Y-99376500D01*
X117311500Y-99376500D02*
X118781500Y-99376500D01*
X118781500Y-99376500D02*
X118781500Y-97091500D01*
G04 #@! TO.C,J5*
X148339500Y-53781000D02*
X150999500Y-53781000D01*
X148339500Y-53721000D02*
X148339500Y-53781000D01*
X150999500Y-53721000D02*
X150999500Y-53781000D01*
X148339500Y-53721000D02*
X150999500Y-53721000D01*
X148339500Y-52451000D02*
X148339500Y-51121000D01*
X148339500Y-51121000D02*
X149669500Y-51121000D01*
G04 #@! TO.C,J10*
X99952500Y-59376000D02*
X99952500Y-62036000D01*
X102552500Y-59376000D02*
X99952500Y-59376000D01*
X102552500Y-62036000D02*
X99952500Y-62036000D01*
X102552500Y-59376000D02*
X102552500Y-62036000D01*
X103822500Y-59376000D02*
X105152500Y-59376000D01*
X105152500Y-59376000D02*
X105152500Y-60706000D01*
G04 #@! TO.C,R5*
X118556500Y-94752279D02*
X118556500Y-94426721D01*
X117536500Y-94752279D02*
X117536500Y-94426721D01*
D11*
G04 #@! TO.C,SW1*
X132524500Y-69215000D02*
G75*
G03X132524500Y-69215000I-4064000J0D01*
G01*
X139636499Y-69215000D02*
G75*
G03X139636499Y-69215000I-11175999J0D01*
G01*
G04 #@! TO.C,SW2*
X152336500Y-61087000D02*
G75*
G03X152336500Y-61087000I-2794000J0D01*
G01*
X155638500Y-68707000D02*
X143446500Y-68707000D01*
X155638500Y-55245000D02*
X155638500Y-68707000D01*
X143446500Y-55245000D02*
X155638500Y-55245000D01*
X143446500Y-68707000D02*
X143446500Y-55245000D01*
G04 #@! TO.C,SW3*
X143446500Y-83693000D02*
X143446500Y-70231000D01*
X143446500Y-70231000D02*
X155638500Y-70231000D01*
X155638500Y-70231000D02*
X155638500Y-83693000D01*
X155638500Y-83693000D02*
X143446500Y-83693000D01*
X152336500Y-76073000D02*
G75*
G03X152336500Y-76073000I-2794000J0D01*
G01*
G04 #@! TO.C,SW4*
X112204500Y-87757000D02*
X112204500Y-77597000D01*
X112204500Y-77597000D02*
X101028500Y-77597000D01*
X101028500Y-77597000D02*
X101028500Y-87757000D01*
X101028500Y-87757000D02*
X112204500Y-87757000D01*
X109918500Y-82677000D02*
G75*
G03X109918500Y-82677000I-3302000J0D01*
G01*
D10*
G04 #@! TO.C,J4*
X107468500Y-55737500D02*
X107018500Y-55737500D01*
X107468500Y-53887500D02*
X107468500Y-55737500D01*
X99668500Y-51337500D02*
X99668500Y-51587500D01*
X107468500Y-51337500D02*
X107468500Y-51587500D01*
X99668500Y-53887500D02*
X99668500Y-55737500D01*
X99668500Y-55737500D02*
X100118500Y-55737500D01*
X105268500Y-56287500D02*
X104818500Y-56287500D01*
X105268500Y-56287500D02*
X105268500Y-55837500D01*
G04 #@! TO.C,RV1*
X101305500Y-74939000D02*
X101305500Y-71074000D01*
X101305500Y-66564000D02*
X101305500Y-62699000D01*
X111245500Y-74939000D02*
X111245500Y-71074000D01*
X111245500Y-66564000D02*
X111245500Y-62699000D01*
X101305500Y-74939000D02*
X102904500Y-74939000D01*
X104646500Y-74939000D02*
X105405500Y-74939000D01*
X107146500Y-74939000D02*
X107905500Y-74939000D01*
X109645500Y-74939000D02*
X111245500Y-74939000D01*
X101305500Y-62699000D02*
X111245500Y-62699000D01*
G04 #@! TO.C,D1*
X91147000Y-121135000D02*
X91147000Y-118895000D01*
X91147000Y-118895000D02*
X86907000Y-118895000D01*
X86907000Y-118895000D02*
X86907000Y-121135000D01*
X86907000Y-121135000D02*
X91147000Y-121135000D01*
X91797000Y-120015000D02*
X91147000Y-120015000D01*
X86257000Y-120015000D02*
X86907000Y-120015000D01*
X90427000Y-121135000D02*
X90427000Y-118895000D01*
X90307000Y-121135000D02*
X90307000Y-118895000D01*
X90547000Y-121135000D02*
X90547000Y-118895000D01*
G04 #@! TO.C,C2*
X91823000Y-115254721D02*
X91823000Y-115580279D01*
X90803000Y-115254721D02*
X90803000Y-115580279D01*
G04 #@! TO.C,R1*
X92212279Y-123573000D02*
X91886721Y-123573000D01*
X92212279Y-122553000D02*
X91886721Y-122553000D01*
G04 #@! TO.C,J2*
X86487000Y-113217000D02*
X86487000Y-110557000D01*
X86487000Y-113217000D02*
X94167000Y-113217000D01*
X94167000Y-113217000D02*
X94167000Y-110557000D01*
X86487000Y-110557000D02*
X94167000Y-110557000D01*
X83887000Y-110557000D02*
X85217000Y-110557000D01*
X83887000Y-111887000D02*
X83887000Y-110557000D01*
G04 #@! TO.C,J1*
X83883500Y-79943000D02*
X83883500Y-77283000D01*
X83883500Y-79943000D02*
X96643500Y-79943000D01*
X96643500Y-79943000D02*
X96643500Y-77283000D01*
X83883500Y-77283000D02*
X96643500Y-77283000D01*
X81283500Y-77283000D02*
X82613500Y-77283000D01*
X81283500Y-78613000D02*
X81283500Y-77283000D01*
G04 #@! TO.C,J2*
X97405500Y-74609000D02*
X97405500Y-71949000D01*
X97345500Y-74609000D02*
X97405500Y-74609000D01*
X97345500Y-71949000D02*
X97405500Y-71949000D01*
X97345500Y-74609000D02*
X97345500Y-71949000D01*
X96075500Y-74609000D02*
X94745500Y-74609000D01*
X94745500Y-74609000D02*
X94745500Y-73279000D01*
G04 #@! TO.C,J4*
X92071500Y-60639000D02*
X92071500Y-57979000D01*
X92011500Y-60639000D02*
X92071500Y-60639000D01*
X92011500Y-57979000D02*
X92071500Y-57979000D01*
X92011500Y-60639000D02*
X92011500Y-57979000D01*
X90741500Y-60639000D02*
X89411500Y-60639000D01*
X89411500Y-60639000D02*
X89411500Y-59309000D01*
G04 #@! TO.C,J6*
X89665500Y-74609000D02*
X89665500Y-73279000D01*
X90995500Y-74609000D02*
X89665500Y-74609000D01*
X92265500Y-74609000D02*
X92265500Y-71949000D01*
X92265500Y-71949000D02*
X92325500Y-71949000D01*
X92265500Y-74609000D02*
X92325500Y-74609000D01*
X92325500Y-74609000D02*
X92325500Y-71949000D01*
G04 #@! TO.C,J8*
X91503500Y-53153000D02*
X91503500Y-55813000D01*
X91503500Y-53153000D02*
X83823500Y-53153000D01*
X83823500Y-53153000D02*
X83823500Y-55813000D01*
X91503500Y-55813000D02*
X83823500Y-55813000D01*
X94103500Y-55813000D02*
X92773500Y-55813000D01*
X94103500Y-54483000D02*
X94103500Y-55813000D01*
D11*
G04 #@! TO.C,J7*
X86677500Y-71755000D02*
G75*
G03X86677500Y-71755000I-1778000J0D01*
G01*
X88867107Y-71755000D02*
G75*
G03X88867107Y-71755000I-3967607J0D01*
G01*
X88963500Y-76835000D02*
X78549500Y-76835000D01*
X88963500Y-66675000D02*
X88963500Y-76835000D01*
X78549500Y-66675000D02*
X88963500Y-66675000D01*
X78549500Y-76835000D02*
X78549500Y-66675000D01*
G04 #@! TO.C,J5*
X78549500Y-66294000D02*
X78549500Y-56134000D01*
X78549500Y-56134000D02*
X88963500Y-56134000D01*
X88963500Y-56134000D02*
X88963500Y-66294000D01*
X88963500Y-66294000D02*
X78549500Y-66294000D01*
X88867107Y-61214000D02*
G75*
G03X88867107Y-61214000I-3967607J0D01*
G01*
X86677500Y-61214000D02*
G75*
G03X86677500Y-61214000I-1778000J0D01*
G01*
G04 #@! TO.C,J3*
X99504500Y-61341000D02*
X99504500Y-71501000D01*
X99504500Y-71501000D02*
X89090500Y-71501000D01*
X89090500Y-71501000D02*
X89090500Y-61341000D01*
X89090500Y-61341000D02*
X99504500Y-61341000D01*
X97122107Y-66421000D02*
G75*
G03X97122107Y-66421000I-3967607J0D01*
G01*
X94932500Y-66421000D02*
G75*
G03X94932500Y-66421000I-1778000J0D01*
G01*
D10*
G04 #@! TO.C,J1*
X83883500Y-109788000D02*
X83883500Y-107128000D01*
X83883500Y-109788000D02*
X96643500Y-109788000D01*
X96643500Y-109788000D02*
X96643500Y-107128000D01*
X83883500Y-107128000D02*
X96643500Y-107128000D01*
X81283500Y-107128000D02*
X82613500Y-107128000D01*
X81283500Y-108458000D02*
X81283500Y-107128000D01*
G04 #@! TO.C,J2*
X97405500Y-104454000D02*
X97405500Y-101794000D01*
X97345500Y-104454000D02*
X97405500Y-104454000D01*
X97345500Y-101794000D02*
X97405500Y-101794000D01*
X97345500Y-104454000D02*
X97345500Y-101794000D01*
X96075500Y-104454000D02*
X94745500Y-104454000D01*
X94745500Y-104454000D02*
X94745500Y-103124000D01*
G04 #@! TO.C,J4*
X92071500Y-90484000D02*
X92071500Y-87824000D01*
X92011500Y-90484000D02*
X92071500Y-90484000D01*
X92011500Y-87824000D02*
X92071500Y-87824000D01*
X92011500Y-90484000D02*
X92011500Y-87824000D01*
X90741500Y-90484000D02*
X89411500Y-90484000D01*
X89411500Y-90484000D02*
X89411500Y-89154000D01*
G04 #@! TO.C,J6*
X89665500Y-104454000D02*
X89665500Y-103124000D01*
X90995500Y-104454000D02*
X89665500Y-104454000D01*
X92265500Y-104454000D02*
X92265500Y-101794000D01*
X92265500Y-101794000D02*
X92325500Y-101794000D01*
X92265500Y-104454000D02*
X92325500Y-104454000D01*
X92325500Y-104454000D02*
X92325500Y-101794000D01*
G04 #@! TO.C,J8*
X91503500Y-82998000D02*
X91503500Y-85658000D01*
X91503500Y-82998000D02*
X83823500Y-82998000D01*
X83823500Y-82998000D02*
X83823500Y-85658000D01*
X91503500Y-85658000D02*
X83823500Y-85658000D01*
X94103500Y-85658000D02*
X92773500Y-85658000D01*
X94103500Y-84328000D02*
X94103500Y-85658000D01*
D11*
G04 #@! TO.C,J7*
X86677500Y-101600000D02*
G75*
G03X86677500Y-101600000I-1778000J0D01*
G01*
X88867107Y-101600000D02*
G75*
G03X88867107Y-101600000I-3967607J0D01*
G01*
X88963500Y-106680000D02*
X78549500Y-106680000D01*
X88963500Y-96520000D02*
X88963500Y-106680000D01*
X78549500Y-96520000D02*
X88963500Y-96520000D01*
X78549500Y-106680000D02*
X78549500Y-96520000D01*
G04 #@! TO.C,J5*
X78549500Y-96139000D02*
X78549500Y-85979000D01*
X78549500Y-85979000D02*
X88963500Y-85979000D01*
X88963500Y-85979000D02*
X88963500Y-96139000D01*
X88963500Y-96139000D02*
X78549500Y-96139000D01*
X88867107Y-91059000D02*
G75*
G03X88867107Y-91059000I-3967607J0D01*
G01*
X86677500Y-91059000D02*
G75*
G03X86677500Y-91059000I-1778000J0D01*
G01*
G04 #@! TO.C,J3*
X99504500Y-91186000D02*
X99504500Y-101346000D01*
X99504500Y-101346000D02*
X89090500Y-101346000D01*
X89090500Y-101346000D02*
X89090500Y-91186000D01*
X89090500Y-91186000D02*
X99504500Y-91186000D01*
X97122107Y-96266000D02*
G75*
G03X97122107Y-96266000I-3967607J0D01*
G01*
X94932500Y-96266000D02*
G75*
G03X94932500Y-96266000I-1778000J0D01*
G01*
D10*
G04 #@! TO.C,D1*
X111594000Y-121135000D02*
X111594000Y-118895000D01*
X111594000Y-118895000D02*
X107354000Y-118895000D01*
X107354000Y-118895000D02*
X107354000Y-121135000D01*
X107354000Y-121135000D02*
X111594000Y-121135000D01*
X112244000Y-120015000D02*
X111594000Y-120015000D01*
X106704000Y-120015000D02*
X107354000Y-120015000D01*
X110874000Y-121135000D02*
X110874000Y-118895000D01*
X110754000Y-121135000D02*
X110754000Y-118895000D01*
X110994000Y-121135000D02*
X110994000Y-118895000D01*
G04 #@! TO.C,C2*
X112270000Y-115254721D02*
X112270000Y-115580279D01*
X111250000Y-115254721D02*
X111250000Y-115580279D01*
G04 #@! TO.C,R1*
X112659279Y-123573000D02*
X112333721Y-123573000D01*
X112659279Y-122553000D02*
X112333721Y-122553000D01*
G04 #@! TO.C,J2*
X106934000Y-113217000D02*
X106934000Y-110557000D01*
X106934000Y-113217000D02*
X114614000Y-113217000D01*
X114614000Y-113217000D02*
X114614000Y-110557000D01*
X106934000Y-110557000D02*
X114614000Y-110557000D01*
X104334000Y-110557000D02*
X105664000Y-110557000D01*
X104334000Y-111887000D02*
X104334000Y-110557000D01*
G04 #@! TO.C,D1*
D11*
X117068880Y-98629595D02*
X116068880Y-98629595D01*
X116068880Y-98391500D01*
X116116500Y-98248642D01*
X116211738Y-98153404D01*
X116306976Y-98105785D01*
X116497452Y-98058166D01*
X116640309Y-98058166D01*
X116830785Y-98105785D01*
X116926023Y-98153404D01*
X117021261Y-98248642D01*
X117068880Y-98391500D01*
X117068880Y-98629595D01*
X117068880Y-97105785D02*
X117068880Y-97677214D01*
X117068880Y-97391500D02*
X116068880Y-97391500D01*
X116211738Y-97486738D01*
X116306976Y-97581976D01*
X116354595Y-97677214D01*
G04 #@! TO.C,J5*
X149336166Y-49573380D02*
X149336166Y-50287666D01*
X149288547Y-50430523D01*
X149193309Y-50525761D01*
X149050452Y-50573380D01*
X148955214Y-50573380D01*
X150288547Y-49573380D02*
X149812357Y-49573380D01*
X149764738Y-50049571D01*
X149812357Y-50001952D01*
X149907595Y-49954333D01*
X150145690Y-49954333D01*
X150240928Y-50001952D01*
X150288547Y-50049571D01*
X150336166Y-50144809D01*
X150336166Y-50382904D01*
X150288547Y-50478142D01*
X150240928Y-50525761D01*
X150145690Y-50573380D01*
X149907595Y-50573380D01*
X149812357Y-50525761D01*
X149764738Y-50478142D01*
G04 #@! TO.C,J10*
X105604880Y-61515523D02*
X106319166Y-61515523D01*
X106462023Y-61563142D01*
X106557261Y-61658380D01*
X106604880Y-61801238D01*
X106604880Y-61896476D01*
X106604880Y-60515523D02*
X106604880Y-61086952D01*
X106604880Y-60801238D02*
X105604880Y-60801238D01*
X105747738Y-60896476D01*
X105842976Y-60991714D01*
X105890595Y-61086952D01*
X105604880Y-59896476D02*
X105604880Y-59801238D01*
X105652500Y-59706000D01*
X105700119Y-59658380D01*
X105795357Y-59610761D01*
X105985833Y-59563142D01*
X106223928Y-59563142D01*
X106414404Y-59610761D01*
X106509642Y-59658380D01*
X106557261Y-59706000D01*
X106604880Y-59801238D01*
X106604880Y-59896476D01*
X106557261Y-59991714D01*
X106509642Y-60039333D01*
X106414404Y-60086952D01*
X106223928Y-60134571D01*
X105985833Y-60134571D01*
X105795357Y-60086952D01*
X105700119Y-60039333D01*
X105652500Y-59991714D01*
X105604880Y-59896476D01*
G04 #@! TO.C,R5*
X117068880Y-94756166D02*
X116592690Y-95089500D01*
X117068880Y-95327595D02*
X116068880Y-95327595D01*
X116068880Y-94946642D01*
X116116500Y-94851404D01*
X116164119Y-94803785D01*
X116259357Y-94756166D01*
X116402214Y-94756166D01*
X116497452Y-94803785D01*
X116545071Y-94851404D01*
X116592690Y-94946642D01*
X116592690Y-95327595D01*
X116068880Y-93851404D02*
X116068880Y-94327595D01*
X116545071Y-94375214D01*
X116497452Y-94327595D01*
X116449833Y-94232357D01*
X116449833Y-93994261D01*
X116497452Y-93899023D01*
X116545071Y-93851404D01*
X116640309Y-93803785D01*
X116878404Y-93803785D01*
X116973642Y-93851404D01*
X117021261Y-93899023D01*
X117068880Y-93994261D01*
X117068880Y-94232357D01*
X117021261Y-94327595D01*
X116973642Y-94375214D01*
G04 #@! TO.C,SW1*
X128157453Y-70797571D02*
X128292140Y-70730228D01*
X128460499Y-70561869D01*
X128494171Y-70460854D01*
X128494171Y-70393510D01*
X128460499Y-70292495D01*
X128393156Y-70225152D01*
X128292140Y-70191480D01*
X128224797Y-70191480D01*
X128123782Y-70225152D01*
X127955423Y-70326167D01*
X127854408Y-70359839D01*
X127787064Y-70359839D01*
X127686049Y-70326167D01*
X127618705Y-70258823D01*
X127585034Y-70157808D01*
X127585034Y-70090465D01*
X127618705Y-69989449D01*
X127787064Y-69821091D01*
X127921751Y-69753747D01*
X128123782Y-69484373D02*
X128999247Y-70023121D01*
X128628858Y-69383358D01*
X129268621Y-69753747D01*
X128729873Y-68878282D01*
X130076743Y-68945625D02*
X129672682Y-69349686D01*
X129874713Y-69147656D02*
X129167606Y-68440549D01*
X129201278Y-68608908D01*
X129201278Y-68743595D01*
X129167606Y-68844610D01*
G04 #@! TO.C,SW2*
X142827261Y-62420333D02*
X142874880Y-62277476D01*
X142874880Y-62039380D01*
X142827261Y-61944142D01*
X142779642Y-61896523D01*
X142684404Y-61848904D01*
X142589166Y-61848904D01*
X142493928Y-61896523D01*
X142446309Y-61944142D01*
X142398690Y-62039380D01*
X142351071Y-62229857D01*
X142303452Y-62325095D01*
X142255833Y-62372714D01*
X142160595Y-62420333D01*
X142065357Y-62420333D01*
X141970119Y-62372714D01*
X141922500Y-62325095D01*
X141874880Y-62229857D01*
X141874880Y-61991761D01*
X141922500Y-61848904D01*
X141874880Y-61515571D02*
X142874880Y-61277476D01*
X142160595Y-61087000D01*
X142874880Y-60896523D01*
X141874880Y-60658428D01*
X141970119Y-60325095D02*
X141922500Y-60277476D01*
X141874880Y-60182238D01*
X141874880Y-59944142D01*
X141922500Y-59848904D01*
X141970119Y-59801285D01*
X142065357Y-59753666D01*
X142160595Y-59753666D01*
X142303452Y-59801285D01*
X142874880Y-60372714D01*
X142874880Y-59753666D01*
G04 #@! TO.C,SW3*
X142827261Y-77406333D02*
X142874880Y-77263476D01*
X142874880Y-77025380D01*
X142827261Y-76930142D01*
X142779642Y-76882523D01*
X142684404Y-76834904D01*
X142589166Y-76834904D01*
X142493928Y-76882523D01*
X142446309Y-76930142D01*
X142398690Y-77025380D01*
X142351071Y-77215857D01*
X142303452Y-77311095D01*
X142255833Y-77358714D01*
X142160595Y-77406333D01*
X142065357Y-77406333D01*
X141970119Y-77358714D01*
X141922500Y-77311095D01*
X141874880Y-77215857D01*
X141874880Y-76977761D01*
X141922500Y-76834904D01*
X141874880Y-76501571D02*
X142874880Y-76263476D01*
X142160595Y-76073000D01*
X142874880Y-75882523D01*
X141874880Y-75644428D01*
X141874880Y-75358714D02*
X141874880Y-74739666D01*
X142255833Y-75073000D01*
X142255833Y-74930142D01*
X142303452Y-74834904D01*
X142351071Y-74787285D01*
X142446309Y-74739666D01*
X142684404Y-74739666D01*
X142779642Y-74787285D01*
X142827261Y-74834904D01*
X142874880Y-74930142D01*
X142874880Y-75215857D01*
X142827261Y-75311095D01*
X142779642Y-75358714D01*
G04 #@! TO.C,SW4*
X105283166Y-85375761D02*
X105426023Y-85423380D01*
X105664119Y-85423380D01*
X105759357Y-85375761D01*
X105806976Y-85328142D01*
X105854595Y-85232904D01*
X105854595Y-85137666D01*
X105806976Y-85042428D01*
X105759357Y-84994809D01*
X105664119Y-84947190D01*
X105473642Y-84899571D01*
X105378404Y-84851952D01*
X105330785Y-84804333D01*
X105283166Y-84709095D01*
X105283166Y-84613857D01*
X105330785Y-84518619D01*
X105378404Y-84471000D01*
X105473642Y-84423380D01*
X105711738Y-84423380D01*
X105854595Y-84471000D01*
X106187928Y-84423380D02*
X106426023Y-85423380D01*
X106616500Y-84709095D01*
X106806976Y-85423380D01*
X107045071Y-84423380D01*
X107854595Y-84756714D02*
X107854595Y-85423380D01*
X107616500Y-84375761D02*
X107378404Y-85090047D01*
X107997452Y-85090047D01*
G04 #@! TO.C,J4*
X103235166Y-56539880D02*
X103235166Y-57254166D01*
X103187547Y-57397023D01*
X103092309Y-57492261D01*
X102949452Y-57539880D01*
X102854214Y-57539880D01*
X104139928Y-56873214D02*
X104139928Y-57539880D01*
X103901833Y-56492261D02*
X103663738Y-57206547D01*
X104282785Y-57206547D01*
G04 #@! TO.C,RV1*
X99077880Y-70364238D02*
X98601690Y-70697571D01*
X99077880Y-70935666D02*
X98077880Y-70935666D01*
X98077880Y-70554714D01*
X98125500Y-70459476D01*
X98173119Y-70411857D01*
X98268357Y-70364238D01*
X98411214Y-70364238D01*
X98506452Y-70411857D01*
X98554071Y-70459476D01*
X98601690Y-70554714D01*
X98601690Y-70935666D01*
X98077880Y-70078523D02*
X99077880Y-69745190D01*
X98077880Y-69411857D01*
X99077880Y-68554714D02*
X99077880Y-69126142D01*
X99077880Y-68840428D02*
X98077880Y-68840428D01*
X98220738Y-68935666D01*
X98315976Y-69030904D01*
X98363595Y-69126142D01*
G04 #@! TO.C,D1*
X88288904Y-122587380D02*
X88288904Y-121587380D01*
X88527000Y-121587380D01*
X88669857Y-121635000D01*
X88765095Y-121730238D01*
X88812714Y-121825476D01*
X88860333Y-122015952D01*
X88860333Y-122158809D01*
X88812714Y-122349285D01*
X88765095Y-122444523D01*
X88669857Y-122539761D01*
X88527000Y-122587380D01*
X88288904Y-122587380D01*
X89812714Y-122587380D02*
X89241285Y-122587380D01*
X89527000Y-122587380D02*
X89527000Y-121587380D01*
X89431761Y-121730238D01*
X89336523Y-121825476D01*
X89241285Y-121873095D01*
X92575095Y-122267380D02*
X92575095Y-121267380D01*
X93146523Y-122267380D02*
X92717952Y-121695952D01*
X93146523Y-121267380D02*
X92575095Y-121838809D01*
G04 #@! TO.C,C2*
X93100142Y-115584166D02*
X93147761Y-115631785D01*
X93195380Y-115774642D01*
X93195380Y-115869880D01*
X93147761Y-116012738D01*
X93052523Y-116107976D01*
X92957285Y-116155595D01*
X92766809Y-116203214D01*
X92623952Y-116203214D01*
X92433476Y-116155595D01*
X92338238Y-116107976D01*
X92243000Y-116012738D01*
X92195380Y-115869880D01*
X92195380Y-115774642D01*
X92243000Y-115631785D01*
X92290619Y-115584166D01*
X92290619Y-115203214D02*
X92243000Y-115155595D01*
X92195380Y-115060357D01*
X92195380Y-114822261D01*
X92243000Y-114727023D01*
X92290619Y-114679404D01*
X92385857Y-114631785D01*
X92481095Y-114631785D01*
X92623952Y-114679404D01*
X93195380Y-115250833D01*
X93195380Y-114631785D01*
G04 #@! TO.C,R1*
X91882833Y-124945380D02*
X91549500Y-124469190D01*
X91311404Y-124945380D02*
X91311404Y-123945380D01*
X91692357Y-123945380D01*
X91787595Y-123993000D01*
X91835214Y-124040619D01*
X91882833Y-124135857D01*
X91882833Y-124278714D01*
X91835214Y-124373952D01*
X91787595Y-124421571D01*
X91692357Y-124469190D01*
X91311404Y-124469190D01*
X92835214Y-124945380D02*
X92263785Y-124945380D01*
X92549500Y-124945380D02*
X92549500Y-123945380D01*
X92454261Y-124088238D01*
X92359023Y-124183476D01*
X92263785Y-124231095D01*
G04 #@! TO.C,J2*
X81899380Y-112220333D02*
X82613666Y-112220333D01*
X82756523Y-112267952D01*
X82851761Y-112363190D01*
X82899380Y-112506047D01*
X82899380Y-112601285D01*
X81994619Y-111791761D02*
X81947000Y-111744142D01*
X81899380Y-111648904D01*
X81899380Y-111410809D01*
X81947000Y-111315571D01*
X81994619Y-111267952D01*
X82089857Y-111220333D01*
X82185095Y-111220333D01*
X82327952Y-111267952D01*
X82899380Y-111839380D01*
X82899380Y-111220333D01*
G04 #@! TO.C,J1*
X79295880Y-78946333D02*
X80010166Y-78946333D01*
X80153023Y-78993952D01*
X80248261Y-79089190D01*
X80295880Y-79232047D01*
X80295880Y-79327285D01*
X80295880Y-77946333D02*
X80295880Y-78517761D01*
X80295880Y-78232047D02*
X79295880Y-78232047D01*
X79438738Y-78327285D01*
X79533976Y-78422523D01*
X79581595Y-78517761D01*
G04 #@! TO.C,J2*
X93197880Y-73612333D02*
X93912166Y-73612333D01*
X94055023Y-73659952D01*
X94150261Y-73755190D01*
X94197880Y-73898047D01*
X94197880Y-73993285D01*
X93293119Y-73183761D02*
X93245500Y-73136142D01*
X93197880Y-73040904D01*
X93197880Y-72802809D01*
X93245500Y-72707571D01*
X93293119Y-72659952D01*
X93388357Y-72612333D01*
X93483595Y-72612333D01*
X93626452Y-72659952D01*
X94197880Y-73231380D01*
X94197880Y-72612333D01*
G04 #@! TO.C,J4*
X87863880Y-59642333D02*
X88578166Y-59642333D01*
X88721023Y-59689952D01*
X88816261Y-59785190D01*
X88863880Y-59928047D01*
X88863880Y-60023285D01*
X88197214Y-58737571D02*
X88863880Y-58737571D01*
X87816261Y-58975666D02*
X88530547Y-59213761D01*
X88530547Y-58594714D01*
G04 #@! TO.C,J6*
X88117880Y-73612333D02*
X88832166Y-73612333D01*
X88975023Y-73659952D01*
X89070261Y-73755190D01*
X89117880Y-73898047D01*
X89117880Y-73993285D01*
X88117880Y-72707571D02*
X88117880Y-72898047D01*
X88165500Y-72993285D01*
X88213119Y-73040904D01*
X88355976Y-73136142D01*
X88546452Y-73183761D01*
X88927404Y-73183761D01*
X89022642Y-73136142D01*
X89070261Y-73088523D01*
X89117880Y-72993285D01*
X89117880Y-72802809D01*
X89070261Y-72707571D01*
X89022642Y-72659952D01*
X88927404Y-72612333D01*
X88689309Y-72612333D01*
X88594071Y-72659952D01*
X88546452Y-72707571D01*
X88498833Y-72802809D01*
X88498833Y-72993285D01*
X88546452Y-73088523D01*
X88594071Y-73136142D01*
X88689309Y-73183761D01*
G04 #@! TO.C,J8*
X94995880Y-54816333D02*
X95710166Y-54816333D01*
X95853023Y-54863952D01*
X95948261Y-54959190D01*
X95995880Y-55102047D01*
X95995880Y-55197285D01*
X95424452Y-54197285D02*
X95376833Y-54292523D01*
X95329214Y-54340142D01*
X95233976Y-54387761D01*
X95186357Y-54387761D01*
X95091119Y-54340142D01*
X95043500Y-54292523D01*
X94995880Y-54197285D01*
X94995880Y-54006809D01*
X95043500Y-53911571D01*
X95091119Y-53863952D01*
X95186357Y-53816333D01*
X95233976Y-53816333D01*
X95329214Y-53863952D01*
X95376833Y-53911571D01*
X95424452Y-54006809D01*
X95424452Y-54197285D01*
X95472071Y-54292523D01*
X95519690Y-54340142D01*
X95614928Y-54387761D01*
X95805404Y-54387761D01*
X95900642Y-54340142D01*
X95948261Y-54292523D01*
X95995880Y-54197285D01*
X95995880Y-54006809D01*
X95948261Y-53911571D01*
X95900642Y-53863952D01*
X95805404Y-53816333D01*
X95614928Y-53816333D01*
X95519690Y-53863952D01*
X95472071Y-53911571D01*
X95424452Y-54006809D01*
G04 #@! TO.C,J7*
X76469880Y-72088333D02*
X77184166Y-72088333D01*
X77327023Y-72135952D01*
X77422261Y-72231190D01*
X77469880Y-72374047D01*
X77469880Y-72469285D01*
X76469880Y-71707380D02*
X76469880Y-71040714D01*
X77469880Y-71469285D01*
G04 #@! TO.C,J5*
X76469880Y-61547333D02*
X77184166Y-61547333D01*
X77327023Y-61594952D01*
X77422261Y-61690190D01*
X77469880Y-61833047D01*
X77469880Y-61928285D01*
X76469880Y-60594952D02*
X76469880Y-61071142D01*
X76946071Y-61118761D01*
X76898452Y-61071142D01*
X76850833Y-60975904D01*
X76850833Y-60737809D01*
X76898452Y-60642571D01*
X76946071Y-60594952D01*
X77041309Y-60547333D01*
X77279404Y-60547333D01*
X77374642Y-60594952D01*
X77422261Y-60642571D01*
X77469880Y-60737809D01*
X77469880Y-60975904D01*
X77422261Y-61071142D01*
X77374642Y-61118761D01*
G04 #@! TO.C,J3*
X100488880Y-66754333D02*
X101203166Y-66754333D01*
X101346023Y-66801952D01*
X101441261Y-66897190D01*
X101488880Y-67040047D01*
X101488880Y-67135285D01*
X100488880Y-66373380D02*
X100488880Y-65754333D01*
X100869833Y-66087666D01*
X100869833Y-65944809D01*
X100917452Y-65849571D01*
X100965071Y-65801952D01*
X101060309Y-65754333D01*
X101298404Y-65754333D01*
X101393642Y-65801952D01*
X101441261Y-65849571D01*
X101488880Y-65944809D01*
X101488880Y-66230523D01*
X101441261Y-66325761D01*
X101393642Y-66373380D01*
G04 #@! TO.C,J1*
X79295880Y-108791333D02*
X80010166Y-108791333D01*
X80153023Y-108838952D01*
X80248261Y-108934190D01*
X80295880Y-109077047D01*
X80295880Y-109172285D01*
X80295880Y-107791333D02*
X80295880Y-108362761D01*
X80295880Y-108077047D02*
X79295880Y-108077047D01*
X79438738Y-108172285D01*
X79533976Y-108267523D01*
X79581595Y-108362761D01*
G04 #@! TO.C,J2*
X93197880Y-103457333D02*
X93912166Y-103457333D01*
X94055023Y-103504952D01*
X94150261Y-103600190D01*
X94197880Y-103743047D01*
X94197880Y-103838285D01*
X93293119Y-103028761D02*
X93245500Y-102981142D01*
X93197880Y-102885904D01*
X93197880Y-102647809D01*
X93245500Y-102552571D01*
X93293119Y-102504952D01*
X93388357Y-102457333D01*
X93483595Y-102457333D01*
X93626452Y-102504952D01*
X94197880Y-103076380D01*
X94197880Y-102457333D01*
G04 #@! TO.C,J4*
X87863880Y-89487333D02*
X88578166Y-89487333D01*
X88721023Y-89534952D01*
X88816261Y-89630190D01*
X88863880Y-89773047D01*
X88863880Y-89868285D01*
X88197214Y-88582571D02*
X88863880Y-88582571D01*
X87816261Y-88820666D02*
X88530547Y-89058761D01*
X88530547Y-88439714D01*
G04 #@! TO.C,J6*
X88117880Y-103457333D02*
X88832166Y-103457333D01*
X88975023Y-103504952D01*
X89070261Y-103600190D01*
X89117880Y-103743047D01*
X89117880Y-103838285D01*
X88117880Y-102552571D02*
X88117880Y-102743047D01*
X88165500Y-102838285D01*
X88213119Y-102885904D01*
X88355976Y-102981142D01*
X88546452Y-103028761D01*
X88927404Y-103028761D01*
X89022642Y-102981142D01*
X89070261Y-102933523D01*
X89117880Y-102838285D01*
X89117880Y-102647809D01*
X89070261Y-102552571D01*
X89022642Y-102504952D01*
X88927404Y-102457333D01*
X88689309Y-102457333D01*
X88594071Y-102504952D01*
X88546452Y-102552571D01*
X88498833Y-102647809D01*
X88498833Y-102838285D01*
X88546452Y-102933523D01*
X88594071Y-102981142D01*
X88689309Y-103028761D01*
G04 #@! TO.C,J8*
X94995880Y-84661333D02*
X95710166Y-84661333D01*
X95853023Y-84708952D01*
X95948261Y-84804190D01*
X95995880Y-84947047D01*
X95995880Y-85042285D01*
X95424452Y-84042285D02*
X95376833Y-84137523D01*
X95329214Y-84185142D01*
X95233976Y-84232761D01*
X95186357Y-84232761D01*
X95091119Y-84185142D01*
X95043500Y-84137523D01*
X94995880Y-84042285D01*
X94995880Y-83851809D01*
X95043500Y-83756571D01*
X95091119Y-83708952D01*
X95186357Y-83661333D01*
X95233976Y-83661333D01*
X95329214Y-83708952D01*
X95376833Y-83756571D01*
X95424452Y-83851809D01*
X95424452Y-84042285D01*
X95472071Y-84137523D01*
X95519690Y-84185142D01*
X95614928Y-84232761D01*
X95805404Y-84232761D01*
X95900642Y-84185142D01*
X95948261Y-84137523D01*
X95995880Y-84042285D01*
X95995880Y-83851809D01*
X95948261Y-83756571D01*
X95900642Y-83708952D01*
X95805404Y-83661333D01*
X95614928Y-83661333D01*
X95519690Y-83708952D01*
X95472071Y-83756571D01*
X95424452Y-83851809D01*
G04 #@! TO.C,J7*
X76469880Y-101933333D02*
X77184166Y-101933333D01*
X77327023Y-101980952D01*
X77422261Y-102076190D01*
X77469880Y-102219047D01*
X77469880Y-102314285D01*
X76469880Y-101552380D02*
X76469880Y-100885714D01*
X77469880Y-101314285D01*
G04 #@! TO.C,J5*
X76469880Y-91392333D02*
X77184166Y-91392333D01*
X77327023Y-91439952D01*
X77422261Y-91535190D01*
X77469880Y-91678047D01*
X77469880Y-91773285D01*
X76469880Y-90439952D02*
X76469880Y-90916142D01*
X76946071Y-90963761D01*
X76898452Y-90916142D01*
X76850833Y-90820904D01*
X76850833Y-90582809D01*
X76898452Y-90487571D01*
X76946071Y-90439952D01*
X77041309Y-90392333D01*
X77279404Y-90392333D01*
X77374642Y-90439952D01*
X77422261Y-90487571D01*
X77469880Y-90582809D01*
X77469880Y-90820904D01*
X77422261Y-90916142D01*
X77374642Y-90963761D01*
G04 #@! TO.C,J3*
X100488880Y-96599333D02*
X101203166Y-96599333D01*
X101346023Y-96646952D01*
X101441261Y-96742190D01*
X101488880Y-96885047D01*
X101488880Y-96980285D01*
X100488880Y-96218380D02*
X100488880Y-95599333D01*
X100869833Y-95932666D01*
X100869833Y-95789809D01*
X100917452Y-95694571D01*
X100965071Y-95646952D01*
X101060309Y-95599333D01*
X101298404Y-95599333D01*
X101393642Y-95646952D01*
X101441261Y-95694571D01*
X101488880Y-95789809D01*
X101488880Y-96075523D01*
X101441261Y-96170761D01*
X101393642Y-96218380D01*
G04 #@! TO.C,D1*
X108735904Y-122587380D02*
X108735904Y-121587380D01*
X108974000Y-121587380D01*
X109116857Y-121635000D01*
X109212095Y-121730238D01*
X109259714Y-121825476D01*
X109307333Y-122015952D01*
X109307333Y-122158809D01*
X109259714Y-122349285D01*
X109212095Y-122444523D01*
X109116857Y-122539761D01*
X108974000Y-122587380D01*
X108735904Y-122587380D01*
X110259714Y-122587380D02*
X109688285Y-122587380D01*
X109974000Y-122587380D02*
X109974000Y-121587380D01*
X109878761Y-121730238D01*
X109783523Y-121825476D01*
X109688285Y-121873095D01*
X113022095Y-122267380D02*
X113022095Y-121267380D01*
X113593523Y-122267380D02*
X113164952Y-121695952D01*
X113593523Y-121267380D02*
X113022095Y-121838809D01*
G04 #@! TO.C,C2*
X113547142Y-115584166D02*
X113594761Y-115631785D01*
X113642380Y-115774642D01*
X113642380Y-115869880D01*
X113594761Y-116012738D01*
X113499523Y-116107976D01*
X113404285Y-116155595D01*
X113213809Y-116203214D01*
X113070952Y-116203214D01*
X112880476Y-116155595D01*
X112785238Y-116107976D01*
X112690000Y-116012738D01*
X112642380Y-115869880D01*
X112642380Y-115774642D01*
X112690000Y-115631785D01*
X112737619Y-115584166D01*
X112737619Y-115203214D02*
X112690000Y-115155595D01*
X112642380Y-115060357D01*
X112642380Y-114822261D01*
X112690000Y-114727023D01*
X112737619Y-114679404D01*
X112832857Y-114631785D01*
X112928095Y-114631785D01*
X113070952Y-114679404D01*
X113642380Y-115250833D01*
X113642380Y-114631785D01*
G04 #@! TO.C,R1*
X112329833Y-124945380D02*
X111996500Y-124469190D01*
X111758404Y-124945380D02*
X111758404Y-123945380D01*
X112139357Y-123945380D01*
X112234595Y-123993000D01*
X112282214Y-124040619D01*
X112329833Y-124135857D01*
X112329833Y-124278714D01*
X112282214Y-124373952D01*
X112234595Y-124421571D01*
X112139357Y-124469190D01*
X111758404Y-124469190D01*
X113282214Y-124945380D02*
X112710785Y-124945380D01*
X112996500Y-124945380D02*
X112996500Y-123945380D01*
X112901261Y-124088238D01*
X112806023Y-124183476D01*
X112710785Y-124231095D01*
G04 #@! TO.C,J2*
X102346380Y-112220333D02*
X103060666Y-112220333D01*
X103203523Y-112267952D01*
X103298761Y-112363190D01*
X103346380Y-112506047D01*
X103346380Y-112601285D01*
X102441619Y-111791761D02*
X102394000Y-111744142D01*
X102346380Y-111648904D01*
X102346380Y-111410809D01*
X102394000Y-111315571D01*
X102441619Y-111267952D01*
X102536857Y-111220333D01*
X102632095Y-111220333D01*
X102774952Y-111267952D01*
X103346380Y-111839380D01*
X103346380Y-111220333D01*
G04 #@! TD*
M02*
