G04 #@! TF.GenerationSoftware,KiCad,Pcbnew,(5.0.2)-1*
G04 #@! TF.CreationDate,2019-02-15T13:53:22+00:00*
G04 #@! TF.ProjectId,panel,70616e65-6c2e-46b6-9963-61645f706362,rev?*
G04 #@! TF.SameCoordinates,Original*
G04 #@! TF.FileFunction,Legend,Bot*
G04 #@! TF.FilePolarity,Positive*
%FSLAX46Y46*%
G04 Gerber Fmt 4.6, Leading zero omitted, Abs format (unit mm)*
G04 Created by KiCad (PCBNEW (5.0.2)-1) date 15/02/2019 13:53:22*
%MOMM*%
%LPD*%
G01*
G04 APERTURE LIST*
%ADD10C,0.120000*%
%ADD11C,0.150000*%
G04 APERTURE END LIST*
D10*
G04 #@! TO.C,J1*
X114684500Y-76267000D02*
X117344500Y-76267000D01*
X114684500Y-86487000D02*
X114684500Y-76267000D01*
X117344500Y-86487000D02*
X117344500Y-76267000D01*
X114684500Y-86487000D02*
X117344500Y-86487000D01*
X114684500Y-87757000D02*
X114684500Y-89087000D01*
X114684500Y-89087000D02*
X116014500Y-89087000D01*
G04 #@! TO.C,4k1*
X149032500Y-65542279D02*
X149032500Y-65216721D01*
X150052500Y-65542279D02*
X150052500Y-65216721D01*
G04 #@! TO.C,4k2*
X150052500Y-80528279D02*
X150052500Y-80202721D01*
X149032500Y-80528279D02*
X149032500Y-80202721D01*
G04 #@! TO.C,4k3*
X147512500Y-80528279D02*
X147512500Y-80202721D01*
X146492500Y-80528279D02*
X146492500Y-80202721D01*
G04 #@! TO.C,4k7*
X147512500Y-65542279D02*
X147512500Y-65216721D01*
X146492500Y-65542279D02*
X146492500Y-65216721D01*
G04 #@! TO.C,C1*
X102931500Y-82484279D02*
X102931500Y-82158721D01*
X103951500Y-82484279D02*
X103951500Y-82158721D01*
G04 #@! TO.C,C2*
X103951500Y-79512279D02*
X103951500Y-79186721D01*
X102931500Y-79512279D02*
X102931500Y-79186721D01*
G04 #@! TO.C,C3*
X106169779Y-90549000D02*
X105844221Y-90549000D01*
X106169779Y-91569000D02*
X105844221Y-91569000D01*
G04 #@! TO.C,C6*
X151830500Y-65267721D02*
X151830500Y-65593279D01*
X150810500Y-65267721D02*
X150810500Y-65593279D01*
G04 #@! TO.C,C7*
X145607500Y-65542279D02*
X145607500Y-65216721D01*
X144587500Y-65542279D02*
X144587500Y-65216721D01*
G04 #@! TO.C,C8*
X151830500Y-80228221D02*
X151830500Y-80553779D01*
X150810500Y-80228221D02*
X150810500Y-80553779D01*
G04 #@! TO.C,C9*
X145734500Y-80528279D02*
X145734500Y-80202721D01*
X144714500Y-80528279D02*
X144714500Y-80202721D01*
G04 #@! TO.C,C10*
X109984221Y-62359000D02*
X110309779Y-62359000D01*
X109984221Y-61339000D02*
X110309779Y-61339000D01*
G04 #@! TO.C,C11*
X109954279Y-52072000D02*
X109628721Y-52072000D01*
X109954279Y-51052000D02*
X109628721Y-51052000D01*
G04 #@! TO.C,J2*
X107184500Y-107629000D02*
X104524500Y-107629000D01*
X107184500Y-94869000D02*
X107184500Y-107629000D01*
X104524500Y-94869000D02*
X104524500Y-107629000D01*
X107184500Y-94869000D02*
X104524500Y-94869000D01*
X107184500Y-93599000D02*
X107184500Y-92269000D01*
X107184500Y-92269000D02*
X105854500Y-92269000D01*
G04 #@! TO.C,R1*
X123255500Y-63591221D02*
X123255500Y-63916779D01*
X122235500Y-63591221D02*
X122235500Y-63916779D01*
G04 #@! TO.C,R2*
X127950500Y-61533721D02*
X127950500Y-61859279D01*
X128970500Y-61533721D02*
X128970500Y-61859279D01*
G04 #@! TO.C,R3*
X128597779Y-68201000D02*
X128272221Y-68201000D01*
X128597779Y-67181000D02*
X128272221Y-67181000D01*
G04 #@! TO.C,R4*
X133284500Y-63438721D02*
X133284500Y-63764279D01*
X134304500Y-63438721D02*
X134304500Y-63764279D01*
G04 #@! TO.C,Y1*
X104315500Y-97153000D02*
X104315500Y-90753000D01*
X99265500Y-97153000D02*
X99265500Y-90753000D01*
X99265500Y-97153000D02*
G75*
G03X104315500Y-97153000I2525000J0D01*
G01*
X99265500Y-90753000D02*
G75*
G02X104315500Y-90753000I2525000J0D01*
G01*
D11*
G04 #@! TO.C,U2*
X125585500Y-76850000D02*
X125585500Y-76500000D01*
X131335500Y-76850000D02*
X131335500Y-76400000D01*
X131335500Y-69200000D02*
X131335500Y-69650000D01*
X125585500Y-69200000D02*
X125585500Y-69650000D01*
X125585500Y-76850000D02*
X131335500Y-76850000D01*
X125585500Y-69200000D02*
X131335500Y-69200000D01*
X125585500Y-76500000D02*
X123985500Y-76500000D01*
D10*
G04 #@! TO.C,C4*
X137411779Y-80643000D02*
X137086221Y-80643000D01*
X137411779Y-81663000D02*
X137086221Y-81663000D01*
G04 #@! TO.C,R6*
X131980721Y-81663000D02*
X132306279Y-81663000D01*
X131980721Y-80643000D02*
X132306279Y-80643000D01*
G04 #@! TO.C,U3*
X137791500Y-86376000D02*
G75*
G03X137791500Y-88376000I0J-1000000D01*
G01*
X137791500Y-88376000D02*
X137791500Y-90026000D01*
X137791500Y-90026000D02*
X127511500Y-90026000D01*
X127511500Y-90026000D02*
X127511500Y-84726000D01*
X127511500Y-84726000D02*
X137791500Y-84726000D01*
X137791500Y-84726000D02*
X137791500Y-86376000D01*
X137851500Y-92516000D02*
X127451500Y-92516000D01*
X127451500Y-92516000D02*
X127451500Y-82236000D01*
X127451500Y-82236000D02*
X137851500Y-82236000D01*
X137851500Y-82236000D02*
X137851500Y-92516000D01*
G04 #@! TO.C,J3*
X128654500Y-94809000D02*
X131314500Y-94809000D01*
X128654500Y-102489000D02*
X128654500Y-94809000D01*
X131314500Y-102489000D02*
X131314500Y-94809000D01*
X128654500Y-102489000D02*
X131314500Y-102489000D01*
X128654500Y-103759000D02*
X128654500Y-105089000D01*
X128654500Y-105089000D02*
X129984500Y-105089000D01*
G04 #@! TO.C,U4*
X112680500Y-61889000D02*
X112680500Y-51649000D01*
X108039500Y-61889000D02*
X108039500Y-51649000D01*
X112680500Y-61889000D02*
X108039500Y-61889000D01*
X112680500Y-51649000D02*
X108039500Y-51649000D01*
X111170500Y-61889000D02*
X111170500Y-51649000D01*
X112680500Y-58619000D02*
X111170500Y-58619000D01*
X112680500Y-54918000D02*
X111170500Y-54918000D01*
D11*
G04 #@! TO.C,U1*
X105957500Y-82447000D02*
X105957500Y-82222000D01*
X109307500Y-82447000D02*
X109307500Y-82147000D01*
X109307500Y-79097000D02*
X109307500Y-79397000D01*
X105957500Y-79097000D02*
X105957500Y-79397000D01*
X105957500Y-82447000D02*
X109307500Y-82447000D01*
X105957500Y-79097000D02*
X109307500Y-79097000D01*
X105957500Y-82222000D02*
X104732500Y-82222000D01*
G04 #@! TO.C,J1*
X99187000Y-113919000D02*
X78867000Y-113919000D01*
X78867000Y-113919000D02*
X78867000Y-126365000D01*
X78867000Y-126365000D02*
X99187000Y-126365000D01*
X99187000Y-126365000D02*
X99187000Y-113919000D01*
X99187000Y-124587000D02*
X78867000Y-124587000D01*
D10*
G04 #@! TO.C,J9*
X94103500Y-49995000D02*
X83823500Y-49995000D01*
X83823500Y-49995000D02*
X83823500Y-47335000D01*
X83823500Y-47335000D02*
X94103500Y-47335000D01*
X94103500Y-47335000D02*
X94103500Y-49995000D01*
X93153500Y-47335000D02*
X93153500Y-41335000D01*
X93153500Y-41335000D02*
X92393500Y-41335000D01*
X92393500Y-41335000D02*
X92393500Y-47335000D01*
X93093500Y-47335000D02*
X93093500Y-41335000D01*
X92973500Y-47335000D02*
X92973500Y-41335000D01*
X92853500Y-47335000D02*
X92853500Y-41335000D01*
X92733500Y-47335000D02*
X92733500Y-41335000D01*
X92613500Y-47335000D02*
X92613500Y-41335000D01*
X92493500Y-47335000D02*
X92493500Y-41335000D01*
X93153500Y-50325000D02*
X93153500Y-49995000D01*
X92393500Y-50325000D02*
X92393500Y-49995000D01*
X91503500Y-49995000D02*
X91503500Y-47335000D01*
X90613500Y-47335000D02*
X90613500Y-41335000D01*
X90613500Y-41335000D02*
X89853500Y-41335000D01*
X89853500Y-41335000D02*
X89853500Y-47335000D01*
X90613500Y-50392071D02*
X90613500Y-49995000D01*
X89853500Y-50392071D02*
X89853500Y-49995000D01*
X88963500Y-49995000D02*
X88963500Y-47335000D01*
X88073500Y-47335000D02*
X88073500Y-41335000D01*
X88073500Y-41335000D02*
X87313500Y-41335000D01*
X87313500Y-41335000D02*
X87313500Y-47335000D01*
X88073500Y-50392071D02*
X88073500Y-49995000D01*
X87313500Y-50392071D02*
X87313500Y-49995000D01*
X86423500Y-49995000D02*
X86423500Y-47335000D01*
X85533500Y-47335000D02*
X85533500Y-41335000D01*
X85533500Y-41335000D02*
X84773500Y-41335000D01*
X84773500Y-41335000D02*
X84773500Y-47335000D01*
X85533500Y-50392071D02*
X85533500Y-49995000D01*
X84773500Y-50392071D02*
X84773500Y-49995000D01*
X92773500Y-52705000D02*
X94043500Y-52705000D01*
X94043500Y-52705000D02*
X94043500Y-51435000D01*
X94103500Y-79840000D02*
X83823500Y-79840000D01*
X83823500Y-79840000D02*
X83823500Y-77180000D01*
X83823500Y-77180000D02*
X94103500Y-77180000D01*
X94103500Y-77180000D02*
X94103500Y-79840000D01*
X93153500Y-77180000D02*
X93153500Y-71180000D01*
X93153500Y-71180000D02*
X92393500Y-71180000D01*
X92393500Y-71180000D02*
X92393500Y-77180000D01*
X93093500Y-77180000D02*
X93093500Y-71180000D01*
X92973500Y-77180000D02*
X92973500Y-71180000D01*
X92853500Y-77180000D02*
X92853500Y-71180000D01*
X92733500Y-77180000D02*
X92733500Y-71180000D01*
X92613500Y-77180000D02*
X92613500Y-71180000D01*
X92493500Y-77180000D02*
X92493500Y-71180000D01*
X93153500Y-80170000D02*
X93153500Y-79840000D01*
X92393500Y-80170000D02*
X92393500Y-79840000D01*
X91503500Y-79840000D02*
X91503500Y-77180000D01*
X90613500Y-77180000D02*
X90613500Y-71180000D01*
X90613500Y-71180000D02*
X89853500Y-71180000D01*
X89853500Y-71180000D02*
X89853500Y-77180000D01*
X90613500Y-80237071D02*
X90613500Y-79840000D01*
X89853500Y-80237071D02*
X89853500Y-79840000D01*
X88963500Y-79840000D02*
X88963500Y-77180000D01*
X88073500Y-77180000D02*
X88073500Y-71180000D01*
X88073500Y-71180000D02*
X87313500Y-71180000D01*
X87313500Y-71180000D02*
X87313500Y-77180000D01*
X88073500Y-80237071D02*
X88073500Y-79840000D01*
X87313500Y-80237071D02*
X87313500Y-79840000D01*
X86423500Y-79840000D02*
X86423500Y-77180000D01*
X85533500Y-77180000D02*
X85533500Y-71180000D01*
X85533500Y-71180000D02*
X84773500Y-71180000D01*
X84773500Y-71180000D02*
X84773500Y-77180000D01*
X85533500Y-80237071D02*
X85533500Y-79840000D01*
X84773500Y-80237071D02*
X84773500Y-79840000D01*
X92773500Y-82550000D02*
X94043500Y-82550000D01*
X94043500Y-82550000D02*
X94043500Y-81280000D01*
D11*
G04 #@! TO.C,J1*
X119634000Y-113919000D02*
X99314000Y-113919000D01*
X99314000Y-113919000D02*
X99314000Y-126365000D01*
X99314000Y-126365000D02*
X119634000Y-126365000D01*
X119634000Y-126365000D02*
X119634000Y-113919000D01*
X119634000Y-124587000D02*
X99314000Y-124587000D01*
X116347833Y-89539380D02*
X116347833Y-90253666D01*
X116395452Y-90396523D01*
X116490690Y-90491761D01*
X116633547Y-90539380D01*
X116728785Y-90539380D01*
X115347833Y-90539380D02*
X115919261Y-90539380D01*
X115633547Y-90539380D02*
X115633547Y-89539380D01*
X115728785Y-89682238D01*
X115824023Y-89777476D01*
X115919261Y-89825095D01*
G04 #@! TO.C,4k1*
X150758214Y-64689023D02*
X151424880Y-64689023D01*
X150377261Y-64450928D02*
X151091547Y-64212833D01*
X151091547Y-64831880D01*
X151424880Y-65212833D02*
X150424880Y-65212833D01*
X151043928Y-65308071D02*
X151424880Y-65593785D01*
X150758214Y-65593785D02*
X151139166Y-65212833D01*
X151424880Y-66546166D02*
X151424880Y-65974738D01*
X151424880Y-66260452D02*
X150424880Y-66260452D01*
X150567738Y-66165214D01*
X150662976Y-66069976D01*
X150710595Y-65974738D01*
G04 #@! TO.C,4k2*
X150758214Y-79675023D02*
X151424880Y-79675023D01*
X150377261Y-79436928D02*
X151091547Y-79198833D01*
X151091547Y-79817880D01*
X151424880Y-80198833D02*
X150424880Y-80198833D01*
X151043928Y-80294071D02*
X151424880Y-80579785D01*
X150758214Y-80579785D02*
X151139166Y-80198833D01*
X150520119Y-80960738D02*
X150472500Y-81008357D01*
X150424880Y-81103595D01*
X150424880Y-81341690D01*
X150472500Y-81436928D01*
X150520119Y-81484547D01*
X150615357Y-81532166D01*
X150710595Y-81532166D01*
X150853452Y-81484547D01*
X151424880Y-80913119D01*
X151424880Y-81532166D01*
G04 #@! TO.C,4k3*
X148218214Y-79675023D02*
X148884880Y-79675023D01*
X147837261Y-79436928D02*
X148551547Y-79198833D01*
X148551547Y-79817880D01*
X148884880Y-80198833D02*
X147884880Y-80198833D01*
X148503928Y-80294071D02*
X148884880Y-80579785D01*
X148218214Y-80579785D02*
X148599166Y-80198833D01*
X147884880Y-80913119D02*
X147884880Y-81532166D01*
X148265833Y-81198833D01*
X148265833Y-81341690D01*
X148313452Y-81436928D01*
X148361071Y-81484547D01*
X148456309Y-81532166D01*
X148694404Y-81532166D01*
X148789642Y-81484547D01*
X148837261Y-81436928D01*
X148884880Y-81341690D01*
X148884880Y-81055976D01*
X148837261Y-80960738D01*
X148789642Y-80913119D01*
G04 #@! TO.C,4k7*
X148218214Y-64689023D02*
X148884880Y-64689023D01*
X147837261Y-64450928D02*
X148551547Y-64212833D01*
X148551547Y-64831880D01*
X148884880Y-65212833D02*
X147884880Y-65212833D01*
X148503928Y-65308071D02*
X148884880Y-65593785D01*
X148218214Y-65593785D02*
X148599166Y-65212833D01*
X147884880Y-65927119D02*
X147884880Y-66593785D01*
X148884880Y-66165214D01*
G04 #@! TO.C,C1*
X105228642Y-82154833D02*
X105276261Y-82107214D01*
X105323880Y-81964357D01*
X105323880Y-81869119D01*
X105276261Y-81726261D01*
X105181023Y-81631023D01*
X105085785Y-81583404D01*
X104895309Y-81535785D01*
X104752452Y-81535785D01*
X104561976Y-81583404D01*
X104466738Y-81631023D01*
X104371500Y-81726261D01*
X104323880Y-81869119D01*
X104323880Y-81964357D01*
X104371500Y-82107214D01*
X104419119Y-82154833D01*
X105323880Y-83107214D02*
X105323880Y-82535785D01*
X105323880Y-82821500D02*
X104323880Y-82821500D01*
X104466738Y-82726261D01*
X104561976Y-82631023D01*
X104609595Y-82535785D01*
G04 #@! TO.C,C2*
X105228642Y-79182833D02*
X105276261Y-79135214D01*
X105323880Y-78992357D01*
X105323880Y-78897119D01*
X105276261Y-78754261D01*
X105181023Y-78659023D01*
X105085785Y-78611404D01*
X104895309Y-78563785D01*
X104752452Y-78563785D01*
X104561976Y-78611404D01*
X104466738Y-78659023D01*
X104371500Y-78754261D01*
X104323880Y-78897119D01*
X104323880Y-78992357D01*
X104371500Y-79135214D01*
X104419119Y-79182833D01*
X104419119Y-79563785D02*
X104371500Y-79611404D01*
X104323880Y-79706642D01*
X104323880Y-79944738D01*
X104371500Y-80039976D01*
X104419119Y-80087595D01*
X104514357Y-80135214D01*
X104609595Y-80135214D01*
X104752452Y-80087595D01*
X105323880Y-79516166D01*
X105323880Y-80135214D01*
G04 #@! TO.C,C3*
X106173666Y-89986142D02*
X106221285Y-90033761D01*
X106364142Y-90081380D01*
X106459380Y-90081380D01*
X106602238Y-90033761D01*
X106697476Y-89938523D01*
X106745095Y-89843285D01*
X106792714Y-89652809D01*
X106792714Y-89509952D01*
X106745095Y-89319476D01*
X106697476Y-89224238D01*
X106602238Y-89129000D01*
X106459380Y-89081380D01*
X106364142Y-89081380D01*
X106221285Y-89129000D01*
X106173666Y-89176619D01*
X105840333Y-89081380D02*
X105221285Y-89081380D01*
X105554619Y-89462333D01*
X105411761Y-89462333D01*
X105316523Y-89509952D01*
X105268904Y-89557571D01*
X105221285Y-89652809D01*
X105221285Y-89890904D01*
X105268904Y-89986142D01*
X105316523Y-90033761D01*
X105411761Y-90081380D01*
X105697476Y-90081380D01*
X105792714Y-90033761D01*
X105840333Y-89986142D01*
G04 #@! TO.C,C6*
X150247642Y-65263833D02*
X150295261Y-65216214D01*
X150342880Y-65073357D01*
X150342880Y-64978119D01*
X150295261Y-64835261D01*
X150200023Y-64740023D01*
X150104785Y-64692404D01*
X149914309Y-64644785D01*
X149771452Y-64644785D01*
X149580976Y-64692404D01*
X149485738Y-64740023D01*
X149390500Y-64835261D01*
X149342880Y-64978119D01*
X149342880Y-65073357D01*
X149390500Y-65216214D01*
X149438119Y-65263833D01*
X149342880Y-66120976D02*
X149342880Y-65930500D01*
X149390500Y-65835261D01*
X149438119Y-65787642D01*
X149580976Y-65692404D01*
X149771452Y-65644785D01*
X150152404Y-65644785D01*
X150247642Y-65692404D01*
X150295261Y-65740023D01*
X150342880Y-65835261D01*
X150342880Y-66025738D01*
X150295261Y-66120976D01*
X150247642Y-66168595D01*
X150152404Y-66216214D01*
X149914309Y-66216214D01*
X149819071Y-66168595D01*
X149771452Y-66120976D01*
X149723833Y-66025738D01*
X149723833Y-65835261D01*
X149771452Y-65740023D01*
X149819071Y-65692404D01*
X149914309Y-65644785D01*
G04 #@! TO.C,C7*
X146884642Y-65212833D02*
X146932261Y-65165214D01*
X146979880Y-65022357D01*
X146979880Y-64927119D01*
X146932261Y-64784261D01*
X146837023Y-64689023D01*
X146741785Y-64641404D01*
X146551309Y-64593785D01*
X146408452Y-64593785D01*
X146217976Y-64641404D01*
X146122738Y-64689023D01*
X146027500Y-64784261D01*
X145979880Y-64927119D01*
X145979880Y-65022357D01*
X146027500Y-65165214D01*
X146075119Y-65212833D01*
X145979880Y-65546166D02*
X145979880Y-66212833D01*
X146979880Y-65784261D01*
G04 #@! TO.C,C8*
X150247642Y-80224333D02*
X150295261Y-80176714D01*
X150342880Y-80033857D01*
X150342880Y-79938619D01*
X150295261Y-79795761D01*
X150200023Y-79700523D01*
X150104785Y-79652904D01*
X149914309Y-79605285D01*
X149771452Y-79605285D01*
X149580976Y-79652904D01*
X149485738Y-79700523D01*
X149390500Y-79795761D01*
X149342880Y-79938619D01*
X149342880Y-80033857D01*
X149390500Y-80176714D01*
X149438119Y-80224333D01*
X149771452Y-80795761D02*
X149723833Y-80700523D01*
X149676214Y-80652904D01*
X149580976Y-80605285D01*
X149533357Y-80605285D01*
X149438119Y-80652904D01*
X149390500Y-80700523D01*
X149342880Y-80795761D01*
X149342880Y-80986238D01*
X149390500Y-81081476D01*
X149438119Y-81129095D01*
X149533357Y-81176714D01*
X149580976Y-81176714D01*
X149676214Y-81129095D01*
X149723833Y-81081476D01*
X149771452Y-80986238D01*
X149771452Y-80795761D01*
X149819071Y-80700523D01*
X149866690Y-80652904D01*
X149961928Y-80605285D01*
X150152404Y-80605285D01*
X150247642Y-80652904D01*
X150295261Y-80700523D01*
X150342880Y-80795761D01*
X150342880Y-80986238D01*
X150295261Y-81081476D01*
X150247642Y-81129095D01*
X150152404Y-81176714D01*
X149961928Y-81176714D01*
X149866690Y-81129095D01*
X149819071Y-81081476D01*
X149771452Y-80986238D01*
G04 #@! TO.C,C9*
X147011642Y-80198833D02*
X147059261Y-80151214D01*
X147106880Y-80008357D01*
X147106880Y-79913119D01*
X147059261Y-79770261D01*
X146964023Y-79675023D01*
X146868785Y-79627404D01*
X146678309Y-79579785D01*
X146535452Y-79579785D01*
X146344976Y-79627404D01*
X146249738Y-79675023D01*
X146154500Y-79770261D01*
X146106880Y-79913119D01*
X146106880Y-80008357D01*
X146154500Y-80151214D01*
X146202119Y-80198833D01*
X147106880Y-80675023D02*
X147106880Y-80865500D01*
X147059261Y-80960738D01*
X147011642Y-81008357D01*
X146868785Y-81103595D01*
X146678309Y-81151214D01*
X146297357Y-81151214D01*
X146202119Y-81103595D01*
X146154500Y-81055976D01*
X146106880Y-80960738D01*
X146106880Y-80770261D01*
X146154500Y-80675023D01*
X146202119Y-80627404D01*
X146297357Y-80579785D01*
X146535452Y-80579785D01*
X146630690Y-80627404D01*
X146678309Y-80675023D01*
X146725928Y-80770261D01*
X146725928Y-80960738D01*
X146678309Y-81055976D01*
X146630690Y-81103595D01*
X146535452Y-81151214D01*
G04 #@! TO.C,C10*
X110789857Y-63636142D02*
X110837476Y-63683761D01*
X110980333Y-63731380D01*
X111075571Y-63731380D01*
X111218428Y-63683761D01*
X111313666Y-63588523D01*
X111361285Y-63493285D01*
X111408904Y-63302809D01*
X111408904Y-63159952D01*
X111361285Y-62969476D01*
X111313666Y-62874238D01*
X111218428Y-62779000D01*
X111075571Y-62731380D01*
X110980333Y-62731380D01*
X110837476Y-62779000D01*
X110789857Y-62826619D01*
X109837476Y-63731380D02*
X110408904Y-63731380D01*
X110123190Y-63731380D02*
X110123190Y-62731380D01*
X110218428Y-62874238D01*
X110313666Y-62969476D01*
X110408904Y-63017095D01*
X109218428Y-62731380D02*
X109123190Y-62731380D01*
X109027952Y-62779000D01*
X108980333Y-62826619D01*
X108932714Y-62921857D01*
X108885095Y-63112333D01*
X108885095Y-63350428D01*
X108932714Y-63540904D01*
X108980333Y-63636142D01*
X109027952Y-63683761D01*
X109123190Y-63731380D01*
X109218428Y-63731380D01*
X109313666Y-63683761D01*
X109361285Y-63636142D01*
X109408904Y-63540904D01*
X109456523Y-63350428D01*
X109456523Y-63112333D01*
X109408904Y-62921857D01*
X109361285Y-62826619D01*
X109313666Y-62779000D01*
X109218428Y-62731380D01*
G04 #@! TO.C,C11*
X110434357Y-50489142D02*
X110481976Y-50536761D01*
X110624833Y-50584380D01*
X110720071Y-50584380D01*
X110862928Y-50536761D01*
X110958166Y-50441523D01*
X111005785Y-50346285D01*
X111053404Y-50155809D01*
X111053404Y-50012952D01*
X111005785Y-49822476D01*
X110958166Y-49727238D01*
X110862928Y-49632000D01*
X110720071Y-49584380D01*
X110624833Y-49584380D01*
X110481976Y-49632000D01*
X110434357Y-49679619D01*
X109481976Y-50584380D02*
X110053404Y-50584380D01*
X109767690Y-50584380D02*
X109767690Y-49584380D01*
X109862928Y-49727238D01*
X109958166Y-49822476D01*
X110053404Y-49870095D01*
X108529595Y-50584380D02*
X109101023Y-50584380D01*
X108815309Y-50584380D02*
X108815309Y-49584380D01*
X108910547Y-49727238D01*
X109005785Y-49822476D01*
X109101023Y-49870095D01*
G04 #@! TO.C,J2*
X106187833Y-90721380D02*
X106187833Y-91435666D01*
X106235452Y-91578523D01*
X106330690Y-91673761D01*
X106473547Y-91721380D01*
X106568785Y-91721380D01*
X105759261Y-90816619D02*
X105711642Y-90769000D01*
X105616404Y-90721380D01*
X105378309Y-90721380D01*
X105283071Y-90769000D01*
X105235452Y-90816619D01*
X105187833Y-90911857D01*
X105187833Y-91007095D01*
X105235452Y-91149952D01*
X105806880Y-91721380D01*
X105187833Y-91721380D01*
G04 #@! TO.C,R1*
X121767880Y-63587333D02*
X121291690Y-63254000D01*
X121767880Y-63015904D02*
X120767880Y-63015904D01*
X120767880Y-63396857D01*
X120815500Y-63492095D01*
X120863119Y-63539714D01*
X120958357Y-63587333D01*
X121101214Y-63587333D01*
X121196452Y-63539714D01*
X121244071Y-63492095D01*
X121291690Y-63396857D01*
X121291690Y-63015904D01*
X121767880Y-64539714D02*
X121767880Y-63968285D01*
X121767880Y-64254000D02*
X120767880Y-64254000D01*
X120910738Y-64158761D01*
X121005976Y-64063523D01*
X121053595Y-63968285D01*
G04 #@! TO.C,R2*
X127482880Y-61529833D02*
X127006690Y-61196500D01*
X127482880Y-60958404D02*
X126482880Y-60958404D01*
X126482880Y-61339357D01*
X126530500Y-61434595D01*
X126578119Y-61482214D01*
X126673357Y-61529833D01*
X126816214Y-61529833D01*
X126911452Y-61482214D01*
X126959071Y-61434595D01*
X127006690Y-61339357D01*
X127006690Y-60958404D01*
X126578119Y-61910785D02*
X126530500Y-61958404D01*
X126482880Y-62053642D01*
X126482880Y-62291738D01*
X126530500Y-62386976D01*
X126578119Y-62434595D01*
X126673357Y-62482214D01*
X126768595Y-62482214D01*
X126911452Y-62434595D01*
X127482880Y-61863166D01*
X127482880Y-62482214D01*
G04 #@! TO.C,R3*
X128601666Y-66713380D02*
X128935000Y-66237190D01*
X129173095Y-66713380D02*
X129173095Y-65713380D01*
X128792142Y-65713380D01*
X128696904Y-65761000D01*
X128649285Y-65808619D01*
X128601666Y-65903857D01*
X128601666Y-66046714D01*
X128649285Y-66141952D01*
X128696904Y-66189571D01*
X128792142Y-66237190D01*
X129173095Y-66237190D01*
X128268333Y-65713380D02*
X127649285Y-65713380D01*
X127982619Y-66094333D01*
X127839761Y-66094333D01*
X127744523Y-66141952D01*
X127696904Y-66189571D01*
X127649285Y-66284809D01*
X127649285Y-66522904D01*
X127696904Y-66618142D01*
X127744523Y-66665761D01*
X127839761Y-66713380D01*
X128125476Y-66713380D01*
X128220714Y-66665761D01*
X128268333Y-66618142D01*
G04 #@! TO.C,R4*
X132816880Y-63434833D02*
X132340690Y-63101500D01*
X132816880Y-62863404D02*
X131816880Y-62863404D01*
X131816880Y-63244357D01*
X131864500Y-63339595D01*
X131912119Y-63387214D01*
X132007357Y-63434833D01*
X132150214Y-63434833D01*
X132245452Y-63387214D01*
X132293071Y-63339595D01*
X132340690Y-63244357D01*
X132340690Y-62863404D01*
X132150214Y-64291976D02*
X132816880Y-64291976D01*
X131769261Y-64053880D02*
X132483547Y-63815785D01*
X132483547Y-64434833D01*
G04 #@! TO.C,Y1*
X105291690Y-93476809D02*
X105767880Y-93476809D01*
X104767880Y-93143476D02*
X105291690Y-93476809D01*
X104767880Y-93810142D01*
X105767880Y-94667285D02*
X105767880Y-94095857D01*
X105767880Y-94381571D02*
X104767880Y-94381571D01*
X104910738Y-94286333D01*
X105005976Y-94191095D01*
X105053595Y-94095857D01*
G04 #@! TO.C,U2*
X129222404Y-77227380D02*
X129222404Y-78036904D01*
X129174785Y-78132142D01*
X129127166Y-78179761D01*
X129031928Y-78227380D01*
X128841452Y-78227380D01*
X128746214Y-78179761D01*
X128698595Y-78132142D01*
X128650976Y-78036904D01*
X128650976Y-77227380D01*
X128222404Y-77322619D02*
X128174785Y-77275000D01*
X128079547Y-77227380D01*
X127841452Y-77227380D01*
X127746214Y-77275000D01*
X127698595Y-77322619D01*
X127650976Y-77417857D01*
X127650976Y-77513095D01*
X127698595Y-77655952D01*
X128270023Y-78227380D01*
X127650976Y-78227380D01*
G04 #@! TO.C,C4*
X137415666Y-80080142D02*
X137463285Y-80127761D01*
X137606142Y-80175380D01*
X137701380Y-80175380D01*
X137844238Y-80127761D01*
X137939476Y-80032523D01*
X137987095Y-79937285D01*
X138034714Y-79746809D01*
X138034714Y-79603952D01*
X137987095Y-79413476D01*
X137939476Y-79318238D01*
X137844238Y-79223000D01*
X137701380Y-79175380D01*
X137606142Y-79175380D01*
X137463285Y-79223000D01*
X137415666Y-79270619D01*
X136558523Y-79508714D02*
X136558523Y-80175380D01*
X136796619Y-79127761D02*
X137034714Y-79842047D01*
X136415666Y-79842047D01*
G04 #@! TO.C,R6*
X132310166Y-83035380D02*
X132643500Y-82559190D01*
X132881595Y-83035380D02*
X132881595Y-82035380D01*
X132500642Y-82035380D01*
X132405404Y-82083000D01*
X132357785Y-82130619D01*
X132310166Y-82225857D01*
X132310166Y-82368714D01*
X132357785Y-82463952D01*
X132405404Y-82511571D01*
X132500642Y-82559190D01*
X132881595Y-82559190D01*
X131453023Y-82035380D02*
X131643500Y-82035380D01*
X131738738Y-82083000D01*
X131786357Y-82130619D01*
X131881595Y-82273476D01*
X131929214Y-82463952D01*
X131929214Y-82844904D01*
X131881595Y-82940142D01*
X131833976Y-82987761D01*
X131738738Y-83035380D01*
X131548261Y-83035380D01*
X131453023Y-82987761D01*
X131405404Y-82940142D01*
X131357785Y-82844904D01*
X131357785Y-82606809D01*
X131405404Y-82511571D01*
X131453023Y-82463952D01*
X131548261Y-82416333D01*
X131738738Y-82416333D01*
X131833976Y-82463952D01*
X131881595Y-82511571D01*
X131929214Y-82606809D01*
G04 #@! TO.C,U3*
X138243880Y-86614095D02*
X139053404Y-86614095D01*
X139148642Y-86661714D01*
X139196261Y-86709333D01*
X139243880Y-86804571D01*
X139243880Y-86995047D01*
X139196261Y-87090285D01*
X139148642Y-87137904D01*
X139053404Y-87185523D01*
X138243880Y-87185523D01*
X138243880Y-87566476D02*
X138243880Y-88185523D01*
X138624833Y-87852190D01*
X138624833Y-87995047D01*
X138672452Y-88090285D01*
X138720071Y-88137904D01*
X138815309Y-88185523D01*
X139053404Y-88185523D01*
X139148642Y-88137904D01*
X139196261Y-88090285D01*
X139243880Y-87995047D01*
X139243880Y-87709333D01*
X139196261Y-87614095D01*
X139148642Y-87566476D01*
G04 #@! TO.C,J3*
X130317833Y-105541380D02*
X130317833Y-106255666D01*
X130365452Y-106398523D01*
X130460690Y-106493761D01*
X130603547Y-106541380D01*
X130698785Y-106541380D01*
X129936880Y-105541380D02*
X129317833Y-105541380D01*
X129651166Y-105922333D01*
X129508309Y-105922333D01*
X129413071Y-105969952D01*
X129365452Y-106017571D01*
X129317833Y-106112809D01*
X129317833Y-106350904D01*
X129365452Y-106446142D01*
X129413071Y-106493761D01*
X129508309Y-106541380D01*
X129794023Y-106541380D01*
X129889261Y-106493761D01*
X129936880Y-106446142D01*
G04 #@! TO.C,U4*
X113132880Y-56007095D02*
X113942404Y-56007095D01*
X114037642Y-56054714D01*
X114085261Y-56102333D01*
X114132880Y-56197571D01*
X114132880Y-56388047D01*
X114085261Y-56483285D01*
X114037642Y-56530904D01*
X113942404Y-56578523D01*
X113132880Y-56578523D01*
X113466214Y-57483285D02*
X114132880Y-57483285D01*
X113085261Y-57245190D02*
X113799547Y-57007095D01*
X113799547Y-57626142D01*
G04 #@! TO.C,U1*
X108394404Y-82824380D02*
X108394404Y-83633904D01*
X108346785Y-83729142D01*
X108299166Y-83776761D01*
X108203928Y-83824380D01*
X108013452Y-83824380D01*
X107918214Y-83776761D01*
X107870595Y-83729142D01*
X107822976Y-83633904D01*
X107822976Y-82824380D01*
X106822976Y-83824380D02*
X107394404Y-83824380D01*
X107108690Y-83824380D02*
X107108690Y-82824380D01*
X107203928Y-82967238D01*
X107299166Y-83062476D01*
X107394404Y-83110095D01*
G04 #@! TO.C,J1*
X89360333Y-112347380D02*
X89360333Y-113061666D01*
X89407952Y-113204523D01*
X89503190Y-113299761D01*
X89646047Y-113347380D01*
X89741285Y-113347380D01*
X88360333Y-113347380D02*
X88931761Y-113347380D01*
X88646047Y-113347380D02*
X88646047Y-112347380D01*
X88741285Y-112490238D01*
X88836523Y-112585476D01*
X88931761Y-112633095D01*
G04 #@! TO.C,J9*
X94495880Y-46716666D02*
X95210166Y-46716666D01*
X95353023Y-46669047D01*
X95448261Y-46573809D01*
X95495880Y-46430952D01*
X95495880Y-46335714D01*
X95495880Y-47240476D02*
X95495880Y-47430952D01*
X95448261Y-47526190D01*
X95400642Y-47573809D01*
X95257785Y-47669047D01*
X95067309Y-47716666D01*
X94686357Y-47716666D01*
X94591119Y-47669047D01*
X94543500Y-47621428D01*
X94495880Y-47526190D01*
X94495880Y-47335714D01*
X94543500Y-47240476D01*
X94591119Y-47192857D01*
X94686357Y-47145238D01*
X94924452Y-47145238D01*
X95019690Y-47192857D01*
X95067309Y-47240476D01*
X95114928Y-47335714D01*
X95114928Y-47526190D01*
X95067309Y-47621428D01*
X95019690Y-47669047D01*
X94924452Y-47716666D01*
X94495880Y-76561666D02*
X95210166Y-76561666D01*
X95353023Y-76514047D01*
X95448261Y-76418809D01*
X95495880Y-76275952D01*
X95495880Y-76180714D01*
X95495880Y-77085476D02*
X95495880Y-77275952D01*
X95448261Y-77371190D01*
X95400642Y-77418809D01*
X95257785Y-77514047D01*
X95067309Y-77561666D01*
X94686357Y-77561666D01*
X94591119Y-77514047D01*
X94543500Y-77466428D01*
X94495880Y-77371190D01*
X94495880Y-77180714D01*
X94543500Y-77085476D01*
X94591119Y-77037857D01*
X94686357Y-76990238D01*
X94924452Y-76990238D01*
X95019690Y-77037857D01*
X95067309Y-77085476D01*
X95114928Y-77180714D01*
X95114928Y-77371190D01*
X95067309Y-77466428D01*
X95019690Y-77514047D01*
X94924452Y-77561666D01*
G04 #@! TO.C,J1*
X109807333Y-112347380D02*
X109807333Y-113061666D01*
X109854952Y-113204523D01*
X109950190Y-113299761D01*
X110093047Y-113347380D01*
X110188285Y-113347380D01*
X108807333Y-113347380D02*
X109378761Y-113347380D01*
X109093047Y-113347380D02*
X109093047Y-112347380D01*
X109188285Y-112490238D01*
X109283523Y-112585476D01*
X109378761Y-112633095D01*
G04 #@! TD*
M02*
