G04 #@! TF.GenerationSoftware,KiCad,Pcbnew,(5.0.2)-1*
G04 #@! TF.CreationDate,2019-02-15T13:53:22+00:00*
G04 #@! TF.ProjectId,panel,70616e65-6c2e-46b6-9963-61645f706362,rev?*
G04 #@! TF.SameCoordinates,Original*
G04 #@! TF.FileFunction,Paste,Bot*
G04 #@! TF.FilePolarity,Positive*
%FSLAX46Y46*%
G04 Gerber Fmt 4.6, Leading zero omitted, Abs format (unit mm)*
G04 Created by KiCad (PCBNEW (5.0.2)-1) date 15/02/2019 13:53:22*
%MOMM*%
%LPD*%
G01*
G04 APERTURE LIST*
%ADD10C,0.100000*%
%ADD11C,0.875000*%
%ADD12R,1.750000X0.450000*%
%ADD13R,1.600000X1.600000*%
%ADD14R,1.400000X0.300000*%
G04 APERTURE END LIST*
D10*
G04 #@! TO.C,4k1*
G36*
X149820191Y-64155553D02*
X149841426Y-64158703D01*
X149862250Y-64163919D01*
X149882462Y-64171151D01*
X149901868Y-64180330D01*
X149920281Y-64191366D01*
X149937524Y-64204154D01*
X149953430Y-64218570D01*
X149967846Y-64234476D01*
X149980634Y-64251719D01*
X149991670Y-64270132D01*
X150000849Y-64289538D01*
X150008081Y-64309750D01*
X150013297Y-64330574D01*
X150016447Y-64351809D01*
X150017500Y-64373250D01*
X150017500Y-64810750D01*
X150016447Y-64832191D01*
X150013297Y-64853426D01*
X150008081Y-64874250D01*
X150000849Y-64894462D01*
X149991670Y-64913868D01*
X149980634Y-64932281D01*
X149967846Y-64949524D01*
X149953430Y-64965430D01*
X149937524Y-64979846D01*
X149920281Y-64992634D01*
X149901868Y-65003670D01*
X149882462Y-65012849D01*
X149862250Y-65020081D01*
X149841426Y-65025297D01*
X149820191Y-65028447D01*
X149798750Y-65029500D01*
X149286250Y-65029500D01*
X149264809Y-65028447D01*
X149243574Y-65025297D01*
X149222750Y-65020081D01*
X149202538Y-65012849D01*
X149183132Y-65003670D01*
X149164719Y-64992634D01*
X149147476Y-64979846D01*
X149131570Y-64965430D01*
X149117154Y-64949524D01*
X149104366Y-64932281D01*
X149093330Y-64913868D01*
X149084151Y-64894462D01*
X149076919Y-64874250D01*
X149071703Y-64853426D01*
X149068553Y-64832191D01*
X149067500Y-64810750D01*
X149067500Y-64373250D01*
X149068553Y-64351809D01*
X149071703Y-64330574D01*
X149076919Y-64309750D01*
X149084151Y-64289538D01*
X149093330Y-64270132D01*
X149104366Y-64251719D01*
X149117154Y-64234476D01*
X149131570Y-64218570D01*
X149147476Y-64204154D01*
X149164719Y-64191366D01*
X149183132Y-64180330D01*
X149202538Y-64171151D01*
X149222750Y-64163919D01*
X149243574Y-64158703D01*
X149264809Y-64155553D01*
X149286250Y-64154500D01*
X149798750Y-64154500D01*
X149820191Y-64155553D01*
X149820191Y-64155553D01*
G37*
D11*
X149542500Y-64592000D03*
D10*
G36*
X149820191Y-65730553D02*
X149841426Y-65733703D01*
X149862250Y-65738919D01*
X149882462Y-65746151D01*
X149901868Y-65755330D01*
X149920281Y-65766366D01*
X149937524Y-65779154D01*
X149953430Y-65793570D01*
X149967846Y-65809476D01*
X149980634Y-65826719D01*
X149991670Y-65845132D01*
X150000849Y-65864538D01*
X150008081Y-65884750D01*
X150013297Y-65905574D01*
X150016447Y-65926809D01*
X150017500Y-65948250D01*
X150017500Y-66385750D01*
X150016447Y-66407191D01*
X150013297Y-66428426D01*
X150008081Y-66449250D01*
X150000849Y-66469462D01*
X149991670Y-66488868D01*
X149980634Y-66507281D01*
X149967846Y-66524524D01*
X149953430Y-66540430D01*
X149937524Y-66554846D01*
X149920281Y-66567634D01*
X149901868Y-66578670D01*
X149882462Y-66587849D01*
X149862250Y-66595081D01*
X149841426Y-66600297D01*
X149820191Y-66603447D01*
X149798750Y-66604500D01*
X149286250Y-66604500D01*
X149264809Y-66603447D01*
X149243574Y-66600297D01*
X149222750Y-66595081D01*
X149202538Y-66587849D01*
X149183132Y-66578670D01*
X149164719Y-66567634D01*
X149147476Y-66554846D01*
X149131570Y-66540430D01*
X149117154Y-66524524D01*
X149104366Y-66507281D01*
X149093330Y-66488868D01*
X149084151Y-66469462D01*
X149076919Y-66449250D01*
X149071703Y-66428426D01*
X149068553Y-66407191D01*
X149067500Y-66385750D01*
X149067500Y-65948250D01*
X149068553Y-65926809D01*
X149071703Y-65905574D01*
X149076919Y-65884750D01*
X149084151Y-65864538D01*
X149093330Y-65845132D01*
X149104366Y-65826719D01*
X149117154Y-65809476D01*
X149131570Y-65793570D01*
X149147476Y-65779154D01*
X149164719Y-65766366D01*
X149183132Y-65755330D01*
X149202538Y-65746151D01*
X149222750Y-65738919D01*
X149243574Y-65733703D01*
X149264809Y-65730553D01*
X149286250Y-65729500D01*
X149798750Y-65729500D01*
X149820191Y-65730553D01*
X149820191Y-65730553D01*
G37*
D11*
X149542500Y-66167000D03*
G04 #@! TD*
D10*
G04 #@! TO.C,4k2*
G36*
X149820191Y-80716553D02*
X149841426Y-80719703D01*
X149862250Y-80724919D01*
X149882462Y-80732151D01*
X149901868Y-80741330D01*
X149920281Y-80752366D01*
X149937524Y-80765154D01*
X149953430Y-80779570D01*
X149967846Y-80795476D01*
X149980634Y-80812719D01*
X149991670Y-80831132D01*
X150000849Y-80850538D01*
X150008081Y-80870750D01*
X150013297Y-80891574D01*
X150016447Y-80912809D01*
X150017500Y-80934250D01*
X150017500Y-81371750D01*
X150016447Y-81393191D01*
X150013297Y-81414426D01*
X150008081Y-81435250D01*
X150000849Y-81455462D01*
X149991670Y-81474868D01*
X149980634Y-81493281D01*
X149967846Y-81510524D01*
X149953430Y-81526430D01*
X149937524Y-81540846D01*
X149920281Y-81553634D01*
X149901868Y-81564670D01*
X149882462Y-81573849D01*
X149862250Y-81581081D01*
X149841426Y-81586297D01*
X149820191Y-81589447D01*
X149798750Y-81590500D01*
X149286250Y-81590500D01*
X149264809Y-81589447D01*
X149243574Y-81586297D01*
X149222750Y-81581081D01*
X149202538Y-81573849D01*
X149183132Y-81564670D01*
X149164719Y-81553634D01*
X149147476Y-81540846D01*
X149131570Y-81526430D01*
X149117154Y-81510524D01*
X149104366Y-81493281D01*
X149093330Y-81474868D01*
X149084151Y-81455462D01*
X149076919Y-81435250D01*
X149071703Y-81414426D01*
X149068553Y-81393191D01*
X149067500Y-81371750D01*
X149067500Y-80934250D01*
X149068553Y-80912809D01*
X149071703Y-80891574D01*
X149076919Y-80870750D01*
X149084151Y-80850538D01*
X149093330Y-80831132D01*
X149104366Y-80812719D01*
X149117154Y-80795476D01*
X149131570Y-80779570D01*
X149147476Y-80765154D01*
X149164719Y-80752366D01*
X149183132Y-80741330D01*
X149202538Y-80732151D01*
X149222750Y-80724919D01*
X149243574Y-80719703D01*
X149264809Y-80716553D01*
X149286250Y-80715500D01*
X149798750Y-80715500D01*
X149820191Y-80716553D01*
X149820191Y-80716553D01*
G37*
D11*
X149542500Y-81153000D03*
D10*
G36*
X149820191Y-79141553D02*
X149841426Y-79144703D01*
X149862250Y-79149919D01*
X149882462Y-79157151D01*
X149901868Y-79166330D01*
X149920281Y-79177366D01*
X149937524Y-79190154D01*
X149953430Y-79204570D01*
X149967846Y-79220476D01*
X149980634Y-79237719D01*
X149991670Y-79256132D01*
X150000849Y-79275538D01*
X150008081Y-79295750D01*
X150013297Y-79316574D01*
X150016447Y-79337809D01*
X150017500Y-79359250D01*
X150017500Y-79796750D01*
X150016447Y-79818191D01*
X150013297Y-79839426D01*
X150008081Y-79860250D01*
X150000849Y-79880462D01*
X149991670Y-79899868D01*
X149980634Y-79918281D01*
X149967846Y-79935524D01*
X149953430Y-79951430D01*
X149937524Y-79965846D01*
X149920281Y-79978634D01*
X149901868Y-79989670D01*
X149882462Y-79998849D01*
X149862250Y-80006081D01*
X149841426Y-80011297D01*
X149820191Y-80014447D01*
X149798750Y-80015500D01*
X149286250Y-80015500D01*
X149264809Y-80014447D01*
X149243574Y-80011297D01*
X149222750Y-80006081D01*
X149202538Y-79998849D01*
X149183132Y-79989670D01*
X149164719Y-79978634D01*
X149147476Y-79965846D01*
X149131570Y-79951430D01*
X149117154Y-79935524D01*
X149104366Y-79918281D01*
X149093330Y-79899868D01*
X149084151Y-79880462D01*
X149076919Y-79860250D01*
X149071703Y-79839426D01*
X149068553Y-79818191D01*
X149067500Y-79796750D01*
X149067500Y-79359250D01*
X149068553Y-79337809D01*
X149071703Y-79316574D01*
X149076919Y-79295750D01*
X149084151Y-79275538D01*
X149093330Y-79256132D01*
X149104366Y-79237719D01*
X149117154Y-79220476D01*
X149131570Y-79204570D01*
X149147476Y-79190154D01*
X149164719Y-79177366D01*
X149183132Y-79166330D01*
X149202538Y-79157151D01*
X149222750Y-79149919D01*
X149243574Y-79144703D01*
X149264809Y-79141553D01*
X149286250Y-79140500D01*
X149798750Y-79140500D01*
X149820191Y-79141553D01*
X149820191Y-79141553D01*
G37*
D11*
X149542500Y-79578000D03*
G04 #@! TD*
D10*
G04 #@! TO.C,4k3*
G36*
X147280191Y-80716553D02*
X147301426Y-80719703D01*
X147322250Y-80724919D01*
X147342462Y-80732151D01*
X147361868Y-80741330D01*
X147380281Y-80752366D01*
X147397524Y-80765154D01*
X147413430Y-80779570D01*
X147427846Y-80795476D01*
X147440634Y-80812719D01*
X147451670Y-80831132D01*
X147460849Y-80850538D01*
X147468081Y-80870750D01*
X147473297Y-80891574D01*
X147476447Y-80912809D01*
X147477500Y-80934250D01*
X147477500Y-81371750D01*
X147476447Y-81393191D01*
X147473297Y-81414426D01*
X147468081Y-81435250D01*
X147460849Y-81455462D01*
X147451670Y-81474868D01*
X147440634Y-81493281D01*
X147427846Y-81510524D01*
X147413430Y-81526430D01*
X147397524Y-81540846D01*
X147380281Y-81553634D01*
X147361868Y-81564670D01*
X147342462Y-81573849D01*
X147322250Y-81581081D01*
X147301426Y-81586297D01*
X147280191Y-81589447D01*
X147258750Y-81590500D01*
X146746250Y-81590500D01*
X146724809Y-81589447D01*
X146703574Y-81586297D01*
X146682750Y-81581081D01*
X146662538Y-81573849D01*
X146643132Y-81564670D01*
X146624719Y-81553634D01*
X146607476Y-81540846D01*
X146591570Y-81526430D01*
X146577154Y-81510524D01*
X146564366Y-81493281D01*
X146553330Y-81474868D01*
X146544151Y-81455462D01*
X146536919Y-81435250D01*
X146531703Y-81414426D01*
X146528553Y-81393191D01*
X146527500Y-81371750D01*
X146527500Y-80934250D01*
X146528553Y-80912809D01*
X146531703Y-80891574D01*
X146536919Y-80870750D01*
X146544151Y-80850538D01*
X146553330Y-80831132D01*
X146564366Y-80812719D01*
X146577154Y-80795476D01*
X146591570Y-80779570D01*
X146607476Y-80765154D01*
X146624719Y-80752366D01*
X146643132Y-80741330D01*
X146662538Y-80732151D01*
X146682750Y-80724919D01*
X146703574Y-80719703D01*
X146724809Y-80716553D01*
X146746250Y-80715500D01*
X147258750Y-80715500D01*
X147280191Y-80716553D01*
X147280191Y-80716553D01*
G37*
D11*
X147002500Y-81153000D03*
D10*
G36*
X147280191Y-79141553D02*
X147301426Y-79144703D01*
X147322250Y-79149919D01*
X147342462Y-79157151D01*
X147361868Y-79166330D01*
X147380281Y-79177366D01*
X147397524Y-79190154D01*
X147413430Y-79204570D01*
X147427846Y-79220476D01*
X147440634Y-79237719D01*
X147451670Y-79256132D01*
X147460849Y-79275538D01*
X147468081Y-79295750D01*
X147473297Y-79316574D01*
X147476447Y-79337809D01*
X147477500Y-79359250D01*
X147477500Y-79796750D01*
X147476447Y-79818191D01*
X147473297Y-79839426D01*
X147468081Y-79860250D01*
X147460849Y-79880462D01*
X147451670Y-79899868D01*
X147440634Y-79918281D01*
X147427846Y-79935524D01*
X147413430Y-79951430D01*
X147397524Y-79965846D01*
X147380281Y-79978634D01*
X147361868Y-79989670D01*
X147342462Y-79998849D01*
X147322250Y-80006081D01*
X147301426Y-80011297D01*
X147280191Y-80014447D01*
X147258750Y-80015500D01*
X146746250Y-80015500D01*
X146724809Y-80014447D01*
X146703574Y-80011297D01*
X146682750Y-80006081D01*
X146662538Y-79998849D01*
X146643132Y-79989670D01*
X146624719Y-79978634D01*
X146607476Y-79965846D01*
X146591570Y-79951430D01*
X146577154Y-79935524D01*
X146564366Y-79918281D01*
X146553330Y-79899868D01*
X146544151Y-79880462D01*
X146536919Y-79860250D01*
X146531703Y-79839426D01*
X146528553Y-79818191D01*
X146527500Y-79796750D01*
X146527500Y-79359250D01*
X146528553Y-79337809D01*
X146531703Y-79316574D01*
X146536919Y-79295750D01*
X146544151Y-79275538D01*
X146553330Y-79256132D01*
X146564366Y-79237719D01*
X146577154Y-79220476D01*
X146591570Y-79204570D01*
X146607476Y-79190154D01*
X146624719Y-79177366D01*
X146643132Y-79166330D01*
X146662538Y-79157151D01*
X146682750Y-79149919D01*
X146703574Y-79144703D01*
X146724809Y-79141553D01*
X146746250Y-79140500D01*
X147258750Y-79140500D01*
X147280191Y-79141553D01*
X147280191Y-79141553D01*
G37*
D11*
X147002500Y-79578000D03*
G04 #@! TD*
D10*
G04 #@! TO.C,4k7*
G36*
X147280191Y-65730553D02*
X147301426Y-65733703D01*
X147322250Y-65738919D01*
X147342462Y-65746151D01*
X147361868Y-65755330D01*
X147380281Y-65766366D01*
X147397524Y-65779154D01*
X147413430Y-65793570D01*
X147427846Y-65809476D01*
X147440634Y-65826719D01*
X147451670Y-65845132D01*
X147460849Y-65864538D01*
X147468081Y-65884750D01*
X147473297Y-65905574D01*
X147476447Y-65926809D01*
X147477500Y-65948250D01*
X147477500Y-66385750D01*
X147476447Y-66407191D01*
X147473297Y-66428426D01*
X147468081Y-66449250D01*
X147460849Y-66469462D01*
X147451670Y-66488868D01*
X147440634Y-66507281D01*
X147427846Y-66524524D01*
X147413430Y-66540430D01*
X147397524Y-66554846D01*
X147380281Y-66567634D01*
X147361868Y-66578670D01*
X147342462Y-66587849D01*
X147322250Y-66595081D01*
X147301426Y-66600297D01*
X147280191Y-66603447D01*
X147258750Y-66604500D01*
X146746250Y-66604500D01*
X146724809Y-66603447D01*
X146703574Y-66600297D01*
X146682750Y-66595081D01*
X146662538Y-66587849D01*
X146643132Y-66578670D01*
X146624719Y-66567634D01*
X146607476Y-66554846D01*
X146591570Y-66540430D01*
X146577154Y-66524524D01*
X146564366Y-66507281D01*
X146553330Y-66488868D01*
X146544151Y-66469462D01*
X146536919Y-66449250D01*
X146531703Y-66428426D01*
X146528553Y-66407191D01*
X146527500Y-66385750D01*
X146527500Y-65948250D01*
X146528553Y-65926809D01*
X146531703Y-65905574D01*
X146536919Y-65884750D01*
X146544151Y-65864538D01*
X146553330Y-65845132D01*
X146564366Y-65826719D01*
X146577154Y-65809476D01*
X146591570Y-65793570D01*
X146607476Y-65779154D01*
X146624719Y-65766366D01*
X146643132Y-65755330D01*
X146662538Y-65746151D01*
X146682750Y-65738919D01*
X146703574Y-65733703D01*
X146724809Y-65730553D01*
X146746250Y-65729500D01*
X147258750Y-65729500D01*
X147280191Y-65730553D01*
X147280191Y-65730553D01*
G37*
D11*
X147002500Y-66167000D03*
D10*
G36*
X147280191Y-64155553D02*
X147301426Y-64158703D01*
X147322250Y-64163919D01*
X147342462Y-64171151D01*
X147361868Y-64180330D01*
X147380281Y-64191366D01*
X147397524Y-64204154D01*
X147413430Y-64218570D01*
X147427846Y-64234476D01*
X147440634Y-64251719D01*
X147451670Y-64270132D01*
X147460849Y-64289538D01*
X147468081Y-64309750D01*
X147473297Y-64330574D01*
X147476447Y-64351809D01*
X147477500Y-64373250D01*
X147477500Y-64810750D01*
X147476447Y-64832191D01*
X147473297Y-64853426D01*
X147468081Y-64874250D01*
X147460849Y-64894462D01*
X147451670Y-64913868D01*
X147440634Y-64932281D01*
X147427846Y-64949524D01*
X147413430Y-64965430D01*
X147397524Y-64979846D01*
X147380281Y-64992634D01*
X147361868Y-65003670D01*
X147342462Y-65012849D01*
X147322250Y-65020081D01*
X147301426Y-65025297D01*
X147280191Y-65028447D01*
X147258750Y-65029500D01*
X146746250Y-65029500D01*
X146724809Y-65028447D01*
X146703574Y-65025297D01*
X146682750Y-65020081D01*
X146662538Y-65012849D01*
X146643132Y-65003670D01*
X146624719Y-64992634D01*
X146607476Y-64979846D01*
X146591570Y-64965430D01*
X146577154Y-64949524D01*
X146564366Y-64932281D01*
X146553330Y-64913868D01*
X146544151Y-64894462D01*
X146536919Y-64874250D01*
X146531703Y-64853426D01*
X146528553Y-64832191D01*
X146527500Y-64810750D01*
X146527500Y-64373250D01*
X146528553Y-64351809D01*
X146531703Y-64330574D01*
X146536919Y-64309750D01*
X146544151Y-64289538D01*
X146553330Y-64270132D01*
X146564366Y-64251719D01*
X146577154Y-64234476D01*
X146591570Y-64218570D01*
X146607476Y-64204154D01*
X146624719Y-64191366D01*
X146643132Y-64180330D01*
X146662538Y-64171151D01*
X146682750Y-64163919D01*
X146703574Y-64158703D01*
X146724809Y-64155553D01*
X146746250Y-64154500D01*
X147258750Y-64154500D01*
X147280191Y-64155553D01*
X147280191Y-64155553D01*
G37*
D11*
X147002500Y-64592000D03*
G04 #@! TD*
D10*
G04 #@! TO.C,C1*
G36*
X103719191Y-81097553D02*
X103740426Y-81100703D01*
X103761250Y-81105919D01*
X103781462Y-81113151D01*
X103800868Y-81122330D01*
X103819281Y-81133366D01*
X103836524Y-81146154D01*
X103852430Y-81160570D01*
X103866846Y-81176476D01*
X103879634Y-81193719D01*
X103890670Y-81212132D01*
X103899849Y-81231538D01*
X103907081Y-81251750D01*
X103912297Y-81272574D01*
X103915447Y-81293809D01*
X103916500Y-81315250D01*
X103916500Y-81752750D01*
X103915447Y-81774191D01*
X103912297Y-81795426D01*
X103907081Y-81816250D01*
X103899849Y-81836462D01*
X103890670Y-81855868D01*
X103879634Y-81874281D01*
X103866846Y-81891524D01*
X103852430Y-81907430D01*
X103836524Y-81921846D01*
X103819281Y-81934634D01*
X103800868Y-81945670D01*
X103781462Y-81954849D01*
X103761250Y-81962081D01*
X103740426Y-81967297D01*
X103719191Y-81970447D01*
X103697750Y-81971500D01*
X103185250Y-81971500D01*
X103163809Y-81970447D01*
X103142574Y-81967297D01*
X103121750Y-81962081D01*
X103101538Y-81954849D01*
X103082132Y-81945670D01*
X103063719Y-81934634D01*
X103046476Y-81921846D01*
X103030570Y-81907430D01*
X103016154Y-81891524D01*
X103003366Y-81874281D01*
X102992330Y-81855868D01*
X102983151Y-81836462D01*
X102975919Y-81816250D01*
X102970703Y-81795426D01*
X102967553Y-81774191D01*
X102966500Y-81752750D01*
X102966500Y-81315250D01*
X102967553Y-81293809D01*
X102970703Y-81272574D01*
X102975919Y-81251750D01*
X102983151Y-81231538D01*
X102992330Y-81212132D01*
X103003366Y-81193719D01*
X103016154Y-81176476D01*
X103030570Y-81160570D01*
X103046476Y-81146154D01*
X103063719Y-81133366D01*
X103082132Y-81122330D01*
X103101538Y-81113151D01*
X103121750Y-81105919D01*
X103142574Y-81100703D01*
X103163809Y-81097553D01*
X103185250Y-81096500D01*
X103697750Y-81096500D01*
X103719191Y-81097553D01*
X103719191Y-81097553D01*
G37*
D11*
X103441500Y-81534000D03*
D10*
G36*
X103719191Y-82672553D02*
X103740426Y-82675703D01*
X103761250Y-82680919D01*
X103781462Y-82688151D01*
X103800868Y-82697330D01*
X103819281Y-82708366D01*
X103836524Y-82721154D01*
X103852430Y-82735570D01*
X103866846Y-82751476D01*
X103879634Y-82768719D01*
X103890670Y-82787132D01*
X103899849Y-82806538D01*
X103907081Y-82826750D01*
X103912297Y-82847574D01*
X103915447Y-82868809D01*
X103916500Y-82890250D01*
X103916500Y-83327750D01*
X103915447Y-83349191D01*
X103912297Y-83370426D01*
X103907081Y-83391250D01*
X103899849Y-83411462D01*
X103890670Y-83430868D01*
X103879634Y-83449281D01*
X103866846Y-83466524D01*
X103852430Y-83482430D01*
X103836524Y-83496846D01*
X103819281Y-83509634D01*
X103800868Y-83520670D01*
X103781462Y-83529849D01*
X103761250Y-83537081D01*
X103740426Y-83542297D01*
X103719191Y-83545447D01*
X103697750Y-83546500D01*
X103185250Y-83546500D01*
X103163809Y-83545447D01*
X103142574Y-83542297D01*
X103121750Y-83537081D01*
X103101538Y-83529849D01*
X103082132Y-83520670D01*
X103063719Y-83509634D01*
X103046476Y-83496846D01*
X103030570Y-83482430D01*
X103016154Y-83466524D01*
X103003366Y-83449281D01*
X102992330Y-83430868D01*
X102983151Y-83411462D01*
X102975919Y-83391250D01*
X102970703Y-83370426D01*
X102967553Y-83349191D01*
X102966500Y-83327750D01*
X102966500Y-82890250D01*
X102967553Y-82868809D01*
X102970703Y-82847574D01*
X102975919Y-82826750D01*
X102983151Y-82806538D01*
X102992330Y-82787132D01*
X103003366Y-82768719D01*
X103016154Y-82751476D01*
X103030570Y-82735570D01*
X103046476Y-82721154D01*
X103063719Y-82708366D01*
X103082132Y-82697330D01*
X103101538Y-82688151D01*
X103121750Y-82680919D01*
X103142574Y-82675703D01*
X103163809Y-82672553D01*
X103185250Y-82671500D01*
X103697750Y-82671500D01*
X103719191Y-82672553D01*
X103719191Y-82672553D01*
G37*
D11*
X103441500Y-83109000D03*
G04 #@! TD*
D10*
G04 #@! TO.C,C2*
G36*
X103719191Y-79700553D02*
X103740426Y-79703703D01*
X103761250Y-79708919D01*
X103781462Y-79716151D01*
X103800868Y-79725330D01*
X103819281Y-79736366D01*
X103836524Y-79749154D01*
X103852430Y-79763570D01*
X103866846Y-79779476D01*
X103879634Y-79796719D01*
X103890670Y-79815132D01*
X103899849Y-79834538D01*
X103907081Y-79854750D01*
X103912297Y-79875574D01*
X103915447Y-79896809D01*
X103916500Y-79918250D01*
X103916500Y-80355750D01*
X103915447Y-80377191D01*
X103912297Y-80398426D01*
X103907081Y-80419250D01*
X103899849Y-80439462D01*
X103890670Y-80458868D01*
X103879634Y-80477281D01*
X103866846Y-80494524D01*
X103852430Y-80510430D01*
X103836524Y-80524846D01*
X103819281Y-80537634D01*
X103800868Y-80548670D01*
X103781462Y-80557849D01*
X103761250Y-80565081D01*
X103740426Y-80570297D01*
X103719191Y-80573447D01*
X103697750Y-80574500D01*
X103185250Y-80574500D01*
X103163809Y-80573447D01*
X103142574Y-80570297D01*
X103121750Y-80565081D01*
X103101538Y-80557849D01*
X103082132Y-80548670D01*
X103063719Y-80537634D01*
X103046476Y-80524846D01*
X103030570Y-80510430D01*
X103016154Y-80494524D01*
X103003366Y-80477281D01*
X102992330Y-80458868D01*
X102983151Y-80439462D01*
X102975919Y-80419250D01*
X102970703Y-80398426D01*
X102967553Y-80377191D01*
X102966500Y-80355750D01*
X102966500Y-79918250D01*
X102967553Y-79896809D01*
X102970703Y-79875574D01*
X102975919Y-79854750D01*
X102983151Y-79834538D01*
X102992330Y-79815132D01*
X103003366Y-79796719D01*
X103016154Y-79779476D01*
X103030570Y-79763570D01*
X103046476Y-79749154D01*
X103063719Y-79736366D01*
X103082132Y-79725330D01*
X103101538Y-79716151D01*
X103121750Y-79708919D01*
X103142574Y-79703703D01*
X103163809Y-79700553D01*
X103185250Y-79699500D01*
X103697750Y-79699500D01*
X103719191Y-79700553D01*
X103719191Y-79700553D01*
G37*
D11*
X103441500Y-80137000D03*
D10*
G36*
X103719191Y-78125553D02*
X103740426Y-78128703D01*
X103761250Y-78133919D01*
X103781462Y-78141151D01*
X103800868Y-78150330D01*
X103819281Y-78161366D01*
X103836524Y-78174154D01*
X103852430Y-78188570D01*
X103866846Y-78204476D01*
X103879634Y-78221719D01*
X103890670Y-78240132D01*
X103899849Y-78259538D01*
X103907081Y-78279750D01*
X103912297Y-78300574D01*
X103915447Y-78321809D01*
X103916500Y-78343250D01*
X103916500Y-78780750D01*
X103915447Y-78802191D01*
X103912297Y-78823426D01*
X103907081Y-78844250D01*
X103899849Y-78864462D01*
X103890670Y-78883868D01*
X103879634Y-78902281D01*
X103866846Y-78919524D01*
X103852430Y-78935430D01*
X103836524Y-78949846D01*
X103819281Y-78962634D01*
X103800868Y-78973670D01*
X103781462Y-78982849D01*
X103761250Y-78990081D01*
X103740426Y-78995297D01*
X103719191Y-78998447D01*
X103697750Y-78999500D01*
X103185250Y-78999500D01*
X103163809Y-78998447D01*
X103142574Y-78995297D01*
X103121750Y-78990081D01*
X103101538Y-78982849D01*
X103082132Y-78973670D01*
X103063719Y-78962634D01*
X103046476Y-78949846D01*
X103030570Y-78935430D01*
X103016154Y-78919524D01*
X103003366Y-78902281D01*
X102992330Y-78883868D01*
X102983151Y-78864462D01*
X102975919Y-78844250D01*
X102970703Y-78823426D01*
X102967553Y-78802191D01*
X102966500Y-78780750D01*
X102966500Y-78343250D01*
X102967553Y-78321809D01*
X102970703Y-78300574D01*
X102975919Y-78279750D01*
X102983151Y-78259538D01*
X102992330Y-78240132D01*
X103003366Y-78221719D01*
X103016154Y-78204476D01*
X103030570Y-78188570D01*
X103046476Y-78174154D01*
X103063719Y-78161366D01*
X103082132Y-78150330D01*
X103101538Y-78141151D01*
X103121750Y-78133919D01*
X103142574Y-78128703D01*
X103163809Y-78125553D01*
X103185250Y-78124500D01*
X103697750Y-78124500D01*
X103719191Y-78125553D01*
X103719191Y-78125553D01*
G37*
D11*
X103441500Y-78562000D03*
G04 #@! TD*
D10*
G04 #@! TO.C,C3*
G36*
X107034691Y-90585053D02*
X107055926Y-90588203D01*
X107076750Y-90593419D01*
X107096962Y-90600651D01*
X107116368Y-90609830D01*
X107134781Y-90620866D01*
X107152024Y-90633654D01*
X107167930Y-90648070D01*
X107182346Y-90663976D01*
X107195134Y-90681219D01*
X107206170Y-90699632D01*
X107215349Y-90719038D01*
X107222581Y-90739250D01*
X107227797Y-90760074D01*
X107230947Y-90781309D01*
X107232000Y-90802750D01*
X107232000Y-91315250D01*
X107230947Y-91336691D01*
X107227797Y-91357926D01*
X107222581Y-91378750D01*
X107215349Y-91398962D01*
X107206170Y-91418368D01*
X107195134Y-91436781D01*
X107182346Y-91454024D01*
X107167930Y-91469930D01*
X107152024Y-91484346D01*
X107134781Y-91497134D01*
X107116368Y-91508170D01*
X107096962Y-91517349D01*
X107076750Y-91524581D01*
X107055926Y-91529797D01*
X107034691Y-91532947D01*
X107013250Y-91534000D01*
X106575750Y-91534000D01*
X106554309Y-91532947D01*
X106533074Y-91529797D01*
X106512250Y-91524581D01*
X106492038Y-91517349D01*
X106472632Y-91508170D01*
X106454219Y-91497134D01*
X106436976Y-91484346D01*
X106421070Y-91469930D01*
X106406654Y-91454024D01*
X106393866Y-91436781D01*
X106382830Y-91418368D01*
X106373651Y-91398962D01*
X106366419Y-91378750D01*
X106361203Y-91357926D01*
X106358053Y-91336691D01*
X106357000Y-91315250D01*
X106357000Y-90802750D01*
X106358053Y-90781309D01*
X106361203Y-90760074D01*
X106366419Y-90739250D01*
X106373651Y-90719038D01*
X106382830Y-90699632D01*
X106393866Y-90681219D01*
X106406654Y-90663976D01*
X106421070Y-90648070D01*
X106436976Y-90633654D01*
X106454219Y-90620866D01*
X106472632Y-90609830D01*
X106492038Y-90600651D01*
X106512250Y-90593419D01*
X106533074Y-90588203D01*
X106554309Y-90585053D01*
X106575750Y-90584000D01*
X107013250Y-90584000D01*
X107034691Y-90585053D01*
X107034691Y-90585053D01*
G37*
D11*
X106794500Y-91059000D03*
D10*
G36*
X105459691Y-90585053D02*
X105480926Y-90588203D01*
X105501750Y-90593419D01*
X105521962Y-90600651D01*
X105541368Y-90609830D01*
X105559781Y-90620866D01*
X105577024Y-90633654D01*
X105592930Y-90648070D01*
X105607346Y-90663976D01*
X105620134Y-90681219D01*
X105631170Y-90699632D01*
X105640349Y-90719038D01*
X105647581Y-90739250D01*
X105652797Y-90760074D01*
X105655947Y-90781309D01*
X105657000Y-90802750D01*
X105657000Y-91315250D01*
X105655947Y-91336691D01*
X105652797Y-91357926D01*
X105647581Y-91378750D01*
X105640349Y-91398962D01*
X105631170Y-91418368D01*
X105620134Y-91436781D01*
X105607346Y-91454024D01*
X105592930Y-91469930D01*
X105577024Y-91484346D01*
X105559781Y-91497134D01*
X105541368Y-91508170D01*
X105521962Y-91517349D01*
X105501750Y-91524581D01*
X105480926Y-91529797D01*
X105459691Y-91532947D01*
X105438250Y-91534000D01*
X105000750Y-91534000D01*
X104979309Y-91532947D01*
X104958074Y-91529797D01*
X104937250Y-91524581D01*
X104917038Y-91517349D01*
X104897632Y-91508170D01*
X104879219Y-91497134D01*
X104861976Y-91484346D01*
X104846070Y-91469930D01*
X104831654Y-91454024D01*
X104818866Y-91436781D01*
X104807830Y-91418368D01*
X104798651Y-91398962D01*
X104791419Y-91378750D01*
X104786203Y-91357926D01*
X104783053Y-91336691D01*
X104782000Y-91315250D01*
X104782000Y-90802750D01*
X104783053Y-90781309D01*
X104786203Y-90760074D01*
X104791419Y-90739250D01*
X104798651Y-90719038D01*
X104807830Y-90699632D01*
X104818866Y-90681219D01*
X104831654Y-90663976D01*
X104846070Y-90648070D01*
X104861976Y-90633654D01*
X104879219Y-90620866D01*
X104897632Y-90609830D01*
X104917038Y-90600651D01*
X104937250Y-90593419D01*
X104958074Y-90588203D01*
X104979309Y-90585053D01*
X105000750Y-90584000D01*
X105438250Y-90584000D01*
X105459691Y-90585053D01*
X105459691Y-90585053D01*
G37*
D11*
X105219500Y-91059000D03*
G04 #@! TD*
D10*
G04 #@! TO.C,C6*
G36*
X151598191Y-65781553D02*
X151619426Y-65784703D01*
X151640250Y-65789919D01*
X151660462Y-65797151D01*
X151679868Y-65806330D01*
X151698281Y-65817366D01*
X151715524Y-65830154D01*
X151731430Y-65844570D01*
X151745846Y-65860476D01*
X151758634Y-65877719D01*
X151769670Y-65896132D01*
X151778849Y-65915538D01*
X151786081Y-65935750D01*
X151791297Y-65956574D01*
X151794447Y-65977809D01*
X151795500Y-65999250D01*
X151795500Y-66436750D01*
X151794447Y-66458191D01*
X151791297Y-66479426D01*
X151786081Y-66500250D01*
X151778849Y-66520462D01*
X151769670Y-66539868D01*
X151758634Y-66558281D01*
X151745846Y-66575524D01*
X151731430Y-66591430D01*
X151715524Y-66605846D01*
X151698281Y-66618634D01*
X151679868Y-66629670D01*
X151660462Y-66638849D01*
X151640250Y-66646081D01*
X151619426Y-66651297D01*
X151598191Y-66654447D01*
X151576750Y-66655500D01*
X151064250Y-66655500D01*
X151042809Y-66654447D01*
X151021574Y-66651297D01*
X151000750Y-66646081D01*
X150980538Y-66638849D01*
X150961132Y-66629670D01*
X150942719Y-66618634D01*
X150925476Y-66605846D01*
X150909570Y-66591430D01*
X150895154Y-66575524D01*
X150882366Y-66558281D01*
X150871330Y-66539868D01*
X150862151Y-66520462D01*
X150854919Y-66500250D01*
X150849703Y-66479426D01*
X150846553Y-66458191D01*
X150845500Y-66436750D01*
X150845500Y-65999250D01*
X150846553Y-65977809D01*
X150849703Y-65956574D01*
X150854919Y-65935750D01*
X150862151Y-65915538D01*
X150871330Y-65896132D01*
X150882366Y-65877719D01*
X150895154Y-65860476D01*
X150909570Y-65844570D01*
X150925476Y-65830154D01*
X150942719Y-65817366D01*
X150961132Y-65806330D01*
X150980538Y-65797151D01*
X151000750Y-65789919D01*
X151021574Y-65784703D01*
X151042809Y-65781553D01*
X151064250Y-65780500D01*
X151576750Y-65780500D01*
X151598191Y-65781553D01*
X151598191Y-65781553D01*
G37*
D11*
X151320500Y-66218000D03*
D10*
G36*
X151598191Y-64206553D02*
X151619426Y-64209703D01*
X151640250Y-64214919D01*
X151660462Y-64222151D01*
X151679868Y-64231330D01*
X151698281Y-64242366D01*
X151715524Y-64255154D01*
X151731430Y-64269570D01*
X151745846Y-64285476D01*
X151758634Y-64302719D01*
X151769670Y-64321132D01*
X151778849Y-64340538D01*
X151786081Y-64360750D01*
X151791297Y-64381574D01*
X151794447Y-64402809D01*
X151795500Y-64424250D01*
X151795500Y-64861750D01*
X151794447Y-64883191D01*
X151791297Y-64904426D01*
X151786081Y-64925250D01*
X151778849Y-64945462D01*
X151769670Y-64964868D01*
X151758634Y-64983281D01*
X151745846Y-65000524D01*
X151731430Y-65016430D01*
X151715524Y-65030846D01*
X151698281Y-65043634D01*
X151679868Y-65054670D01*
X151660462Y-65063849D01*
X151640250Y-65071081D01*
X151619426Y-65076297D01*
X151598191Y-65079447D01*
X151576750Y-65080500D01*
X151064250Y-65080500D01*
X151042809Y-65079447D01*
X151021574Y-65076297D01*
X151000750Y-65071081D01*
X150980538Y-65063849D01*
X150961132Y-65054670D01*
X150942719Y-65043634D01*
X150925476Y-65030846D01*
X150909570Y-65016430D01*
X150895154Y-65000524D01*
X150882366Y-64983281D01*
X150871330Y-64964868D01*
X150862151Y-64945462D01*
X150854919Y-64925250D01*
X150849703Y-64904426D01*
X150846553Y-64883191D01*
X150845500Y-64861750D01*
X150845500Y-64424250D01*
X150846553Y-64402809D01*
X150849703Y-64381574D01*
X150854919Y-64360750D01*
X150862151Y-64340538D01*
X150871330Y-64321132D01*
X150882366Y-64302719D01*
X150895154Y-64285476D01*
X150909570Y-64269570D01*
X150925476Y-64255154D01*
X150942719Y-64242366D01*
X150961132Y-64231330D01*
X150980538Y-64222151D01*
X151000750Y-64214919D01*
X151021574Y-64209703D01*
X151042809Y-64206553D01*
X151064250Y-64205500D01*
X151576750Y-64205500D01*
X151598191Y-64206553D01*
X151598191Y-64206553D01*
G37*
D11*
X151320500Y-64643000D03*
G04 #@! TD*
D10*
G04 #@! TO.C,C7*
G36*
X145375191Y-65730553D02*
X145396426Y-65733703D01*
X145417250Y-65738919D01*
X145437462Y-65746151D01*
X145456868Y-65755330D01*
X145475281Y-65766366D01*
X145492524Y-65779154D01*
X145508430Y-65793570D01*
X145522846Y-65809476D01*
X145535634Y-65826719D01*
X145546670Y-65845132D01*
X145555849Y-65864538D01*
X145563081Y-65884750D01*
X145568297Y-65905574D01*
X145571447Y-65926809D01*
X145572500Y-65948250D01*
X145572500Y-66385750D01*
X145571447Y-66407191D01*
X145568297Y-66428426D01*
X145563081Y-66449250D01*
X145555849Y-66469462D01*
X145546670Y-66488868D01*
X145535634Y-66507281D01*
X145522846Y-66524524D01*
X145508430Y-66540430D01*
X145492524Y-66554846D01*
X145475281Y-66567634D01*
X145456868Y-66578670D01*
X145437462Y-66587849D01*
X145417250Y-66595081D01*
X145396426Y-66600297D01*
X145375191Y-66603447D01*
X145353750Y-66604500D01*
X144841250Y-66604500D01*
X144819809Y-66603447D01*
X144798574Y-66600297D01*
X144777750Y-66595081D01*
X144757538Y-66587849D01*
X144738132Y-66578670D01*
X144719719Y-66567634D01*
X144702476Y-66554846D01*
X144686570Y-66540430D01*
X144672154Y-66524524D01*
X144659366Y-66507281D01*
X144648330Y-66488868D01*
X144639151Y-66469462D01*
X144631919Y-66449250D01*
X144626703Y-66428426D01*
X144623553Y-66407191D01*
X144622500Y-66385750D01*
X144622500Y-65948250D01*
X144623553Y-65926809D01*
X144626703Y-65905574D01*
X144631919Y-65884750D01*
X144639151Y-65864538D01*
X144648330Y-65845132D01*
X144659366Y-65826719D01*
X144672154Y-65809476D01*
X144686570Y-65793570D01*
X144702476Y-65779154D01*
X144719719Y-65766366D01*
X144738132Y-65755330D01*
X144757538Y-65746151D01*
X144777750Y-65738919D01*
X144798574Y-65733703D01*
X144819809Y-65730553D01*
X144841250Y-65729500D01*
X145353750Y-65729500D01*
X145375191Y-65730553D01*
X145375191Y-65730553D01*
G37*
D11*
X145097500Y-66167000D03*
D10*
G36*
X145375191Y-64155553D02*
X145396426Y-64158703D01*
X145417250Y-64163919D01*
X145437462Y-64171151D01*
X145456868Y-64180330D01*
X145475281Y-64191366D01*
X145492524Y-64204154D01*
X145508430Y-64218570D01*
X145522846Y-64234476D01*
X145535634Y-64251719D01*
X145546670Y-64270132D01*
X145555849Y-64289538D01*
X145563081Y-64309750D01*
X145568297Y-64330574D01*
X145571447Y-64351809D01*
X145572500Y-64373250D01*
X145572500Y-64810750D01*
X145571447Y-64832191D01*
X145568297Y-64853426D01*
X145563081Y-64874250D01*
X145555849Y-64894462D01*
X145546670Y-64913868D01*
X145535634Y-64932281D01*
X145522846Y-64949524D01*
X145508430Y-64965430D01*
X145492524Y-64979846D01*
X145475281Y-64992634D01*
X145456868Y-65003670D01*
X145437462Y-65012849D01*
X145417250Y-65020081D01*
X145396426Y-65025297D01*
X145375191Y-65028447D01*
X145353750Y-65029500D01*
X144841250Y-65029500D01*
X144819809Y-65028447D01*
X144798574Y-65025297D01*
X144777750Y-65020081D01*
X144757538Y-65012849D01*
X144738132Y-65003670D01*
X144719719Y-64992634D01*
X144702476Y-64979846D01*
X144686570Y-64965430D01*
X144672154Y-64949524D01*
X144659366Y-64932281D01*
X144648330Y-64913868D01*
X144639151Y-64894462D01*
X144631919Y-64874250D01*
X144626703Y-64853426D01*
X144623553Y-64832191D01*
X144622500Y-64810750D01*
X144622500Y-64373250D01*
X144623553Y-64351809D01*
X144626703Y-64330574D01*
X144631919Y-64309750D01*
X144639151Y-64289538D01*
X144648330Y-64270132D01*
X144659366Y-64251719D01*
X144672154Y-64234476D01*
X144686570Y-64218570D01*
X144702476Y-64204154D01*
X144719719Y-64191366D01*
X144738132Y-64180330D01*
X144757538Y-64171151D01*
X144777750Y-64163919D01*
X144798574Y-64158703D01*
X144819809Y-64155553D01*
X144841250Y-64154500D01*
X145353750Y-64154500D01*
X145375191Y-64155553D01*
X145375191Y-64155553D01*
G37*
D11*
X145097500Y-64592000D03*
G04 #@! TD*
D10*
G04 #@! TO.C,C8*
G36*
X151598191Y-80742053D02*
X151619426Y-80745203D01*
X151640250Y-80750419D01*
X151660462Y-80757651D01*
X151679868Y-80766830D01*
X151698281Y-80777866D01*
X151715524Y-80790654D01*
X151731430Y-80805070D01*
X151745846Y-80820976D01*
X151758634Y-80838219D01*
X151769670Y-80856632D01*
X151778849Y-80876038D01*
X151786081Y-80896250D01*
X151791297Y-80917074D01*
X151794447Y-80938309D01*
X151795500Y-80959750D01*
X151795500Y-81397250D01*
X151794447Y-81418691D01*
X151791297Y-81439926D01*
X151786081Y-81460750D01*
X151778849Y-81480962D01*
X151769670Y-81500368D01*
X151758634Y-81518781D01*
X151745846Y-81536024D01*
X151731430Y-81551930D01*
X151715524Y-81566346D01*
X151698281Y-81579134D01*
X151679868Y-81590170D01*
X151660462Y-81599349D01*
X151640250Y-81606581D01*
X151619426Y-81611797D01*
X151598191Y-81614947D01*
X151576750Y-81616000D01*
X151064250Y-81616000D01*
X151042809Y-81614947D01*
X151021574Y-81611797D01*
X151000750Y-81606581D01*
X150980538Y-81599349D01*
X150961132Y-81590170D01*
X150942719Y-81579134D01*
X150925476Y-81566346D01*
X150909570Y-81551930D01*
X150895154Y-81536024D01*
X150882366Y-81518781D01*
X150871330Y-81500368D01*
X150862151Y-81480962D01*
X150854919Y-81460750D01*
X150849703Y-81439926D01*
X150846553Y-81418691D01*
X150845500Y-81397250D01*
X150845500Y-80959750D01*
X150846553Y-80938309D01*
X150849703Y-80917074D01*
X150854919Y-80896250D01*
X150862151Y-80876038D01*
X150871330Y-80856632D01*
X150882366Y-80838219D01*
X150895154Y-80820976D01*
X150909570Y-80805070D01*
X150925476Y-80790654D01*
X150942719Y-80777866D01*
X150961132Y-80766830D01*
X150980538Y-80757651D01*
X151000750Y-80750419D01*
X151021574Y-80745203D01*
X151042809Y-80742053D01*
X151064250Y-80741000D01*
X151576750Y-80741000D01*
X151598191Y-80742053D01*
X151598191Y-80742053D01*
G37*
D11*
X151320500Y-81178500D03*
D10*
G36*
X151598191Y-79167053D02*
X151619426Y-79170203D01*
X151640250Y-79175419D01*
X151660462Y-79182651D01*
X151679868Y-79191830D01*
X151698281Y-79202866D01*
X151715524Y-79215654D01*
X151731430Y-79230070D01*
X151745846Y-79245976D01*
X151758634Y-79263219D01*
X151769670Y-79281632D01*
X151778849Y-79301038D01*
X151786081Y-79321250D01*
X151791297Y-79342074D01*
X151794447Y-79363309D01*
X151795500Y-79384750D01*
X151795500Y-79822250D01*
X151794447Y-79843691D01*
X151791297Y-79864926D01*
X151786081Y-79885750D01*
X151778849Y-79905962D01*
X151769670Y-79925368D01*
X151758634Y-79943781D01*
X151745846Y-79961024D01*
X151731430Y-79976930D01*
X151715524Y-79991346D01*
X151698281Y-80004134D01*
X151679868Y-80015170D01*
X151660462Y-80024349D01*
X151640250Y-80031581D01*
X151619426Y-80036797D01*
X151598191Y-80039947D01*
X151576750Y-80041000D01*
X151064250Y-80041000D01*
X151042809Y-80039947D01*
X151021574Y-80036797D01*
X151000750Y-80031581D01*
X150980538Y-80024349D01*
X150961132Y-80015170D01*
X150942719Y-80004134D01*
X150925476Y-79991346D01*
X150909570Y-79976930D01*
X150895154Y-79961024D01*
X150882366Y-79943781D01*
X150871330Y-79925368D01*
X150862151Y-79905962D01*
X150854919Y-79885750D01*
X150849703Y-79864926D01*
X150846553Y-79843691D01*
X150845500Y-79822250D01*
X150845500Y-79384750D01*
X150846553Y-79363309D01*
X150849703Y-79342074D01*
X150854919Y-79321250D01*
X150862151Y-79301038D01*
X150871330Y-79281632D01*
X150882366Y-79263219D01*
X150895154Y-79245976D01*
X150909570Y-79230070D01*
X150925476Y-79215654D01*
X150942719Y-79202866D01*
X150961132Y-79191830D01*
X150980538Y-79182651D01*
X151000750Y-79175419D01*
X151021574Y-79170203D01*
X151042809Y-79167053D01*
X151064250Y-79166000D01*
X151576750Y-79166000D01*
X151598191Y-79167053D01*
X151598191Y-79167053D01*
G37*
D11*
X151320500Y-79603500D03*
G04 #@! TD*
D10*
G04 #@! TO.C,C9*
G36*
X145502191Y-80716553D02*
X145523426Y-80719703D01*
X145544250Y-80724919D01*
X145564462Y-80732151D01*
X145583868Y-80741330D01*
X145602281Y-80752366D01*
X145619524Y-80765154D01*
X145635430Y-80779570D01*
X145649846Y-80795476D01*
X145662634Y-80812719D01*
X145673670Y-80831132D01*
X145682849Y-80850538D01*
X145690081Y-80870750D01*
X145695297Y-80891574D01*
X145698447Y-80912809D01*
X145699500Y-80934250D01*
X145699500Y-81371750D01*
X145698447Y-81393191D01*
X145695297Y-81414426D01*
X145690081Y-81435250D01*
X145682849Y-81455462D01*
X145673670Y-81474868D01*
X145662634Y-81493281D01*
X145649846Y-81510524D01*
X145635430Y-81526430D01*
X145619524Y-81540846D01*
X145602281Y-81553634D01*
X145583868Y-81564670D01*
X145564462Y-81573849D01*
X145544250Y-81581081D01*
X145523426Y-81586297D01*
X145502191Y-81589447D01*
X145480750Y-81590500D01*
X144968250Y-81590500D01*
X144946809Y-81589447D01*
X144925574Y-81586297D01*
X144904750Y-81581081D01*
X144884538Y-81573849D01*
X144865132Y-81564670D01*
X144846719Y-81553634D01*
X144829476Y-81540846D01*
X144813570Y-81526430D01*
X144799154Y-81510524D01*
X144786366Y-81493281D01*
X144775330Y-81474868D01*
X144766151Y-81455462D01*
X144758919Y-81435250D01*
X144753703Y-81414426D01*
X144750553Y-81393191D01*
X144749500Y-81371750D01*
X144749500Y-80934250D01*
X144750553Y-80912809D01*
X144753703Y-80891574D01*
X144758919Y-80870750D01*
X144766151Y-80850538D01*
X144775330Y-80831132D01*
X144786366Y-80812719D01*
X144799154Y-80795476D01*
X144813570Y-80779570D01*
X144829476Y-80765154D01*
X144846719Y-80752366D01*
X144865132Y-80741330D01*
X144884538Y-80732151D01*
X144904750Y-80724919D01*
X144925574Y-80719703D01*
X144946809Y-80716553D01*
X144968250Y-80715500D01*
X145480750Y-80715500D01*
X145502191Y-80716553D01*
X145502191Y-80716553D01*
G37*
D11*
X145224500Y-81153000D03*
D10*
G36*
X145502191Y-79141553D02*
X145523426Y-79144703D01*
X145544250Y-79149919D01*
X145564462Y-79157151D01*
X145583868Y-79166330D01*
X145602281Y-79177366D01*
X145619524Y-79190154D01*
X145635430Y-79204570D01*
X145649846Y-79220476D01*
X145662634Y-79237719D01*
X145673670Y-79256132D01*
X145682849Y-79275538D01*
X145690081Y-79295750D01*
X145695297Y-79316574D01*
X145698447Y-79337809D01*
X145699500Y-79359250D01*
X145699500Y-79796750D01*
X145698447Y-79818191D01*
X145695297Y-79839426D01*
X145690081Y-79860250D01*
X145682849Y-79880462D01*
X145673670Y-79899868D01*
X145662634Y-79918281D01*
X145649846Y-79935524D01*
X145635430Y-79951430D01*
X145619524Y-79965846D01*
X145602281Y-79978634D01*
X145583868Y-79989670D01*
X145564462Y-79998849D01*
X145544250Y-80006081D01*
X145523426Y-80011297D01*
X145502191Y-80014447D01*
X145480750Y-80015500D01*
X144968250Y-80015500D01*
X144946809Y-80014447D01*
X144925574Y-80011297D01*
X144904750Y-80006081D01*
X144884538Y-79998849D01*
X144865132Y-79989670D01*
X144846719Y-79978634D01*
X144829476Y-79965846D01*
X144813570Y-79951430D01*
X144799154Y-79935524D01*
X144786366Y-79918281D01*
X144775330Y-79899868D01*
X144766151Y-79880462D01*
X144758919Y-79860250D01*
X144753703Y-79839426D01*
X144750553Y-79818191D01*
X144749500Y-79796750D01*
X144749500Y-79359250D01*
X144750553Y-79337809D01*
X144753703Y-79316574D01*
X144758919Y-79295750D01*
X144766151Y-79275538D01*
X144775330Y-79256132D01*
X144786366Y-79237719D01*
X144799154Y-79220476D01*
X144813570Y-79204570D01*
X144829476Y-79190154D01*
X144846719Y-79177366D01*
X144865132Y-79166330D01*
X144884538Y-79157151D01*
X144904750Y-79149919D01*
X144925574Y-79144703D01*
X144946809Y-79141553D01*
X144968250Y-79140500D01*
X145480750Y-79140500D01*
X145502191Y-79141553D01*
X145502191Y-79141553D01*
G37*
D11*
X145224500Y-79578000D03*
G04 #@! TD*
D10*
G04 #@! TO.C,C10*
G36*
X109599691Y-61375053D02*
X109620926Y-61378203D01*
X109641750Y-61383419D01*
X109661962Y-61390651D01*
X109681368Y-61399830D01*
X109699781Y-61410866D01*
X109717024Y-61423654D01*
X109732930Y-61438070D01*
X109747346Y-61453976D01*
X109760134Y-61471219D01*
X109771170Y-61489632D01*
X109780349Y-61509038D01*
X109787581Y-61529250D01*
X109792797Y-61550074D01*
X109795947Y-61571309D01*
X109797000Y-61592750D01*
X109797000Y-62105250D01*
X109795947Y-62126691D01*
X109792797Y-62147926D01*
X109787581Y-62168750D01*
X109780349Y-62188962D01*
X109771170Y-62208368D01*
X109760134Y-62226781D01*
X109747346Y-62244024D01*
X109732930Y-62259930D01*
X109717024Y-62274346D01*
X109699781Y-62287134D01*
X109681368Y-62298170D01*
X109661962Y-62307349D01*
X109641750Y-62314581D01*
X109620926Y-62319797D01*
X109599691Y-62322947D01*
X109578250Y-62324000D01*
X109140750Y-62324000D01*
X109119309Y-62322947D01*
X109098074Y-62319797D01*
X109077250Y-62314581D01*
X109057038Y-62307349D01*
X109037632Y-62298170D01*
X109019219Y-62287134D01*
X109001976Y-62274346D01*
X108986070Y-62259930D01*
X108971654Y-62244024D01*
X108958866Y-62226781D01*
X108947830Y-62208368D01*
X108938651Y-62188962D01*
X108931419Y-62168750D01*
X108926203Y-62147926D01*
X108923053Y-62126691D01*
X108922000Y-62105250D01*
X108922000Y-61592750D01*
X108923053Y-61571309D01*
X108926203Y-61550074D01*
X108931419Y-61529250D01*
X108938651Y-61509038D01*
X108947830Y-61489632D01*
X108958866Y-61471219D01*
X108971654Y-61453976D01*
X108986070Y-61438070D01*
X109001976Y-61423654D01*
X109019219Y-61410866D01*
X109037632Y-61399830D01*
X109057038Y-61390651D01*
X109077250Y-61383419D01*
X109098074Y-61378203D01*
X109119309Y-61375053D01*
X109140750Y-61374000D01*
X109578250Y-61374000D01*
X109599691Y-61375053D01*
X109599691Y-61375053D01*
G37*
D11*
X109359500Y-61849000D03*
D10*
G36*
X111174691Y-61375053D02*
X111195926Y-61378203D01*
X111216750Y-61383419D01*
X111236962Y-61390651D01*
X111256368Y-61399830D01*
X111274781Y-61410866D01*
X111292024Y-61423654D01*
X111307930Y-61438070D01*
X111322346Y-61453976D01*
X111335134Y-61471219D01*
X111346170Y-61489632D01*
X111355349Y-61509038D01*
X111362581Y-61529250D01*
X111367797Y-61550074D01*
X111370947Y-61571309D01*
X111372000Y-61592750D01*
X111372000Y-62105250D01*
X111370947Y-62126691D01*
X111367797Y-62147926D01*
X111362581Y-62168750D01*
X111355349Y-62188962D01*
X111346170Y-62208368D01*
X111335134Y-62226781D01*
X111322346Y-62244024D01*
X111307930Y-62259930D01*
X111292024Y-62274346D01*
X111274781Y-62287134D01*
X111256368Y-62298170D01*
X111236962Y-62307349D01*
X111216750Y-62314581D01*
X111195926Y-62319797D01*
X111174691Y-62322947D01*
X111153250Y-62324000D01*
X110715750Y-62324000D01*
X110694309Y-62322947D01*
X110673074Y-62319797D01*
X110652250Y-62314581D01*
X110632038Y-62307349D01*
X110612632Y-62298170D01*
X110594219Y-62287134D01*
X110576976Y-62274346D01*
X110561070Y-62259930D01*
X110546654Y-62244024D01*
X110533866Y-62226781D01*
X110522830Y-62208368D01*
X110513651Y-62188962D01*
X110506419Y-62168750D01*
X110501203Y-62147926D01*
X110498053Y-62126691D01*
X110497000Y-62105250D01*
X110497000Y-61592750D01*
X110498053Y-61571309D01*
X110501203Y-61550074D01*
X110506419Y-61529250D01*
X110513651Y-61509038D01*
X110522830Y-61489632D01*
X110533866Y-61471219D01*
X110546654Y-61453976D01*
X110561070Y-61438070D01*
X110576976Y-61423654D01*
X110594219Y-61410866D01*
X110612632Y-61399830D01*
X110632038Y-61390651D01*
X110652250Y-61383419D01*
X110673074Y-61378203D01*
X110694309Y-61375053D01*
X110715750Y-61374000D01*
X111153250Y-61374000D01*
X111174691Y-61375053D01*
X111174691Y-61375053D01*
G37*
D11*
X110934500Y-61849000D03*
G04 #@! TD*
D10*
G04 #@! TO.C,C11*
G36*
X109244191Y-51088053D02*
X109265426Y-51091203D01*
X109286250Y-51096419D01*
X109306462Y-51103651D01*
X109325868Y-51112830D01*
X109344281Y-51123866D01*
X109361524Y-51136654D01*
X109377430Y-51151070D01*
X109391846Y-51166976D01*
X109404634Y-51184219D01*
X109415670Y-51202632D01*
X109424849Y-51222038D01*
X109432081Y-51242250D01*
X109437297Y-51263074D01*
X109440447Y-51284309D01*
X109441500Y-51305750D01*
X109441500Y-51818250D01*
X109440447Y-51839691D01*
X109437297Y-51860926D01*
X109432081Y-51881750D01*
X109424849Y-51901962D01*
X109415670Y-51921368D01*
X109404634Y-51939781D01*
X109391846Y-51957024D01*
X109377430Y-51972930D01*
X109361524Y-51987346D01*
X109344281Y-52000134D01*
X109325868Y-52011170D01*
X109306462Y-52020349D01*
X109286250Y-52027581D01*
X109265426Y-52032797D01*
X109244191Y-52035947D01*
X109222750Y-52037000D01*
X108785250Y-52037000D01*
X108763809Y-52035947D01*
X108742574Y-52032797D01*
X108721750Y-52027581D01*
X108701538Y-52020349D01*
X108682132Y-52011170D01*
X108663719Y-52000134D01*
X108646476Y-51987346D01*
X108630570Y-51972930D01*
X108616154Y-51957024D01*
X108603366Y-51939781D01*
X108592330Y-51921368D01*
X108583151Y-51901962D01*
X108575919Y-51881750D01*
X108570703Y-51860926D01*
X108567553Y-51839691D01*
X108566500Y-51818250D01*
X108566500Y-51305750D01*
X108567553Y-51284309D01*
X108570703Y-51263074D01*
X108575919Y-51242250D01*
X108583151Y-51222038D01*
X108592330Y-51202632D01*
X108603366Y-51184219D01*
X108616154Y-51166976D01*
X108630570Y-51151070D01*
X108646476Y-51136654D01*
X108663719Y-51123866D01*
X108682132Y-51112830D01*
X108701538Y-51103651D01*
X108721750Y-51096419D01*
X108742574Y-51091203D01*
X108763809Y-51088053D01*
X108785250Y-51087000D01*
X109222750Y-51087000D01*
X109244191Y-51088053D01*
X109244191Y-51088053D01*
G37*
D11*
X109004000Y-51562000D03*
D10*
G36*
X110819191Y-51088053D02*
X110840426Y-51091203D01*
X110861250Y-51096419D01*
X110881462Y-51103651D01*
X110900868Y-51112830D01*
X110919281Y-51123866D01*
X110936524Y-51136654D01*
X110952430Y-51151070D01*
X110966846Y-51166976D01*
X110979634Y-51184219D01*
X110990670Y-51202632D01*
X110999849Y-51222038D01*
X111007081Y-51242250D01*
X111012297Y-51263074D01*
X111015447Y-51284309D01*
X111016500Y-51305750D01*
X111016500Y-51818250D01*
X111015447Y-51839691D01*
X111012297Y-51860926D01*
X111007081Y-51881750D01*
X110999849Y-51901962D01*
X110990670Y-51921368D01*
X110979634Y-51939781D01*
X110966846Y-51957024D01*
X110952430Y-51972930D01*
X110936524Y-51987346D01*
X110919281Y-52000134D01*
X110900868Y-52011170D01*
X110881462Y-52020349D01*
X110861250Y-52027581D01*
X110840426Y-52032797D01*
X110819191Y-52035947D01*
X110797750Y-52037000D01*
X110360250Y-52037000D01*
X110338809Y-52035947D01*
X110317574Y-52032797D01*
X110296750Y-52027581D01*
X110276538Y-52020349D01*
X110257132Y-52011170D01*
X110238719Y-52000134D01*
X110221476Y-51987346D01*
X110205570Y-51972930D01*
X110191154Y-51957024D01*
X110178366Y-51939781D01*
X110167330Y-51921368D01*
X110158151Y-51901962D01*
X110150919Y-51881750D01*
X110145703Y-51860926D01*
X110142553Y-51839691D01*
X110141500Y-51818250D01*
X110141500Y-51305750D01*
X110142553Y-51284309D01*
X110145703Y-51263074D01*
X110150919Y-51242250D01*
X110158151Y-51222038D01*
X110167330Y-51202632D01*
X110178366Y-51184219D01*
X110191154Y-51166976D01*
X110205570Y-51151070D01*
X110221476Y-51136654D01*
X110238719Y-51123866D01*
X110257132Y-51112830D01*
X110276538Y-51103651D01*
X110296750Y-51096419D01*
X110317574Y-51091203D01*
X110338809Y-51088053D01*
X110360250Y-51087000D01*
X110797750Y-51087000D01*
X110819191Y-51088053D01*
X110819191Y-51088053D01*
G37*
D11*
X110579000Y-51562000D03*
G04 #@! TD*
D10*
G04 #@! TO.C,R1*
G36*
X123023191Y-64105053D02*
X123044426Y-64108203D01*
X123065250Y-64113419D01*
X123085462Y-64120651D01*
X123104868Y-64129830D01*
X123123281Y-64140866D01*
X123140524Y-64153654D01*
X123156430Y-64168070D01*
X123170846Y-64183976D01*
X123183634Y-64201219D01*
X123194670Y-64219632D01*
X123203849Y-64239038D01*
X123211081Y-64259250D01*
X123216297Y-64280074D01*
X123219447Y-64301309D01*
X123220500Y-64322750D01*
X123220500Y-64760250D01*
X123219447Y-64781691D01*
X123216297Y-64802926D01*
X123211081Y-64823750D01*
X123203849Y-64843962D01*
X123194670Y-64863368D01*
X123183634Y-64881781D01*
X123170846Y-64899024D01*
X123156430Y-64914930D01*
X123140524Y-64929346D01*
X123123281Y-64942134D01*
X123104868Y-64953170D01*
X123085462Y-64962349D01*
X123065250Y-64969581D01*
X123044426Y-64974797D01*
X123023191Y-64977947D01*
X123001750Y-64979000D01*
X122489250Y-64979000D01*
X122467809Y-64977947D01*
X122446574Y-64974797D01*
X122425750Y-64969581D01*
X122405538Y-64962349D01*
X122386132Y-64953170D01*
X122367719Y-64942134D01*
X122350476Y-64929346D01*
X122334570Y-64914930D01*
X122320154Y-64899024D01*
X122307366Y-64881781D01*
X122296330Y-64863368D01*
X122287151Y-64843962D01*
X122279919Y-64823750D01*
X122274703Y-64802926D01*
X122271553Y-64781691D01*
X122270500Y-64760250D01*
X122270500Y-64322750D01*
X122271553Y-64301309D01*
X122274703Y-64280074D01*
X122279919Y-64259250D01*
X122287151Y-64239038D01*
X122296330Y-64219632D01*
X122307366Y-64201219D01*
X122320154Y-64183976D01*
X122334570Y-64168070D01*
X122350476Y-64153654D01*
X122367719Y-64140866D01*
X122386132Y-64129830D01*
X122405538Y-64120651D01*
X122425750Y-64113419D01*
X122446574Y-64108203D01*
X122467809Y-64105053D01*
X122489250Y-64104000D01*
X123001750Y-64104000D01*
X123023191Y-64105053D01*
X123023191Y-64105053D01*
G37*
D11*
X122745500Y-64541500D03*
D10*
G36*
X123023191Y-62530053D02*
X123044426Y-62533203D01*
X123065250Y-62538419D01*
X123085462Y-62545651D01*
X123104868Y-62554830D01*
X123123281Y-62565866D01*
X123140524Y-62578654D01*
X123156430Y-62593070D01*
X123170846Y-62608976D01*
X123183634Y-62626219D01*
X123194670Y-62644632D01*
X123203849Y-62664038D01*
X123211081Y-62684250D01*
X123216297Y-62705074D01*
X123219447Y-62726309D01*
X123220500Y-62747750D01*
X123220500Y-63185250D01*
X123219447Y-63206691D01*
X123216297Y-63227926D01*
X123211081Y-63248750D01*
X123203849Y-63268962D01*
X123194670Y-63288368D01*
X123183634Y-63306781D01*
X123170846Y-63324024D01*
X123156430Y-63339930D01*
X123140524Y-63354346D01*
X123123281Y-63367134D01*
X123104868Y-63378170D01*
X123085462Y-63387349D01*
X123065250Y-63394581D01*
X123044426Y-63399797D01*
X123023191Y-63402947D01*
X123001750Y-63404000D01*
X122489250Y-63404000D01*
X122467809Y-63402947D01*
X122446574Y-63399797D01*
X122425750Y-63394581D01*
X122405538Y-63387349D01*
X122386132Y-63378170D01*
X122367719Y-63367134D01*
X122350476Y-63354346D01*
X122334570Y-63339930D01*
X122320154Y-63324024D01*
X122307366Y-63306781D01*
X122296330Y-63288368D01*
X122287151Y-63268962D01*
X122279919Y-63248750D01*
X122274703Y-63227926D01*
X122271553Y-63206691D01*
X122270500Y-63185250D01*
X122270500Y-62747750D01*
X122271553Y-62726309D01*
X122274703Y-62705074D01*
X122279919Y-62684250D01*
X122287151Y-62664038D01*
X122296330Y-62644632D01*
X122307366Y-62626219D01*
X122320154Y-62608976D01*
X122334570Y-62593070D01*
X122350476Y-62578654D01*
X122367719Y-62565866D01*
X122386132Y-62554830D01*
X122405538Y-62545651D01*
X122425750Y-62538419D01*
X122446574Y-62533203D01*
X122467809Y-62530053D01*
X122489250Y-62529000D01*
X123001750Y-62529000D01*
X123023191Y-62530053D01*
X123023191Y-62530053D01*
G37*
D11*
X122745500Y-62966500D03*
G04 #@! TD*
D10*
G04 #@! TO.C,R2*
G36*
X128738191Y-60472553D02*
X128759426Y-60475703D01*
X128780250Y-60480919D01*
X128800462Y-60488151D01*
X128819868Y-60497330D01*
X128838281Y-60508366D01*
X128855524Y-60521154D01*
X128871430Y-60535570D01*
X128885846Y-60551476D01*
X128898634Y-60568719D01*
X128909670Y-60587132D01*
X128918849Y-60606538D01*
X128926081Y-60626750D01*
X128931297Y-60647574D01*
X128934447Y-60668809D01*
X128935500Y-60690250D01*
X128935500Y-61127750D01*
X128934447Y-61149191D01*
X128931297Y-61170426D01*
X128926081Y-61191250D01*
X128918849Y-61211462D01*
X128909670Y-61230868D01*
X128898634Y-61249281D01*
X128885846Y-61266524D01*
X128871430Y-61282430D01*
X128855524Y-61296846D01*
X128838281Y-61309634D01*
X128819868Y-61320670D01*
X128800462Y-61329849D01*
X128780250Y-61337081D01*
X128759426Y-61342297D01*
X128738191Y-61345447D01*
X128716750Y-61346500D01*
X128204250Y-61346500D01*
X128182809Y-61345447D01*
X128161574Y-61342297D01*
X128140750Y-61337081D01*
X128120538Y-61329849D01*
X128101132Y-61320670D01*
X128082719Y-61309634D01*
X128065476Y-61296846D01*
X128049570Y-61282430D01*
X128035154Y-61266524D01*
X128022366Y-61249281D01*
X128011330Y-61230868D01*
X128002151Y-61211462D01*
X127994919Y-61191250D01*
X127989703Y-61170426D01*
X127986553Y-61149191D01*
X127985500Y-61127750D01*
X127985500Y-60690250D01*
X127986553Y-60668809D01*
X127989703Y-60647574D01*
X127994919Y-60626750D01*
X128002151Y-60606538D01*
X128011330Y-60587132D01*
X128022366Y-60568719D01*
X128035154Y-60551476D01*
X128049570Y-60535570D01*
X128065476Y-60521154D01*
X128082719Y-60508366D01*
X128101132Y-60497330D01*
X128120538Y-60488151D01*
X128140750Y-60480919D01*
X128161574Y-60475703D01*
X128182809Y-60472553D01*
X128204250Y-60471500D01*
X128716750Y-60471500D01*
X128738191Y-60472553D01*
X128738191Y-60472553D01*
G37*
D11*
X128460500Y-60909000D03*
D10*
G36*
X128738191Y-62047553D02*
X128759426Y-62050703D01*
X128780250Y-62055919D01*
X128800462Y-62063151D01*
X128819868Y-62072330D01*
X128838281Y-62083366D01*
X128855524Y-62096154D01*
X128871430Y-62110570D01*
X128885846Y-62126476D01*
X128898634Y-62143719D01*
X128909670Y-62162132D01*
X128918849Y-62181538D01*
X128926081Y-62201750D01*
X128931297Y-62222574D01*
X128934447Y-62243809D01*
X128935500Y-62265250D01*
X128935500Y-62702750D01*
X128934447Y-62724191D01*
X128931297Y-62745426D01*
X128926081Y-62766250D01*
X128918849Y-62786462D01*
X128909670Y-62805868D01*
X128898634Y-62824281D01*
X128885846Y-62841524D01*
X128871430Y-62857430D01*
X128855524Y-62871846D01*
X128838281Y-62884634D01*
X128819868Y-62895670D01*
X128800462Y-62904849D01*
X128780250Y-62912081D01*
X128759426Y-62917297D01*
X128738191Y-62920447D01*
X128716750Y-62921500D01*
X128204250Y-62921500D01*
X128182809Y-62920447D01*
X128161574Y-62917297D01*
X128140750Y-62912081D01*
X128120538Y-62904849D01*
X128101132Y-62895670D01*
X128082719Y-62884634D01*
X128065476Y-62871846D01*
X128049570Y-62857430D01*
X128035154Y-62841524D01*
X128022366Y-62824281D01*
X128011330Y-62805868D01*
X128002151Y-62786462D01*
X127994919Y-62766250D01*
X127989703Y-62745426D01*
X127986553Y-62724191D01*
X127985500Y-62702750D01*
X127985500Y-62265250D01*
X127986553Y-62243809D01*
X127989703Y-62222574D01*
X127994919Y-62201750D01*
X128002151Y-62181538D01*
X128011330Y-62162132D01*
X128022366Y-62143719D01*
X128035154Y-62126476D01*
X128049570Y-62110570D01*
X128065476Y-62096154D01*
X128082719Y-62083366D01*
X128101132Y-62072330D01*
X128120538Y-62063151D01*
X128140750Y-62055919D01*
X128161574Y-62050703D01*
X128182809Y-62047553D01*
X128204250Y-62046500D01*
X128716750Y-62046500D01*
X128738191Y-62047553D01*
X128738191Y-62047553D01*
G37*
D11*
X128460500Y-62484000D03*
G04 #@! TD*
D10*
G04 #@! TO.C,R3*
G36*
X127887691Y-67217053D02*
X127908926Y-67220203D01*
X127929750Y-67225419D01*
X127949962Y-67232651D01*
X127969368Y-67241830D01*
X127987781Y-67252866D01*
X128005024Y-67265654D01*
X128020930Y-67280070D01*
X128035346Y-67295976D01*
X128048134Y-67313219D01*
X128059170Y-67331632D01*
X128068349Y-67351038D01*
X128075581Y-67371250D01*
X128080797Y-67392074D01*
X128083947Y-67413309D01*
X128085000Y-67434750D01*
X128085000Y-67947250D01*
X128083947Y-67968691D01*
X128080797Y-67989926D01*
X128075581Y-68010750D01*
X128068349Y-68030962D01*
X128059170Y-68050368D01*
X128048134Y-68068781D01*
X128035346Y-68086024D01*
X128020930Y-68101930D01*
X128005024Y-68116346D01*
X127987781Y-68129134D01*
X127969368Y-68140170D01*
X127949962Y-68149349D01*
X127929750Y-68156581D01*
X127908926Y-68161797D01*
X127887691Y-68164947D01*
X127866250Y-68166000D01*
X127428750Y-68166000D01*
X127407309Y-68164947D01*
X127386074Y-68161797D01*
X127365250Y-68156581D01*
X127345038Y-68149349D01*
X127325632Y-68140170D01*
X127307219Y-68129134D01*
X127289976Y-68116346D01*
X127274070Y-68101930D01*
X127259654Y-68086024D01*
X127246866Y-68068781D01*
X127235830Y-68050368D01*
X127226651Y-68030962D01*
X127219419Y-68010750D01*
X127214203Y-67989926D01*
X127211053Y-67968691D01*
X127210000Y-67947250D01*
X127210000Y-67434750D01*
X127211053Y-67413309D01*
X127214203Y-67392074D01*
X127219419Y-67371250D01*
X127226651Y-67351038D01*
X127235830Y-67331632D01*
X127246866Y-67313219D01*
X127259654Y-67295976D01*
X127274070Y-67280070D01*
X127289976Y-67265654D01*
X127307219Y-67252866D01*
X127325632Y-67241830D01*
X127345038Y-67232651D01*
X127365250Y-67225419D01*
X127386074Y-67220203D01*
X127407309Y-67217053D01*
X127428750Y-67216000D01*
X127866250Y-67216000D01*
X127887691Y-67217053D01*
X127887691Y-67217053D01*
G37*
D11*
X127647500Y-67691000D03*
D10*
G36*
X129462691Y-67217053D02*
X129483926Y-67220203D01*
X129504750Y-67225419D01*
X129524962Y-67232651D01*
X129544368Y-67241830D01*
X129562781Y-67252866D01*
X129580024Y-67265654D01*
X129595930Y-67280070D01*
X129610346Y-67295976D01*
X129623134Y-67313219D01*
X129634170Y-67331632D01*
X129643349Y-67351038D01*
X129650581Y-67371250D01*
X129655797Y-67392074D01*
X129658947Y-67413309D01*
X129660000Y-67434750D01*
X129660000Y-67947250D01*
X129658947Y-67968691D01*
X129655797Y-67989926D01*
X129650581Y-68010750D01*
X129643349Y-68030962D01*
X129634170Y-68050368D01*
X129623134Y-68068781D01*
X129610346Y-68086024D01*
X129595930Y-68101930D01*
X129580024Y-68116346D01*
X129562781Y-68129134D01*
X129544368Y-68140170D01*
X129524962Y-68149349D01*
X129504750Y-68156581D01*
X129483926Y-68161797D01*
X129462691Y-68164947D01*
X129441250Y-68166000D01*
X129003750Y-68166000D01*
X128982309Y-68164947D01*
X128961074Y-68161797D01*
X128940250Y-68156581D01*
X128920038Y-68149349D01*
X128900632Y-68140170D01*
X128882219Y-68129134D01*
X128864976Y-68116346D01*
X128849070Y-68101930D01*
X128834654Y-68086024D01*
X128821866Y-68068781D01*
X128810830Y-68050368D01*
X128801651Y-68030962D01*
X128794419Y-68010750D01*
X128789203Y-67989926D01*
X128786053Y-67968691D01*
X128785000Y-67947250D01*
X128785000Y-67434750D01*
X128786053Y-67413309D01*
X128789203Y-67392074D01*
X128794419Y-67371250D01*
X128801651Y-67351038D01*
X128810830Y-67331632D01*
X128821866Y-67313219D01*
X128834654Y-67295976D01*
X128849070Y-67280070D01*
X128864976Y-67265654D01*
X128882219Y-67252866D01*
X128900632Y-67241830D01*
X128920038Y-67232651D01*
X128940250Y-67225419D01*
X128961074Y-67220203D01*
X128982309Y-67217053D01*
X129003750Y-67216000D01*
X129441250Y-67216000D01*
X129462691Y-67217053D01*
X129462691Y-67217053D01*
G37*
D11*
X129222500Y-67691000D03*
G04 #@! TD*
D10*
G04 #@! TO.C,R4*
G36*
X134072191Y-62377553D02*
X134093426Y-62380703D01*
X134114250Y-62385919D01*
X134134462Y-62393151D01*
X134153868Y-62402330D01*
X134172281Y-62413366D01*
X134189524Y-62426154D01*
X134205430Y-62440570D01*
X134219846Y-62456476D01*
X134232634Y-62473719D01*
X134243670Y-62492132D01*
X134252849Y-62511538D01*
X134260081Y-62531750D01*
X134265297Y-62552574D01*
X134268447Y-62573809D01*
X134269500Y-62595250D01*
X134269500Y-63032750D01*
X134268447Y-63054191D01*
X134265297Y-63075426D01*
X134260081Y-63096250D01*
X134252849Y-63116462D01*
X134243670Y-63135868D01*
X134232634Y-63154281D01*
X134219846Y-63171524D01*
X134205430Y-63187430D01*
X134189524Y-63201846D01*
X134172281Y-63214634D01*
X134153868Y-63225670D01*
X134134462Y-63234849D01*
X134114250Y-63242081D01*
X134093426Y-63247297D01*
X134072191Y-63250447D01*
X134050750Y-63251500D01*
X133538250Y-63251500D01*
X133516809Y-63250447D01*
X133495574Y-63247297D01*
X133474750Y-63242081D01*
X133454538Y-63234849D01*
X133435132Y-63225670D01*
X133416719Y-63214634D01*
X133399476Y-63201846D01*
X133383570Y-63187430D01*
X133369154Y-63171524D01*
X133356366Y-63154281D01*
X133345330Y-63135868D01*
X133336151Y-63116462D01*
X133328919Y-63096250D01*
X133323703Y-63075426D01*
X133320553Y-63054191D01*
X133319500Y-63032750D01*
X133319500Y-62595250D01*
X133320553Y-62573809D01*
X133323703Y-62552574D01*
X133328919Y-62531750D01*
X133336151Y-62511538D01*
X133345330Y-62492132D01*
X133356366Y-62473719D01*
X133369154Y-62456476D01*
X133383570Y-62440570D01*
X133399476Y-62426154D01*
X133416719Y-62413366D01*
X133435132Y-62402330D01*
X133454538Y-62393151D01*
X133474750Y-62385919D01*
X133495574Y-62380703D01*
X133516809Y-62377553D01*
X133538250Y-62376500D01*
X134050750Y-62376500D01*
X134072191Y-62377553D01*
X134072191Y-62377553D01*
G37*
D11*
X133794500Y-62814000D03*
D10*
G36*
X134072191Y-63952553D02*
X134093426Y-63955703D01*
X134114250Y-63960919D01*
X134134462Y-63968151D01*
X134153868Y-63977330D01*
X134172281Y-63988366D01*
X134189524Y-64001154D01*
X134205430Y-64015570D01*
X134219846Y-64031476D01*
X134232634Y-64048719D01*
X134243670Y-64067132D01*
X134252849Y-64086538D01*
X134260081Y-64106750D01*
X134265297Y-64127574D01*
X134268447Y-64148809D01*
X134269500Y-64170250D01*
X134269500Y-64607750D01*
X134268447Y-64629191D01*
X134265297Y-64650426D01*
X134260081Y-64671250D01*
X134252849Y-64691462D01*
X134243670Y-64710868D01*
X134232634Y-64729281D01*
X134219846Y-64746524D01*
X134205430Y-64762430D01*
X134189524Y-64776846D01*
X134172281Y-64789634D01*
X134153868Y-64800670D01*
X134134462Y-64809849D01*
X134114250Y-64817081D01*
X134093426Y-64822297D01*
X134072191Y-64825447D01*
X134050750Y-64826500D01*
X133538250Y-64826500D01*
X133516809Y-64825447D01*
X133495574Y-64822297D01*
X133474750Y-64817081D01*
X133454538Y-64809849D01*
X133435132Y-64800670D01*
X133416719Y-64789634D01*
X133399476Y-64776846D01*
X133383570Y-64762430D01*
X133369154Y-64746524D01*
X133356366Y-64729281D01*
X133345330Y-64710868D01*
X133336151Y-64691462D01*
X133328919Y-64671250D01*
X133323703Y-64650426D01*
X133320553Y-64629191D01*
X133319500Y-64607750D01*
X133319500Y-64170250D01*
X133320553Y-64148809D01*
X133323703Y-64127574D01*
X133328919Y-64106750D01*
X133336151Y-64086538D01*
X133345330Y-64067132D01*
X133356366Y-64048719D01*
X133369154Y-64031476D01*
X133383570Y-64015570D01*
X133399476Y-64001154D01*
X133416719Y-63988366D01*
X133435132Y-63977330D01*
X133454538Y-63968151D01*
X133474750Y-63960919D01*
X133495574Y-63955703D01*
X133516809Y-63952553D01*
X133538250Y-63951500D01*
X134050750Y-63951500D01*
X134072191Y-63952553D01*
X134072191Y-63952553D01*
G37*
D11*
X133794500Y-64389000D03*
G04 #@! TD*
D12*
G04 #@! TO.C,U2*
X124860500Y-75950000D03*
X124860500Y-75300000D03*
X124860500Y-74650000D03*
X124860500Y-74000000D03*
X124860500Y-73350000D03*
X124860500Y-72700000D03*
X124860500Y-72050000D03*
X124860500Y-71400000D03*
X124860500Y-70750000D03*
X124860500Y-70100000D03*
X132060500Y-70100000D03*
X132060500Y-70750000D03*
X132060500Y-71400000D03*
X132060500Y-72050000D03*
X132060500Y-72700000D03*
X132060500Y-73350000D03*
X132060500Y-74000000D03*
X132060500Y-74650000D03*
X132060500Y-75300000D03*
X132060500Y-75950000D03*
G04 #@! TD*
D10*
G04 #@! TO.C,C4*
G36*
X138276691Y-80679053D02*
X138297926Y-80682203D01*
X138318750Y-80687419D01*
X138338962Y-80694651D01*
X138358368Y-80703830D01*
X138376781Y-80714866D01*
X138394024Y-80727654D01*
X138409930Y-80742070D01*
X138424346Y-80757976D01*
X138437134Y-80775219D01*
X138448170Y-80793632D01*
X138457349Y-80813038D01*
X138464581Y-80833250D01*
X138469797Y-80854074D01*
X138472947Y-80875309D01*
X138474000Y-80896750D01*
X138474000Y-81409250D01*
X138472947Y-81430691D01*
X138469797Y-81451926D01*
X138464581Y-81472750D01*
X138457349Y-81492962D01*
X138448170Y-81512368D01*
X138437134Y-81530781D01*
X138424346Y-81548024D01*
X138409930Y-81563930D01*
X138394024Y-81578346D01*
X138376781Y-81591134D01*
X138358368Y-81602170D01*
X138338962Y-81611349D01*
X138318750Y-81618581D01*
X138297926Y-81623797D01*
X138276691Y-81626947D01*
X138255250Y-81628000D01*
X137817750Y-81628000D01*
X137796309Y-81626947D01*
X137775074Y-81623797D01*
X137754250Y-81618581D01*
X137734038Y-81611349D01*
X137714632Y-81602170D01*
X137696219Y-81591134D01*
X137678976Y-81578346D01*
X137663070Y-81563930D01*
X137648654Y-81548024D01*
X137635866Y-81530781D01*
X137624830Y-81512368D01*
X137615651Y-81492962D01*
X137608419Y-81472750D01*
X137603203Y-81451926D01*
X137600053Y-81430691D01*
X137599000Y-81409250D01*
X137599000Y-80896750D01*
X137600053Y-80875309D01*
X137603203Y-80854074D01*
X137608419Y-80833250D01*
X137615651Y-80813038D01*
X137624830Y-80793632D01*
X137635866Y-80775219D01*
X137648654Y-80757976D01*
X137663070Y-80742070D01*
X137678976Y-80727654D01*
X137696219Y-80714866D01*
X137714632Y-80703830D01*
X137734038Y-80694651D01*
X137754250Y-80687419D01*
X137775074Y-80682203D01*
X137796309Y-80679053D01*
X137817750Y-80678000D01*
X138255250Y-80678000D01*
X138276691Y-80679053D01*
X138276691Y-80679053D01*
G37*
D11*
X138036500Y-81153000D03*
D10*
G36*
X136701691Y-80679053D02*
X136722926Y-80682203D01*
X136743750Y-80687419D01*
X136763962Y-80694651D01*
X136783368Y-80703830D01*
X136801781Y-80714866D01*
X136819024Y-80727654D01*
X136834930Y-80742070D01*
X136849346Y-80757976D01*
X136862134Y-80775219D01*
X136873170Y-80793632D01*
X136882349Y-80813038D01*
X136889581Y-80833250D01*
X136894797Y-80854074D01*
X136897947Y-80875309D01*
X136899000Y-80896750D01*
X136899000Y-81409250D01*
X136897947Y-81430691D01*
X136894797Y-81451926D01*
X136889581Y-81472750D01*
X136882349Y-81492962D01*
X136873170Y-81512368D01*
X136862134Y-81530781D01*
X136849346Y-81548024D01*
X136834930Y-81563930D01*
X136819024Y-81578346D01*
X136801781Y-81591134D01*
X136783368Y-81602170D01*
X136763962Y-81611349D01*
X136743750Y-81618581D01*
X136722926Y-81623797D01*
X136701691Y-81626947D01*
X136680250Y-81628000D01*
X136242750Y-81628000D01*
X136221309Y-81626947D01*
X136200074Y-81623797D01*
X136179250Y-81618581D01*
X136159038Y-81611349D01*
X136139632Y-81602170D01*
X136121219Y-81591134D01*
X136103976Y-81578346D01*
X136088070Y-81563930D01*
X136073654Y-81548024D01*
X136060866Y-81530781D01*
X136049830Y-81512368D01*
X136040651Y-81492962D01*
X136033419Y-81472750D01*
X136028203Y-81451926D01*
X136025053Y-81430691D01*
X136024000Y-81409250D01*
X136024000Y-80896750D01*
X136025053Y-80875309D01*
X136028203Y-80854074D01*
X136033419Y-80833250D01*
X136040651Y-80813038D01*
X136049830Y-80793632D01*
X136060866Y-80775219D01*
X136073654Y-80757976D01*
X136088070Y-80742070D01*
X136103976Y-80727654D01*
X136121219Y-80714866D01*
X136139632Y-80703830D01*
X136159038Y-80694651D01*
X136179250Y-80687419D01*
X136200074Y-80682203D01*
X136221309Y-80679053D01*
X136242750Y-80678000D01*
X136680250Y-80678000D01*
X136701691Y-80679053D01*
X136701691Y-80679053D01*
G37*
D11*
X136461500Y-81153000D03*
G04 #@! TD*
D10*
G04 #@! TO.C,R6*
G36*
X131596191Y-80679053D02*
X131617426Y-80682203D01*
X131638250Y-80687419D01*
X131658462Y-80694651D01*
X131677868Y-80703830D01*
X131696281Y-80714866D01*
X131713524Y-80727654D01*
X131729430Y-80742070D01*
X131743846Y-80757976D01*
X131756634Y-80775219D01*
X131767670Y-80793632D01*
X131776849Y-80813038D01*
X131784081Y-80833250D01*
X131789297Y-80854074D01*
X131792447Y-80875309D01*
X131793500Y-80896750D01*
X131793500Y-81409250D01*
X131792447Y-81430691D01*
X131789297Y-81451926D01*
X131784081Y-81472750D01*
X131776849Y-81492962D01*
X131767670Y-81512368D01*
X131756634Y-81530781D01*
X131743846Y-81548024D01*
X131729430Y-81563930D01*
X131713524Y-81578346D01*
X131696281Y-81591134D01*
X131677868Y-81602170D01*
X131658462Y-81611349D01*
X131638250Y-81618581D01*
X131617426Y-81623797D01*
X131596191Y-81626947D01*
X131574750Y-81628000D01*
X131137250Y-81628000D01*
X131115809Y-81626947D01*
X131094574Y-81623797D01*
X131073750Y-81618581D01*
X131053538Y-81611349D01*
X131034132Y-81602170D01*
X131015719Y-81591134D01*
X130998476Y-81578346D01*
X130982570Y-81563930D01*
X130968154Y-81548024D01*
X130955366Y-81530781D01*
X130944330Y-81512368D01*
X130935151Y-81492962D01*
X130927919Y-81472750D01*
X130922703Y-81451926D01*
X130919553Y-81430691D01*
X130918500Y-81409250D01*
X130918500Y-80896750D01*
X130919553Y-80875309D01*
X130922703Y-80854074D01*
X130927919Y-80833250D01*
X130935151Y-80813038D01*
X130944330Y-80793632D01*
X130955366Y-80775219D01*
X130968154Y-80757976D01*
X130982570Y-80742070D01*
X130998476Y-80727654D01*
X131015719Y-80714866D01*
X131034132Y-80703830D01*
X131053538Y-80694651D01*
X131073750Y-80687419D01*
X131094574Y-80682203D01*
X131115809Y-80679053D01*
X131137250Y-80678000D01*
X131574750Y-80678000D01*
X131596191Y-80679053D01*
X131596191Y-80679053D01*
G37*
D11*
X131356000Y-81153000D03*
D10*
G36*
X133171191Y-80679053D02*
X133192426Y-80682203D01*
X133213250Y-80687419D01*
X133233462Y-80694651D01*
X133252868Y-80703830D01*
X133271281Y-80714866D01*
X133288524Y-80727654D01*
X133304430Y-80742070D01*
X133318846Y-80757976D01*
X133331634Y-80775219D01*
X133342670Y-80793632D01*
X133351849Y-80813038D01*
X133359081Y-80833250D01*
X133364297Y-80854074D01*
X133367447Y-80875309D01*
X133368500Y-80896750D01*
X133368500Y-81409250D01*
X133367447Y-81430691D01*
X133364297Y-81451926D01*
X133359081Y-81472750D01*
X133351849Y-81492962D01*
X133342670Y-81512368D01*
X133331634Y-81530781D01*
X133318846Y-81548024D01*
X133304430Y-81563930D01*
X133288524Y-81578346D01*
X133271281Y-81591134D01*
X133252868Y-81602170D01*
X133233462Y-81611349D01*
X133213250Y-81618581D01*
X133192426Y-81623797D01*
X133171191Y-81626947D01*
X133149750Y-81628000D01*
X132712250Y-81628000D01*
X132690809Y-81626947D01*
X132669574Y-81623797D01*
X132648750Y-81618581D01*
X132628538Y-81611349D01*
X132609132Y-81602170D01*
X132590719Y-81591134D01*
X132573476Y-81578346D01*
X132557570Y-81563930D01*
X132543154Y-81548024D01*
X132530366Y-81530781D01*
X132519330Y-81512368D01*
X132510151Y-81492962D01*
X132502919Y-81472750D01*
X132497703Y-81451926D01*
X132494553Y-81430691D01*
X132493500Y-81409250D01*
X132493500Y-80896750D01*
X132494553Y-80875309D01*
X132497703Y-80854074D01*
X132502919Y-80833250D01*
X132510151Y-80813038D01*
X132519330Y-80793632D01*
X132530366Y-80775219D01*
X132543154Y-80757976D01*
X132557570Y-80742070D01*
X132573476Y-80727654D01*
X132590719Y-80714866D01*
X132609132Y-80703830D01*
X132628538Y-80694651D01*
X132648750Y-80687419D01*
X132669574Y-80682203D01*
X132690809Y-80679053D01*
X132712250Y-80678000D01*
X133149750Y-80678000D01*
X133171191Y-80679053D01*
X133171191Y-80679053D01*
G37*
D11*
X132931000Y-81153000D03*
G04 #@! TD*
D13*
G04 #@! TO.C,U3*
X136461500Y-91186000D03*
X128841500Y-83566000D03*
X133921500Y-91186000D03*
X131381500Y-83566000D03*
X131381500Y-91186000D03*
X133921500Y-83566000D03*
X128841500Y-91186000D03*
X136461500Y-83566000D03*
G04 #@! TD*
D14*
G04 #@! TO.C,U1*
X105432500Y-81772000D03*
X105432500Y-81272000D03*
X105432500Y-80772000D03*
X105432500Y-80272000D03*
X105432500Y-79772000D03*
X109832500Y-79772000D03*
X109832500Y-80272000D03*
X109832500Y-80772000D03*
X109832500Y-81272000D03*
X109832500Y-81772000D03*
G04 #@! TD*
M02*
