G04 #@! TF.GenerationSoftware,KiCad,Pcbnew,(5.0.2)-1*
G04 #@! TF.CreationDate,2019-02-15T13:53:22+00:00*
G04 #@! TF.ProjectId,panel,70616e65-6c2e-46b6-9963-61645f706362,rev?*
G04 #@! TF.SameCoordinates,Original*
G04 #@! TF.FileFunction,Copper,L2,Bot*
G04 #@! TF.FilePolarity,Positive*
%FSLAX46Y46*%
G04 Gerber Fmt 4.6, Leading zero omitted, Abs format (unit mm)*
G04 Created by KiCad (PCBNEW (5.0.2)-1) date 15/02/2019 13:53:22*
%MOMM*%
%LPD*%
G01*
G04 APERTURE LIST*
G04 #@! TA.AperFunction,ComponentPad*
%ADD10R,1.700000X1.700000*%
G04 #@! TD*
G04 #@! TA.AperFunction,ComponentPad*
%ADD11O,1.700000X1.700000*%
G04 #@! TD*
G04 #@! TA.AperFunction,Conductor*
%ADD12C,0.100000*%
G04 #@! TD*
G04 #@! TA.AperFunction,SMDPad,CuDef*
%ADD13C,0.875000*%
G04 #@! TD*
G04 #@! TA.AperFunction,ComponentPad*
%ADD14C,2.500000*%
G04 #@! TD*
G04 #@! TA.AperFunction,ComponentPad*
%ADD15R,3.000000X3.000000*%
G04 #@! TD*
G04 #@! TA.AperFunction,ComponentPad*
%ADD16C,2.000000*%
G04 #@! TD*
G04 #@! TA.AperFunction,ComponentPad*
%ADD17C,1.500000*%
G04 #@! TD*
G04 #@! TA.AperFunction,ComponentPad*
%ADD18C,1.450000*%
G04 #@! TD*
G04 #@! TA.AperFunction,ComponentPad*
%ADD19O,1.200000X1.900000*%
G04 #@! TD*
G04 #@! TA.AperFunction,SMDPad,CuDef*
%ADD20R,1.750000X0.450000*%
G04 #@! TD*
G04 #@! TA.AperFunction,ComponentPad*
%ADD21C,1.800000*%
G04 #@! TD*
G04 #@! TA.AperFunction,WasherPad*
%ADD22C,4.000000*%
G04 #@! TD*
G04 #@! TA.AperFunction,SMDPad,CuDef*
%ADD23R,1.600000X1.600000*%
G04 #@! TD*
G04 #@! TA.AperFunction,ComponentPad*
%ADD24R,2.000000X1.905000*%
G04 #@! TD*
G04 #@! TA.AperFunction,ComponentPad*
%ADD25O,2.000000X1.905000*%
G04 #@! TD*
G04 #@! TA.AperFunction,SMDPad,CuDef*
%ADD26R,1.400000X0.300000*%
G04 #@! TD*
G04 #@! TA.AperFunction,ComponentPad*
%ADD27R,1.600000X1.600000*%
G04 #@! TD*
G04 #@! TA.AperFunction,ComponentPad*
%ADD28O,1.600000X1.600000*%
G04 #@! TD*
G04 #@! TA.AperFunction,ComponentPad*
%ADD29C,1.524000*%
G04 #@! TD*
G04 #@! TA.AperFunction,ComponentPad*
%ADD30C,3.000000*%
G04 #@! TD*
G04 #@! TA.AperFunction,ComponentPad*
%ADD31R,1.500000X2.500000*%
G04 #@! TD*
G04 #@! TA.AperFunction,ViaPad*
%ADD32C,0.800000*%
G04 #@! TD*
G04 #@! TA.AperFunction,Conductor*
%ADD33C,0.250000*%
G04 #@! TD*
G04 #@! TA.AperFunction,Conductor*
%ADD34C,0.254000*%
G04 #@! TD*
G04 APERTURE END LIST*
D10*
G04 #@! TO.P,J1,1*
G04 #@! TO.N,MCLR*
X116014500Y-87757000D03*
D11*
G04 #@! TO.P,J1,2*
G04 #@! TO.N,VDD*
X116014500Y-85217000D03*
G04 #@! TO.P,J1,3*
G04 #@! TO.N,BAT-*
X116014500Y-82677000D03*
G04 #@! TO.P,J1,4*
G04 #@! TO.N,PGD*
X116014500Y-80137000D03*
G04 #@! TO.P,J1,5*
G04 #@! TO.N,B2*
X116014500Y-77597000D03*
G04 #@! TD*
D12*
G04 #@! TO.N,VDD*
G04 #@! TO.C,4k1*
G36*
X149820191Y-64155553D02*
X149841426Y-64158703D01*
X149862250Y-64163919D01*
X149882462Y-64171151D01*
X149901868Y-64180330D01*
X149920281Y-64191366D01*
X149937524Y-64204154D01*
X149953430Y-64218570D01*
X149967846Y-64234476D01*
X149980634Y-64251719D01*
X149991670Y-64270132D01*
X150000849Y-64289538D01*
X150008081Y-64309750D01*
X150013297Y-64330574D01*
X150016447Y-64351809D01*
X150017500Y-64373250D01*
X150017500Y-64810750D01*
X150016447Y-64832191D01*
X150013297Y-64853426D01*
X150008081Y-64874250D01*
X150000849Y-64894462D01*
X149991670Y-64913868D01*
X149980634Y-64932281D01*
X149967846Y-64949524D01*
X149953430Y-64965430D01*
X149937524Y-64979846D01*
X149920281Y-64992634D01*
X149901868Y-65003670D01*
X149882462Y-65012849D01*
X149862250Y-65020081D01*
X149841426Y-65025297D01*
X149820191Y-65028447D01*
X149798750Y-65029500D01*
X149286250Y-65029500D01*
X149264809Y-65028447D01*
X149243574Y-65025297D01*
X149222750Y-65020081D01*
X149202538Y-65012849D01*
X149183132Y-65003670D01*
X149164719Y-64992634D01*
X149147476Y-64979846D01*
X149131570Y-64965430D01*
X149117154Y-64949524D01*
X149104366Y-64932281D01*
X149093330Y-64913868D01*
X149084151Y-64894462D01*
X149076919Y-64874250D01*
X149071703Y-64853426D01*
X149068553Y-64832191D01*
X149067500Y-64810750D01*
X149067500Y-64373250D01*
X149068553Y-64351809D01*
X149071703Y-64330574D01*
X149076919Y-64309750D01*
X149084151Y-64289538D01*
X149093330Y-64270132D01*
X149104366Y-64251719D01*
X149117154Y-64234476D01*
X149131570Y-64218570D01*
X149147476Y-64204154D01*
X149164719Y-64191366D01*
X149183132Y-64180330D01*
X149202538Y-64171151D01*
X149222750Y-64163919D01*
X149243574Y-64158703D01*
X149264809Y-64155553D01*
X149286250Y-64154500D01*
X149798750Y-64154500D01*
X149820191Y-64155553D01*
X149820191Y-64155553D01*
G37*
D13*
G04 #@! TD*
G04 #@! TO.P,4k1,2*
G04 #@! TO.N,VDD*
X149542500Y-64592000D03*
D12*
G04 #@! TO.N,B1*
G04 #@! TO.C,4k1*
G36*
X149820191Y-65730553D02*
X149841426Y-65733703D01*
X149862250Y-65738919D01*
X149882462Y-65746151D01*
X149901868Y-65755330D01*
X149920281Y-65766366D01*
X149937524Y-65779154D01*
X149953430Y-65793570D01*
X149967846Y-65809476D01*
X149980634Y-65826719D01*
X149991670Y-65845132D01*
X150000849Y-65864538D01*
X150008081Y-65884750D01*
X150013297Y-65905574D01*
X150016447Y-65926809D01*
X150017500Y-65948250D01*
X150017500Y-66385750D01*
X150016447Y-66407191D01*
X150013297Y-66428426D01*
X150008081Y-66449250D01*
X150000849Y-66469462D01*
X149991670Y-66488868D01*
X149980634Y-66507281D01*
X149967846Y-66524524D01*
X149953430Y-66540430D01*
X149937524Y-66554846D01*
X149920281Y-66567634D01*
X149901868Y-66578670D01*
X149882462Y-66587849D01*
X149862250Y-66595081D01*
X149841426Y-66600297D01*
X149820191Y-66603447D01*
X149798750Y-66604500D01*
X149286250Y-66604500D01*
X149264809Y-66603447D01*
X149243574Y-66600297D01*
X149222750Y-66595081D01*
X149202538Y-66587849D01*
X149183132Y-66578670D01*
X149164719Y-66567634D01*
X149147476Y-66554846D01*
X149131570Y-66540430D01*
X149117154Y-66524524D01*
X149104366Y-66507281D01*
X149093330Y-66488868D01*
X149084151Y-66469462D01*
X149076919Y-66449250D01*
X149071703Y-66428426D01*
X149068553Y-66407191D01*
X149067500Y-66385750D01*
X149067500Y-65948250D01*
X149068553Y-65926809D01*
X149071703Y-65905574D01*
X149076919Y-65884750D01*
X149084151Y-65864538D01*
X149093330Y-65845132D01*
X149104366Y-65826719D01*
X149117154Y-65809476D01*
X149131570Y-65793570D01*
X149147476Y-65779154D01*
X149164719Y-65766366D01*
X149183132Y-65755330D01*
X149202538Y-65746151D01*
X149222750Y-65738919D01*
X149243574Y-65733703D01*
X149264809Y-65730553D01*
X149286250Y-65729500D01*
X149798750Y-65729500D01*
X149820191Y-65730553D01*
X149820191Y-65730553D01*
G37*
D13*
G04 #@! TD*
G04 #@! TO.P,4k1,1*
G04 #@! TO.N,B1*
X149542500Y-66167000D03*
D12*
G04 #@! TO.N,B2*
G04 #@! TO.C,4k2*
G36*
X149820191Y-80716553D02*
X149841426Y-80719703D01*
X149862250Y-80724919D01*
X149882462Y-80732151D01*
X149901868Y-80741330D01*
X149920281Y-80752366D01*
X149937524Y-80765154D01*
X149953430Y-80779570D01*
X149967846Y-80795476D01*
X149980634Y-80812719D01*
X149991670Y-80831132D01*
X150000849Y-80850538D01*
X150008081Y-80870750D01*
X150013297Y-80891574D01*
X150016447Y-80912809D01*
X150017500Y-80934250D01*
X150017500Y-81371750D01*
X150016447Y-81393191D01*
X150013297Y-81414426D01*
X150008081Y-81435250D01*
X150000849Y-81455462D01*
X149991670Y-81474868D01*
X149980634Y-81493281D01*
X149967846Y-81510524D01*
X149953430Y-81526430D01*
X149937524Y-81540846D01*
X149920281Y-81553634D01*
X149901868Y-81564670D01*
X149882462Y-81573849D01*
X149862250Y-81581081D01*
X149841426Y-81586297D01*
X149820191Y-81589447D01*
X149798750Y-81590500D01*
X149286250Y-81590500D01*
X149264809Y-81589447D01*
X149243574Y-81586297D01*
X149222750Y-81581081D01*
X149202538Y-81573849D01*
X149183132Y-81564670D01*
X149164719Y-81553634D01*
X149147476Y-81540846D01*
X149131570Y-81526430D01*
X149117154Y-81510524D01*
X149104366Y-81493281D01*
X149093330Y-81474868D01*
X149084151Y-81455462D01*
X149076919Y-81435250D01*
X149071703Y-81414426D01*
X149068553Y-81393191D01*
X149067500Y-81371750D01*
X149067500Y-80934250D01*
X149068553Y-80912809D01*
X149071703Y-80891574D01*
X149076919Y-80870750D01*
X149084151Y-80850538D01*
X149093330Y-80831132D01*
X149104366Y-80812719D01*
X149117154Y-80795476D01*
X149131570Y-80779570D01*
X149147476Y-80765154D01*
X149164719Y-80752366D01*
X149183132Y-80741330D01*
X149202538Y-80732151D01*
X149222750Y-80724919D01*
X149243574Y-80719703D01*
X149264809Y-80716553D01*
X149286250Y-80715500D01*
X149798750Y-80715500D01*
X149820191Y-80716553D01*
X149820191Y-80716553D01*
G37*
D13*
G04 #@! TD*
G04 #@! TO.P,4k2,1*
G04 #@! TO.N,B2*
X149542500Y-81153000D03*
D12*
G04 #@! TO.N,VDD*
G04 #@! TO.C,4k2*
G36*
X149820191Y-79141553D02*
X149841426Y-79144703D01*
X149862250Y-79149919D01*
X149882462Y-79157151D01*
X149901868Y-79166330D01*
X149920281Y-79177366D01*
X149937524Y-79190154D01*
X149953430Y-79204570D01*
X149967846Y-79220476D01*
X149980634Y-79237719D01*
X149991670Y-79256132D01*
X150000849Y-79275538D01*
X150008081Y-79295750D01*
X150013297Y-79316574D01*
X150016447Y-79337809D01*
X150017500Y-79359250D01*
X150017500Y-79796750D01*
X150016447Y-79818191D01*
X150013297Y-79839426D01*
X150008081Y-79860250D01*
X150000849Y-79880462D01*
X149991670Y-79899868D01*
X149980634Y-79918281D01*
X149967846Y-79935524D01*
X149953430Y-79951430D01*
X149937524Y-79965846D01*
X149920281Y-79978634D01*
X149901868Y-79989670D01*
X149882462Y-79998849D01*
X149862250Y-80006081D01*
X149841426Y-80011297D01*
X149820191Y-80014447D01*
X149798750Y-80015500D01*
X149286250Y-80015500D01*
X149264809Y-80014447D01*
X149243574Y-80011297D01*
X149222750Y-80006081D01*
X149202538Y-79998849D01*
X149183132Y-79989670D01*
X149164719Y-79978634D01*
X149147476Y-79965846D01*
X149131570Y-79951430D01*
X149117154Y-79935524D01*
X149104366Y-79918281D01*
X149093330Y-79899868D01*
X149084151Y-79880462D01*
X149076919Y-79860250D01*
X149071703Y-79839426D01*
X149068553Y-79818191D01*
X149067500Y-79796750D01*
X149067500Y-79359250D01*
X149068553Y-79337809D01*
X149071703Y-79316574D01*
X149076919Y-79295750D01*
X149084151Y-79275538D01*
X149093330Y-79256132D01*
X149104366Y-79237719D01*
X149117154Y-79220476D01*
X149131570Y-79204570D01*
X149147476Y-79190154D01*
X149164719Y-79177366D01*
X149183132Y-79166330D01*
X149202538Y-79157151D01*
X149222750Y-79149919D01*
X149243574Y-79144703D01*
X149264809Y-79141553D01*
X149286250Y-79140500D01*
X149798750Y-79140500D01*
X149820191Y-79141553D01*
X149820191Y-79141553D01*
G37*
D13*
G04 #@! TD*
G04 #@! TO.P,4k2,2*
G04 #@! TO.N,VDD*
X149542500Y-79578000D03*
D12*
G04 #@! TO.N,A2*
G04 #@! TO.C,4k3*
G36*
X147280191Y-80716553D02*
X147301426Y-80719703D01*
X147322250Y-80724919D01*
X147342462Y-80732151D01*
X147361868Y-80741330D01*
X147380281Y-80752366D01*
X147397524Y-80765154D01*
X147413430Y-80779570D01*
X147427846Y-80795476D01*
X147440634Y-80812719D01*
X147451670Y-80831132D01*
X147460849Y-80850538D01*
X147468081Y-80870750D01*
X147473297Y-80891574D01*
X147476447Y-80912809D01*
X147477500Y-80934250D01*
X147477500Y-81371750D01*
X147476447Y-81393191D01*
X147473297Y-81414426D01*
X147468081Y-81435250D01*
X147460849Y-81455462D01*
X147451670Y-81474868D01*
X147440634Y-81493281D01*
X147427846Y-81510524D01*
X147413430Y-81526430D01*
X147397524Y-81540846D01*
X147380281Y-81553634D01*
X147361868Y-81564670D01*
X147342462Y-81573849D01*
X147322250Y-81581081D01*
X147301426Y-81586297D01*
X147280191Y-81589447D01*
X147258750Y-81590500D01*
X146746250Y-81590500D01*
X146724809Y-81589447D01*
X146703574Y-81586297D01*
X146682750Y-81581081D01*
X146662538Y-81573849D01*
X146643132Y-81564670D01*
X146624719Y-81553634D01*
X146607476Y-81540846D01*
X146591570Y-81526430D01*
X146577154Y-81510524D01*
X146564366Y-81493281D01*
X146553330Y-81474868D01*
X146544151Y-81455462D01*
X146536919Y-81435250D01*
X146531703Y-81414426D01*
X146528553Y-81393191D01*
X146527500Y-81371750D01*
X146527500Y-80934250D01*
X146528553Y-80912809D01*
X146531703Y-80891574D01*
X146536919Y-80870750D01*
X146544151Y-80850538D01*
X146553330Y-80831132D01*
X146564366Y-80812719D01*
X146577154Y-80795476D01*
X146591570Y-80779570D01*
X146607476Y-80765154D01*
X146624719Y-80752366D01*
X146643132Y-80741330D01*
X146662538Y-80732151D01*
X146682750Y-80724919D01*
X146703574Y-80719703D01*
X146724809Y-80716553D01*
X146746250Y-80715500D01*
X147258750Y-80715500D01*
X147280191Y-80716553D01*
X147280191Y-80716553D01*
G37*
D13*
G04 #@! TD*
G04 #@! TO.P,4k3,1*
G04 #@! TO.N,A2*
X147002500Y-81153000D03*
D12*
G04 #@! TO.N,VDD*
G04 #@! TO.C,4k3*
G36*
X147280191Y-79141553D02*
X147301426Y-79144703D01*
X147322250Y-79149919D01*
X147342462Y-79157151D01*
X147361868Y-79166330D01*
X147380281Y-79177366D01*
X147397524Y-79190154D01*
X147413430Y-79204570D01*
X147427846Y-79220476D01*
X147440634Y-79237719D01*
X147451670Y-79256132D01*
X147460849Y-79275538D01*
X147468081Y-79295750D01*
X147473297Y-79316574D01*
X147476447Y-79337809D01*
X147477500Y-79359250D01*
X147477500Y-79796750D01*
X147476447Y-79818191D01*
X147473297Y-79839426D01*
X147468081Y-79860250D01*
X147460849Y-79880462D01*
X147451670Y-79899868D01*
X147440634Y-79918281D01*
X147427846Y-79935524D01*
X147413430Y-79951430D01*
X147397524Y-79965846D01*
X147380281Y-79978634D01*
X147361868Y-79989670D01*
X147342462Y-79998849D01*
X147322250Y-80006081D01*
X147301426Y-80011297D01*
X147280191Y-80014447D01*
X147258750Y-80015500D01*
X146746250Y-80015500D01*
X146724809Y-80014447D01*
X146703574Y-80011297D01*
X146682750Y-80006081D01*
X146662538Y-79998849D01*
X146643132Y-79989670D01*
X146624719Y-79978634D01*
X146607476Y-79965846D01*
X146591570Y-79951430D01*
X146577154Y-79935524D01*
X146564366Y-79918281D01*
X146553330Y-79899868D01*
X146544151Y-79880462D01*
X146536919Y-79860250D01*
X146531703Y-79839426D01*
X146528553Y-79818191D01*
X146527500Y-79796750D01*
X146527500Y-79359250D01*
X146528553Y-79337809D01*
X146531703Y-79316574D01*
X146536919Y-79295750D01*
X146544151Y-79275538D01*
X146553330Y-79256132D01*
X146564366Y-79237719D01*
X146577154Y-79220476D01*
X146591570Y-79204570D01*
X146607476Y-79190154D01*
X146624719Y-79177366D01*
X146643132Y-79166330D01*
X146662538Y-79157151D01*
X146682750Y-79149919D01*
X146703574Y-79144703D01*
X146724809Y-79141553D01*
X146746250Y-79140500D01*
X147258750Y-79140500D01*
X147280191Y-79141553D01*
X147280191Y-79141553D01*
G37*
D13*
G04 #@! TD*
G04 #@! TO.P,4k3,2*
G04 #@! TO.N,VDD*
X147002500Y-79578000D03*
D12*
G04 #@! TO.N,A1*
G04 #@! TO.C,4k7*
G36*
X147280191Y-65730553D02*
X147301426Y-65733703D01*
X147322250Y-65738919D01*
X147342462Y-65746151D01*
X147361868Y-65755330D01*
X147380281Y-65766366D01*
X147397524Y-65779154D01*
X147413430Y-65793570D01*
X147427846Y-65809476D01*
X147440634Y-65826719D01*
X147451670Y-65845132D01*
X147460849Y-65864538D01*
X147468081Y-65884750D01*
X147473297Y-65905574D01*
X147476447Y-65926809D01*
X147477500Y-65948250D01*
X147477500Y-66385750D01*
X147476447Y-66407191D01*
X147473297Y-66428426D01*
X147468081Y-66449250D01*
X147460849Y-66469462D01*
X147451670Y-66488868D01*
X147440634Y-66507281D01*
X147427846Y-66524524D01*
X147413430Y-66540430D01*
X147397524Y-66554846D01*
X147380281Y-66567634D01*
X147361868Y-66578670D01*
X147342462Y-66587849D01*
X147322250Y-66595081D01*
X147301426Y-66600297D01*
X147280191Y-66603447D01*
X147258750Y-66604500D01*
X146746250Y-66604500D01*
X146724809Y-66603447D01*
X146703574Y-66600297D01*
X146682750Y-66595081D01*
X146662538Y-66587849D01*
X146643132Y-66578670D01*
X146624719Y-66567634D01*
X146607476Y-66554846D01*
X146591570Y-66540430D01*
X146577154Y-66524524D01*
X146564366Y-66507281D01*
X146553330Y-66488868D01*
X146544151Y-66469462D01*
X146536919Y-66449250D01*
X146531703Y-66428426D01*
X146528553Y-66407191D01*
X146527500Y-66385750D01*
X146527500Y-65948250D01*
X146528553Y-65926809D01*
X146531703Y-65905574D01*
X146536919Y-65884750D01*
X146544151Y-65864538D01*
X146553330Y-65845132D01*
X146564366Y-65826719D01*
X146577154Y-65809476D01*
X146591570Y-65793570D01*
X146607476Y-65779154D01*
X146624719Y-65766366D01*
X146643132Y-65755330D01*
X146662538Y-65746151D01*
X146682750Y-65738919D01*
X146703574Y-65733703D01*
X146724809Y-65730553D01*
X146746250Y-65729500D01*
X147258750Y-65729500D01*
X147280191Y-65730553D01*
X147280191Y-65730553D01*
G37*
D13*
G04 #@! TD*
G04 #@! TO.P,4k7,1*
G04 #@! TO.N,A1*
X147002500Y-66167000D03*
D12*
G04 #@! TO.N,VDD*
G04 #@! TO.C,4k7*
G36*
X147280191Y-64155553D02*
X147301426Y-64158703D01*
X147322250Y-64163919D01*
X147342462Y-64171151D01*
X147361868Y-64180330D01*
X147380281Y-64191366D01*
X147397524Y-64204154D01*
X147413430Y-64218570D01*
X147427846Y-64234476D01*
X147440634Y-64251719D01*
X147451670Y-64270132D01*
X147460849Y-64289538D01*
X147468081Y-64309750D01*
X147473297Y-64330574D01*
X147476447Y-64351809D01*
X147477500Y-64373250D01*
X147477500Y-64810750D01*
X147476447Y-64832191D01*
X147473297Y-64853426D01*
X147468081Y-64874250D01*
X147460849Y-64894462D01*
X147451670Y-64913868D01*
X147440634Y-64932281D01*
X147427846Y-64949524D01*
X147413430Y-64965430D01*
X147397524Y-64979846D01*
X147380281Y-64992634D01*
X147361868Y-65003670D01*
X147342462Y-65012849D01*
X147322250Y-65020081D01*
X147301426Y-65025297D01*
X147280191Y-65028447D01*
X147258750Y-65029500D01*
X146746250Y-65029500D01*
X146724809Y-65028447D01*
X146703574Y-65025297D01*
X146682750Y-65020081D01*
X146662538Y-65012849D01*
X146643132Y-65003670D01*
X146624719Y-64992634D01*
X146607476Y-64979846D01*
X146591570Y-64965430D01*
X146577154Y-64949524D01*
X146564366Y-64932281D01*
X146553330Y-64913868D01*
X146544151Y-64894462D01*
X146536919Y-64874250D01*
X146531703Y-64853426D01*
X146528553Y-64832191D01*
X146527500Y-64810750D01*
X146527500Y-64373250D01*
X146528553Y-64351809D01*
X146531703Y-64330574D01*
X146536919Y-64309750D01*
X146544151Y-64289538D01*
X146553330Y-64270132D01*
X146564366Y-64251719D01*
X146577154Y-64234476D01*
X146591570Y-64218570D01*
X146607476Y-64204154D01*
X146624719Y-64191366D01*
X146643132Y-64180330D01*
X146662538Y-64171151D01*
X146682750Y-64163919D01*
X146703574Y-64158703D01*
X146724809Y-64155553D01*
X146746250Y-64154500D01*
X147258750Y-64154500D01*
X147280191Y-64155553D01*
X147280191Y-64155553D01*
G37*
D13*
G04 #@! TD*
G04 #@! TO.P,4k7,2*
G04 #@! TO.N,VDD*
X147002500Y-64592000D03*
D12*
G04 #@! TO.N,VDD*
G04 #@! TO.C,C1*
G36*
X103719191Y-81097553D02*
X103740426Y-81100703D01*
X103761250Y-81105919D01*
X103781462Y-81113151D01*
X103800868Y-81122330D01*
X103819281Y-81133366D01*
X103836524Y-81146154D01*
X103852430Y-81160570D01*
X103866846Y-81176476D01*
X103879634Y-81193719D01*
X103890670Y-81212132D01*
X103899849Y-81231538D01*
X103907081Y-81251750D01*
X103912297Y-81272574D01*
X103915447Y-81293809D01*
X103916500Y-81315250D01*
X103916500Y-81752750D01*
X103915447Y-81774191D01*
X103912297Y-81795426D01*
X103907081Y-81816250D01*
X103899849Y-81836462D01*
X103890670Y-81855868D01*
X103879634Y-81874281D01*
X103866846Y-81891524D01*
X103852430Y-81907430D01*
X103836524Y-81921846D01*
X103819281Y-81934634D01*
X103800868Y-81945670D01*
X103781462Y-81954849D01*
X103761250Y-81962081D01*
X103740426Y-81967297D01*
X103719191Y-81970447D01*
X103697750Y-81971500D01*
X103185250Y-81971500D01*
X103163809Y-81970447D01*
X103142574Y-81967297D01*
X103121750Y-81962081D01*
X103101538Y-81954849D01*
X103082132Y-81945670D01*
X103063719Y-81934634D01*
X103046476Y-81921846D01*
X103030570Y-81907430D01*
X103016154Y-81891524D01*
X103003366Y-81874281D01*
X102992330Y-81855868D01*
X102983151Y-81836462D01*
X102975919Y-81816250D01*
X102970703Y-81795426D01*
X102967553Y-81774191D01*
X102966500Y-81752750D01*
X102966500Y-81315250D01*
X102967553Y-81293809D01*
X102970703Y-81272574D01*
X102975919Y-81251750D01*
X102983151Y-81231538D01*
X102992330Y-81212132D01*
X103003366Y-81193719D01*
X103016154Y-81176476D01*
X103030570Y-81160570D01*
X103046476Y-81146154D01*
X103063719Y-81133366D01*
X103082132Y-81122330D01*
X103101538Y-81113151D01*
X103121750Y-81105919D01*
X103142574Y-81100703D01*
X103163809Y-81097553D01*
X103185250Y-81096500D01*
X103697750Y-81096500D01*
X103719191Y-81097553D01*
X103719191Y-81097553D01*
G37*
D13*
G04 #@! TD*
G04 #@! TO.P,C1,2*
G04 #@! TO.N,VDD*
X103441500Y-81534000D03*
D12*
G04 #@! TO.N,Net-(C1-Pad1)*
G04 #@! TO.C,C1*
G36*
X103719191Y-82672553D02*
X103740426Y-82675703D01*
X103761250Y-82680919D01*
X103781462Y-82688151D01*
X103800868Y-82697330D01*
X103819281Y-82708366D01*
X103836524Y-82721154D01*
X103852430Y-82735570D01*
X103866846Y-82751476D01*
X103879634Y-82768719D01*
X103890670Y-82787132D01*
X103899849Y-82806538D01*
X103907081Y-82826750D01*
X103912297Y-82847574D01*
X103915447Y-82868809D01*
X103916500Y-82890250D01*
X103916500Y-83327750D01*
X103915447Y-83349191D01*
X103912297Y-83370426D01*
X103907081Y-83391250D01*
X103899849Y-83411462D01*
X103890670Y-83430868D01*
X103879634Y-83449281D01*
X103866846Y-83466524D01*
X103852430Y-83482430D01*
X103836524Y-83496846D01*
X103819281Y-83509634D01*
X103800868Y-83520670D01*
X103781462Y-83529849D01*
X103761250Y-83537081D01*
X103740426Y-83542297D01*
X103719191Y-83545447D01*
X103697750Y-83546500D01*
X103185250Y-83546500D01*
X103163809Y-83545447D01*
X103142574Y-83542297D01*
X103121750Y-83537081D01*
X103101538Y-83529849D01*
X103082132Y-83520670D01*
X103063719Y-83509634D01*
X103046476Y-83496846D01*
X103030570Y-83482430D01*
X103016154Y-83466524D01*
X103003366Y-83449281D01*
X102992330Y-83430868D01*
X102983151Y-83411462D01*
X102975919Y-83391250D01*
X102970703Y-83370426D01*
X102967553Y-83349191D01*
X102966500Y-83327750D01*
X102966500Y-82890250D01*
X102967553Y-82868809D01*
X102970703Y-82847574D01*
X102975919Y-82826750D01*
X102983151Y-82806538D01*
X102992330Y-82787132D01*
X103003366Y-82768719D01*
X103016154Y-82751476D01*
X103030570Y-82735570D01*
X103046476Y-82721154D01*
X103063719Y-82708366D01*
X103082132Y-82697330D01*
X103101538Y-82688151D01*
X103121750Y-82680919D01*
X103142574Y-82675703D01*
X103163809Y-82672553D01*
X103185250Y-82671500D01*
X103697750Y-82671500D01*
X103719191Y-82672553D01*
X103719191Y-82672553D01*
G37*
D13*
G04 #@! TD*
G04 #@! TO.P,C1,1*
G04 #@! TO.N,Net-(C1-Pad1)*
X103441500Y-83109000D03*
D12*
G04 #@! TO.N,Net-(C2-Pad1)*
G04 #@! TO.C,C2*
G36*
X103719191Y-79700553D02*
X103740426Y-79703703D01*
X103761250Y-79708919D01*
X103781462Y-79716151D01*
X103800868Y-79725330D01*
X103819281Y-79736366D01*
X103836524Y-79749154D01*
X103852430Y-79763570D01*
X103866846Y-79779476D01*
X103879634Y-79796719D01*
X103890670Y-79815132D01*
X103899849Y-79834538D01*
X103907081Y-79854750D01*
X103912297Y-79875574D01*
X103915447Y-79896809D01*
X103916500Y-79918250D01*
X103916500Y-80355750D01*
X103915447Y-80377191D01*
X103912297Y-80398426D01*
X103907081Y-80419250D01*
X103899849Y-80439462D01*
X103890670Y-80458868D01*
X103879634Y-80477281D01*
X103866846Y-80494524D01*
X103852430Y-80510430D01*
X103836524Y-80524846D01*
X103819281Y-80537634D01*
X103800868Y-80548670D01*
X103781462Y-80557849D01*
X103761250Y-80565081D01*
X103740426Y-80570297D01*
X103719191Y-80573447D01*
X103697750Y-80574500D01*
X103185250Y-80574500D01*
X103163809Y-80573447D01*
X103142574Y-80570297D01*
X103121750Y-80565081D01*
X103101538Y-80557849D01*
X103082132Y-80548670D01*
X103063719Y-80537634D01*
X103046476Y-80524846D01*
X103030570Y-80510430D01*
X103016154Y-80494524D01*
X103003366Y-80477281D01*
X102992330Y-80458868D01*
X102983151Y-80439462D01*
X102975919Y-80419250D01*
X102970703Y-80398426D01*
X102967553Y-80377191D01*
X102966500Y-80355750D01*
X102966500Y-79918250D01*
X102967553Y-79896809D01*
X102970703Y-79875574D01*
X102975919Y-79854750D01*
X102983151Y-79834538D01*
X102992330Y-79815132D01*
X103003366Y-79796719D01*
X103016154Y-79779476D01*
X103030570Y-79763570D01*
X103046476Y-79749154D01*
X103063719Y-79736366D01*
X103082132Y-79725330D01*
X103101538Y-79716151D01*
X103121750Y-79708919D01*
X103142574Y-79703703D01*
X103163809Y-79700553D01*
X103185250Y-79699500D01*
X103697750Y-79699500D01*
X103719191Y-79700553D01*
X103719191Y-79700553D01*
G37*
D13*
G04 #@! TD*
G04 #@! TO.P,C2,1*
G04 #@! TO.N,Net-(C2-Pad1)*
X103441500Y-80137000D03*
D12*
G04 #@! TO.N,BAT-*
G04 #@! TO.C,C2*
G36*
X103719191Y-78125553D02*
X103740426Y-78128703D01*
X103761250Y-78133919D01*
X103781462Y-78141151D01*
X103800868Y-78150330D01*
X103819281Y-78161366D01*
X103836524Y-78174154D01*
X103852430Y-78188570D01*
X103866846Y-78204476D01*
X103879634Y-78221719D01*
X103890670Y-78240132D01*
X103899849Y-78259538D01*
X103907081Y-78279750D01*
X103912297Y-78300574D01*
X103915447Y-78321809D01*
X103916500Y-78343250D01*
X103916500Y-78780750D01*
X103915447Y-78802191D01*
X103912297Y-78823426D01*
X103907081Y-78844250D01*
X103899849Y-78864462D01*
X103890670Y-78883868D01*
X103879634Y-78902281D01*
X103866846Y-78919524D01*
X103852430Y-78935430D01*
X103836524Y-78949846D01*
X103819281Y-78962634D01*
X103800868Y-78973670D01*
X103781462Y-78982849D01*
X103761250Y-78990081D01*
X103740426Y-78995297D01*
X103719191Y-78998447D01*
X103697750Y-78999500D01*
X103185250Y-78999500D01*
X103163809Y-78998447D01*
X103142574Y-78995297D01*
X103121750Y-78990081D01*
X103101538Y-78982849D01*
X103082132Y-78973670D01*
X103063719Y-78962634D01*
X103046476Y-78949846D01*
X103030570Y-78935430D01*
X103016154Y-78919524D01*
X103003366Y-78902281D01*
X102992330Y-78883868D01*
X102983151Y-78864462D01*
X102975919Y-78844250D01*
X102970703Y-78823426D01*
X102967553Y-78802191D01*
X102966500Y-78780750D01*
X102966500Y-78343250D01*
X102967553Y-78321809D01*
X102970703Y-78300574D01*
X102975919Y-78279750D01*
X102983151Y-78259538D01*
X102992330Y-78240132D01*
X103003366Y-78221719D01*
X103016154Y-78204476D01*
X103030570Y-78188570D01*
X103046476Y-78174154D01*
X103063719Y-78161366D01*
X103082132Y-78150330D01*
X103101538Y-78141151D01*
X103121750Y-78133919D01*
X103142574Y-78128703D01*
X103163809Y-78125553D01*
X103185250Y-78124500D01*
X103697750Y-78124500D01*
X103719191Y-78125553D01*
X103719191Y-78125553D01*
G37*
D13*
G04 #@! TD*
G04 #@! TO.P,C2,2*
G04 #@! TO.N,BAT-*
X103441500Y-78562000D03*
D12*
G04 #@! TO.N,BAT-*
G04 #@! TO.C,C3*
G36*
X107034691Y-90585053D02*
X107055926Y-90588203D01*
X107076750Y-90593419D01*
X107096962Y-90600651D01*
X107116368Y-90609830D01*
X107134781Y-90620866D01*
X107152024Y-90633654D01*
X107167930Y-90648070D01*
X107182346Y-90663976D01*
X107195134Y-90681219D01*
X107206170Y-90699632D01*
X107215349Y-90719038D01*
X107222581Y-90739250D01*
X107227797Y-90760074D01*
X107230947Y-90781309D01*
X107232000Y-90802750D01*
X107232000Y-91315250D01*
X107230947Y-91336691D01*
X107227797Y-91357926D01*
X107222581Y-91378750D01*
X107215349Y-91398962D01*
X107206170Y-91418368D01*
X107195134Y-91436781D01*
X107182346Y-91454024D01*
X107167930Y-91469930D01*
X107152024Y-91484346D01*
X107134781Y-91497134D01*
X107116368Y-91508170D01*
X107096962Y-91517349D01*
X107076750Y-91524581D01*
X107055926Y-91529797D01*
X107034691Y-91532947D01*
X107013250Y-91534000D01*
X106575750Y-91534000D01*
X106554309Y-91532947D01*
X106533074Y-91529797D01*
X106512250Y-91524581D01*
X106492038Y-91517349D01*
X106472632Y-91508170D01*
X106454219Y-91497134D01*
X106436976Y-91484346D01*
X106421070Y-91469930D01*
X106406654Y-91454024D01*
X106393866Y-91436781D01*
X106382830Y-91418368D01*
X106373651Y-91398962D01*
X106366419Y-91378750D01*
X106361203Y-91357926D01*
X106358053Y-91336691D01*
X106357000Y-91315250D01*
X106357000Y-90802750D01*
X106358053Y-90781309D01*
X106361203Y-90760074D01*
X106366419Y-90739250D01*
X106373651Y-90719038D01*
X106382830Y-90699632D01*
X106393866Y-90681219D01*
X106406654Y-90663976D01*
X106421070Y-90648070D01*
X106436976Y-90633654D01*
X106454219Y-90620866D01*
X106472632Y-90609830D01*
X106492038Y-90600651D01*
X106512250Y-90593419D01*
X106533074Y-90588203D01*
X106554309Y-90585053D01*
X106575750Y-90584000D01*
X107013250Y-90584000D01*
X107034691Y-90585053D01*
X107034691Y-90585053D01*
G37*
D13*
G04 #@! TD*
G04 #@! TO.P,C3,1*
G04 #@! TO.N,BAT-*
X106794500Y-91059000D03*
D12*
G04 #@! TO.N,VDD*
G04 #@! TO.C,C3*
G36*
X105459691Y-90585053D02*
X105480926Y-90588203D01*
X105501750Y-90593419D01*
X105521962Y-90600651D01*
X105541368Y-90609830D01*
X105559781Y-90620866D01*
X105577024Y-90633654D01*
X105592930Y-90648070D01*
X105607346Y-90663976D01*
X105620134Y-90681219D01*
X105631170Y-90699632D01*
X105640349Y-90719038D01*
X105647581Y-90739250D01*
X105652797Y-90760074D01*
X105655947Y-90781309D01*
X105657000Y-90802750D01*
X105657000Y-91315250D01*
X105655947Y-91336691D01*
X105652797Y-91357926D01*
X105647581Y-91378750D01*
X105640349Y-91398962D01*
X105631170Y-91418368D01*
X105620134Y-91436781D01*
X105607346Y-91454024D01*
X105592930Y-91469930D01*
X105577024Y-91484346D01*
X105559781Y-91497134D01*
X105541368Y-91508170D01*
X105521962Y-91517349D01*
X105501750Y-91524581D01*
X105480926Y-91529797D01*
X105459691Y-91532947D01*
X105438250Y-91534000D01*
X105000750Y-91534000D01*
X104979309Y-91532947D01*
X104958074Y-91529797D01*
X104937250Y-91524581D01*
X104917038Y-91517349D01*
X104897632Y-91508170D01*
X104879219Y-91497134D01*
X104861976Y-91484346D01*
X104846070Y-91469930D01*
X104831654Y-91454024D01*
X104818866Y-91436781D01*
X104807830Y-91418368D01*
X104798651Y-91398962D01*
X104791419Y-91378750D01*
X104786203Y-91357926D01*
X104783053Y-91336691D01*
X104782000Y-91315250D01*
X104782000Y-90802750D01*
X104783053Y-90781309D01*
X104786203Y-90760074D01*
X104791419Y-90739250D01*
X104798651Y-90719038D01*
X104807830Y-90699632D01*
X104818866Y-90681219D01*
X104831654Y-90663976D01*
X104846070Y-90648070D01*
X104861976Y-90633654D01*
X104879219Y-90620866D01*
X104897632Y-90609830D01*
X104917038Y-90600651D01*
X104937250Y-90593419D01*
X104958074Y-90588203D01*
X104979309Y-90585053D01*
X105000750Y-90584000D01*
X105438250Y-90584000D01*
X105459691Y-90585053D01*
X105459691Y-90585053D01*
G37*
D13*
G04 #@! TD*
G04 #@! TO.P,C3,2*
G04 #@! TO.N,VDD*
X105219500Y-91059000D03*
D12*
G04 #@! TO.N,B1*
G04 #@! TO.C,C6*
G36*
X151598191Y-65781553D02*
X151619426Y-65784703D01*
X151640250Y-65789919D01*
X151660462Y-65797151D01*
X151679868Y-65806330D01*
X151698281Y-65817366D01*
X151715524Y-65830154D01*
X151731430Y-65844570D01*
X151745846Y-65860476D01*
X151758634Y-65877719D01*
X151769670Y-65896132D01*
X151778849Y-65915538D01*
X151786081Y-65935750D01*
X151791297Y-65956574D01*
X151794447Y-65977809D01*
X151795500Y-65999250D01*
X151795500Y-66436750D01*
X151794447Y-66458191D01*
X151791297Y-66479426D01*
X151786081Y-66500250D01*
X151778849Y-66520462D01*
X151769670Y-66539868D01*
X151758634Y-66558281D01*
X151745846Y-66575524D01*
X151731430Y-66591430D01*
X151715524Y-66605846D01*
X151698281Y-66618634D01*
X151679868Y-66629670D01*
X151660462Y-66638849D01*
X151640250Y-66646081D01*
X151619426Y-66651297D01*
X151598191Y-66654447D01*
X151576750Y-66655500D01*
X151064250Y-66655500D01*
X151042809Y-66654447D01*
X151021574Y-66651297D01*
X151000750Y-66646081D01*
X150980538Y-66638849D01*
X150961132Y-66629670D01*
X150942719Y-66618634D01*
X150925476Y-66605846D01*
X150909570Y-66591430D01*
X150895154Y-66575524D01*
X150882366Y-66558281D01*
X150871330Y-66539868D01*
X150862151Y-66520462D01*
X150854919Y-66500250D01*
X150849703Y-66479426D01*
X150846553Y-66458191D01*
X150845500Y-66436750D01*
X150845500Y-65999250D01*
X150846553Y-65977809D01*
X150849703Y-65956574D01*
X150854919Y-65935750D01*
X150862151Y-65915538D01*
X150871330Y-65896132D01*
X150882366Y-65877719D01*
X150895154Y-65860476D01*
X150909570Y-65844570D01*
X150925476Y-65830154D01*
X150942719Y-65817366D01*
X150961132Y-65806330D01*
X150980538Y-65797151D01*
X151000750Y-65789919D01*
X151021574Y-65784703D01*
X151042809Y-65781553D01*
X151064250Y-65780500D01*
X151576750Y-65780500D01*
X151598191Y-65781553D01*
X151598191Y-65781553D01*
G37*
D13*
G04 #@! TD*
G04 #@! TO.P,C6,2*
G04 #@! TO.N,B1*
X151320500Y-66218000D03*
D12*
G04 #@! TO.N,BAT-*
G04 #@! TO.C,C6*
G36*
X151598191Y-64206553D02*
X151619426Y-64209703D01*
X151640250Y-64214919D01*
X151660462Y-64222151D01*
X151679868Y-64231330D01*
X151698281Y-64242366D01*
X151715524Y-64255154D01*
X151731430Y-64269570D01*
X151745846Y-64285476D01*
X151758634Y-64302719D01*
X151769670Y-64321132D01*
X151778849Y-64340538D01*
X151786081Y-64360750D01*
X151791297Y-64381574D01*
X151794447Y-64402809D01*
X151795500Y-64424250D01*
X151795500Y-64861750D01*
X151794447Y-64883191D01*
X151791297Y-64904426D01*
X151786081Y-64925250D01*
X151778849Y-64945462D01*
X151769670Y-64964868D01*
X151758634Y-64983281D01*
X151745846Y-65000524D01*
X151731430Y-65016430D01*
X151715524Y-65030846D01*
X151698281Y-65043634D01*
X151679868Y-65054670D01*
X151660462Y-65063849D01*
X151640250Y-65071081D01*
X151619426Y-65076297D01*
X151598191Y-65079447D01*
X151576750Y-65080500D01*
X151064250Y-65080500D01*
X151042809Y-65079447D01*
X151021574Y-65076297D01*
X151000750Y-65071081D01*
X150980538Y-65063849D01*
X150961132Y-65054670D01*
X150942719Y-65043634D01*
X150925476Y-65030846D01*
X150909570Y-65016430D01*
X150895154Y-65000524D01*
X150882366Y-64983281D01*
X150871330Y-64964868D01*
X150862151Y-64945462D01*
X150854919Y-64925250D01*
X150849703Y-64904426D01*
X150846553Y-64883191D01*
X150845500Y-64861750D01*
X150845500Y-64424250D01*
X150846553Y-64402809D01*
X150849703Y-64381574D01*
X150854919Y-64360750D01*
X150862151Y-64340538D01*
X150871330Y-64321132D01*
X150882366Y-64302719D01*
X150895154Y-64285476D01*
X150909570Y-64269570D01*
X150925476Y-64255154D01*
X150942719Y-64242366D01*
X150961132Y-64231330D01*
X150980538Y-64222151D01*
X151000750Y-64214919D01*
X151021574Y-64209703D01*
X151042809Y-64206553D01*
X151064250Y-64205500D01*
X151576750Y-64205500D01*
X151598191Y-64206553D01*
X151598191Y-64206553D01*
G37*
D13*
G04 #@! TD*
G04 #@! TO.P,C6,1*
G04 #@! TO.N,BAT-*
X151320500Y-64643000D03*
D12*
G04 #@! TO.N,A1*
G04 #@! TO.C,C7*
G36*
X145375191Y-65730553D02*
X145396426Y-65733703D01*
X145417250Y-65738919D01*
X145437462Y-65746151D01*
X145456868Y-65755330D01*
X145475281Y-65766366D01*
X145492524Y-65779154D01*
X145508430Y-65793570D01*
X145522846Y-65809476D01*
X145535634Y-65826719D01*
X145546670Y-65845132D01*
X145555849Y-65864538D01*
X145563081Y-65884750D01*
X145568297Y-65905574D01*
X145571447Y-65926809D01*
X145572500Y-65948250D01*
X145572500Y-66385750D01*
X145571447Y-66407191D01*
X145568297Y-66428426D01*
X145563081Y-66449250D01*
X145555849Y-66469462D01*
X145546670Y-66488868D01*
X145535634Y-66507281D01*
X145522846Y-66524524D01*
X145508430Y-66540430D01*
X145492524Y-66554846D01*
X145475281Y-66567634D01*
X145456868Y-66578670D01*
X145437462Y-66587849D01*
X145417250Y-66595081D01*
X145396426Y-66600297D01*
X145375191Y-66603447D01*
X145353750Y-66604500D01*
X144841250Y-66604500D01*
X144819809Y-66603447D01*
X144798574Y-66600297D01*
X144777750Y-66595081D01*
X144757538Y-66587849D01*
X144738132Y-66578670D01*
X144719719Y-66567634D01*
X144702476Y-66554846D01*
X144686570Y-66540430D01*
X144672154Y-66524524D01*
X144659366Y-66507281D01*
X144648330Y-66488868D01*
X144639151Y-66469462D01*
X144631919Y-66449250D01*
X144626703Y-66428426D01*
X144623553Y-66407191D01*
X144622500Y-66385750D01*
X144622500Y-65948250D01*
X144623553Y-65926809D01*
X144626703Y-65905574D01*
X144631919Y-65884750D01*
X144639151Y-65864538D01*
X144648330Y-65845132D01*
X144659366Y-65826719D01*
X144672154Y-65809476D01*
X144686570Y-65793570D01*
X144702476Y-65779154D01*
X144719719Y-65766366D01*
X144738132Y-65755330D01*
X144757538Y-65746151D01*
X144777750Y-65738919D01*
X144798574Y-65733703D01*
X144819809Y-65730553D01*
X144841250Y-65729500D01*
X145353750Y-65729500D01*
X145375191Y-65730553D01*
X145375191Y-65730553D01*
G37*
D13*
G04 #@! TD*
G04 #@! TO.P,C7,1*
G04 #@! TO.N,A1*
X145097500Y-66167000D03*
D12*
G04 #@! TO.N,BAT-*
G04 #@! TO.C,C7*
G36*
X145375191Y-64155553D02*
X145396426Y-64158703D01*
X145417250Y-64163919D01*
X145437462Y-64171151D01*
X145456868Y-64180330D01*
X145475281Y-64191366D01*
X145492524Y-64204154D01*
X145508430Y-64218570D01*
X145522846Y-64234476D01*
X145535634Y-64251719D01*
X145546670Y-64270132D01*
X145555849Y-64289538D01*
X145563081Y-64309750D01*
X145568297Y-64330574D01*
X145571447Y-64351809D01*
X145572500Y-64373250D01*
X145572500Y-64810750D01*
X145571447Y-64832191D01*
X145568297Y-64853426D01*
X145563081Y-64874250D01*
X145555849Y-64894462D01*
X145546670Y-64913868D01*
X145535634Y-64932281D01*
X145522846Y-64949524D01*
X145508430Y-64965430D01*
X145492524Y-64979846D01*
X145475281Y-64992634D01*
X145456868Y-65003670D01*
X145437462Y-65012849D01*
X145417250Y-65020081D01*
X145396426Y-65025297D01*
X145375191Y-65028447D01*
X145353750Y-65029500D01*
X144841250Y-65029500D01*
X144819809Y-65028447D01*
X144798574Y-65025297D01*
X144777750Y-65020081D01*
X144757538Y-65012849D01*
X144738132Y-65003670D01*
X144719719Y-64992634D01*
X144702476Y-64979846D01*
X144686570Y-64965430D01*
X144672154Y-64949524D01*
X144659366Y-64932281D01*
X144648330Y-64913868D01*
X144639151Y-64894462D01*
X144631919Y-64874250D01*
X144626703Y-64853426D01*
X144623553Y-64832191D01*
X144622500Y-64810750D01*
X144622500Y-64373250D01*
X144623553Y-64351809D01*
X144626703Y-64330574D01*
X144631919Y-64309750D01*
X144639151Y-64289538D01*
X144648330Y-64270132D01*
X144659366Y-64251719D01*
X144672154Y-64234476D01*
X144686570Y-64218570D01*
X144702476Y-64204154D01*
X144719719Y-64191366D01*
X144738132Y-64180330D01*
X144757538Y-64171151D01*
X144777750Y-64163919D01*
X144798574Y-64158703D01*
X144819809Y-64155553D01*
X144841250Y-64154500D01*
X145353750Y-64154500D01*
X145375191Y-64155553D01*
X145375191Y-64155553D01*
G37*
D13*
G04 #@! TD*
G04 #@! TO.P,C7,2*
G04 #@! TO.N,BAT-*
X145097500Y-64592000D03*
D12*
G04 #@! TO.N,B2*
G04 #@! TO.C,C8*
G36*
X151598191Y-80742053D02*
X151619426Y-80745203D01*
X151640250Y-80750419D01*
X151660462Y-80757651D01*
X151679868Y-80766830D01*
X151698281Y-80777866D01*
X151715524Y-80790654D01*
X151731430Y-80805070D01*
X151745846Y-80820976D01*
X151758634Y-80838219D01*
X151769670Y-80856632D01*
X151778849Y-80876038D01*
X151786081Y-80896250D01*
X151791297Y-80917074D01*
X151794447Y-80938309D01*
X151795500Y-80959750D01*
X151795500Y-81397250D01*
X151794447Y-81418691D01*
X151791297Y-81439926D01*
X151786081Y-81460750D01*
X151778849Y-81480962D01*
X151769670Y-81500368D01*
X151758634Y-81518781D01*
X151745846Y-81536024D01*
X151731430Y-81551930D01*
X151715524Y-81566346D01*
X151698281Y-81579134D01*
X151679868Y-81590170D01*
X151660462Y-81599349D01*
X151640250Y-81606581D01*
X151619426Y-81611797D01*
X151598191Y-81614947D01*
X151576750Y-81616000D01*
X151064250Y-81616000D01*
X151042809Y-81614947D01*
X151021574Y-81611797D01*
X151000750Y-81606581D01*
X150980538Y-81599349D01*
X150961132Y-81590170D01*
X150942719Y-81579134D01*
X150925476Y-81566346D01*
X150909570Y-81551930D01*
X150895154Y-81536024D01*
X150882366Y-81518781D01*
X150871330Y-81500368D01*
X150862151Y-81480962D01*
X150854919Y-81460750D01*
X150849703Y-81439926D01*
X150846553Y-81418691D01*
X150845500Y-81397250D01*
X150845500Y-80959750D01*
X150846553Y-80938309D01*
X150849703Y-80917074D01*
X150854919Y-80896250D01*
X150862151Y-80876038D01*
X150871330Y-80856632D01*
X150882366Y-80838219D01*
X150895154Y-80820976D01*
X150909570Y-80805070D01*
X150925476Y-80790654D01*
X150942719Y-80777866D01*
X150961132Y-80766830D01*
X150980538Y-80757651D01*
X151000750Y-80750419D01*
X151021574Y-80745203D01*
X151042809Y-80742053D01*
X151064250Y-80741000D01*
X151576750Y-80741000D01*
X151598191Y-80742053D01*
X151598191Y-80742053D01*
G37*
D13*
G04 #@! TD*
G04 #@! TO.P,C8,2*
G04 #@! TO.N,B2*
X151320500Y-81178500D03*
D12*
G04 #@! TO.N,BAT-*
G04 #@! TO.C,C8*
G36*
X151598191Y-79167053D02*
X151619426Y-79170203D01*
X151640250Y-79175419D01*
X151660462Y-79182651D01*
X151679868Y-79191830D01*
X151698281Y-79202866D01*
X151715524Y-79215654D01*
X151731430Y-79230070D01*
X151745846Y-79245976D01*
X151758634Y-79263219D01*
X151769670Y-79281632D01*
X151778849Y-79301038D01*
X151786081Y-79321250D01*
X151791297Y-79342074D01*
X151794447Y-79363309D01*
X151795500Y-79384750D01*
X151795500Y-79822250D01*
X151794447Y-79843691D01*
X151791297Y-79864926D01*
X151786081Y-79885750D01*
X151778849Y-79905962D01*
X151769670Y-79925368D01*
X151758634Y-79943781D01*
X151745846Y-79961024D01*
X151731430Y-79976930D01*
X151715524Y-79991346D01*
X151698281Y-80004134D01*
X151679868Y-80015170D01*
X151660462Y-80024349D01*
X151640250Y-80031581D01*
X151619426Y-80036797D01*
X151598191Y-80039947D01*
X151576750Y-80041000D01*
X151064250Y-80041000D01*
X151042809Y-80039947D01*
X151021574Y-80036797D01*
X151000750Y-80031581D01*
X150980538Y-80024349D01*
X150961132Y-80015170D01*
X150942719Y-80004134D01*
X150925476Y-79991346D01*
X150909570Y-79976930D01*
X150895154Y-79961024D01*
X150882366Y-79943781D01*
X150871330Y-79925368D01*
X150862151Y-79905962D01*
X150854919Y-79885750D01*
X150849703Y-79864926D01*
X150846553Y-79843691D01*
X150845500Y-79822250D01*
X150845500Y-79384750D01*
X150846553Y-79363309D01*
X150849703Y-79342074D01*
X150854919Y-79321250D01*
X150862151Y-79301038D01*
X150871330Y-79281632D01*
X150882366Y-79263219D01*
X150895154Y-79245976D01*
X150909570Y-79230070D01*
X150925476Y-79215654D01*
X150942719Y-79202866D01*
X150961132Y-79191830D01*
X150980538Y-79182651D01*
X151000750Y-79175419D01*
X151021574Y-79170203D01*
X151042809Y-79167053D01*
X151064250Y-79166000D01*
X151576750Y-79166000D01*
X151598191Y-79167053D01*
X151598191Y-79167053D01*
G37*
D13*
G04 #@! TD*
G04 #@! TO.P,C8,1*
G04 #@! TO.N,BAT-*
X151320500Y-79603500D03*
D12*
G04 #@! TO.N,A2*
G04 #@! TO.C,C9*
G36*
X145502191Y-80716553D02*
X145523426Y-80719703D01*
X145544250Y-80724919D01*
X145564462Y-80732151D01*
X145583868Y-80741330D01*
X145602281Y-80752366D01*
X145619524Y-80765154D01*
X145635430Y-80779570D01*
X145649846Y-80795476D01*
X145662634Y-80812719D01*
X145673670Y-80831132D01*
X145682849Y-80850538D01*
X145690081Y-80870750D01*
X145695297Y-80891574D01*
X145698447Y-80912809D01*
X145699500Y-80934250D01*
X145699500Y-81371750D01*
X145698447Y-81393191D01*
X145695297Y-81414426D01*
X145690081Y-81435250D01*
X145682849Y-81455462D01*
X145673670Y-81474868D01*
X145662634Y-81493281D01*
X145649846Y-81510524D01*
X145635430Y-81526430D01*
X145619524Y-81540846D01*
X145602281Y-81553634D01*
X145583868Y-81564670D01*
X145564462Y-81573849D01*
X145544250Y-81581081D01*
X145523426Y-81586297D01*
X145502191Y-81589447D01*
X145480750Y-81590500D01*
X144968250Y-81590500D01*
X144946809Y-81589447D01*
X144925574Y-81586297D01*
X144904750Y-81581081D01*
X144884538Y-81573849D01*
X144865132Y-81564670D01*
X144846719Y-81553634D01*
X144829476Y-81540846D01*
X144813570Y-81526430D01*
X144799154Y-81510524D01*
X144786366Y-81493281D01*
X144775330Y-81474868D01*
X144766151Y-81455462D01*
X144758919Y-81435250D01*
X144753703Y-81414426D01*
X144750553Y-81393191D01*
X144749500Y-81371750D01*
X144749500Y-80934250D01*
X144750553Y-80912809D01*
X144753703Y-80891574D01*
X144758919Y-80870750D01*
X144766151Y-80850538D01*
X144775330Y-80831132D01*
X144786366Y-80812719D01*
X144799154Y-80795476D01*
X144813570Y-80779570D01*
X144829476Y-80765154D01*
X144846719Y-80752366D01*
X144865132Y-80741330D01*
X144884538Y-80732151D01*
X144904750Y-80724919D01*
X144925574Y-80719703D01*
X144946809Y-80716553D01*
X144968250Y-80715500D01*
X145480750Y-80715500D01*
X145502191Y-80716553D01*
X145502191Y-80716553D01*
G37*
D13*
G04 #@! TD*
G04 #@! TO.P,C9,1*
G04 #@! TO.N,A2*
X145224500Y-81153000D03*
D12*
G04 #@! TO.N,BAT-*
G04 #@! TO.C,C9*
G36*
X145502191Y-79141553D02*
X145523426Y-79144703D01*
X145544250Y-79149919D01*
X145564462Y-79157151D01*
X145583868Y-79166330D01*
X145602281Y-79177366D01*
X145619524Y-79190154D01*
X145635430Y-79204570D01*
X145649846Y-79220476D01*
X145662634Y-79237719D01*
X145673670Y-79256132D01*
X145682849Y-79275538D01*
X145690081Y-79295750D01*
X145695297Y-79316574D01*
X145698447Y-79337809D01*
X145699500Y-79359250D01*
X145699500Y-79796750D01*
X145698447Y-79818191D01*
X145695297Y-79839426D01*
X145690081Y-79860250D01*
X145682849Y-79880462D01*
X145673670Y-79899868D01*
X145662634Y-79918281D01*
X145649846Y-79935524D01*
X145635430Y-79951430D01*
X145619524Y-79965846D01*
X145602281Y-79978634D01*
X145583868Y-79989670D01*
X145564462Y-79998849D01*
X145544250Y-80006081D01*
X145523426Y-80011297D01*
X145502191Y-80014447D01*
X145480750Y-80015500D01*
X144968250Y-80015500D01*
X144946809Y-80014447D01*
X144925574Y-80011297D01*
X144904750Y-80006081D01*
X144884538Y-79998849D01*
X144865132Y-79989670D01*
X144846719Y-79978634D01*
X144829476Y-79965846D01*
X144813570Y-79951430D01*
X144799154Y-79935524D01*
X144786366Y-79918281D01*
X144775330Y-79899868D01*
X144766151Y-79880462D01*
X144758919Y-79860250D01*
X144753703Y-79839426D01*
X144750553Y-79818191D01*
X144749500Y-79796750D01*
X144749500Y-79359250D01*
X144750553Y-79337809D01*
X144753703Y-79316574D01*
X144758919Y-79295750D01*
X144766151Y-79275538D01*
X144775330Y-79256132D01*
X144786366Y-79237719D01*
X144799154Y-79220476D01*
X144813570Y-79204570D01*
X144829476Y-79190154D01*
X144846719Y-79177366D01*
X144865132Y-79166330D01*
X144884538Y-79157151D01*
X144904750Y-79149919D01*
X144925574Y-79144703D01*
X144946809Y-79141553D01*
X144968250Y-79140500D01*
X145480750Y-79140500D01*
X145502191Y-79141553D01*
X145502191Y-79141553D01*
G37*
D13*
G04 #@! TD*
G04 #@! TO.P,C9,2*
G04 #@! TO.N,BAT-*
X145224500Y-79578000D03*
D12*
G04 #@! TO.N,BAT+*
G04 #@! TO.C,C10*
G36*
X109599691Y-61375053D02*
X109620926Y-61378203D01*
X109641750Y-61383419D01*
X109661962Y-61390651D01*
X109681368Y-61399830D01*
X109699781Y-61410866D01*
X109717024Y-61423654D01*
X109732930Y-61438070D01*
X109747346Y-61453976D01*
X109760134Y-61471219D01*
X109771170Y-61489632D01*
X109780349Y-61509038D01*
X109787581Y-61529250D01*
X109792797Y-61550074D01*
X109795947Y-61571309D01*
X109797000Y-61592750D01*
X109797000Y-62105250D01*
X109795947Y-62126691D01*
X109792797Y-62147926D01*
X109787581Y-62168750D01*
X109780349Y-62188962D01*
X109771170Y-62208368D01*
X109760134Y-62226781D01*
X109747346Y-62244024D01*
X109732930Y-62259930D01*
X109717024Y-62274346D01*
X109699781Y-62287134D01*
X109681368Y-62298170D01*
X109661962Y-62307349D01*
X109641750Y-62314581D01*
X109620926Y-62319797D01*
X109599691Y-62322947D01*
X109578250Y-62324000D01*
X109140750Y-62324000D01*
X109119309Y-62322947D01*
X109098074Y-62319797D01*
X109077250Y-62314581D01*
X109057038Y-62307349D01*
X109037632Y-62298170D01*
X109019219Y-62287134D01*
X109001976Y-62274346D01*
X108986070Y-62259930D01*
X108971654Y-62244024D01*
X108958866Y-62226781D01*
X108947830Y-62208368D01*
X108938651Y-62188962D01*
X108931419Y-62168750D01*
X108926203Y-62147926D01*
X108923053Y-62126691D01*
X108922000Y-62105250D01*
X108922000Y-61592750D01*
X108923053Y-61571309D01*
X108926203Y-61550074D01*
X108931419Y-61529250D01*
X108938651Y-61509038D01*
X108947830Y-61489632D01*
X108958866Y-61471219D01*
X108971654Y-61453976D01*
X108986070Y-61438070D01*
X109001976Y-61423654D01*
X109019219Y-61410866D01*
X109037632Y-61399830D01*
X109057038Y-61390651D01*
X109077250Y-61383419D01*
X109098074Y-61378203D01*
X109119309Y-61375053D01*
X109140750Y-61374000D01*
X109578250Y-61374000D01*
X109599691Y-61375053D01*
X109599691Y-61375053D01*
G37*
D13*
G04 #@! TD*
G04 #@! TO.P,C10,1*
G04 #@! TO.N,BAT+*
X109359500Y-61849000D03*
D12*
G04 #@! TO.N,BAT-*
G04 #@! TO.C,C10*
G36*
X111174691Y-61375053D02*
X111195926Y-61378203D01*
X111216750Y-61383419D01*
X111236962Y-61390651D01*
X111256368Y-61399830D01*
X111274781Y-61410866D01*
X111292024Y-61423654D01*
X111307930Y-61438070D01*
X111322346Y-61453976D01*
X111335134Y-61471219D01*
X111346170Y-61489632D01*
X111355349Y-61509038D01*
X111362581Y-61529250D01*
X111367797Y-61550074D01*
X111370947Y-61571309D01*
X111372000Y-61592750D01*
X111372000Y-62105250D01*
X111370947Y-62126691D01*
X111367797Y-62147926D01*
X111362581Y-62168750D01*
X111355349Y-62188962D01*
X111346170Y-62208368D01*
X111335134Y-62226781D01*
X111322346Y-62244024D01*
X111307930Y-62259930D01*
X111292024Y-62274346D01*
X111274781Y-62287134D01*
X111256368Y-62298170D01*
X111236962Y-62307349D01*
X111216750Y-62314581D01*
X111195926Y-62319797D01*
X111174691Y-62322947D01*
X111153250Y-62324000D01*
X110715750Y-62324000D01*
X110694309Y-62322947D01*
X110673074Y-62319797D01*
X110652250Y-62314581D01*
X110632038Y-62307349D01*
X110612632Y-62298170D01*
X110594219Y-62287134D01*
X110576976Y-62274346D01*
X110561070Y-62259930D01*
X110546654Y-62244024D01*
X110533866Y-62226781D01*
X110522830Y-62208368D01*
X110513651Y-62188962D01*
X110506419Y-62168750D01*
X110501203Y-62147926D01*
X110498053Y-62126691D01*
X110497000Y-62105250D01*
X110497000Y-61592750D01*
X110498053Y-61571309D01*
X110501203Y-61550074D01*
X110506419Y-61529250D01*
X110513651Y-61509038D01*
X110522830Y-61489632D01*
X110533866Y-61471219D01*
X110546654Y-61453976D01*
X110561070Y-61438070D01*
X110576976Y-61423654D01*
X110594219Y-61410866D01*
X110612632Y-61399830D01*
X110632038Y-61390651D01*
X110652250Y-61383419D01*
X110673074Y-61378203D01*
X110694309Y-61375053D01*
X110715750Y-61374000D01*
X111153250Y-61374000D01*
X111174691Y-61375053D01*
X111174691Y-61375053D01*
G37*
D13*
G04 #@! TD*
G04 #@! TO.P,C10,2*
G04 #@! TO.N,BAT-*
X110934500Y-61849000D03*
D12*
G04 #@! TO.N,BAT-*
G04 #@! TO.C,C11*
G36*
X109244191Y-51088053D02*
X109265426Y-51091203D01*
X109286250Y-51096419D01*
X109306462Y-51103651D01*
X109325868Y-51112830D01*
X109344281Y-51123866D01*
X109361524Y-51136654D01*
X109377430Y-51151070D01*
X109391846Y-51166976D01*
X109404634Y-51184219D01*
X109415670Y-51202632D01*
X109424849Y-51222038D01*
X109432081Y-51242250D01*
X109437297Y-51263074D01*
X109440447Y-51284309D01*
X109441500Y-51305750D01*
X109441500Y-51818250D01*
X109440447Y-51839691D01*
X109437297Y-51860926D01*
X109432081Y-51881750D01*
X109424849Y-51901962D01*
X109415670Y-51921368D01*
X109404634Y-51939781D01*
X109391846Y-51957024D01*
X109377430Y-51972930D01*
X109361524Y-51987346D01*
X109344281Y-52000134D01*
X109325868Y-52011170D01*
X109306462Y-52020349D01*
X109286250Y-52027581D01*
X109265426Y-52032797D01*
X109244191Y-52035947D01*
X109222750Y-52037000D01*
X108785250Y-52037000D01*
X108763809Y-52035947D01*
X108742574Y-52032797D01*
X108721750Y-52027581D01*
X108701538Y-52020349D01*
X108682132Y-52011170D01*
X108663719Y-52000134D01*
X108646476Y-51987346D01*
X108630570Y-51972930D01*
X108616154Y-51957024D01*
X108603366Y-51939781D01*
X108592330Y-51921368D01*
X108583151Y-51901962D01*
X108575919Y-51881750D01*
X108570703Y-51860926D01*
X108567553Y-51839691D01*
X108566500Y-51818250D01*
X108566500Y-51305750D01*
X108567553Y-51284309D01*
X108570703Y-51263074D01*
X108575919Y-51242250D01*
X108583151Y-51222038D01*
X108592330Y-51202632D01*
X108603366Y-51184219D01*
X108616154Y-51166976D01*
X108630570Y-51151070D01*
X108646476Y-51136654D01*
X108663719Y-51123866D01*
X108682132Y-51112830D01*
X108701538Y-51103651D01*
X108721750Y-51096419D01*
X108742574Y-51091203D01*
X108763809Y-51088053D01*
X108785250Y-51087000D01*
X109222750Y-51087000D01*
X109244191Y-51088053D01*
X109244191Y-51088053D01*
G37*
D13*
G04 #@! TD*
G04 #@! TO.P,C11,2*
G04 #@! TO.N,BAT-*
X109004000Y-51562000D03*
D12*
G04 #@! TO.N,VDD*
G04 #@! TO.C,C11*
G36*
X110819191Y-51088053D02*
X110840426Y-51091203D01*
X110861250Y-51096419D01*
X110881462Y-51103651D01*
X110900868Y-51112830D01*
X110919281Y-51123866D01*
X110936524Y-51136654D01*
X110952430Y-51151070D01*
X110966846Y-51166976D01*
X110979634Y-51184219D01*
X110990670Y-51202632D01*
X110999849Y-51222038D01*
X111007081Y-51242250D01*
X111012297Y-51263074D01*
X111015447Y-51284309D01*
X111016500Y-51305750D01*
X111016500Y-51818250D01*
X111015447Y-51839691D01*
X111012297Y-51860926D01*
X111007081Y-51881750D01*
X110999849Y-51901962D01*
X110990670Y-51921368D01*
X110979634Y-51939781D01*
X110966846Y-51957024D01*
X110952430Y-51972930D01*
X110936524Y-51987346D01*
X110919281Y-52000134D01*
X110900868Y-52011170D01*
X110881462Y-52020349D01*
X110861250Y-52027581D01*
X110840426Y-52032797D01*
X110819191Y-52035947D01*
X110797750Y-52037000D01*
X110360250Y-52037000D01*
X110338809Y-52035947D01*
X110317574Y-52032797D01*
X110296750Y-52027581D01*
X110276538Y-52020349D01*
X110257132Y-52011170D01*
X110238719Y-52000134D01*
X110221476Y-51987346D01*
X110205570Y-51972930D01*
X110191154Y-51957024D01*
X110178366Y-51939781D01*
X110167330Y-51921368D01*
X110158151Y-51901962D01*
X110150919Y-51881750D01*
X110145703Y-51860926D01*
X110142553Y-51839691D01*
X110141500Y-51818250D01*
X110141500Y-51305750D01*
X110142553Y-51284309D01*
X110145703Y-51263074D01*
X110150919Y-51242250D01*
X110158151Y-51222038D01*
X110167330Y-51202632D01*
X110178366Y-51184219D01*
X110191154Y-51166976D01*
X110205570Y-51151070D01*
X110221476Y-51136654D01*
X110238719Y-51123866D01*
X110257132Y-51112830D01*
X110276538Y-51103651D01*
X110296750Y-51096419D01*
X110317574Y-51091203D01*
X110338809Y-51088053D01*
X110360250Y-51087000D01*
X110797750Y-51087000D01*
X110819191Y-51088053D01*
X110819191Y-51088053D01*
G37*
D13*
G04 #@! TD*
G04 #@! TO.P,C11,1*
G04 #@! TO.N,VDD*
X110579000Y-51562000D03*
D10*
G04 #@! TO.P,J2,1*
G04 #@! TO.N,PWM*
X105854500Y-93599000D03*
D11*
G04 #@! TO.P,J2,2*
G04 #@! TO.N,BAT-*
X105854500Y-96139000D03*
G04 #@! TO.P,J2,3*
G04 #@! TO.N,VOUT_*
X105854500Y-98679000D03*
G04 #@! TO.P,J2,4*
G04 #@! TO.N,BAT-*
X105854500Y-101219000D03*
G04 #@! TO.P,J2,5*
G04 #@! TO.N,TRIGGER*
X105854500Y-103759000D03*
G04 #@! TO.P,J2,6*
G04 #@! TO.N,VDD*
X105854500Y-106299000D03*
G04 #@! TD*
D10*
G04 #@! TO.P,J5,1*
G04 #@! TO.N,VDD*
X149669500Y-52451000D03*
G04 #@! TD*
G04 #@! TO.P,J10,1*
G04 #@! TO.N,BAT+*
X103822500Y-60706000D03*
D11*
G04 #@! TO.P,J10,2*
G04 #@! TO.N,BAT-*
X101282500Y-60706000D03*
G04 #@! TD*
D12*
G04 #@! TO.N,VDD*
G04 #@! TO.C,R1*
G36*
X123023191Y-64105053D02*
X123044426Y-64108203D01*
X123065250Y-64113419D01*
X123085462Y-64120651D01*
X123104868Y-64129830D01*
X123123281Y-64140866D01*
X123140524Y-64153654D01*
X123156430Y-64168070D01*
X123170846Y-64183976D01*
X123183634Y-64201219D01*
X123194670Y-64219632D01*
X123203849Y-64239038D01*
X123211081Y-64259250D01*
X123216297Y-64280074D01*
X123219447Y-64301309D01*
X123220500Y-64322750D01*
X123220500Y-64760250D01*
X123219447Y-64781691D01*
X123216297Y-64802926D01*
X123211081Y-64823750D01*
X123203849Y-64843962D01*
X123194670Y-64863368D01*
X123183634Y-64881781D01*
X123170846Y-64899024D01*
X123156430Y-64914930D01*
X123140524Y-64929346D01*
X123123281Y-64942134D01*
X123104868Y-64953170D01*
X123085462Y-64962349D01*
X123065250Y-64969581D01*
X123044426Y-64974797D01*
X123023191Y-64977947D01*
X123001750Y-64979000D01*
X122489250Y-64979000D01*
X122467809Y-64977947D01*
X122446574Y-64974797D01*
X122425750Y-64969581D01*
X122405538Y-64962349D01*
X122386132Y-64953170D01*
X122367719Y-64942134D01*
X122350476Y-64929346D01*
X122334570Y-64914930D01*
X122320154Y-64899024D01*
X122307366Y-64881781D01*
X122296330Y-64863368D01*
X122287151Y-64843962D01*
X122279919Y-64823750D01*
X122274703Y-64802926D01*
X122271553Y-64781691D01*
X122270500Y-64760250D01*
X122270500Y-64322750D01*
X122271553Y-64301309D01*
X122274703Y-64280074D01*
X122279919Y-64259250D01*
X122287151Y-64239038D01*
X122296330Y-64219632D01*
X122307366Y-64201219D01*
X122320154Y-64183976D01*
X122334570Y-64168070D01*
X122350476Y-64153654D01*
X122367719Y-64140866D01*
X122386132Y-64129830D01*
X122405538Y-64120651D01*
X122425750Y-64113419D01*
X122446574Y-64108203D01*
X122467809Y-64105053D01*
X122489250Y-64104000D01*
X123001750Y-64104000D01*
X123023191Y-64105053D01*
X123023191Y-64105053D01*
G37*
D13*
G04 #@! TD*
G04 #@! TO.P,R1,2*
G04 #@! TO.N,VDD*
X122745500Y-64541500D03*
D12*
G04 #@! TO.N,Net-(R1-Pad1)*
G04 #@! TO.C,R1*
G36*
X123023191Y-62530053D02*
X123044426Y-62533203D01*
X123065250Y-62538419D01*
X123085462Y-62545651D01*
X123104868Y-62554830D01*
X123123281Y-62565866D01*
X123140524Y-62578654D01*
X123156430Y-62593070D01*
X123170846Y-62608976D01*
X123183634Y-62626219D01*
X123194670Y-62644632D01*
X123203849Y-62664038D01*
X123211081Y-62684250D01*
X123216297Y-62705074D01*
X123219447Y-62726309D01*
X123220500Y-62747750D01*
X123220500Y-63185250D01*
X123219447Y-63206691D01*
X123216297Y-63227926D01*
X123211081Y-63248750D01*
X123203849Y-63268962D01*
X123194670Y-63288368D01*
X123183634Y-63306781D01*
X123170846Y-63324024D01*
X123156430Y-63339930D01*
X123140524Y-63354346D01*
X123123281Y-63367134D01*
X123104868Y-63378170D01*
X123085462Y-63387349D01*
X123065250Y-63394581D01*
X123044426Y-63399797D01*
X123023191Y-63402947D01*
X123001750Y-63404000D01*
X122489250Y-63404000D01*
X122467809Y-63402947D01*
X122446574Y-63399797D01*
X122425750Y-63394581D01*
X122405538Y-63387349D01*
X122386132Y-63378170D01*
X122367719Y-63367134D01*
X122350476Y-63354346D01*
X122334570Y-63339930D01*
X122320154Y-63324024D01*
X122307366Y-63306781D01*
X122296330Y-63288368D01*
X122287151Y-63268962D01*
X122279919Y-63248750D01*
X122274703Y-63227926D01*
X122271553Y-63206691D01*
X122270500Y-63185250D01*
X122270500Y-62747750D01*
X122271553Y-62726309D01*
X122274703Y-62705074D01*
X122279919Y-62684250D01*
X122287151Y-62664038D01*
X122296330Y-62644632D01*
X122307366Y-62626219D01*
X122320154Y-62608976D01*
X122334570Y-62593070D01*
X122350476Y-62578654D01*
X122367719Y-62565866D01*
X122386132Y-62554830D01*
X122405538Y-62545651D01*
X122425750Y-62538419D01*
X122446574Y-62533203D01*
X122467809Y-62530053D01*
X122489250Y-62529000D01*
X123001750Y-62529000D01*
X123023191Y-62530053D01*
X123023191Y-62530053D01*
G37*
D13*
G04 #@! TD*
G04 #@! TO.P,R1,1*
G04 #@! TO.N,Net-(R1-Pad1)*
X122745500Y-62966500D03*
D12*
G04 #@! TO.N,Net-(R2-Pad1)*
G04 #@! TO.C,R2*
G36*
X128738191Y-60472553D02*
X128759426Y-60475703D01*
X128780250Y-60480919D01*
X128800462Y-60488151D01*
X128819868Y-60497330D01*
X128838281Y-60508366D01*
X128855524Y-60521154D01*
X128871430Y-60535570D01*
X128885846Y-60551476D01*
X128898634Y-60568719D01*
X128909670Y-60587132D01*
X128918849Y-60606538D01*
X128926081Y-60626750D01*
X128931297Y-60647574D01*
X128934447Y-60668809D01*
X128935500Y-60690250D01*
X128935500Y-61127750D01*
X128934447Y-61149191D01*
X128931297Y-61170426D01*
X128926081Y-61191250D01*
X128918849Y-61211462D01*
X128909670Y-61230868D01*
X128898634Y-61249281D01*
X128885846Y-61266524D01*
X128871430Y-61282430D01*
X128855524Y-61296846D01*
X128838281Y-61309634D01*
X128819868Y-61320670D01*
X128800462Y-61329849D01*
X128780250Y-61337081D01*
X128759426Y-61342297D01*
X128738191Y-61345447D01*
X128716750Y-61346500D01*
X128204250Y-61346500D01*
X128182809Y-61345447D01*
X128161574Y-61342297D01*
X128140750Y-61337081D01*
X128120538Y-61329849D01*
X128101132Y-61320670D01*
X128082719Y-61309634D01*
X128065476Y-61296846D01*
X128049570Y-61282430D01*
X128035154Y-61266524D01*
X128022366Y-61249281D01*
X128011330Y-61230868D01*
X128002151Y-61211462D01*
X127994919Y-61191250D01*
X127989703Y-61170426D01*
X127986553Y-61149191D01*
X127985500Y-61127750D01*
X127985500Y-60690250D01*
X127986553Y-60668809D01*
X127989703Y-60647574D01*
X127994919Y-60626750D01*
X128002151Y-60606538D01*
X128011330Y-60587132D01*
X128022366Y-60568719D01*
X128035154Y-60551476D01*
X128049570Y-60535570D01*
X128065476Y-60521154D01*
X128082719Y-60508366D01*
X128101132Y-60497330D01*
X128120538Y-60488151D01*
X128140750Y-60480919D01*
X128161574Y-60475703D01*
X128182809Y-60472553D01*
X128204250Y-60471500D01*
X128716750Y-60471500D01*
X128738191Y-60472553D01*
X128738191Y-60472553D01*
G37*
D13*
G04 #@! TD*
G04 #@! TO.P,R2,1*
G04 #@! TO.N,Net-(R2-Pad1)*
X128460500Y-60909000D03*
D12*
G04 #@! TO.N,VDD*
G04 #@! TO.C,R2*
G36*
X128738191Y-62047553D02*
X128759426Y-62050703D01*
X128780250Y-62055919D01*
X128800462Y-62063151D01*
X128819868Y-62072330D01*
X128838281Y-62083366D01*
X128855524Y-62096154D01*
X128871430Y-62110570D01*
X128885846Y-62126476D01*
X128898634Y-62143719D01*
X128909670Y-62162132D01*
X128918849Y-62181538D01*
X128926081Y-62201750D01*
X128931297Y-62222574D01*
X128934447Y-62243809D01*
X128935500Y-62265250D01*
X128935500Y-62702750D01*
X128934447Y-62724191D01*
X128931297Y-62745426D01*
X128926081Y-62766250D01*
X128918849Y-62786462D01*
X128909670Y-62805868D01*
X128898634Y-62824281D01*
X128885846Y-62841524D01*
X128871430Y-62857430D01*
X128855524Y-62871846D01*
X128838281Y-62884634D01*
X128819868Y-62895670D01*
X128800462Y-62904849D01*
X128780250Y-62912081D01*
X128759426Y-62917297D01*
X128738191Y-62920447D01*
X128716750Y-62921500D01*
X128204250Y-62921500D01*
X128182809Y-62920447D01*
X128161574Y-62917297D01*
X128140750Y-62912081D01*
X128120538Y-62904849D01*
X128101132Y-62895670D01*
X128082719Y-62884634D01*
X128065476Y-62871846D01*
X128049570Y-62857430D01*
X128035154Y-62841524D01*
X128022366Y-62824281D01*
X128011330Y-62805868D01*
X128002151Y-62786462D01*
X127994919Y-62766250D01*
X127989703Y-62745426D01*
X127986553Y-62724191D01*
X127985500Y-62702750D01*
X127985500Y-62265250D01*
X127986553Y-62243809D01*
X127989703Y-62222574D01*
X127994919Y-62201750D01*
X128002151Y-62181538D01*
X128011330Y-62162132D01*
X128022366Y-62143719D01*
X128035154Y-62126476D01*
X128049570Y-62110570D01*
X128065476Y-62096154D01*
X128082719Y-62083366D01*
X128101132Y-62072330D01*
X128120538Y-62063151D01*
X128140750Y-62055919D01*
X128161574Y-62050703D01*
X128182809Y-62047553D01*
X128204250Y-62046500D01*
X128716750Y-62046500D01*
X128738191Y-62047553D01*
X128738191Y-62047553D01*
G37*
D13*
G04 #@! TD*
G04 #@! TO.P,R2,2*
G04 #@! TO.N,VDD*
X128460500Y-62484000D03*
D12*
G04 #@! TO.N,Net-(R3-Pad2)*
G04 #@! TO.C,R3*
G36*
X127887691Y-67217053D02*
X127908926Y-67220203D01*
X127929750Y-67225419D01*
X127949962Y-67232651D01*
X127969368Y-67241830D01*
X127987781Y-67252866D01*
X128005024Y-67265654D01*
X128020930Y-67280070D01*
X128035346Y-67295976D01*
X128048134Y-67313219D01*
X128059170Y-67331632D01*
X128068349Y-67351038D01*
X128075581Y-67371250D01*
X128080797Y-67392074D01*
X128083947Y-67413309D01*
X128085000Y-67434750D01*
X128085000Y-67947250D01*
X128083947Y-67968691D01*
X128080797Y-67989926D01*
X128075581Y-68010750D01*
X128068349Y-68030962D01*
X128059170Y-68050368D01*
X128048134Y-68068781D01*
X128035346Y-68086024D01*
X128020930Y-68101930D01*
X128005024Y-68116346D01*
X127987781Y-68129134D01*
X127969368Y-68140170D01*
X127949962Y-68149349D01*
X127929750Y-68156581D01*
X127908926Y-68161797D01*
X127887691Y-68164947D01*
X127866250Y-68166000D01*
X127428750Y-68166000D01*
X127407309Y-68164947D01*
X127386074Y-68161797D01*
X127365250Y-68156581D01*
X127345038Y-68149349D01*
X127325632Y-68140170D01*
X127307219Y-68129134D01*
X127289976Y-68116346D01*
X127274070Y-68101930D01*
X127259654Y-68086024D01*
X127246866Y-68068781D01*
X127235830Y-68050368D01*
X127226651Y-68030962D01*
X127219419Y-68010750D01*
X127214203Y-67989926D01*
X127211053Y-67968691D01*
X127210000Y-67947250D01*
X127210000Y-67434750D01*
X127211053Y-67413309D01*
X127214203Y-67392074D01*
X127219419Y-67371250D01*
X127226651Y-67351038D01*
X127235830Y-67331632D01*
X127246866Y-67313219D01*
X127259654Y-67295976D01*
X127274070Y-67280070D01*
X127289976Y-67265654D01*
X127307219Y-67252866D01*
X127325632Y-67241830D01*
X127345038Y-67232651D01*
X127365250Y-67225419D01*
X127386074Y-67220203D01*
X127407309Y-67217053D01*
X127428750Y-67216000D01*
X127866250Y-67216000D01*
X127887691Y-67217053D01*
X127887691Y-67217053D01*
G37*
D13*
G04 #@! TD*
G04 #@! TO.P,R3,2*
G04 #@! TO.N,Net-(R3-Pad2)*
X127647500Y-67691000D03*
D12*
G04 #@! TO.N,BAT-*
G04 #@! TO.C,R3*
G36*
X129462691Y-67217053D02*
X129483926Y-67220203D01*
X129504750Y-67225419D01*
X129524962Y-67232651D01*
X129544368Y-67241830D01*
X129562781Y-67252866D01*
X129580024Y-67265654D01*
X129595930Y-67280070D01*
X129610346Y-67295976D01*
X129623134Y-67313219D01*
X129634170Y-67331632D01*
X129643349Y-67351038D01*
X129650581Y-67371250D01*
X129655797Y-67392074D01*
X129658947Y-67413309D01*
X129660000Y-67434750D01*
X129660000Y-67947250D01*
X129658947Y-67968691D01*
X129655797Y-67989926D01*
X129650581Y-68010750D01*
X129643349Y-68030962D01*
X129634170Y-68050368D01*
X129623134Y-68068781D01*
X129610346Y-68086024D01*
X129595930Y-68101930D01*
X129580024Y-68116346D01*
X129562781Y-68129134D01*
X129544368Y-68140170D01*
X129524962Y-68149349D01*
X129504750Y-68156581D01*
X129483926Y-68161797D01*
X129462691Y-68164947D01*
X129441250Y-68166000D01*
X129003750Y-68166000D01*
X128982309Y-68164947D01*
X128961074Y-68161797D01*
X128940250Y-68156581D01*
X128920038Y-68149349D01*
X128900632Y-68140170D01*
X128882219Y-68129134D01*
X128864976Y-68116346D01*
X128849070Y-68101930D01*
X128834654Y-68086024D01*
X128821866Y-68068781D01*
X128810830Y-68050368D01*
X128801651Y-68030962D01*
X128794419Y-68010750D01*
X128789203Y-67989926D01*
X128786053Y-67968691D01*
X128785000Y-67947250D01*
X128785000Y-67434750D01*
X128786053Y-67413309D01*
X128789203Y-67392074D01*
X128794419Y-67371250D01*
X128801651Y-67351038D01*
X128810830Y-67331632D01*
X128821866Y-67313219D01*
X128834654Y-67295976D01*
X128849070Y-67280070D01*
X128864976Y-67265654D01*
X128882219Y-67252866D01*
X128900632Y-67241830D01*
X128920038Y-67232651D01*
X128940250Y-67225419D01*
X128961074Y-67220203D01*
X128982309Y-67217053D01*
X129003750Y-67216000D01*
X129441250Y-67216000D01*
X129462691Y-67217053D01*
X129462691Y-67217053D01*
G37*
D13*
G04 #@! TD*
G04 #@! TO.P,R3,1*
G04 #@! TO.N,BAT-*
X129222500Y-67691000D03*
D12*
G04 #@! TO.N,Net-(R4-Pad1)*
G04 #@! TO.C,R4*
G36*
X134072191Y-62377553D02*
X134093426Y-62380703D01*
X134114250Y-62385919D01*
X134134462Y-62393151D01*
X134153868Y-62402330D01*
X134172281Y-62413366D01*
X134189524Y-62426154D01*
X134205430Y-62440570D01*
X134219846Y-62456476D01*
X134232634Y-62473719D01*
X134243670Y-62492132D01*
X134252849Y-62511538D01*
X134260081Y-62531750D01*
X134265297Y-62552574D01*
X134268447Y-62573809D01*
X134269500Y-62595250D01*
X134269500Y-63032750D01*
X134268447Y-63054191D01*
X134265297Y-63075426D01*
X134260081Y-63096250D01*
X134252849Y-63116462D01*
X134243670Y-63135868D01*
X134232634Y-63154281D01*
X134219846Y-63171524D01*
X134205430Y-63187430D01*
X134189524Y-63201846D01*
X134172281Y-63214634D01*
X134153868Y-63225670D01*
X134134462Y-63234849D01*
X134114250Y-63242081D01*
X134093426Y-63247297D01*
X134072191Y-63250447D01*
X134050750Y-63251500D01*
X133538250Y-63251500D01*
X133516809Y-63250447D01*
X133495574Y-63247297D01*
X133474750Y-63242081D01*
X133454538Y-63234849D01*
X133435132Y-63225670D01*
X133416719Y-63214634D01*
X133399476Y-63201846D01*
X133383570Y-63187430D01*
X133369154Y-63171524D01*
X133356366Y-63154281D01*
X133345330Y-63135868D01*
X133336151Y-63116462D01*
X133328919Y-63096250D01*
X133323703Y-63075426D01*
X133320553Y-63054191D01*
X133319500Y-63032750D01*
X133319500Y-62595250D01*
X133320553Y-62573809D01*
X133323703Y-62552574D01*
X133328919Y-62531750D01*
X133336151Y-62511538D01*
X133345330Y-62492132D01*
X133356366Y-62473719D01*
X133369154Y-62456476D01*
X133383570Y-62440570D01*
X133399476Y-62426154D01*
X133416719Y-62413366D01*
X133435132Y-62402330D01*
X133454538Y-62393151D01*
X133474750Y-62385919D01*
X133495574Y-62380703D01*
X133516809Y-62377553D01*
X133538250Y-62376500D01*
X134050750Y-62376500D01*
X134072191Y-62377553D01*
X134072191Y-62377553D01*
G37*
D13*
G04 #@! TD*
G04 #@! TO.P,R4,1*
G04 #@! TO.N,Net-(R4-Pad1)*
X133794500Y-62814000D03*
D12*
G04 #@! TO.N,VDD*
G04 #@! TO.C,R4*
G36*
X134072191Y-63952553D02*
X134093426Y-63955703D01*
X134114250Y-63960919D01*
X134134462Y-63968151D01*
X134153868Y-63977330D01*
X134172281Y-63988366D01*
X134189524Y-64001154D01*
X134205430Y-64015570D01*
X134219846Y-64031476D01*
X134232634Y-64048719D01*
X134243670Y-64067132D01*
X134252849Y-64086538D01*
X134260081Y-64106750D01*
X134265297Y-64127574D01*
X134268447Y-64148809D01*
X134269500Y-64170250D01*
X134269500Y-64607750D01*
X134268447Y-64629191D01*
X134265297Y-64650426D01*
X134260081Y-64671250D01*
X134252849Y-64691462D01*
X134243670Y-64710868D01*
X134232634Y-64729281D01*
X134219846Y-64746524D01*
X134205430Y-64762430D01*
X134189524Y-64776846D01*
X134172281Y-64789634D01*
X134153868Y-64800670D01*
X134134462Y-64809849D01*
X134114250Y-64817081D01*
X134093426Y-64822297D01*
X134072191Y-64825447D01*
X134050750Y-64826500D01*
X133538250Y-64826500D01*
X133516809Y-64825447D01*
X133495574Y-64822297D01*
X133474750Y-64817081D01*
X133454538Y-64809849D01*
X133435132Y-64800670D01*
X133416719Y-64789634D01*
X133399476Y-64776846D01*
X133383570Y-64762430D01*
X133369154Y-64746524D01*
X133356366Y-64729281D01*
X133345330Y-64710868D01*
X133336151Y-64691462D01*
X133328919Y-64671250D01*
X133323703Y-64650426D01*
X133320553Y-64629191D01*
X133319500Y-64607750D01*
X133319500Y-64170250D01*
X133320553Y-64148809D01*
X133323703Y-64127574D01*
X133328919Y-64106750D01*
X133336151Y-64086538D01*
X133345330Y-64067132D01*
X133356366Y-64048719D01*
X133369154Y-64031476D01*
X133383570Y-64015570D01*
X133399476Y-64001154D01*
X133416719Y-63988366D01*
X133435132Y-63977330D01*
X133454538Y-63968151D01*
X133474750Y-63960919D01*
X133495574Y-63955703D01*
X133516809Y-63952553D01*
X133538250Y-63951500D01*
X134050750Y-63951500D01*
X134072191Y-63952553D01*
X134072191Y-63952553D01*
G37*
D13*
G04 #@! TD*
G04 #@! TO.P,R4,2*
G04 #@! TO.N,VDD*
X133794500Y-64389000D03*
D14*
G04 #@! TO.P,SW1,4*
G04 #@! TO.N,Net-(SW1-Pad4)*
X138159177Y-63467636D03*
G04 #@! TO.P,SW1,5*
G04 #@! TO.N,Net-(SW1-Pad5)*
X139775623Y-69035395D03*
G04 #@! TO.P,SW1,6*
G04 #@! TO.N,Net-(SW1-Pad6)*
X138159177Y-74603154D03*
G04 #@! TO.P,SW1,7*
G04 #@! TO.N,Net-(SW1-Pad7)*
X134028259Y-78734071D03*
G04 #@! TO.P,SW1,8*
G04 #@! TO.N,Net-(SW1-Pad8)*
X128460500Y-80350518D03*
G04 #@! TO.P,SW1,9*
G04 #@! TO.N,Net-(SW1-Pad9)*
X123072346Y-78913677D03*
G04 #@! TO.P,SW1,10*
G04 #@! TO.N,Net-(SW1-Pad10)*
X118761823Y-74603154D03*
G04 #@! TO.P,SW1,11*
G04 #@! TO.N,Net-(SW1-Pad11)*
X117324982Y-69215000D03*
G04 #@! TO.P,SW1,12*
G04 #@! TO.N,Net-(SW1-Pad12)*
X118761823Y-63826846D03*
G04 #@! TO.P,SW1,1*
G04 #@! TO.N,Net-(R1-Pad1)*
X122713136Y-59516323D03*
G04 #@! TO.P,SW1,2*
G04 #@! TO.N,Net-(R2-Pad1)*
X128460500Y-58079482D03*
G04 #@! TO.P,SW1,3*
G04 #@! TO.N,Net-(R4-Pad1)*
X133848654Y-59516323D03*
G04 #@! TO.P,SW1,13*
G04 #@! TO.N,Net-(R3-Pad2)*
X128460500Y-65263687D03*
G04 #@! TD*
D15*
G04 #@! TO.P,SW2,*
G04 #@! TO.N,*
X156146500Y-61087000D03*
X142938500Y-60833000D03*
D16*
G04 #@! TO.P,SW2,C*
G04 #@! TO.N,BAT-*
X152082500Y-68707000D03*
G04 #@! TO.P,SW2,B*
G04 #@! TO.N,B1*
X149542500Y-68707000D03*
G04 #@! TO.P,SW2,A*
G04 #@! TO.N,A1*
X147002500Y-68707000D03*
G04 #@! TD*
G04 #@! TO.P,SW3,A*
G04 #@! TO.N,A2*
X147002500Y-83693000D03*
G04 #@! TO.P,SW3,B*
G04 #@! TO.N,B2*
X149542500Y-83693000D03*
G04 #@! TO.P,SW3,C*
G04 #@! TO.N,BAT-*
X152082500Y-83693000D03*
D15*
G04 #@! TO.P,SW3,*
G04 #@! TO.N,*
X142938500Y-75819000D03*
X156146500Y-76073000D03*
G04 #@! TD*
D16*
G04 #@! TO.P,SW4,1*
G04 #@! TO.N,VDD*
X112712500Y-85217000D03*
G04 #@! TO.P,SW4,2*
G04 #@! TO.N,Net-(SW4-Pad2)*
X100520500Y-85217000D03*
G04 #@! TO.P,SW4,3*
G04 #@! TO.N,Net-(SW4-Pad3)*
X112712500Y-80137000D03*
G04 #@! TO.P,SW4,4*
G04 #@! TO.N,Net-(SW4-Pad4)*
X100520500Y-80137000D03*
G04 #@! TD*
D17*
G04 #@! TO.P,Y1,1*
G04 #@! TO.N,Net-(U1-Pad5)*
X101790500Y-96393000D03*
G04 #@! TO.P,Y1,2*
G04 #@! TO.N,VDD*
X101790500Y-91513000D03*
G04 #@! TD*
D18*
G04 #@! TO.P,J4,6*
G04 #@! TO.N,BAT-*
X106068500Y-55437500D03*
X101068500Y-55437500D03*
D19*
X107068500Y-52737500D03*
X100068500Y-52737500D03*
G04 #@! TD*
D20*
G04 #@! TO.P,U2,1*
G04 #@! TO.N,VDD*
X124860500Y-75950000D03*
G04 #@! TO.P,U2,2*
G04 #@! TO.N,B1*
X124860500Y-75300000D03*
G04 #@! TO.P,U2,3*
G04 #@! TO.N,A1*
X124860500Y-74650000D03*
G04 #@! TO.P,U2,4*
G04 #@! TO.N,MCLR*
X124860500Y-74000000D03*
G04 #@! TO.P,U2,5*
G04 #@! TO.N,PWM*
X124860500Y-73350000D03*
G04 #@! TO.P,U2,6*
G04 #@! TO.N,Net-(U2-Pad6)*
X124860500Y-72700000D03*
G04 #@! TO.P,U2,7*
G04 #@! TO.N,TRIGGER*
X124860500Y-72050000D03*
G04 #@! TO.P,U2,8*
G04 #@! TO.N,Net-(U2-Pad8)*
X124860500Y-71400000D03*
G04 #@! TO.P,U2,9*
G04 #@! TO.N,SDO*
X124860500Y-70750000D03*
G04 #@! TO.P,U2,10*
G04 #@! TO.N,A2*
X124860500Y-70100000D03*
G04 #@! TO.P,U2,11*
G04 #@! TO.N,SCK*
X132060500Y-70100000D03*
G04 #@! TO.P,U2,12*
G04 #@! TO.N,MIDI-IN*
X132060500Y-70750000D03*
G04 #@! TO.P,U2,13*
G04 #@! TO.N,Net-(U2-Pad13)*
X132060500Y-71400000D03*
G04 #@! TO.P,U2,14*
G04 #@! TO.N,FSYNC*
X132060500Y-72050000D03*
G04 #@! TO.P,U2,15*
G04 #@! TO.N,Net-(SW4-Pad3)*
X132060500Y-72700000D03*
G04 #@! TO.P,U2,16*
G04 #@! TO.N,Net-(R3-Pad2)*
X132060500Y-73350000D03*
G04 #@! TO.P,U2,17*
G04 #@! TO.N,Net-(U2-Pad17)*
X132060500Y-74000000D03*
G04 #@! TO.P,U2,18*
G04 #@! TO.N,B2*
X132060500Y-74650000D03*
G04 #@! TO.P,U2,19*
G04 #@! TO.N,PGD*
X132060500Y-75300000D03*
G04 #@! TO.P,U2,20*
G04 #@! TO.N,BAT-*
X132060500Y-75950000D03*
G04 #@! TD*
D21*
G04 #@! TO.P,RV1,3*
G04 #@! TO.N,BAT-*
X103775500Y-75819000D03*
G04 #@! TO.P,RV1,2*
G04 #@! TO.N,VOUT_*
X106275500Y-75819000D03*
G04 #@! TO.P,RV1,1*
G04 #@! TO.N,VOUT*
X108775500Y-75819000D03*
D22*
G04 #@! TO.P,RV1,*
G04 #@! TO.N,*
X101875500Y-68819000D03*
X110675500Y-68819000D03*
G04 #@! TD*
D12*
G04 #@! TO.N,BAT-*
G04 #@! TO.C,C4*
G36*
X138276691Y-80679053D02*
X138297926Y-80682203D01*
X138318750Y-80687419D01*
X138338962Y-80694651D01*
X138358368Y-80703830D01*
X138376781Y-80714866D01*
X138394024Y-80727654D01*
X138409930Y-80742070D01*
X138424346Y-80757976D01*
X138437134Y-80775219D01*
X138448170Y-80793632D01*
X138457349Y-80813038D01*
X138464581Y-80833250D01*
X138469797Y-80854074D01*
X138472947Y-80875309D01*
X138474000Y-80896750D01*
X138474000Y-81409250D01*
X138472947Y-81430691D01*
X138469797Y-81451926D01*
X138464581Y-81472750D01*
X138457349Y-81492962D01*
X138448170Y-81512368D01*
X138437134Y-81530781D01*
X138424346Y-81548024D01*
X138409930Y-81563930D01*
X138394024Y-81578346D01*
X138376781Y-81591134D01*
X138358368Y-81602170D01*
X138338962Y-81611349D01*
X138318750Y-81618581D01*
X138297926Y-81623797D01*
X138276691Y-81626947D01*
X138255250Y-81628000D01*
X137817750Y-81628000D01*
X137796309Y-81626947D01*
X137775074Y-81623797D01*
X137754250Y-81618581D01*
X137734038Y-81611349D01*
X137714632Y-81602170D01*
X137696219Y-81591134D01*
X137678976Y-81578346D01*
X137663070Y-81563930D01*
X137648654Y-81548024D01*
X137635866Y-81530781D01*
X137624830Y-81512368D01*
X137615651Y-81492962D01*
X137608419Y-81472750D01*
X137603203Y-81451926D01*
X137600053Y-81430691D01*
X137599000Y-81409250D01*
X137599000Y-80896750D01*
X137600053Y-80875309D01*
X137603203Y-80854074D01*
X137608419Y-80833250D01*
X137615651Y-80813038D01*
X137624830Y-80793632D01*
X137635866Y-80775219D01*
X137648654Y-80757976D01*
X137663070Y-80742070D01*
X137678976Y-80727654D01*
X137696219Y-80714866D01*
X137714632Y-80703830D01*
X137734038Y-80694651D01*
X137754250Y-80687419D01*
X137775074Y-80682203D01*
X137796309Y-80679053D01*
X137817750Y-80678000D01*
X138255250Y-80678000D01*
X138276691Y-80679053D01*
X138276691Y-80679053D01*
G37*
D13*
G04 #@! TD*
G04 #@! TO.P,C4,1*
G04 #@! TO.N,BAT-*
X138036500Y-81153000D03*
D12*
G04 #@! TO.N,VDD*
G04 #@! TO.C,C4*
G36*
X136701691Y-80679053D02*
X136722926Y-80682203D01*
X136743750Y-80687419D01*
X136763962Y-80694651D01*
X136783368Y-80703830D01*
X136801781Y-80714866D01*
X136819024Y-80727654D01*
X136834930Y-80742070D01*
X136849346Y-80757976D01*
X136862134Y-80775219D01*
X136873170Y-80793632D01*
X136882349Y-80813038D01*
X136889581Y-80833250D01*
X136894797Y-80854074D01*
X136897947Y-80875309D01*
X136899000Y-80896750D01*
X136899000Y-81409250D01*
X136897947Y-81430691D01*
X136894797Y-81451926D01*
X136889581Y-81472750D01*
X136882349Y-81492962D01*
X136873170Y-81512368D01*
X136862134Y-81530781D01*
X136849346Y-81548024D01*
X136834930Y-81563930D01*
X136819024Y-81578346D01*
X136801781Y-81591134D01*
X136783368Y-81602170D01*
X136763962Y-81611349D01*
X136743750Y-81618581D01*
X136722926Y-81623797D01*
X136701691Y-81626947D01*
X136680250Y-81628000D01*
X136242750Y-81628000D01*
X136221309Y-81626947D01*
X136200074Y-81623797D01*
X136179250Y-81618581D01*
X136159038Y-81611349D01*
X136139632Y-81602170D01*
X136121219Y-81591134D01*
X136103976Y-81578346D01*
X136088070Y-81563930D01*
X136073654Y-81548024D01*
X136060866Y-81530781D01*
X136049830Y-81512368D01*
X136040651Y-81492962D01*
X136033419Y-81472750D01*
X136028203Y-81451926D01*
X136025053Y-81430691D01*
X136024000Y-81409250D01*
X136024000Y-80896750D01*
X136025053Y-80875309D01*
X136028203Y-80854074D01*
X136033419Y-80833250D01*
X136040651Y-80813038D01*
X136049830Y-80793632D01*
X136060866Y-80775219D01*
X136073654Y-80757976D01*
X136088070Y-80742070D01*
X136103976Y-80727654D01*
X136121219Y-80714866D01*
X136139632Y-80703830D01*
X136159038Y-80694651D01*
X136179250Y-80687419D01*
X136200074Y-80682203D01*
X136221309Y-80679053D01*
X136242750Y-80678000D01*
X136680250Y-80678000D01*
X136701691Y-80679053D01*
X136701691Y-80679053D01*
G37*
D13*
G04 #@! TD*
G04 #@! TO.P,C4,2*
G04 #@! TO.N,VDD*
X136461500Y-81153000D03*
D12*
G04 #@! TO.N,MIDI-IN*
G04 #@! TO.C,R6*
G36*
X131596191Y-80679053D02*
X131617426Y-80682203D01*
X131638250Y-80687419D01*
X131658462Y-80694651D01*
X131677868Y-80703830D01*
X131696281Y-80714866D01*
X131713524Y-80727654D01*
X131729430Y-80742070D01*
X131743846Y-80757976D01*
X131756634Y-80775219D01*
X131767670Y-80793632D01*
X131776849Y-80813038D01*
X131784081Y-80833250D01*
X131789297Y-80854074D01*
X131792447Y-80875309D01*
X131793500Y-80896750D01*
X131793500Y-81409250D01*
X131792447Y-81430691D01*
X131789297Y-81451926D01*
X131784081Y-81472750D01*
X131776849Y-81492962D01*
X131767670Y-81512368D01*
X131756634Y-81530781D01*
X131743846Y-81548024D01*
X131729430Y-81563930D01*
X131713524Y-81578346D01*
X131696281Y-81591134D01*
X131677868Y-81602170D01*
X131658462Y-81611349D01*
X131638250Y-81618581D01*
X131617426Y-81623797D01*
X131596191Y-81626947D01*
X131574750Y-81628000D01*
X131137250Y-81628000D01*
X131115809Y-81626947D01*
X131094574Y-81623797D01*
X131073750Y-81618581D01*
X131053538Y-81611349D01*
X131034132Y-81602170D01*
X131015719Y-81591134D01*
X130998476Y-81578346D01*
X130982570Y-81563930D01*
X130968154Y-81548024D01*
X130955366Y-81530781D01*
X130944330Y-81512368D01*
X130935151Y-81492962D01*
X130927919Y-81472750D01*
X130922703Y-81451926D01*
X130919553Y-81430691D01*
X130918500Y-81409250D01*
X130918500Y-80896750D01*
X130919553Y-80875309D01*
X130922703Y-80854074D01*
X130927919Y-80833250D01*
X130935151Y-80813038D01*
X130944330Y-80793632D01*
X130955366Y-80775219D01*
X130968154Y-80757976D01*
X130982570Y-80742070D01*
X130998476Y-80727654D01*
X131015719Y-80714866D01*
X131034132Y-80703830D01*
X131053538Y-80694651D01*
X131073750Y-80687419D01*
X131094574Y-80682203D01*
X131115809Y-80679053D01*
X131137250Y-80678000D01*
X131574750Y-80678000D01*
X131596191Y-80679053D01*
X131596191Y-80679053D01*
G37*
D13*
G04 #@! TD*
G04 #@! TO.P,R6,1*
G04 #@! TO.N,MIDI-IN*
X131356000Y-81153000D03*
D12*
G04 #@! TO.N,VDD*
G04 #@! TO.C,R6*
G36*
X133171191Y-80679053D02*
X133192426Y-80682203D01*
X133213250Y-80687419D01*
X133233462Y-80694651D01*
X133252868Y-80703830D01*
X133271281Y-80714866D01*
X133288524Y-80727654D01*
X133304430Y-80742070D01*
X133318846Y-80757976D01*
X133331634Y-80775219D01*
X133342670Y-80793632D01*
X133351849Y-80813038D01*
X133359081Y-80833250D01*
X133364297Y-80854074D01*
X133367447Y-80875309D01*
X133368500Y-80896750D01*
X133368500Y-81409250D01*
X133367447Y-81430691D01*
X133364297Y-81451926D01*
X133359081Y-81472750D01*
X133351849Y-81492962D01*
X133342670Y-81512368D01*
X133331634Y-81530781D01*
X133318846Y-81548024D01*
X133304430Y-81563930D01*
X133288524Y-81578346D01*
X133271281Y-81591134D01*
X133252868Y-81602170D01*
X133233462Y-81611349D01*
X133213250Y-81618581D01*
X133192426Y-81623797D01*
X133171191Y-81626947D01*
X133149750Y-81628000D01*
X132712250Y-81628000D01*
X132690809Y-81626947D01*
X132669574Y-81623797D01*
X132648750Y-81618581D01*
X132628538Y-81611349D01*
X132609132Y-81602170D01*
X132590719Y-81591134D01*
X132573476Y-81578346D01*
X132557570Y-81563930D01*
X132543154Y-81548024D01*
X132530366Y-81530781D01*
X132519330Y-81512368D01*
X132510151Y-81492962D01*
X132502919Y-81472750D01*
X132497703Y-81451926D01*
X132494553Y-81430691D01*
X132493500Y-81409250D01*
X132493500Y-80896750D01*
X132494553Y-80875309D01*
X132497703Y-80854074D01*
X132502919Y-80833250D01*
X132510151Y-80813038D01*
X132519330Y-80793632D01*
X132530366Y-80775219D01*
X132543154Y-80757976D01*
X132557570Y-80742070D01*
X132573476Y-80727654D01*
X132590719Y-80714866D01*
X132609132Y-80703830D01*
X132628538Y-80694651D01*
X132648750Y-80687419D01*
X132669574Y-80682203D01*
X132690809Y-80679053D01*
X132712250Y-80678000D01*
X133149750Y-80678000D01*
X133171191Y-80679053D01*
X133171191Y-80679053D01*
G37*
D13*
G04 #@! TD*
G04 #@! TO.P,R6,2*
G04 #@! TO.N,VDD*
X132931000Y-81153000D03*
D23*
G04 #@! TO.P,U3,1*
G04 #@! TO.N,Net-(U3-Pad1)*
X136461500Y-91186000D03*
G04 #@! TO.P,U3,5*
G04 #@! TO.N,BAT-*
X128841500Y-83566000D03*
G04 #@! TO.P,U3,2*
G04 #@! TO.N,D1*
X133921500Y-91186000D03*
G04 #@! TO.P,U3,6*
G04 #@! TO.N,MIDI-IN*
X131381500Y-83566000D03*
G04 #@! TO.P,U3,3*
G04 #@! TO.N,D2*
X131381500Y-91186000D03*
G04 #@! TO.P,U3,7*
G04 #@! TO.N,Net-(U3-Pad7)*
X133921500Y-83566000D03*
G04 #@! TO.P,U3,4*
G04 #@! TO.N,Net-(U3-Pad4)*
X128841500Y-91186000D03*
G04 #@! TO.P,U3,8*
G04 #@! TO.N,VDD*
X136461500Y-83566000D03*
G04 #@! TD*
D10*
G04 #@! TO.P,J3,1*
G04 #@! TO.N,BAT-*
X129984500Y-103759000D03*
D11*
G04 #@! TO.P,J3,2*
G04 #@! TO.N,D2*
X129984500Y-101219000D03*
G04 #@! TO.P,J3,3*
G04 #@! TO.N,BAT-*
X129984500Y-98679000D03*
G04 #@! TO.P,J3,4*
G04 #@! TO.N,D1*
X129984500Y-96139000D03*
G04 #@! TD*
D24*
G04 #@! TO.P,U4,1*
G04 #@! TO.N,BAT+*
X109410500Y-59309000D03*
D25*
G04 #@! TO.P,U4,2*
G04 #@! TO.N,BAT-*
X109410500Y-56769000D03*
G04 #@! TO.P,U4,3*
G04 #@! TO.N,VDD*
X109410500Y-54229000D03*
G04 #@! TD*
D26*
G04 #@! TO.P,U1,1*
G04 #@! TO.N,Net-(C1-Pad1)*
X105432500Y-81772000D03*
G04 #@! TO.P,U1,2*
G04 #@! TO.N,VDD*
X105432500Y-81272000D03*
G04 #@! TO.P,U1,3*
G04 #@! TO.N,Net-(C2-Pad1)*
X105432500Y-80772000D03*
G04 #@! TO.P,U1,4*
G04 #@! TO.N,BAT-*
X105432500Y-80272000D03*
G04 #@! TO.P,U1,5*
G04 #@! TO.N,Net-(U1-Pad5)*
X105432500Y-79772000D03*
G04 #@! TO.P,U1,6*
G04 #@! TO.N,SDO*
X109832500Y-79772000D03*
G04 #@! TO.P,U1,7*
G04 #@! TO.N,SCK*
X109832500Y-80272000D03*
G04 #@! TO.P,U1,8*
G04 #@! TO.N,FSYNC*
X109832500Y-80772000D03*
G04 #@! TO.P,U1,9*
G04 #@! TO.N,BAT-*
X109832500Y-81272000D03*
G04 #@! TO.P,U1,10*
G04 #@! TO.N,VOUT*
X109832500Y-81772000D03*
G04 #@! TD*
D27*
G04 #@! TO.P,D1,1*
G04 #@! TO.N,D1*
X92837000Y-120015000D03*
D28*
G04 #@! TO.P,D1,2*
G04 #@! TO.N,D2*
X85217000Y-120015000D03*
G04 #@! TD*
D10*
G04 #@! TO.P,J2,1*
G04 #@! TO.N,GND*
X85217000Y-111887000D03*
D11*
G04 #@! TO.P,J2,2*
G04 #@! TO.N,D2*
X87757000Y-111887000D03*
G04 #@! TO.P,J2,3*
G04 #@! TO.N,GND*
X90297000Y-111887000D03*
G04 #@! TO.P,J2,4*
G04 #@! TO.N,D1*
X92837000Y-111887000D03*
G04 #@! TD*
D29*
G04 #@! TO.P,J1,1*
G04 #@! TO.N,Net-(J1-Pad1)*
X81407000Y-116205000D03*
G04 #@! TO.P,J1,2*
G04 #@! TO.N,Net-(C2-Pad2)*
X89027000Y-116205000D03*
G04 #@! TO.P,J1,3*
G04 #@! TO.N,Net-(J1-Pad3)*
X96647000Y-116205000D03*
G04 #@! TO.P,J1,4*
G04 #@! TO.N,Net-(J1-Pad4)*
X83947000Y-113919000D03*
G04 #@! TO.P,J1,5*
G04 #@! TO.N,D2*
X94107000Y-113919000D03*
D30*
G04 #@! TO.P,J1,*
G04 #@! TO.N,*
X96647000Y-121285000D03*
X81153000Y-121285000D03*
D29*
X83947000Y-126365000D03*
X94107000Y-126365000D03*
G04 #@! TD*
D10*
G04 #@! TO.P,J1,1*
G04 #@! TO.N,PWM*
X82613500Y-78613000D03*
D11*
G04 #@! TO.P,J1,2*
G04 #@! TO.N,GND*
X85153500Y-78613000D03*
G04 #@! TO.P,J1,3*
G04 #@! TO.N,VOUT_*
X87693500Y-78613000D03*
G04 #@! TO.P,J1,4*
G04 #@! TO.N,GND*
X90233500Y-78613000D03*
G04 #@! TO.P,J1,5*
G04 #@! TO.N,TRIGGER*
X92773500Y-78613000D03*
G04 #@! TO.P,J1,6*
G04 #@! TO.N,VDD*
X95313500Y-78613000D03*
G04 #@! TD*
D10*
G04 #@! TO.P,J2,1*
G04 #@! TO.N,TRIGGER*
X96075500Y-73279000D03*
G04 #@! TD*
G04 #@! TO.P,J4,1*
G04 #@! TO.N,PWM*
X90741500Y-59309000D03*
G04 #@! TD*
G04 #@! TO.P,J6,1*
G04 #@! TO.N,VOUT_*
X90995500Y-73279000D03*
G04 #@! TD*
G04 #@! TO.P,J8,1*
G04 #@! TO.N,GND*
X92773500Y-54483000D03*
D11*
G04 #@! TO.P,J8,2*
G04 #@! TO.N,D2*
X90233500Y-54483000D03*
G04 #@! TO.P,J8,3*
G04 #@! TO.N,GND*
X87693500Y-54483000D03*
G04 #@! TO.P,J8,4*
G04 #@! TO.N,D1*
X85153500Y-54483000D03*
G04 #@! TD*
D10*
G04 #@! TO.P,J9,1*
G04 #@! TO.N,GND*
X92773500Y-51435000D03*
D11*
G04 #@! TO.P,J9,2*
G04 #@! TO.N,D2*
X90233500Y-51435000D03*
G04 #@! TO.P,J9,3*
G04 #@! TO.N,GND*
X87693500Y-51435000D03*
G04 #@! TO.P,J9,4*
G04 #@! TO.N,D1*
X85153500Y-51435000D03*
G04 #@! TD*
D31*
G04 #@! TO.P,J7,S*
G04 #@! TO.N,GND*
X87439500Y-71755000D03*
G04 #@! TO.P,J7,G*
X83375500Y-74295000D03*
G04 #@! TO.P,J7,R*
G04 #@! TO.N,Net-(J7-PadR)*
X84899500Y-69215000D03*
G04 #@! TO.P,J7,T*
G04 #@! TO.N,VOUT_*
X79819500Y-71755000D03*
G04 #@! TD*
G04 #@! TO.P,J5,T*
G04 #@! TO.N,PWM*
X79819500Y-61214000D03*
G04 #@! TO.P,J5,R*
G04 #@! TO.N,Net-(J5-PadR)*
X84899500Y-58674000D03*
G04 #@! TO.P,J5,G*
G04 #@! TO.N,GND*
X83375500Y-63754000D03*
G04 #@! TO.P,J5,S*
X87439500Y-61214000D03*
G04 #@! TD*
G04 #@! TO.P,J3,T*
G04 #@! TO.N,TRIGGER*
X98234500Y-66421000D03*
G04 #@! TO.P,J3,R*
G04 #@! TO.N,Net-(J3-PadR)*
X93154500Y-68961000D03*
G04 #@! TO.P,J3,G*
G04 #@! TO.N,GND*
X94678500Y-63881000D03*
G04 #@! TO.P,J3,S*
X90614500Y-66421000D03*
G04 #@! TD*
D10*
G04 #@! TO.P,J1,1*
G04 #@! TO.N,PWM*
X82613500Y-108458000D03*
D11*
G04 #@! TO.P,J1,2*
G04 #@! TO.N,GND*
X85153500Y-108458000D03*
G04 #@! TO.P,J1,3*
G04 #@! TO.N,VOUT_*
X87693500Y-108458000D03*
G04 #@! TO.P,J1,4*
G04 #@! TO.N,GND*
X90233500Y-108458000D03*
G04 #@! TO.P,J1,5*
G04 #@! TO.N,TRIGGER*
X92773500Y-108458000D03*
G04 #@! TO.P,J1,6*
G04 #@! TO.N,VDD*
X95313500Y-108458000D03*
G04 #@! TD*
D10*
G04 #@! TO.P,J2,1*
G04 #@! TO.N,TRIGGER*
X96075500Y-103124000D03*
G04 #@! TD*
G04 #@! TO.P,J4,1*
G04 #@! TO.N,PWM*
X90741500Y-89154000D03*
G04 #@! TD*
G04 #@! TO.P,J6,1*
G04 #@! TO.N,VOUT_*
X90995500Y-103124000D03*
G04 #@! TD*
G04 #@! TO.P,J8,1*
G04 #@! TO.N,GND*
X92773500Y-84328000D03*
D11*
G04 #@! TO.P,J8,2*
G04 #@! TO.N,D2*
X90233500Y-84328000D03*
G04 #@! TO.P,J8,3*
G04 #@! TO.N,GND*
X87693500Y-84328000D03*
G04 #@! TO.P,J8,4*
G04 #@! TO.N,D1*
X85153500Y-84328000D03*
G04 #@! TD*
D10*
G04 #@! TO.P,J9,1*
G04 #@! TO.N,GND*
X92773500Y-81280000D03*
D11*
G04 #@! TO.P,J9,2*
G04 #@! TO.N,D2*
X90233500Y-81280000D03*
G04 #@! TO.P,J9,3*
G04 #@! TO.N,GND*
X87693500Y-81280000D03*
G04 #@! TO.P,J9,4*
G04 #@! TO.N,D1*
X85153500Y-81280000D03*
G04 #@! TD*
D31*
G04 #@! TO.P,J7,S*
G04 #@! TO.N,GND*
X87439500Y-101600000D03*
G04 #@! TO.P,J7,G*
X83375500Y-104140000D03*
G04 #@! TO.P,J7,R*
G04 #@! TO.N,Net-(J7-PadR)*
X84899500Y-99060000D03*
G04 #@! TO.P,J7,T*
G04 #@! TO.N,VOUT_*
X79819500Y-101600000D03*
G04 #@! TD*
G04 #@! TO.P,J5,T*
G04 #@! TO.N,PWM*
X79819500Y-91059000D03*
G04 #@! TO.P,J5,R*
G04 #@! TO.N,Net-(J5-PadR)*
X84899500Y-88519000D03*
G04 #@! TO.P,J5,G*
G04 #@! TO.N,GND*
X83375500Y-93599000D03*
G04 #@! TO.P,J5,S*
X87439500Y-91059000D03*
G04 #@! TD*
G04 #@! TO.P,J3,T*
G04 #@! TO.N,TRIGGER*
X98234500Y-96266000D03*
G04 #@! TO.P,J3,R*
G04 #@! TO.N,Net-(J3-PadR)*
X93154500Y-98806000D03*
G04 #@! TO.P,J3,G*
G04 #@! TO.N,GND*
X94678500Y-93726000D03*
G04 #@! TO.P,J3,S*
X90614500Y-96266000D03*
G04 #@! TD*
D27*
G04 #@! TO.P,D1,1*
G04 #@! TO.N,D1*
X113284000Y-120015000D03*
D28*
G04 #@! TO.P,D1,2*
G04 #@! TO.N,D2*
X105664000Y-120015000D03*
G04 #@! TD*
D10*
G04 #@! TO.P,J2,1*
G04 #@! TO.N,GND*
X105664000Y-111887000D03*
D11*
G04 #@! TO.P,J2,2*
G04 #@! TO.N,D2*
X108204000Y-111887000D03*
G04 #@! TO.P,J2,3*
G04 #@! TO.N,GND*
X110744000Y-111887000D03*
G04 #@! TO.P,J2,4*
G04 #@! TO.N,D1*
X113284000Y-111887000D03*
G04 #@! TD*
D29*
G04 #@! TO.P,J1,1*
G04 #@! TO.N,Net-(J1-Pad1)*
X101854000Y-116205000D03*
G04 #@! TO.P,J1,2*
G04 #@! TO.N,Net-(C2-Pad2)*
X109474000Y-116205000D03*
G04 #@! TO.P,J1,3*
G04 #@! TO.N,Net-(J1-Pad3)*
X117094000Y-116205000D03*
G04 #@! TO.P,J1,4*
G04 #@! TO.N,Net-(J1-Pad4)*
X104394000Y-113919000D03*
G04 #@! TO.P,J1,5*
G04 #@! TO.N,D2*
X114554000Y-113919000D03*
D30*
G04 #@! TO.P,J1,*
G04 #@! TO.N,*
X117094000Y-121285000D03*
X101600000Y-121285000D03*
D29*
X104394000Y-126365000D03*
X114554000Y-126365000D03*
G04 #@! TD*
D32*
G04 #@! TO.N,VDD*
X102044500Y-81534000D03*
X120205500Y-79629000D03*
X120205500Y-76200000D03*
X121983500Y-76200000D03*
X132143500Y-79756000D03*
G04 #@! TO.N,B1*
X122745500Y-74168000D03*
G04 #@! TO.N,B2*
X133794500Y-75057000D03*
X128841500Y-77851000D03*
G04 #@! TO.N,A1*
X127063500Y-74803000D03*
G04 #@! TO.N,BAT-*
X106489500Y-78613000D03*
X112077500Y-82677000D03*
X141541500Y-81153000D03*
X143700500Y-79629000D03*
X151955500Y-86360000D03*
X152463500Y-78232000D03*
X143700500Y-64389000D03*
X109029500Y-86614000D03*
X108140500Y-89916000D03*
X152082500Y-57785000D03*
X147637500Y-57785000D03*
G04 #@! TO.N,MCLR*
X125412500Y-77724000D03*
X124777500Y-81407000D03*
G04 #@! TO.N,PGD*
X129603500Y-78613000D03*
G04 #@! TO.N,PWM*
X122110500Y-73025000D03*
G04 #@! TO.N,VOUT_*
X107505500Y-86106000D03*
G04 #@! TO.N,TRIGGER*
X121094500Y-80391000D03*
G04 #@! TO.N,Net-(R3-Pad2)*
X134175500Y-72517000D03*
G04 #@! TO.N,Net-(SW4-Pad3)*
X129857500Y-74295000D03*
X119951500Y-72771000D03*
X112839500Y-77851000D03*
G04 #@! TD*
D33*
G04 #@! TO.N,VDD*
X103703500Y-81272000D02*
X103441500Y-81534000D01*
X105432500Y-81272000D02*
X103703500Y-81272000D01*
X104765500Y-91513000D02*
X105219500Y-91059000D01*
X101790500Y-91513000D02*
X104765500Y-91513000D01*
X148967500Y-64592000D02*
X147002500Y-64592000D01*
X149542500Y-64592000D02*
X148967500Y-64592000D01*
X147002500Y-79578000D02*
X149542500Y-79578000D01*
X149542500Y-52578000D02*
X149669500Y-52451000D01*
X149542500Y-64592000D02*
X149542500Y-52578000D01*
X124803000Y-62484000D02*
X128460500Y-62484000D01*
X122745500Y-64541500D02*
X124803000Y-62484000D01*
X131889500Y-62484000D02*
X133794500Y-64389000D01*
X128460500Y-62484000D02*
X131889500Y-62484000D01*
X112433000Y-54229000D02*
X122745500Y-64541500D01*
X109410500Y-54229000D02*
X112433000Y-54229000D01*
X150004112Y-79116388D02*
X149542500Y-79578000D01*
X153407501Y-65486007D02*
X153407501Y-75712999D01*
X149716510Y-63880490D02*
X151801984Y-63880490D01*
X153407501Y-75712999D02*
X150004112Y-79116388D01*
X149542500Y-64054500D02*
X149716510Y-63880490D01*
X151801984Y-63880490D02*
X153407501Y-65486007D01*
X149542500Y-64592000D02*
X149542500Y-64054500D01*
X136461500Y-81153000D02*
X136461500Y-83566000D01*
X133468500Y-81153000D02*
X136461500Y-81153000D01*
X132931000Y-81153000D02*
X133468500Y-81153000D01*
X102044500Y-81534000D02*
X103441500Y-81534000D01*
X105219500Y-91059000D02*
X105219500Y-89154000D01*
X105219500Y-89154000D02*
X106743500Y-87630000D01*
X110299500Y-87630000D02*
X112712500Y-85217000D01*
X106743500Y-87630000D02*
X110299500Y-87630000D01*
X116014500Y-85217000D02*
X112712500Y-85217000D01*
X109410500Y-52730500D02*
X110579000Y-51562000D01*
X109410500Y-54229000D02*
X109410500Y-52730500D01*
X120205500Y-79629000D02*
X120205500Y-76200000D01*
X124610500Y-76200000D02*
X124860500Y-75950000D01*
X121983500Y-76200000D02*
X124610500Y-76200000D01*
X132143500Y-80365500D02*
X132931000Y-81153000D01*
X132143500Y-79756000D02*
X132143500Y-80365500D01*
X145986500Y-85344000D02*
X152844500Y-85344000D01*
X153407501Y-84780999D02*
X153407501Y-75712999D01*
X152844500Y-85344000D02*
X153407501Y-84780999D01*
X144208500Y-83566000D02*
X145986500Y-85344000D01*
X136461500Y-83566000D02*
X144208500Y-83566000D01*
X146540888Y-64130388D02*
X147002500Y-64592000D01*
X145275500Y-62865000D02*
X146540888Y-64130388D01*
X143954500Y-62865000D02*
X145275500Y-62865000D01*
X141776863Y-65042637D02*
X143954500Y-62865000D01*
X133794500Y-64389000D02*
X134448137Y-65042637D01*
X134448137Y-65042637D02*
X141776863Y-65042637D01*
G04 #@! TO.N,B1*
X149542500Y-68707000D02*
X149542500Y-66167000D01*
X151269500Y-66167000D02*
X151320500Y-66218000D01*
X149542500Y-66167000D02*
X151269500Y-66167000D01*
X124860500Y-75300000D02*
X123877500Y-75300000D01*
X123877500Y-75300000D02*
X122745500Y-74168000D01*
G04 #@! TO.N,B2*
X149542500Y-83693000D02*
X149542500Y-81153000D01*
X151295000Y-81153000D02*
X151320500Y-81178500D01*
X149542500Y-81153000D02*
X151295000Y-81153000D01*
X132060500Y-74650000D02*
X133387500Y-74650000D01*
X133387500Y-74650000D02*
X133794500Y-75057000D01*
X132060500Y-74650000D02*
X131026500Y-74650000D01*
X131026500Y-74650000D02*
X129603500Y-76073000D01*
X129603500Y-76073000D02*
X129603500Y-77089000D01*
X129603500Y-77089000D02*
X128841500Y-77851000D01*
G04 #@! TO.N,A2*
X147002500Y-82278787D02*
X147002500Y-81153000D01*
X147002500Y-83693000D02*
X147002500Y-82278787D01*
X147002500Y-81153000D02*
X145224500Y-81153000D01*
X124860500Y-70100000D02*
X128718500Y-70100000D01*
X128718500Y-70100000D02*
X129476500Y-69342000D01*
X129476500Y-69342000D02*
X135953500Y-69342000D01*
X135953500Y-69342000D02*
X140525500Y-73914000D01*
X140525500Y-73914000D02*
X140525500Y-78613000D01*
X145605500Y-83693000D02*
X147002500Y-83693000D01*
X140525500Y-78613000D02*
X145605500Y-83693000D01*
G04 #@! TO.N,A1*
X147002500Y-67292787D02*
X147002500Y-66167000D01*
X147002500Y-68707000D02*
X147002500Y-67292787D01*
X147002500Y-66167000D02*
X145097500Y-66167000D01*
X124860500Y-74650000D02*
X126910500Y-74650000D01*
X126910500Y-74650000D02*
X127063500Y-74803000D01*
G04 #@! TO.N,Net-(C1-Pad1)*
X103903112Y-82647388D02*
X103441500Y-83109000D01*
X104778500Y-81772000D02*
X103903112Y-82647388D01*
X105432500Y-81772000D02*
X104778500Y-81772000D01*
G04 #@! TO.N,Net-(C2-Pad1)*
X104076500Y-80772000D02*
X103441500Y-80137000D01*
X105432500Y-80772000D02*
X104076500Y-80772000D01*
G04 #@! TO.N,BAT-*
X103903112Y-79023612D02*
X103441500Y-78562000D01*
X104241510Y-79362010D02*
X103903112Y-79023612D01*
X104241510Y-79921010D02*
X104241510Y-79362010D01*
X104592500Y-80272000D02*
X104241510Y-79921010D01*
X105432500Y-80272000D02*
X104592500Y-80272000D01*
X107828500Y-52737500D02*
X109004000Y-51562000D01*
X107068500Y-52737500D02*
X107828500Y-52737500D01*
X103441500Y-78562000D02*
X106438500Y-78562000D01*
X106438500Y-78562000D02*
X106489500Y-78613000D01*
X110672500Y-81272000D02*
X112077500Y-82677000D01*
X109832500Y-81272000D02*
X110672500Y-81272000D01*
X132060500Y-76537000D02*
X132060500Y-75950000D01*
X130365500Y-78232000D02*
X132060500Y-76537000D01*
X130365500Y-81661000D02*
X130365500Y-78232000D01*
X128841500Y-83566000D02*
X128841500Y-83185000D01*
X128841500Y-83185000D02*
X130365500Y-81661000D01*
X138036500Y-81153000D02*
X141541500Y-81153000D01*
X143751500Y-79578000D02*
X145224500Y-79578000D01*
X143700500Y-79629000D02*
X143751500Y-79578000D01*
X128841500Y-83566000D02*
X128841500Y-84201000D01*
X128841500Y-84201000D02*
X131000500Y-86360000D01*
X131000500Y-86360000D02*
X151955500Y-86360000D01*
X151320500Y-79603500D02*
X151930000Y-79603500D01*
X151930000Y-79603500D02*
X152844500Y-80518000D01*
X152844500Y-82931000D02*
X152082500Y-83693000D01*
X152844500Y-80518000D02*
X152844500Y-82931000D01*
X152463500Y-78460500D02*
X151320500Y-79603500D01*
X152463500Y-78232000D02*
X152463500Y-78460500D01*
X151320500Y-64643000D02*
X151574500Y-64643000D01*
X151574500Y-64643000D02*
X152717500Y-65786000D01*
X152717500Y-68072000D02*
X152082500Y-68707000D01*
X152717500Y-65786000D02*
X152717500Y-68072000D01*
X145097500Y-64592000D02*
X143903500Y-64592000D01*
X143903500Y-64592000D02*
X143700500Y-64389000D01*
X112077500Y-82677000D02*
X112077500Y-83566000D01*
X112077500Y-83566000D02*
X109029500Y-86614000D01*
X107937500Y-89916000D02*
X106794500Y-91059000D01*
X108140500Y-89916000D02*
X107937500Y-89916000D01*
G04 #@! TO.N,BAT+*
X109410500Y-61798000D02*
X109359500Y-61849000D01*
X109410500Y-59309000D02*
X109410500Y-61798000D01*
X108216500Y-60706000D02*
X109359500Y-61849000D01*
X103822500Y-60706000D02*
X108216500Y-60706000D01*
G04 #@! TO.N,MCLR*
X124777500Y-81407000D02*
X124777500Y-81788000D01*
X118808500Y-87757000D02*
X116014500Y-87757000D01*
X124777500Y-81788000D02*
X118808500Y-87757000D01*
X127824795Y-75311705D02*
X125412500Y-77724000D01*
X127824795Y-74421295D02*
X127824795Y-75311705D01*
X124860500Y-74000000D02*
X127403500Y-74000000D01*
X127403500Y-74000000D02*
X127824795Y-74421295D01*
G04 #@! TO.N,PGD*
X132060500Y-75300000D02*
X131138500Y-75300000D01*
X131138500Y-75300000D02*
X130746500Y-75692000D01*
X130746500Y-75692000D02*
X130746500Y-76962000D01*
X129603500Y-78105000D02*
X129603500Y-78613000D01*
X130746500Y-76962000D02*
X129603500Y-78105000D01*
G04 #@! TO.N,PWM*
X124860500Y-73350000D02*
X122435500Y-73350000D01*
X122435500Y-73350000D02*
X122110500Y-73025000D01*
G04 #@! TO.N,VOUT_*
X107505500Y-77049000D02*
X106275500Y-75819000D01*
X107505500Y-86106000D02*
X107505500Y-77049000D01*
G04 #@! TO.N,TRIGGER*
X124860500Y-72050000D02*
X122196500Y-72050000D01*
X122196500Y-72050000D02*
X121942500Y-72050000D01*
X121942500Y-72050000D02*
X121094500Y-72898000D01*
X121094500Y-72898000D02*
X121094500Y-80391000D01*
G04 #@! TO.N,MIDI-IN*
X131381500Y-81178500D02*
X131356000Y-81153000D01*
X131381500Y-83566000D02*
X131381500Y-81178500D01*
X131356000Y-78638500D02*
X131356000Y-81153000D01*
X135064500Y-74930000D02*
X131356000Y-78638500D01*
X135064500Y-71247000D02*
X135064500Y-74930000D01*
X132060500Y-70750000D02*
X134567500Y-70750000D01*
X134567500Y-70750000D02*
X135064500Y-71247000D01*
G04 #@! TO.N,Net-(R1-Pad1)*
X122745500Y-59548687D02*
X122713136Y-59516323D01*
X122745500Y-62966500D02*
X122745500Y-59548687D01*
G04 #@! TO.N,Net-(R2-Pad1)*
X128460500Y-60909000D02*
X128460500Y-58079482D01*
G04 #@! TO.N,Net-(R3-Pad2)*
X127647500Y-66076687D02*
X128460500Y-65263687D01*
X127647500Y-67691000D02*
X127647500Y-66076687D01*
X132060500Y-73350000D02*
X133342500Y-73350000D01*
X133342500Y-73350000D02*
X134175500Y-72517000D01*
G04 #@! TO.N,Net-(R4-Pad1)*
X133794500Y-59570477D02*
X133848654Y-59516323D01*
X133794500Y-62814000D02*
X133794500Y-59570477D01*
G04 #@! TO.N,VOUT*
X108775500Y-75819000D02*
X108775500Y-81661000D01*
X108886500Y-81772000D02*
X109832500Y-81772000D01*
X108775500Y-81661000D02*
X108886500Y-81772000D01*
G04 #@! TO.N,Net-(SW4-Pad3)*
X132060500Y-72700000D02*
X130564910Y-72700000D01*
X130564910Y-72700000D02*
X129857500Y-73407410D01*
X129857500Y-73407410D02*
X129857500Y-74295000D01*
X119951500Y-72771000D02*
X116395500Y-72771000D01*
X116395500Y-72771000D02*
X113347500Y-75819000D01*
X113347500Y-75819000D02*
X112839500Y-76327000D01*
X112839500Y-76327000D02*
X112839500Y-77851000D01*
G04 #@! TO.N,Net-(U1-Pad5)*
X101040501Y-95643001D02*
X101790500Y-96393000D01*
X100715499Y-95317999D02*
X101040501Y-95643001D01*
X106457501Y-85254997D02*
X100715499Y-90996999D01*
X106457501Y-79847001D02*
X106457501Y-85254997D01*
X106382500Y-79772000D02*
X106457501Y-79847001D01*
X100715499Y-90996999D02*
X100715499Y-95317999D01*
X105432500Y-79772000D02*
X106382500Y-79772000D01*
G04 #@! TO.N,SDO*
X123735500Y-70750000D02*
X124860500Y-70750000D01*
X123695499Y-70790001D02*
X123735500Y-70750000D01*
X116471499Y-70790001D02*
X123695499Y-70790001D01*
X109832500Y-79772000D02*
X109832500Y-77429000D01*
X109832500Y-77429000D02*
X116471499Y-70790001D01*
G04 #@! TO.N,SCK*
X129734500Y-70100000D02*
X132060500Y-70100000D01*
X128460500Y-75819000D02*
X128460500Y-71374000D01*
X128460500Y-71374000D02*
X129734500Y-70100000D01*
X115252500Y-81407000D02*
X122872500Y-81407000D01*
X122872500Y-81407000D02*
X128460500Y-75819000D01*
X109832500Y-80272000D02*
X110672500Y-80272000D01*
X112204500Y-78740000D02*
X113474500Y-78740000D01*
X110672500Y-80272000D02*
X112204500Y-78740000D01*
X113474500Y-78740000D02*
X114617500Y-79883000D01*
X114617500Y-79883000D02*
X114617500Y-80772000D01*
X114617500Y-80772000D02*
X115252500Y-81407000D01*
G04 #@! TO.N,FSYNC*
X130578500Y-72050000D02*
X132060500Y-72050000D01*
X111442500Y-80772000D02*
X114617500Y-83947000D01*
X109832500Y-80772000D02*
X111442500Y-80772000D01*
X114617500Y-83947000D02*
X121094500Y-83947000D01*
X121094500Y-83947000D02*
X129095500Y-75946000D01*
X129095500Y-75946000D02*
X129095500Y-73533000D01*
X129095500Y-73533000D02*
X130578500Y-72050000D01*
G04 #@! TO.N,D2*
X129388501Y-100369001D02*
X130238500Y-101219000D01*
X128460500Y-99441000D02*
X129388501Y-100369001D01*
X128460500Y-95157000D02*
X128460500Y-99441000D01*
X131381500Y-91186000D02*
X131381500Y-92236000D01*
X131381500Y-92236000D02*
X128460500Y-95157000D01*
G04 #@! TO.N,D1*
X133921500Y-92456000D02*
X130238500Y-96139000D01*
X133921500Y-91186000D02*
X133921500Y-92456000D01*
G04 #@! TO.N,GND*
X90297000Y-111887000D02*
X89027000Y-113157000D01*
X85217000Y-112987000D02*
X85217000Y-111887000D01*
X85387000Y-113157000D02*
X85217000Y-112987000D01*
X89027000Y-113157000D02*
X85387000Y-113157000D01*
X86003499Y-77763001D02*
X85153500Y-78613000D01*
X86328501Y-77437999D02*
X86003499Y-77763001D01*
X89058499Y-77437999D02*
X86328501Y-77437999D01*
X90233500Y-78613000D02*
X89058499Y-77437999D01*
X87439500Y-75819000D02*
X87439500Y-71755000D01*
X90233500Y-78613000D02*
X87439500Y-75819000D01*
X87693500Y-60833000D02*
X87439500Y-61087000D01*
X87693500Y-54229000D02*
X87693500Y-60833000D01*
X86003499Y-107608001D02*
X85153500Y-108458000D01*
X86328501Y-107282999D02*
X86003499Y-107608001D01*
X89058499Y-107282999D02*
X86328501Y-107282999D01*
X90233500Y-108458000D02*
X89058499Y-107282999D01*
X87439500Y-105664000D02*
X87439500Y-101600000D01*
X90233500Y-108458000D02*
X87439500Y-105664000D01*
X87693500Y-90678000D02*
X87439500Y-90932000D01*
X87693500Y-84074000D02*
X87693500Y-90678000D01*
X110744000Y-111887000D02*
X109474000Y-113157000D01*
X105664000Y-112987000D02*
X105664000Y-111887000D01*
X105834000Y-113157000D02*
X105664000Y-112987000D01*
X109474000Y-113157000D02*
X105834000Y-113157000D01*
G04 #@! TD*
D34*
G04 #@! TO.N,BAT-*
G36*
X158230500Y-88927000D02*
X138565888Y-88927000D01*
X138493500Y-88912601D01*
X138421112Y-88927000D01*
X138206717Y-88969646D01*
X137963595Y-89132095D01*
X137801146Y-89375217D01*
X137744101Y-89662000D01*
X137758500Y-89734388D01*
X137758500Y-89986844D01*
X137719309Y-89928191D01*
X137509265Y-89787843D01*
X137261500Y-89738560D01*
X135661500Y-89738560D01*
X135413735Y-89787843D01*
X135203691Y-89928191D01*
X135191500Y-89946436D01*
X135179309Y-89928191D01*
X134969265Y-89787843D01*
X134721500Y-89738560D01*
X133121500Y-89738560D01*
X132873735Y-89787843D01*
X132663691Y-89928191D01*
X132651500Y-89946436D01*
X132639309Y-89928191D01*
X132429265Y-89787843D01*
X132181500Y-89738560D01*
X130581500Y-89738560D01*
X130333735Y-89787843D01*
X130123691Y-89928191D01*
X130111500Y-89946436D01*
X130099309Y-89928191D01*
X129889265Y-89787843D01*
X129641500Y-89738560D01*
X128041500Y-89738560D01*
X127793735Y-89787843D01*
X127583691Y-89928191D01*
X127443343Y-90138235D01*
X127394060Y-90386000D01*
X127394060Y-91986000D01*
X127443343Y-92233765D01*
X127583691Y-92443809D01*
X127793735Y-92584157D01*
X128041500Y-92633440D01*
X129641500Y-92633440D01*
X129889265Y-92584157D01*
X130098044Y-92444654D01*
X128035006Y-94507693D01*
X127760037Y-93681105D01*
X127297893Y-92867583D01*
X126686536Y-92159320D01*
X125949254Y-91583292D01*
X125114128Y-91161440D01*
X124212969Y-90909832D01*
X123280102Y-90838051D01*
X122351059Y-90948833D01*
X121461227Y-91237957D01*
X120644499Y-91694411D01*
X119931985Y-92300808D01*
X119350824Y-93034051D01*
X118923152Y-93866211D01*
X118665258Y-94765591D01*
X118586967Y-95697935D01*
X118691260Y-96627729D01*
X118974165Y-97519558D01*
X119424906Y-98339452D01*
X120026314Y-99056182D01*
X120755482Y-99642448D01*
X121584636Y-100075919D01*
X122482194Y-100340085D01*
X123413968Y-100424883D01*
X124344468Y-100327084D01*
X125238250Y-100050412D01*
X126061271Y-99605406D01*
X126782182Y-99009016D01*
X127373524Y-98283959D01*
X127700501Y-97669006D01*
X127700501Y-99366148D01*
X127685612Y-99441000D01*
X127744597Y-99737537D01*
X127772083Y-99778672D01*
X127912572Y-99988929D01*
X127976028Y-100031329D01*
X128585432Y-100640734D01*
X128470408Y-101219000D01*
X128585661Y-101798418D01*
X128913875Y-102289625D01*
X128935533Y-102304096D01*
X128774802Y-102370673D01*
X128596173Y-102549301D01*
X128499500Y-102782690D01*
X128499500Y-103473250D01*
X128658250Y-103632000D01*
X129857500Y-103632000D01*
X129857500Y-103612000D01*
X130111500Y-103612000D01*
X130111500Y-103632000D01*
X131310750Y-103632000D01*
X131469500Y-103473250D01*
X131469500Y-102782690D01*
X131372827Y-102549301D01*
X131194198Y-102370673D01*
X131033467Y-102304096D01*
X131055125Y-102289625D01*
X131383339Y-101798418D01*
X131498592Y-101219000D01*
X131383339Y-100639582D01*
X131055125Y-100148375D01*
X130736022Y-99935157D01*
X130865858Y-99874183D01*
X131256145Y-99445924D01*
X131425976Y-99035890D01*
X131304655Y-98806000D01*
X130111500Y-98806000D01*
X130111500Y-98826000D01*
X129857500Y-98826000D01*
X129857500Y-98806000D01*
X129837500Y-98806000D01*
X129837500Y-98552000D01*
X129857500Y-98552000D01*
X129857500Y-98532000D01*
X130111500Y-98532000D01*
X130111500Y-98552000D01*
X131304655Y-98552000D01*
X131425976Y-98322110D01*
X131256145Y-97912076D01*
X130865858Y-97483817D01*
X130736022Y-97422843D01*
X131055125Y-97209625D01*
X131383339Y-96718418D01*
X131498592Y-96139000D01*
X131467850Y-95984451D01*
X134405973Y-93046329D01*
X134469429Y-93003929D01*
X134637404Y-92752537D01*
X134661094Y-92633440D01*
X134721500Y-92633440D01*
X134969265Y-92584157D01*
X135179309Y-92443809D01*
X135191500Y-92425564D01*
X135203691Y-92443809D01*
X135413735Y-92584157D01*
X135661500Y-92633440D01*
X137261500Y-92633440D01*
X137509265Y-92584157D01*
X137719309Y-92443809D01*
X137758500Y-92385156D01*
X137758501Y-109399000D01*
X119895571Y-109399000D01*
X119769888Y-109374000D01*
X99985500Y-109374000D01*
X99985500Y-103759000D01*
X104340408Y-103759000D01*
X104455661Y-104338418D01*
X104783875Y-104829625D01*
X105082261Y-105029000D01*
X104783875Y-105228375D01*
X104455661Y-105719582D01*
X104340408Y-106299000D01*
X104455661Y-106878418D01*
X104783875Y-107369625D01*
X105275082Y-107697839D01*
X105708244Y-107784000D01*
X106000756Y-107784000D01*
X106433918Y-107697839D01*
X106925125Y-107369625D01*
X107253339Y-106878418D01*
X107368592Y-106299000D01*
X107253339Y-105719582D01*
X106925125Y-105228375D01*
X106626739Y-105029000D01*
X106925125Y-104829625D01*
X107253339Y-104338418D01*
X107355277Y-103825935D01*
X113252967Y-103825935D01*
X113357260Y-104755729D01*
X113640165Y-105647558D01*
X114090906Y-106467452D01*
X114692314Y-107184182D01*
X115421482Y-107770448D01*
X116250636Y-108203919D01*
X117148194Y-108468085D01*
X118079968Y-108552883D01*
X119010468Y-108455084D01*
X119904250Y-108178412D01*
X120727271Y-107733406D01*
X121448182Y-107137016D01*
X122039524Y-106411959D01*
X122478774Y-105585851D01*
X122749199Y-104690159D01*
X122812481Y-104044750D01*
X128499500Y-104044750D01*
X128499500Y-104735310D01*
X128596173Y-104968699D01*
X128774802Y-105147327D01*
X129008191Y-105244000D01*
X129698750Y-105244000D01*
X129857500Y-105085250D01*
X129857500Y-103886000D01*
X130111500Y-103886000D01*
X130111500Y-105085250D01*
X130270250Y-105244000D01*
X130960809Y-105244000D01*
X131194198Y-105147327D01*
X131372827Y-104968699D01*
X131469500Y-104735310D01*
X131469500Y-104044750D01*
X131310750Y-103886000D01*
X130111500Y-103886000D01*
X129857500Y-103886000D01*
X128658250Y-103886000D01*
X128499500Y-104044750D01*
X122812481Y-104044750D01*
X122840500Y-103759000D01*
X122838631Y-103625144D01*
X122721366Y-102696897D01*
X122426037Y-101809105D01*
X121963893Y-100995583D01*
X121352536Y-100287320D01*
X120615254Y-99711292D01*
X119780128Y-99289440D01*
X118878969Y-99037832D01*
X117946102Y-98966051D01*
X117017059Y-99076833D01*
X116127227Y-99365957D01*
X115310499Y-99822411D01*
X114597985Y-100428808D01*
X114016824Y-101162051D01*
X113589152Y-101994211D01*
X113331258Y-102893591D01*
X113252967Y-103825935D01*
X107355277Y-103825935D01*
X107368592Y-103759000D01*
X107253339Y-103179582D01*
X106925125Y-102688375D01*
X106606022Y-102475157D01*
X106735858Y-102414183D01*
X107126145Y-101985924D01*
X107295976Y-101575890D01*
X107174655Y-101346000D01*
X105981500Y-101346000D01*
X105981500Y-101366000D01*
X105727500Y-101366000D01*
X105727500Y-101346000D01*
X104534345Y-101346000D01*
X104413024Y-101575890D01*
X104582855Y-101985924D01*
X104973142Y-102414183D01*
X105102978Y-102475157D01*
X104783875Y-102688375D01*
X104455661Y-103179582D01*
X104340408Y-103759000D01*
X99985500Y-103759000D01*
X99985500Y-98679000D01*
X104340408Y-98679000D01*
X104455661Y-99258418D01*
X104783875Y-99749625D01*
X105102978Y-99962843D01*
X104973142Y-100023817D01*
X104582855Y-100452076D01*
X104413024Y-100862110D01*
X104534345Y-101092000D01*
X105727500Y-101092000D01*
X105727500Y-101072000D01*
X105981500Y-101072000D01*
X105981500Y-101092000D01*
X107174655Y-101092000D01*
X107295976Y-100862110D01*
X107126145Y-100452076D01*
X106735858Y-100023817D01*
X106606022Y-99962843D01*
X106925125Y-99749625D01*
X107253339Y-99258418D01*
X107368592Y-98679000D01*
X107253339Y-98099582D01*
X106925125Y-97608375D01*
X106606022Y-97395157D01*
X106735858Y-97334183D01*
X107126145Y-96905924D01*
X107295976Y-96495890D01*
X107174655Y-96266000D01*
X105981500Y-96266000D01*
X105981500Y-96286000D01*
X105727500Y-96286000D01*
X105727500Y-96266000D01*
X104534345Y-96266000D01*
X104413024Y-96495890D01*
X104582855Y-96905924D01*
X104973142Y-97334183D01*
X105102978Y-97395157D01*
X104783875Y-97608375D01*
X104455661Y-98099582D01*
X104340408Y-98679000D01*
X99985500Y-98679000D01*
X99985500Y-95543671D01*
X99999596Y-95614536D01*
X100111566Y-95782110D01*
X100167571Y-95865928D01*
X100231027Y-95908328D01*
X100415665Y-96092966D01*
X100405500Y-96117506D01*
X100405500Y-96668494D01*
X100616353Y-97177540D01*
X101005960Y-97567147D01*
X101515006Y-97778000D01*
X102065994Y-97778000D01*
X102575040Y-97567147D01*
X102964647Y-97177540D01*
X103175500Y-96668494D01*
X103175500Y-96117506D01*
X102964647Y-95608460D01*
X102575040Y-95218853D01*
X102065994Y-95008000D01*
X101515006Y-95008000D01*
X101490466Y-95018165D01*
X101475499Y-95003198D01*
X101475499Y-92881636D01*
X101515006Y-92898000D01*
X102065994Y-92898000D01*
X102575040Y-92687147D01*
X102964647Y-92297540D01*
X102974812Y-92273000D01*
X104573916Y-92273000D01*
X104546691Y-92291191D01*
X104406343Y-92501235D01*
X104357060Y-92749000D01*
X104357060Y-94449000D01*
X104406343Y-94696765D01*
X104546691Y-94906809D01*
X104756735Y-95047157D01*
X104860208Y-95067739D01*
X104582855Y-95372076D01*
X104413024Y-95782110D01*
X104534345Y-96012000D01*
X105727500Y-96012000D01*
X105727500Y-95992000D01*
X105981500Y-95992000D01*
X105981500Y-96012000D01*
X107174655Y-96012000D01*
X107295976Y-95782110D01*
X107261112Y-95697935D01*
X107918967Y-95697935D01*
X108023260Y-96627729D01*
X108306165Y-97519558D01*
X108756906Y-98339452D01*
X109358314Y-99056182D01*
X110087482Y-99642448D01*
X110916636Y-100075919D01*
X111814194Y-100340085D01*
X112745968Y-100424883D01*
X113676468Y-100327084D01*
X114570250Y-100050412D01*
X115393271Y-99605406D01*
X116114182Y-99009016D01*
X116705524Y-98283959D01*
X117144774Y-97457851D01*
X117415199Y-96562159D01*
X117506500Y-95631000D01*
X117504631Y-95497144D01*
X117387366Y-94568897D01*
X117092037Y-93681105D01*
X116629893Y-92867583D01*
X116018536Y-92159320D01*
X115281254Y-91583292D01*
X114446128Y-91161440D01*
X113544969Y-90909832D01*
X112612102Y-90838051D01*
X111683059Y-90948833D01*
X110793227Y-91237957D01*
X109976499Y-91694411D01*
X109263985Y-92300808D01*
X108682824Y-93034051D01*
X108255152Y-93866211D01*
X107997258Y-94765591D01*
X107918967Y-95697935D01*
X107261112Y-95697935D01*
X107126145Y-95372076D01*
X106848792Y-95067739D01*
X106952265Y-95047157D01*
X107162309Y-94906809D01*
X107302657Y-94696765D01*
X107351940Y-94449000D01*
X107351940Y-92749000D01*
X107302657Y-92501235D01*
X107162309Y-92291191D01*
X106952265Y-92150843D01*
X106921502Y-92144724D01*
X106921502Y-92010252D01*
X107080250Y-92169000D01*
X107358309Y-92169000D01*
X107591698Y-92072327D01*
X107770327Y-91893699D01*
X107867000Y-91660310D01*
X107867000Y-91344750D01*
X107708250Y-91186000D01*
X106921500Y-91186000D01*
X106921500Y-91206000D01*
X106667500Y-91206000D01*
X106667500Y-91186000D01*
X106647500Y-91186000D01*
X106647500Y-90932000D01*
X106667500Y-90932000D01*
X106667500Y-90107750D01*
X106921500Y-90107750D01*
X106921500Y-90932000D01*
X107708250Y-90932000D01*
X107867000Y-90773250D01*
X107867000Y-90457690D01*
X107770327Y-90224301D01*
X107591698Y-90045673D01*
X107358309Y-89949000D01*
X107080250Y-89949000D01*
X106921500Y-90107750D01*
X106667500Y-90107750D01*
X106508750Y-89949000D01*
X106230691Y-89949000D01*
X105997302Y-90045673D01*
X105979500Y-90063475D01*
X105979500Y-89468801D01*
X107058303Y-88390000D01*
X110224653Y-88390000D01*
X110299500Y-88404888D01*
X110374347Y-88390000D01*
X110374352Y-88390000D01*
X110596037Y-88345904D01*
X110847429Y-88177929D01*
X110889831Y-88114470D01*
X112221125Y-86783177D01*
X112387278Y-86852000D01*
X113037722Y-86852000D01*
X113638653Y-86603086D01*
X114098586Y-86143153D01*
X114167409Y-85977000D01*
X114736322Y-85977000D01*
X114943875Y-86287625D01*
X114962119Y-86299816D01*
X114916735Y-86308843D01*
X114706691Y-86449191D01*
X114566343Y-86659235D01*
X114517060Y-86907000D01*
X114517060Y-88607000D01*
X114566343Y-88854765D01*
X114706691Y-89064809D01*
X114916735Y-89205157D01*
X115164500Y-89254440D01*
X116864500Y-89254440D01*
X117112265Y-89205157D01*
X117322309Y-89064809D01*
X117462657Y-88854765D01*
X117511940Y-88607000D01*
X117511940Y-88517000D01*
X118733653Y-88517000D01*
X118808500Y-88531888D01*
X118883347Y-88517000D01*
X118883352Y-88517000D01*
X119105037Y-88472904D01*
X119356429Y-88304929D01*
X119398831Y-88241470D01*
X123788551Y-83851750D01*
X127406500Y-83851750D01*
X127406500Y-84492309D01*
X127503173Y-84725698D01*
X127681801Y-84904327D01*
X127915190Y-85001000D01*
X128555750Y-85001000D01*
X128714500Y-84842250D01*
X128714500Y-83693000D01*
X127565250Y-83693000D01*
X127406500Y-83851750D01*
X123788551Y-83851750D01*
X125261973Y-82378329D01*
X125325429Y-82335929D01*
X125358331Y-82286688D01*
X125363780Y-82284431D01*
X125654931Y-81993280D01*
X125812500Y-81612874D01*
X125812500Y-81201126D01*
X125654931Y-80820720D01*
X125475256Y-80641045D01*
X127880581Y-78235721D01*
X127964069Y-78437280D01*
X128019617Y-78492828D01*
X127392733Y-78752492D01*
X126862474Y-79282751D01*
X126575500Y-79975568D01*
X126575500Y-80725468D01*
X126862474Y-81418285D01*
X127392733Y-81948544D01*
X127874206Y-82147976D01*
X127681801Y-82227673D01*
X127503173Y-82406302D01*
X127406500Y-82639691D01*
X127406500Y-83280250D01*
X127565250Y-83439000D01*
X128714500Y-83439000D01*
X128714500Y-83419000D01*
X128968500Y-83419000D01*
X128968500Y-83439000D01*
X128988500Y-83439000D01*
X128988500Y-83693000D01*
X128968500Y-83693000D01*
X128968500Y-84842250D01*
X129127250Y-85001000D01*
X129767810Y-85001000D01*
X130001199Y-84904327D01*
X130106878Y-84798647D01*
X130123691Y-84823809D01*
X130333735Y-84964157D01*
X130581500Y-85013440D01*
X132181500Y-85013440D01*
X132429265Y-84964157D01*
X132639309Y-84823809D01*
X132651500Y-84805564D01*
X132663691Y-84823809D01*
X132873735Y-84964157D01*
X133121500Y-85013440D01*
X134721500Y-85013440D01*
X134969265Y-84964157D01*
X135179309Y-84823809D01*
X135191500Y-84805564D01*
X135203691Y-84823809D01*
X135413735Y-84964157D01*
X135661500Y-85013440D01*
X137261500Y-85013440D01*
X137509265Y-84964157D01*
X137719309Y-84823809D01*
X137859657Y-84613765D01*
X137908940Y-84366000D01*
X137908940Y-84326000D01*
X143893699Y-84326000D01*
X145396171Y-85828473D01*
X145438571Y-85891929D01*
X145502027Y-85934329D01*
X145689962Y-86059904D01*
X145738105Y-86069480D01*
X145911648Y-86104000D01*
X145911652Y-86104000D01*
X145986500Y-86118888D01*
X146061348Y-86104000D01*
X152769653Y-86104000D01*
X152844500Y-86118888D01*
X152919347Y-86104000D01*
X152919352Y-86104000D01*
X153141037Y-86059904D01*
X153392429Y-85891929D01*
X153434831Y-85828470D01*
X153891974Y-85371328D01*
X153955430Y-85328928D01*
X154022488Y-85228569D01*
X154123405Y-85077537D01*
X154132981Y-85029394D01*
X154167501Y-84855851D01*
X154167501Y-84855847D01*
X154182389Y-84780999D01*
X154167501Y-84706151D01*
X154167501Y-77999096D01*
X154188691Y-78030809D01*
X154398735Y-78171157D01*
X154646500Y-78220440D01*
X157646500Y-78220440D01*
X157894265Y-78171157D01*
X158104309Y-78030809D01*
X158230500Y-77841952D01*
X158230500Y-88927000D01*
X158230500Y-88927000D01*
G37*
X158230500Y-88927000D02*
X138565888Y-88927000D01*
X138493500Y-88912601D01*
X138421112Y-88927000D01*
X138206717Y-88969646D01*
X137963595Y-89132095D01*
X137801146Y-89375217D01*
X137744101Y-89662000D01*
X137758500Y-89734388D01*
X137758500Y-89986844D01*
X137719309Y-89928191D01*
X137509265Y-89787843D01*
X137261500Y-89738560D01*
X135661500Y-89738560D01*
X135413735Y-89787843D01*
X135203691Y-89928191D01*
X135191500Y-89946436D01*
X135179309Y-89928191D01*
X134969265Y-89787843D01*
X134721500Y-89738560D01*
X133121500Y-89738560D01*
X132873735Y-89787843D01*
X132663691Y-89928191D01*
X132651500Y-89946436D01*
X132639309Y-89928191D01*
X132429265Y-89787843D01*
X132181500Y-89738560D01*
X130581500Y-89738560D01*
X130333735Y-89787843D01*
X130123691Y-89928191D01*
X130111500Y-89946436D01*
X130099309Y-89928191D01*
X129889265Y-89787843D01*
X129641500Y-89738560D01*
X128041500Y-89738560D01*
X127793735Y-89787843D01*
X127583691Y-89928191D01*
X127443343Y-90138235D01*
X127394060Y-90386000D01*
X127394060Y-91986000D01*
X127443343Y-92233765D01*
X127583691Y-92443809D01*
X127793735Y-92584157D01*
X128041500Y-92633440D01*
X129641500Y-92633440D01*
X129889265Y-92584157D01*
X130098044Y-92444654D01*
X128035006Y-94507693D01*
X127760037Y-93681105D01*
X127297893Y-92867583D01*
X126686536Y-92159320D01*
X125949254Y-91583292D01*
X125114128Y-91161440D01*
X124212969Y-90909832D01*
X123280102Y-90838051D01*
X122351059Y-90948833D01*
X121461227Y-91237957D01*
X120644499Y-91694411D01*
X119931985Y-92300808D01*
X119350824Y-93034051D01*
X118923152Y-93866211D01*
X118665258Y-94765591D01*
X118586967Y-95697935D01*
X118691260Y-96627729D01*
X118974165Y-97519558D01*
X119424906Y-98339452D01*
X120026314Y-99056182D01*
X120755482Y-99642448D01*
X121584636Y-100075919D01*
X122482194Y-100340085D01*
X123413968Y-100424883D01*
X124344468Y-100327084D01*
X125238250Y-100050412D01*
X126061271Y-99605406D01*
X126782182Y-99009016D01*
X127373524Y-98283959D01*
X127700501Y-97669006D01*
X127700501Y-99366148D01*
X127685612Y-99441000D01*
X127744597Y-99737537D01*
X127772083Y-99778672D01*
X127912572Y-99988929D01*
X127976028Y-100031329D01*
X128585432Y-100640734D01*
X128470408Y-101219000D01*
X128585661Y-101798418D01*
X128913875Y-102289625D01*
X128935533Y-102304096D01*
X128774802Y-102370673D01*
X128596173Y-102549301D01*
X128499500Y-102782690D01*
X128499500Y-103473250D01*
X128658250Y-103632000D01*
X129857500Y-103632000D01*
X129857500Y-103612000D01*
X130111500Y-103612000D01*
X130111500Y-103632000D01*
X131310750Y-103632000D01*
X131469500Y-103473250D01*
X131469500Y-102782690D01*
X131372827Y-102549301D01*
X131194198Y-102370673D01*
X131033467Y-102304096D01*
X131055125Y-102289625D01*
X131383339Y-101798418D01*
X131498592Y-101219000D01*
X131383339Y-100639582D01*
X131055125Y-100148375D01*
X130736022Y-99935157D01*
X130865858Y-99874183D01*
X131256145Y-99445924D01*
X131425976Y-99035890D01*
X131304655Y-98806000D01*
X130111500Y-98806000D01*
X130111500Y-98826000D01*
X129857500Y-98826000D01*
X129857500Y-98806000D01*
X129837500Y-98806000D01*
X129837500Y-98552000D01*
X129857500Y-98552000D01*
X129857500Y-98532000D01*
X130111500Y-98532000D01*
X130111500Y-98552000D01*
X131304655Y-98552000D01*
X131425976Y-98322110D01*
X131256145Y-97912076D01*
X130865858Y-97483817D01*
X130736022Y-97422843D01*
X131055125Y-97209625D01*
X131383339Y-96718418D01*
X131498592Y-96139000D01*
X131467850Y-95984451D01*
X134405973Y-93046329D01*
X134469429Y-93003929D01*
X134637404Y-92752537D01*
X134661094Y-92633440D01*
X134721500Y-92633440D01*
X134969265Y-92584157D01*
X135179309Y-92443809D01*
X135191500Y-92425564D01*
X135203691Y-92443809D01*
X135413735Y-92584157D01*
X135661500Y-92633440D01*
X137261500Y-92633440D01*
X137509265Y-92584157D01*
X137719309Y-92443809D01*
X137758500Y-92385156D01*
X137758501Y-109399000D01*
X119895571Y-109399000D01*
X119769888Y-109374000D01*
X99985500Y-109374000D01*
X99985500Y-103759000D01*
X104340408Y-103759000D01*
X104455661Y-104338418D01*
X104783875Y-104829625D01*
X105082261Y-105029000D01*
X104783875Y-105228375D01*
X104455661Y-105719582D01*
X104340408Y-106299000D01*
X104455661Y-106878418D01*
X104783875Y-107369625D01*
X105275082Y-107697839D01*
X105708244Y-107784000D01*
X106000756Y-107784000D01*
X106433918Y-107697839D01*
X106925125Y-107369625D01*
X107253339Y-106878418D01*
X107368592Y-106299000D01*
X107253339Y-105719582D01*
X106925125Y-105228375D01*
X106626739Y-105029000D01*
X106925125Y-104829625D01*
X107253339Y-104338418D01*
X107355277Y-103825935D01*
X113252967Y-103825935D01*
X113357260Y-104755729D01*
X113640165Y-105647558D01*
X114090906Y-106467452D01*
X114692314Y-107184182D01*
X115421482Y-107770448D01*
X116250636Y-108203919D01*
X117148194Y-108468085D01*
X118079968Y-108552883D01*
X119010468Y-108455084D01*
X119904250Y-108178412D01*
X120727271Y-107733406D01*
X121448182Y-107137016D01*
X122039524Y-106411959D01*
X122478774Y-105585851D01*
X122749199Y-104690159D01*
X122812481Y-104044750D01*
X128499500Y-104044750D01*
X128499500Y-104735310D01*
X128596173Y-104968699D01*
X128774802Y-105147327D01*
X129008191Y-105244000D01*
X129698750Y-105244000D01*
X129857500Y-105085250D01*
X129857500Y-103886000D01*
X130111500Y-103886000D01*
X130111500Y-105085250D01*
X130270250Y-105244000D01*
X130960809Y-105244000D01*
X131194198Y-105147327D01*
X131372827Y-104968699D01*
X131469500Y-104735310D01*
X131469500Y-104044750D01*
X131310750Y-103886000D01*
X130111500Y-103886000D01*
X129857500Y-103886000D01*
X128658250Y-103886000D01*
X128499500Y-104044750D01*
X122812481Y-104044750D01*
X122840500Y-103759000D01*
X122838631Y-103625144D01*
X122721366Y-102696897D01*
X122426037Y-101809105D01*
X121963893Y-100995583D01*
X121352536Y-100287320D01*
X120615254Y-99711292D01*
X119780128Y-99289440D01*
X118878969Y-99037832D01*
X117946102Y-98966051D01*
X117017059Y-99076833D01*
X116127227Y-99365957D01*
X115310499Y-99822411D01*
X114597985Y-100428808D01*
X114016824Y-101162051D01*
X113589152Y-101994211D01*
X113331258Y-102893591D01*
X113252967Y-103825935D01*
X107355277Y-103825935D01*
X107368592Y-103759000D01*
X107253339Y-103179582D01*
X106925125Y-102688375D01*
X106606022Y-102475157D01*
X106735858Y-102414183D01*
X107126145Y-101985924D01*
X107295976Y-101575890D01*
X107174655Y-101346000D01*
X105981500Y-101346000D01*
X105981500Y-101366000D01*
X105727500Y-101366000D01*
X105727500Y-101346000D01*
X104534345Y-101346000D01*
X104413024Y-101575890D01*
X104582855Y-101985924D01*
X104973142Y-102414183D01*
X105102978Y-102475157D01*
X104783875Y-102688375D01*
X104455661Y-103179582D01*
X104340408Y-103759000D01*
X99985500Y-103759000D01*
X99985500Y-98679000D01*
X104340408Y-98679000D01*
X104455661Y-99258418D01*
X104783875Y-99749625D01*
X105102978Y-99962843D01*
X104973142Y-100023817D01*
X104582855Y-100452076D01*
X104413024Y-100862110D01*
X104534345Y-101092000D01*
X105727500Y-101092000D01*
X105727500Y-101072000D01*
X105981500Y-101072000D01*
X105981500Y-101092000D01*
X107174655Y-101092000D01*
X107295976Y-100862110D01*
X107126145Y-100452076D01*
X106735858Y-100023817D01*
X106606022Y-99962843D01*
X106925125Y-99749625D01*
X107253339Y-99258418D01*
X107368592Y-98679000D01*
X107253339Y-98099582D01*
X106925125Y-97608375D01*
X106606022Y-97395157D01*
X106735858Y-97334183D01*
X107126145Y-96905924D01*
X107295976Y-96495890D01*
X107174655Y-96266000D01*
X105981500Y-96266000D01*
X105981500Y-96286000D01*
X105727500Y-96286000D01*
X105727500Y-96266000D01*
X104534345Y-96266000D01*
X104413024Y-96495890D01*
X104582855Y-96905924D01*
X104973142Y-97334183D01*
X105102978Y-97395157D01*
X104783875Y-97608375D01*
X104455661Y-98099582D01*
X104340408Y-98679000D01*
X99985500Y-98679000D01*
X99985500Y-95543671D01*
X99999596Y-95614536D01*
X100111566Y-95782110D01*
X100167571Y-95865928D01*
X100231027Y-95908328D01*
X100415665Y-96092966D01*
X100405500Y-96117506D01*
X100405500Y-96668494D01*
X100616353Y-97177540D01*
X101005960Y-97567147D01*
X101515006Y-97778000D01*
X102065994Y-97778000D01*
X102575040Y-97567147D01*
X102964647Y-97177540D01*
X103175500Y-96668494D01*
X103175500Y-96117506D01*
X102964647Y-95608460D01*
X102575040Y-95218853D01*
X102065994Y-95008000D01*
X101515006Y-95008000D01*
X101490466Y-95018165D01*
X101475499Y-95003198D01*
X101475499Y-92881636D01*
X101515006Y-92898000D01*
X102065994Y-92898000D01*
X102575040Y-92687147D01*
X102964647Y-92297540D01*
X102974812Y-92273000D01*
X104573916Y-92273000D01*
X104546691Y-92291191D01*
X104406343Y-92501235D01*
X104357060Y-92749000D01*
X104357060Y-94449000D01*
X104406343Y-94696765D01*
X104546691Y-94906809D01*
X104756735Y-95047157D01*
X104860208Y-95067739D01*
X104582855Y-95372076D01*
X104413024Y-95782110D01*
X104534345Y-96012000D01*
X105727500Y-96012000D01*
X105727500Y-95992000D01*
X105981500Y-95992000D01*
X105981500Y-96012000D01*
X107174655Y-96012000D01*
X107295976Y-95782110D01*
X107261112Y-95697935D01*
X107918967Y-95697935D01*
X108023260Y-96627729D01*
X108306165Y-97519558D01*
X108756906Y-98339452D01*
X109358314Y-99056182D01*
X110087482Y-99642448D01*
X110916636Y-100075919D01*
X111814194Y-100340085D01*
X112745968Y-100424883D01*
X113676468Y-100327084D01*
X114570250Y-100050412D01*
X115393271Y-99605406D01*
X116114182Y-99009016D01*
X116705524Y-98283959D01*
X117144774Y-97457851D01*
X117415199Y-96562159D01*
X117506500Y-95631000D01*
X117504631Y-95497144D01*
X117387366Y-94568897D01*
X117092037Y-93681105D01*
X116629893Y-92867583D01*
X116018536Y-92159320D01*
X115281254Y-91583292D01*
X114446128Y-91161440D01*
X113544969Y-90909832D01*
X112612102Y-90838051D01*
X111683059Y-90948833D01*
X110793227Y-91237957D01*
X109976499Y-91694411D01*
X109263985Y-92300808D01*
X108682824Y-93034051D01*
X108255152Y-93866211D01*
X107997258Y-94765591D01*
X107918967Y-95697935D01*
X107261112Y-95697935D01*
X107126145Y-95372076D01*
X106848792Y-95067739D01*
X106952265Y-95047157D01*
X107162309Y-94906809D01*
X107302657Y-94696765D01*
X107351940Y-94449000D01*
X107351940Y-92749000D01*
X107302657Y-92501235D01*
X107162309Y-92291191D01*
X106952265Y-92150843D01*
X106921502Y-92144724D01*
X106921502Y-92010252D01*
X107080250Y-92169000D01*
X107358309Y-92169000D01*
X107591698Y-92072327D01*
X107770327Y-91893699D01*
X107867000Y-91660310D01*
X107867000Y-91344750D01*
X107708250Y-91186000D01*
X106921500Y-91186000D01*
X106921500Y-91206000D01*
X106667500Y-91206000D01*
X106667500Y-91186000D01*
X106647500Y-91186000D01*
X106647500Y-90932000D01*
X106667500Y-90932000D01*
X106667500Y-90107750D01*
X106921500Y-90107750D01*
X106921500Y-90932000D01*
X107708250Y-90932000D01*
X107867000Y-90773250D01*
X107867000Y-90457690D01*
X107770327Y-90224301D01*
X107591698Y-90045673D01*
X107358309Y-89949000D01*
X107080250Y-89949000D01*
X106921500Y-90107750D01*
X106667500Y-90107750D01*
X106508750Y-89949000D01*
X106230691Y-89949000D01*
X105997302Y-90045673D01*
X105979500Y-90063475D01*
X105979500Y-89468801D01*
X107058303Y-88390000D01*
X110224653Y-88390000D01*
X110299500Y-88404888D01*
X110374347Y-88390000D01*
X110374352Y-88390000D01*
X110596037Y-88345904D01*
X110847429Y-88177929D01*
X110889831Y-88114470D01*
X112221125Y-86783177D01*
X112387278Y-86852000D01*
X113037722Y-86852000D01*
X113638653Y-86603086D01*
X114098586Y-86143153D01*
X114167409Y-85977000D01*
X114736322Y-85977000D01*
X114943875Y-86287625D01*
X114962119Y-86299816D01*
X114916735Y-86308843D01*
X114706691Y-86449191D01*
X114566343Y-86659235D01*
X114517060Y-86907000D01*
X114517060Y-88607000D01*
X114566343Y-88854765D01*
X114706691Y-89064809D01*
X114916735Y-89205157D01*
X115164500Y-89254440D01*
X116864500Y-89254440D01*
X117112265Y-89205157D01*
X117322309Y-89064809D01*
X117462657Y-88854765D01*
X117511940Y-88607000D01*
X117511940Y-88517000D01*
X118733653Y-88517000D01*
X118808500Y-88531888D01*
X118883347Y-88517000D01*
X118883352Y-88517000D01*
X119105037Y-88472904D01*
X119356429Y-88304929D01*
X119398831Y-88241470D01*
X123788551Y-83851750D01*
X127406500Y-83851750D01*
X127406500Y-84492309D01*
X127503173Y-84725698D01*
X127681801Y-84904327D01*
X127915190Y-85001000D01*
X128555750Y-85001000D01*
X128714500Y-84842250D01*
X128714500Y-83693000D01*
X127565250Y-83693000D01*
X127406500Y-83851750D01*
X123788551Y-83851750D01*
X125261973Y-82378329D01*
X125325429Y-82335929D01*
X125358331Y-82286688D01*
X125363780Y-82284431D01*
X125654931Y-81993280D01*
X125812500Y-81612874D01*
X125812500Y-81201126D01*
X125654931Y-80820720D01*
X125475256Y-80641045D01*
X127880581Y-78235721D01*
X127964069Y-78437280D01*
X128019617Y-78492828D01*
X127392733Y-78752492D01*
X126862474Y-79282751D01*
X126575500Y-79975568D01*
X126575500Y-80725468D01*
X126862474Y-81418285D01*
X127392733Y-81948544D01*
X127874206Y-82147976D01*
X127681801Y-82227673D01*
X127503173Y-82406302D01*
X127406500Y-82639691D01*
X127406500Y-83280250D01*
X127565250Y-83439000D01*
X128714500Y-83439000D01*
X128714500Y-83419000D01*
X128968500Y-83419000D01*
X128968500Y-83439000D01*
X128988500Y-83439000D01*
X128988500Y-83693000D01*
X128968500Y-83693000D01*
X128968500Y-84842250D01*
X129127250Y-85001000D01*
X129767810Y-85001000D01*
X130001199Y-84904327D01*
X130106878Y-84798647D01*
X130123691Y-84823809D01*
X130333735Y-84964157D01*
X130581500Y-85013440D01*
X132181500Y-85013440D01*
X132429265Y-84964157D01*
X132639309Y-84823809D01*
X132651500Y-84805564D01*
X132663691Y-84823809D01*
X132873735Y-84964157D01*
X133121500Y-85013440D01*
X134721500Y-85013440D01*
X134969265Y-84964157D01*
X135179309Y-84823809D01*
X135191500Y-84805564D01*
X135203691Y-84823809D01*
X135413735Y-84964157D01*
X135661500Y-85013440D01*
X137261500Y-85013440D01*
X137509265Y-84964157D01*
X137719309Y-84823809D01*
X137859657Y-84613765D01*
X137908940Y-84366000D01*
X137908940Y-84326000D01*
X143893699Y-84326000D01*
X145396171Y-85828473D01*
X145438571Y-85891929D01*
X145502027Y-85934329D01*
X145689962Y-86059904D01*
X145738105Y-86069480D01*
X145911648Y-86104000D01*
X145911652Y-86104000D01*
X145986500Y-86118888D01*
X146061348Y-86104000D01*
X152769653Y-86104000D01*
X152844500Y-86118888D01*
X152919347Y-86104000D01*
X152919352Y-86104000D01*
X153141037Y-86059904D01*
X153392429Y-85891929D01*
X153434831Y-85828470D01*
X153891974Y-85371328D01*
X153955430Y-85328928D01*
X154022488Y-85228569D01*
X154123405Y-85077537D01*
X154132981Y-85029394D01*
X154167501Y-84855851D01*
X154167501Y-84855847D01*
X154182389Y-84780999D01*
X154167501Y-84706151D01*
X154167501Y-77999096D01*
X154188691Y-78030809D01*
X154398735Y-78171157D01*
X154646500Y-78220440D01*
X157646500Y-78220440D01*
X157894265Y-78171157D01*
X158104309Y-78030809D01*
X158230500Y-77841952D01*
X158230500Y-88927000D01*
G36*
X113276677Y-83680978D02*
X113037722Y-83582000D01*
X112387278Y-83582000D01*
X111786347Y-83830914D01*
X111326414Y-84290847D01*
X111077500Y-84891778D01*
X111077500Y-85542222D01*
X111146323Y-85708375D01*
X109984699Y-86870000D01*
X108205211Y-86870000D01*
X108382931Y-86692280D01*
X108540500Y-86311874D01*
X108540500Y-85900126D01*
X108382931Y-85519720D01*
X108265500Y-85402289D01*
X108265500Y-82234272D01*
X108291028Y-82251329D01*
X108296169Y-82256470D01*
X108338571Y-82319929D01*
X108589963Y-82487904D01*
X108811648Y-82532000D01*
X108811652Y-82532000D01*
X108886500Y-82546888D01*
X108952811Y-82533698D01*
X109132500Y-82569440D01*
X110532500Y-82569440D01*
X110780265Y-82520157D01*
X110990309Y-82379809D01*
X111130657Y-82169765D01*
X111179940Y-81922000D01*
X111179940Y-81622000D01*
X111170564Y-81574866D01*
X113276677Y-83680978D01*
X113276677Y-83680978D01*
G37*
X113276677Y-83680978D02*
X113037722Y-83582000D01*
X112387278Y-83582000D01*
X111786347Y-83830914D01*
X111326414Y-84290847D01*
X111077500Y-84891778D01*
X111077500Y-85542222D01*
X111146323Y-85708375D01*
X109984699Y-86870000D01*
X108205211Y-86870000D01*
X108382931Y-86692280D01*
X108540500Y-86311874D01*
X108540500Y-85900126D01*
X108382931Y-85519720D01*
X108265500Y-85402289D01*
X108265500Y-82234272D01*
X108291028Y-82251329D01*
X108296169Y-82256470D01*
X108338571Y-82319929D01*
X108589963Y-82487904D01*
X108811648Y-82532000D01*
X108811652Y-82532000D01*
X108886500Y-82546888D01*
X108952811Y-82533698D01*
X109132500Y-82569440D01*
X110532500Y-82569440D01*
X110780265Y-82520157D01*
X110990309Y-82379809D01*
X111130657Y-82169765D01*
X111179940Y-81922000D01*
X111179940Y-81622000D01*
X111170564Y-81574866D01*
X113276677Y-83680978D01*
G36*
X150451761Y-82009739D02*
X150732773Y-82197505D01*
X151064250Y-82263440D01*
X151232796Y-82263440D01*
X151208236Y-82273613D01*
X151109573Y-82540468D01*
X152082500Y-83513395D01*
X152096643Y-83499253D01*
X152276248Y-83678858D01*
X152262105Y-83693000D01*
X152276248Y-83707143D01*
X152096643Y-83886748D01*
X152082500Y-83872605D01*
X152068358Y-83886748D01*
X151888753Y-83707143D01*
X151902895Y-83693000D01*
X150929968Y-82720073D01*
X150894811Y-82733072D01*
X150468653Y-82306914D01*
X150302500Y-82238091D01*
X150302500Y-82056896D01*
X150411239Y-81984239D01*
X150422981Y-81966666D01*
X150451761Y-82009739D01*
X150451761Y-82009739D01*
G37*
X150451761Y-82009739D02*
X150732773Y-82197505D01*
X151064250Y-82263440D01*
X151232796Y-82263440D01*
X151208236Y-82273613D01*
X151109573Y-82540468D01*
X152082500Y-83513395D01*
X152096643Y-83499253D01*
X152276248Y-83678858D01*
X152262105Y-83693000D01*
X152276248Y-83707143D01*
X152096643Y-83886748D01*
X152082500Y-83872605D01*
X152068358Y-83886748D01*
X151888753Y-83707143D01*
X151902895Y-83693000D01*
X150929968Y-82720073D01*
X150894811Y-82733072D01*
X150468653Y-82306914D01*
X150302500Y-82238091D01*
X150302500Y-82056896D01*
X150411239Y-81984239D01*
X150422981Y-81966666D01*
X150451761Y-82009739D01*
G36*
X114016213Y-81240071D02*
X114069572Y-81319929D01*
X114133028Y-81362329D01*
X114662171Y-81891473D01*
X114704571Y-81954929D01*
X114720006Y-81965242D01*
X114573024Y-82320110D01*
X114694345Y-82550000D01*
X115887500Y-82550000D01*
X115887500Y-82530000D01*
X116141500Y-82530000D01*
X116141500Y-82550000D01*
X117334655Y-82550000D01*
X117455976Y-82320110D01*
X117392560Y-82167000D01*
X121799699Y-82167000D01*
X120779699Y-83187000D01*
X117392560Y-83187000D01*
X117455976Y-83033890D01*
X117334655Y-82804000D01*
X116141500Y-82804000D01*
X116141500Y-82824000D01*
X115887500Y-82824000D01*
X115887500Y-82804000D01*
X114694345Y-82804000D01*
X114644242Y-82898940D01*
X113376836Y-81631534D01*
X113638653Y-81523086D01*
X113978343Y-81183396D01*
X114016213Y-81240071D01*
X114016213Y-81240071D01*
G37*
X114016213Y-81240071D02*
X114069572Y-81319929D01*
X114133028Y-81362329D01*
X114662171Y-81891473D01*
X114704571Y-81954929D01*
X114720006Y-81965242D01*
X114573024Y-82320110D01*
X114694345Y-82550000D01*
X115887500Y-82550000D01*
X115887500Y-82530000D01*
X116141500Y-82530000D01*
X116141500Y-82550000D01*
X117334655Y-82550000D01*
X117455976Y-82320110D01*
X117392560Y-82167000D01*
X121799699Y-82167000D01*
X120779699Y-83187000D01*
X117392560Y-83187000D01*
X117455976Y-83033890D01*
X117334655Y-82804000D01*
X116141500Y-82804000D01*
X116141500Y-82824000D01*
X115887500Y-82824000D01*
X115887500Y-82804000D01*
X114694345Y-82804000D01*
X114644242Y-82898940D01*
X113376836Y-81631534D01*
X113638653Y-81523086D01*
X113978343Y-81183396D01*
X114016213Y-81240071D01*
G36*
X138254852Y-72718154D02*
X137784227Y-72718154D01*
X137091410Y-73005128D01*
X136561151Y-73535387D01*
X136274177Y-74228204D01*
X136274177Y-74978104D01*
X136561151Y-75670921D01*
X137091410Y-76201180D01*
X137784227Y-76488154D01*
X138534127Y-76488154D01*
X139226944Y-76201180D01*
X139757203Y-75670921D01*
X139765500Y-75650889D01*
X139765501Y-78538148D01*
X139750612Y-78613000D01*
X139809597Y-78909537D01*
X139907525Y-79056096D01*
X139977572Y-79160929D01*
X140041028Y-79203329D01*
X143643698Y-82806000D01*
X137908940Y-82806000D01*
X137908940Y-82766000D01*
X137859657Y-82518235D01*
X137719309Y-82308191D01*
X137651676Y-82263000D01*
X137750750Y-82263000D01*
X137909500Y-82104250D01*
X137909500Y-81280000D01*
X138163500Y-81280000D01*
X138163500Y-82104250D01*
X138322250Y-82263000D01*
X138600309Y-82263000D01*
X138833698Y-82166327D01*
X139012327Y-81987699D01*
X139109000Y-81754310D01*
X139109000Y-81438750D01*
X138950250Y-81280000D01*
X138163500Y-81280000D01*
X137909500Y-81280000D01*
X137889500Y-81280000D01*
X137889500Y-81026000D01*
X137909500Y-81026000D01*
X137909500Y-80201750D01*
X138163500Y-80201750D01*
X138163500Y-81026000D01*
X138950250Y-81026000D01*
X139109000Y-80867250D01*
X139109000Y-80551690D01*
X139012327Y-80318301D01*
X138833698Y-80139673D01*
X138600309Y-80043000D01*
X138322250Y-80043000D01*
X138163500Y-80201750D01*
X137909500Y-80201750D01*
X137750750Y-80043000D01*
X137472691Y-80043000D01*
X137239302Y-80139673D01*
X137174031Y-80204943D01*
X137011727Y-80096495D01*
X136680250Y-80030560D01*
X136242750Y-80030560D01*
X135911273Y-80096495D01*
X135630261Y-80284261D01*
X135557604Y-80393000D01*
X134948993Y-80393000D01*
X135096026Y-80332097D01*
X135626285Y-79801838D01*
X135913259Y-79109021D01*
X135913259Y-78359121D01*
X135626285Y-77666304D01*
X135096026Y-77136045D01*
X134403209Y-76849071D01*
X134220231Y-76849071D01*
X135548973Y-75520329D01*
X135612429Y-75477929D01*
X135780404Y-75226537D01*
X135824500Y-75004852D01*
X135824500Y-75004847D01*
X135839388Y-74930000D01*
X135824500Y-74855153D01*
X135824500Y-71321846D01*
X135839388Y-71246999D01*
X135824500Y-71172152D01*
X135824500Y-71172148D01*
X135780404Y-70950463D01*
X135612429Y-70699071D01*
X135548973Y-70656671D01*
X135157831Y-70265529D01*
X135115429Y-70202071D01*
X134965662Y-70102000D01*
X135638699Y-70102000D01*
X138254852Y-72718154D01*
X138254852Y-72718154D01*
G37*
X138254852Y-72718154D02*
X137784227Y-72718154D01*
X137091410Y-73005128D01*
X136561151Y-73535387D01*
X136274177Y-74228204D01*
X136274177Y-74978104D01*
X136561151Y-75670921D01*
X137091410Y-76201180D01*
X137784227Y-76488154D01*
X138534127Y-76488154D01*
X139226944Y-76201180D01*
X139757203Y-75670921D01*
X139765500Y-75650889D01*
X139765501Y-78538148D01*
X139750612Y-78613000D01*
X139809597Y-78909537D01*
X139907525Y-79056096D01*
X139977572Y-79160929D01*
X140041028Y-79203329D01*
X143643698Y-82806000D01*
X137908940Y-82806000D01*
X137908940Y-82766000D01*
X137859657Y-82518235D01*
X137719309Y-82308191D01*
X137651676Y-82263000D01*
X137750750Y-82263000D01*
X137909500Y-82104250D01*
X137909500Y-81280000D01*
X138163500Y-81280000D01*
X138163500Y-82104250D01*
X138322250Y-82263000D01*
X138600309Y-82263000D01*
X138833698Y-82166327D01*
X139012327Y-81987699D01*
X139109000Y-81754310D01*
X139109000Y-81438750D01*
X138950250Y-81280000D01*
X138163500Y-81280000D01*
X137909500Y-81280000D01*
X137889500Y-81280000D01*
X137889500Y-81026000D01*
X137909500Y-81026000D01*
X137909500Y-80201750D01*
X138163500Y-80201750D01*
X138163500Y-81026000D01*
X138950250Y-81026000D01*
X139109000Y-80867250D01*
X139109000Y-80551690D01*
X139012327Y-80318301D01*
X138833698Y-80139673D01*
X138600309Y-80043000D01*
X138322250Y-80043000D01*
X138163500Y-80201750D01*
X137909500Y-80201750D01*
X137750750Y-80043000D01*
X137472691Y-80043000D01*
X137239302Y-80139673D01*
X137174031Y-80204943D01*
X137011727Y-80096495D01*
X136680250Y-80030560D01*
X136242750Y-80030560D01*
X135911273Y-80096495D01*
X135630261Y-80284261D01*
X135557604Y-80393000D01*
X134948993Y-80393000D01*
X135096026Y-80332097D01*
X135626285Y-79801838D01*
X135913259Y-79109021D01*
X135913259Y-78359121D01*
X135626285Y-77666304D01*
X135096026Y-77136045D01*
X134403209Y-76849071D01*
X134220231Y-76849071D01*
X135548973Y-75520329D01*
X135612429Y-75477929D01*
X135780404Y-75226537D01*
X135824500Y-75004852D01*
X135824500Y-75004847D01*
X135839388Y-74930000D01*
X135824500Y-74855153D01*
X135824500Y-71321846D01*
X135839388Y-71246999D01*
X135824500Y-71172152D01*
X135824500Y-71172148D01*
X135780404Y-70950463D01*
X135612429Y-70699071D01*
X135548973Y-70656671D01*
X135157831Y-70265529D01*
X135115429Y-70202071D01*
X134965662Y-70102000D01*
X135638699Y-70102000D01*
X138254852Y-72718154D01*
G36*
X130271060Y-81409250D02*
X130336995Y-81740727D01*
X130524761Y-82021739D01*
X130621501Y-82086378D01*
X130621501Y-82118560D01*
X130581500Y-82118560D01*
X130333735Y-82167843D01*
X130123691Y-82308191D01*
X130106878Y-82333353D01*
X130001199Y-82227673D01*
X129767810Y-82131000D01*
X129127250Y-82131000D01*
X128968502Y-82289748D01*
X128968502Y-82180406D01*
X129528267Y-81948544D01*
X130058526Y-81418285D01*
X130271060Y-80905182D01*
X130271060Y-81409250D01*
X130271060Y-81409250D01*
G37*
X130271060Y-81409250D02*
X130336995Y-81740727D01*
X130524761Y-82021739D01*
X130621501Y-82086378D01*
X130621501Y-82118560D01*
X130581500Y-82118560D01*
X130333735Y-82167843D01*
X130123691Y-82308191D01*
X130106878Y-82333353D01*
X130001199Y-82227673D01*
X129767810Y-82131000D01*
X129127250Y-82131000D01*
X128968502Y-82289748D01*
X128968502Y-82180406D01*
X129528267Y-81948544D01*
X130058526Y-81418285D01*
X130271060Y-80905182D01*
X130271060Y-81409250D01*
G36*
X152647501Y-82158718D02*
X152347039Y-82047092D01*
X152120808Y-82055463D01*
X152189239Y-82009739D01*
X152377005Y-81728727D01*
X152442940Y-81397250D01*
X152442940Y-80959750D01*
X152377005Y-80628273D01*
X152268557Y-80465969D01*
X152333827Y-80400698D01*
X152430500Y-80167309D01*
X152430500Y-79889250D01*
X152271750Y-79730500D01*
X151447500Y-79730500D01*
X151447500Y-79750500D01*
X151193500Y-79750500D01*
X151193500Y-79730500D01*
X151173500Y-79730500D01*
X151173500Y-79476500D01*
X151193500Y-79476500D01*
X151193500Y-79456500D01*
X151447500Y-79456500D01*
X151447500Y-79476500D01*
X152271750Y-79476500D01*
X152430500Y-79317750D01*
X152430500Y-79039691D01*
X152333827Y-78806302D01*
X152155199Y-78627673D01*
X151921810Y-78531000D01*
X151664301Y-78531000D01*
X152647502Y-77547800D01*
X152647501Y-82158718D01*
X152647501Y-82158718D01*
G37*
X152647501Y-82158718D02*
X152347039Y-82047092D01*
X152120808Y-82055463D01*
X152189239Y-82009739D01*
X152377005Y-81728727D01*
X152442940Y-81397250D01*
X152442940Y-80959750D01*
X152377005Y-80628273D01*
X152268557Y-80465969D01*
X152333827Y-80400698D01*
X152430500Y-80167309D01*
X152430500Y-79889250D01*
X152271750Y-79730500D01*
X151447500Y-79730500D01*
X151447500Y-79750500D01*
X151193500Y-79750500D01*
X151193500Y-79730500D01*
X151173500Y-79730500D01*
X151173500Y-79476500D01*
X151193500Y-79476500D01*
X151193500Y-79456500D01*
X151447500Y-79456500D01*
X151447500Y-79476500D01*
X152271750Y-79476500D01*
X152430500Y-79317750D01*
X152430500Y-79039691D01*
X152333827Y-78806302D01*
X152155199Y-78627673D01*
X151921810Y-78531000D01*
X151664301Y-78531000D01*
X152647502Y-77547800D01*
X152647501Y-82158718D01*
G36*
X132672060Y-64341362D02*
X132672060Y-64607750D01*
X132737995Y-64939227D01*
X132925761Y-65220239D01*
X133206773Y-65408005D01*
X133538250Y-65473940D01*
X133804637Y-65473940D01*
X133857809Y-65527112D01*
X133900208Y-65590566D01*
X133963661Y-65632964D01*
X133963663Y-65632966D01*
X134081716Y-65711846D01*
X134151600Y-65758541D01*
X134373285Y-65802637D01*
X134373289Y-65802637D01*
X134448136Y-65817525D01*
X134522983Y-65802637D01*
X141702016Y-65802637D01*
X141776863Y-65817525D01*
X141851710Y-65802637D01*
X141851715Y-65802637D01*
X142073400Y-65758541D01*
X142324792Y-65590566D01*
X142367194Y-65527107D01*
X144073335Y-63820966D01*
X143987500Y-64028191D01*
X143987500Y-64306250D01*
X144146250Y-64465000D01*
X144970500Y-64465000D01*
X144970500Y-64445000D01*
X145224500Y-64445000D01*
X145224500Y-64465000D01*
X145244500Y-64465000D01*
X145244500Y-64719000D01*
X145224500Y-64719000D01*
X145224500Y-64739000D01*
X144970500Y-64739000D01*
X144970500Y-64719000D01*
X144146250Y-64719000D01*
X143987500Y-64877750D01*
X143987500Y-65155809D01*
X144084173Y-65389198D01*
X144149443Y-65454469D01*
X144040995Y-65616773D01*
X143975060Y-65948250D01*
X143975060Y-66385750D01*
X144040995Y-66717227D01*
X144228761Y-66998239D01*
X144509773Y-67186005D01*
X144841250Y-67251940D01*
X145353750Y-67251940D01*
X145685227Y-67186005D01*
X145966239Y-66998239D01*
X146013839Y-66927000D01*
X146086161Y-66927000D01*
X146133761Y-66998239D01*
X146242500Y-67070896D01*
X146242500Y-67252091D01*
X146076347Y-67320914D01*
X145616414Y-67780847D01*
X145367500Y-68381778D01*
X145367500Y-69032222D01*
X145616414Y-69633153D01*
X146076347Y-70093086D01*
X146677278Y-70342000D01*
X147327722Y-70342000D01*
X147928653Y-70093086D01*
X148272500Y-69749239D01*
X148616347Y-70093086D01*
X149217278Y-70342000D01*
X149867722Y-70342000D01*
X150468653Y-70093086D01*
X150894811Y-69666928D01*
X150929968Y-69679927D01*
X151902895Y-68707000D01*
X150929968Y-67734073D01*
X150894811Y-67747072D01*
X150468653Y-67320914D01*
X150302500Y-67252091D01*
X150302500Y-67070896D01*
X150411239Y-66998239D01*
X150414461Y-66993416D01*
X150451761Y-67049239D01*
X150732773Y-67237005D01*
X151064250Y-67302940D01*
X151202569Y-67302940D01*
X151109573Y-67554468D01*
X152082500Y-68527395D01*
X152096643Y-68513253D01*
X152276248Y-68692858D01*
X152262105Y-68707000D01*
X152276248Y-68721143D01*
X152096643Y-68900748D01*
X152082500Y-68886605D01*
X151109573Y-69859532D01*
X151208236Y-70126387D01*
X151817961Y-70352908D01*
X152467960Y-70328856D01*
X152647501Y-70254488D01*
X152647502Y-75398196D01*
X149552639Y-78493060D01*
X149286250Y-78493060D01*
X148954773Y-78558995D01*
X148673761Y-78746761D01*
X148626161Y-78818000D01*
X147918839Y-78818000D01*
X147871239Y-78746761D01*
X147590227Y-78558995D01*
X147258750Y-78493060D01*
X146746250Y-78493060D01*
X146414773Y-78558995D01*
X146175738Y-78718713D01*
X146059199Y-78602173D01*
X145825810Y-78505500D01*
X145510250Y-78505500D01*
X145351500Y-78664250D01*
X145351500Y-79451000D01*
X145371500Y-79451000D01*
X145371500Y-79705000D01*
X145351500Y-79705000D01*
X145351500Y-79725000D01*
X145097500Y-79725000D01*
X145097500Y-79705000D01*
X144273250Y-79705000D01*
X144114500Y-79863750D01*
X144114500Y-80141809D01*
X144211173Y-80375198D01*
X144276443Y-80440469D01*
X144167995Y-80602773D01*
X144102060Y-80934250D01*
X144102060Y-81114758D01*
X142001493Y-79014191D01*
X144114500Y-79014191D01*
X144114500Y-79292250D01*
X144273250Y-79451000D01*
X145097500Y-79451000D01*
X145097500Y-78664250D01*
X144938750Y-78505500D01*
X144623190Y-78505500D01*
X144389801Y-78602173D01*
X144211173Y-78780802D01*
X144114500Y-79014191D01*
X142001493Y-79014191D01*
X141285500Y-78298199D01*
X141285500Y-77936007D01*
X141438500Y-77966440D01*
X144438500Y-77966440D01*
X144686265Y-77917157D01*
X144896309Y-77776809D01*
X145036657Y-77566765D01*
X145085940Y-77319000D01*
X145085940Y-74319000D01*
X145036657Y-74071235D01*
X144896309Y-73861191D01*
X144686265Y-73720843D01*
X144438500Y-73671560D01*
X141438500Y-73671560D01*
X141259257Y-73707213D01*
X141241404Y-73617463D01*
X141197663Y-73552000D01*
X141115829Y-73429526D01*
X141115827Y-73429524D01*
X141073429Y-73366071D01*
X141009976Y-73323673D01*
X136543831Y-68857530D01*
X136501429Y-68794071D01*
X136301444Y-68660445D01*
X137890623Y-68660445D01*
X137890623Y-69410345D01*
X138177597Y-70103162D01*
X138707856Y-70633421D01*
X139400673Y-70920395D01*
X140150573Y-70920395D01*
X140843390Y-70633421D01*
X141373649Y-70103162D01*
X141660623Y-69410345D01*
X141660623Y-68660445D01*
X141373649Y-67967628D01*
X140843390Y-67437369D01*
X140150573Y-67150395D01*
X139400673Y-67150395D01*
X138707856Y-67437369D01*
X138177597Y-67967628D01*
X137890623Y-68660445D01*
X136301444Y-68660445D01*
X136250037Y-68626096D01*
X136028352Y-68582000D01*
X136028347Y-68582000D01*
X135953500Y-68567112D01*
X135878653Y-68582000D01*
X130142026Y-68582000D01*
X130198327Y-68525699D01*
X130295000Y-68292310D01*
X130295000Y-67976750D01*
X130136250Y-67818000D01*
X129349500Y-67818000D01*
X129349500Y-67838000D01*
X129095500Y-67838000D01*
X129095500Y-67818000D01*
X129075500Y-67818000D01*
X129075500Y-67564000D01*
X129095500Y-67564000D01*
X129095500Y-67544000D01*
X129349500Y-67544000D01*
X129349500Y-67564000D01*
X130136250Y-67564000D01*
X130295000Y-67405250D01*
X130295000Y-67089690D01*
X130198327Y-66856301D01*
X130019698Y-66677673D01*
X129802340Y-66587640D01*
X130058526Y-66331454D01*
X130345500Y-65638637D01*
X130345500Y-64888737D01*
X130058526Y-64195920D01*
X129528267Y-63665661D01*
X129081656Y-63480669D01*
X129329239Y-63315239D01*
X129376839Y-63244000D01*
X131574699Y-63244000D01*
X132672060Y-64341362D01*
X132672060Y-64341362D01*
G37*
X132672060Y-64341362D02*
X132672060Y-64607750D01*
X132737995Y-64939227D01*
X132925761Y-65220239D01*
X133206773Y-65408005D01*
X133538250Y-65473940D01*
X133804637Y-65473940D01*
X133857809Y-65527112D01*
X133900208Y-65590566D01*
X133963661Y-65632964D01*
X133963663Y-65632966D01*
X134081716Y-65711846D01*
X134151600Y-65758541D01*
X134373285Y-65802637D01*
X134373289Y-65802637D01*
X134448136Y-65817525D01*
X134522983Y-65802637D01*
X141702016Y-65802637D01*
X141776863Y-65817525D01*
X141851710Y-65802637D01*
X141851715Y-65802637D01*
X142073400Y-65758541D01*
X142324792Y-65590566D01*
X142367194Y-65527107D01*
X144073335Y-63820966D01*
X143987500Y-64028191D01*
X143987500Y-64306250D01*
X144146250Y-64465000D01*
X144970500Y-64465000D01*
X144970500Y-64445000D01*
X145224500Y-64445000D01*
X145224500Y-64465000D01*
X145244500Y-64465000D01*
X145244500Y-64719000D01*
X145224500Y-64719000D01*
X145224500Y-64739000D01*
X144970500Y-64739000D01*
X144970500Y-64719000D01*
X144146250Y-64719000D01*
X143987500Y-64877750D01*
X143987500Y-65155809D01*
X144084173Y-65389198D01*
X144149443Y-65454469D01*
X144040995Y-65616773D01*
X143975060Y-65948250D01*
X143975060Y-66385750D01*
X144040995Y-66717227D01*
X144228761Y-66998239D01*
X144509773Y-67186005D01*
X144841250Y-67251940D01*
X145353750Y-67251940D01*
X145685227Y-67186005D01*
X145966239Y-66998239D01*
X146013839Y-66927000D01*
X146086161Y-66927000D01*
X146133761Y-66998239D01*
X146242500Y-67070896D01*
X146242500Y-67252091D01*
X146076347Y-67320914D01*
X145616414Y-67780847D01*
X145367500Y-68381778D01*
X145367500Y-69032222D01*
X145616414Y-69633153D01*
X146076347Y-70093086D01*
X146677278Y-70342000D01*
X147327722Y-70342000D01*
X147928653Y-70093086D01*
X148272500Y-69749239D01*
X148616347Y-70093086D01*
X149217278Y-70342000D01*
X149867722Y-70342000D01*
X150468653Y-70093086D01*
X150894811Y-69666928D01*
X150929968Y-69679927D01*
X151902895Y-68707000D01*
X150929968Y-67734073D01*
X150894811Y-67747072D01*
X150468653Y-67320914D01*
X150302500Y-67252091D01*
X150302500Y-67070896D01*
X150411239Y-66998239D01*
X150414461Y-66993416D01*
X150451761Y-67049239D01*
X150732773Y-67237005D01*
X151064250Y-67302940D01*
X151202569Y-67302940D01*
X151109573Y-67554468D01*
X152082500Y-68527395D01*
X152096643Y-68513253D01*
X152276248Y-68692858D01*
X152262105Y-68707000D01*
X152276248Y-68721143D01*
X152096643Y-68900748D01*
X152082500Y-68886605D01*
X151109573Y-69859532D01*
X151208236Y-70126387D01*
X151817961Y-70352908D01*
X152467960Y-70328856D01*
X152647501Y-70254488D01*
X152647502Y-75398196D01*
X149552639Y-78493060D01*
X149286250Y-78493060D01*
X148954773Y-78558995D01*
X148673761Y-78746761D01*
X148626161Y-78818000D01*
X147918839Y-78818000D01*
X147871239Y-78746761D01*
X147590227Y-78558995D01*
X147258750Y-78493060D01*
X146746250Y-78493060D01*
X146414773Y-78558995D01*
X146175738Y-78718713D01*
X146059199Y-78602173D01*
X145825810Y-78505500D01*
X145510250Y-78505500D01*
X145351500Y-78664250D01*
X145351500Y-79451000D01*
X145371500Y-79451000D01*
X145371500Y-79705000D01*
X145351500Y-79705000D01*
X145351500Y-79725000D01*
X145097500Y-79725000D01*
X145097500Y-79705000D01*
X144273250Y-79705000D01*
X144114500Y-79863750D01*
X144114500Y-80141809D01*
X144211173Y-80375198D01*
X144276443Y-80440469D01*
X144167995Y-80602773D01*
X144102060Y-80934250D01*
X144102060Y-81114758D01*
X142001493Y-79014191D01*
X144114500Y-79014191D01*
X144114500Y-79292250D01*
X144273250Y-79451000D01*
X145097500Y-79451000D01*
X145097500Y-78664250D01*
X144938750Y-78505500D01*
X144623190Y-78505500D01*
X144389801Y-78602173D01*
X144211173Y-78780802D01*
X144114500Y-79014191D01*
X142001493Y-79014191D01*
X141285500Y-78298199D01*
X141285500Y-77936007D01*
X141438500Y-77966440D01*
X144438500Y-77966440D01*
X144686265Y-77917157D01*
X144896309Y-77776809D01*
X145036657Y-77566765D01*
X145085940Y-77319000D01*
X145085940Y-74319000D01*
X145036657Y-74071235D01*
X144896309Y-73861191D01*
X144686265Y-73720843D01*
X144438500Y-73671560D01*
X141438500Y-73671560D01*
X141259257Y-73707213D01*
X141241404Y-73617463D01*
X141197663Y-73552000D01*
X141115829Y-73429526D01*
X141115827Y-73429524D01*
X141073429Y-73366071D01*
X141009976Y-73323673D01*
X136543831Y-68857530D01*
X136501429Y-68794071D01*
X136301444Y-68660445D01*
X137890623Y-68660445D01*
X137890623Y-69410345D01*
X138177597Y-70103162D01*
X138707856Y-70633421D01*
X139400673Y-70920395D01*
X140150573Y-70920395D01*
X140843390Y-70633421D01*
X141373649Y-70103162D01*
X141660623Y-69410345D01*
X141660623Y-68660445D01*
X141373649Y-67967628D01*
X140843390Y-67437369D01*
X140150573Y-67150395D01*
X139400673Y-67150395D01*
X138707856Y-67437369D01*
X138177597Y-67967628D01*
X137890623Y-68660445D01*
X136301444Y-68660445D01*
X136250037Y-68626096D01*
X136028352Y-68582000D01*
X136028347Y-68582000D01*
X135953500Y-68567112D01*
X135878653Y-68582000D01*
X130142026Y-68582000D01*
X130198327Y-68525699D01*
X130295000Y-68292310D01*
X130295000Y-67976750D01*
X130136250Y-67818000D01*
X129349500Y-67818000D01*
X129349500Y-67838000D01*
X129095500Y-67838000D01*
X129095500Y-67818000D01*
X129075500Y-67818000D01*
X129075500Y-67564000D01*
X129095500Y-67564000D01*
X129095500Y-67544000D01*
X129349500Y-67544000D01*
X129349500Y-67564000D01*
X130136250Y-67564000D01*
X130295000Y-67405250D01*
X130295000Y-67089690D01*
X130198327Y-66856301D01*
X130019698Y-66677673D01*
X129802340Y-66587640D01*
X130058526Y-66331454D01*
X130345500Y-65638637D01*
X130345500Y-64888737D01*
X130058526Y-64195920D01*
X129528267Y-63665661D01*
X129081656Y-63480669D01*
X129329239Y-63315239D01*
X129376839Y-63244000D01*
X131574699Y-63244000D01*
X132672060Y-64341362D01*
G36*
X106941498Y-51318768D02*
X106750891Y-51194038D01*
X106713219Y-51197908D01*
X106285026Y-51424420D01*
X105976110Y-51797553D01*
X105833500Y-52260500D01*
X105833500Y-52610500D01*
X106941500Y-52610500D01*
X106941500Y-52590500D01*
X107195500Y-52590500D01*
X107195500Y-52610500D01*
X108291717Y-52610500D01*
X108440191Y-52672000D01*
X108647248Y-52672000D01*
X108635612Y-52730500D01*
X108648825Y-52796928D01*
X108303500Y-53027667D01*
X108303500Y-52864500D01*
X107195500Y-52864500D01*
X107195500Y-54156231D01*
X107386109Y-54280962D01*
X107423781Y-54277092D01*
X107771413Y-54093196D01*
X107744400Y-54229000D01*
X107867609Y-54848411D01*
X108218477Y-55373523D01*
X108419974Y-55508159D01*
X108034527Y-55902076D01*
X107819937Y-56396020D01*
X107939906Y-56642000D01*
X109283500Y-56642000D01*
X109283500Y-56622000D01*
X109537500Y-56622000D01*
X109537500Y-56642000D01*
X110881094Y-56642000D01*
X111001063Y-56396020D01*
X110786473Y-55902076D01*
X110401026Y-55508159D01*
X110602523Y-55373523D01*
X110859453Y-54989000D01*
X112118199Y-54989000D01*
X119071044Y-61941846D01*
X118386873Y-61941846D01*
X117694056Y-62228820D01*
X117163797Y-62759079D01*
X116876823Y-63451896D01*
X116876823Y-64201796D01*
X117163797Y-64894613D01*
X117694056Y-65424872D01*
X118386873Y-65711846D01*
X119136773Y-65711846D01*
X119829590Y-65424872D01*
X120359849Y-64894613D01*
X120646823Y-64201796D01*
X120646823Y-63517626D01*
X121623060Y-64493863D01*
X121623060Y-64760250D01*
X121688995Y-65091727D01*
X121876761Y-65372739D01*
X122157773Y-65560505D01*
X122489250Y-65626440D01*
X123001750Y-65626440D01*
X123333227Y-65560505D01*
X123614239Y-65372739D01*
X123802005Y-65091727D01*
X123867940Y-64760250D01*
X123867940Y-64493862D01*
X125117803Y-63244000D01*
X127544161Y-63244000D01*
X127591761Y-63315239D01*
X127839344Y-63480669D01*
X127392733Y-63665661D01*
X126862474Y-64195920D01*
X126575500Y-64888737D01*
X126575500Y-65638637D01*
X126862474Y-66331454D01*
X126887501Y-66356481D01*
X126887501Y-66774660D01*
X126816261Y-66822261D01*
X126628495Y-67103273D01*
X126562560Y-67434750D01*
X126562560Y-67947250D01*
X126628495Y-68278727D01*
X126816261Y-68559739D01*
X127097273Y-68747505D01*
X127428750Y-68813440D01*
X127866250Y-68813440D01*
X128197727Y-68747505D01*
X128360031Y-68639057D01*
X128425302Y-68704327D01*
X128658691Y-68801000D01*
X128923941Y-68801000D01*
X128886171Y-68857527D01*
X128403699Y-69340000D01*
X126077785Y-69340000D01*
X125983265Y-69276843D01*
X125735500Y-69227560D01*
X123985500Y-69227560D01*
X123737735Y-69276843D01*
X123527691Y-69417191D01*
X123387343Y-69627235D01*
X123338060Y-69875000D01*
X123338060Y-70030001D01*
X119027707Y-70030001D01*
X119209982Y-69589950D01*
X119209982Y-68840050D01*
X118923008Y-68147233D01*
X118392749Y-67616974D01*
X117699932Y-67330000D01*
X116950032Y-67330000D01*
X116257215Y-67616974D01*
X115726956Y-68147233D01*
X115439982Y-68840050D01*
X115439982Y-69589950D01*
X115726956Y-70282767D01*
X115815443Y-70371254D01*
X110310500Y-75876199D01*
X110310500Y-75513670D01*
X110076810Y-74949493D01*
X109645007Y-74517690D01*
X109080830Y-74284000D01*
X108470170Y-74284000D01*
X107905993Y-74517690D01*
X107525500Y-74898183D01*
X107145007Y-74517690D01*
X106580830Y-74284000D01*
X105970170Y-74284000D01*
X105405993Y-74517690D01*
X104974190Y-74949493D01*
X104970961Y-74957290D01*
X104855659Y-74918446D01*
X103955105Y-75819000D01*
X104855659Y-76719554D01*
X104970961Y-76680710D01*
X104974190Y-76688507D01*
X105405993Y-77120310D01*
X105970170Y-77354000D01*
X106580830Y-77354000D01*
X106690338Y-77308640D01*
X106745501Y-77363803D01*
X106745501Y-79100506D01*
X106679037Y-79056096D01*
X106457352Y-79012000D01*
X106457347Y-79012000D01*
X106382500Y-78997112D01*
X106314189Y-79010700D01*
X106132500Y-78974560D01*
X104732500Y-78974560D01*
X104551500Y-79010563D01*
X104551500Y-78847750D01*
X104392750Y-78689000D01*
X103568500Y-78689000D01*
X103568500Y-78709000D01*
X103314500Y-78709000D01*
X103314500Y-78689000D01*
X102490250Y-78689000D01*
X102331500Y-78847750D01*
X102331500Y-79125809D01*
X102428173Y-79359198D01*
X102493443Y-79424469D01*
X102384995Y-79586773D01*
X102319060Y-79918250D01*
X102319060Y-80355750D01*
X102356280Y-80542868D01*
X102250374Y-80499000D01*
X102140266Y-80499000D01*
X102155500Y-80462222D01*
X102155500Y-79811778D01*
X101906586Y-79210847D01*
X101446653Y-78750914D01*
X100845722Y-78502000D01*
X100195278Y-78502000D01*
X99985500Y-78588893D01*
X99985500Y-77998191D01*
X102331500Y-77998191D01*
X102331500Y-78276250D01*
X102490250Y-78435000D01*
X103314500Y-78435000D01*
X103314500Y-77648250D01*
X103568500Y-77648250D01*
X103568500Y-78435000D01*
X104392750Y-78435000D01*
X104551500Y-78276250D01*
X104551500Y-77998191D01*
X104454827Y-77764802D01*
X104276199Y-77586173D01*
X104042810Y-77489500D01*
X103727250Y-77489500D01*
X103568500Y-77648250D01*
X103314500Y-77648250D01*
X103155750Y-77489500D01*
X102840190Y-77489500D01*
X102606801Y-77586173D01*
X102428173Y-77764802D01*
X102331500Y-77998191D01*
X99985500Y-77998191D01*
X99985500Y-76899159D01*
X102874946Y-76899159D01*
X102961352Y-77155643D01*
X103534836Y-77365458D01*
X104144960Y-77339839D01*
X104589648Y-77155643D01*
X104676054Y-76899159D01*
X103775500Y-75998605D01*
X102874946Y-76899159D01*
X99985500Y-76899159D01*
X99985500Y-75578336D01*
X102229042Y-75578336D01*
X102254661Y-76188460D01*
X102438857Y-76633148D01*
X102695341Y-76719554D01*
X103595895Y-75819000D01*
X102695341Y-74918446D01*
X102438857Y-75004852D01*
X102229042Y-75578336D01*
X99985500Y-75578336D01*
X99985500Y-74738841D01*
X102874946Y-74738841D01*
X103775500Y-75639395D01*
X104676054Y-74738841D01*
X104589648Y-74482357D01*
X104016164Y-74272542D01*
X103406040Y-74298161D01*
X102961352Y-74482357D01*
X102874946Y-74738841D01*
X99985500Y-74738841D01*
X99985500Y-70655453D01*
X100382892Y-71052845D01*
X101351366Y-71454000D01*
X102399634Y-71454000D01*
X103368108Y-71052845D01*
X104109345Y-70311608D01*
X104510500Y-69343134D01*
X104510500Y-68294866D01*
X108040500Y-68294866D01*
X108040500Y-69343134D01*
X108441655Y-70311608D01*
X109182892Y-71052845D01*
X110151366Y-71454000D01*
X111199634Y-71454000D01*
X112168108Y-71052845D01*
X112909345Y-70311608D01*
X113310500Y-69343134D01*
X113310500Y-68294866D01*
X112909345Y-67326392D01*
X112168108Y-66585155D01*
X111199634Y-66184000D01*
X110151366Y-66184000D01*
X109182892Y-66585155D01*
X108441655Y-67326392D01*
X108040500Y-68294866D01*
X104510500Y-68294866D01*
X104109345Y-67326392D01*
X103368108Y-66585155D01*
X102399634Y-66184000D01*
X101351366Y-66184000D01*
X100382892Y-66585155D01*
X99985500Y-66982547D01*
X99985500Y-61370554D01*
X100087317Y-61587358D01*
X100515576Y-61977645D01*
X100925610Y-62147476D01*
X101155500Y-62026155D01*
X101155500Y-60833000D01*
X101135500Y-60833000D01*
X101135500Y-60579000D01*
X101155500Y-60579000D01*
X101155500Y-59385845D01*
X101409500Y-59385845D01*
X101409500Y-60579000D01*
X101429500Y-60579000D01*
X101429500Y-60833000D01*
X101409500Y-60833000D01*
X101409500Y-62026155D01*
X101639390Y-62147476D01*
X102049424Y-61977645D01*
X102353761Y-61700292D01*
X102374343Y-61803765D01*
X102514691Y-62013809D01*
X102724735Y-62154157D01*
X102972500Y-62203440D01*
X104672500Y-62203440D01*
X104920265Y-62154157D01*
X105130309Y-62013809D01*
X105270657Y-61803765D01*
X105319940Y-61556000D01*
X105319940Y-61466000D01*
X107901699Y-61466000D01*
X108274560Y-61838862D01*
X108274560Y-62105250D01*
X108340495Y-62436727D01*
X108528261Y-62717739D01*
X108809273Y-62905505D01*
X109140750Y-62971440D01*
X109578250Y-62971440D01*
X109909727Y-62905505D01*
X110072031Y-62797057D01*
X110137302Y-62862327D01*
X110370691Y-62959000D01*
X110648750Y-62959000D01*
X110807500Y-62800250D01*
X110807500Y-61976000D01*
X111061500Y-61976000D01*
X111061500Y-62800250D01*
X111220250Y-62959000D01*
X111498309Y-62959000D01*
X111731698Y-62862327D01*
X111910327Y-62683699D01*
X112007000Y-62450310D01*
X112007000Y-62134750D01*
X111848250Y-61976000D01*
X111061500Y-61976000D01*
X110807500Y-61976000D01*
X110787500Y-61976000D01*
X110787500Y-61722000D01*
X110807500Y-61722000D01*
X110807500Y-60897750D01*
X111061500Y-60897750D01*
X111061500Y-61722000D01*
X111848250Y-61722000D01*
X112007000Y-61563250D01*
X112007000Y-61247690D01*
X111910327Y-61014301D01*
X111731698Y-60835673D01*
X111498309Y-60739000D01*
X111220250Y-60739000D01*
X111061500Y-60897750D01*
X110807500Y-60897750D01*
X110724890Y-60815140D01*
X110868309Y-60719309D01*
X111008657Y-60509265D01*
X111057940Y-60261500D01*
X111057940Y-58356500D01*
X111008657Y-58108735D01*
X110868309Y-57898691D01*
X110663357Y-57761745D01*
X110786473Y-57635924D01*
X111001063Y-57141980D01*
X110881094Y-56896000D01*
X109537500Y-56896000D01*
X109537500Y-56916000D01*
X109283500Y-56916000D01*
X109283500Y-56896000D01*
X107939906Y-56896000D01*
X107819937Y-57141980D01*
X108034527Y-57635924D01*
X108157643Y-57761745D01*
X107952691Y-57898691D01*
X107812343Y-58108735D01*
X107763060Y-58356500D01*
X107763060Y-59946000D01*
X105319940Y-59946000D01*
X105319940Y-59856000D01*
X105270657Y-59608235D01*
X105130309Y-59398191D01*
X104920265Y-59257843D01*
X104672500Y-59208560D01*
X102972500Y-59208560D01*
X102724735Y-59257843D01*
X102514691Y-59398191D01*
X102374343Y-59608235D01*
X102353761Y-59711708D01*
X102049424Y-59434355D01*
X101639390Y-59264524D01*
X101409500Y-59385845D01*
X101155500Y-59385845D01*
X100925610Y-59264524D01*
X100515576Y-59434355D01*
X100087317Y-59824642D01*
X99985500Y-60041446D01*
X99985500Y-56390898D01*
X100294707Y-56390898D01*
X100359622Y-56629253D01*
X100869646Y-56809812D01*
X101409944Y-56781449D01*
X101777378Y-56629253D01*
X101842293Y-56390898D01*
X105294707Y-56390898D01*
X105359622Y-56629253D01*
X105869646Y-56809812D01*
X106409944Y-56781449D01*
X106777378Y-56629253D01*
X106842293Y-56390898D01*
X106068500Y-55617105D01*
X105294707Y-56390898D01*
X101842293Y-56390898D01*
X101068500Y-55617105D01*
X100294707Y-56390898D01*
X99985500Y-56390898D01*
X99985500Y-56175996D01*
X100115102Y-56211293D01*
X100888895Y-55437500D01*
X101248105Y-55437500D01*
X102021898Y-56211293D01*
X102260253Y-56146378D01*
X102440812Y-55636354D01*
X102419935Y-55238646D01*
X104696188Y-55238646D01*
X104724551Y-55778944D01*
X104876747Y-56146378D01*
X105115102Y-56211293D01*
X105888895Y-55437500D01*
X106248105Y-55437500D01*
X107021898Y-56211293D01*
X107260253Y-56146378D01*
X107440812Y-55636354D01*
X107412449Y-55096056D01*
X107260253Y-54728622D01*
X107021898Y-54663707D01*
X106248105Y-55437500D01*
X105888895Y-55437500D01*
X105115102Y-54663707D01*
X104876747Y-54728622D01*
X104696188Y-55238646D01*
X102419935Y-55238646D01*
X102412449Y-55096056D01*
X102260253Y-54728622D01*
X102021898Y-54663707D01*
X101248105Y-55437500D01*
X100888895Y-55437500D01*
X100115102Y-54663707D01*
X99985500Y-54699004D01*
X99985500Y-52864500D01*
X100195500Y-52864500D01*
X100195500Y-54156231D01*
X100355488Y-54260924D01*
X100294707Y-54484102D01*
X101068500Y-55257895D01*
X101842293Y-54484102D01*
X105294707Y-54484102D01*
X106068500Y-55257895D01*
X106842293Y-54484102D01*
X106781512Y-54260924D01*
X106941500Y-54156231D01*
X106941500Y-52864500D01*
X105833500Y-52864500D01*
X105833500Y-53214500D01*
X105976110Y-53677447D01*
X106285026Y-54050580D01*
X106404268Y-54113658D01*
X106267354Y-54065188D01*
X105727056Y-54093551D01*
X105359622Y-54245747D01*
X105294707Y-54484102D01*
X101842293Y-54484102D01*
X101777378Y-54245747D01*
X101267354Y-54065188D01*
X100775555Y-54091005D01*
X100851974Y-54050580D01*
X101160890Y-53677447D01*
X101303500Y-53214500D01*
X101303500Y-52864500D01*
X100195500Y-52864500D01*
X99985500Y-52864500D01*
X99985500Y-52590500D01*
X100195500Y-52590500D01*
X100195500Y-52610500D01*
X101303500Y-52610500D01*
X101303500Y-52260500D01*
X101160890Y-51797553D01*
X100851974Y-51424420D01*
X100423781Y-51197908D01*
X100386109Y-51194038D01*
X100195502Y-51318768D01*
X100195502Y-51154000D01*
X106941498Y-51154000D01*
X106941498Y-51318768D01*
X106941498Y-51318768D01*
G37*
X106941498Y-51318768D02*
X106750891Y-51194038D01*
X106713219Y-51197908D01*
X106285026Y-51424420D01*
X105976110Y-51797553D01*
X105833500Y-52260500D01*
X105833500Y-52610500D01*
X106941500Y-52610500D01*
X106941500Y-52590500D01*
X107195500Y-52590500D01*
X107195500Y-52610500D01*
X108291717Y-52610500D01*
X108440191Y-52672000D01*
X108647248Y-52672000D01*
X108635612Y-52730500D01*
X108648825Y-52796928D01*
X108303500Y-53027667D01*
X108303500Y-52864500D01*
X107195500Y-52864500D01*
X107195500Y-54156231D01*
X107386109Y-54280962D01*
X107423781Y-54277092D01*
X107771413Y-54093196D01*
X107744400Y-54229000D01*
X107867609Y-54848411D01*
X108218477Y-55373523D01*
X108419974Y-55508159D01*
X108034527Y-55902076D01*
X107819937Y-56396020D01*
X107939906Y-56642000D01*
X109283500Y-56642000D01*
X109283500Y-56622000D01*
X109537500Y-56622000D01*
X109537500Y-56642000D01*
X110881094Y-56642000D01*
X111001063Y-56396020D01*
X110786473Y-55902076D01*
X110401026Y-55508159D01*
X110602523Y-55373523D01*
X110859453Y-54989000D01*
X112118199Y-54989000D01*
X119071044Y-61941846D01*
X118386873Y-61941846D01*
X117694056Y-62228820D01*
X117163797Y-62759079D01*
X116876823Y-63451896D01*
X116876823Y-64201796D01*
X117163797Y-64894613D01*
X117694056Y-65424872D01*
X118386873Y-65711846D01*
X119136773Y-65711846D01*
X119829590Y-65424872D01*
X120359849Y-64894613D01*
X120646823Y-64201796D01*
X120646823Y-63517626D01*
X121623060Y-64493863D01*
X121623060Y-64760250D01*
X121688995Y-65091727D01*
X121876761Y-65372739D01*
X122157773Y-65560505D01*
X122489250Y-65626440D01*
X123001750Y-65626440D01*
X123333227Y-65560505D01*
X123614239Y-65372739D01*
X123802005Y-65091727D01*
X123867940Y-64760250D01*
X123867940Y-64493862D01*
X125117803Y-63244000D01*
X127544161Y-63244000D01*
X127591761Y-63315239D01*
X127839344Y-63480669D01*
X127392733Y-63665661D01*
X126862474Y-64195920D01*
X126575500Y-64888737D01*
X126575500Y-65638637D01*
X126862474Y-66331454D01*
X126887501Y-66356481D01*
X126887501Y-66774660D01*
X126816261Y-66822261D01*
X126628495Y-67103273D01*
X126562560Y-67434750D01*
X126562560Y-67947250D01*
X126628495Y-68278727D01*
X126816261Y-68559739D01*
X127097273Y-68747505D01*
X127428750Y-68813440D01*
X127866250Y-68813440D01*
X128197727Y-68747505D01*
X128360031Y-68639057D01*
X128425302Y-68704327D01*
X128658691Y-68801000D01*
X128923941Y-68801000D01*
X128886171Y-68857527D01*
X128403699Y-69340000D01*
X126077785Y-69340000D01*
X125983265Y-69276843D01*
X125735500Y-69227560D01*
X123985500Y-69227560D01*
X123737735Y-69276843D01*
X123527691Y-69417191D01*
X123387343Y-69627235D01*
X123338060Y-69875000D01*
X123338060Y-70030001D01*
X119027707Y-70030001D01*
X119209982Y-69589950D01*
X119209982Y-68840050D01*
X118923008Y-68147233D01*
X118392749Y-67616974D01*
X117699932Y-67330000D01*
X116950032Y-67330000D01*
X116257215Y-67616974D01*
X115726956Y-68147233D01*
X115439982Y-68840050D01*
X115439982Y-69589950D01*
X115726956Y-70282767D01*
X115815443Y-70371254D01*
X110310500Y-75876199D01*
X110310500Y-75513670D01*
X110076810Y-74949493D01*
X109645007Y-74517690D01*
X109080830Y-74284000D01*
X108470170Y-74284000D01*
X107905993Y-74517690D01*
X107525500Y-74898183D01*
X107145007Y-74517690D01*
X106580830Y-74284000D01*
X105970170Y-74284000D01*
X105405993Y-74517690D01*
X104974190Y-74949493D01*
X104970961Y-74957290D01*
X104855659Y-74918446D01*
X103955105Y-75819000D01*
X104855659Y-76719554D01*
X104970961Y-76680710D01*
X104974190Y-76688507D01*
X105405993Y-77120310D01*
X105970170Y-77354000D01*
X106580830Y-77354000D01*
X106690338Y-77308640D01*
X106745501Y-77363803D01*
X106745501Y-79100506D01*
X106679037Y-79056096D01*
X106457352Y-79012000D01*
X106457347Y-79012000D01*
X106382500Y-78997112D01*
X106314189Y-79010700D01*
X106132500Y-78974560D01*
X104732500Y-78974560D01*
X104551500Y-79010563D01*
X104551500Y-78847750D01*
X104392750Y-78689000D01*
X103568500Y-78689000D01*
X103568500Y-78709000D01*
X103314500Y-78709000D01*
X103314500Y-78689000D01*
X102490250Y-78689000D01*
X102331500Y-78847750D01*
X102331500Y-79125809D01*
X102428173Y-79359198D01*
X102493443Y-79424469D01*
X102384995Y-79586773D01*
X102319060Y-79918250D01*
X102319060Y-80355750D01*
X102356280Y-80542868D01*
X102250374Y-80499000D01*
X102140266Y-80499000D01*
X102155500Y-80462222D01*
X102155500Y-79811778D01*
X101906586Y-79210847D01*
X101446653Y-78750914D01*
X100845722Y-78502000D01*
X100195278Y-78502000D01*
X99985500Y-78588893D01*
X99985500Y-77998191D01*
X102331500Y-77998191D01*
X102331500Y-78276250D01*
X102490250Y-78435000D01*
X103314500Y-78435000D01*
X103314500Y-77648250D01*
X103568500Y-77648250D01*
X103568500Y-78435000D01*
X104392750Y-78435000D01*
X104551500Y-78276250D01*
X104551500Y-77998191D01*
X104454827Y-77764802D01*
X104276199Y-77586173D01*
X104042810Y-77489500D01*
X103727250Y-77489500D01*
X103568500Y-77648250D01*
X103314500Y-77648250D01*
X103155750Y-77489500D01*
X102840190Y-77489500D01*
X102606801Y-77586173D01*
X102428173Y-77764802D01*
X102331500Y-77998191D01*
X99985500Y-77998191D01*
X99985500Y-76899159D01*
X102874946Y-76899159D01*
X102961352Y-77155643D01*
X103534836Y-77365458D01*
X104144960Y-77339839D01*
X104589648Y-77155643D01*
X104676054Y-76899159D01*
X103775500Y-75998605D01*
X102874946Y-76899159D01*
X99985500Y-76899159D01*
X99985500Y-75578336D01*
X102229042Y-75578336D01*
X102254661Y-76188460D01*
X102438857Y-76633148D01*
X102695341Y-76719554D01*
X103595895Y-75819000D01*
X102695341Y-74918446D01*
X102438857Y-75004852D01*
X102229042Y-75578336D01*
X99985500Y-75578336D01*
X99985500Y-74738841D01*
X102874946Y-74738841D01*
X103775500Y-75639395D01*
X104676054Y-74738841D01*
X104589648Y-74482357D01*
X104016164Y-74272542D01*
X103406040Y-74298161D01*
X102961352Y-74482357D01*
X102874946Y-74738841D01*
X99985500Y-74738841D01*
X99985500Y-70655453D01*
X100382892Y-71052845D01*
X101351366Y-71454000D01*
X102399634Y-71454000D01*
X103368108Y-71052845D01*
X104109345Y-70311608D01*
X104510500Y-69343134D01*
X104510500Y-68294866D01*
X108040500Y-68294866D01*
X108040500Y-69343134D01*
X108441655Y-70311608D01*
X109182892Y-71052845D01*
X110151366Y-71454000D01*
X111199634Y-71454000D01*
X112168108Y-71052845D01*
X112909345Y-70311608D01*
X113310500Y-69343134D01*
X113310500Y-68294866D01*
X112909345Y-67326392D01*
X112168108Y-66585155D01*
X111199634Y-66184000D01*
X110151366Y-66184000D01*
X109182892Y-66585155D01*
X108441655Y-67326392D01*
X108040500Y-68294866D01*
X104510500Y-68294866D01*
X104109345Y-67326392D01*
X103368108Y-66585155D01*
X102399634Y-66184000D01*
X101351366Y-66184000D01*
X100382892Y-66585155D01*
X99985500Y-66982547D01*
X99985500Y-61370554D01*
X100087317Y-61587358D01*
X100515576Y-61977645D01*
X100925610Y-62147476D01*
X101155500Y-62026155D01*
X101155500Y-60833000D01*
X101135500Y-60833000D01*
X101135500Y-60579000D01*
X101155500Y-60579000D01*
X101155500Y-59385845D01*
X101409500Y-59385845D01*
X101409500Y-60579000D01*
X101429500Y-60579000D01*
X101429500Y-60833000D01*
X101409500Y-60833000D01*
X101409500Y-62026155D01*
X101639390Y-62147476D01*
X102049424Y-61977645D01*
X102353761Y-61700292D01*
X102374343Y-61803765D01*
X102514691Y-62013809D01*
X102724735Y-62154157D01*
X102972500Y-62203440D01*
X104672500Y-62203440D01*
X104920265Y-62154157D01*
X105130309Y-62013809D01*
X105270657Y-61803765D01*
X105319940Y-61556000D01*
X105319940Y-61466000D01*
X107901699Y-61466000D01*
X108274560Y-61838862D01*
X108274560Y-62105250D01*
X108340495Y-62436727D01*
X108528261Y-62717739D01*
X108809273Y-62905505D01*
X109140750Y-62971440D01*
X109578250Y-62971440D01*
X109909727Y-62905505D01*
X110072031Y-62797057D01*
X110137302Y-62862327D01*
X110370691Y-62959000D01*
X110648750Y-62959000D01*
X110807500Y-62800250D01*
X110807500Y-61976000D01*
X111061500Y-61976000D01*
X111061500Y-62800250D01*
X111220250Y-62959000D01*
X111498309Y-62959000D01*
X111731698Y-62862327D01*
X111910327Y-62683699D01*
X112007000Y-62450310D01*
X112007000Y-62134750D01*
X111848250Y-61976000D01*
X111061500Y-61976000D01*
X110807500Y-61976000D01*
X110787500Y-61976000D01*
X110787500Y-61722000D01*
X110807500Y-61722000D01*
X110807500Y-60897750D01*
X111061500Y-60897750D01*
X111061500Y-61722000D01*
X111848250Y-61722000D01*
X112007000Y-61563250D01*
X112007000Y-61247690D01*
X111910327Y-61014301D01*
X111731698Y-60835673D01*
X111498309Y-60739000D01*
X111220250Y-60739000D01*
X111061500Y-60897750D01*
X110807500Y-60897750D01*
X110724890Y-60815140D01*
X110868309Y-60719309D01*
X111008657Y-60509265D01*
X111057940Y-60261500D01*
X111057940Y-58356500D01*
X111008657Y-58108735D01*
X110868309Y-57898691D01*
X110663357Y-57761745D01*
X110786473Y-57635924D01*
X111001063Y-57141980D01*
X110881094Y-56896000D01*
X109537500Y-56896000D01*
X109537500Y-56916000D01*
X109283500Y-56916000D01*
X109283500Y-56896000D01*
X107939906Y-56896000D01*
X107819937Y-57141980D01*
X108034527Y-57635924D01*
X108157643Y-57761745D01*
X107952691Y-57898691D01*
X107812343Y-58108735D01*
X107763060Y-58356500D01*
X107763060Y-59946000D01*
X105319940Y-59946000D01*
X105319940Y-59856000D01*
X105270657Y-59608235D01*
X105130309Y-59398191D01*
X104920265Y-59257843D01*
X104672500Y-59208560D01*
X102972500Y-59208560D01*
X102724735Y-59257843D01*
X102514691Y-59398191D01*
X102374343Y-59608235D01*
X102353761Y-59711708D01*
X102049424Y-59434355D01*
X101639390Y-59264524D01*
X101409500Y-59385845D01*
X101155500Y-59385845D01*
X100925610Y-59264524D01*
X100515576Y-59434355D01*
X100087317Y-59824642D01*
X99985500Y-60041446D01*
X99985500Y-56390898D01*
X100294707Y-56390898D01*
X100359622Y-56629253D01*
X100869646Y-56809812D01*
X101409944Y-56781449D01*
X101777378Y-56629253D01*
X101842293Y-56390898D01*
X105294707Y-56390898D01*
X105359622Y-56629253D01*
X105869646Y-56809812D01*
X106409944Y-56781449D01*
X106777378Y-56629253D01*
X106842293Y-56390898D01*
X106068500Y-55617105D01*
X105294707Y-56390898D01*
X101842293Y-56390898D01*
X101068500Y-55617105D01*
X100294707Y-56390898D01*
X99985500Y-56390898D01*
X99985500Y-56175996D01*
X100115102Y-56211293D01*
X100888895Y-55437500D01*
X101248105Y-55437500D01*
X102021898Y-56211293D01*
X102260253Y-56146378D01*
X102440812Y-55636354D01*
X102419935Y-55238646D01*
X104696188Y-55238646D01*
X104724551Y-55778944D01*
X104876747Y-56146378D01*
X105115102Y-56211293D01*
X105888895Y-55437500D01*
X106248105Y-55437500D01*
X107021898Y-56211293D01*
X107260253Y-56146378D01*
X107440812Y-55636354D01*
X107412449Y-55096056D01*
X107260253Y-54728622D01*
X107021898Y-54663707D01*
X106248105Y-55437500D01*
X105888895Y-55437500D01*
X105115102Y-54663707D01*
X104876747Y-54728622D01*
X104696188Y-55238646D01*
X102419935Y-55238646D01*
X102412449Y-55096056D01*
X102260253Y-54728622D01*
X102021898Y-54663707D01*
X101248105Y-55437500D01*
X100888895Y-55437500D01*
X100115102Y-54663707D01*
X99985500Y-54699004D01*
X99985500Y-52864500D01*
X100195500Y-52864500D01*
X100195500Y-54156231D01*
X100355488Y-54260924D01*
X100294707Y-54484102D01*
X101068500Y-55257895D01*
X101842293Y-54484102D01*
X105294707Y-54484102D01*
X106068500Y-55257895D01*
X106842293Y-54484102D01*
X106781512Y-54260924D01*
X106941500Y-54156231D01*
X106941500Y-52864500D01*
X105833500Y-52864500D01*
X105833500Y-53214500D01*
X105976110Y-53677447D01*
X106285026Y-54050580D01*
X106404268Y-54113658D01*
X106267354Y-54065188D01*
X105727056Y-54093551D01*
X105359622Y-54245747D01*
X105294707Y-54484102D01*
X101842293Y-54484102D01*
X101777378Y-54245747D01*
X101267354Y-54065188D01*
X100775555Y-54091005D01*
X100851974Y-54050580D01*
X101160890Y-53677447D01*
X101303500Y-53214500D01*
X101303500Y-52864500D01*
X100195500Y-52864500D01*
X99985500Y-52864500D01*
X99985500Y-52590500D01*
X100195500Y-52590500D01*
X100195500Y-52610500D01*
X101303500Y-52610500D01*
X101303500Y-52260500D01*
X101160890Y-51797553D01*
X100851974Y-51424420D01*
X100423781Y-51197908D01*
X100386109Y-51194038D01*
X100195502Y-51318768D01*
X100195502Y-51154000D01*
X106941498Y-51154000D01*
X106941498Y-51318768D01*
G36*
X132187500Y-76651250D02*
X132227974Y-76691724D01*
X130871530Y-78048169D01*
X130808071Y-78090571D01*
X130640096Y-78341964D01*
X130630822Y-78388589D01*
X130561667Y-78221634D01*
X131230973Y-77552329D01*
X131294429Y-77509929D01*
X131462404Y-77258537D01*
X131506500Y-77036852D01*
X131506500Y-77036848D01*
X131521388Y-76962001D01*
X131506500Y-76887154D01*
X131506500Y-76810000D01*
X131774750Y-76810000D01*
X131933500Y-76651250D01*
X131933500Y-76172440D01*
X132187500Y-76172440D01*
X132187500Y-76651250D01*
X132187500Y-76651250D01*
G37*
X132187500Y-76651250D02*
X132227974Y-76691724D01*
X130871530Y-78048169D01*
X130808071Y-78090571D01*
X130640096Y-78341964D01*
X130630822Y-78388589D01*
X130561667Y-78221634D01*
X131230973Y-77552329D01*
X131294429Y-77509929D01*
X131462404Y-77258537D01*
X131506500Y-77036852D01*
X131506500Y-77036848D01*
X131521388Y-76962001D01*
X131506500Y-76887154D01*
X131506500Y-76810000D01*
X131774750Y-76810000D01*
X131933500Y-76651250D01*
X131933500Y-76172440D01*
X132187500Y-76172440D01*
X132187500Y-76651250D01*
G36*
X158230501Y-59318049D02*
X158104309Y-59129191D01*
X157894265Y-58988843D01*
X157646500Y-58939560D01*
X154646500Y-58939560D01*
X154398735Y-58988843D01*
X154188691Y-59129191D01*
X154048343Y-59339235D01*
X153999060Y-59587000D01*
X153999060Y-62587000D01*
X154048343Y-62834765D01*
X154188691Y-63044809D01*
X154398735Y-63185157D01*
X154646500Y-63234440D01*
X157646500Y-63234440D01*
X157894265Y-63185157D01*
X158104309Y-63044809D01*
X158230501Y-62855951D01*
X158230500Y-74304048D01*
X158104309Y-74115191D01*
X157894265Y-73974843D01*
X157646500Y-73925560D01*
X154646500Y-73925560D01*
X154398735Y-73974843D01*
X154188691Y-74115191D01*
X154167501Y-74146904D01*
X154167501Y-65560854D01*
X154182389Y-65486007D01*
X154167501Y-65411160D01*
X154167501Y-65411155D01*
X154123405Y-65189470D01*
X153955430Y-64938078D01*
X153891974Y-64895678D01*
X152392315Y-63396020D01*
X152349913Y-63332561D01*
X152098521Y-63164586D01*
X151876836Y-63120490D01*
X151876831Y-63120490D01*
X151801984Y-63105602D01*
X151727137Y-63120490D01*
X150302500Y-63120490D01*
X150302500Y-53948440D01*
X150519500Y-53948440D01*
X150767265Y-53899157D01*
X150977309Y-53758809D01*
X151117657Y-53548765D01*
X151166940Y-53301000D01*
X151166940Y-51601000D01*
X151117657Y-51353235D01*
X150984531Y-51154000D01*
X158230501Y-51154000D01*
X158230501Y-59318049D01*
X158230501Y-59318049D01*
G37*
X158230501Y-59318049D02*
X158104309Y-59129191D01*
X157894265Y-58988843D01*
X157646500Y-58939560D01*
X154646500Y-58939560D01*
X154398735Y-58988843D01*
X154188691Y-59129191D01*
X154048343Y-59339235D01*
X153999060Y-59587000D01*
X153999060Y-62587000D01*
X154048343Y-62834765D01*
X154188691Y-63044809D01*
X154398735Y-63185157D01*
X154646500Y-63234440D01*
X157646500Y-63234440D01*
X157894265Y-63185157D01*
X158104309Y-63044809D01*
X158230501Y-62855951D01*
X158230500Y-74304048D01*
X158104309Y-74115191D01*
X157894265Y-73974843D01*
X157646500Y-73925560D01*
X154646500Y-73925560D01*
X154398735Y-73974843D01*
X154188691Y-74115191D01*
X154167501Y-74146904D01*
X154167501Y-65560854D01*
X154182389Y-65486007D01*
X154167501Y-65411160D01*
X154167501Y-65411155D01*
X154123405Y-65189470D01*
X153955430Y-64938078D01*
X153891974Y-64895678D01*
X152392315Y-63396020D01*
X152349913Y-63332561D01*
X152098521Y-63164586D01*
X151876836Y-63120490D01*
X151876831Y-63120490D01*
X151801984Y-63105602D01*
X151727137Y-63120490D01*
X150302500Y-63120490D01*
X150302500Y-53948440D01*
X150519500Y-53948440D01*
X150767265Y-53899157D01*
X150977309Y-53758809D01*
X151117657Y-53548765D01*
X151166940Y-53301000D01*
X151166940Y-51601000D01*
X151117657Y-51353235D01*
X150984531Y-51154000D01*
X158230501Y-51154000D01*
X158230501Y-59318049D01*
G36*
X152647501Y-65800809D02*
X152647501Y-67172718D01*
X152347039Y-67061092D01*
X152161209Y-67067968D01*
X152189239Y-67049239D01*
X152377005Y-66768227D01*
X152442940Y-66436750D01*
X152442940Y-65999250D01*
X152377005Y-65667773D01*
X152268557Y-65505469D01*
X152310359Y-65463666D01*
X152647501Y-65800809D01*
X152647501Y-65800809D01*
G37*
X152647501Y-65800809D02*
X152647501Y-67172718D01*
X152347039Y-67061092D01*
X152161209Y-67067968D01*
X152189239Y-67049239D01*
X152377005Y-66768227D01*
X152442940Y-66436750D01*
X152442940Y-65999250D01*
X152377005Y-65667773D01*
X152268557Y-65505469D01*
X152310359Y-65463666D01*
X152647501Y-65800809D01*
G36*
X151467500Y-64770000D02*
X151447500Y-64770000D01*
X151447500Y-64790000D01*
X151193500Y-64790000D01*
X151193500Y-64770000D01*
X151173500Y-64770000D01*
X151173500Y-64640490D01*
X151467500Y-64640490D01*
X151467500Y-64770000D01*
X151467500Y-64770000D01*
G37*
X151467500Y-64770000D02*
X151447500Y-64770000D01*
X151447500Y-64790000D01*
X151193500Y-64790000D01*
X151193500Y-64770000D01*
X151173500Y-64770000D01*
X151173500Y-64640490D01*
X151467500Y-64640490D01*
X151467500Y-64770000D01*
G36*
X148221343Y-51353235D02*
X148172060Y-51601000D01*
X148172060Y-53301000D01*
X148221343Y-53548765D01*
X148361691Y-53758809D01*
X148571735Y-53899157D01*
X148782501Y-53941080D01*
X148782500Y-63688104D01*
X148673761Y-63760761D01*
X148626161Y-63832000D01*
X147918839Y-63832000D01*
X147871239Y-63760761D01*
X147590227Y-63572995D01*
X147258750Y-63507060D01*
X146992362Y-63507060D01*
X145865831Y-62380530D01*
X145823429Y-62317071D01*
X145572037Y-62149096D01*
X145350352Y-62105000D01*
X145350347Y-62105000D01*
X145275500Y-62090112D01*
X145200653Y-62105000D01*
X145085940Y-62105000D01*
X145085940Y-59333000D01*
X145036657Y-59085235D01*
X144896309Y-58875191D01*
X144686265Y-58734843D01*
X144438500Y-58685560D01*
X141438500Y-58685560D01*
X141190735Y-58734843D01*
X140980691Y-58875191D01*
X140840343Y-59085235D01*
X140791060Y-59333000D01*
X140791060Y-62333000D01*
X140840343Y-62580765D01*
X140980691Y-62790809D01*
X141190735Y-62931157D01*
X141438500Y-62980440D01*
X142764258Y-62980440D01*
X141462062Y-64282637D01*
X139861902Y-64282637D01*
X140044177Y-63842586D01*
X140044177Y-63092686D01*
X139757203Y-62399869D01*
X139226944Y-61869610D01*
X138534127Y-61582636D01*
X137784227Y-61582636D01*
X137091410Y-61869610D01*
X136561151Y-62399869D01*
X136274177Y-63092686D01*
X136274177Y-63842586D01*
X136456452Y-64282637D01*
X134916940Y-64282637D01*
X134916940Y-64170250D01*
X134851005Y-63838773D01*
X134692464Y-63601500D01*
X134851005Y-63364227D01*
X134916940Y-63032750D01*
X134916940Y-62595250D01*
X134851005Y-62263773D01*
X134663239Y-61982761D01*
X134554500Y-61910104D01*
X134554500Y-61264261D01*
X134916421Y-61114349D01*
X135446680Y-60584090D01*
X135733654Y-59891273D01*
X135733654Y-59141373D01*
X135446680Y-58448556D01*
X134916421Y-57918297D01*
X134223604Y-57631323D01*
X133473704Y-57631323D01*
X132780887Y-57918297D01*
X132250628Y-58448556D01*
X131963654Y-59141373D01*
X131963654Y-59891273D01*
X132250628Y-60584090D01*
X132780887Y-61114349D01*
X133034500Y-61219399D01*
X133034500Y-61910104D01*
X132925761Y-61982761D01*
X132740430Y-62260129D01*
X132479831Y-61999530D01*
X132437429Y-61936071D01*
X132186037Y-61768096D01*
X131964352Y-61724000D01*
X131964347Y-61724000D01*
X131889500Y-61709112D01*
X131814653Y-61724000D01*
X129376839Y-61724000D01*
X129358464Y-61696500D01*
X129517005Y-61459227D01*
X129582940Y-61127750D01*
X129582940Y-60690250D01*
X129517005Y-60358773D01*
X129329239Y-60077761D01*
X129220500Y-60005104D01*
X129220500Y-59804989D01*
X129528267Y-59677508D01*
X130058526Y-59147249D01*
X130345500Y-58454432D01*
X130345500Y-57704532D01*
X130058526Y-57011715D01*
X129528267Y-56481456D01*
X128835450Y-56194482D01*
X128085550Y-56194482D01*
X127392733Y-56481456D01*
X126862474Y-57011715D01*
X126575500Y-57704532D01*
X126575500Y-58454432D01*
X126862474Y-59147249D01*
X127392733Y-59677508D01*
X127700500Y-59804989D01*
X127700500Y-60005104D01*
X127591761Y-60077761D01*
X127403995Y-60358773D01*
X127338060Y-60690250D01*
X127338060Y-61127750D01*
X127403995Y-61459227D01*
X127562536Y-61696500D01*
X127544161Y-61724000D01*
X124877846Y-61724000D01*
X124802999Y-61709112D01*
X124728152Y-61724000D01*
X124728148Y-61724000D01*
X124506463Y-61768096D01*
X124506461Y-61768097D01*
X124506462Y-61768097D01*
X124318526Y-61893671D01*
X124318524Y-61893673D01*
X124255071Y-61936071D01*
X124212673Y-61999524D01*
X123799569Y-62412628D01*
X123614239Y-62135261D01*
X123505500Y-62062604D01*
X123505500Y-61228425D01*
X123780903Y-61114349D01*
X124311162Y-60584090D01*
X124598136Y-59891273D01*
X124598136Y-59141373D01*
X124311162Y-58448556D01*
X123780903Y-57918297D01*
X123088086Y-57631323D01*
X122338186Y-57631323D01*
X121645369Y-57918297D01*
X121115110Y-58448556D01*
X120828136Y-59141373D01*
X120828136Y-59891273D01*
X121115110Y-60584090D01*
X121645369Y-61114349D01*
X121985501Y-61255236D01*
X121985500Y-62062604D01*
X121876761Y-62135261D01*
X121691431Y-62412628D01*
X113023331Y-53744530D01*
X112980929Y-53681071D01*
X112729537Y-53513096D01*
X112507852Y-53469000D01*
X112507847Y-53469000D01*
X112433000Y-53454112D01*
X112358153Y-53469000D01*
X110859453Y-53469000D01*
X110602523Y-53084477D01*
X110320060Y-52895741D01*
X110531361Y-52684440D01*
X110797750Y-52684440D01*
X111129227Y-52618505D01*
X111410239Y-52430739D01*
X111598005Y-52149727D01*
X111663940Y-51818250D01*
X111663940Y-51305750D01*
X111633755Y-51154000D01*
X148354469Y-51154000D01*
X148221343Y-51353235D01*
X148221343Y-51353235D01*
G37*
X148221343Y-51353235D02*
X148172060Y-51601000D01*
X148172060Y-53301000D01*
X148221343Y-53548765D01*
X148361691Y-53758809D01*
X148571735Y-53899157D01*
X148782501Y-53941080D01*
X148782500Y-63688104D01*
X148673761Y-63760761D01*
X148626161Y-63832000D01*
X147918839Y-63832000D01*
X147871239Y-63760761D01*
X147590227Y-63572995D01*
X147258750Y-63507060D01*
X146992362Y-63507060D01*
X145865831Y-62380530D01*
X145823429Y-62317071D01*
X145572037Y-62149096D01*
X145350352Y-62105000D01*
X145350347Y-62105000D01*
X145275500Y-62090112D01*
X145200653Y-62105000D01*
X145085940Y-62105000D01*
X145085940Y-59333000D01*
X145036657Y-59085235D01*
X144896309Y-58875191D01*
X144686265Y-58734843D01*
X144438500Y-58685560D01*
X141438500Y-58685560D01*
X141190735Y-58734843D01*
X140980691Y-58875191D01*
X140840343Y-59085235D01*
X140791060Y-59333000D01*
X140791060Y-62333000D01*
X140840343Y-62580765D01*
X140980691Y-62790809D01*
X141190735Y-62931157D01*
X141438500Y-62980440D01*
X142764258Y-62980440D01*
X141462062Y-64282637D01*
X139861902Y-64282637D01*
X140044177Y-63842586D01*
X140044177Y-63092686D01*
X139757203Y-62399869D01*
X139226944Y-61869610D01*
X138534127Y-61582636D01*
X137784227Y-61582636D01*
X137091410Y-61869610D01*
X136561151Y-62399869D01*
X136274177Y-63092686D01*
X136274177Y-63842586D01*
X136456452Y-64282637D01*
X134916940Y-64282637D01*
X134916940Y-64170250D01*
X134851005Y-63838773D01*
X134692464Y-63601500D01*
X134851005Y-63364227D01*
X134916940Y-63032750D01*
X134916940Y-62595250D01*
X134851005Y-62263773D01*
X134663239Y-61982761D01*
X134554500Y-61910104D01*
X134554500Y-61264261D01*
X134916421Y-61114349D01*
X135446680Y-60584090D01*
X135733654Y-59891273D01*
X135733654Y-59141373D01*
X135446680Y-58448556D01*
X134916421Y-57918297D01*
X134223604Y-57631323D01*
X133473704Y-57631323D01*
X132780887Y-57918297D01*
X132250628Y-58448556D01*
X131963654Y-59141373D01*
X131963654Y-59891273D01*
X132250628Y-60584090D01*
X132780887Y-61114349D01*
X133034500Y-61219399D01*
X133034500Y-61910104D01*
X132925761Y-61982761D01*
X132740430Y-62260129D01*
X132479831Y-61999530D01*
X132437429Y-61936071D01*
X132186037Y-61768096D01*
X131964352Y-61724000D01*
X131964347Y-61724000D01*
X131889500Y-61709112D01*
X131814653Y-61724000D01*
X129376839Y-61724000D01*
X129358464Y-61696500D01*
X129517005Y-61459227D01*
X129582940Y-61127750D01*
X129582940Y-60690250D01*
X129517005Y-60358773D01*
X129329239Y-60077761D01*
X129220500Y-60005104D01*
X129220500Y-59804989D01*
X129528267Y-59677508D01*
X130058526Y-59147249D01*
X130345500Y-58454432D01*
X130345500Y-57704532D01*
X130058526Y-57011715D01*
X129528267Y-56481456D01*
X128835450Y-56194482D01*
X128085550Y-56194482D01*
X127392733Y-56481456D01*
X126862474Y-57011715D01*
X126575500Y-57704532D01*
X126575500Y-58454432D01*
X126862474Y-59147249D01*
X127392733Y-59677508D01*
X127700500Y-59804989D01*
X127700500Y-60005104D01*
X127591761Y-60077761D01*
X127403995Y-60358773D01*
X127338060Y-60690250D01*
X127338060Y-61127750D01*
X127403995Y-61459227D01*
X127562536Y-61696500D01*
X127544161Y-61724000D01*
X124877846Y-61724000D01*
X124802999Y-61709112D01*
X124728152Y-61724000D01*
X124728148Y-61724000D01*
X124506463Y-61768096D01*
X124506461Y-61768097D01*
X124506462Y-61768097D01*
X124318526Y-61893671D01*
X124318524Y-61893673D01*
X124255071Y-61936071D01*
X124212673Y-61999524D01*
X123799569Y-62412628D01*
X123614239Y-62135261D01*
X123505500Y-62062604D01*
X123505500Y-61228425D01*
X123780903Y-61114349D01*
X124311162Y-60584090D01*
X124598136Y-59891273D01*
X124598136Y-59141373D01*
X124311162Y-58448556D01*
X123780903Y-57918297D01*
X123088086Y-57631323D01*
X122338186Y-57631323D01*
X121645369Y-57918297D01*
X121115110Y-58448556D01*
X120828136Y-59141373D01*
X120828136Y-59891273D01*
X121115110Y-60584090D01*
X121645369Y-61114349D01*
X121985501Y-61255236D01*
X121985500Y-62062604D01*
X121876761Y-62135261D01*
X121691431Y-62412628D01*
X113023331Y-53744530D01*
X112980929Y-53681071D01*
X112729537Y-53513096D01*
X112507852Y-53469000D01*
X112507847Y-53469000D01*
X112433000Y-53454112D01*
X112358153Y-53469000D01*
X110859453Y-53469000D01*
X110602523Y-53084477D01*
X110320060Y-52895741D01*
X110531361Y-52684440D01*
X110797750Y-52684440D01*
X111129227Y-52618505D01*
X111410239Y-52430739D01*
X111598005Y-52149727D01*
X111663940Y-51818250D01*
X111663940Y-51305750D01*
X111633755Y-51154000D01*
X148354469Y-51154000D01*
X148221343Y-51353235D01*
G36*
X109131000Y-51435000D02*
X109151000Y-51435000D01*
X109151000Y-51689000D01*
X109131000Y-51689000D01*
X109131000Y-51709000D01*
X108877000Y-51709000D01*
X108877000Y-51689000D01*
X108857000Y-51689000D01*
X108857000Y-51435000D01*
X108877000Y-51435000D01*
X108877000Y-51415000D01*
X109131000Y-51415000D01*
X109131000Y-51435000D01*
X109131000Y-51435000D01*
G37*
X109131000Y-51435000D02*
X109151000Y-51435000D01*
X109151000Y-51689000D01*
X109131000Y-51689000D01*
X109131000Y-51709000D01*
X108877000Y-51709000D01*
X108877000Y-51689000D01*
X108857000Y-51689000D01*
X108857000Y-51435000D01*
X108877000Y-51435000D01*
X108877000Y-51415000D01*
X109131000Y-51415000D01*
X109131000Y-51435000D01*
G04 #@! TD*
M02*
