M48
;DRILL file {KiCad (5.0.2)-1} date 15/02/2019 13:53:31
;FORMAT={-:-/ absolute / inch / decimal}
FMAT,2
INCH,TZ
T1C0.0157
T2C0.0236
T3C0.0300
T4C0.0315
T5C0.0335
T6C0.0394
T7C0.0433
T8C0.0472
T9C0.0551
T10C0.0787
T11C0.0945
T12C0.0984
T13C0.0787
%
G90
G05
T1
X4.0175Y-3.21
X4.1925Y-3.095
X4.2325Y-3.39
X4.2575Y-3.54
X4.2925Y-3.41
X4.4125Y-3.255
X4.4425Y-3.065
X4.7225Y-2.865
X4.7325Y-3.
X4.7325Y-3.135
X4.7675Y-3.165
X4.8025Y-3.
X4.8075Y-2.875
X4.8325Y-2.92
X4.9125Y-3.205
X4.9375Y-3.06
X5.0025Y-2.945
X5.0725Y-3.065
X5.1025Y-3.095
X5.1125Y-2.925
X5.2025Y-3.14
X5.2675Y-2.955
X5.2825Y-2.855
X5.5725Y-3.195
X5.6575Y-2.535
X5.6575Y-3.135
X5.8125Y-2.275
X5.9825Y-3.4
X5.9875Y-2.275
X6.0025Y-3.08
T3
X3.205Y-4.575
X3.305Y-4.485
X3.305Y-4.975
X3.505Y-4.575
X3.705Y-4.485
X3.705Y-4.975
X3.805Y-4.575
X4.01Y-4.575
X4.11Y-4.485
X4.11Y-4.975
X4.31Y-4.575
X4.51Y-4.485
X4.51Y-4.975
X4.61Y-4.575
T4
X4.16Y-4.725
X4.46Y-4.725
X4.0075Y-3.6029
X4.0075Y-3.795
X3.355Y-4.725
X3.655Y-4.725
T5
X3.9791Y-2.1826
X4.1759Y-2.1826
T6
X4.5675Y-3.055
X4.5675Y-3.155
X4.5675Y-3.255
X4.5675Y-3.355
X4.5675Y-3.455
X5.7875Y-2.705
X5.8875Y-2.705
X5.9875Y-2.705
X3.7825Y-4.06
X3.3525Y-3.32
X3.4525Y-3.32
X3.5525Y-3.32
X3.6525Y-3.32
X3.3525Y-2.145
X3.4525Y-2.145
X3.5525Y-2.145
X3.6525Y-2.145
X3.2525Y-3.095
X3.3525Y-3.095
X3.4525Y-3.095
X3.5525Y-3.095
X3.6525Y-3.095
X3.7525Y-3.095
X3.2525Y-4.27
X3.3525Y-4.27
X3.4525Y-4.27
X3.5525Y-4.27
X3.6525Y-4.27
X3.7525Y-4.27
X3.3525Y-2.025
X3.4525Y-2.025
X3.5525Y-2.025
X3.6525Y-2.025
X5.1175Y-3.785
X5.1175Y-3.885
X5.1175Y-3.985
X5.1175Y-4.085
X5.7875Y-3.295
X5.8875Y-3.295
X5.9875Y-3.295
X3.5825Y-2.885
X3.5725Y-2.335
X3.5825Y-4.06
X5.8925Y-2.065
X4.1675Y-3.685
X4.1675Y-3.785
X4.1675Y-3.885
X4.1675Y-3.985
X4.1675Y-4.085
X4.1675Y-4.185
X3.3525Y-3.2
X3.4525Y-3.2
X3.5525Y-3.2
X3.6525Y-3.2
X3.355Y-4.405
X3.455Y-4.405
X3.555Y-4.405
X3.655Y-4.405
X4.16Y-4.405
X4.26Y-4.405
X4.36Y-4.405
X4.46Y-4.405
X3.5725Y-3.51
X4.0856Y-2.985
X4.1841Y-2.985
X4.2825Y-2.985
X3.9875Y-2.39
X4.0875Y-2.39
X3.7825Y-2.885
T7
X4.3075Y-2.135
X4.3075Y-2.235
X4.3075Y-2.335
T8
X3.9575Y-3.155
X3.9575Y-3.355
X4.4375Y-3.155
X4.4375Y-3.355
T9
X4.6191Y-2.725
X4.6757Y-2.5129
X4.6757Y-2.9371
X4.8312Y-2.3432
X4.8454Y-3.1068
X5.0575Y-2.2866
X5.0575Y-2.5694
X5.0575Y-3.1634
X5.2696Y-2.3432
X5.2767Y-3.0998
X5.4393Y-2.4987
X5.4393Y-2.9371
X5.503Y-2.7179
T11
X3.805Y-4.775
X4.61Y-4.775
T12
X3.195Y-4.775
X4.Y-4.775
T13
X4.0108Y-2.7094
X4.3573Y-2.7094
T2
X3.9397Y-2.0901G85X3.9397Y-2.0625
G05
X4.2153Y-2.0625G85X4.2153Y-2.0901
G05
T6
X3.5675Y-3.7703G85X3.5675Y-3.8097
G05
X3.6675Y-3.8703G85X3.6675Y-3.9097
G05
X3.7275Y-3.6703G85X3.7275Y-3.7097
G05
X3.8675Y-3.7703G85X3.8675Y-3.8097
G05
X3.1425Y-3.6047G85X3.1425Y-3.5653
G05
X3.2825Y-3.7047G85X3.2825Y-3.6653
G05
X3.3425Y-3.5047G85X3.3425Y-3.4653
G05
X3.4425Y-3.6047G85X3.4425Y-3.5653
G05
X3.1425Y-2.4297G85X3.1425Y-2.3903
G05
X3.2825Y-2.5297G85X3.2825Y-2.4903
G05
X3.3425Y-2.3297G85X3.3425Y-2.2903
G05
X3.4425Y-2.4297G85X3.4425Y-2.3903
G05
X3.1425Y-4.0197G85X3.1425Y-3.9803
G05
X3.2825Y-4.1197G85X3.2825Y-4.0803
G05
X3.3425Y-3.9197G85X3.3425Y-3.8803
G05
X3.4425Y-4.0197G85X3.4425Y-3.9803
G05
X3.1425Y-2.8447G85X3.1425Y-2.8053
G05
X3.2825Y-2.9447G85X3.2825Y-2.9053
G05
X3.3425Y-2.7447G85X3.3425Y-2.7053
G05
X3.4425Y-2.8447G85X3.4425Y-2.8053
G05
X3.5675Y-2.5953G85X3.5675Y-2.6347
G05
X3.6675Y-2.6953G85X3.6675Y-2.7347
G05
X3.7275Y-2.4953G85X3.7275Y-2.5347
G05
X3.8675Y-2.5953G85X3.8675Y-2.6347
G05
T10
X5.6275Y-2.4009G85X5.6275Y-2.3891
G05
X6.1475Y-2.4109G85X6.1475Y-2.3991
G05
X5.6275Y-2.9909G85X5.6275Y-2.9791
G05
X6.1475Y-3.0009G85X6.1475Y-2.9891
G05
T0
M30
