G04 #@! TF.GenerationSoftware,KiCad,Pcbnew,(5.0.2)-1*
G04 #@! TF.CreationDate,2019-02-15T13:53:22+00:00*
G04 #@! TF.ProjectId,panel,70616e65-6c2e-46b6-9963-61645f706362,rev?*
G04 #@! TF.SameCoordinates,Original*
G04 #@! TF.FileFunction,Soldermask,Top*
G04 #@! TF.FilePolarity,Negative*
%FSLAX46Y46*%
G04 Gerber Fmt 4.6, Leading zero omitted, Abs format (unit mm)*
G04 Created by KiCad (PCBNEW (5.0.2)-1) date 15/02/2019 13:53:22*
%MOMM*%
%LPD*%
G01*
G04 APERTURE LIST*
%ADD10C,0.100000*%
G04 APERTURE END LIST*
D10*
G36*
X114791142Y-125583242D02*
X114939102Y-125644530D01*
X115072258Y-125733502D01*
X115185498Y-125846742D01*
X115274470Y-125979898D01*
X115335758Y-126127858D01*
X115367000Y-126284925D01*
X115367000Y-126445075D01*
X115335758Y-126602142D01*
X115274470Y-126750102D01*
X115185498Y-126883258D01*
X115072258Y-126996498D01*
X114939102Y-127085470D01*
X114791142Y-127146758D01*
X114634075Y-127178000D01*
X114473925Y-127178000D01*
X114316858Y-127146758D01*
X114168898Y-127085470D01*
X114035742Y-126996498D01*
X113922502Y-126883258D01*
X113833530Y-126750102D01*
X113772242Y-126602142D01*
X113741000Y-126445075D01*
X113741000Y-126284925D01*
X113772242Y-126127858D01*
X113833530Y-125979898D01*
X113922502Y-125846742D01*
X114035742Y-125733502D01*
X114168898Y-125644530D01*
X114316858Y-125583242D01*
X114473925Y-125552000D01*
X114634075Y-125552000D01*
X114791142Y-125583242D01*
X114791142Y-125583242D01*
G37*
G36*
X94344142Y-125583242D02*
X94492102Y-125644530D01*
X94625258Y-125733502D01*
X94738498Y-125846742D01*
X94827470Y-125979898D01*
X94888758Y-126127858D01*
X94920000Y-126284925D01*
X94920000Y-126445075D01*
X94888758Y-126602142D01*
X94827470Y-126750102D01*
X94738498Y-126883258D01*
X94625258Y-126996498D01*
X94492102Y-127085470D01*
X94344142Y-127146758D01*
X94187075Y-127178000D01*
X94026925Y-127178000D01*
X93869858Y-127146758D01*
X93721898Y-127085470D01*
X93588742Y-126996498D01*
X93475502Y-126883258D01*
X93386530Y-126750102D01*
X93325242Y-126602142D01*
X93294000Y-126445075D01*
X93294000Y-126284925D01*
X93325242Y-126127858D01*
X93386530Y-125979898D01*
X93475502Y-125846742D01*
X93588742Y-125733502D01*
X93721898Y-125644530D01*
X93869858Y-125583242D01*
X94026925Y-125552000D01*
X94187075Y-125552000D01*
X94344142Y-125583242D01*
X94344142Y-125583242D01*
G37*
G36*
X84184142Y-125583242D02*
X84332102Y-125644530D01*
X84465258Y-125733502D01*
X84578498Y-125846742D01*
X84667470Y-125979898D01*
X84728758Y-126127858D01*
X84760000Y-126284925D01*
X84760000Y-126445075D01*
X84728758Y-126602142D01*
X84667470Y-126750102D01*
X84578498Y-126883258D01*
X84465258Y-126996498D01*
X84332102Y-127085470D01*
X84184142Y-127146758D01*
X84027075Y-127178000D01*
X83866925Y-127178000D01*
X83709858Y-127146758D01*
X83561898Y-127085470D01*
X83428742Y-126996498D01*
X83315502Y-126883258D01*
X83226530Y-126750102D01*
X83165242Y-126602142D01*
X83134000Y-126445075D01*
X83134000Y-126284925D01*
X83165242Y-126127858D01*
X83226530Y-125979898D01*
X83315502Y-125846742D01*
X83428742Y-125733502D01*
X83561898Y-125644530D01*
X83709858Y-125583242D01*
X83866925Y-125552000D01*
X84027075Y-125552000D01*
X84184142Y-125583242D01*
X84184142Y-125583242D01*
G37*
G36*
X104631142Y-125583242D02*
X104779102Y-125644530D01*
X104912258Y-125733502D01*
X105025498Y-125846742D01*
X105114470Y-125979898D01*
X105175758Y-126127858D01*
X105207000Y-126284925D01*
X105207000Y-126445075D01*
X105175758Y-126602142D01*
X105114470Y-126750102D01*
X105025498Y-126883258D01*
X104912258Y-126996498D01*
X104779102Y-127085470D01*
X104631142Y-127146758D01*
X104474075Y-127178000D01*
X104313925Y-127178000D01*
X104156858Y-127146758D01*
X104008898Y-127085470D01*
X103875742Y-126996498D01*
X103762502Y-126883258D01*
X103673530Y-126750102D01*
X103612242Y-126602142D01*
X103581000Y-126445075D01*
X103581000Y-126284925D01*
X103612242Y-126127858D01*
X103673530Y-125979898D01*
X103762502Y-125846742D01*
X103875742Y-125733502D01*
X104008898Y-125644530D01*
X104156858Y-125583242D01*
X104313925Y-125552000D01*
X104474075Y-125552000D01*
X104631142Y-125583242D01*
X104631142Y-125583242D01*
G37*
G36*
X93179091Y-122541085D02*
X93213069Y-122551393D01*
X93244387Y-122568133D01*
X93271839Y-122590661D01*
X93294367Y-122618113D01*
X93311107Y-122649431D01*
X93321415Y-122683409D01*
X93325500Y-122724890D01*
X93325500Y-123401110D01*
X93321415Y-123442591D01*
X93311107Y-123476569D01*
X93294367Y-123507887D01*
X93271839Y-123535339D01*
X93244387Y-123557867D01*
X93213069Y-123574607D01*
X93179091Y-123584915D01*
X93137610Y-123589000D01*
X92536390Y-123589000D01*
X92494909Y-123584915D01*
X92460931Y-123574607D01*
X92429613Y-123557867D01*
X92402161Y-123535339D01*
X92379633Y-123507887D01*
X92362893Y-123476569D01*
X92352585Y-123442591D01*
X92348500Y-123401110D01*
X92348500Y-122724890D01*
X92352585Y-122683409D01*
X92362893Y-122649431D01*
X92379633Y-122618113D01*
X92402161Y-122590661D01*
X92429613Y-122568133D01*
X92460931Y-122551393D01*
X92494909Y-122541085D01*
X92536390Y-122537000D01*
X93137610Y-122537000D01*
X93179091Y-122541085D01*
X93179091Y-122541085D01*
G37*
G36*
X112051091Y-122541085D02*
X112085069Y-122551393D01*
X112116387Y-122568133D01*
X112143839Y-122590661D01*
X112166367Y-122618113D01*
X112183107Y-122649431D01*
X112193415Y-122683409D01*
X112197500Y-122724890D01*
X112197500Y-123401110D01*
X112193415Y-123442591D01*
X112183107Y-123476569D01*
X112166367Y-123507887D01*
X112143839Y-123535339D01*
X112116387Y-123557867D01*
X112085069Y-123574607D01*
X112051091Y-123584915D01*
X112009610Y-123589000D01*
X111408390Y-123589000D01*
X111366909Y-123584915D01*
X111332931Y-123574607D01*
X111301613Y-123557867D01*
X111274161Y-123535339D01*
X111251633Y-123507887D01*
X111234893Y-123476569D01*
X111224585Y-123442591D01*
X111220500Y-123401110D01*
X111220500Y-122724890D01*
X111224585Y-122683409D01*
X111234893Y-122649431D01*
X111251633Y-122618113D01*
X111274161Y-122590661D01*
X111301613Y-122568133D01*
X111332931Y-122551393D01*
X111366909Y-122541085D01*
X111408390Y-122537000D01*
X112009610Y-122537000D01*
X112051091Y-122541085D01*
X112051091Y-122541085D01*
G37*
G36*
X113626091Y-122541085D02*
X113660069Y-122551393D01*
X113691387Y-122568133D01*
X113718839Y-122590661D01*
X113741367Y-122618113D01*
X113758107Y-122649431D01*
X113768415Y-122683409D01*
X113772500Y-122724890D01*
X113772500Y-123401110D01*
X113768415Y-123442591D01*
X113758107Y-123476569D01*
X113741367Y-123507887D01*
X113718839Y-123535339D01*
X113691387Y-123557867D01*
X113660069Y-123574607D01*
X113626091Y-123584915D01*
X113584610Y-123589000D01*
X112983390Y-123589000D01*
X112941909Y-123584915D01*
X112907931Y-123574607D01*
X112876613Y-123557867D01*
X112849161Y-123535339D01*
X112826633Y-123507887D01*
X112809893Y-123476569D01*
X112799585Y-123442591D01*
X112795500Y-123401110D01*
X112795500Y-122724890D01*
X112799585Y-122683409D01*
X112809893Y-122649431D01*
X112826633Y-122618113D01*
X112849161Y-122590661D01*
X112876613Y-122568133D01*
X112907931Y-122551393D01*
X112941909Y-122541085D01*
X112983390Y-122537000D01*
X113584610Y-122537000D01*
X113626091Y-122541085D01*
X113626091Y-122541085D01*
G37*
G36*
X91604091Y-122541085D02*
X91638069Y-122551393D01*
X91669387Y-122568133D01*
X91696839Y-122590661D01*
X91719367Y-122618113D01*
X91736107Y-122649431D01*
X91746415Y-122683409D01*
X91750500Y-122724890D01*
X91750500Y-123401110D01*
X91746415Y-123442591D01*
X91736107Y-123476569D01*
X91719367Y-123507887D01*
X91696839Y-123535339D01*
X91669387Y-123557867D01*
X91638069Y-123574607D01*
X91604091Y-123584915D01*
X91562610Y-123589000D01*
X90961390Y-123589000D01*
X90919909Y-123584915D01*
X90885931Y-123574607D01*
X90854613Y-123557867D01*
X90827161Y-123535339D01*
X90804633Y-123507887D01*
X90787893Y-123476569D01*
X90777585Y-123442591D01*
X90773500Y-123401110D01*
X90773500Y-122724890D01*
X90777585Y-122683409D01*
X90787893Y-122649431D01*
X90804633Y-122618113D01*
X90827161Y-122590661D01*
X90854613Y-122568133D01*
X90885931Y-122551393D01*
X90919909Y-122541085D01*
X90961390Y-122537000D01*
X91562610Y-122537000D01*
X91604091Y-122541085D01*
X91604091Y-122541085D01*
G37*
G36*
X117446527Y-119773736D02*
X117546410Y-119793604D01*
X117828674Y-119910521D01*
X118082705Y-120080259D01*
X118298741Y-120296295D01*
X118468479Y-120550326D01*
X118585396Y-120832590D01*
X118645000Y-121132240D01*
X118645000Y-121437760D01*
X118585396Y-121737410D01*
X118468479Y-122019674D01*
X118298741Y-122273705D01*
X118082705Y-122489741D01*
X117828674Y-122659479D01*
X117546410Y-122776396D01*
X117522007Y-122781250D01*
X117246762Y-122836000D01*
X116941238Y-122836000D01*
X116665993Y-122781250D01*
X116641590Y-122776396D01*
X116359326Y-122659479D01*
X116105295Y-122489741D01*
X115889259Y-122273705D01*
X115719521Y-122019674D01*
X115602604Y-121737410D01*
X115543000Y-121437760D01*
X115543000Y-121132240D01*
X115602604Y-120832590D01*
X115719521Y-120550326D01*
X115889259Y-120296295D01*
X116105295Y-120080259D01*
X116359326Y-119910521D01*
X116641590Y-119793604D01*
X116741473Y-119773736D01*
X116941238Y-119734000D01*
X117246762Y-119734000D01*
X117446527Y-119773736D01*
X117446527Y-119773736D01*
G37*
G36*
X81505527Y-119773736D02*
X81605410Y-119793604D01*
X81887674Y-119910521D01*
X82141705Y-120080259D01*
X82357741Y-120296295D01*
X82527479Y-120550326D01*
X82644396Y-120832590D01*
X82704000Y-121132240D01*
X82704000Y-121437760D01*
X82644396Y-121737410D01*
X82527479Y-122019674D01*
X82357741Y-122273705D01*
X82141705Y-122489741D01*
X81887674Y-122659479D01*
X81605410Y-122776396D01*
X81581007Y-122781250D01*
X81305762Y-122836000D01*
X81000238Y-122836000D01*
X80724993Y-122781250D01*
X80700590Y-122776396D01*
X80418326Y-122659479D01*
X80164295Y-122489741D01*
X79948259Y-122273705D01*
X79778521Y-122019674D01*
X79661604Y-121737410D01*
X79602000Y-121437760D01*
X79602000Y-121132240D01*
X79661604Y-120832590D01*
X79778521Y-120550326D01*
X79948259Y-120296295D01*
X80164295Y-120080259D01*
X80418326Y-119910521D01*
X80700590Y-119793604D01*
X80800473Y-119773736D01*
X81000238Y-119734000D01*
X81305762Y-119734000D01*
X81505527Y-119773736D01*
X81505527Y-119773736D01*
G37*
G36*
X96999527Y-119773736D02*
X97099410Y-119793604D01*
X97381674Y-119910521D01*
X97635705Y-120080259D01*
X97851741Y-120296295D01*
X98021479Y-120550326D01*
X98138396Y-120832590D01*
X98198000Y-121132240D01*
X98198000Y-121437760D01*
X98138396Y-121737410D01*
X98021479Y-122019674D01*
X97851741Y-122273705D01*
X97635705Y-122489741D01*
X97381674Y-122659479D01*
X97099410Y-122776396D01*
X97075007Y-122781250D01*
X96799762Y-122836000D01*
X96494238Y-122836000D01*
X96218993Y-122781250D01*
X96194590Y-122776396D01*
X95912326Y-122659479D01*
X95658295Y-122489741D01*
X95442259Y-122273705D01*
X95272521Y-122019674D01*
X95155604Y-121737410D01*
X95096000Y-121437760D01*
X95096000Y-121132240D01*
X95155604Y-120832590D01*
X95272521Y-120550326D01*
X95442259Y-120296295D01*
X95658295Y-120080259D01*
X95912326Y-119910521D01*
X96194590Y-119793604D01*
X96294473Y-119773736D01*
X96494238Y-119734000D01*
X96799762Y-119734000D01*
X96999527Y-119773736D01*
X96999527Y-119773736D01*
G37*
G36*
X101952527Y-119773736D02*
X102052410Y-119793604D01*
X102334674Y-119910521D01*
X102588705Y-120080259D01*
X102804741Y-120296295D01*
X102974479Y-120550326D01*
X103091396Y-120832590D01*
X103151000Y-121132240D01*
X103151000Y-121437760D01*
X103091396Y-121737410D01*
X102974479Y-122019674D01*
X102804741Y-122273705D01*
X102588705Y-122489741D01*
X102334674Y-122659479D01*
X102052410Y-122776396D01*
X102028007Y-122781250D01*
X101752762Y-122836000D01*
X101447238Y-122836000D01*
X101171993Y-122781250D01*
X101147590Y-122776396D01*
X100865326Y-122659479D01*
X100611295Y-122489741D01*
X100395259Y-122273705D01*
X100225521Y-122019674D01*
X100108604Y-121737410D01*
X100049000Y-121437760D01*
X100049000Y-121132240D01*
X100108604Y-120832590D01*
X100225521Y-120550326D01*
X100395259Y-120296295D01*
X100611295Y-120080259D01*
X100865326Y-119910521D01*
X101147590Y-119793604D01*
X101247473Y-119773736D01*
X101447238Y-119734000D01*
X101752762Y-119734000D01*
X101952527Y-119773736D01*
X101952527Y-119773736D01*
G37*
G36*
X93688000Y-120866000D02*
X91986000Y-120866000D01*
X91986000Y-119164000D01*
X93688000Y-119164000D01*
X93688000Y-120866000D01*
X93688000Y-120866000D01*
G37*
G36*
X85383821Y-119176313D02*
X85383824Y-119176314D01*
X85383825Y-119176314D01*
X85544239Y-119224975D01*
X85544241Y-119224976D01*
X85544244Y-119224977D01*
X85692078Y-119303995D01*
X85821659Y-119410341D01*
X85928005Y-119539922D01*
X86007023Y-119687756D01*
X86055687Y-119848179D01*
X86072117Y-120015000D01*
X86055687Y-120181821D01*
X86055686Y-120181824D01*
X86055686Y-120181825D01*
X86020963Y-120296293D01*
X86007023Y-120342244D01*
X85928005Y-120490078D01*
X85821659Y-120619659D01*
X85692078Y-120726005D01*
X85544244Y-120805023D01*
X85544241Y-120805024D01*
X85544239Y-120805025D01*
X85383825Y-120853686D01*
X85383824Y-120853686D01*
X85383821Y-120853687D01*
X85258804Y-120866000D01*
X85175196Y-120866000D01*
X85050179Y-120853687D01*
X85050176Y-120853686D01*
X85050175Y-120853686D01*
X84889761Y-120805025D01*
X84889759Y-120805024D01*
X84889756Y-120805023D01*
X84741922Y-120726005D01*
X84612341Y-120619659D01*
X84505995Y-120490078D01*
X84426977Y-120342244D01*
X84413038Y-120296293D01*
X84378314Y-120181825D01*
X84378314Y-120181824D01*
X84378313Y-120181821D01*
X84361883Y-120015000D01*
X84378313Y-119848179D01*
X84426977Y-119687756D01*
X84505995Y-119539922D01*
X84612341Y-119410341D01*
X84741922Y-119303995D01*
X84889756Y-119224977D01*
X84889759Y-119224976D01*
X84889761Y-119224975D01*
X85050175Y-119176314D01*
X85050176Y-119176314D01*
X85050179Y-119176313D01*
X85175196Y-119164000D01*
X85258804Y-119164000D01*
X85383821Y-119176313D01*
X85383821Y-119176313D01*
G37*
G36*
X105830821Y-119176313D02*
X105830824Y-119176314D01*
X105830825Y-119176314D01*
X105991239Y-119224975D01*
X105991241Y-119224976D01*
X105991244Y-119224977D01*
X106139078Y-119303995D01*
X106268659Y-119410341D01*
X106375005Y-119539922D01*
X106454023Y-119687756D01*
X106502687Y-119848179D01*
X106519117Y-120015000D01*
X106502687Y-120181821D01*
X106502686Y-120181824D01*
X106502686Y-120181825D01*
X106467963Y-120296293D01*
X106454023Y-120342244D01*
X106375005Y-120490078D01*
X106268659Y-120619659D01*
X106139078Y-120726005D01*
X105991244Y-120805023D01*
X105991241Y-120805024D01*
X105991239Y-120805025D01*
X105830825Y-120853686D01*
X105830824Y-120853686D01*
X105830821Y-120853687D01*
X105705804Y-120866000D01*
X105622196Y-120866000D01*
X105497179Y-120853687D01*
X105497176Y-120853686D01*
X105497175Y-120853686D01*
X105336761Y-120805025D01*
X105336759Y-120805024D01*
X105336756Y-120805023D01*
X105188922Y-120726005D01*
X105059341Y-120619659D01*
X104952995Y-120490078D01*
X104873977Y-120342244D01*
X104860038Y-120296293D01*
X104825314Y-120181825D01*
X104825314Y-120181824D01*
X104825313Y-120181821D01*
X104808883Y-120015000D01*
X104825313Y-119848179D01*
X104873977Y-119687756D01*
X104952995Y-119539922D01*
X105059341Y-119410341D01*
X105188922Y-119303995D01*
X105336756Y-119224977D01*
X105336759Y-119224976D01*
X105336761Y-119224975D01*
X105497175Y-119176314D01*
X105497176Y-119176314D01*
X105497179Y-119176313D01*
X105622196Y-119164000D01*
X105705804Y-119164000D01*
X105830821Y-119176313D01*
X105830821Y-119176313D01*
G37*
G36*
X114135000Y-120866000D02*
X112433000Y-120866000D01*
X112433000Y-119164000D01*
X114135000Y-119164000D01*
X114135000Y-120866000D01*
X114135000Y-120866000D01*
G37*
G36*
X89264142Y-115423242D02*
X89412102Y-115484530D01*
X89479130Y-115529317D01*
X89545257Y-115573501D01*
X89658499Y-115686743D01*
X89699184Y-115747633D01*
X89747470Y-115819898D01*
X89808758Y-115967858D01*
X89840000Y-116124925D01*
X89840000Y-116285075D01*
X89808758Y-116442142D01*
X89747470Y-116590102D01*
X89726182Y-116621961D01*
X89681518Y-116688807D01*
X89658498Y-116723258D01*
X89545258Y-116836498D01*
X89412102Y-116925470D01*
X89264142Y-116986758D01*
X89107075Y-117018000D01*
X88946925Y-117018000D01*
X88789858Y-116986758D01*
X88641898Y-116925470D01*
X88508742Y-116836498D01*
X88395502Y-116723258D01*
X88372483Y-116688807D01*
X88327818Y-116621961D01*
X88306530Y-116590102D01*
X88245242Y-116442142D01*
X88214000Y-116285075D01*
X88214000Y-116124925D01*
X88245242Y-115967858D01*
X88306530Y-115819898D01*
X88354816Y-115747633D01*
X88395501Y-115686743D01*
X88508743Y-115573501D01*
X88574870Y-115529317D01*
X88641898Y-115484530D01*
X88789858Y-115423242D01*
X88946925Y-115392000D01*
X89107075Y-115392000D01*
X89264142Y-115423242D01*
X89264142Y-115423242D01*
G37*
G36*
X96884142Y-115423242D02*
X97032102Y-115484530D01*
X97099130Y-115529317D01*
X97165257Y-115573501D01*
X97278499Y-115686743D01*
X97319184Y-115747633D01*
X97367470Y-115819898D01*
X97428758Y-115967858D01*
X97460000Y-116124925D01*
X97460000Y-116285075D01*
X97428758Y-116442142D01*
X97367470Y-116590102D01*
X97346182Y-116621961D01*
X97301518Y-116688807D01*
X97278498Y-116723258D01*
X97165258Y-116836498D01*
X97032102Y-116925470D01*
X96884142Y-116986758D01*
X96727075Y-117018000D01*
X96566925Y-117018000D01*
X96409858Y-116986758D01*
X96261898Y-116925470D01*
X96128742Y-116836498D01*
X96015502Y-116723258D01*
X95992483Y-116688807D01*
X95947818Y-116621961D01*
X95926530Y-116590102D01*
X95865242Y-116442142D01*
X95834000Y-116285075D01*
X95834000Y-116124925D01*
X95865242Y-115967858D01*
X95926530Y-115819898D01*
X95974816Y-115747633D01*
X96015501Y-115686743D01*
X96128743Y-115573501D01*
X96194870Y-115529317D01*
X96261898Y-115484530D01*
X96409858Y-115423242D01*
X96566925Y-115392000D01*
X96727075Y-115392000D01*
X96884142Y-115423242D01*
X96884142Y-115423242D01*
G37*
G36*
X81644142Y-115423242D02*
X81792102Y-115484530D01*
X81859130Y-115529317D01*
X81925257Y-115573501D01*
X82038499Y-115686743D01*
X82079184Y-115747633D01*
X82127470Y-115819898D01*
X82188758Y-115967858D01*
X82220000Y-116124925D01*
X82220000Y-116285075D01*
X82188758Y-116442142D01*
X82127470Y-116590102D01*
X82106182Y-116621961D01*
X82061518Y-116688807D01*
X82038498Y-116723258D01*
X81925258Y-116836498D01*
X81792102Y-116925470D01*
X81644142Y-116986758D01*
X81487075Y-117018000D01*
X81326925Y-117018000D01*
X81169858Y-116986758D01*
X81021898Y-116925470D01*
X80888742Y-116836498D01*
X80775502Y-116723258D01*
X80752483Y-116688807D01*
X80707818Y-116621961D01*
X80686530Y-116590102D01*
X80625242Y-116442142D01*
X80594000Y-116285075D01*
X80594000Y-116124925D01*
X80625242Y-115967858D01*
X80686530Y-115819898D01*
X80734816Y-115747633D01*
X80775501Y-115686743D01*
X80888743Y-115573501D01*
X80954870Y-115529317D01*
X81021898Y-115484530D01*
X81169858Y-115423242D01*
X81326925Y-115392000D01*
X81487075Y-115392000D01*
X81644142Y-115423242D01*
X81644142Y-115423242D01*
G37*
G36*
X102091142Y-115423242D02*
X102239102Y-115484530D01*
X102306130Y-115529317D01*
X102372257Y-115573501D01*
X102485499Y-115686743D01*
X102526184Y-115747633D01*
X102574470Y-115819898D01*
X102635758Y-115967858D01*
X102667000Y-116124925D01*
X102667000Y-116285075D01*
X102635758Y-116442142D01*
X102574470Y-116590102D01*
X102553182Y-116621961D01*
X102508518Y-116688807D01*
X102485498Y-116723258D01*
X102372258Y-116836498D01*
X102239102Y-116925470D01*
X102091142Y-116986758D01*
X101934075Y-117018000D01*
X101773925Y-117018000D01*
X101616858Y-116986758D01*
X101468898Y-116925470D01*
X101335742Y-116836498D01*
X101222502Y-116723258D01*
X101199483Y-116688807D01*
X101154818Y-116621961D01*
X101133530Y-116590102D01*
X101072242Y-116442142D01*
X101041000Y-116285075D01*
X101041000Y-116124925D01*
X101072242Y-115967858D01*
X101133530Y-115819898D01*
X101181816Y-115747633D01*
X101222501Y-115686743D01*
X101335743Y-115573501D01*
X101401870Y-115529317D01*
X101468898Y-115484530D01*
X101616858Y-115423242D01*
X101773925Y-115392000D01*
X101934075Y-115392000D01*
X102091142Y-115423242D01*
X102091142Y-115423242D01*
G37*
G36*
X117331142Y-115423242D02*
X117479102Y-115484530D01*
X117546130Y-115529317D01*
X117612257Y-115573501D01*
X117725499Y-115686743D01*
X117766184Y-115747633D01*
X117814470Y-115819898D01*
X117875758Y-115967858D01*
X117907000Y-116124925D01*
X117907000Y-116285075D01*
X117875758Y-116442142D01*
X117814470Y-116590102D01*
X117793182Y-116621961D01*
X117748518Y-116688807D01*
X117725498Y-116723258D01*
X117612258Y-116836498D01*
X117479102Y-116925470D01*
X117331142Y-116986758D01*
X117174075Y-117018000D01*
X117013925Y-117018000D01*
X116856858Y-116986758D01*
X116708898Y-116925470D01*
X116575742Y-116836498D01*
X116462502Y-116723258D01*
X116439483Y-116688807D01*
X116394818Y-116621961D01*
X116373530Y-116590102D01*
X116312242Y-116442142D01*
X116281000Y-116285075D01*
X116281000Y-116124925D01*
X116312242Y-115967858D01*
X116373530Y-115819898D01*
X116421816Y-115747633D01*
X116462501Y-115686743D01*
X116575743Y-115573501D01*
X116641870Y-115529317D01*
X116708898Y-115484530D01*
X116856858Y-115423242D01*
X117013925Y-115392000D01*
X117174075Y-115392000D01*
X117331142Y-115423242D01*
X117331142Y-115423242D01*
G37*
G36*
X109711142Y-115423242D02*
X109859102Y-115484530D01*
X109926130Y-115529317D01*
X109992257Y-115573501D01*
X110105499Y-115686743D01*
X110146184Y-115747633D01*
X110194470Y-115819898D01*
X110255758Y-115967858D01*
X110287000Y-116124925D01*
X110287000Y-116285075D01*
X110255758Y-116442142D01*
X110194470Y-116590102D01*
X110173182Y-116621961D01*
X110128518Y-116688807D01*
X110105498Y-116723258D01*
X109992258Y-116836498D01*
X109859102Y-116925470D01*
X109711142Y-116986758D01*
X109554075Y-117018000D01*
X109393925Y-117018000D01*
X109236858Y-116986758D01*
X109088898Y-116925470D01*
X108955742Y-116836498D01*
X108842502Y-116723258D01*
X108819483Y-116688807D01*
X108774818Y-116621961D01*
X108753530Y-116590102D01*
X108692242Y-116442142D01*
X108661000Y-116285075D01*
X108661000Y-116124925D01*
X108692242Y-115967858D01*
X108753530Y-115819898D01*
X108801816Y-115747633D01*
X108842501Y-115686743D01*
X108955743Y-115573501D01*
X109021870Y-115529317D01*
X109088898Y-115484530D01*
X109236858Y-115423242D01*
X109393925Y-115392000D01*
X109554075Y-115392000D01*
X109711142Y-115423242D01*
X109711142Y-115423242D01*
G37*
G36*
X112139591Y-115720585D02*
X112173569Y-115730893D01*
X112204887Y-115747633D01*
X112232339Y-115770161D01*
X112254867Y-115797613D01*
X112271607Y-115828931D01*
X112281915Y-115862909D01*
X112286000Y-115904390D01*
X112286000Y-116505610D01*
X112281915Y-116547091D01*
X112271607Y-116581069D01*
X112254867Y-116612387D01*
X112232339Y-116639839D01*
X112204887Y-116662367D01*
X112173569Y-116679107D01*
X112139591Y-116689415D01*
X112098110Y-116693500D01*
X111421890Y-116693500D01*
X111380409Y-116689415D01*
X111346431Y-116679107D01*
X111315113Y-116662367D01*
X111287661Y-116639839D01*
X111265133Y-116612387D01*
X111248393Y-116581069D01*
X111238085Y-116547091D01*
X111234000Y-116505610D01*
X111234000Y-115904390D01*
X111238085Y-115862909D01*
X111248393Y-115828931D01*
X111265133Y-115797613D01*
X111287661Y-115770161D01*
X111315113Y-115747633D01*
X111346431Y-115730893D01*
X111380409Y-115720585D01*
X111421890Y-115716500D01*
X112098110Y-115716500D01*
X112139591Y-115720585D01*
X112139591Y-115720585D01*
G37*
G36*
X91692591Y-115720585D02*
X91726569Y-115730893D01*
X91757887Y-115747633D01*
X91785339Y-115770161D01*
X91807867Y-115797613D01*
X91824607Y-115828931D01*
X91834915Y-115862909D01*
X91839000Y-115904390D01*
X91839000Y-116505610D01*
X91834915Y-116547091D01*
X91824607Y-116581069D01*
X91807867Y-116612387D01*
X91785339Y-116639839D01*
X91757887Y-116662367D01*
X91726569Y-116679107D01*
X91692591Y-116689415D01*
X91651110Y-116693500D01*
X90974890Y-116693500D01*
X90933409Y-116689415D01*
X90899431Y-116679107D01*
X90868113Y-116662367D01*
X90840661Y-116639839D01*
X90818133Y-116612387D01*
X90801393Y-116581069D01*
X90791085Y-116547091D01*
X90787000Y-116505610D01*
X90787000Y-115904390D01*
X90791085Y-115862909D01*
X90801393Y-115828931D01*
X90818133Y-115797613D01*
X90840661Y-115770161D01*
X90868113Y-115747633D01*
X90899431Y-115730893D01*
X90933409Y-115720585D01*
X90974890Y-115716500D01*
X91651110Y-115716500D01*
X91692591Y-115720585D01*
X91692591Y-115720585D01*
G37*
G36*
X112139591Y-114145585D02*
X112173569Y-114155893D01*
X112204887Y-114172633D01*
X112232339Y-114195161D01*
X112254867Y-114222613D01*
X112271607Y-114253931D01*
X112281915Y-114287909D01*
X112286000Y-114329390D01*
X112286000Y-114930610D01*
X112281915Y-114972091D01*
X112271607Y-115006069D01*
X112254867Y-115037387D01*
X112232339Y-115064839D01*
X112204887Y-115087367D01*
X112173569Y-115104107D01*
X112139591Y-115114415D01*
X112098110Y-115118500D01*
X111421890Y-115118500D01*
X111380409Y-115114415D01*
X111346431Y-115104107D01*
X111315113Y-115087367D01*
X111287661Y-115064839D01*
X111265133Y-115037387D01*
X111248393Y-115006069D01*
X111238085Y-114972091D01*
X111234000Y-114930610D01*
X111234000Y-114329390D01*
X111238085Y-114287909D01*
X111248393Y-114253931D01*
X111265133Y-114222613D01*
X111287661Y-114195161D01*
X111315113Y-114172633D01*
X111346431Y-114155893D01*
X111380409Y-114145585D01*
X111421890Y-114141500D01*
X112098110Y-114141500D01*
X112139591Y-114145585D01*
X112139591Y-114145585D01*
G37*
G36*
X91692591Y-114145585D02*
X91726569Y-114155893D01*
X91757887Y-114172633D01*
X91785339Y-114195161D01*
X91807867Y-114222613D01*
X91824607Y-114253931D01*
X91834915Y-114287909D01*
X91839000Y-114329390D01*
X91839000Y-114930610D01*
X91834915Y-114972091D01*
X91824607Y-115006069D01*
X91807867Y-115037387D01*
X91785339Y-115064839D01*
X91757887Y-115087367D01*
X91726569Y-115104107D01*
X91692591Y-115114415D01*
X91651110Y-115118500D01*
X90974890Y-115118500D01*
X90933409Y-115114415D01*
X90899431Y-115104107D01*
X90868113Y-115087367D01*
X90840661Y-115064839D01*
X90818133Y-115037387D01*
X90801393Y-115006069D01*
X90791085Y-114972091D01*
X90787000Y-114930610D01*
X90787000Y-114329390D01*
X90791085Y-114287909D01*
X90801393Y-114253931D01*
X90818133Y-114222613D01*
X90840661Y-114195161D01*
X90868113Y-114172633D01*
X90899431Y-114155893D01*
X90933409Y-114145585D01*
X90974890Y-114141500D01*
X91651110Y-114141500D01*
X91692591Y-114145585D01*
X91692591Y-114145585D01*
G37*
G36*
X84184142Y-113137242D02*
X84332102Y-113198530D01*
X84465258Y-113287502D01*
X84578498Y-113400742D01*
X84667470Y-113533898D01*
X84728758Y-113681858D01*
X84760000Y-113838925D01*
X84760000Y-113999075D01*
X84728758Y-114156142D01*
X84688252Y-114253931D01*
X84674178Y-114287909D01*
X84667470Y-114304102D01*
X84578498Y-114437258D01*
X84465258Y-114550498D01*
X84332102Y-114639470D01*
X84184142Y-114700758D01*
X84027075Y-114732000D01*
X83866925Y-114732000D01*
X83709858Y-114700758D01*
X83561898Y-114639470D01*
X83428742Y-114550498D01*
X83315502Y-114437258D01*
X83226530Y-114304102D01*
X83219823Y-114287909D01*
X83205748Y-114253931D01*
X83165242Y-114156142D01*
X83134000Y-113999075D01*
X83134000Y-113838925D01*
X83165242Y-113681858D01*
X83226530Y-113533898D01*
X83315502Y-113400742D01*
X83428742Y-113287502D01*
X83561898Y-113198530D01*
X83709858Y-113137242D01*
X83866925Y-113106000D01*
X84027075Y-113106000D01*
X84184142Y-113137242D01*
X84184142Y-113137242D01*
G37*
G36*
X114791142Y-113137242D02*
X114939102Y-113198530D01*
X115072258Y-113287502D01*
X115185498Y-113400742D01*
X115274470Y-113533898D01*
X115335758Y-113681858D01*
X115367000Y-113838925D01*
X115367000Y-113999075D01*
X115335758Y-114156142D01*
X115295252Y-114253931D01*
X115281178Y-114287909D01*
X115274470Y-114304102D01*
X115185498Y-114437258D01*
X115072258Y-114550498D01*
X114939102Y-114639470D01*
X114791142Y-114700758D01*
X114634075Y-114732000D01*
X114473925Y-114732000D01*
X114316858Y-114700758D01*
X114168898Y-114639470D01*
X114035742Y-114550498D01*
X113922502Y-114437258D01*
X113833530Y-114304102D01*
X113826823Y-114287909D01*
X113812748Y-114253931D01*
X113772242Y-114156142D01*
X113741000Y-113999075D01*
X113741000Y-113838925D01*
X113772242Y-113681858D01*
X113833530Y-113533898D01*
X113922502Y-113400742D01*
X114035742Y-113287502D01*
X114168898Y-113198530D01*
X114316858Y-113137242D01*
X114473925Y-113106000D01*
X114634075Y-113106000D01*
X114791142Y-113137242D01*
X114791142Y-113137242D01*
G37*
G36*
X94344142Y-113137242D02*
X94492102Y-113198530D01*
X94625258Y-113287502D01*
X94738498Y-113400742D01*
X94827470Y-113533898D01*
X94888758Y-113681858D01*
X94920000Y-113838925D01*
X94920000Y-113999075D01*
X94888758Y-114156142D01*
X94848252Y-114253931D01*
X94834178Y-114287909D01*
X94827470Y-114304102D01*
X94738498Y-114437258D01*
X94625258Y-114550498D01*
X94492102Y-114639470D01*
X94344142Y-114700758D01*
X94187075Y-114732000D01*
X94026925Y-114732000D01*
X93869858Y-114700758D01*
X93721898Y-114639470D01*
X93588742Y-114550498D01*
X93475502Y-114437258D01*
X93386530Y-114304102D01*
X93379823Y-114287909D01*
X93365748Y-114253931D01*
X93325242Y-114156142D01*
X93294000Y-113999075D01*
X93294000Y-113838925D01*
X93325242Y-113681858D01*
X93386530Y-113533898D01*
X93475502Y-113400742D01*
X93588742Y-113287502D01*
X93721898Y-113198530D01*
X93869858Y-113137242D01*
X94026925Y-113106000D01*
X94187075Y-113106000D01*
X94344142Y-113137242D01*
X94344142Y-113137242D01*
G37*
G36*
X104631142Y-113137242D02*
X104779102Y-113198530D01*
X104912258Y-113287502D01*
X105025498Y-113400742D01*
X105114470Y-113533898D01*
X105175758Y-113681858D01*
X105207000Y-113838925D01*
X105207000Y-113999075D01*
X105175758Y-114156142D01*
X105135252Y-114253931D01*
X105121178Y-114287909D01*
X105114470Y-114304102D01*
X105025498Y-114437258D01*
X104912258Y-114550498D01*
X104779102Y-114639470D01*
X104631142Y-114700758D01*
X104474075Y-114732000D01*
X104313925Y-114732000D01*
X104156858Y-114700758D01*
X104008898Y-114639470D01*
X103875742Y-114550498D01*
X103762502Y-114437258D01*
X103673530Y-114304102D01*
X103666823Y-114287909D01*
X103652748Y-114253931D01*
X103612242Y-114156142D01*
X103581000Y-113999075D01*
X103581000Y-113838925D01*
X103612242Y-113681858D01*
X103673530Y-113533898D01*
X103762502Y-113400742D01*
X103875742Y-113287502D01*
X104008898Y-113198530D01*
X104156858Y-113137242D01*
X104313925Y-113106000D01*
X104474075Y-113106000D01*
X104631142Y-113137242D01*
X104631142Y-113137242D01*
G37*
G36*
X113394443Y-110992519D02*
X113460627Y-110999037D01*
X113573853Y-111033384D01*
X113630467Y-111050557D01*
X113769087Y-111124652D01*
X113786991Y-111134222D01*
X113822729Y-111163552D01*
X113924186Y-111246814D01*
X114007448Y-111348271D01*
X114036778Y-111384009D01*
X114036779Y-111384011D01*
X114120443Y-111540533D01*
X114120443Y-111540534D01*
X114171963Y-111710373D01*
X114189359Y-111887000D01*
X114171963Y-112063627D01*
X114137616Y-112176853D01*
X114120443Y-112233467D01*
X114046348Y-112372087D01*
X114036778Y-112389991D01*
X114007448Y-112425729D01*
X113924186Y-112527186D01*
X113822729Y-112610448D01*
X113786991Y-112639778D01*
X113786989Y-112639779D01*
X113630467Y-112723443D01*
X113573853Y-112740616D01*
X113460627Y-112774963D01*
X113394443Y-112781481D01*
X113328260Y-112788000D01*
X113239740Y-112788000D01*
X113173557Y-112781481D01*
X113107373Y-112774963D01*
X112994147Y-112740616D01*
X112937533Y-112723443D01*
X112781011Y-112639779D01*
X112781009Y-112639778D01*
X112745271Y-112610448D01*
X112643814Y-112527186D01*
X112560552Y-112425729D01*
X112531222Y-112389991D01*
X112521652Y-112372087D01*
X112447557Y-112233467D01*
X112430384Y-112176853D01*
X112396037Y-112063627D01*
X112378641Y-111887000D01*
X112396037Y-111710373D01*
X112447557Y-111540534D01*
X112447557Y-111540533D01*
X112531221Y-111384011D01*
X112531222Y-111384009D01*
X112560552Y-111348271D01*
X112643814Y-111246814D01*
X112745271Y-111163552D01*
X112781009Y-111134222D01*
X112798913Y-111124652D01*
X112937533Y-111050557D01*
X112994147Y-111033384D01*
X113107373Y-110999037D01*
X113173557Y-110992519D01*
X113239740Y-110986000D01*
X113328260Y-110986000D01*
X113394443Y-110992519D01*
X113394443Y-110992519D01*
G37*
G36*
X106565000Y-112788000D02*
X104763000Y-112788000D01*
X104763000Y-110986000D01*
X106565000Y-110986000D01*
X106565000Y-112788000D01*
X106565000Y-112788000D01*
G37*
G36*
X108314443Y-110992519D02*
X108380627Y-110999037D01*
X108493853Y-111033384D01*
X108550467Y-111050557D01*
X108689087Y-111124652D01*
X108706991Y-111134222D01*
X108742729Y-111163552D01*
X108844186Y-111246814D01*
X108927448Y-111348271D01*
X108956778Y-111384009D01*
X108956779Y-111384011D01*
X109040443Y-111540533D01*
X109040443Y-111540534D01*
X109091963Y-111710373D01*
X109109359Y-111887000D01*
X109091963Y-112063627D01*
X109057616Y-112176853D01*
X109040443Y-112233467D01*
X108966348Y-112372087D01*
X108956778Y-112389991D01*
X108927448Y-112425729D01*
X108844186Y-112527186D01*
X108742729Y-112610448D01*
X108706991Y-112639778D01*
X108706989Y-112639779D01*
X108550467Y-112723443D01*
X108493853Y-112740616D01*
X108380627Y-112774963D01*
X108314443Y-112781481D01*
X108248260Y-112788000D01*
X108159740Y-112788000D01*
X108093557Y-112781481D01*
X108027373Y-112774963D01*
X107914147Y-112740616D01*
X107857533Y-112723443D01*
X107701011Y-112639779D01*
X107701009Y-112639778D01*
X107665271Y-112610448D01*
X107563814Y-112527186D01*
X107480552Y-112425729D01*
X107451222Y-112389991D01*
X107441652Y-112372087D01*
X107367557Y-112233467D01*
X107350384Y-112176853D01*
X107316037Y-112063627D01*
X107298641Y-111887000D01*
X107316037Y-111710373D01*
X107367557Y-111540534D01*
X107367557Y-111540533D01*
X107451221Y-111384011D01*
X107451222Y-111384009D01*
X107480552Y-111348271D01*
X107563814Y-111246814D01*
X107665271Y-111163552D01*
X107701009Y-111134222D01*
X107718913Y-111124652D01*
X107857533Y-111050557D01*
X107914147Y-111033384D01*
X108027373Y-110999037D01*
X108093557Y-110992519D01*
X108159740Y-110986000D01*
X108248260Y-110986000D01*
X108314443Y-110992519D01*
X108314443Y-110992519D01*
G37*
G36*
X110854443Y-110992519D02*
X110920627Y-110999037D01*
X111033853Y-111033384D01*
X111090467Y-111050557D01*
X111229087Y-111124652D01*
X111246991Y-111134222D01*
X111282729Y-111163552D01*
X111384186Y-111246814D01*
X111467448Y-111348271D01*
X111496778Y-111384009D01*
X111496779Y-111384011D01*
X111580443Y-111540533D01*
X111580443Y-111540534D01*
X111631963Y-111710373D01*
X111649359Y-111887000D01*
X111631963Y-112063627D01*
X111597616Y-112176853D01*
X111580443Y-112233467D01*
X111506348Y-112372087D01*
X111496778Y-112389991D01*
X111467448Y-112425729D01*
X111384186Y-112527186D01*
X111282729Y-112610448D01*
X111246991Y-112639778D01*
X111246989Y-112639779D01*
X111090467Y-112723443D01*
X111033853Y-112740616D01*
X110920627Y-112774963D01*
X110854443Y-112781481D01*
X110788260Y-112788000D01*
X110699740Y-112788000D01*
X110633557Y-112781481D01*
X110567373Y-112774963D01*
X110454147Y-112740616D01*
X110397533Y-112723443D01*
X110241011Y-112639779D01*
X110241009Y-112639778D01*
X110205271Y-112610448D01*
X110103814Y-112527186D01*
X110020552Y-112425729D01*
X109991222Y-112389991D01*
X109981652Y-112372087D01*
X109907557Y-112233467D01*
X109890384Y-112176853D01*
X109856037Y-112063627D01*
X109838641Y-111887000D01*
X109856037Y-111710373D01*
X109907557Y-111540534D01*
X109907557Y-111540533D01*
X109991221Y-111384011D01*
X109991222Y-111384009D01*
X110020552Y-111348271D01*
X110103814Y-111246814D01*
X110205271Y-111163552D01*
X110241009Y-111134222D01*
X110258913Y-111124652D01*
X110397533Y-111050557D01*
X110454147Y-111033384D01*
X110567373Y-110999037D01*
X110633557Y-110992519D01*
X110699740Y-110986000D01*
X110788260Y-110986000D01*
X110854443Y-110992519D01*
X110854443Y-110992519D01*
G37*
G36*
X92947443Y-110992519D02*
X93013627Y-110999037D01*
X93126853Y-111033384D01*
X93183467Y-111050557D01*
X93322087Y-111124652D01*
X93339991Y-111134222D01*
X93375729Y-111163552D01*
X93477186Y-111246814D01*
X93560448Y-111348271D01*
X93589778Y-111384009D01*
X93589779Y-111384011D01*
X93673443Y-111540533D01*
X93673443Y-111540534D01*
X93724963Y-111710373D01*
X93742359Y-111887000D01*
X93724963Y-112063627D01*
X93690616Y-112176853D01*
X93673443Y-112233467D01*
X93599348Y-112372087D01*
X93589778Y-112389991D01*
X93560448Y-112425729D01*
X93477186Y-112527186D01*
X93375729Y-112610448D01*
X93339991Y-112639778D01*
X93339989Y-112639779D01*
X93183467Y-112723443D01*
X93126853Y-112740616D01*
X93013627Y-112774963D01*
X92947443Y-112781481D01*
X92881260Y-112788000D01*
X92792740Y-112788000D01*
X92726557Y-112781481D01*
X92660373Y-112774963D01*
X92547147Y-112740616D01*
X92490533Y-112723443D01*
X92334011Y-112639779D01*
X92334009Y-112639778D01*
X92298271Y-112610448D01*
X92196814Y-112527186D01*
X92113552Y-112425729D01*
X92084222Y-112389991D01*
X92074652Y-112372087D01*
X92000557Y-112233467D01*
X91983384Y-112176853D01*
X91949037Y-112063627D01*
X91931641Y-111887000D01*
X91949037Y-111710373D01*
X92000557Y-111540534D01*
X92000557Y-111540533D01*
X92084221Y-111384011D01*
X92084222Y-111384009D01*
X92113552Y-111348271D01*
X92196814Y-111246814D01*
X92298271Y-111163552D01*
X92334009Y-111134222D01*
X92351913Y-111124652D01*
X92490533Y-111050557D01*
X92547147Y-111033384D01*
X92660373Y-110999037D01*
X92726557Y-110992519D01*
X92792740Y-110986000D01*
X92881260Y-110986000D01*
X92947443Y-110992519D01*
X92947443Y-110992519D01*
G37*
G36*
X90407443Y-110992519D02*
X90473627Y-110999037D01*
X90586853Y-111033384D01*
X90643467Y-111050557D01*
X90782087Y-111124652D01*
X90799991Y-111134222D01*
X90835729Y-111163552D01*
X90937186Y-111246814D01*
X91020448Y-111348271D01*
X91049778Y-111384009D01*
X91049779Y-111384011D01*
X91133443Y-111540533D01*
X91133443Y-111540534D01*
X91184963Y-111710373D01*
X91202359Y-111887000D01*
X91184963Y-112063627D01*
X91150616Y-112176853D01*
X91133443Y-112233467D01*
X91059348Y-112372087D01*
X91049778Y-112389991D01*
X91020448Y-112425729D01*
X90937186Y-112527186D01*
X90835729Y-112610448D01*
X90799991Y-112639778D01*
X90799989Y-112639779D01*
X90643467Y-112723443D01*
X90586853Y-112740616D01*
X90473627Y-112774963D01*
X90407443Y-112781481D01*
X90341260Y-112788000D01*
X90252740Y-112788000D01*
X90186557Y-112781481D01*
X90120373Y-112774963D01*
X90007147Y-112740616D01*
X89950533Y-112723443D01*
X89794011Y-112639779D01*
X89794009Y-112639778D01*
X89758271Y-112610448D01*
X89656814Y-112527186D01*
X89573552Y-112425729D01*
X89544222Y-112389991D01*
X89534652Y-112372087D01*
X89460557Y-112233467D01*
X89443384Y-112176853D01*
X89409037Y-112063627D01*
X89391641Y-111887000D01*
X89409037Y-111710373D01*
X89460557Y-111540534D01*
X89460557Y-111540533D01*
X89544221Y-111384011D01*
X89544222Y-111384009D01*
X89573552Y-111348271D01*
X89656814Y-111246814D01*
X89758271Y-111163552D01*
X89794009Y-111134222D01*
X89811913Y-111124652D01*
X89950533Y-111050557D01*
X90007147Y-111033384D01*
X90120373Y-110999037D01*
X90186557Y-110992519D01*
X90252740Y-110986000D01*
X90341260Y-110986000D01*
X90407443Y-110992519D01*
X90407443Y-110992519D01*
G37*
G36*
X87867443Y-110992519D02*
X87933627Y-110999037D01*
X88046853Y-111033384D01*
X88103467Y-111050557D01*
X88242087Y-111124652D01*
X88259991Y-111134222D01*
X88295729Y-111163552D01*
X88397186Y-111246814D01*
X88480448Y-111348271D01*
X88509778Y-111384009D01*
X88509779Y-111384011D01*
X88593443Y-111540533D01*
X88593443Y-111540534D01*
X88644963Y-111710373D01*
X88662359Y-111887000D01*
X88644963Y-112063627D01*
X88610616Y-112176853D01*
X88593443Y-112233467D01*
X88519348Y-112372087D01*
X88509778Y-112389991D01*
X88480448Y-112425729D01*
X88397186Y-112527186D01*
X88295729Y-112610448D01*
X88259991Y-112639778D01*
X88259989Y-112639779D01*
X88103467Y-112723443D01*
X88046853Y-112740616D01*
X87933627Y-112774963D01*
X87867443Y-112781481D01*
X87801260Y-112788000D01*
X87712740Y-112788000D01*
X87646557Y-112781481D01*
X87580373Y-112774963D01*
X87467147Y-112740616D01*
X87410533Y-112723443D01*
X87254011Y-112639779D01*
X87254009Y-112639778D01*
X87218271Y-112610448D01*
X87116814Y-112527186D01*
X87033552Y-112425729D01*
X87004222Y-112389991D01*
X86994652Y-112372087D01*
X86920557Y-112233467D01*
X86903384Y-112176853D01*
X86869037Y-112063627D01*
X86851641Y-111887000D01*
X86869037Y-111710373D01*
X86920557Y-111540534D01*
X86920557Y-111540533D01*
X87004221Y-111384011D01*
X87004222Y-111384009D01*
X87033552Y-111348271D01*
X87116814Y-111246814D01*
X87218271Y-111163552D01*
X87254009Y-111134222D01*
X87271913Y-111124652D01*
X87410533Y-111050557D01*
X87467147Y-111033384D01*
X87580373Y-110999037D01*
X87646557Y-110992519D01*
X87712740Y-110986000D01*
X87801260Y-110986000D01*
X87867443Y-110992519D01*
X87867443Y-110992519D01*
G37*
G36*
X86118000Y-112788000D02*
X84316000Y-112788000D01*
X84316000Y-110986000D01*
X86118000Y-110986000D01*
X86118000Y-112788000D01*
X86118000Y-112788000D01*
G37*
G36*
X92883943Y-107563519D02*
X92950127Y-107570037D01*
X93063353Y-107604384D01*
X93119967Y-107621557D01*
X93258587Y-107695652D01*
X93276491Y-107705222D01*
X93312229Y-107734552D01*
X93413686Y-107817814D01*
X93496948Y-107919271D01*
X93526278Y-107955009D01*
X93526279Y-107955011D01*
X93609943Y-108111533D01*
X93609943Y-108111534D01*
X93661463Y-108281373D01*
X93678859Y-108458000D01*
X93661463Y-108634627D01*
X93627116Y-108747853D01*
X93609943Y-108804467D01*
X93535848Y-108943087D01*
X93526278Y-108960991D01*
X93496948Y-108996729D01*
X93413686Y-109098186D01*
X93312229Y-109181448D01*
X93276491Y-109210778D01*
X93276489Y-109210779D01*
X93119967Y-109294443D01*
X93063353Y-109311616D01*
X92950127Y-109345963D01*
X92883943Y-109352481D01*
X92817760Y-109359000D01*
X92729240Y-109359000D01*
X92663057Y-109352481D01*
X92596873Y-109345963D01*
X92483647Y-109311616D01*
X92427033Y-109294443D01*
X92270511Y-109210779D01*
X92270509Y-109210778D01*
X92234771Y-109181448D01*
X92133314Y-109098186D01*
X92050052Y-108996729D01*
X92020722Y-108960991D01*
X92011152Y-108943087D01*
X91937057Y-108804467D01*
X91919884Y-108747853D01*
X91885537Y-108634627D01*
X91868141Y-108458000D01*
X91885537Y-108281373D01*
X91937057Y-108111534D01*
X91937057Y-108111533D01*
X92020721Y-107955011D01*
X92020722Y-107955009D01*
X92050052Y-107919271D01*
X92133314Y-107817814D01*
X92234771Y-107734552D01*
X92270509Y-107705222D01*
X92288413Y-107695652D01*
X92427033Y-107621557D01*
X92483647Y-107604384D01*
X92596873Y-107570037D01*
X92663057Y-107563519D01*
X92729240Y-107557000D01*
X92817760Y-107557000D01*
X92883943Y-107563519D01*
X92883943Y-107563519D01*
G37*
G36*
X95423943Y-107563519D02*
X95490127Y-107570037D01*
X95603353Y-107604384D01*
X95659967Y-107621557D01*
X95798587Y-107695652D01*
X95816491Y-107705222D01*
X95852229Y-107734552D01*
X95953686Y-107817814D01*
X96036948Y-107919271D01*
X96066278Y-107955009D01*
X96066279Y-107955011D01*
X96149943Y-108111533D01*
X96149943Y-108111534D01*
X96201463Y-108281373D01*
X96218859Y-108458000D01*
X96201463Y-108634627D01*
X96167116Y-108747853D01*
X96149943Y-108804467D01*
X96075848Y-108943087D01*
X96066278Y-108960991D01*
X96036948Y-108996729D01*
X95953686Y-109098186D01*
X95852229Y-109181448D01*
X95816491Y-109210778D01*
X95816489Y-109210779D01*
X95659967Y-109294443D01*
X95603353Y-109311616D01*
X95490127Y-109345963D01*
X95423943Y-109352481D01*
X95357760Y-109359000D01*
X95269240Y-109359000D01*
X95203057Y-109352481D01*
X95136873Y-109345963D01*
X95023647Y-109311616D01*
X94967033Y-109294443D01*
X94810511Y-109210779D01*
X94810509Y-109210778D01*
X94774771Y-109181448D01*
X94673314Y-109098186D01*
X94590052Y-108996729D01*
X94560722Y-108960991D01*
X94551152Y-108943087D01*
X94477057Y-108804467D01*
X94459884Y-108747853D01*
X94425537Y-108634627D01*
X94408141Y-108458000D01*
X94425537Y-108281373D01*
X94477057Y-108111534D01*
X94477057Y-108111533D01*
X94560721Y-107955011D01*
X94560722Y-107955009D01*
X94590052Y-107919271D01*
X94673314Y-107817814D01*
X94774771Y-107734552D01*
X94810509Y-107705222D01*
X94828413Y-107695652D01*
X94967033Y-107621557D01*
X95023647Y-107604384D01*
X95136873Y-107570037D01*
X95203057Y-107563519D01*
X95269240Y-107557000D01*
X95357760Y-107557000D01*
X95423943Y-107563519D01*
X95423943Y-107563519D01*
G37*
G36*
X85263943Y-107563519D02*
X85330127Y-107570037D01*
X85443353Y-107604384D01*
X85499967Y-107621557D01*
X85638587Y-107695652D01*
X85656491Y-107705222D01*
X85692229Y-107734552D01*
X85793686Y-107817814D01*
X85876948Y-107919271D01*
X85906278Y-107955009D01*
X85906279Y-107955011D01*
X85989943Y-108111533D01*
X85989943Y-108111534D01*
X86041463Y-108281373D01*
X86058859Y-108458000D01*
X86041463Y-108634627D01*
X86007116Y-108747853D01*
X85989943Y-108804467D01*
X85915848Y-108943087D01*
X85906278Y-108960991D01*
X85876948Y-108996729D01*
X85793686Y-109098186D01*
X85692229Y-109181448D01*
X85656491Y-109210778D01*
X85656489Y-109210779D01*
X85499967Y-109294443D01*
X85443353Y-109311616D01*
X85330127Y-109345963D01*
X85263943Y-109352481D01*
X85197760Y-109359000D01*
X85109240Y-109359000D01*
X85043057Y-109352481D01*
X84976873Y-109345963D01*
X84863647Y-109311616D01*
X84807033Y-109294443D01*
X84650511Y-109210779D01*
X84650509Y-109210778D01*
X84614771Y-109181448D01*
X84513314Y-109098186D01*
X84430052Y-108996729D01*
X84400722Y-108960991D01*
X84391152Y-108943087D01*
X84317057Y-108804467D01*
X84299884Y-108747853D01*
X84265537Y-108634627D01*
X84248141Y-108458000D01*
X84265537Y-108281373D01*
X84317057Y-108111534D01*
X84317057Y-108111533D01*
X84400721Y-107955011D01*
X84400722Y-107955009D01*
X84430052Y-107919271D01*
X84513314Y-107817814D01*
X84614771Y-107734552D01*
X84650509Y-107705222D01*
X84668413Y-107695652D01*
X84807033Y-107621557D01*
X84863647Y-107604384D01*
X84976873Y-107570037D01*
X85043057Y-107563519D01*
X85109240Y-107557000D01*
X85197760Y-107557000D01*
X85263943Y-107563519D01*
X85263943Y-107563519D01*
G37*
G36*
X90343943Y-107563519D02*
X90410127Y-107570037D01*
X90523353Y-107604384D01*
X90579967Y-107621557D01*
X90718587Y-107695652D01*
X90736491Y-107705222D01*
X90772229Y-107734552D01*
X90873686Y-107817814D01*
X90956948Y-107919271D01*
X90986278Y-107955009D01*
X90986279Y-107955011D01*
X91069943Y-108111533D01*
X91069943Y-108111534D01*
X91121463Y-108281373D01*
X91138859Y-108458000D01*
X91121463Y-108634627D01*
X91087116Y-108747853D01*
X91069943Y-108804467D01*
X90995848Y-108943087D01*
X90986278Y-108960991D01*
X90956948Y-108996729D01*
X90873686Y-109098186D01*
X90772229Y-109181448D01*
X90736491Y-109210778D01*
X90736489Y-109210779D01*
X90579967Y-109294443D01*
X90523353Y-109311616D01*
X90410127Y-109345963D01*
X90343943Y-109352481D01*
X90277760Y-109359000D01*
X90189240Y-109359000D01*
X90123057Y-109352481D01*
X90056873Y-109345963D01*
X89943647Y-109311616D01*
X89887033Y-109294443D01*
X89730511Y-109210779D01*
X89730509Y-109210778D01*
X89694771Y-109181448D01*
X89593314Y-109098186D01*
X89510052Y-108996729D01*
X89480722Y-108960991D01*
X89471152Y-108943087D01*
X89397057Y-108804467D01*
X89379884Y-108747853D01*
X89345537Y-108634627D01*
X89328141Y-108458000D01*
X89345537Y-108281373D01*
X89397057Y-108111534D01*
X89397057Y-108111533D01*
X89480721Y-107955011D01*
X89480722Y-107955009D01*
X89510052Y-107919271D01*
X89593314Y-107817814D01*
X89694771Y-107734552D01*
X89730509Y-107705222D01*
X89748413Y-107695652D01*
X89887033Y-107621557D01*
X89943647Y-107604384D01*
X90056873Y-107570037D01*
X90123057Y-107563519D01*
X90189240Y-107557000D01*
X90277760Y-107557000D01*
X90343943Y-107563519D01*
X90343943Y-107563519D01*
G37*
G36*
X87803943Y-107563519D02*
X87870127Y-107570037D01*
X87983353Y-107604384D01*
X88039967Y-107621557D01*
X88178587Y-107695652D01*
X88196491Y-107705222D01*
X88232229Y-107734552D01*
X88333686Y-107817814D01*
X88416948Y-107919271D01*
X88446278Y-107955009D01*
X88446279Y-107955011D01*
X88529943Y-108111533D01*
X88529943Y-108111534D01*
X88581463Y-108281373D01*
X88598859Y-108458000D01*
X88581463Y-108634627D01*
X88547116Y-108747853D01*
X88529943Y-108804467D01*
X88455848Y-108943087D01*
X88446278Y-108960991D01*
X88416948Y-108996729D01*
X88333686Y-109098186D01*
X88232229Y-109181448D01*
X88196491Y-109210778D01*
X88196489Y-109210779D01*
X88039967Y-109294443D01*
X87983353Y-109311616D01*
X87870127Y-109345963D01*
X87803943Y-109352481D01*
X87737760Y-109359000D01*
X87649240Y-109359000D01*
X87583057Y-109352481D01*
X87516873Y-109345963D01*
X87403647Y-109311616D01*
X87347033Y-109294443D01*
X87190511Y-109210779D01*
X87190509Y-109210778D01*
X87154771Y-109181448D01*
X87053314Y-109098186D01*
X86970052Y-108996729D01*
X86940722Y-108960991D01*
X86931152Y-108943087D01*
X86857057Y-108804467D01*
X86839884Y-108747853D01*
X86805537Y-108634627D01*
X86788141Y-108458000D01*
X86805537Y-108281373D01*
X86857057Y-108111534D01*
X86857057Y-108111533D01*
X86940721Y-107955011D01*
X86940722Y-107955009D01*
X86970052Y-107919271D01*
X87053314Y-107817814D01*
X87154771Y-107734552D01*
X87190509Y-107705222D01*
X87208413Y-107695652D01*
X87347033Y-107621557D01*
X87403647Y-107604384D01*
X87516873Y-107570037D01*
X87583057Y-107563519D01*
X87649240Y-107557000D01*
X87737760Y-107557000D01*
X87803943Y-107563519D01*
X87803943Y-107563519D01*
G37*
G36*
X83514500Y-109359000D02*
X81712500Y-109359000D01*
X81712500Y-107557000D01*
X83514500Y-107557000D01*
X83514500Y-109359000D01*
X83514500Y-109359000D01*
G37*
G36*
X105964942Y-105404518D02*
X106031127Y-105411037D01*
X106129902Y-105441000D01*
X106200967Y-105462557D01*
X106339587Y-105536652D01*
X106357491Y-105546222D01*
X106393229Y-105575552D01*
X106494686Y-105658814D01*
X106577948Y-105760271D01*
X106607278Y-105796009D01*
X106607279Y-105796011D01*
X106690943Y-105952533D01*
X106690943Y-105952534D01*
X106742463Y-106122373D01*
X106759859Y-106299000D01*
X106742463Y-106475627D01*
X106708116Y-106588853D01*
X106690943Y-106645467D01*
X106616848Y-106784087D01*
X106607278Y-106801991D01*
X106577948Y-106837729D01*
X106494686Y-106939186D01*
X106393229Y-107022448D01*
X106357491Y-107051778D01*
X106357489Y-107051779D01*
X106200967Y-107135443D01*
X106144353Y-107152616D01*
X106031127Y-107186963D01*
X105964942Y-107193482D01*
X105898760Y-107200000D01*
X105810240Y-107200000D01*
X105744058Y-107193482D01*
X105677873Y-107186963D01*
X105564647Y-107152616D01*
X105508033Y-107135443D01*
X105351511Y-107051779D01*
X105351509Y-107051778D01*
X105315771Y-107022448D01*
X105214314Y-106939186D01*
X105131052Y-106837729D01*
X105101722Y-106801991D01*
X105092152Y-106784087D01*
X105018057Y-106645467D01*
X105000884Y-106588853D01*
X104966537Y-106475627D01*
X104949141Y-106299000D01*
X104966537Y-106122373D01*
X105018057Y-105952534D01*
X105018057Y-105952533D01*
X105101721Y-105796011D01*
X105101722Y-105796009D01*
X105131052Y-105760271D01*
X105214314Y-105658814D01*
X105315771Y-105575552D01*
X105351509Y-105546222D01*
X105369413Y-105536652D01*
X105508033Y-105462557D01*
X105579098Y-105441000D01*
X105677873Y-105411037D01*
X105744058Y-105404518D01*
X105810240Y-105398000D01*
X105898760Y-105398000D01*
X105964942Y-105404518D01*
X105964942Y-105404518D01*
G37*
G36*
X84176500Y-105441000D02*
X82574500Y-105441000D01*
X82574500Y-102839000D01*
X84176500Y-102839000D01*
X84176500Y-105441000D01*
X84176500Y-105441000D01*
G37*
G36*
X105964943Y-102864519D02*
X106031127Y-102871037D01*
X106129902Y-102901000D01*
X106200967Y-102922557D01*
X106339587Y-102996652D01*
X106357491Y-103006222D01*
X106393229Y-103035552D01*
X106494686Y-103118814D01*
X106577948Y-103220271D01*
X106607278Y-103256009D01*
X106607279Y-103256011D01*
X106690943Y-103412533D01*
X106690943Y-103412534D01*
X106742463Y-103582373D01*
X106759859Y-103759000D01*
X106742463Y-103935627D01*
X106715352Y-104025000D01*
X106690943Y-104105467D01*
X106616848Y-104244087D01*
X106607278Y-104261991D01*
X106577948Y-104297729D01*
X106494686Y-104399186D01*
X106393229Y-104482448D01*
X106357491Y-104511778D01*
X106357489Y-104511779D01*
X106200967Y-104595443D01*
X106144353Y-104612616D01*
X106031127Y-104646963D01*
X105964943Y-104653481D01*
X105898760Y-104660000D01*
X105810240Y-104660000D01*
X105744058Y-104653482D01*
X105677873Y-104646963D01*
X105564647Y-104612616D01*
X105508033Y-104595443D01*
X105351511Y-104511779D01*
X105351509Y-104511778D01*
X105315771Y-104482448D01*
X105214314Y-104399186D01*
X105131052Y-104297729D01*
X105101722Y-104261991D01*
X105092152Y-104244087D01*
X105018057Y-104105467D01*
X104993648Y-104025000D01*
X104966537Y-103935627D01*
X104949141Y-103759000D01*
X104966537Y-103582373D01*
X105018057Y-103412534D01*
X105018057Y-103412533D01*
X105101721Y-103256011D01*
X105101722Y-103256009D01*
X105131052Y-103220271D01*
X105214314Y-103118814D01*
X105315771Y-103035552D01*
X105351509Y-103006222D01*
X105369413Y-102996652D01*
X105508033Y-102922557D01*
X105579098Y-102901000D01*
X105677873Y-102871037D01*
X105744058Y-102864518D01*
X105810240Y-102858000D01*
X105898760Y-102858000D01*
X105964943Y-102864519D01*
X105964943Y-102864519D01*
G37*
G36*
X130885500Y-104660000D02*
X129083500Y-104660000D01*
X129083500Y-102858000D01*
X130885500Y-102858000D01*
X130885500Y-104660000D01*
X130885500Y-104660000D01*
G37*
G36*
X91896500Y-104025000D02*
X90094500Y-104025000D01*
X90094500Y-102223000D01*
X91896500Y-102223000D01*
X91896500Y-104025000D01*
X91896500Y-104025000D01*
G37*
G36*
X96976500Y-104025000D02*
X95174500Y-104025000D01*
X95174500Y-102223000D01*
X96976500Y-102223000D01*
X96976500Y-104025000D01*
X96976500Y-104025000D01*
G37*
G36*
X88240500Y-102901000D02*
X86638500Y-102901000D01*
X86638500Y-100299000D01*
X88240500Y-100299000D01*
X88240500Y-102901000D01*
X88240500Y-102901000D01*
G37*
G36*
X80620500Y-102901000D02*
X79018500Y-102901000D01*
X79018500Y-100299000D01*
X80620500Y-100299000D01*
X80620500Y-102901000D01*
X80620500Y-102901000D01*
G37*
G36*
X130094942Y-100324518D02*
X130161127Y-100331037D01*
X130259902Y-100361000D01*
X130330967Y-100382557D01*
X130469587Y-100456652D01*
X130487491Y-100466222D01*
X130523229Y-100495552D01*
X130624686Y-100578814D01*
X130707948Y-100680271D01*
X130737278Y-100716009D01*
X130737279Y-100716011D01*
X130820943Y-100872533D01*
X130820943Y-100872534D01*
X130872463Y-101042373D01*
X130889859Y-101219000D01*
X130872463Y-101395627D01*
X130838116Y-101508853D01*
X130820943Y-101565467D01*
X130746848Y-101704087D01*
X130737278Y-101721991D01*
X130707948Y-101757729D01*
X130624686Y-101859186D01*
X130523229Y-101942448D01*
X130487491Y-101971778D01*
X130487489Y-101971779D01*
X130330967Y-102055443D01*
X130274353Y-102072616D01*
X130161127Y-102106963D01*
X130094942Y-102113482D01*
X130028760Y-102120000D01*
X129940240Y-102120000D01*
X129874058Y-102113482D01*
X129807873Y-102106963D01*
X129694647Y-102072616D01*
X129638033Y-102055443D01*
X129481511Y-101971779D01*
X129481509Y-101971778D01*
X129445771Y-101942448D01*
X129344314Y-101859186D01*
X129261052Y-101757729D01*
X129231722Y-101721991D01*
X129222152Y-101704087D01*
X129148057Y-101565467D01*
X129130884Y-101508853D01*
X129096537Y-101395627D01*
X129079141Y-101219000D01*
X129096537Y-101042373D01*
X129148057Y-100872534D01*
X129148057Y-100872533D01*
X129231721Y-100716011D01*
X129231722Y-100716009D01*
X129261052Y-100680271D01*
X129344314Y-100578814D01*
X129445771Y-100495552D01*
X129481509Y-100466222D01*
X129499413Y-100456652D01*
X129638033Y-100382557D01*
X129709098Y-100361000D01*
X129807873Y-100331037D01*
X129874058Y-100324518D01*
X129940240Y-100318000D01*
X130028760Y-100318000D01*
X130094942Y-100324518D01*
X130094942Y-100324518D01*
G37*
G36*
X105964942Y-100324518D02*
X106031127Y-100331037D01*
X106129902Y-100361000D01*
X106200967Y-100382557D01*
X106339587Y-100456652D01*
X106357491Y-100466222D01*
X106393229Y-100495552D01*
X106494686Y-100578814D01*
X106577948Y-100680271D01*
X106607278Y-100716009D01*
X106607279Y-100716011D01*
X106690943Y-100872533D01*
X106690943Y-100872534D01*
X106742463Y-101042373D01*
X106759859Y-101219000D01*
X106742463Y-101395627D01*
X106708116Y-101508853D01*
X106690943Y-101565467D01*
X106616848Y-101704087D01*
X106607278Y-101721991D01*
X106577948Y-101757729D01*
X106494686Y-101859186D01*
X106393229Y-101942448D01*
X106357491Y-101971778D01*
X106357489Y-101971779D01*
X106200967Y-102055443D01*
X106144353Y-102072616D01*
X106031127Y-102106963D01*
X105964942Y-102113482D01*
X105898760Y-102120000D01*
X105810240Y-102120000D01*
X105744058Y-102113482D01*
X105677873Y-102106963D01*
X105564647Y-102072616D01*
X105508033Y-102055443D01*
X105351511Y-101971779D01*
X105351509Y-101971778D01*
X105315771Y-101942448D01*
X105214314Y-101859186D01*
X105131052Y-101757729D01*
X105101722Y-101721991D01*
X105092152Y-101704087D01*
X105018057Y-101565467D01*
X105000884Y-101508853D01*
X104966537Y-101395627D01*
X104949141Y-101219000D01*
X104966537Y-101042373D01*
X105018057Y-100872534D01*
X105018057Y-100872533D01*
X105101721Y-100716011D01*
X105101722Y-100716009D01*
X105131052Y-100680271D01*
X105214314Y-100578814D01*
X105315771Y-100495552D01*
X105351509Y-100466222D01*
X105369413Y-100456652D01*
X105508033Y-100382557D01*
X105579098Y-100361000D01*
X105677873Y-100331037D01*
X105744058Y-100324518D01*
X105810240Y-100318000D01*
X105898760Y-100318000D01*
X105964942Y-100324518D01*
X105964942Y-100324518D01*
G37*
G36*
X85700500Y-100361000D02*
X84098500Y-100361000D01*
X84098500Y-97759000D01*
X85700500Y-97759000D01*
X85700500Y-100361000D01*
X85700500Y-100361000D01*
G37*
G36*
X93955500Y-100107000D02*
X92353500Y-100107000D01*
X92353500Y-97505000D01*
X93955500Y-97505000D01*
X93955500Y-100107000D01*
X93955500Y-100107000D01*
G37*
G36*
X105964942Y-97784518D02*
X106031127Y-97791037D01*
X106144353Y-97825384D01*
X106200967Y-97842557D01*
X106339587Y-97916652D01*
X106357491Y-97926222D01*
X106393229Y-97955552D01*
X106494686Y-98038814D01*
X106577948Y-98140271D01*
X106607278Y-98176009D01*
X106607279Y-98176011D01*
X106690943Y-98332533D01*
X106690943Y-98332534D01*
X106742463Y-98502373D01*
X106759859Y-98679000D01*
X106742463Y-98855627D01*
X106721950Y-98923250D01*
X106690943Y-99025467D01*
X106631665Y-99136367D01*
X106607278Y-99181991D01*
X106577948Y-99217729D01*
X106494686Y-99319186D01*
X106393229Y-99402448D01*
X106357491Y-99431778D01*
X106357489Y-99431779D01*
X106200967Y-99515443D01*
X106144353Y-99532616D01*
X106031127Y-99566963D01*
X105964943Y-99573481D01*
X105898760Y-99580000D01*
X105810240Y-99580000D01*
X105744058Y-99573482D01*
X105677873Y-99566963D01*
X105564647Y-99532616D01*
X105508033Y-99515443D01*
X105351511Y-99431779D01*
X105351509Y-99431778D01*
X105315771Y-99402448D01*
X105214314Y-99319186D01*
X105131052Y-99217729D01*
X105101722Y-99181991D01*
X105077335Y-99136367D01*
X105018057Y-99025467D01*
X104987050Y-98923250D01*
X104966537Y-98855627D01*
X104949141Y-98679000D01*
X104966537Y-98502373D01*
X105018057Y-98332534D01*
X105018057Y-98332533D01*
X105101721Y-98176011D01*
X105101722Y-98176009D01*
X105131052Y-98140271D01*
X105214314Y-98038814D01*
X105315771Y-97955552D01*
X105351509Y-97926222D01*
X105369413Y-97916652D01*
X105508033Y-97842557D01*
X105564647Y-97825384D01*
X105677873Y-97791037D01*
X105744057Y-97784519D01*
X105810240Y-97778000D01*
X105898760Y-97778000D01*
X105964942Y-97784518D01*
X105964942Y-97784518D01*
G37*
G36*
X130094942Y-97784518D02*
X130161127Y-97791037D01*
X130274353Y-97825384D01*
X130330967Y-97842557D01*
X130469587Y-97916652D01*
X130487491Y-97926222D01*
X130523229Y-97955552D01*
X130624686Y-98038814D01*
X130707948Y-98140271D01*
X130737278Y-98176009D01*
X130737279Y-98176011D01*
X130820943Y-98332533D01*
X130820943Y-98332534D01*
X130872463Y-98502373D01*
X130889859Y-98679000D01*
X130872463Y-98855627D01*
X130851950Y-98923250D01*
X130820943Y-99025467D01*
X130761665Y-99136367D01*
X130737278Y-99181991D01*
X130707948Y-99217729D01*
X130624686Y-99319186D01*
X130523229Y-99402448D01*
X130487491Y-99431778D01*
X130487489Y-99431779D01*
X130330967Y-99515443D01*
X130274353Y-99532616D01*
X130161127Y-99566963D01*
X130094943Y-99573481D01*
X130028760Y-99580000D01*
X129940240Y-99580000D01*
X129874058Y-99573482D01*
X129807873Y-99566963D01*
X129694647Y-99532616D01*
X129638033Y-99515443D01*
X129481511Y-99431779D01*
X129481509Y-99431778D01*
X129445771Y-99402448D01*
X129344314Y-99319186D01*
X129261052Y-99217729D01*
X129231722Y-99181991D01*
X129207335Y-99136367D01*
X129148057Y-99025467D01*
X129117050Y-98923250D01*
X129096537Y-98855627D01*
X129079141Y-98679000D01*
X129096537Y-98502373D01*
X129148057Y-98332534D01*
X129148057Y-98332533D01*
X129231721Y-98176011D01*
X129231722Y-98176009D01*
X129261052Y-98140271D01*
X129344314Y-98038814D01*
X129445771Y-97955552D01*
X129481509Y-97926222D01*
X129499413Y-97916652D01*
X129638033Y-97842557D01*
X129694647Y-97825384D01*
X129807873Y-97791037D01*
X129874057Y-97784519D01*
X129940240Y-97778000D01*
X130028760Y-97778000D01*
X130094942Y-97784518D01*
X130094942Y-97784518D01*
G37*
G36*
X118426091Y-98194585D02*
X118460069Y-98204893D01*
X118491387Y-98221633D01*
X118518839Y-98244161D01*
X118541367Y-98271613D01*
X118558107Y-98302931D01*
X118568415Y-98336909D01*
X118572500Y-98378390D01*
X118572500Y-98979610D01*
X118568415Y-99021091D01*
X118558107Y-99055069D01*
X118541367Y-99086387D01*
X118518839Y-99113839D01*
X118491387Y-99136367D01*
X118460069Y-99153107D01*
X118426091Y-99163415D01*
X118384610Y-99167500D01*
X117708390Y-99167500D01*
X117666909Y-99163415D01*
X117632931Y-99153107D01*
X117601613Y-99136367D01*
X117574161Y-99113839D01*
X117551633Y-99086387D01*
X117534893Y-99055069D01*
X117524585Y-99021091D01*
X117520500Y-98979610D01*
X117520500Y-98378390D01*
X117524585Y-98336909D01*
X117534893Y-98302931D01*
X117551633Y-98271613D01*
X117574161Y-98244161D01*
X117601613Y-98221633D01*
X117632931Y-98204893D01*
X117666909Y-98194585D01*
X117708390Y-98190500D01*
X118384610Y-98190500D01*
X118426091Y-98194585D01*
X118426091Y-98194585D01*
G37*
G36*
X118426091Y-96619585D02*
X118460069Y-96629893D01*
X118491387Y-96646633D01*
X118518839Y-96669161D01*
X118541367Y-96696613D01*
X118558107Y-96727931D01*
X118568415Y-96761909D01*
X118572500Y-96803390D01*
X118572500Y-97404610D01*
X118568415Y-97446091D01*
X118558107Y-97480069D01*
X118541367Y-97511387D01*
X118518839Y-97538839D01*
X118491387Y-97561367D01*
X118460069Y-97578107D01*
X118426091Y-97588415D01*
X118384610Y-97592500D01*
X117708390Y-97592500D01*
X117666909Y-97588415D01*
X117632931Y-97578107D01*
X117601613Y-97561367D01*
X117574161Y-97538839D01*
X117551633Y-97511387D01*
X117534893Y-97480069D01*
X117524585Y-97446091D01*
X117520500Y-97404610D01*
X117520500Y-96803390D01*
X117524585Y-96761909D01*
X117534893Y-96727931D01*
X117551633Y-96696613D01*
X117574161Y-96669161D01*
X117601613Y-96646633D01*
X117632931Y-96629893D01*
X117666909Y-96619585D01*
X117708390Y-96615500D01*
X118384610Y-96615500D01*
X118426091Y-96619585D01*
X118426091Y-96619585D01*
G37*
G36*
X91415500Y-97567000D02*
X89813500Y-97567000D01*
X89813500Y-94965000D01*
X91415500Y-94965000D01*
X91415500Y-97567000D01*
X91415500Y-97567000D01*
G37*
G36*
X99035500Y-97567000D02*
X97433500Y-97567000D01*
X97433500Y-94965000D01*
X99035500Y-94965000D01*
X99035500Y-97567000D01*
X99035500Y-97567000D01*
G37*
G36*
X102024143Y-95622781D02*
X102169915Y-95683162D01*
X102301111Y-95770824D01*
X102412676Y-95882389D01*
X102500338Y-96013585D01*
X102560719Y-96159357D01*
X102591500Y-96314107D01*
X102591500Y-96471893D01*
X102560719Y-96626643D01*
X102500338Y-96772415D01*
X102412676Y-96903611D01*
X102301111Y-97015176D01*
X102169915Y-97102838D01*
X102024143Y-97163219D01*
X101869393Y-97194000D01*
X101711607Y-97194000D01*
X101556857Y-97163219D01*
X101411085Y-97102838D01*
X101279889Y-97015176D01*
X101168324Y-96903611D01*
X101080662Y-96772415D01*
X101020281Y-96626643D01*
X100989500Y-96471893D01*
X100989500Y-96314107D01*
X101020281Y-96159357D01*
X101080662Y-96013585D01*
X101168324Y-95882389D01*
X101279889Y-95770824D01*
X101411085Y-95683162D01*
X101556857Y-95622781D01*
X101711607Y-95592000D01*
X101869393Y-95592000D01*
X102024143Y-95622781D01*
X102024143Y-95622781D01*
G37*
G36*
X105964942Y-95244518D02*
X106031127Y-95251037D01*
X106144353Y-95285384D01*
X106200967Y-95302557D01*
X106339587Y-95376652D01*
X106357491Y-95386222D01*
X106393229Y-95415552D01*
X106494686Y-95498814D01*
X106577948Y-95600271D01*
X106607278Y-95636009D01*
X106607279Y-95636011D01*
X106690943Y-95792533D01*
X106690943Y-95792534D01*
X106742463Y-95962373D01*
X106759859Y-96139000D01*
X106742463Y-96315627D01*
X106708116Y-96428853D01*
X106690943Y-96485467D01*
X106621438Y-96615500D01*
X106607278Y-96641991D01*
X106603468Y-96646633D01*
X106494686Y-96779186D01*
X106396517Y-96859750D01*
X106357491Y-96891778D01*
X106357489Y-96891779D01*
X106200967Y-96975443D01*
X106144353Y-96992616D01*
X106031127Y-97026963D01*
X105964942Y-97033482D01*
X105898760Y-97040000D01*
X105810240Y-97040000D01*
X105744057Y-97033481D01*
X105677873Y-97026963D01*
X105564647Y-96992616D01*
X105508033Y-96975443D01*
X105351511Y-96891779D01*
X105351509Y-96891778D01*
X105312483Y-96859750D01*
X105214314Y-96779186D01*
X105105532Y-96646633D01*
X105101722Y-96641991D01*
X105087562Y-96615500D01*
X105018057Y-96485467D01*
X105000884Y-96428853D01*
X104966537Y-96315627D01*
X104949141Y-96139000D01*
X104966537Y-95962373D01*
X105018057Y-95792534D01*
X105018057Y-95792533D01*
X105101721Y-95636011D01*
X105101722Y-95636009D01*
X105131052Y-95600271D01*
X105214314Y-95498814D01*
X105315771Y-95415552D01*
X105351509Y-95386222D01*
X105369413Y-95376652D01*
X105508033Y-95302557D01*
X105564647Y-95285384D01*
X105677873Y-95251037D01*
X105744058Y-95244518D01*
X105810240Y-95238000D01*
X105898760Y-95238000D01*
X105964942Y-95244518D01*
X105964942Y-95244518D01*
G37*
G36*
X130094942Y-95244518D02*
X130161127Y-95251037D01*
X130274353Y-95285384D01*
X130330967Y-95302557D01*
X130469587Y-95376652D01*
X130487491Y-95386222D01*
X130523229Y-95415552D01*
X130624686Y-95498814D01*
X130707948Y-95600271D01*
X130737278Y-95636009D01*
X130737279Y-95636011D01*
X130820943Y-95792533D01*
X130820943Y-95792534D01*
X130872463Y-95962373D01*
X130889859Y-96139000D01*
X130872463Y-96315627D01*
X130838116Y-96428853D01*
X130820943Y-96485467D01*
X130751438Y-96615500D01*
X130737278Y-96641991D01*
X130733468Y-96646633D01*
X130624686Y-96779186D01*
X130526517Y-96859750D01*
X130487491Y-96891778D01*
X130487489Y-96891779D01*
X130330967Y-96975443D01*
X130274353Y-96992616D01*
X130161127Y-97026963D01*
X130094942Y-97033482D01*
X130028760Y-97040000D01*
X129940240Y-97040000D01*
X129874057Y-97033481D01*
X129807873Y-97026963D01*
X129694647Y-96992616D01*
X129638033Y-96975443D01*
X129481511Y-96891779D01*
X129481509Y-96891778D01*
X129442483Y-96859750D01*
X129344314Y-96779186D01*
X129235532Y-96646633D01*
X129231722Y-96641991D01*
X129217562Y-96615500D01*
X129148057Y-96485467D01*
X129130884Y-96428853D01*
X129096537Y-96315627D01*
X129079141Y-96139000D01*
X129096537Y-95962373D01*
X129148057Y-95792534D01*
X129148057Y-95792533D01*
X129231721Y-95636011D01*
X129231722Y-95636009D01*
X129261052Y-95600271D01*
X129344314Y-95498814D01*
X129445771Y-95415552D01*
X129481509Y-95386222D01*
X129499413Y-95376652D01*
X129638033Y-95302557D01*
X129694647Y-95285384D01*
X129807873Y-95251037D01*
X129874058Y-95244518D01*
X129940240Y-95238000D01*
X130028760Y-95238000D01*
X130094942Y-95244518D01*
X130094942Y-95244518D01*
G37*
G36*
X118426091Y-94892585D02*
X118460069Y-94902893D01*
X118491387Y-94919633D01*
X118518839Y-94942161D01*
X118541367Y-94969613D01*
X118558107Y-95000931D01*
X118568415Y-95034909D01*
X118572500Y-95076390D01*
X118572500Y-95677610D01*
X118568415Y-95719091D01*
X118558107Y-95753069D01*
X118541367Y-95784387D01*
X118518839Y-95811839D01*
X118491387Y-95834367D01*
X118460069Y-95851107D01*
X118426091Y-95861415D01*
X118384610Y-95865500D01*
X117708390Y-95865500D01*
X117666909Y-95861415D01*
X117632931Y-95851107D01*
X117601613Y-95834367D01*
X117574161Y-95811839D01*
X117551633Y-95784387D01*
X117534893Y-95753069D01*
X117524585Y-95719091D01*
X117520500Y-95677610D01*
X117520500Y-95076390D01*
X117524585Y-95034909D01*
X117534893Y-95000931D01*
X117551633Y-94969613D01*
X117574161Y-94942161D01*
X117601613Y-94919633D01*
X117632931Y-94902893D01*
X117666909Y-94892585D01*
X117708390Y-94888500D01*
X118384610Y-94888500D01*
X118426091Y-94892585D01*
X118426091Y-94892585D01*
G37*
G36*
X95479500Y-95027000D02*
X93877500Y-95027000D01*
X93877500Y-92425000D01*
X95479500Y-92425000D01*
X95479500Y-95027000D01*
X95479500Y-95027000D01*
G37*
G36*
X84176500Y-94900000D02*
X82574500Y-94900000D01*
X82574500Y-92298000D01*
X84176500Y-92298000D01*
X84176500Y-94900000D01*
X84176500Y-94900000D01*
G37*
G36*
X106755500Y-94500000D02*
X104953500Y-94500000D01*
X104953500Y-92698000D01*
X106755500Y-92698000D01*
X106755500Y-94500000D01*
X106755500Y-94500000D01*
G37*
G36*
X118426091Y-93317585D02*
X118460069Y-93327893D01*
X118491387Y-93344633D01*
X118518839Y-93367161D01*
X118541367Y-93394613D01*
X118558107Y-93425931D01*
X118568415Y-93459909D01*
X118572500Y-93501390D01*
X118572500Y-94102610D01*
X118568415Y-94144091D01*
X118558107Y-94178069D01*
X118541367Y-94209387D01*
X118518839Y-94236839D01*
X118491387Y-94259367D01*
X118460069Y-94276107D01*
X118426091Y-94286415D01*
X118384610Y-94290500D01*
X117708390Y-94290500D01*
X117666909Y-94286415D01*
X117632931Y-94276107D01*
X117601613Y-94259367D01*
X117574161Y-94236839D01*
X117551633Y-94209387D01*
X117534893Y-94178069D01*
X117524585Y-94144091D01*
X117520500Y-94102610D01*
X117520500Y-93501390D01*
X117524585Y-93459909D01*
X117534893Y-93425931D01*
X117551633Y-93394613D01*
X117574161Y-93367161D01*
X117601613Y-93344633D01*
X117632931Y-93327893D01*
X117666909Y-93317585D01*
X117708390Y-93313500D01*
X118384610Y-93313500D01*
X118426091Y-93317585D01*
X118426091Y-93317585D01*
G37*
G36*
X80620500Y-92360000D02*
X79018500Y-92360000D01*
X79018500Y-89758000D01*
X80620500Y-89758000D01*
X80620500Y-92360000D01*
X80620500Y-92360000D01*
G37*
G36*
X88240500Y-92360000D02*
X86638500Y-92360000D01*
X86638500Y-89758000D01*
X88240500Y-89758000D01*
X88240500Y-92360000D01*
X88240500Y-92360000D01*
G37*
G36*
X102024143Y-90742781D02*
X102169915Y-90803162D01*
X102301111Y-90890824D01*
X102412676Y-91002389D01*
X102500338Y-91133585D01*
X102560719Y-91279357D01*
X102591500Y-91434107D01*
X102591500Y-91591893D01*
X102560719Y-91746643D01*
X102500338Y-91892415D01*
X102412676Y-92023611D01*
X102301111Y-92135176D01*
X102169915Y-92222838D01*
X102024143Y-92283219D01*
X101869393Y-92314000D01*
X101711607Y-92314000D01*
X101556857Y-92283219D01*
X101411085Y-92222838D01*
X101279889Y-92135176D01*
X101168324Y-92023611D01*
X101080662Y-91892415D01*
X101020281Y-91746643D01*
X100989500Y-91591893D01*
X100989500Y-91434107D01*
X101020281Y-91279357D01*
X101080662Y-91133585D01*
X101168324Y-91002389D01*
X101279889Y-90890824D01*
X101411085Y-90803162D01*
X101556857Y-90742781D01*
X101711607Y-90712000D01*
X101869393Y-90712000D01*
X102024143Y-90742781D01*
X102024143Y-90742781D01*
G37*
G36*
X91642500Y-90055000D02*
X89840500Y-90055000D01*
X89840500Y-88253000D01*
X91642500Y-88253000D01*
X91642500Y-90055000D01*
X91642500Y-90055000D01*
G37*
G36*
X85700500Y-89820000D02*
X84098500Y-89820000D01*
X84098500Y-87218000D01*
X85700500Y-87218000D01*
X85700500Y-89820000D01*
X85700500Y-89820000D01*
G37*
G36*
X116915500Y-88658000D02*
X115113500Y-88658000D01*
X115113500Y-86856000D01*
X116915500Y-86856000D01*
X116915500Y-88658000D01*
X116915500Y-88658000D01*
G37*
G36*
X113019065Y-84206389D02*
X113210334Y-84285615D01*
X113382476Y-84400637D01*
X113528863Y-84547024D01*
X113643885Y-84719166D01*
X113723111Y-84910435D01*
X113763500Y-85113484D01*
X113763500Y-85320516D01*
X113723111Y-85523565D01*
X113643885Y-85714834D01*
X113528863Y-85886976D01*
X113382476Y-86033363D01*
X113210334Y-86148385D01*
X113019065Y-86227611D01*
X112816016Y-86268000D01*
X112608984Y-86268000D01*
X112405935Y-86227611D01*
X112214666Y-86148385D01*
X112042524Y-86033363D01*
X111896137Y-85886976D01*
X111781115Y-85714834D01*
X111701889Y-85523565D01*
X111661500Y-85320516D01*
X111661500Y-85113484D01*
X111701889Y-84910435D01*
X111781115Y-84719166D01*
X111896137Y-84547024D01*
X112042524Y-84400637D01*
X112214666Y-84285615D01*
X112405935Y-84206389D01*
X112608984Y-84166000D01*
X112816016Y-84166000D01*
X113019065Y-84206389D01*
X113019065Y-84206389D01*
G37*
G36*
X100827065Y-84206389D02*
X101018334Y-84285615D01*
X101190476Y-84400637D01*
X101336863Y-84547024D01*
X101451885Y-84719166D01*
X101531111Y-84910435D01*
X101571500Y-85113484D01*
X101571500Y-85320516D01*
X101531111Y-85523565D01*
X101451885Y-85714834D01*
X101336863Y-85886976D01*
X101190476Y-86033363D01*
X101018334Y-86148385D01*
X100827065Y-86227611D01*
X100624016Y-86268000D01*
X100416984Y-86268000D01*
X100213935Y-86227611D01*
X100022666Y-86148385D01*
X99850524Y-86033363D01*
X99704137Y-85886976D01*
X99589115Y-85714834D01*
X99509889Y-85523565D01*
X99469500Y-85320516D01*
X99469500Y-85113484D01*
X99509889Y-84910435D01*
X99589115Y-84719166D01*
X99704137Y-84547024D01*
X99850524Y-84400637D01*
X100022666Y-84285615D01*
X100213935Y-84206389D01*
X100416984Y-84166000D01*
X100624016Y-84166000D01*
X100827065Y-84206389D01*
X100827065Y-84206389D01*
G37*
G36*
X116124942Y-84322518D02*
X116191127Y-84329037D01*
X116302999Y-84362973D01*
X116360967Y-84380557D01*
X116398533Y-84400637D01*
X116517491Y-84464222D01*
X116553229Y-84493552D01*
X116654686Y-84576814D01*
X116737948Y-84678271D01*
X116767278Y-84714009D01*
X116767279Y-84714011D01*
X116850943Y-84870533D01*
X116850943Y-84870534D01*
X116902463Y-85040373D01*
X116919859Y-85217000D01*
X116902463Y-85393627D01*
X116868116Y-85506853D01*
X116850943Y-85563467D01*
X116776848Y-85702087D01*
X116767278Y-85719991D01*
X116737948Y-85755729D01*
X116654686Y-85857186D01*
X116553229Y-85940448D01*
X116517491Y-85969778D01*
X116517489Y-85969779D01*
X116360967Y-86053443D01*
X116304353Y-86070616D01*
X116191127Y-86104963D01*
X116124942Y-86111482D01*
X116058760Y-86118000D01*
X115970240Y-86118000D01*
X115904058Y-86111482D01*
X115837873Y-86104963D01*
X115724647Y-86070616D01*
X115668033Y-86053443D01*
X115511511Y-85969779D01*
X115511509Y-85969778D01*
X115475771Y-85940448D01*
X115374314Y-85857186D01*
X115291052Y-85755729D01*
X115261722Y-85719991D01*
X115252152Y-85702087D01*
X115178057Y-85563467D01*
X115160884Y-85506853D01*
X115126537Y-85393627D01*
X115109141Y-85217000D01*
X115126537Y-85040373D01*
X115178057Y-84870534D01*
X115178057Y-84870533D01*
X115261721Y-84714011D01*
X115261722Y-84714009D01*
X115291052Y-84678271D01*
X115374314Y-84576814D01*
X115475771Y-84493552D01*
X115511509Y-84464222D01*
X115630467Y-84400637D01*
X115668033Y-84380557D01*
X115726001Y-84362973D01*
X115837873Y-84329037D01*
X115904058Y-84322518D01*
X115970240Y-84316000D01*
X116058760Y-84316000D01*
X116124942Y-84322518D01*
X116124942Y-84322518D01*
G37*
G36*
X87803943Y-83433519D02*
X87870127Y-83440037D01*
X87983353Y-83474384D01*
X88039967Y-83491557D01*
X88080912Y-83513443D01*
X88196491Y-83575222D01*
X88232229Y-83604552D01*
X88333686Y-83687814D01*
X88416948Y-83789271D01*
X88446278Y-83825009D01*
X88446279Y-83825011D01*
X88529943Y-83981533D01*
X88529943Y-83981534D01*
X88581463Y-84151373D01*
X88598859Y-84328000D01*
X88581463Y-84504627D01*
X88568602Y-84547024D01*
X88529943Y-84674467D01*
X88492776Y-84744000D01*
X88446278Y-84830991D01*
X88416948Y-84866729D01*
X88333686Y-84968186D01*
X88245722Y-85040375D01*
X88196491Y-85080778D01*
X88196489Y-85080779D01*
X88039967Y-85164443D01*
X87983353Y-85181616D01*
X87870127Y-85215963D01*
X87803943Y-85222481D01*
X87737760Y-85229000D01*
X87649240Y-85229000D01*
X87583057Y-85222481D01*
X87516873Y-85215963D01*
X87403647Y-85181616D01*
X87347033Y-85164443D01*
X87190511Y-85080779D01*
X87190509Y-85080778D01*
X87141278Y-85040375D01*
X87053314Y-84968186D01*
X86970052Y-84866729D01*
X86940722Y-84830991D01*
X86894224Y-84744000D01*
X86857057Y-84674467D01*
X86818398Y-84547024D01*
X86805537Y-84504627D01*
X86788141Y-84328000D01*
X86805537Y-84151373D01*
X86857057Y-83981534D01*
X86857057Y-83981533D01*
X86940721Y-83825011D01*
X86940722Y-83825009D01*
X86970052Y-83789271D01*
X87053314Y-83687814D01*
X87154771Y-83604552D01*
X87190509Y-83575222D01*
X87306088Y-83513443D01*
X87347033Y-83491557D01*
X87403647Y-83474384D01*
X87516873Y-83440037D01*
X87583057Y-83433519D01*
X87649240Y-83427000D01*
X87737760Y-83427000D01*
X87803943Y-83433519D01*
X87803943Y-83433519D01*
G37*
G36*
X90343943Y-83433519D02*
X90410127Y-83440037D01*
X90523353Y-83474384D01*
X90579967Y-83491557D01*
X90620912Y-83513443D01*
X90736491Y-83575222D01*
X90772229Y-83604552D01*
X90873686Y-83687814D01*
X90956948Y-83789271D01*
X90986278Y-83825009D01*
X90986279Y-83825011D01*
X91069943Y-83981533D01*
X91069943Y-83981534D01*
X91121463Y-84151373D01*
X91138859Y-84328000D01*
X91121463Y-84504627D01*
X91108602Y-84547024D01*
X91069943Y-84674467D01*
X91032776Y-84744000D01*
X90986278Y-84830991D01*
X90956948Y-84866729D01*
X90873686Y-84968186D01*
X90785722Y-85040375D01*
X90736491Y-85080778D01*
X90736489Y-85080779D01*
X90579967Y-85164443D01*
X90523353Y-85181616D01*
X90410127Y-85215963D01*
X90343943Y-85222481D01*
X90277760Y-85229000D01*
X90189240Y-85229000D01*
X90123057Y-85222481D01*
X90056873Y-85215963D01*
X89943647Y-85181616D01*
X89887033Y-85164443D01*
X89730511Y-85080779D01*
X89730509Y-85080778D01*
X89681278Y-85040375D01*
X89593314Y-84968186D01*
X89510052Y-84866729D01*
X89480722Y-84830991D01*
X89434224Y-84744000D01*
X89397057Y-84674467D01*
X89358398Y-84547024D01*
X89345537Y-84504627D01*
X89328141Y-84328000D01*
X89345537Y-84151373D01*
X89397057Y-83981534D01*
X89397057Y-83981533D01*
X89480721Y-83825011D01*
X89480722Y-83825009D01*
X89510052Y-83789271D01*
X89593314Y-83687814D01*
X89694771Y-83604552D01*
X89730509Y-83575222D01*
X89846088Y-83513443D01*
X89887033Y-83491557D01*
X89943647Y-83474384D01*
X90056873Y-83440037D01*
X90123057Y-83433519D01*
X90189240Y-83427000D01*
X90277760Y-83427000D01*
X90343943Y-83433519D01*
X90343943Y-83433519D01*
G37*
G36*
X93674500Y-85229000D02*
X91872500Y-85229000D01*
X91872500Y-83427000D01*
X93674500Y-83427000D01*
X93674500Y-85229000D01*
X93674500Y-85229000D01*
G37*
G36*
X85263943Y-83433519D02*
X85330127Y-83440037D01*
X85443353Y-83474384D01*
X85499967Y-83491557D01*
X85540912Y-83513443D01*
X85656491Y-83575222D01*
X85692229Y-83604552D01*
X85793686Y-83687814D01*
X85876948Y-83789271D01*
X85906278Y-83825009D01*
X85906279Y-83825011D01*
X85989943Y-83981533D01*
X85989943Y-83981534D01*
X86041463Y-84151373D01*
X86058859Y-84328000D01*
X86041463Y-84504627D01*
X86028602Y-84547024D01*
X85989943Y-84674467D01*
X85952776Y-84744000D01*
X85906278Y-84830991D01*
X85876948Y-84866729D01*
X85793686Y-84968186D01*
X85705722Y-85040375D01*
X85656491Y-85080778D01*
X85656489Y-85080779D01*
X85499967Y-85164443D01*
X85443353Y-85181616D01*
X85330127Y-85215963D01*
X85263943Y-85222481D01*
X85197760Y-85229000D01*
X85109240Y-85229000D01*
X85043057Y-85222481D01*
X84976873Y-85215963D01*
X84863647Y-85181616D01*
X84807033Y-85164443D01*
X84650511Y-85080779D01*
X84650509Y-85080778D01*
X84601278Y-85040375D01*
X84513314Y-84968186D01*
X84430052Y-84866729D01*
X84400722Y-84830991D01*
X84354224Y-84744000D01*
X84317057Y-84674467D01*
X84278398Y-84547024D01*
X84265537Y-84504627D01*
X84248141Y-84328000D01*
X84265537Y-84151373D01*
X84317057Y-83981534D01*
X84317057Y-83981533D01*
X84400721Y-83825011D01*
X84400722Y-83825009D01*
X84430052Y-83789271D01*
X84513314Y-83687814D01*
X84614771Y-83604552D01*
X84650509Y-83575222D01*
X84766088Y-83513443D01*
X84807033Y-83491557D01*
X84863647Y-83474384D01*
X84976873Y-83440037D01*
X85043057Y-83433519D01*
X85109240Y-83427000D01*
X85197760Y-83427000D01*
X85263943Y-83433519D01*
X85263943Y-83433519D01*
G37*
G36*
X152389065Y-82682389D02*
X152580334Y-82761615D01*
X152752476Y-82876637D01*
X152898863Y-83023024D01*
X153013885Y-83195166D01*
X153093111Y-83386435D01*
X153133500Y-83589484D01*
X153133500Y-83796516D01*
X153093111Y-83999565D01*
X153013885Y-84190834D01*
X152898863Y-84362976D01*
X152752476Y-84509363D01*
X152580334Y-84624385D01*
X152389065Y-84703611D01*
X152186016Y-84744000D01*
X151978984Y-84744000D01*
X151775935Y-84703611D01*
X151584666Y-84624385D01*
X151412524Y-84509363D01*
X151266137Y-84362976D01*
X151151115Y-84190834D01*
X151071889Y-83999565D01*
X151031500Y-83796516D01*
X151031500Y-83589484D01*
X151071889Y-83386435D01*
X151151115Y-83195166D01*
X151266137Y-83023024D01*
X151412524Y-82876637D01*
X151584666Y-82761615D01*
X151775935Y-82682389D01*
X151978984Y-82642000D01*
X152186016Y-82642000D01*
X152389065Y-82682389D01*
X152389065Y-82682389D01*
G37*
G36*
X149849065Y-82682389D02*
X150040334Y-82761615D01*
X150212476Y-82876637D01*
X150358863Y-83023024D01*
X150473885Y-83195166D01*
X150553111Y-83386435D01*
X150593500Y-83589484D01*
X150593500Y-83796516D01*
X150553111Y-83999565D01*
X150473885Y-84190834D01*
X150358863Y-84362976D01*
X150212476Y-84509363D01*
X150040334Y-84624385D01*
X149849065Y-84703611D01*
X149646016Y-84744000D01*
X149438984Y-84744000D01*
X149235935Y-84703611D01*
X149044666Y-84624385D01*
X148872524Y-84509363D01*
X148726137Y-84362976D01*
X148611115Y-84190834D01*
X148531889Y-83999565D01*
X148491500Y-83796516D01*
X148491500Y-83589484D01*
X148531889Y-83386435D01*
X148611115Y-83195166D01*
X148726137Y-83023024D01*
X148872524Y-82876637D01*
X149044666Y-82761615D01*
X149235935Y-82682389D01*
X149438984Y-82642000D01*
X149646016Y-82642000D01*
X149849065Y-82682389D01*
X149849065Y-82682389D01*
G37*
G36*
X147309065Y-82682389D02*
X147500334Y-82761615D01*
X147672476Y-82876637D01*
X147818863Y-83023024D01*
X147933885Y-83195166D01*
X148013111Y-83386435D01*
X148053500Y-83589484D01*
X148053500Y-83796516D01*
X148013111Y-83999565D01*
X147933885Y-84190834D01*
X147818863Y-84362976D01*
X147672476Y-84509363D01*
X147500334Y-84624385D01*
X147309065Y-84703611D01*
X147106016Y-84744000D01*
X146898984Y-84744000D01*
X146695935Y-84703611D01*
X146504666Y-84624385D01*
X146332524Y-84509363D01*
X146186137Y-84362976D01*
X146071115Y-84190834D01*
X145991889Y-83999565D01*
X145951500Y-83796516D01*
X145951500Y-83589484D01*
X145991889Y-83386435D01*
X146071115Y-83195166D01*
X146186137Y-83023024D01*
X146332524Y-82876637D01*
X146504666Y-82761615D01*
X146695935Y-82682389D01*
X146898984Y-82642000D01*
X147106016Y-82642000D01*
X147309065Y-82682389D01*
X147309065Y-82682389D01*
G37*
G36*
X116124943Y-81782519D02*
X116191127Y-81789037D01*
X116304353Y-81823384D01*
X116360967Y-81840557D01*
X116499587Y-81914652D01*
X116517491Y-81924222D01*
X116553229Y-81953552D01*
X116654686Y-82036814D01*
X116737948Y-82138271D01*
X116767278Y-82174009D01*
X116767279Y-82174011D01*
X116850943Y-82330533D01*
X116850943Y-82330534D01*
X116902463Y-82500373D01*
X116919859Y-82677000D01*
X116902463Y-82853627D01*
X116895483Y-82876637D01*
X116850943Y-83023467D01*
X116776848Y-83162087D01*
X116767278Y-83179991D01*
X116754825Y-83195165D01*
X116654686Y-83317186D01*
X116553229Y-83400448D01*
X116517491Y-83429778D01*
X116517489Y-83429779D01*
X116360967Y-83513443D01*
X116304353Y-83530616D01*
X116191127Y-83564963D01*
X116124943Y-83571481D01*
X116058760Y-83578000D01*
X115970240Y-83578000D01*
X115904057Y-83571481D01*
X115837873Y-83564963D01*
X115724647Y-83530616D01*
X115668033Y-83513443D01*
X115511511Y-83429779D01*
X115511509Y-83429778D01*
X115475771Y-83400448D01*
X115374314Y-83317186D01*
X115274175Y-83195165D01*
X115261722Y-83179991D01*
X115252152Y-83162087D01*
X115178057Y-83023467D01*
X115133517Y-82876637D01*
X115126537Y-82853627D01*
X115109141Y-82677000D01*
X115126537Y-82500373D01*
X115178057Y-82330534D01*
X115178057Y-82330533D01*
X115261721Y-82174011D01*
X115261722Y-82174009D01*
X115291052Y-82138271D01*
X115374314Y-82036814D01*
X115475771Y-81953552D01*
X115511509Y-81924222D01*
X115529413Y-81914652D01*
X115668033Y-81840557D01*
X115724647Y-81823384D01*
X115837873Y-81789037D01*
X115904057Y-81782519D01*
X115970240Y-81776000D01*
X116058760Y-81776000D01*
X116124943Y-81782519D01*
X116124943Y-81782519D01*
G37*
G36*
X87803942Y-80385518D02*
X87870127Y-80392037D01*
X87983353Y-80426384D01*
X88039967Y-80443557D01*
X88114630Y-80483466D01*
X88196491Y-80527222D01*
X88232229Y-80556552D01*
X88333686Y-80639814D01*
X88416948Y-80741271D01*
X88446278Y-80777009D01*
X88446279Y-80777011D01*
X88529943Y-80933533D01*
X88529943Y-80933534D01*
X88581463Y-81103373D01*
X88598859Y-81280000D01*
X88581463Y-81456627D01*
X88547116Y-81569853D01*
X88529943Y-81626467D01*
X88455848Y-81765087D01*
X88446278Y-81782991D01*
X88441316Y-81789037D01*
X88333686Y-81920186D01*
X88232229Y-82003448D01*
X88196491Y-82032778D01*
X88196489Y-82032779D01*
X88039967Y-82116443D01*
X87983353Y-82133616D01*
X87870127Y-82167963D01*
X87803943Y-82174481D01*
X87737760Y-82181000D01*
X87649240Y-82181000D01*
X87583057Y-82174481D01*
X87516873Y-82167963D01*
X87403647Y-82133616D01*
X87347033Y-82116443D01*
X87190511Y-82032779D01*
X87190509Y-82032778D01*
X87154771Y-82003448D01*
X87053314Y-81920186D01*
X86945684Y-81789037D01*
X86940722Y-81782991D01*
X86931152Y-81765087D01*
X86857057Y-81626467D01*
X86839884Y-81569853D01*
X86805537Y-81456627D01*
X86788141Y-81280000D01*
X86805537Y-81103373D01*
X86857057Y-80933534D01*
X86857057Y-80933533D01*
X86940721Y-80777011D01*
X86940722Y-80777009D01*
X86970052Y-80741271D01*
X87053314Y-80639814D01*
X87154771Y-80556552D01*
X87190509Y-80527222D01*
X87272370Y-80483466D01*
X87347033Y-80443557D01*
X87403647Y-80426384D01*
X87516873Y-80392037D01*
X87583058Y-80385518D01*
X87649240Y-80379000D01*
X87737760Y-80379000D01*
X87803942Y-80385518D01*
X87803942Y-80385518D01*
G37*
G36*
X90343942Y-80385518D02*
X90410127Y-80392037D01*
X90523353Y-80426384D01*
X90579967Y-80443557D01*
X90654630Y-80483466D01*
X90736491Y-80527222D01*
X90772229Y-80556552D01*
X90873686Y-80639814D01*
X90956948Y-80741271D01*
X90986278Y-80777009D01*
X90986279Y-80777011D01*
X91069943Y-80933533D01*
X91069943Y-80933534D01*
X91121463Y-81103373D01*
X91138859Y-81280000D01*
X91121463Y-81456627D01*
X91087116Y-81569853D01*
X91069943Y-81626467D01*
X90995848Y-81765087D01*
X90986278Y-81782991D01*
X90981316Y-81789037D01*
X90873686Y-81920186D01*
X90772229Y-82003448D01*
X90736491Y-82032778D01*
X90736489Y-82032779D01*
X90579967Y-82116443D01*
X90523353Y-82133616D01*
X90410127Y-82167963D01*
X90343943Y-82174481D01*
X90277760Y-82181000D01*
X90189240Y-82181000D01*
X90123057Y-82174481D01*
X90056873Y-82167963D01*
X89943647Y-82133616D01*
X89887033Y-82116443D01*
X89730511Y-82032779D01*
X89730509Y-82032778D01*
X89694771Y-82003448D01*
X89593314Y-81920186D01*
X89485684Y-81789037D01*
X89480722Y-81782991D01*
X89471152Y-81765087D01*
X89397057Y-81626467D01*
X89379884Y-81569853D01*
X89345537Y-81456627D01*
X89328141Y-81280000D01*
X89345537Y-81103373D01*
X89397057Y-80933534D01*
X89397057Y-80933533D01*
X89480721Y-80777011D01*
X89480722Y-80777009D01*
X89510052Y-80741271D01*
X89593314Y-80639814D01*
X89694771Y-80556552D01*
X89730509Y-80527222D01*
X89812370Y-80483466D01*
X89887033Y-80443557D01*
X89943647Y-80426384D01*
X90056873Y-80392037D01*
X90123058Y-80385518D01*
X90189240Y-80379000D01*
X90277760Y-80379000D01*
X90343942Y-80385518D01*
X90343942Y-80385518D01*
G37*
G36*
X85263942Y-80385518D02*
X85330127Y-80392037D01*
X85443353Y-80426384D01*
X85499967Y-80443557D01*
X85574630Y-80483466D01*
X85656491Y-80527222D01*
X85692229Y-80556552D01*
X85793686Y-80639814D01*
X85876948Y-80741271D01*
X85906278Y-80777009D01*
X85906279Y-80777011D01*
X85989943Y-80933533D01*
X85989943Y-80933534D01*
X86041463Y-81103373D01*
X86058859Y-81280000D01*
X86041463Y-81456627D01*
X86007116Y-81569853D01*
X85989943Y-81626467D01*
X85915848Y-81765087D01*
X85906278Y-81782991D01*
X85901316Y-81789037D01*
X85793686Y-81920186D01*
X85692229Y-82003448D01*
X85656491Y-82032778D01*
X85656489Y-82032779D01*
X85499967Y-82116443D01*
X85443353Y-82133616D01*
X85330127Y-82167963D01*
X85263943Y-82174481D01*
X85197760Y-82181000D01*
X85109240Y-82181000D01*
X85043057Y-82174481D01*
X84976873Y-82167963D01*
X84863647Y-82133616D01*
X84807033Y-82116443D01*
X84650511Y-82032779D01*
X84650509Y-82032778D01*
X84614771Y-82003448D01*
X84513314Y-81920186D01*
X84405684Y-81789037D01*
X84400722Y-81782991D01*
X84391152Y-81765087D01*
X84317057Y-81626467D01*
X84299884Y-81569853D01*
X84265537Y-81456627D01*
X84248141Y-81280000D01*
X84265537Y-81103373D01*
X84317057Y-80933534D01*
X84317057Y-80933533D01*
X84400721Y-80777011D01*
X84400722Y-80777009D01*
X84430052Y-80741271D01*
X84513314Y-80639814D01*
X84614771Y-80556552D01*
X84650509Y-80527222D01*
X84732370Y-80483466D01*
X84807033Y-80443557D01*
X84863647Y-80426384D01*
X84976873Y-80392037D01*
X85043058Y-80385518D01*
X85109240Y-80379000D01*
X85197760Y-80379000D01*
X85263942Y-80385518D01*
X85263942Y-80385518D01*
G37*
G36*
X93674500Y-82181000D02*
X91872500Y-82181000D01*
X91872500Y-80379000D01*
X93674500Y-80379000D01*
X93674500Y-82181000D01*
X93674500Y-82181000D01*
G37*
G36*
X128839985Y-79099514D02*
X128839987Y-79099515D01*
X128839988Y-79099515D01*
X128904870Y-79126390D01*
X129076755Y-79197587D01*
X129289842Y-79339967D01*
X129471051Y-79521176D01*
X129471053Y-79521179D01*
X129613431Y-79734263D01*
X129707090Y-79960375D01*
X129711504Y-79971033D01*
X129761500Y-80222379D01*
X129761500Y-80478657D01*
X129711504Y-80730003D01*
X129613431Y-80966773D01*
X129471051Y-81179860D01*
X129289842Y-81361069D01*
X129289839Y-81361071D01*
X129076755Y-81503449D01*
X128839988Y-81601521D01*
X128839987Y-81601521D01*
X128839985Y-81601522D01*
X128588639Y-81651518D01*
X128332361Y-81651518D01*
X128081015Y-81601522D01*
X128081013Y-81601521D01*
X128081012Y-81601521D01*
X127844245Y-81503449D01*
X127631161Y-81361071D01*
X127631158Y-81361069D01*
X127449949Y-81179860D01*
X127307569Y-80966773D01*
X127209496Y-80730003D01*
X127159500Y-80478657D01*
X127159500Y-80222379D01*
X127209496Y-79971033D01*
X127213911Y-79960375D01*
X127307569Y-79734263D01*
X127449947Y-79521179D01*
X127449949Y-79521176D01*
X127631158Y-79339967D01*
X127844245Y-79197587D01*
X128016130Y-79126390D01*
X128081012Y-79099515D01*
X128081013Y-79099515D01*
X128081015Y-79099514D01*
X128332361Y-79049518D01*
X128588639Y-79049518D01*
X128839985Y-79099514D01*
X128839985Y-79099514D01*
G37*
G36*
X113019065Y-79126389D02*
X113210334Y-79205615D01*
X113382476Y-79320637D01*
X113528863Y-79467024D01*
X113643885Y-79639166D01*
X113723111Y-79830435D01*
X113763500Y-80033484D01*
X113763500Y-80240516D01*
X113723111Y-80443565D01*
X113643885Y-80634834D01*
X113528863Y-80806976D01*
X113382476Y-80953363D01*
X113210334Y-81068385D01*
X113019065Y-81147611D01*
X112816016Y-81188000D01*
X112608984Y-81188000D01*
X112405935Y-81147611D01*
X112214666Y-81068385D01*
X112042524Y-80953363D01*
X111896137Y-80806976D01*
X111781115Y-80634834D01*
X111701889Y-80443565D01*
X111661500Y-80240516D01*
X111661500Y-80033484D01*
X111701889Y-79830435D01*
X111781115Y-79639166D01*
X111896137Y-79467024D01*
X112042524Y-79320637D01*
X112214666Y-79205615D01*
X112405935Y-79126389D01*
X112608984Y-79086000D01*
X112816016Y-79086000D01*
X113019065Y-79126389D01*
X113019065Y-79126389D01*
G37*
G36*
X100827065Y-79126389D02*
X101018334Y-79205615D01*
X101190476Y-79320637D01*
X101336863Y-79467024D01*
X101451885Y-79639166D01*
X101531111Y-79830435D01*
X101571500Y-80033484D01*
X101571500Y-80240516D01*
X101531111Y-80443565D01*
X101451885Y-80634834D01*
X101336863Y-80806976D01*
X101190476Y-80953363D01*
X101018334Y-81068385D01*
X100827065Y-81147611D01*
X100624016Y-81188000D01*
X100416984Y-81188000D01*
X100213935Y-81147611D01*
X100022666Y-81068385D01*
X99850524Y-80953363D01*
X99704137Y-80806976D01*
X99589115Y-80634834D01*
X99509889Y-80443565D01*
X99469500Y-80240516D01*
X99469500Y-80033484D01*
X99509889Y-79830435D01*
X99589115Y-79639166D01*
X99704137Y-79467024D01*
X99850524Y-79320637D01*
X100022666Y-79205615D01*
X100213935Y-79126389D01*
X100416984Y-79086000D01*
X100624016Y-79086000D01*
X100827065Y-79126389D01*
X100827065Y-79126389D01*
G37*
G36*
X116124942Y-79242518D02*
X116191127Y-79249037D01*
X116304353Y-79283384D01*
X116360967Y-79300557D01*
X116454077Y-79350326D01*
X116517491Y-79384222D01*
X116553229Y-79413552D01*
X116654686Y-79496814D01*
X116737948Y-79598271D01*
X116767278Y-79634009D01*
X116767279Y-79634011D01*
X116850943Y-79790533D01*
X116850943Y-79790534D01*
X116902463Y-79960373D01*
X116919859Y-80137000D01*
X116902463Y-80313627D01*
X116868116Y-80426853D01*
X116850943Y-80483467D01*
X116827555Y-80527222D01*
X116767278Y-80639991D01*
X116737948Y-80675729D01*
X116654686Y-80777186D01*
X116553229Y-80860448D01*
X116517491Y-80889778D01*
X116517489Y-80889779D01*
X116360967Y-80973443D01*
X116304353Y-80990616D01*
X116191127Y-81024963D01*
X116124943Y-81031481D01*
X116058760Y-81038000D01*
X115970240Y-81038000D01*
X115904057Y-81031481D01*
X115837873Y-81024963D01*
X115724647Y-80990616D01*
X115668033Y-80973443D01*
X115511511Y-80889779D01*
X115511509Y-80889778D01*
X115475771Y-80860448D01*
X115374314Y-80777186D01*
X115291052Y-80675729D01*
X115261722Y-80639991D01*
X115201445Y-80527222D01*
X115178057Y-80483467D01*
X115160884Y-80426853D01*
X115126537Y-80313627D01*
X115109141Y-80137000D01*
X115126537Y-79960373D01*
X115178057Y-79790534D01*
X115178057Y-79790533D01*
X115261721Y-79634011D01*
X115261722Y-79634009D01*
X115291052Y-79598271D01*
X115374314Y-79496814D01*
X115475771Y-79413552D01*
X115511509Y-79384222D01*
X115574923Y-79350326D01*
X115668033Y-79300557D01*
X115724647Y-79283384D01*
X115837873Y-79249037D01*
X115904058Y-79242518D01*
X115970240Y-79236000D01*
X116058760Y-79236000D01*
X116124942Y-79242518D01*
X116124942Y-79242518D01*
G37*
G36*
X123451831Y-77662673D02*
X123451833Y-77662674D01*
X123451834Y-77662674D01*
X123598729Y-77723520D01*
X123688601Y-77760746D01*
X123901688Y-77903126D01*
X124082897Y-78084335D01*
X124082899Y-78084338D01*
X124225277Y-78297422D01*
X124246964Y-78349778D01*
X124323350Y-78534192D01*
X124373346Y-78785538D01*
X124373346Y-79041816D01*
X124331302Y-79253186D01*
X124323349Y-79293165D01*
X124311970Y-79320637D01*
X124225277Y-79529932D01*
X124082897Y-79743019D01*
X123901688Y-79924228D01*
X123901685Y-79924230D01*
X123688601Y-80066608D01*
X123451834Y-80164680D01*
X123451833Y-80164680D01*
X123451831Y-80164681D01*
X123200485Y-80214677D01*
X122944207Y-80214677D01*
X122692861Y-80164681D01*
X122692859Y-80164680D01*
X122692858Y-80164680D01*
X122456091Y-80066608D01*
X122243007Y-79924230D01*
X122243004Y-79924228D01*
X122061795Y-79743019D01*
X121919415Y-79529932D01*
X121832722Y-79320637D01*
X121821343Y-79293165D01*
X121813391Y-79253186D01*
X121771346Y-79041816D01*
X121771346Y-78785538D01*
X121821342Y-78534192D01*
X121897729Y-78349778D01*
X121919415Y-78297422D01*
X122061793Y-78084338D01*
X122061795Y-78084335D01*
X122243004Y-77903126D01*
X122456091Y-77760746D01*
X122545963Y-77723520D01*
X122692858Y-77662674D01*
X122692859Y-77662674D01*
X122692861Y-77662673D01*
X122944207Y-77612677D01*
X123200485Y-77612677D01*
X123451831Y-77662673D01*
X123451831Y-77662673D01*
G37*
G36*
X134407744Y-77483067D02*
X134407746Y-77483068D01*
X134407747Y-77483068D01*
X134644514Y-77581140D01*
X134857601Y-77723520D01*
X135038810Y-77904729D01*
X135038812Y-77904732D01*
X135181190Y-78117816D01*
X135277272Y-78349778D01*
X135279263Y-78354586D01*
X135329259Y-78605932D01*
X135329259Y-78862210D01*
X135309914Y-78959466D01*
X135279262Y-79113559D01*
X135273947Y-79126390D01*
X135181190Y-79350326D01*
X135038810Y-79563413D01*
X134857601Y-79744622D01*
X134857598Y-79744624D01*
X134644514Y-79887002D01*
X134407747Y-79985074D01*
X134407746Y-79985074D01*
X134407744Y-79985075D01*
X134156398Y-80035071D01*
X133900120Y-80035071D01*
X133648774Y-79985075D01*
X133648772Y-79985074D01*
X133648771Y-79985074D01*
X133412004Y-79887002D01*
X133198920Y-79744624D01*
X133198917Y-79744622D01*
X133017708Y-79563413D01*
X132875328Y-79350326D01*
X132782571Y-79126390D01*
X132777256Y-79113559D01*
X132746605Y-78959466D01*
X132727259Y-78862210D01*
X132727259Y-78605932D01*
X132777255Y-78354586D01*
X132779247Y-78349778D01*
X132875328Y-78117816D01*
X133017706Y-77904732D01*
X133017708Y-77904729D01*
X133198917Y-77723520D01*
X133412004Y-77581140D01*
X133648771Y-77483068D01*
X133648772Y-77483068D01*
X133648774Y-77483067D01*
X133900120Y-77433071D01*
X134156398Y-77433071D01*
X134407744Y-77483067D01*
X134407744Y-77483067D01*
G37*
G36*
X95423943Y-77718519D02*
X95490127Y-77725037D01*
X95603353Y-77759384D01*
X95659967Y-77776557D01*
X95798587Y-77850652D01*
X95816491Y-77860222D01*
X95852229Y-77889552D01*
X95953686Y-77972814D01*
X96036948Y-78074271D01*
X96066278Y-78110009D01*
X96066279Y-78110011D01*
X96149943Y-78266533D01*
X96149943Y-78266534D01*
X96201463Y-78436373D01*
X96218859Y-78613000D01*
X96201463Y-78789627D01*
X96179446Y-78862208D01*
X96149943Y-78959467D01*
X96105927Y-79041814D01*
X96066278Y-79115991D01*
X96036948Y-79151729D01*
X95953686Y-79253186D01*
X95852229Y-79336448D01*
X95816491Y-79365778D01*
X95816489Y-79365779D01*
X95659967Y-79449443D01*
X95603353Y-79466616D01*
X95490127Y-79500963D01*
X95423943Y-79507481D01*
X95357760Y-79514000D01*
X95269240Y-79514000D01*
X95203057Y-79507481D01*
X95136873Y-79500963D01*
X95023647Y-79466616D01*
X94967033Y-79449443D01*
X94810511Y-79365779D01*
X94810509Y-79365778D01*
X94774771Y-79336448D01*
X94673314Y-79253186D01*
X94590052Y-79151729D01*
X94560722Y-79115991D01*
X94521073Y-79041814D01*
X94477057Y-78959467D01*
X94447554Y-78862208D01*
X94425537Y-78789627D01*
X94408141Y-78613000D01*
X94425537Y-78436373D01*
X94477057Y-78266534D01*
X94477057Y-78266533D01*
X94560721Y-78110011D01*
X94560722Y-78110009D01*
X94590052Y-78074271D01*
X94673314Y-77972814D01*
X94774771Y-77889552D01*
X94810509Y-77860222D01*
X94828413Y-77850652D01*
X94967033Y-77776557D01*
X95023647Y-77759384D01*
X95136873Y-77725037D01*
X95203057Y-77718519D01*
X95269240Y-77712000D01*
X95357760Y-77712000D01*
X95423943Y-77718519D01*
X95423943Y-77718519D01*
G37*
G36*
X92883943Y-77718519D02*
X92950127Y-77725037D01*
X93063353Y-77759384D01*
X93119967Y-77776557D01*
X93258587Y-77850652D01*
X93276491Y-77860222D01*
X93312229Y-77889552D01*
X93413686Y-77972814D01*
X93496948Y-78074271D01*
X93526278Y-78110009D01*
X93526279Y-78110011D01*
X93609943Y-78266533D01*
X93609943Y-78266534D01*
X93661463Y-78436373D01*
X93678859Y-78613000D01*
X93661463Y-78789627D01*
X93639446Y-78862208D01*
X93609943Y-78959467D01*
X93565927Y-79041814D01*
X93526278Y-79115991D01*
X93496948Y-79151729D01*
X93413686Y-79253186D01*
X93312229Y-79336448D01*
X93276491Y-79365778D01*
X93276489Y-79365779D01*
X93119967Y-79449443D01*
X93063353Y-79466616D01*
X92950127Y-79500963D01*
X92883943Y-79507481D01*
X92817760Y-79514000D01*
X92729240Y-79514000D01*
X92663057Y-79507481D01*
X92596873Y-79500963D01*
X92483647Y-79466616D01*
X92427033Y-79449443D01*
X92270511Y-79365779D01*
X92270509Y-79365778D01*
X92234771Y-79336448D01*
X92133314Y-79253186D01*
X92050052Y-79151729D01*
X92020722Y-79115991D01*
X91981073Y-79041814D01*
X91937057Y-78959467D01*
X91907554Y-78862208D01*
X91885537Y-78789627D01*
X91868141Y-78613000D01*
X91885537Y-78436373D01*
X91937057Y-78266534D01*
X91937057Y-78266533D01*
X92020721Y-78110011D01*
X92020722Y-78110009D01*
X92050052Y-78074271D01*
X92133314Y-77972814D01*
X92234771Y-77889552D01*
X92270509Y-77860222D01*
X92288413Y-77850652D01*
X92427033Y-77776557D01*
X92483647Y-77759384D01*
X92596873Y-77725037D01*
X92663057Y-77718519D01*
X92729240Y-77712000D01*
X92817760Y-77712000D01*
X92883943Y-77718519D01*
X92883943Y-77718519D01*
G37*
G36*
X85263943Y-77718519D02*
X85330127Y-77725037D01*
X85443353Y-77759384D01*
X85499967Y-77776557D01*
X85638587Y-77850652D01*
X85656491Y-77860222D01*
X85692229Y-77889552D01*
X85793686Y-77972814D01*
X85876948Y-78074271D01*
X85906278Y-78110009D01*
X85906279Y-78110011D01*
X85989943Y-78266533D01*
X85989943Y-78266534D01*
X86041463Y-78436373D01*
X86058859Y-78613000D01*
X86041463Y-78789627D01*
X86019446Y-78862208D01*
X85989943Y-78959467D01*
X85945927Y-79041814D01*
X85906278Y-79115991D01*
X85876948Y-79151729D01*
X85793686Y-79253186D01*
X85692229Y-79336448D01*
X85656491Y-79365778D01*
X85656489Y-79365779D01*
X85499967Y-79449443D01*
X85443353Y-79466616D01*
X85330127Y-79500963D01*
X85263943Y-79507481D01*
X85197760Y-79514000D01*
X85109240Y-79514000D01*
X85043057Y-79507481D01*
X84976873Y-79500963D01*
X84863647Y-79466616D01*
X84807033Y-79449443D01*
X84650511Y-79365779D01*
X84650509Y-79365778D01*
X84614771Y-79336448D01*
X84513314Y-79253186D01*
X84430052Y-79151729D01*
X84400722Y-79115991D01*
X84361073Y-79041814D01*
X84317057Y-78959467D01*
X84287554Y-78862208D01*
X84265537Y-78789627D01*
X84248141Y-78613000D01*
X84265537Y-78436373D01*
X84317057Y-78266534D01*
X84317057Y-78266533D01*
X84400721Y-78110011D01*
X84400722Y-78110009D01*
X84430052Y-78074271D01*
X84513314Y-77972814D01*
X84614771Y-77889552D01*
X84650509Y-77860222D01*
X84668413Y-77850652D01*
X84807033Y-77776557D01*
X84863647Y-77759384D01*
X84976873Y-77725037D01*
X85043057Y-77718519D01*
X85109240Y-77712000D01*
X85197760Y-77712000D01*
X85263943Y-77718519D01*
X85263943Y-77718519D01*
G37*
G36*
X87803943Y-77718519D02*
X87870127Y-77725037D01*
X87983353Y-77759384D01*
X88039967Y-77776557D01*
X88178587Y-77850652D01*
X88196491Y-77860222D01*
X88232229Y-77889552D01*
X88333686Y-77972814D01*
X88416948Y-78074271D01*
X88446278Y-78110009D01*
X88446279Y-78110011D01*
X88529943Y-78266533D01*
X88529943Y-78266534D01*
X88581463Y-78436373D01*
X88598859Y-78613000D01*
X88581463Y-78789627D01*
X88559446Y-78862208D01*
X88529943Y-78959467D01*
X88485927Y-79041814D01*
X88446278Y-79115991D01*
X88416948Y-79151729D01*
X88333686Y-79253186D01*
X88232229Y-79336448D01*
X88196491Y-79365778D01*
X88196489Y-79365779D01*
X88039967Y-79449443D01*
X87983353Y-79466616D01*
X87870127Y-79500963D01*
X87803943Y-79507481D01*
X87737760Y-79514000D01*
X87649240Y-79514000D01*
X87583057Y-79507481D01*
X87516873Y-79500963D01*
X87403647Y-79466616D01*
X87347033Y-79449443D01*
X87190511Y-79365779D01*
X87190509Y-79365778D01*
X87154771Y-79336448D01*
X87053314Y-79253186D01*
X86970052Y-79151729D01*
X86940722Y-79115991D01*
X86901073Y-79041814D01*
X86857057Y-78959467D01*
X86827554Y-78862208D01*
X86805537Y-78789627D01*
X86788141Y-78613000D01*
X86805537Y-78436373D01*
X86857057Y-78266534D01*
X86857057Y-78266533D01*
X86940721Y-78110011D01*
X86940722Y-78110009D01*
X86970052Y-78074271D01*
X87053314Y-77972814D01*
X87154771Y-77889552D01*
X87190509Y-77860222D01*
X87208413Y-77850652D01*
X87347033Y-77776557D01*
X87403647Y-77759384D01*
X87516873Y-77725037D01*
X87583057Y-77718519D01*
X87649240Y-77712000D01*
X87737760Y-77712000D01*
X87803943Y-77718519D01*
X87803943Y-77718519D01*
G37*
G36*
X83514500Y-79514000D02*
X81712500Y-79514000D01*
X81712500Y-77712000D01*
X83514500Y-77712000D01*
X83514500Y-79514000D01*
X83514500Y-79514000D01*
G37*
G36*
X90343943Y-77718519D02*
X90410127Y-77725037D01*
X90523353Y-77759384D01*
X90579967Y-77776557D01*
X90718587Y-77850652D01*
X90736491Y-77860222D01*
X90772229Y-77889552D01*
X90873686Y-77972814D01*
X90956948Y-78074271D01*
X90986278Y-78110009D01*
X90986279Y-78110011D01*
X91069943Y-78266533D01*
X91069943Y-78266534D01*
X91121463Y-78436373D01*
X91138859Y-78613000D01*
X91121463Y-78789627D01*
X91099446Y-78862208D01*
X91069943Y-78959467D01*
X91025927Y-79041814D01*
X90986278Y-79115991D01*
X90956948Y-79151729D01*
X90873686Y-79253186D01*
X90772229Y-79336448D01*
X90736491Y-79365778D01*
X90736489Y-79365779D01*
X90579967Y-79449443D01*
X90523353Y-79466616D01*
X90410127Y-79500963D01*
X90343943Y-79507481D01*
X90277760Y-79514000D01*
X90189240Y-79514000D01*
X90123057Y-79507481D01*
X90056873Y-79500963D01*
X89943647Y-79466616D01*
X89887033Y-79449443D01*
X89730511Y-79365779D01*
X89730509Y-79365778D01*
X89694771Y-79336448D01*
X89593314Y-79253186D01*
X89510052Y-79151729D01*
X89480722Y-79115991D01*
X89441073Y-79041814D01*
X89397057Y-78959467D01*
X89367554Y-78862208D01*
X89345537Y-78789627D01*
X89328141Y-78613000D01*
X89345537Y-78436373D01*
X89397057Y-78266534D01*
X89397057Y-78266533D01*
X89480721Y-78110011D01*
X89480722Y-78110009D01*
X89510052Y-78074271D01*
X89593314Y-77972814D01*
X89694771Y-77889552D01*
X89730509Y-77860222D01*
X89748413Y-77850652D01*
X89887033Y-77776557D01*
X89943647Y-77759384D01*
X90056873Y-77725037D01*
X90123057Y-77718519D01*
X90189240Y-77712000D01*
X90277760Y-77712000D01*
X90343943Y-77718519D01*
X90343943Y-77718519D01*
G37*
G36*
X116124943Y-76702519D02*
X116191127Y-76709037D01*
X116271619Y-76733454D01*
X116360967Y-76760557D01*
X116499587Y-76834652D01*
X116517491Y-76844222D01*
X116553229Y-76873552D01*
X116654686Y-76956814D01*
X116737948Y-77058271D01*
X116767278Y-77094009D01*
X116767279Y-77094011D01*
X116850943Y-77250533D01*
X116850943Y-77250534D01*
X116902463Y-77420373D01*
X116919859Y-77597000D01*
X116902463Y-77773627D01*
X116901574Y-77776557D01*
X116850943Y-77943467D01*
X116835256Y-77972814D01*
X116767278Y-78099991D01*
X116752649Y-78117816D01*
X116654686Y-78237186D01*
X116581287Y-78297422D01*
X116517491Y-78349778D01*
X116508496Y-78354586D01*
X116360967Y-78433443D01*
X116304353Y-78450616D01*
X116191127Y-78484963D01*
X116124942Y-78491482D01*
X116058760Y-78498000D01*
X115970240Y-78498000D01*
X115904058Y-78491482D01*
X115837873Y-78484963D01*
X115724647Y-78450616D01*
X115668033Y-78433443D01*
X115520504Y-78354586D01*
X115511509Y-78349778D01*
X115447713Y-78297422D01*
X115374314Y-78237186D01*
X115276351Y-78117816D01*
X115261722Y-78099991D01*
X115193744Y-77972814D01*
X115178057Y-77943467D01*
X115127426Y-77776557D01*
X115126537Y-77773627D01*
X115109141Y-77597000D01*
X115126537Y-77420373D01*
X115178057Y-77250534D01*
X115178057Y-77250533D01*
X115261721Y-77094011D01*
X115261722Y-77094009D01*
X115291052Y-77058271D01*
X115374314Y-76956814D01*
X115475771Y-76873552D01*
X115511509Y-76844222D01*
X115529413Y-76834652D01*
X115668033Y-76760557D01*
X115757381Y-76733454D01*
X115837873Y-76709037D01*
X115904057Y-76702519D01*
X115970240Y-76696000D01*
X116058760Y-76696000D01*
X116124943Y-76702519D01*
X116124943Y-76702519D01*
G37*
G36*
X157697500Y-77624000D02*
X154595500Y-77624000D01*
X154595500Y-74522000D01*
X157697500Y-74522000D01*
X157697500Y-77624000D01*
X157697500Y-77624000D01*
G37*
G36*
X144489500Y-77370000D02*
X141387500Y-77370000D01*
X141387500Y-74268000D01*
X144489500Y-74268000D01*
X144489500Y-77370000D01*
X144489500Y-77370000D01*
G37*
G36*
X104052896Y-74904546D02*
X104225966Y-74976234D01*
X104381730Y-75080312D01*
X104514188Y-75212770D01*
X104618266Y-75368534D01*
X104689954Y-75541604D01*
X104726500Y-75725333D01*
X104726500Y-75912667D01*
X104689954Y-76096396D01*
X104618266Y-76269466D01*
X104514188Y-76425230D01*
X104381730Y-76557688D01*
X104225966Y-76661766D01*
X104052896Y-76733454D01*
X103869167Y-76770000D01*
X103681833Y-76770000D01*
X103498104Y-76733454D01*
X103325034Y-76661766D01*
X103169270Y-76557688D01*
X103036812Y-76425230D01*
X102932734Y-76269466D01*
X102861046Y-76096396D01*
X102824500Y-75912667D01*
X102824500Y-75725333D01*
X102861046Y-75541604D01*
X102932734Y-75368534D01*
X103036812Y-75212770D01*
X103169270Y-75080312D01*
X103325034Y-74976234D01*
X103498104Y-74904546D01*
X103681833Y-74868000D01*
X103869167Y-74868000D01*
X104052896Y-74904546D01*
X104052896Y-74904546D01*
G37*
G36*
X106552896Y-74904546D02*
X106725966Y-74976234D01*
X106881730Y-75080312D01*
X107014188Y-75212770D01*
X107118266Y-75368534D01*
X107189954Y-75541604D01*
X107226500Y-75725333D01*
X107226500Y-75912667D01*
X107189954Y-76096396D01*
X107118266Y-76269466D01*
X107014188Y-76425230D01*
X106881730Y-76557688D01*
X106725966Y-76661766D01*
X106552896Y-76733454D01*
X106369167Y-76770000D01*
X106181833Y-76770000D01*
X105998104Y-76733454D01*
X105825034Y-76661766D01*
X105669270Y-76557688D01*
X105536812Y-76425230D01*
X105432734Y-76269466D01*
X105361046Y-76096396D01*
X105324500Y-75912667D01*
X105324500Y-75725333D01*
X105361046Y-75541604D01*
X105432734Y-75368534D01*
X105536812Y-75212770D01*
X105669270Y-75080312D01*
X105825034Y-74976234D01*
X105998104Y-74904546D01*
X106181833Y-74868000D01*
X106369167Y-74868000D01*
X106552896Y-74904546D01*
X106552896Y-74904546D01*
G37*
G36*
X109052896Y-74904546D02*
X109225966Y-74976234D01*
X109381730Y-75080312D01*
X109514188Y-75212770D01*
X109618266Y-75368534D01*
X109689954Y-75541604D01*
X109726500Y-75725333D01*
X109726500Y-75912667D01*
X109689954Y-76096396D01*
X109618266Y-76269466D01*
X109514188Y-76425230D01*
X109381730Y-76557688D01*
X109225966Y-76661766D01*
X109052896Y-76733454D01*
X108869167Y-76770000D01*
X108681833Y-76770000D01*
X108498104Y-76733454D01*
X108325034Y-76661766D01*
X108169270Y-76557688D01*
X108036812Y-76425230D01*
X107932734Y-76269466D01*
X107861046Y-76096396D01*
X107824500Y-75912667D01*
X107824500Y-75725333D01*
X107861046Y-75541604D01*
X107932734Y-75368534D01*
X108036812Y-75212770D01*
X108169270Y-75080312D01*
X108325034Y-74976234D01*
X108498104Y-74904546D01*
X108681833Y-74868000D01*
X108869167Y-74868000D01*
X109052896Y-74904546D01*
X109052896Y-74904546D01*
G37*
G36*
X138538662Y-73352150D02*
X138538664Y-73352151D01*
X138538665Y-73352151D01*
X138775432Y-73450223D01*
X138988519Y-73592603D01*
X139169728Y-73773812D01*
X139312108Y-73986899D01*
X139410181Y-74223669D01*
X139460177Y-74475015D01*
X139460177Y-74731293D01*
X139411455Y-74976235D01*
X139410180Y-74982642D01*
X139369724Y-75080312D01*
X139312108Y-75219409D01*
X139169728Y-75432496D01*
X138988519Y-75613705D01*
X138988516Y-75613707D01*
X138775432Y-75756085D01*
X138538665Y-75854157D01*
X138538664Y-75854157D01*
X138538662Y-75854158D01*
X138287316Y-75904154D01*
X138031038Y-75904154D01*
X137779692Y-75854158D01*
X137779690Y-75854157D01*
X137779689Y-75854157D01*
X137542922Y-75756085D01*
X137329838Y-75613707D01*
X137329835Y-75613705D01*
X137148626Y-75432496D01*
X137006246Y-75219409D01*
X136948630Y-75080312D01*
X136908174Y-74982642D01*
X136906900Y-74976235D01*
X136858177Y-74731293D01*
X136858177Y-74475015D01*
X136908173Y-74223669D01*
X137006246Y-73986899D01*
X137148626Y-73773812D01*
X137329835Y-73592603D01*
X137542922Y-73450223D01*
X137779689Y-73352151D01*
X137779690Y-73352151D01*
X137779692Y-73352150D01*
X138031038Y-73302154D01*
X138287316Y-73302154D01*
X138538662Y-73352150D01*
X138538662Y-73352150D01*
G37*
G36*
X119141308Y-73352150D02*
X119141310Y-73352151D01*
X119141311Y-73352151D01*
X119378078Y-73450223D01*
X119591165Y-73592603D01*
X119772374Y-73773812D01*
X119914754Y-73986899D01*
X120012827Y-74223669D01*
X120062823Y-74475015D01*
X120062823Y-74731293D01*
X120014101Y-74976235D01*
X120012826Y-74982642D01*
X119972370Y-75080312D01*
X119914754Y-75219409D01*
X119772374Y-75432496D01*
X119591165Y-75613705D01*
X119591162Y-75613707D01*
X119378078Y-75756085D01*
X119141311Y-75854157D01*
X119141310Y-75854157D01*
X119141308Y-75854158D01*
X118889962Y-75904154D01*
X118633684Y-75904154D01*
X118382338Y-75854158D01*
X118382336Y-75854157D01*
X118382335Y-75854157D01*
X118145568Y-75756085D01*
X117932484Y-75613707D01*
X117932481Y-75613705D01*
X117751272Y-75432496D01*
X117608892Y-75219409D01*
X117551276Y-75080312D01*
X117510820Y-74982642D01*
X117509546Y-74976235D01*
X117460823Y-74731293D01*
X117460823Y-74475015D01*
X117510819Y-74223669D01*
X117608892Y-73986899D01*
X117751272Y-73773812D01*
X117932481Y-73592603D01*
X118145568Y-73450223D01*
X118382335Y-73352151D01*
X118382336Y-73352151D01*
X118382338Y-73352150D01*
X118633684Y-73302154D01*
X118889962Y-73302154D01*
X119141308Y-73352150D01*
X119141308Y-73352150D01*
G37*
G36*
X84176500Y-75596000D02*
X82574500Y-75596000D01*
X82574500Y-72994000D01*
X84176500Y-72994000D01*
X84176500Y-75596000D01*
X84176500Y-75596000D01*
G37*
G36*
X91896500Y-74180000D02*
X90094500Y-74180000D01*
X90094500Y-72378000D01*
X91896500Y-72378000D01*
X91896500Y-74180000D01*
X91896500Y-74180000D01*
G37*
G36*
X96976500Y-74180000D02*
X95174500Y-74180000D01*
X95174500Y-72378000D01*
X96976500Y-72378000D01*
X96976500Y-74180000D01*
X96976500Y-74180000D01*
G37*
G36*
X80620500Y-73056000D02*
X79018500Y-73056000D01*
X79018500Y-70454000D01*
X80620500Y-70454000D01*
X80620500Y-73056000D01*
X80620500Y-73056000D01*
G37*
G36*
X88240500Y-73056000D02*
X86638500Y-73056000D01*
X86638500Y-70454000D01*
X88240500Y-70454000D01*
X88240500Y-73056000D01*
X88240500Y-73056000D01*
G37*
G36*
X111273752Y-66846818D02*
X111273754Y-66846819D01*
X111273755Y-66846819D01*
X111647013Y-67001427D01*
X111647014Y-67001428D01*
X111982939Y-67225886D01*
X112268614Y-67511561D01*
X112268616Y-67511564D01*
X112493073Y-67847487D01*
X112642884Y-68209165D01*
X112647682Y-68220748D01*
X112726500Y-68616993D01*
X112726500Y-69021007D01*
X112648154Y-69414880D01*
X112647681Y-69417255D01*
X112493073Y-69790513D01*
X112322398Y-70045946D01*
X112268614Y-70126439D01*
X111982939Y-70412114D01*
X111982936Y-70412116D01*
X111647013Y-70636573D01*
X111273755Y-70791181D01*
X111273754Y-70791181D01*
X111273752Y-70791182D01*
X110877507Y-70870000D01*
X110473493Y-70870000D01*
X110077248Y-70791182D01*
X110077246Y-70791181D01*
X110077245Y-70791181D01*
X109703987Y-70636573D01*
X109368064Y-70412116D01*
X109368061Y-70412114D01*
X109082386Y-70126439D01*
X109028602Y-70045946D01*
X108857927Y-69790513D01*
X108703319Y-69417255D01*
X108702847Y-69414880D01*
X108624500Y-69021007D01*
X108624500Y-68616993D01*
X108703318Y-68220748D01*
X108708116Y-68209165D01*
X108857927Y-67847487D01*
X109082384Y-67511564D01*
X109082386Y-67511561D01*
X109368061Y-67225886D01*
X109703986Y-67001428D01*
X109703987Y-67001427D01*
X110077245Y-66846819D01*
X110077246Y-66846819D01*
X110077248Y-66846818D01*
X110473493Y-66768000D01*
X110877507Y-66768000D01*
X111273752Y-66846818D01*
X111273752Y-66846818D01*
G37*
G36*
X102473752Y-66846818D02*
X102473754Y-66846819D01*
X102473755Y-66846819D01*
X102847013Y-67001427D01*
X102847014Y-67001428D01*
X103182939Y-67225886D01*
X103468614Y-67511561D01*
X103468616Y-67511564D01*
X103693073Y-67847487D01*
X103842884Y-68209165D01*
X103847682Y-68220748D01*
X103926500Y-68616993D01*
X103926500Y-69021007D01*
X103848154Y-69414880D01*
X103847681Y-69417255D01*
X103693073Y-69790513D01*
X103522398Y-70045946D01*
X103468614Y-70126439D01*
X103182939Y-70412114D01*
X103182936Y-70412116D01*
X102847013Y-70636573D01*
X102473755Y-70791181D01*
X102473754Y-70791181D01*
X102473752Y-70791182D01*
X102077507Y-70870000D01*
X101673493Y-70870000D01*
X101277248Y-70791182D01*
X101277246Y-70791181D01*
X101277245Y-70791181D01*
X100903987Y-70636573D01*
X100568064Y-70412116D01*
X100568061Y-70412114D01*
X100282386Y-70126439D01*
X100228602Y-70045946D01*
X100057927Y-69790513D01*
X99903319Y-69417255D01*
X99902847Y-69414880D01*
X99824500Y-69021007D01*
X99824500Y-68616993D01*
X99903318Y-68220748D01*
X99908116Y-68209165D01*
X100057927Y-67847487D01*
X100282384Y-67511564D01*
X100282386Y-67511561D01*
X100568061Y-67225886D01*
X100903986Y-67001428D01*
X100903987Y-67001427D01*
X101277245Y-66846819D01*
X101277246Y-66846819D01*
X101277248Y-66846818D01*
X101673493Y-66768000D01*
X102077507Y-66768000D01*
X102473752Y-66846818D01*
X102473752Y-66846818D01*
G37*
G36*
X85700500Y-70516000D02*
X84098500Y-70516000D01*
X84098500Y-67914000D01*
X85700500Y-67914000D01*
X85700500Y-70516000D01*
X85700500Y-70516000D01*
G37*
G36*
X117704467Y-67963996D02*
X117704469Y-67963997D01*
X117704470Y-67963997D01*
X117851363Y-68024842D01*
X117941237Y-68062069D01*
X118154324Y-68204449D01*
X118335533Y-68385658D01*
X118335535Y-68385661D01*
X118477913Y-68598745D01*
X118565631Y-68810514D01*
X118575986Y-68835515D01*
X118625982Y-69086861D01*
X118625982Y-69343139D01*
X118575986Y-69594485D01*
X118477913Y-69831255D01*
X118335533Y-70044342D01*
X118154324Y-70225551D01*
X118154321Y-70225553D01*
X117941237Y-70367931D01*
X117704470Y-70466003D01*
X117704469Y-70466003D01*
X117704467Y-70466004D01*
X117453121Y-70516000D01*
X117196843Y-70516000D01*
X116945497Y-70466004D01*
X116945495Y-70466003D01*
X116945494Y-70466003D01*
X116708727Y-70367931D01*
X116495643Y-70225553D01*
X116495640Y-70225551D01*
X116314431Y-70044342D01*
X116172051Y-69831255D01*
X116073978Y-69594485D01*
X116023982Y-69343139D01*
X116023982Y-69086861D01*
X116073978Y-68835515D01*
X116084334Y-68810514D01*
X116172051Y-68598745D01*
X116314429Y-68385661D01*
X116314431Y-68385658D01*
X116495640Y-68204449D01*
X116708727Y-68062069D01*
X116798601Y-68024842D01*
X116945494Y-67963997D01*
X116945495Y-67963997D01*
X116945497Y-67963996D01*
X117196843Y-67914000D01*
X117453121Y-67914000D01*
X117704467Y-67963996D01*
X117704467Y-67963996D01*
G37*
G36*
X140155108Y-67784391D02*
X140155110Y-67784392D01*
X140155111Y-67784392D01*
X140307436Y-67847487D01*
X140391878Y-67882464D01*
X140604965Y-68024844D01*
X140786174Y-68206053D01*
X140786176Y-68206056D01*
X140928554Y-68419140D01*
X141004913Y-68603486D01*
X141026627Y-68655910D01*
X141076623Y-68907256D01*
X141076623Y-69163534D01*
X141034167Y-69376976D01*
X141026626Y-69414883D01*
X141025643Y-69417255D01*
X140928554Y-69651650D01*
X140786174Y-69864737D01*
X140604965Y-70045946D01*
X140604962Y-70045948D01*
X140391878Y-70188326D01*
X140155111Y-70286398D01*
X140155110Y-70286398D01*
X140155108Y-70286399D01*
X139903762Y-70336395D01*
X139647484Y-70336395D01*
X139396138Y-70286399D01*
X139396136Y-70286398D01*
X139396135Y-70286398D01*
X139159368Y-70188326D01*
X138946284Y-70045948D01*
X138946281Y-70045946D01*
X138765072Y-69864737D01*
X138622692Y-69651650D01*
X138525603Y-69417255D01*
X138524620Y-69414883D01*
X138517080Y-69376976D01*
X138474623Y-69163534D01*
X138474623Y-68907256D01*
X138524619Y-68655910D01*
X138546334Y-68603486D01*
X138622692Y-68419140D01*
X138765070Y-68206056D01*
X138765072Y-68206053D01*
X138946281Y-68024844D01*
X139159368Y-67882464D01*
X139243810Y-67847487D01*
X139396135Y-67784392D01*
X139396136Y-67784392D01*
X139396138Y-67784391D01*
X139647484Y-67734395D01*
X139903762Y-67734395D01*
X140155108Y-67784391D01*
X140155108Y-67784391D01*
G37*
G36*
X93955500Y-70262000D02*
X92353500Y-70262000D01*
X92353500Y-67660000D01*
X93955500Y-67660000D01*
X93955500Y-70262000D01*
X93955500Y-70262000D01*
G37*
G36*
X152389065Y-67696389D02*
X152580334Y-67775615D01*
X152752476Y-67890637D01*
X152898863Y-68037024D01*
X153013885Y-68209166D01*
X153093111Y-68400435D01*
X153133500Y-68603484D01*
X153133500Y-68810516D01*
X153093111Y-69013565D01*
X153013885Y-69204834D01*
X152898863Y-69376976D01*
X152752476Y-69523363D01*
X152580334Y-69638385D01*
X152389065Y-69717611D01*
X152186016Y-69758000D01*
X151978984Y-69758000D01*
X151775935Y-69717611D01*
X151584666Y-69638385D01*
X151412524Y-69523363D01*
X151266137Y-69376976D01*
X151151115Y-69204834D01*
X151071889Y-69013565D01*
X151031500Y-68810516D01*
X151031500Y-68603484D01*
X151071889Y-68400435D01*
X151151115Y-68209166D01*
X151266137Y-68037024D01*
X151412524Y-67890637D01*
X151584666Y-67775615D01*
X151775935Y-67696389D01*
X151978984Y-67656000D01*
X152186016Y-67656000D01*
X152389065Y-67696389D01*
X152389065Y-67696389D01*
G37*
G36*
X147309065Y-67696389D02*
X147500334Y-67775615D01*
X147672476Y-67890637D01*
X147818863Y-68037024D01*
X147933885Y-68209166D01*
X148013111Y-68400435D01*
X148053500Y-68603484D01*
X148053500Y-68810516D01*
X148013111Y-69013565D01*
X147933885Y-69204834D01*
X147818863Y-69376976D01*
X147672476Y-69523363D01*
X147500334Y-69638385D01*
X147309065Y-69717611D01*
X147106016Y-69758000D01*
X146898984Y-69758000D01*
X146695935Y-69717611D01*
X146504666Y-69638385D01*
X146332524Y-69523363D01*
X146186137Y-69376976D01*
X146071115Y-69204834D01*
X145991889Y-69013565D01*
X145951500Y-68810516D01*
X145951500Y-68603484D01*
X145991889Y-68400435D01*
X146071115Y-68209166D01*
X146186137Y-68037024D01*
X146332524Y-67890637D01*
X146504666Y-67775615D01*
X146695935Y-67696389D01*
X146898984Y-67656000D01*
X147106016Y-67656000D01*
X147309065Y-67696389D01*
X147309065Y-67696389D01*
G37*
G36*
X149849065Y-67696389D02*
X150040334Y-67775615D01*
X150212476Y-67890637D01*
X150358863Y-68037024D01*
X150473885Y-68209166D01*
X150553111Y-68400435D01*
X150593500Y-68603484D01*
X150593500Y-68810516D01*
X150553111Y-69013565D01*
X150473885Y-69204834D01*
X150358863Y-69376976D01*
X150212476Y-69523363D01*
X150040334Y-69638385D01*
X149849065Y-69717611D01*
X149646016Y-69758000D01*
X149438984Y-69758000D01*
X149235935Y-69717611D01*
X149044666Y-69638385D01*
X148872524Y-69523363D01*
X148726137Y-69376976D01*
X148611115Y-69204834D01*
X148531889Y-69013565D01*
X148491500Y-68810516D01*
X148491500Y-68603484D01*
X148531889Y-68400435D01*
X148611115Y-68209166D01*
X148726137Y-68037024D01*
X148872524Y-67890637D01*
X149044666Y-67775615D01*
X149235935Y-67696389D01*
X149438984Y-67656000D01*
X149646016Y-67656000D01*
X149849065Y-67696389D01*
X149849065Y-67696389D01*
G37*
G36*
X91415500Y-67722000D02*
X89813500Y-67722000D01*
X89813500Y-65120000D01*
X91415500Y-65120000D01*
X91415500Y-67722000D01*
X91415500Y-67722000D01*
G37*
G36*
X99035500Y-67722000D02*
X97433500Y-67722000D01*
X97433500Y-65120000D01*
X99035500Y-65120000D01*
X99035500Y-67722000D01*
X99035500Y-67722000D01*
G37*
G36*
X128839985Y-64012683D02*
X128839987Y-64012684D01*
X128839988Y-64012684D01*
X129011897Y-64083891D01*
X129076755Y-64110756D01*
X129289842Y-64253136D01*
X129471051Y-64434345D01*
X129613431Y-64647432D01*
X129711504Y-64884202D01*
X129761500Y-65135548D01*
X129761500Y-65391826D01*
X129711504Y-65643172D01*
X129613431Y-65879942D01*
X129471051Y-66093029D01*
X129289842Y-66274238D01*
X129289839Y-66274240D01*
X129076755Y-66416618D01*
X128839988Y-66514690D01*
X128839987Y-66514690D01*
X128839985Y-66514691D01*
X128588639Y-66564687D01*
X128332361Y-66564687D01*
X128081015Y-66514691D01*
X128081013Y-66514690D01*
X128081012Y-66514690D01*
X127844245Y-66416618D01*
X127631161Y-66274240D01*
X127631158Y-66274238D01*
X127449949Y-66093029D01*
X127307569Y-65879942D01*
X127209496Y-65643172D01*
X127159500Y-65391826D01*
X127159500Y-65135548D01*
X127209496Y-64884202D01*
X127307569Y-64647432D01*
X127449949Y-64434345D01*
X127631158Y-64253136D01*
X127844245Y-64110756D01*
X127909103Y-64083891D01*
X128081012Y-64012684D01*
X128081013Y-64012684D01*
X128081015Y-64012683D01*
X128332361Y-63962687D01*
X128588639Y-63962687D01*
X128839985Y-64012683D01*
X128839985Y-64012683D01*
G37*
G36*
X95479500Y-65182000D02*
X93877500Y-65182000D01*
X93877500Y-62580000D01*
X95479500Y-62580000D01*
X95479500Y-65182000D01*
X95479500Y-65182000D01*
G37*
G36*
X119141308Y-62575842D02*
X119141310Y-62575843D01*
X119141311Y-62575843D01*
X119291371Y-62638000D01*
X119378078Y-62673915D01*
X119591165Y-62816295D01*
X119772374Y-62997504D01*
X119772376Y-62997507D01*
X119914754Y-63210591D01*
X119968149Y-63339497D01*
X120012827Y-63447361D01*
X120062823Y-63698707D01*
X120062823Y-63954985D01*
X120012827Y-64206331D01*
X119914754Y-64443101D01*
X119772374Y-64656188D01*
X119591165Y-64837397D01*
X119591162Y-64837399D01*
X119378078Y-64979777D01*
X119141311Y-65077849D01*
X119141310Y-65077849D01*
X119141308Y-65077850D01*
X118889962Y-65127846D01*
X118633684Y-65127846D01*
X118382338Y-65077850D01*
X118382336Y-65077849D01*
X118382335Y-65077849D01*
X118145568Y-64979777D01*
X117932484Y-64837399D01*
X117932481Y-64837397D01*
X117751272Y-64656188D01*
X117608892Y-64443101D01*
X117510819Y-64206331D01*
X117460823Y-63954985D01*
X117460823Y-63698707D01*
X117510819Y-63447361D01*
X117555498Y-63339497D01*
X117608892Y-63210591D01*
X117751270Y-62997507D01*
X117751272Y-62997504D01*
X117932481Y-62816295D01*
X118145568Y-62673915D01*
X118232275Y-62638000D01*
X118382335Y-62575843D01*
X118382336Y-62575843D01*
X118382338Y-62575842D01*
X118633684Y-62525846D01*
X118889962Y-62525846D01*
X119141308Y-62575842D01*
X119141308Y-62575842D01*
G37*
G36*
X84176500Y-65055000D02*
X82574500Y-65055000D01*
X82574500Y-62453000D01*
X84176500Y-62453000D01*
X84176500Y-65055000D01*
X84176500Y-65055000D01*
G37*
G36*
X138538662Y-62216632D02*
X138538664Y-62216633D01*
X138538665Y-62216633D01*
X138775432Y-62314705D01*
X138988519Y-62457085D01*
X139169728Y-62638294D01*
X139169730Y-62638297D01*
X139312108Y-62851381D01*
X139410180Y-63088148D01*
X139460177Y-63339499D01*
X139460177Y-63595773D01*
X139410180Y-63847124D01*
X139362312Y-63962687D01*
X139312108Y-64083891D01*
X139169728Y-64296978D01*
X138988519Y-64478187D01*
X138988516Y-64478189D01*
X138775432Y-64620567D01*
X138538665Y-64718639D01*
X138538664Y-64718639D01*
X138538662Y-64718640D01*
X138287316Y-64768636D01*
X138031038Y-64768636D01*
X137779692Y-64718640D01*
X137779690Y-64718639D01*
X137779689Y-64718639D01*
X137542922Y-64620567D01*
X137329838Y-64478189D01*
X137329835Y-64478187D01*
X137148626Y-64296978D01*
X137006246Y-64083891D01*
X136956042Y-63962687D01*
X136908174Y-63847124D01*
X136858177Y-63595773D01*
X136858177Y-63339499D01*
X136908174Y-63088148D01*
X137006246Y-62851381D01*
X137148624Y-62638297D01*
X137148626Y-62638294D01*
X137329835Y-62457085D01*
X137542922Y-62314705D01*
X137779689Y-62216633D01*
X137779690Y-62216633D01*
X137779692Y-62216632D01*
X138031038Y-62166636D01*
X138287316Y-62166636D01*
X138538662Y-62216632D01*
X138538662Y-62216632D01*
G37*
G36*
X157697500Y-62638000D02*
X154595500Y-62638000D01*
X154595500Y-59536000D01*
X157697500Y-59536000D01*
X157697500Y-62638000D01*
X157697500Y-62638000D01*
G37*
G36*
X80620500Y-62515000D02*
X79018500Y-62515000D01*
X79018500Y-59913000D01*
X80620500Y-59913000D01*
X80620500Y-62515000D01*
X80620500Y-62515000D01*
G37*
G36*
X88240500Y-62515000D02*
X86638500Y-62515000D01*
X86638500Y-59913000D01*
X88240500Y-59913000D01*
X88240500Y-62515000D01*
X88240500Y-62515000D01*
G37*
G36*
X144489500Y-62384000D02*
X141387500Y-62384000D01*
X141387500Y-59282000D01*
X144489500Y-59282000D01*
X144489500Y-62384000D01*
X144489500Y-62384000D01*
G37*
G36*
X101392943Y-59811519D02*
X101459127Y-59818037D01*
X101572353Y-59852384D01*
X101628967Y-59869557D01*
X101710242Y-59913000D01*
X101785491Y-59953222D01*
X101812027Y-59975000D01*
X101922686Y-60065814D01*
X102005948Y-60167271D01*
X102035278Y-60203009D01*
X102035279Y-60203011D01*
X102118943Y-60359533D01*
X102118943Y-60359534D01*
X102170463Y-60529373D01*
X102187859Y-60706000D01*
X102170463Y-60882627D01*
X102136116Y-60995853D01*
X102118943Y-61052467D01*
X102044848Y-61191087D01*
X102035278Y-61208991D01*
X102005948Y-61244729D01*
X101922686Y-61346186D01*
X101821229Y-61429448D01*
X101785491Y-61458778D01*
X101785489Y-61458779D01*
X101628967Y-61542443D01*
X101572353Y-61559616D01*
X101459127Y-61593963D01*
X101392942Y-61600482D01*
X101326760Y-61607000D01*
X101238240Y-61607000D01*
X101172058Y-61600482D01*
X101105873Y-61593963D01*
X100992647Y-61559616D01*
X100936033Y-61542443D01*
X100779511Y-61458779D01*
X100779509Y-61458778D01*
X100743771Y-61429448D01*
X100642314Y-61346186D01*
X100559052Y-61244729D01*
X100529722Y-61208991D01*
X100520152Y-61191087D01*
X100446057Y-61052467D01*
X100428884Y-60995853D01*
X100394537Y-60882627D01*
X100377141Y-60706000D01*
X100394537Y-60529373D01*
X100446057Y-60359534D01*
X100446057Y-60359533D01*
X100529721Y-60203011D01*
X100529722Y-60203009D01*
X100559052Y-60167271D01*
X100642314Y-60065814D01*
X100752973Y-59975000D01*
X100779509Y-59953222D01*
X100854758Y-59913000D01*
X100936033Y-59869557D01*
X100992647Y-59852384D01*
X101105873Y-59818037D01*
X101172057Y-59811519D01*
X101238240Y-59805000D01*
X101326760Y-59805000D01*
X101392943Y-59811519D01*
X101392943Y-59811519D01*
G37*
G36*
X104723500Y-61607000D02*
X102921500Y-61607000D01*
X102921500Y-59805000D01*
X104723500Y-59805000D01*
X104723500Y-61607000D01*
X104723500Y-61607000D01*
G37*
G36*
X123092621Y-58265319D02*
X123092623Y-58265320D01*
X123092624Y-58265320D01*
X123189627Y-58305500D01*
X123329391Y-58363392D01*
X123542478Y-58505772D01*
X123723687Y-58686981D01*
X123866067Y-58900068D01*
X123964140Y-59136838D01*
X124014136Y-59388184D01*
X124014136Y-59644462D01*
X123969362Y-59869557D01*
X123964139Y-59895811D01*
X123893721Y-60065815D01*
X123866067Y-60132578D01*
X123723687Y-60345665D01*
X123542478Y-60526874D01*
X123542475Y-60526876D01*
X123329391Y-60669254D01*
X123092624Y-60767326D01*
X123092623Y-60767326D01*
X123092621Y-60767327D01*
X122841275Y-60817323D01*
X122584997Y-60817323D01*
X122333651Y-60767327D01*
X122333649Y-60767326D01*
X122333648Y-60767326D01*
X122096881Y-60669254D01*
X121883797Y-60526876D01*
X121883794Y-60526874D01*
X121702585Y-60345665D01*
X121560205Y-60132578D01*
X121532551Y-60065815D01*
X121462133Y-59895811D01*
X121456911Y-59869557D01*
X121412136Y-59644462D01*
X121412136Y-59388184D01*
X121462132Y-59136838D01*
X121560205Y-58900068D01*
X121702585Y-58686981D01*
X121883794Y-58505772D01*
X122096881Y-58363392D01*
X122236645Y-58305500D01*
X122333648Y-58265320D01*
X122333649Y-58265320D01*
X122333651Y-58265319D01*
X122584997Y-58215323D01*
X122841275Y-58215323D01*
X123092621Y-58265319D01*
X123092621Y-58265319D01*
G37*
G36*
X134228139Y-58265319D02*
X134228141Y-58265320D01*
X134228142Y-58265320D01*
X134325145Y-58305500D01*
X134464909Y-58363392D01*
X134677996Y-58505772D01*
X134859205Y-58686981D01*
X135001585Y-58900068D01*
X135099658Y-59136838D01*
X135149654Y-59388184D01*
X135149654Y-59644462D01*
X135104880Y-59869557D01*
X135099657Y-59895811D01*
X135029239Y-60065815D01*
X135001585Y-60132578D01*
X134859205Y-60345665D01*
X134677996Y-60526874D01*
X134677993Y-60526876D01*
X134464909Y-60669254D01*
X134228142Y-60767326D01*
X134228141Y-60767326D01*
X134228139Y-60767327D01*
X133976793Y-60817323D01*
X133720515Y-60817323D01*
X133469169Y-60767327D01*
X133469167Y-60767326D01*
X133469166Y-60767326D01*
X133232399Y-60669254D01*
X133019315Y-60526876D01*
X133019312Y-60526874D01*
X132838103Y-60345665D01*
X132695723Y-60132578D01*
X132668069Y-60065815D01*
X132597651Y-59895811D01*
X132592429Y-59869557D01*
X132547654Y-59644462D01*
X132547654Y-59388184D01*
X132597650Y-59136838D01*
X132695723Y-58900068D01*
X132838103Y-58686981D01*
X133019312Y-58505772D01*
X133232399Y-58363392D01*
X133372163Y-58305500D01*
X133469166Y-58265320D01*
X133469167Y-58265320D01*
X133469169Y-58265319D01*
X133720515Y-58215323D01*
X133976793Y-58215323D01*
X134228139Y-58265319D01*
X134228139Y-58265319D01*
G37*
G36*
X110461500Y-60312500D02*
X108359500Y-60312500D01*
X108359500Y-58305500D01*
X110461500Y-58305500D01*
X110461500Y-60312500D01*
X110461500Y-60312500D01*
G37*
G36*
X91642500Y-60210000D02*
X89840500Y-60210000D01*
X89840500Y-58408000D01*
X91642500Y-58408000D01*
X91642500Y-60210000D01*
X91642500Y-60210000D01*
G37*
G36*
X85700500Y-59975000D02*
X84098500Y-59975000D01*
X84098500Y-57373000D01*
X85700500Y-57373000D01*
X85700500Y-59975000D01*
X85700500Y-59975000D01*
G37*
G36*
X128839985Y-56828478D02*
X128839987Y-56828479D01*
X128839988Y-56828479D01*
X129076755Y-56926551D01*
X129289842Y-57068931D01*
X129471051Y-57250140D01*
X129613431Y-57463227D01*
X129711504Y-57699997D01*
X129761500Y-57951343D01*
X129761500Y-58207621D01*
X129711504Y-58458967D01*
X129613431Y-58695737D01*
X129471051Y-58908824D01*
X129289842Y-59090033D01*
X129289839Y-59090035D01*
X129076755Y-59232413D01*
X128839988Y-59330485D01*
X128839987Y-59330485D01*
X128839985Y-59330486D01*
X128588639Y-59380482D01*
X128332361Y-59380482D01*
X128081015Y-59330486D01*
X128081013Y-59330485D01*
X128081012Y-59330485D01*
X127844245Y-59232413D01*
X127631161Y-59090035D01*
X127631158Y-59090033D01*
X127449949Y-58908824D01*
X127307569Y-58695737D01*
X127209496Y-58458967D01*
X127159500Y-58207621D01*
X127159500Y-57951343D01*
X127209496Y-57699997D01*
X127307569Y-57463227D01*
X127449949Y-57250140D01*
X127631158Y-57068931D01*
X127844245Y-56926551D01*
X128081012Y-56828479D01*
X128081013Y-56828479D01*
X128081015Y-56828478D01*
X128332361Y-56778482D01*
X128588639Y-56778482D01*
X128839985Y-56828478D01*
X128839985Y-56828478D01*
G37*
G36*
X109566264Y-55771308D02*
X109654720Y-55780020D01*
X109843881Y-55837401D01*
X110018212Y-55930583D01*
X110171015Y-56055985D01*
X110296417Y-56208788D01*
X110389599Y-56383119D01*
X110446980Y-56572280D01*
X110466355Y-56769000D01*
X110446980Y-56965720D01*
X110389599Y-57154881D01*
X110296417Y-57329212D01*
X110171015Y-57482015D01*
X110018212Y-57607417D01*
X109843881Y-57700599D01*
X109654720Y-57757980D01*
X109566264Y-57766692D01*
X109507296Y-57772500D01*
X109313704Y-57772500D01*
X109254736Y-57766692D01*
X109166280Y-57757980D01*
X108977119Y-57700599D01*
X108802788Y-57607417D01*
X108649985Y-57482015D01*
X108524583Y-57329212D01*
X108431401Y-57154881D01*
X108374020Y-56965720D01*
X108354645Y-56769000D01*
X108374020Y-56572280D01*
X108431401Y-56383119D01*
X108524583Y-56208788D01*
X108649985Y-56055985D01*
X108802788Y-55930583D01*
X108977119Y-55837401D01*
X109166280Y-55780020D01*
X109254736Y-55771308D01*
X109313704Y-55765500D01*
X109507296Y-55765500D01*
X109566264Y-55771308D01*
X109566264Y-55771308D01*
G37*
G36*
X101294849Y-54691320D02*
X101294852Y-54691321D01*
X101294851Y-54691321D01*
X101436074Y-54749817D01*
X101436075Y-54749818D01*
X101563174Y-54834743D01*
X101671257Y-54942826D01*
X101671259Y-54942829D01*
X101756183Y-55069926D01*
X101757201Y-55072384D01*
X101777015Y-55120220D01*
X101788567Y-55141831D01*
X101804112Y-55160773D01*
X101823054Y-55176318D01*
X101844665Y-55187869D01*
X101868114Y-55194982D01*
X101892500Y-55197384D01*
X101916887Y-55194982D01*
X101940336Y-55187869D01*
X101961947Y-55176317D01*
X101980889Y-55160772D01*
X101996434Y-55141830D01*
X102007985Y-55120219D01*
X102015098Y-55096770D01*
X102017500Y-55072384D01*
X102017500Y-54711500D01*
X105119500Y-54711500D01*
X105119500Y-55072384D01*
X105121902Y-55096770D01*
X105129015Y-55120219D01*
X105140566Y-55141830D01*
X105156112Y-55160772D01*
X105175054Y-55176318D01*
X105196665Y-55187869D01*
X105220114Y-55194982D01*
X105244500Y-55197384D01*
X105268886Y-55194982D01*
X105292335Y-55187869D01*
X105313946Y-55176318D01*
X105332888Y-55160772D01*
X105348434Y-55141830D01*
X105359985Y-55120220D01*
X105379799Y-55072384D01*
X105380817Y-55069926D01*
X105465741Y-54942829D01*
X105465743Y-54942826D01*
X105573826Y-54834743D01*
X105700925Y-54749818D01*
X105700926Y-54749817D01*
X105842149Y-54691321D01*
X105842148Y-54691321D01*
X105842151Y-54691320D01*
X105992069Y-54661500D01*
X106144931Y-54661500D01*
X106294849Y-54691320D01*
X106294852Y-54691321D01*
X106294851Y-54691321D01*
X106436074Y-54749817D01*
X106436075Y-54749818D01*
X106563174Y-54834743D01*
X106671257Y-54942826D01*
X106671259Y-54942829D01*
X106756183Y-55069926D01*
X106757201Y-55072384D01*
X106814680Y-55211151D01*
X106844500Y-55361069D01*
X106844500Y-55513931D01*
X106814680Y-55663849D01*
X106805036Y-55687131D01*
X106756183Y-55805074D01*
X106734581Y-55837403D01*
X106671257Y-55932174D01*
X106563174Y-56040257D01*
X106563171Y-56040259D01*
X106436074Y-56125183D01*
X106343568Y-56163500D01*
X106294849Y-56183680D01*
X106144931Y-56213500D01*
X105992069Y-56213500D01*
X105842151Y-56183680D01*
X105793432Y-56163500D01*
X105700926Y-56125183D01*
X105573829Y-56040259D01*
X105573826Y-56040257D01*
X105465743Y-55932174D01*
X105402419Y-55837403D01*
X105380817Y-55805074D01*
X105359984Y-55754778D01*
X105348433Y-55733169D01*
X105332888Y-55714227D01*
X105313946Y-55698682D01*
X105292335Y-55687131D01*
X105268886Y-55680018D01*
X105244500Y-55677616D01*
X105220113Y-55680018D01*
X105196664Y-55687131D01*
X105175053Y-55698683D01*
X105156111Y-55714228D01*
X105140566Y-55733170D01*
X105129015Y-55754781D01*
X105121902Y-55778230D01*
X105119500Y-55802616D01*
X105119500Y-56163500D01*
X102017500Y-56163500D01*
X102017500Y-55802616D01*
X102015098Y-55778230D01*
X102007985Y-55754781D01*
X101996434Y-55733170D01*
X101980888Y-55714228D01*
X101961946Y-55698682D01*
X101940335Y-55687131D01*
X101916886Y-55680018D01*
X101892500Y-55677616D01*
X101868114Y-55680018D01*
X101844665Y-55687131D01*
X101823054Y-55698682D01*
X101804112Y-55714228D01*
X101788566Y-55733170D01*
X101777016Y-55754778D01*
X101756183Y-55805074D01*
X101734581Y-55837403D01*
X101671257Y-55932174D01*
X101563174Y-56040257D01*
X101563171Y-56040259D01*
X101436074Y-56125183D01*
X101343568Y-56163500D01*
X101294849Y-56183680D01*
X101144931Y-56213500D01*
X100992069Y-56213500D01*
X100842151Y-56183680D01*
X100793432Y-56163500D01*
X100700926Y-56125183D01*
X100573829Y-56040259D01*
X100573826Y-56040257D01*
X100465743Y-55932174D01*
X100402419Y-55837403D01*
X100380817Y-55805074D01*
X100331964Y-55687131D01*
X100322320Y-55663849D01*
X100292500Y-55513931D01*
X100292500Y-55361069D01*
X100322320Y-55211151D01*
X100379799Y-55072384D01*
X100380817Y-55069926D01*
X100465741Y-54942829D01*
X100465743Y-54942826D01*
X100573826Y-54834743D01*
X100700925Y-54749818D01*
X100700926Y-54749817D01*
X100842149Y-54691321D01*
X100842148Y-54691321D01*
X100842151Y-54691320D01*
X100992069Y-54661500D01*
X101144931Y-54661500D01*
X101294849Y-54691320D01*
X101294849Y-54691320D01*
G37*
G36*
X85263942Y-53588518D02*
X85330127Y-53595037D01*
X85443353Y-53629384D01*
X85499967Y-53646557D01*
X85541561Y-53668790D01*
X85656491Y-53730222D01*
X85692229Y-53759552D01*
X85793686Y-53842814D01*
X85876948Y-53944271D01*
X85906278Y-53980009D01*
X85906279Y-53980011D01*
X85989943Y-54136533D01*
X85989943Y-54136534D01*
X86041463Y-54306373D01*
X86058859Y-54483000D01*
X86041463Y-54659627D01*
X86014104Y-54749817D01*
X85989943Y-54829467D01*
X85929784Y-54942015D01*
X85906278Y-54985991D01*
X85876948Y-55021729D01*
X85793686Y-55123186D01*
X85714868Y-55187869D01*
X85656491Y-55235778D01*
X85656489Y-55235779D01*
X85499967Y-55319443D01*
X85443353Y-55336616D01*
X85330127Y-55370963D01*
X85263942Y-55377482D01*
X85197760Y-55384000D01*
X85109240Y-55384000D01*
X85043058Y-55377482D01*
X84976873Y-55370963D01*
X84863647Y-55336616D01*
X84807033Y-55319443D01*
X84650511Y-55235779D01*
X84650509Y-55235778D01*
X84592132Y-55187869D01*
X84513314Y-55123186D01*
X84430052Y-55021729D01*
X84400722Y-54985991D01*
X84377216Y-54942015D01*
X84317057Y-54829467D01*
X84292896Y-54749817D01*
X84265537Y-54659627D01*
X84248141Y-54483000D01*
X84265537Y-54306373D01*
X84317057Y-54136534D01*
X84317057Y-54136533D01*
X84400721Y-53980011D01*
X84400722Y-53980009D01*
X84430052Y-53944271D01*
X84513314Y-53842814D01*
X84614771Y-53759552D01*
X84650509Y-53730222D01*
X84765439Y-53668790D01*
X84807033Y-53646557D01*
X84863647Y-53629384D01*
X84976873Y-53595037D01*
X85043058Y-53588518D01*
X85109240Y-53582000D01*
X85197760Y-53582000D01*
X85263942Y-53588518D01*
X85263942Y-53588518D01*
G37*
G36*
X93674500Y-55384000D02*
X91872500Y-55384000D01*
X91872500Y-53582000D01*
X93674500Y-53582000D01*
X93674500Y-55384000D01*
X93674500Y-55384000D01*
G37*
G36*
X90343942Y-53588518D02*
X90410127Y-53595037D01*
X90523353Y-53629384D01*
X90579967Y-53646557D01*
X90621561Y-53668790D01*
X90736491Y-53730222D01*
X90772229Y-53759552D01*
X90873686Y-53842814D01*
X90956948Y-53944271D01*
X90986278Y-53980009D01*
X90986279Y-53980011D01*
X91069943Y-54136533D01*
X91069943Y-54136534D01*
X91121463Y-54306373D01*
X91138859Y-54483000D01*
X91121463Y-54659627D01*
X91094104Y-54749817D01*
X91069943Y-54829467D01*
X91009784Y-54942015D01*
X90986278Y-54985991D01*
X90956948Y-55021729D01*
X90873686Y-55123186D01*
X90794868Y-55187869D01*
X90736491Y-55235778D01*
X90736489Y-55235779D01*
X90579967Y-55319443D01*
X90523353Y-55336616D01*
X90410127Y-55370963D01*
X90343942Y-55377482D01*
X90277760Y-55384000D01*
X90189240Y-55384000D01*
X90123058Y-55377482D01*
X90056873Y-55370963D01*
X89943647Y-55336616D01*
X89887033Y-55319443D01*
X89730511Y-55235779D01*
X89730509Y-55235778D01*
X89672132Y-55187869D01*
X89593314Y-55123186D01*
X89510052Y-55021729D01*
X89480722Y-54985991D01*
X89457216Y-54942015D01*
X89397057Y-54829467D01*
X89372896Y-54749817D01*
X89345537Y-54659627D01*
X89328141Y-54483000D01*
X89345537Y-54306373D01*
X89397057Y-54136534D01*
X89397057Y-54136533D01*
X89480721Y-53980011D01*
X89480722Y-53980009D01*
X89510052Y-53944271D01*
X89593314Y-53842814D01*
X89694771Y-53759552D01*
X89730509Y-53730222D01*
X89845439Y-53668790D01*
X89887033Y-53646557D01*
X89943647Y-53629384D01*
X90056873Y-53595037D01*
X90123058Y-53588518D01*
X90189240Y-53582000D01*
X90277760Y-53582000D01*
X90343942Y-53588518D01*
X90343942Y-53588518D01*
G37*
G36*
X87803942Y-53588518D02*
X87870127Y-53595037D01*
X87983353Y-53629384D01*
X88039967Y-53646557D01*
X88081561Y-53668790D01*
X88196491Y-53730222D01*
X88232229Y-53759552D01*
X88333686Y-53842814D01*
X88416948Y-53944271D01*
X88446278Y-53980009D01*
X88446279Y-53980011D01*
X88529943Y-54136533D01*
X88529943Y-54136534D01*
X88581463Y-54306373D01*
X88598859Y-54483000D01*
X88581463Y-54659627D01*
X88554104Y-54749817D01*
X88529943Y-54829467D01*
X88469784Y-54942015D01*
X88446278Y-54985991D01*
X88416948Y-55021729D01*
X88333686Y-55123186D01*
X88254868Y-55187869D01*
X88196491Y-55235778D01*
X88196489Y-55235779D01*
X88039967Y-55319443D01*
X87983353Y-55336616D01*
X87870127Y-55370963D01*
X87803942Y-55377482D01*
X87737760Y-55384000D01*
X87649240Y-55384000D01*
X87583058Y-55377482D01*
X87516873Y-55370963D01*
X87403647Y-55336616D01*
X87347033Y-55319443D01*
X87190511Y-55235779D01*
X87190509Y-55235778D01*
X87132132Y-55187869D01*
X87053314Y-55123186D01*
X86970052Y-55021729D01*
X86940722Y-54985991D01*
X86917216Y-54942015D01*
X86857057Y-54829467D01*
X86832896Y-54749817D01*
X86805537Y-54659627D01*
X86788141Y-54483000D01*
X86805537Y-54306373D01*
X86857057Y-54136534D01*
X86857057Y-54136533D01*
X86940721Y-53980011D01*
X86940722Y-53980009D01*
X86970052Y-53944271D01*
X87053314Y-53842814D01*
X87154771Y-53759552D01*
X87190509Y-53730222D01*
X87305439Y-53668790D01*
X87347033Y-53646557D01*
X87403647Y-53629384D01*
X87516873Y-53595037D01*
X87583058Y-53588518D01*
X87649240Y-53582000D01*
X87737760Y-53582000D01*
X87803942Y-53588518D01*
X87803942Y-53588518D01*
G37*
G36*
X109566264Y-53231308D02*
X109654720Y-53240020D01*
X109843881Y-53297401D01*
X110018212Y-53390583D01*
X110171015Y-53515985D01*
X110296417Y-53668788D01*
X110389599Y-53843119D01*
X110446980Y-54032280D01*
X110466355Y-54229000D01*
X110446980Y-54425720D01*
X110389599Y-54614881D01*
X110296417Y-54789212D01*
X110171015Y-54942015D01*
X110018212Y-55067417D01*
X109843881Y-55160599D01*
X109654720Y-55217980D01*
X109566264Y-55226692D01*
X109507296Y-55232500D01*
X109313704Y-55232500D01*
X109254736Y-55226692D01*
X109166280Y-55217980D01*
X108977119Y-55160599D01*
X108802788Y-55067417D01*
X108649985Y-54942015D01*
X108524583Y-54789212D01*
X108431401Y-54614881D01*
X108374020Y-54425720D01*
X108354645Y-54229000D01*
X108374020Y-54032280D01*
X108431401Y-53843119D01*
X108524583Y-53668788D01*
X108649985Y-53515985D01*
X108802788Y-53390583D01*
X108977119Y-53297401D01*
X109166280Y-53240020D01*
X109254736Y-53231308D01*
X109313704Y-53225500D01*
X109507296Y-53225500D01*
X109566264Y-53231308D01*
X109566264Y-53231308D01*
G37*
G36*
X107094362Y-51735898D02*
X107106614Y-51736500D01*
X107179905Y-51736500D01*
X107196665Y-51745458D01*
X107208195Y-51749584D01*
X107318831Y-51783145D01*
X107431925Y-51843595D01*
X107531053Y-51924947D01*
X107612405Y-52024074D01*
X107612406Y-52024076D01*
X107672855Y-52137167D01*
X107672856Y-52137170D01*
X107710080Y-52259882D01*
X107719500Y-52355527D01*
X107719500Y-53119473D01*
X107710080Y-53215118D01*
X107702526Y-53240020D01*
X107672855Y-53337833D01*
X107644659Y-53390583D01*
X107612405Y-53450926D01*
X107531053Y-53550053D01*
X107431926Y-53631405D01*
X107431924Y-53631406D01*
X107318833Y-53691855D01*
X107271382Y-53706249D01*
X107208211Y-53725412D01*
X107185576Y-53734788D01*
X107180020Y-53738500D01*
X107106614Y-53738500D01*
X107094362Y-53739102D01*
X107068500Y-53741649D01*
X107042638Y-53739102D01*
X107030386Y-53738500D01*
X105817500Y-53738500D01*
X105817500Y-51736500D01*
X107030386Y-51736500D01*
X107042638Y-51735898D01*
X107068500Y-51733351D01*
X107094362Y-51735898D01*
X107094362Y-51735898D01*
G37*
G36*
X100094362Y-51735898D02*
X100106614Y-51736500D01*
X101319500Y-51736500D01*
X101319500Y-53738500D01*
X100106614Y-53738500D01*
X100094362Y-53739102D01*
X100068500Y-53741649D01*
X100042638Y-53739102D01*
X100030386Y-53738500D01*
X99957093Y-53738500D01*
X99940335Y-53729543D01*
X99928792Y-53725413D01*
X99865618Y-53706249D01*
X99818167Y-53691855D01*
X99705076Y-53631406D01*
X99705074Y-53631405D01*
X99605947Y-53550053D01*
X99524595Y-53450925D01*
X99496457Y-53398282D01*
X99464145Y-53337832D01*
X99451737Y-53296926D01*
X99426920Y-53215117D01*
X99417500Y-53119472D01*
X99417500Y-52355527D01*
X99426920Y-52259882D01*
X99464145Y-52137168D01*
X99524596Y-52024074D01*
X99605948Y-51924947D01*
X99705075Y-51843595D01*
X99818169Y-51783145D01*
X99928795Y-51749587D01*
X99951424Y-51740214D01*
X99956982Y-51736500D01*
X100030386Y-51736500D01*
X100042638Y-51735898D01*
X100068500Y-51733351D01*
X100094362Y-51735898D01*
X100094362Y-51735898D01*
G37*
G36*
X103369500Y-53738500D02*
X101767500Y-53738500D01*
X101767500Y-51736500D01*
X103369500Y-51736500D01*
X103369500Y-53738500D01*
X103369500Y-53738500D01*
G37*
G36*
X105369500Y-53738500D02*
X103767500Y-53738500D01*
X103767500Y-51736500D01*
X105369500Y-51736500D01*
X105369500Y-53738500D01*
X105369500Y-53738500D01*
G37*
G36*
X150570500Y-53352000D02*
X148768500Y-53352000D01*
X148768500Y-51550000D01*
X150570500Y-51550000D01*
X150570500Y-53352000D01*
X150570500Y-53352000D01*
G37*
G36*
X85263942Y-50540518D02*
X85330127Y-50547037D01*
X85443353Y-50581384D01*
X85499967Y-50598557D01*
X85638587Y-50672652D01*
X85656491Y-50682222D01*
X85692229Y-50711552D01*
X85793686Y-50794814D01*
X85876948Y-50896271D01*
X85906278Y-50932009D01*
X85906279Y-50932011D01*
X85989943Y-51088533D01*
X85989943Y-51088534D01*
X86041463Y-51258373D01*
X86058859Y-51435000D01*
X86041463Y-51611627D01*
X86007116Y-51724853D01*
X85989943Y-51781467D01*
X85956735Y-51843594D01*
X85906278Y-51937991D01*
X85876948Y-51973729D01*
X85793686Y-52075186D01*
X85718158Y-52137169D01*
X85656491Y-52187778D01*
X85656489Y-52187779D01*
X85499967Y-52271443D01*
X85443353Y-52288616D01*
X85330127Y-52322963D01*
X85263943Y-52329481D01*
X85197760Y-52336000D01*
X85109240Y-52336000D01*
X85043058Y-52329482D01*
X84976873Y-52322963D01*
X84863647Y-52288616D01*
X84807033Y-52271443D01*
X84650511Y-52187779D01*
X84650509Y-52187778D01*
X84588842Y-52137169D01*
X84513314Y-52075186D01*
X84430052Y-51973729D01*
X84400722Y-51937991D01*
X84350265Y-51843594D01*
X84317057Y-51781467D01*
X84299884Y-51724853D01*
X84265537Y-51611627D01*
X84248141Y-51435000D01*
X84265537Y-51258373D01*
X84317057Y-51088534D01*
X84317057Y-51088533D01*
X84400721Y-50932011D01*
X84400722Y-50932009D01*
X84430052Y-50896271D01*
X84513314Y-50794814D01*
X84614771Y-50711552D01*
X84650509Y-50682222D01*
X84668413Y-50672652D01*
X84807033Y-50598557D01*
X84863647Y-50581384D01*
X84976873Y-50547037D01*
X85043058Y-50540518D01*
X85109240Y-50534000D01*
X85197760Y-50534000D01*
X85263942Y-50540518D01*
X85263942Y-50540518D01*
G37*
G36*
X87803942Y-50540518D02*
X87870127Y-50547037D01*
X87983353Y-50581384D01*
X88039967Y-50598557D01*
X88178587Y-50672652D01*
X88196491Y-50682222D01*
X88232229Y-50711552D01*
X88333686Y-50794814D01*
X88416948Y-50896271D01*
X88446278Y-50932009D01*
X88446279Y-50932011D01*
X88529943Y-51088533D01*
X88529943Y-51088534D01*
X88581463Y-51258373D01*
X88598859Y-51435000D01*
X88581463Y-51611627D01*
X88547116Y-51724853D01*
X88529943Y-51781467D01*
X88496735Y-51843594D01*
X88446278Y-51937991D01*
X88416948Y-51973729D01*
X88333686Y-52075186D01*
X88258158Y-52137169D01*
X88196491Y-52187778D01*
X88196489Y-52187779D01*
X88039967Y-52271443D01*
X87983353Y-52288616D01*
X87870127Y-52322963D01*
X87803943Y-52329481D01*
X87737760Y-52336000D01*
X87649240Y-52336000D01*
X87583058Y-52329482D01*
X87516873Y-52322963D01*
X87403647Y-52288616D01*
X87347033Y-52271443D01*
X87190511Y-52187779D01*
X87190509Y-52187778D01*
X87128842Y-52137169D01*
X87053314Y-52075186D01*
X86970052Y-51973729D01*
X86940722Y-51937991D01*
X86890265Y-51843594D01*
X86857057Y-51781467D01*
X86839884Y-51724853D01*
X86805537Y-51611627D01*
X86788141Y-51435000D01*
X86805537Y-51258373D01*
X86857057Y-51088534D01*
X86857057Y-51088533D01*
X86940721Y-50932011D01*
X86940722Y-50932009D01*
X86970052Y-50896271D01*
X87053314Y-50794814D01*
X87154771Y-50711552D01*
X87190509Y-50682222D01*
X87208413Y-50672652D01*
X87347033Y-50598557D01*
X87403647Y-50581384D01*
X87516873Y-50547037D01*
X87583058Y-50540518D01*
X87649240Y-50534000D01*
X87737760Y-50534000D01*
X87803942Y-50540518D01*
X87803942Y-50540518D01*
G37*
G36*
X93674500Y-52336000D02*
X91872500Y-52336000D01*
X91872500Y-50534000D01*
X93674500Y-50534000D01*
X93674500Y-52336000D01*
X93674500Y-52336000D01*
G37*
G36*
X90343942Y-50540518D02*
X90410127Y-50547037D01*
X90523353Y-50581384D01*
X90579967Y-50598557D01*
X90718587Y-50672652D01*
X90736491Y-50682222D01*
X90772229Y-50711552D01*
X90873686Y-50794814D01*
X90956948Y-50896271D01*
X90986278Y-50932009D01*
X90986279Y-50932011D01*
X91069943Y-51088533D01*
X91069943Y-51088534D01*
X91121463Y-51258373D01*
X91138859Y-51435000D01*
X91121463Y-51611627D01*
X91087116Y-51724853D01*
X91069943Y-51781467D01*
X91036735Y-51843594D01*
X90986278Y-51937991D01*
X90956948Y-51973729D01*
X90873686Y-52075186D01*
X90798158Y-52137169D01*
X90736491Y-52187778D01*
X90736489Y-52187779D01*
X90579967Y-52271443D01*
X90523353Y-52288616D01*
X90410127Y-52322963D01*
X90343943Y-52329481D01*
X90277760Y-52336000D01*
X90189240Y-52336000D01*
X90123058Y-52329482D01*
X90056873Y-52322963D01*
X89943647Y-52288616D01*
X89887033Y-52271443D01*
X89730511Y-52187779D01*
X89730509Y-52187778D01*
X89668842Y-52137169D01*
X89593314Y-52075186D01*
X89510052Y-51973729D01*
X89480722Y-51937991D01*
X89430265Y-51843594D01*
X89397057Y-51781467D01*
X89379884Y-51724853D01*
X89345537Y-51611627D01*
X89328141Y-51435000D01*
X89345537Y-51258373D01*
X89397057Y-51088534D01*
X89397057Y-51088533D01*
X89480721Y-50932011D01*
X89480722Y-50932009D01*
X89510052Y-50896271D01*
X89593314Y-50794814D01*
X89694771Y-50711552D01*
X89730509Y-50682222D01*
X89748413Y-50672652D01*
X89887033Y-50598557D01*
X89943647Y-50581384D01*
X90056873Y-50547037D01*
X90123058Y-50540518D01*
X90189240Y-50534000D01*
X90277760Y-50534000D01*
X90343942Y-50540518D01*
X90343942Y-50540518D01*
G37*
M02*
