G04 #@! TF.GenerationSoftware,KiCad,Pcbnew,(5.0.2)-1*
G04 #@! TF.CreationDate,2019-02-15T13:53:21+00:00*
G04 #@! TF.ProjectId,panel,70616e65-6c2e-46b6-9963-61645f706362,rev?*
G04 #@! TF.SameCoordinates,Original*
G04 #@! TF.FileFunction,Copper,L1,Top*
G04 #@! TF.FilePolarity,Positive*
%FSLAX46Y46*%
G04 Gerber Fmt 4.6, Leading zero omitted, Abs format (unit mm)*
G04 Created by KiCad (PCBNEW (5.0.2)-1) date 15/02/2019 13:53:21*
%MOMM*%
%LPD*%
G01*
G04 APERTURE LIST*
G04 #@! TA.AperFunction,ComponentPad*
%ADD10R,1.700000X1.700000*%
G04 #@! TD*
G04 #@! TA.AperFunction,ComponentPad*
%ADD11O,1.700000X1.700000*%
G04 #@! TD*
G04 #@! TA.AperFunction,Conductor*
%ADD12C,0.100000*%
G04 #@! TD*
G04 #@! TA.AperFunction,SMDPad,CuDef*
%ADD13C,0.875000*%
G04 #@! TD*
G04 #@! TA.AperFunction,ComponentPad*
%ADD14C,2.500000*%
G04 #@! TD*
G04 #@! TA.AperFunction,ComponentPad*
%ADD15R,3.000000X3.000000*%
G04 #@! TD*
G04 #@! TA.AperFunction,ComponentPad*
%ADD16C,2.000000*%
G04 #@! TD*
G04 #@! TA.AperFunction,ComponentPad*
%ADD17C,1.500000*%
G04 #@! TD*
G04 #@! TA.AperFunction,SMDPad,CuDef*
%ADD18R,1.500000X1.900000*%
G04 #@! TD*
G04 #@! TA.AperFunction,ComponentPad*
%ADD19C,1.450000*%
G04 #@! TD*
G04 #@! TA.AperFunction,SMDPad,CuDef*
%ADD20R,0.400000X1.350000*%
G04 #@! TD*
G04 #@! TA.AperFunction,ComponentPad*
%ADD21O,1.200000X1.900000*%
G04 #@! TD*
G04 #@! TA.AperFunction,SMDPad,CuDef*
%ADD22R,1.200000X1.900000*%
G04 #@! TD*
G04 #@! TA.AperFunction,ComponentPad*
%ADD23C,1.800000*%
G04 #@! TD*
G04 #@! TA.AperFunction,WasherPad*
%ADD24C,4.000000*%
G04 #@! TD*
G04 #@! TA.AperFunction,ComponentPad*
%ADD25R,2.000000X1.905000*%
G04 #@! TD*
G04 #@! TA.AperFunction,ComponentPad*
%ADD26O,2.000000X1.905000*%
G04 #@! TD*
G04 #@! TA.AperFunction,ComponentPad*
%ADD27R,1.600000X1.600000*%
G04 #@! TD*
G04 #@! TA.AperFunction,ComponentPad*
%ADD28O,1.600000X1.600000*%
G04 #@! TD*
G04 #@! TA.AperFunction,ComponentPad*
%ADD29C,1.524000*%
G04 #@! TD*
G04 #@! TA.AperFunction,ComponentPad*
%ADD30C,3.000000*%
G04 #@! TD*
G04 #@! TA.AperFunction,ComponentPad*
%ADD31R,1.500000X2.500000*%
G04 #@! TD*
G04 #@! TA.AperFunction,ViaPad*
%ADD32C,0.800000*%
G04 #@! TD*
G04 #@! TA.AperFunction,Conductor*
%ADD33C,0.250000*%
G04 #@! TD*
G04 #@! TA.AperFunction,Conductor*
%ADD34C,0.254000*%
G04 #@! TD*
G04 APERTURE END LIST*
D10*
G04 #@! TO.P,J1,1*
G04 #@! TO.N,MCLR*
X116014500Y-87757000D03*
D11*
G04 #@! TO.P,J1,2*
G04 #@! TO.N,VDD*
X116014500Y-85217000D03*
G04 #@! TO.P,J1,3*
G04 #@! TO.N,BAT-*
X116014500Y-82677000D03*
G04 #@! TO.P,J1,4*
G04 #@! TO.N,PGD*
X116014500Y-80137000D03*
G04 #@! TO.P,J1,5*
G04 #@! TO.N,B2*
X116014500Y-77597000D03*
G04 #@! TD*
D12*
G04 #@! TO.N,BAT-*
G04 #@! TO.C,D1*
G36*
X118324191Y-98242553D02*
X118345426Y-98245703D01*
X118366250Y-98250919D01*
X118386462Y-98258151D01*
X118405868Y-98267330D01*
X118424281Y-98278366D01*
X118441524Y-98291154D01*
X118457430Y-98305570D01*
X118471846Y-98321476D01*
X118484634Y-98338719D01*
X118495670Y-98357132D01*
X118504849Y-98376538D01*
X118512081Y-98396750D01*
X118517297Y-98417574D01*
X118520447Y-98438809D01*
X118521500Y-98460250D01*
X118521500Y-98897750D01*
X118520447Y-98919191D01*
X118517297Y-98940426D01*
X118512081Y-98961250D01*
X118504849Y-98981462D01*
X118495670Y-99000868D01*
X118484634Y-99019281D01*
X118471846Y-99036524D01*
X118457430Y-99052430D01*
X118441524Y-99066846D01*
X118424281Y-99079634D01*
X118405868Y-99090670D01*
X118386462Y-99099849D01*
X118366250Y-99107081D01*
X118345426Y-99112297D01*
X118324191Y-99115447D01*
X118302750Y-99116500D01*
X117790250Y-99116500D01*
X117768809Y-99115447D01*
X117747574Y-99112297D01*
X117726750Y-99107081D01*
X117706538Y-99099849D01*
X117687132Y-99090670D01*
X117668719Y-99079634D01*
X117651476Y-99066846D01*
X117635570Y-99052430D01*
X117621154Y-99036524D01*
X117608366Y-99019281D01*
X117597330Y-99000868D01*
X117588151Y-98981462D01*
X117580919Y-98961250D01*
X117575703Y-98940426D01*
X117572553Y-98919191D01*
X117571500Y-98897750D01*
X117571500Y-98460250D01*
X117572553Y-98438809D01*
X117575703Y-98417574D01*
X117580919Y-98396750D01*
X117588151Y-98376538D01*
X117597330Y-98357132D01*
X117608366Y-98338719D01*
X117621154Y-98321476D01*
X117635570Y-98305570D01*
X117651476Y-98291154D01*
X117668719Y-98278366D01*
X117687132Y-98267330D01*
X117706538Y-98258151D01*
X117726750Y-98250919D01*
X117747574Y-98245703D01*
X117768809Y-98242553D01*
X117790250Y-98241500D01*
X118302750Y-98241500D01*
X118324191Y-98242553D01*
X118324191Y-98242553D01*
G37*
D13*
G04 #@! TD*
G04 #@! TO.P,D1,1*
G04 #@! TO.N,BAT-*
X118046500Y-98679000D03*
D12*
G04 #@! TO.N,Net-(D1-Pad2)*
G04 #@! TO.C,D1*
G36*
X118324191Y-96667553D02*
X118345426Y-96670703D01*
X118366250Y-96675919D01*
X118386462Y-96683151D01*
X118405868Y-96692330D01*
X118424281Y-96703366D01*
X118441524Y-96716154D01*
X118457430Y-96730570D01*
X118471846Y-96746476D01*
X118484634Y-96763719D01*
X118495670Y-96782132D01*
X118504849Y-96801538D01*
X118512081Y-96821750D01*
X118517297Y-96842574D01*
X118520447Y-96863809D01*
X118521500Y-96885250D01*
X118521500Y-97322750D01*
X118520447Y-97344191D01*
X118517297Y-97365426D01*
X118512081Y-97386250D01*
X118504849Y-97406462D01*
X118495670Y-97425868D01*
X118484634Y-97444281D01*
X118471846Y-97461524D01*
X118457430Y-97477430D01*
X118441524Y-97491846D01*
X118424281Y-97504634D01*
X118405868Y-97515670D01*
X118386462Y-97524849D01*
X118366250Y-97532081D01*
X118345426Y-97537297D01*
X118324191Y-97540447D01*
X118302750Y-97541500D01*
X117790250Y-97541500D01*
X117768809Y-97540447D01*
X117747574Y-97537297D01*
X117726750Y-97532081D01*
X117706538Y-97524849D01*
X117687132Y-97515670D01*
X117668719Y-97504634D01*
X117651476Y-97491846D01*
X117635570Y-97477430D01*
X117621154Y-97461524D01*
X117608366Y-97444281D01*
X117597330Y-97425868D01*
X117588151Y-97406462D01*
X117580919Y-97386250D01*
X117575703Y-97365426D01*
X117572553Y-97344191D01*
X117571500Y-97322750D01*
X117571500Y-96885250D01*
X117572553Y-96863809D01*
X117575703Y-96842574D01*
X117580919Y-96821750D01*
X117588151Y-96801538D01*
X117597330Y-96782132D01*
X117608366Y-96763719D01*
X117621154Y-96746476D01*
X117635570Y-96730570D01*
X117651476Y-96716154D01*
X117668719Y-96703366D01*
X117687132Y-96692330D01*
X117706538Y-96683151D01*
X117726750Y-96675919D01*
X117747574Y-96670703D01*
X117768809Y-96667553D01*
X117790250Y-96666500D01*
X118302750Y-96666500D01*
X118324191Y-96667553D01*
X118324191Y-96667553D01*
G37*
D13*
G04 #@! TD*
G04 #@! TO.P,D1,2*
G04 #@! TO.N,Net-(D1-Pad2)*
X118046500Y-97104000D03*
D10*
G04 #@! TO.P,J2,1*
G04 #@! TO.N,PWM*
X105854500Y-93599000D03*
D11*
G04 #@! TO.P,J2,2*
G04 #@! TO.N,BAT-*
X105854500Y-96139000D03*
G04 #@! TO.P,J2,3*
G04 #@! TO.N,VOUT_*
X105854500Y-98679000D03*
G04 #@! TO.P,J2,4*
G04 #@! TO.N,BAT-*
X105854500Y-101219000D03*
G04 #@! TO.P,J2,5*
G04 #@! TO.N,TRIGGER*
X105854500Y-103759000D03*
G04 #@! TO.P,J2,6*
G04 #@! TO.N,VDD*
X105854500Y-106299000D03*
G04 #@! TD*
D10*
G04 #@! TO.P,J5,1*
G04 #@! TO.N,VDD*
X149669500Y-52451000D03*
G04 #@! TD*
G04 #@! TO.P,J10,1*
G04 #@! TO.N,BAT+*
X103822500Y-60706000D03*
D11*
G04 #@! TO.P,J10,2*
G04 #@! TO.N,BAT-*
X101282500Y-60706000D03*
G04 #@! TD*
D12*
G04 #@! TO.N,TRIGGER*
G04 #@! TO.C,R5*
G36*
X118324191Y-93365553D02*
X118345426Y-93368703D01*
X118366250Y-93373919D01*
X118386462Y-93381151D01*
X118405868Y-93390330D01*
X118424281Y-93401366D01*
X118441524Y-93414154D01*
X118457430Y-93428570D01*
X118471846Y-93444476D01*
X118484634Y-93461719D01*
X118495670Y-93480132D01*
X118504849Y-93499538D01*
X118512081Y-93519750D01*
X118517297Y-93540574D01*
X118520447Y-93561809D01*
X118521500Y-93583250D01*
X118521500Y-94020750D01*
X118520447Y-94042191D01*
X118517297Y-94063426D01*
X118512081Y-94084250D01*
X118504849Y-94104462D01*
X118495670Y-94123868D01*
X118484634Y-94142281D01*
X118471846Y-94159524D01*
X118457430Y-94175430D01*
X118441524Y-94189846D01*
X118424281Y-94202634D01*
X118405868Y-94213670D01*
X118386462Y-94222849D01*
X118366250Y-94230081D01*
X118345426Y-94235297D01*
X118324191Y-94238447D01*
X118302750Y-94239500D01*
X117790250Y-94239500D01*
X117768809Y-94238447D01*
X117747574Y-94235297D01*
X117726750Y-94230081D01*
X117706538Y-94222849D01*
X117687132Y-94213670D01*
X117668719Y-94202634D01*
X117651476Y-94189846D01*
X117635570Y-94175430D01*
X117621154Y-94159524D01*
X117608366Y-94142281D01*
X117597330Y-94123868D01*
X117588151Y-94104462D01*
X117580919Y-94084250D01*
X117575703Y-94063426D01*
X117572553Y-94042191D01*
X117571500Y-94020750D01*
X117571500Y-93583250D01*
X117572553Y-93561809D01*
X117575703Y-93540574D01*
X117580919Y-93519750D01*
X117588151Y-93499538D01*
X117597330Y-93480132D01*
X117608366Y-93461719D01*
X117621154Y-93444476D01*
X117635570Y-93428570D01*
X117651476Y-93414154D01*
X117668719Y-93401366D01*
X117687132Y-93390330D01*
X117706538Y-93381151D01*
X117726750Y-93373919D01*
X117747574Y-93368703D01*
X117768809Y-93365553D01*
X117790250Y-93364500D01*
X118302750Y-93364500D01*
X118324191Y-93365553D01*
X118324191Y-93365553D01*
G37*
D13*
G04 #@! TD*
G04 #@! TO.P,R5,2*
G04 #@! TO.N,TRIGGER*
X118046500Y-93802000D03*
D12*
G04 #@! TO.N,Net-(D1-Pad2)*
G04 #@! TO.C,R5*
G36*
X118324191Y-94940553D02*
X118345426Y-94943703D01*
X118366250Y-94948919D01*
X118386462Y-94956151D01*
X118405868Y-94965330D01*
X118424281Y-94976366D01*
X118441524Y-94989154D01*
X118457430Y-95003570D01*
X118471846Y-95019476D01*
X118484634Y-95036719D01*
X118495670Y-95055132D01*
X118504849Y-95074538D01*
X118512081Y-95094750D01*
X118517297Y-95115574D01*
X118520447Y-95136809D01*
X118521500Y-95158250D01*
X118521500Y-95595750D01*
X118520447Y-95617191D01*
X118517297Y-95638426D01*
X118512081Y-95659250D01*
X118504849Y-95679462D01*
X118495670Y-95698868D01*
X118484634Y-95717281D01*
X118471846Y-95734524D01*
X118457430Y-95750430D01*
X118441524Y-95764846D01*
X118424281Y-95777634D01*
X118405868Y-95788670D01*
X118386462Y-95797849D01*
X118366250Y-95805081D01*
X118345426Y-95810297D01*
X118324191Y-95813447D01*
X118302750Y-95814500D01*
X117790250Y-95814500D01*
X117768809Y-95813447D01*
X117747574Y-95810297D01*
X117726750Y-95805081D01*
X117706538Y-95797849D01*
X117687132Y-95788670D01*
X117668719Y-95777634D01*
X117651476Y-95764846D01*
X117635570Y-95750430D01*
X117621154Y-95734524D01*
X117608366Y-95717281D01*
X117597330Y-95698868D01*
X117588151Y-95679462D01*
X117580919Y-95659250D01*
X117575703Y-95638426D01*
X117572553Y-95617191D01*
X117571500Y-95595750D01*
X117571500Y-95158250D01*
X117572553Y-95136809D01*
X117575703Y-95115574D01*
X117580919Y-95094750D01*
X117588151Y-95074538D01*
X117597330Y-95055132D01*
X117608366Y-95036719D01*
X117621154Y-95019476D01*
X117635570Y-95003570D01*
X117651476Y-94989154D01*
X117668719Y-94976366D01*
X117687132Y-94965330D01*
X117706538Y-94956151D01*
X117726750Y-94948919D01*
X117747574Y-94943703D01*
X117768809Y-94940553D01*
X117790250Y-94939500D01*
X118302750Y-94939500D01*
X118324191Y-94940553D01*
X118324191Y-94940553D01*
G37*
D13*
G04 #@! TD*
G04 #@! TO.P,R5,1*
G04 #@! TO.N,Net-(D1-Pad2)*
X118046500Y-95377000D03*
D14*
G04 #@! TO.P,SW1,4*
G04 #@! TO.N,Net-(SW1-Pad4)*
X138159177Y-63467636D03*
G04 #@! TO.P,SW1,5*
G04 #@! TO.N,Net-(SW1-Pad5)*
X139775623Y-69035395D03*
G04 #@! TO.P,SW1,6*
G04 #@! TO.N,Net-(SW1-Pad6)*
X138159177Y-74603154D03*
G04 #@! TO.P,SW1,7*
G04 #@! TO.N,Net-(SW1-Pad7)*
X134028259Y-78734071D03*
G04 #@! TO.P,SW1,8*
G04 #@! TO.N,Net-(SW1-Pad8)*
X128460500Y-80350518D03*
G04 #@! TO.P,SW1,9*
G04 #@! TO.N,Net-(SW1-Pad9)*
X123072346Y-78913677D03*
G04 #@! TO.P,SW1,10*
G04 #@! TO.N,Net-(SW1-Pad10)*
X118761823Y-74603154D03*
G04 #@! TO.P,SW1,11*
G04 #@! TO.N,Net-(SW1-Pad11)*
X117324982Y-69215000D03*
G04 #@! TO.P,SW1,12*
G04 #@! TO.N,Net-(SW1-Pad12)*
X118761823Y-63826846D03*
G04 #@! TO.P,SW1,1*
G04 #@! TO.N,Net-(R1-Pad1)*
X122713136Y-59516323D03*
G04 #@! TO.P,SW1,2*
G04 #@! TO.N,Net-(R2-Pad1)*
X128460500Y-58079482D03*
G04 #@! TO.P,SW1,3*
G04 #@! TO.N,Net-(R4-Pad1)*
X133848654Y-59516323D03*
G04 #@! TO.P,SW1,13*
G04 #@! TO.N,Net-(R3-Pad2)*
X128460500Y-65263687D03*
G04 #@! TD*
D15*
G04 #@! TO.P,SW2,*
G04 #@! TO.N,*
X156146500Y-61087000D03*
X142938500Y-60833000D03*
D16*
G04 #@! TO.P,SW2,C*
G04 #@! TO.N,BAT-*
X152082500Y-68707000D03*
G04 #@! TO.P,SW2,B*
G04 #@! TO.N,B1*
X149542500Y-68707000D03*
G04 #@! TO.P,SW2,A*
G04 #@! TO.N,A1*
X147002500Y-68707000D03*
G04 #@! TD*
G04 #@! TO.P,SW3,A*
G04 #@! TO.N,A2*
X147002500Y-83693000D03*
G04 #@! TO.P,SW3,B*
G04 #@! TO.N,B2*
X149542500Y-83693000D03*
G04 #@! TO.P,SW3,C*
G04 #@! TO.N,BAT-*
X152082500Y-83693000D03*
D15*
G04 #@! TO.P,SW3,*
G04 #@! TO.N,*
X142938500Y-75819000D03*
X156146500Y-76073000D03*
G04 #@! TD*
D16*
G04 #@! TO.P,SW4,1*
G04 #@! TO.N,VDD*
X112712500Y-85217000D03*
G04 #@! TO.P,SW4,2*
G04 #@! TO.N,Net-(SW4-Pad2)*
X100520500Y-85217000D03*
G04 #@! TO.P,SW4,3*
G04 #@! TO.N,Net-(SW4-Pad3)*
X112712500Y-80137000D03*
G04 #@! TO.P,SW4,4*
G04 #@! TO.N,Net-(SW4-Pad4)*
X100520500Y-80137000D03*
G04 #@! TD*
D17*
G04 #@! TO.P,Y1,1*
G04 #@! TO.N,Net-(U1-Pad5)*
X101790500Y-96393000D03*
G04 #@! TO.P,Y1,2*
G04 #@! TO.N,VDD*
X101790500Y-91513000D03*
G04 #@! TD*
D18*
G04 #@! TO.P,J4,6*
G04 #@! TO.N,BAT-*
X102568500Y-52737500D03*
D19*
X106068500Y-55437500D03*
D20*
G04 #@! TO.P,J4,2*
G04 #@! TO.N,Net-(J4-Pad2)*
X104218500Y-55437500D03*
G04 #@! TO.P,J4,1*
G04 #@! TO.N,VDD*
X104868500Y-55437500D03*
G04 #@! TO.P,J4,5*
G04 #@! TO.N,BAT-*
X102268500Y-55437500D03*
G04 #@! TO.P,J4,4*
G04 #@! TO.N,Net-(J4-Pad4)*
X102918500Y-55437500D03*
G04 #@! TO.P,J4,3*
G04 #@! TO.N,Net-(J4-Pad3)*
X103568500Y-55437500D03*
D19*
G04 #@! TO.P,J4,6*
G04 #@! TO.N,BAT-*
X101068500Y-55437500D03*
D18*
X104568500Y-52737500D03*
D21*
X107068500Y-52737500D03*
X100068500Y-52737500D03*
D22*
X100668500Y-52737500D03*
X106468500Y-52737500D03*
G04 #@! TD*
D23*
G04 #@! TO.P,RV1,3*
G04 #@! TO.N,BAT-*
X103775500Y-75819000D03*
G04 #@! TO.P,RV1,2*
G04 #@! TO.N,VOUT_*
X106275500Y-75819000D03*
G04 #@! TO.P,RV1,1*
G04 #@! TO.N,VOUT*
X108775500Y-75819000D03*
D24*
G04 #@! TO.P,RV1,*
G04 #@! TO.N,*
X101875500Y-68819000D03*
X110675500Y-68819000D03*
G04 #@! TD*
D10*
G04 #@! TO.P,J3,1*
G04 #@! TO.N,BAT-*
X129984500Y-103759000D03*
D11*
G04 #@! TO.P,J3,2*
G04 #@! TO.N,D2*
X129984500Y-101219000D03*
G04 #@! TO.P,J3,3*
G04 #@! TO.N,BAT-*
X129984500Y-98679000D03*
G04 #@! TO.P,J3,4*
G04 #@! TO.N,D1*
X129984500Y-96139000D03*
G04 #@! TD*
D25*
G04 #@! TO.P,U4,1*
G04 #@! TO.N,BAT+*
X109410500Y-59309000D03*
D26*
G04 #@! TO.P,U4,2*
G04 #@! TO.N,BAT-*
X109410500Y-56769000D03*
G04 #@! TO.P,U4,3*
G04 #@! TO.N,VDD*
X109410500Y-54229000D03*
G04 #@! TD*
D27*
G04 #@! TO.P,D1,1*
G04 #@! TO.N,D1*
X92837000Y-120015000D03*
D28*
G04 #@! TO.P,D1,2*
G04 #@! TO.N,D2*
X85217000Y-120015000D03*
G04 #@! TD*
D12*
G04 #@! TO.N,GND*
G04 #@! TO.C,C2*
G36*
X91590691Y-114193553D02*
X91611926Y-114196703D01*
X91632750Y-114201919D01*
X91652962Y-114209151D01*
X91672368Y-114218330D01*
X91690781Y-114229366D01*
X91708024Y-114242154D01*
X91723930Y-114256570D01*
X91738346Y-114272476D01*
X91751134Y-114289719D01*
X91762170Y-114308132D01*
X91771349Y-114327538D01*
X91778581Y-114347750D01*
X91783797Y-114368574D01*
X91786947Y-114389809D01*
X91788000Y-114411250D01*
X91788000Y-114848750D01*
X91786947Y-114870191D01*
X91783797Y-114891426D01*
X91778581Y-114912250D01*
X91771349Y-114932462D01*
X91762170Y-114951868D01*
X91751134Y-114970281D01*
X91738346Y-114987524D01*
X91723930Y-115003430D01*
X91708024Y-115017846D01*
X91690781Y-115030634D01*
X91672368Y-115041670D01*
X91652962Y-115050849D01*
X91632750Y-115058081D01*
X91611926Y-115063297D01*
X91590691Y-115066447D01*
X91569250Y-115067500D01*
X91056750Y-115067500D01*
X91035309Y-115066447D01*
X91014074Y-115063297D01*
X90993250Y-115058081D01*
X90973038Y-115050849D01*
X90953632Y-115041670D01*
X90935219Y-115030634D01*
X90917976Y-115017846D01*
X90902070Y-115003430D01*
X90887654Y-114987524D01*
X90874866Y-114970281D01*
X90863830Y-114951868D01*
X90854651Y-114932462D01*
X90847419Y-114912250D01*
X90842203Y-114891426D01*
X90839053Y-114870191D01*
X90838000Y-114848750D01*
X90838000Y-114411250D01*
X90839053Y-114389809D01*
X90842203Y-114368574D01*
X90847419Y-114347750D01*
X90854651Y-114327538D01*
X90863830Y-114308132D01*
X90874866Y-114289719D01*
X90887654Y-114272476D01*
X90902070Y-114256570D01*
X90917976Y-114242154D01*
X90935219Y-114229366D01*
X90953632Y-114218330D01*
X90973038Y-114209151D01*
X90993250Y-114201919D01*
X91014074Y-114196703D01*
X91035309Y-114193553D01*
X91056750Y-114192500D01*
X91569250Y-114192500D01*
X91590691Y-114193553D01*
X91590691Y-114193553D01*
G37*
D13*
G04 #@! TD*
G04 #@! TO.P,C2,1*
G04 #@! TO.N,GND*
X91313000Y-114630000D03*
D12*
G04 #@! TO.N,Net-(C2-Pad2)*
G04 #@! TO.C,C2*
G36*
X91590691Y-115768553D02*
X91611926Y-115771703D01*
X91632750Y-115776919D01*
X91652962Y-115784151D01*
X91672368Y-115793330D01*
X91690781Y-115804366D01*
X91708024Y-115817154D01*
X91723930Y-115831570D01*
X91738346Y-115847476D01*
X91751134Y-115864719D01*
X91762170Y-115883132D01*
X91771349Y-115902538D01*
X91778581Y-115922750D01*
X91783797Y-115943574D01*
X91786947Y-115964809D01*
X91788000Y-115986250D01*
X91788000Y-116423750D01*
X91786947Y-116445191D01*
X91783797Y-116466426D01*
X91778581Y-116487250D01*
X91771349Y-116507462D01*
X91762170Y-116526868D01*
X91751134Y-116545281D01*
X91738346Y-116562524D01*
X91723930Y-116578430D01*
X91708024Y-116592846D01*
X91690781Y-116605634D01*
X91672368Y-116616670D01*
X91652962Y-116625849D01*
X91632750Y-116633081D01*
X91611926Y-116638297D01*
X91590691Y-116641447D01*
X91569250Y-116642500D01*
X91056750Y-116642500D01*
X91035309Y-116641447D01*
X91014074Y-116638297D01*
X90993250Y-116633081D01*
X90973038Y-116625849D01*
X90953632Y-116616670D01*
X90935219Y-116605634D01*
X90917976Y-116592846D01*
X90902070Y-116578430D01*
X90887654Y-116562524D01*
X90874866Y-116545281D01*
X90863830Y-116526868D01*
X90854651Y-116507462D01*
X90847419Y-116487250D01*
X90842203Y-116466426D01*
X90839053Y-116445191D01*
X90838000Y-116423750D01*
X90838000Y-115986250D01*
X90839053Y-115964809D01*
X90842203Y-115943574D01*
X90847419Y-115922750D01*
X90854651Y-115902538D01*
X90863830Y-115883132D01*
X90874866Y-115864719D01*
X90887654Y-115847476D01*
X90902070Y-115831570D01*
X90917976Y-115817154D01*
X90935219Y-115804366D01*
X90953632Y-115793330D01*
X90973038Y-115784151D01*
X90993250Y-115776919D01*
X91014074Y-115771703D01*
X91035309Y-115768553D01*
X91056750Y-115767500D01*
X91569250Y-115767500D01*
X91590691Y-115768553D01*
X91590691Y-115768553D01*
G37*
D13*
G04 #@! TD*
G04 #@! TO.P,C2,2*
G04 #@! TO.N,Net-(C2-Pad2)*
X91313000Y-116205000D03*
D12*
G04 #@! TO.N,D1*
G04 #@! TO.C,R1*
G36*
X93077191Y-122589053D02*
X93098426Y-122592203D01*
X93119250Y-122597419D01*
X93139462Y-122604651D01*
X93158868Y-122613830D01*
X93177281Y-122624866D01*
X93194524Y-122637654D01*
X93210430Y-122652070D01*
X93224846Y-122667976D01*
X93237634Y-122685219D01*
X93248670Y-122703632D01*
X93257849Y-122723038D01*
X93265081Y-122743250D01*
X93270297Y-122764074D01*
X93273447Y-122785309D01*
X93274500Y-122806750D01*
X93274500Y-123319250D01*
X93273447Y-123340691D01*
X93270297Y-123361926D01*
X93265081Y-123382750D01*
X93257849Y-123402962D01*
X93248670Y-123422368D01*
X93237634Y-123440781D01*
X93224846Y-123458024D01*
X93210430Y-123473930D01*
X93194524Y-123488346D01*
X93177281Y-123501134D01*
X93158868Y-123512170D01*
X93139462Y-123521349D01*
X93119250Y-123528581D01*
X93098426Y-123533797D01*
X93077191Y-123536947D01*
X93055750Y-123538000D01*
X92618250Y-123538000D01*
X92596809Y-123536947D01*
X92575574Y-123533797D01*
X92554750Y-123528581D01*
X92534538Y-123521349D01*
X92515132Y-123512170D01*
X92496719Y-123501134D01*
X92479476Y-123488346D01*
X92463570Y-123473930D01*
X92449154Y-123458024D01*
X92436366Y-123440781D01*
X92425330Y-123422368D01*
X92416151Y-123402962D01*
X92408919Y-123382750D01*
X92403703Y-123361926D01*
X92400553Y-123340691D01*
X92399500Y-123319250D01*
X92399500Y-122806750D01*
X92400553Y-122785309D01*
X92403703Y-122764074D01*
X92408919Y-122743250D01*
X92416151Y-122723038D01*
X92425330Y-122703632D01*
X92436366Y-122685219D01*
X92449154Y-122667976D01*
X92463570Y-122652070D01*
X92479476Y-122637654D01*
X92496719Y-122624866D01*
X92515132Y-122613830D01*
X92534538Y-122604651D01*
X92554750Y-122597419D01*
X92575574Y-122592203D01*
X92596809Y-122589053D01*
X92618250Y-122588000D01*
X93055750Y-122588000D01*
X93077191Y-122589053D01*
X93077191Y-122589053D01*
G37*
D13*
G04 #@! TD*
G04 #@! TO.P,R1,1*
G04 #@! TO.N,D1*
X92837000Y-123063000D03*
D12*
G04 #@! TO.N,Net-(J1-Pad4)*
G04 #@! TO.C,R1*
G36*
X91502191Y-122589053D02*
X91523426Y-122592203D01*
X91544250Y-122597419D01*
X91564462Y-122604651D01*
X91583868Y-122613830D01*
X91602281Y-122624866D01*
X91619524Y-122637654D01*
X91635430Y-122652070D01*
X91649846Y-122667976D01*
X91662634Y-122685219D01*
X91673670Y-122703632D01*
X91682849Y-122723038D01*
X91690081Y-122743250D01*
X91695297Y-122764074D01*
X91698447Y-122785309D01*
X91699500Y-122806750D01*
X91699500Y-123319250D01*
X91698447Y-123340691D01*
X91695297Y-123361926D01*
X91690081Y-123382750D01*
X91682849Y-123402962D01*
X91673670Y-123422368D01*
X91662634Y-123440781D01*
X91649846Y-123458024D01*
X91635430Y-123473930D01*
X91619524Y-123488346D01*
X91602281Y-123501134D01*
X91583868Y-123512170D01*
X91564462Y-123521349D01*
X91544250Y-123528581D01*
X91523426Y-123533797D01*
X91502191Y-123536947D01*
X91480750Y-123538000D01*
X91043250Y-123538000D01*
X91021809Y-123536947D01*
X91000574Y-123533797D01*
X90979750Y-123528581D01*
X90959538Y-123521349D01*
X90940132Y-123512170D01*
X90921719Y-123501134D01*
X90904476Y-123488346D01*
X90888570Y-123473930D01*
X90874154Y-123458024D01*
X90861366Y-123440781D01*
X90850330Y-123422368D01*
X90841151Y-123402962D01*
X90833919Y-123382750D01*
X90828703Y-123361926D01*
X90825553Y-123340691D01*
X90824500Y-123319250D01*
X90824500Y-122806750D01*
X90825553Y-122785309D01*
X90828703Y-122764074D01*
X90833919Y-122743250D01*
X90841151Y-122723038D01*
X90850330Y-122703632D01*
X90861366Y-122685219D01*
X90874154Y-122667976D01*
X90888570Y-122652070D01*
X90904476Y-122637654D01*
X90921719Y-122624866D01*
X90940132Y-122613830D01*
X90959538Y-122604651D01*
X90979750Y-122597419D01*
X91000574Y-122592203D01*
X91021809Y-122589053D01*
X91043250Y-122588000D01*
X91480750Y-122588000D01*
X91502191Y-122589053D01*
X91502191Y-122589053D01*
G37*
D13*
G04 #@! TD*
G04 #@! TO.P,R1,2*
G04 #@! TO.N,Net-(J1-Pad4)*
X91262000Y-123063000D03*
D10*
G04 #@! TO.P,J2,1*
G04 #@! TO.N,GND*
X85217000Y-111887000D03*
D11*
G04 #@! TO.P,J2,2*
G04 #@! TO.N,D2*
X87757000Y-111887000D03*
G04 #@! TO.P,J2,3*
G04 #@! TO.N,GND*
X90297000Y-111887000D03*
G04 #@! TO.P,J2,4*
G04 #@! TO.N,D1*
X92837000Y-111887000D03*
G04 #@! TD*
D29*
G04 #@! TO.P,J1,1*
G04 #@! TO.N,Net-(J1-Pad1)*
X81407000Y-116205000D03*
G04 #@! TO.P,J1,2*
G04 #@! TO.N,Net-(C2-Pad2)*
X89027000Y-116205000D03*
G04 #@! TO.P,J1,3*
G04 #@! TO.N,Net-(J1-Pad3)*
X96647000Y-116205000D03*
G04 #@! TO.P,J1,4*
G04 #@! TO.N,Net-(J1-Pad4)*
X83947000Y-113919000D03*
G04 #@! TO.P,J1,5*
G04 #@! TO.N,D2*
X94107000Y-113919000D03*
D30*
G04 #@! TO.P,J1,*
G04 #@! TO.N,*
X96647000Y-121285000D03*
X81153000Y-121285000D03*
D29*
X83947000Y-126365000D03*
X94107000Y-126365000D03*
G04 #@! TD*
D10*
G04 #@! TO.P,J1,1*
G04 #@! TO.N,PWM*
X82613500Y-78613000D03*
D11*
G04 #@! TO.P,J1,2*
G04 #@! TO.N,GND*
X85153500Y-78613000D03*
G04 #@! TO.P,J1,3*
G04 #@! TO.N,VOUT_*
X87693500Y-78613000D03*
G04 #@! TO.P,J1,4*
G04 #@! TO.N,GND*
X90233500Y-78613000D03*
G04 #@! TO.P,J1,5*
G04 #@! TO.N,TRIGGER*
X92773500Y-78613000D03*
G04 #@! TO.P,J1,6*
G04 #@! TO.N,VDD*
X95313500Y-78613000D03*
G04 #@! TD*
D10*
G04 #@! TO.P,J2,1*
G04 #@! TO.N,TRIGGER*
X96075500Y-73279000D03*
G04 #@! TD*
G04 #@! TO.P,J4,1*
G04 #@! TO.N,PWM*
X90741500Y-59309000D03*
G04 #@! TD*
G04 #@! TO.P,J6,1*
G04 #@! TO.N,VOUT_*
X90995500Y-73279000D03*
G04 #@! TD*
G04 #@! TO.P,J8,1*
G04 #@! TO.N,GND*
X92773500Y-54483000D03*
D11*
G04 #@! TO.P,J8,2*
G04 #@! TO.N,D2*
X90233500Y-54483000D03*
G04 #@! TO.P,J8,3*
G04 #@! TO.N,GND*
X87693500Y-54483000D03*
G04 #@! TO.P,J8,4*
G04 #@! TO.N,D1*
X85153500Y-54483000D03*
G04 #@! TD*
D10*
G04 #@! TO.P,J9,1*
G04 #@! TO.N,GND*
X92773500Y-51435000D03*
D11*
G04 #@! TO.P,J9,2*
G04 #@! TO.N,D2*
X90233500Y-51435000D03*
G04 #@! TO.P,J9,3*
G04 #@! TO.N,GND*
X87693500Y-51435000D03*
G04 #@! TO.P,J9,4*
G04 #@! TO.N,D1*
X85153500Y-51435000D03*
G04 #@! TD*
D31*
G04 #@! TO.P,J7,S*
G04 #@! TO.N,GND*
X87439500Y-71755000D03*
G04 #@! TO.P,J7,G*
X83375500Y-74295000D03*
G04 #@! TO.P,J7,R*
G04 #@! TO.N,Net-(J7-PadR)*
X84899500Y-69215000D03*
G04 #@! TO.P,J7,T*
G04 #@! TO.N,VOUT_*
X79819500Y-71755000D03*
G04 #@! TD*
G04 #@! TO.P,J5,T*
G04 #@! TO.N,PWM*
X79819500Y-61214000D03*
G04 #@! TO.P,J5,R*
G04 #@! TO.N,Net-(J5-PadR)*
X84899500Y-58674000D03*
G04 #@! TO.P,J5,G*
G04 #@! TO.N,GND*
X83375500Y-63754000D03*
G04 #@! TO.P,J5,S*
X87439500Y-61214000D03*
G04 #@! TD*
G04 #@! TO.P,J3,T*
G04 #@! TO.N,TRIGGER*
X98234500Y-66421000D03*
G04 #@! TO.P,J3,R*
G04 #@! TO.N,Net-(J3-PadR)*
X93154500Y-68961000D03*
G04 #@! TO.P,J3,G*
G04 #@! TO.N,GND*
X94678500Y-63881000D03*
G04 #@! TO.P,J3,S*
X90614500Y-66421000D03*
G04 #@! TD*
D10*
G04 #@! TO.P,J1,1*
G04 #@! TO.N,PWM*
X82613500Y-108458000D03*
D11*
G04 #@! TO.P,J1,2*
G04 #@! TO.N,GND*
X85153500Y-108458000D03*
G04 #@! TO.P,J1,3*
G04 #@! TO.N,VOUT_*
X87693500Y-108458000D03*
G04 #@! TO.P,J1,4*
G04 #@! TO.N,GND*
X90233500Y-108458000D03*
G04 #@! TO.P,J1,5*
G04 #@! TO.N,TRIGGER*
X92773500Y-108458000D03*
G04 #@! TO.P,J1,6*
G04 #@! TO.N,VDD*
X95313500Y-108458000D03*
G04 #@! TD*
D10*
G04 #@! TO.P,J2,1*
G04 #@! TO.N,TRIGGER*
X96075500Y-103124000D03*
G04 #@! TD*
G04 #@! TO.P,J4,1*
G04 #@! TO.N,PWM*
X90741500Y-89154000D03*
G04 #@! TD*
G04 #@! TO.P,J6,1*
G04 #@! TO.N,VOUT_*
X90995500Y-103124000D03*
G04 #@! TD*
G04 #@! TO.P,J8,1*
G04 #@! TO.N,GND*
X92773500Y-84328000D03*
D11*
G04 #@! TO.P,J8,2*
G04 #@! TO.N,D2*
X90233500Y-84328000D03*
G04 #@! TO.P,J8,3*
G04 #@! TO.N,GND*
X87693500Y-84328000D03*
G04 #@! TO.P,J8,4*
G04 #@! TO.N,D1*
X85153500Y-84328000D03*
G04 #@! TD*
D10*
G04 #@! TO.P,J9,1*
G04 #@! TO.N,GND*
X92773500Y-81280000D03*
D11*
G04 #@! TO.P,J9,2*
G04 #@! TO.N,D2*
X90233500Y-81280000D03*
G04 #@! TO.P,J9,3*
G04 #@! TO.N,GND*
X87693500Y-81280000D03*
G04 #@! TO.P,J9,4*
G04 #@! TO.N,D1*
X85153500Y-81280000D03*
G04 #@! TD*
D31*
G04 #@! TO.P,J7,S*
G04 #@! TO.N,GND*
X87439500Y-101600000D03*
G04 #@! TO.P,J7,G*
X83375500Y-104140000D03*
G04 #@! TO.P,J7,R*
G04 #@! TO.N,Net-(J7-PadR)*
X84899500Y-99060000D03*
G04 #@! TO.P,J7,T*
G04 #@! TO.N,VOUT_*
X79819500Y-101600000D03*
G04 #@! TD*
G04 #@! TO.P,J5,T*
G04 #@! TO.N,PWM*
X79819500Y-91059000D03*
G04 #@! TO.P,J5,R*
G04 #@! TO.N,Net-(J5-PadR)*
X84899500Y-88519000D03*
G04 #@! TO.P,J5,G*
G04 #@! TO.N,GND*
X83375500Y-93599000D03*
G04 #@! TO.P,J5,S*
X87439500Y-91059000D03*
G04 #@! TD*
G04 #@! TO.P,J3,T*
G04 #@! TO.N,TRIGGER*
X98234500Y-96266000D03*
G04 #@! TO.P,J3,R*
G04 #@! TO.N,Net-(J3-PadR)*
X93154500Y-98806000D03*
G04 #@! TO.P,J3,G*
G04 #@! TO.N,GND*
X94678500Y-93726000D03*
G04 #@! TO.P,J3,S*
X90614500Y-96266000D03*
G04 #@! TD*
D27*
G04 #@! TO.P,D1,1*
G04 #@! TO.N,D1*
X113284000Y-120015000D03*
D28*
G04 #@! TO.P,D1,2*
G04 #@! TO.N,D2*
X105664000Y-120015000D03*
G04 #@! TD*
D12*
G04 #@! TO.N,GND*
G04 #@! TO.C,C2*
G36*
X112037691Y-114193553D02*
X112058926Y-114196703D01*
X112079750Y-114201919D01*
X112099962Y-114209151D01*
X112119368Y-114218330D01*
X112137781Y-114229366D01*
X112155024Y-114242154D01*
X112170930Y-114256570D01*
X112185346Y-114272476D01*
X112198134Y-114289719D01*
X112209170Y-114308132D01*
X112218349Y-114327538D01*
X112225581Y-114347750D01*
X112230797Y-114368574D01*
X112233947Y-114389809D01*
X112235000Y-114411250D01*
X112235000Y-114848750D01*
X112233947Y-114870191D01*
X112230797Y-114891426D01*
X112225581Y-114912250D01*
X112218349Y-114932462D01*
X112209170Y-114951868D01*
X112198134Y-114970281D01*
X112185346Y-114987524D01*
X112170930Y-115003430D01*
X112155024Y-115017846D01*
X112137781Y-115030634D01*
X112119368Y-115041670D01*
X112099962Y-115050849D01*
X112079750Y-115058081D01*
X112058926Y-115063297D01*
X112037691Y-115066447D01*
X112016250Y-115067500D01*
X111503750Y-115067500D01*
X111482309Y-115066447D01*
X111461074Y-115063297D01*
X111440250Y-115058081D01*
X111420038Y-115050849D01*
X111400632Y-115041670D01*
X111382219Y-115030634D01*
X111364976Y-115017846D01*
X111349070Y-115003430D01*
X111334654Y-114987524D01*
X111321866Y-114970281D01*
X111310830Y-114951868D01*
X111301651Y-114932462D01*
X111294419Y-114912250D01*
X111289203Y-114891426D01*
X111286053Y-114870191D01*
X111285000Y-114848750D01*
X111285000Y-114411250D01*
X111286053Y-114389809D01*
X111289203Y-114368574D01*
X111294419Y-114347750D01*
X111301651Y-114327538D01*
X111310830Y-114308132D01*
X111321866Y-114289719D01*
X111334654Y-114272476D01*
X111349070Y-114256570D01*
X111364976Y-114242154D01*
X111382219Y-114229366D01*
X111400632Y-114218330D01*
X111420038Y-114209151D01*
X111440250Y-114201919D01*
X111461074Y-114196703D01*
X111482309Y-114193553D01*
X111503750Y-114192500D01*
X112016250Y-114192500D01*
X112037691Y-114193553D01*
X112037691Y-114193553D01*
G37*
D13*
G04 #@! TD*
G04 #@! TO.P,C2,1*
G04 #@! TO.N,GND*
X111760000Y-114630000D03*
D12*
G04 #@! TO.N,Net-(C2-Pad2)*
G04 #@! TO.C,C2*
G36*
X112037691Y-115768553D02*
X112058926Y-115771703D01*
X112079750Y-115776919D01*
X112099962Y-115784151D01*
X112119368Y-115793330D01*
X112137781Y-115804366D01*
X112155024Y-115817154D01*
X112170930Y-115831570D01*
X112185346Y-115847476D01*
X112198134Y-115864719D01*
X112209170Y-115883132D01*
X112218349Y-115902538D01*
X112225581Y-115922750D01*
X112230797Y-115943574D01*
X112233947Y-115964809D01*
X112235000Y-115986250D01*
X112235000Y-116423750D01*
X112233947Y-116445191D01*
X112230797Y-116466426D01*
X112225581Y-116487250D01*
X112218349Y-116507462D01*
X112209170Y-116526868D01*
X112198134Y-116545281D01*
X112185346Y-116562524D01*
X112170930Y-116578430D01*
X112155024Y-116592846D01*
X112137781Y-116605634D01*
X112119368Y-116616670D01*
X112099962Y-116625849D01*
X112079750Y-116633081D01*
X112058926Y-116638297D01*
X112037691Y-116641447D01*
X112016250Y-116642500D01*
X111503750Y-116642500D01*
X111482309Y-116641447D01*
X111461074Y-116638297D01*
X111440250Y-116633081D01*
X111420038Y-116625849D01*
X111400632Y-116616670D01*
X111382219Y-116605634D01*
X111364976Y-116592846D01*
X111349070Y-116578430D01*
X111334654Y-116562524D01*
X111321866Y-116545281D01*
X111310830Y-116526868D01*
X111301651Y-116507462D01*
X111294419Y-116487250D01*
X111289203Y-116466426D01*
X111286053Y-116445191D01*
X111285000Y-116423750D01*
X111285000Y-115986250D01*
X111286053Y-115964809D01*
X111289203Y-115943574D01*
X111294419Y-115922750D01*
X111301651Y-115902538D01*
X111310830Y-115883132D01*
X111321866Y-115864719D01*
X111334654Y-115847476D01*
X111349070Y-115831570D01*
X111364976Y-115817154D01*
X111382219Y-115804366D01*
X111400632Y-115793330D01*
X111420038Y-115784151D01*
X111440250Y-115776919D01*
X111461074Y-115771703D01*
X111482309Y-115768553D01*
X111503750Y-115767500D01*
X112016250Y-115767500D01*
X112037691Y-115768553D01*
X112037691Y-115768553D01*
G37*
D13*
G04 #@! TD*
G04 #@! TO.P,C2,2*
G04 #@! TO.N,Net-(C2-Pad2)*
X111760000Y-116205000D03*
D12*
G04 #@! TO.N,D1*
G04 #@! TO.C,R1*
G36*
X113524191Y-122589053D02*
X113545426Y-122592203D01*
X113566250Y-122597419D01*
X113586462Y-122604651D01*
X113605868Y-122613830D01*
X113624281Y-122624866D01*
X113641524Y-122637654D01*
X113657430Y-122652070D01*
X113671846Y-122667976D01*
X113684634Y-122685219D01*
X113695670Y-122703632D01*
X113704849Y-122723038D01*
X113712081Y-122743250D01*
X113717297Y-122764074D01*
X113720447Y-122785309D01*
X113721500Y-122806750D01*
X113721500Y-123319250D01*
X113720447Y-123340691D01*
X113717297Y-123361926D01*
X113712081Y-123382750D01*
X113704849Y-123402962D01*
X113695670Y-123422368D01*
X113684634Y-123440781D01*
X113671846Y-123458024D01*
X113657430Y-123473930D01*
X113641524Y-123488346D01*
X113624281Y-123501134D01*
X113605868Y-123512170D01*
X113586462Y-123521349D01*
X113566250Y-123528581D01*
X113545426Y-123533797D01*
X113524191Y-123536947D01*
X113502750Y-123538000D01*
X113065250Y-123538000D01*
X113043809Y-123536947D01*
X113022574Y-123533797D01*
X113001750Y-123528581D01*
X112981538Y-123521349D01*
X112962132Y-123512170D01*
X112943719Y-123501134D01*
X112926476Y-123488346D01*
X112910570Y-123473930D01*
X112896154Y-123458024D01*
X112883366Y-123440781D01*
X112872330Y-123422368D01*
X112863151Y-123402962D01*
X112855919Y-123382750D01*
X112850703Y-123361926D01*
X112847553Y-123340691D01*
X112846500Y-123319250D01*
X112846500Y-122806750D01*
X112847553Y-122785309D01*
X112850703Y-122764074D01*
X112855919Y-122743250D01*
X112863151Y-122723038D01*
X112872330Y-122703632D01*
X112883366Y-122685219D01*
X112896154Y-122667976D01*
X112910570Y-122652070D01*
X112926476Y-122637654D01*
X112943719Y-122624866D01*
X112962132Y-122613830D01*
X112981538Y-122604651D01*
X113001750Y-122597419D01*
X113022574Y-122592203D01*
X113043809Y-122589053D01*
X113065250Y-122588000D01*
X113502750Y-122588000D01*
X113524191Y-122589053D01*
X113524191Y-122589053D01*
G37*
D13*
G04 #@! TD*
G04 #@! TO.P,R1,1*
G04 #@! TO.N,D1*
X113284000Y-123063000D03*
D12*
G04 #@! TO.N,Net-(J1-Pad4)*
G04 #@! TO.C,R1*
G36*
X111949191Y-122589053D02*
X111970426Y-122592203D01*
X111991250Y-122597419D01*
X112011462Y-122604651D01*
X112030868Y-122613830D01*
X112049281Y-122624866D01*
X112066524Y-122637654D01*
X112082430Y-122652070D01*
X112096846Y-122667976D01*
X112109634Y-122685219D01*
X112120670Y-122703632D01*
X112129849Y-122723038D01*
X112137081Y-122743250D01*
X112142297Y-122764074D01*
X112145447Y-122785309D01*
X112146500Y-122806750D01*
X112146500Y-123319250D01*
X112145447Y-123340691D01*
X112142297Y-123361926D01*
X112137081Y-123382750D01*
X112129849Y-123402962D01*
X112120670Y-123422368D01*
X112109634Y-123440781D01*
X112096846Y-123458024D01*
X112082430Y-123473930D01*
X112066524Y-123488346D01*
X112049281Y-123501134D01*
X112030868Y-123512170D01*
X112011462Y-123521349D01*
X111991250Y-123528581D01*
X111970426Y-123533797D01*
X111949191Y-123536947D01*
X111927750Y-123538000D01*
X111490250Y-123538000D01*
X111468809Y-123536947D01*
X111447574Y-123533797D01*
X111426750Y-123528581D01*
X111406538Y-123521349D01*
X111387132Y-123512170D01*
X111368719Y-123501134D01*
X111351476Y-123488346D01*
X111335570Y-123473930D01*
X111321154Y-123458024D01*
X111308366Y-123440781D01*
X111297330Y-123422368D01*
X111288151Y-123402962D01*
X111280919Y-123382750D01*
X111275703Y-123361926D01*
X111272553Y-123340691D01*
X111271500Y-123319250D01*
X111271500Y-122806750D01*
X111272553Y-122785309D01*
X111275703Y-122764074D01*
X111280919Y-122743250D01*
X111288151Y-122723038D01*
X111297330Y-122703632D01*
X111308366Y-122685219D01*
X111321154Y-122667976D01*
X111335570Y-122652070D01*
X111351476Y-122637654D01*
X111368719Y-122624866D01*
X111387132Y-122613830D01*
X111406538Y-122604651D01*
X111426750Y-122597419D01*
X111447574Y-122592203D01*
X111468809Y-122589053D01*
X111490250Y-122588000D01*
X111927750Y-122588000D01*
X111949191Y-122589053D01*
X111949191Y-122589053D01*
G37*
D13*
G04 #@! TD*
G04 #@! TO.P,R1,2*
G04 #@! TO.N,Net-(J1-Pad4)*
X111709000Y-123063000D03*
D10*
G04 #@! TO.P,J2,1*
G04 #@! TO.N,GND*
X105664000Y-111887000D03*
D11*
G04 #@! TO.P,J2,2*
G04 #@! TO.N,D2*
X108204000Y-111887000D03*
G04 #@! TO.P,J2,3*
G04 #@! TO.N,GND*
X110744000Y-111887000D03*
G04 #@! TO.P,J2,4*
G04 #@! TO.N,D1*
X113284000Y-111887000D03*
G04 #@! TD*
D29*
G04 #@! TO.P,J1,1*
G04 #@! TO.N,Net-(J1-Pad1)*
X101854000Y-116205000D03*
G04 #@! TO.P,J1,2*
G04 #@! TO.N,Net-(C2-Pad2)*
X109474000Y-116205000D03*
G04 #@! TO.P,J1,3*
G04 #@! TO.N,Net-(J1-Pad3)*
X117094000Y-116205000D03*
G04 #@! TO.P,J1,4*
G04 #@! TO.N,Net-(J1-Pad4)*
X104394000Y-113919000D03*
G04 #@! TO.P,J1,5*
G04 #@! TO.N,D2*
X114554000Y-113919000D03*
D30*
G04 #@! TO.P,J1,*
G04 #@! TO.N,*
X117094000Y-121285000D03*
X101600000Y-121285000D03*
D29*
X104394000Y-126365000D03*
X114554000Y-126365000D03*
G04 #@! TD*
D32*
G04 #@! TO.N,VDD*
X102044500Y-81534000D03*
X120205500Y-79629000D03*
X120205500Y-76200000D03*
X121983500Y-76200000D03*
X132143500Y-79756000D03*
G04 #@! TO.N,B1*
X122745500Y-74168000D03*
G04 #@! TO.N,B2*
X133794500Y-75057000D03*
X128841500Y-77851000D03*
G04 #@! TO.N,A1*
X127063500Y-74803000D03*
G04 #@! TO.N,BAT-*
X106489500Y-78613000D03*
X112077500Y-82677000D03*
X141541500Y-81153000D03*
X143700500Y-79629000D03*
X151955500Y-86360000D03*
X152463500Y-78232000D03*
X143700500Y-64389000D03*
X109029500Y-86614000D03*
X108140500Y-89916000D03*
X152082500Y-57785000D03*
X147637500Y-57785000D03*
G04 #@! TO.N,MCLR*
X125412500Y-77724000D03*
X124777500Y-81407000D03*
G04 #@! TO.N,PGD*
X129603500Y-78613000D03*
G04 #@! TO.N,PWM*
X122110500Y-73025000D03*
G04 #@! TO.N,VOUT_*
X107505500Y-86106000D03*
G04 #@! TO.N,TRIGGER*
X121094500Y-80391000D03*
G04 #@! TO.N,Net-(R3-Pad2)*
X134175500Y-72517000D03*
G04 #@! TO.N,Net-(SW4-Pad3)*
X129857500Y-74295000D03*
X119951500Y-72771000D03*
X112839500Y-77851000D03*
G04 #@! TD*
D33*
G04 #@! TO.N,VDD*
X109363000Y-54229000D02*
X109410500Y-54229000D01*
X107104499Y-56487501D02*
X109363000Y-54229000D01*
X104993501Y-56487501D02*
X107104499Y-56487501D01*
X104868500Y-56362500D02*
X104993501Y-56487501D01*
X104868500Y-55437500D02*
X104868500Y-56362500D01*
X112712500Y-85217000D02*
X103441500Y-85217000D01*
X103441500Y-85217000D02*
X102044500Y-83820000D01*
X102044500Y-83820000D02*
X102044500Y-81534000D01*
X105854500Y-106299000D02*
X105600500Y-106299000D01*
X105600500Y-106299000D02*
X103568500Y-104267000D01*
X103568500Y-93291000D02*
X101790500Y-91513000D01*
X103568500Y-104267000D02*
X103568500Y-93291000D01*
X116014500Y-85217000D02*
X119697500Y-85217000D01*
X119697500Y-85217000D02*
X120205500Y-84709000D01*
X120205500Y-84709000D02*
X120205500Y-79629000D01*
X120205500Y-76200000D02*
X121983500Y-76200000D01*
X121983500Y-76200000D02*
X131127500Y-76200000D01*
X131127500Y-76200000D02*
X132143500Y-77216000D01*
X132143500Y-77216000D02*
X132143500Y-79756000D01*
G04 #@! TO.N,B1*
X146621500Y-65786000D02*
X149542500Y-68707000D01*
X133159500Y-65786000D02*
X146621500Y-65786000D01*
X122999500Y-71755000D02*
X121221500Y-69977000D01*
X121221500Y-69977000D02*
X121221500Y-69088000D01*
X121221500Y-69088000D02*
X127317500Y-62992000D01*
X127317500Y-62992000D02*
X130365500Y-62992000D01*
X130365500Y-62992000D02*
X133159500Y-65786000D01*
X122999500Y-73914000D02*
X122999500Y-71755000D01*
X122745500Y-74168000D02*
X122999500Y-73914000D01*
G04 #@! TO.N,B2*
X133794500Y-75057000D02*
X143954500Y-85217000D01*
X148018500Y-85217000D02*
X149542500Y-83693000D01*
X143954500Y-85217000D02*
X148018500Y-85217000D01*
X116014500Y-77597000D02*
X117284500Y-77597000D01*
X117284500Y-77597000D02*
X117919500Y-76962000D01*
X127952500Y-76962000D02*
X117919500Y-76962000D01*
X128841500Y-77851000D02*
X127952500Y-76962000D01*
G04 #@! TO.N,A1*
X127063500Y-74803000D02*
X127825500Y-74041000D01*
X127825500Y-74041000D02*
X127825500Y-69977000D01*
X127825500Y-69977000D02*
X126555500Y-68707000D01*
X126555500Y-68707000D02*
X126555500Y-64643000D01*
X126555500Y-64643000D02*
X127698500Y-63500000D01*
X127698500Y-63500000D02*
X129984500Y-63500000D01*
X129984500Y-63500000D02*
X132905500Y-66421000D01*
X144716500Y-66421000D02*
X147002500Y-68707000D01*
X132905500Y-66421000D02*
X144716500Y-66421000D01*
G04 #@! TO.N,BAT-*
X130238500Y-98679000D02*
X127063500Y-98679000D01*
X127063500Y-98679000D02*
X125539500Y-100203000D01*
X125539500Y-100203000D02*
X121348500Y-100203000D01*
X119824500Y-98679000D02*
X118046500Y-98679000D01*
X121348500Y-100203000D02*
X119824500Y-98679000D01*
X118046500Y-98679000D02*
X116268500Y-98679000D01*
X116268500Y-98679000D02*
X109918500Y-105029000D01*
X109918500Y-105029000D02*
X105092500Y-105029000D01*
X105092500Y-105029000D02*
X104330500Y-104267000D01*
X104330500Y-102743000D02*
X105854500Y-101219000D01*
X104330500Y-104267000D02*
X104330500Y-102743000D01*
X101068500Y-55437500D02*
X102268500Y-55437500D01*
X102568500Y-52737500D02*
X100668500Y-52737500D01*
X104568500Y-52737500D02*
X102568500Y-52737500D01*
X106468500Y-52737500D02*
X104568500Y-52737500D01*
X106068500Y-53737500D02*
X107068500Y-52737500D01*
X106068500Y-55437500D02*
X106068500Y-53737500D01*
X101068500Y-53737500D02*
X100068500Y-52737500D01*
X101068500Y-55437500D02*
X101068500Y-53737500D01*
X106489500Y-78613000D02*
X108140500Y-80264000D01*
X108140500Y-80264000D02*
X108140500Y-82042000D01*
X108140500Y-82042000D02*
X108775500Y-82677000D01*
X108775500Y-82677000D02*
X112077500Y-82677000D01*
X112077500Y-82677000D02*
X116014500Y-82677000D01*
X141541500Y-81153000D02*
X142176500Y-81153000D01*
X142176500Y-81153000D02*
X143700500Y-79629000D01*
X151955500Y-83820000D02*
X152082500Y-83693000D01*
X151955500Y-86360000D02*
X151955500Y-83820000D01*
X143700500Y-79629000D02*
X145097500Y-78232000D01*
X145097500Y-78232000D02*
X152463500Y-78232000D01*
X143700500Y-64389000D02*
X143954500Y-64643000D01*
X143954500Y-64643000D02*
X151574500Y-64643000D01*
X152082500Y-65151000D02*
X152082500Y-68707000D01*
X151574500Y-64643000D02*
X152082500Y-65151000D01*
X109029500Y-86614000D02*
X108140500Y-87503000D01*
X108140500Y-87503000D02*
X108140500Y-89916000D01*
X152082500Y-65151000D02*
X152082500Y-57785000D01*
X152082500Y-57785000D02*
X147637500Y-57785000D01*
G04 #@! TO.N,Net-(D1-Pad2)*
X118046500Y-95377000D02*
X118046500Y-97104000D01*
G04 #@! TO.N,MCLR*
X125412500Y-77724000D02*
X124777500Y-78359000D01*
X124777500Y-78359000D02*
X124777500Y-81407000D01*
G04 #@! TO.N,PGD*
X116014500Y-79756000D02*
X116014500Y-80137000D01*
X119570500Y-77724000D02*
X118046500Y-77724000D01*
X129603500Y-78740000D02*
X130365500Y-79502000D01*
X129603500Y-78613000D02*
X129603500Y-78740000D01*
X118046500Y-77724000D02*
X116014500Y-79756000D01*
X130365500Y-79502000D02*
X130365500Y-80772000D01*
X130365500Y-80772000D02*
X128714500Y-82423000D01*
X128714500Y-82423000D02*
X124269500Y-82423000D01*
X124269500Y-82423000D02*
X119570500Y-77724000D01*
G04 #@! TO.N,PWM*
X122110500Y-73025000D02*
X121983500Y-72898000D01*
X106235500Y-93599000D02*
X105854500Y-93599000D01*
X115125500Y-83947000D02*
X114109500Y-84963000D01*
X117411500Y-82042000D02*
X117411500Y-83185000D01*
X114109500Y-84963000D02*
X114109500Y-85725000D01*
X115506500Y-81407000D02*
X116776500Y-81407000D01*
X122110500Y-72771000D02*
X120967500Y-71628000D01*
X122110500Y-73025000D02*
X122110500Y-72771000D01*
X114109500Y-85725000D02*
X106235500Y-93599000D01*
X116776500Y-81407000D02*
X117411500Y-82042000D01*
X120967500Y-71628000D02*
X118681500Y-71628000D01*
X117411500Y-83185000D02*
X116649500Y-83947000D01*
X118681500Y-71628000D02*
X114744500Y-75565000D01*
X114744500Y-75565000D02*
X114744500Y-80645000D01*
X116649500Y-83947000D02*
X115125500Y-83947000D01*
X114744500Y-80645000D02*
X115506500Y-81407000D01*
X90741500Y-60409000D02*
X90741500Y-59309000D01*
X91689501Y-70055001D02*
X91689501Y-61357001D01*
X92170501Y-74389001D02*
X92170501Y-70536001D01*
X91598499Y-74961003D02*
X92170501Y-74389001D01*
X91598499Y-78987003D02*
X91598499Y-74961003D01*
X91689501Y-61357001D02*
X90741500Y-60409000D01*
X90797501Y-79788001D02*
X91598499Y-78987003D01*
X92170501Y-70536001D02*
X91689501Y-70055001D01*
X82688501Y-79788001D02*
X90797501Y-79788001D01*
X82613500Y-79713000D02*
X82688501Y-79788001D01*
X82613500Y-78613000D02*
X82613500Y-79713000D01*
X89641500Y-59309000D02*
X86847500Y-56515000D01*
X90741500Y-59309000D02*
X89641500Y-59309000D01*
X79819500Y-60587000D02*
X79819500Y-61087000D01*
X83891500Y-56515000D02*
X79819500Y-60587000D01*
X86847500Y-56515000D02*
X83891500Y-56515000D01*
X90741500Y-90254000D02*
X90741500Y-89154000D01*
X91689501Y-99900001D02*
X91689501Y-91202001D01*
X92170501Y-104234001D02*
X92170501Y-100381001D01*
X91598499Y-104806003D02*
X92170501Y-104234001D01*
X91598499Y-108832003D02*
X91598499Y-104806003D01*
X91689501Y-91202001D02*
X90741500Y-90254000D01*
X90797501Y-109633001D02*
X91598499Y-108832003D01*
X92170501Y-100381001D02*
X91689501Y-99900001D01*
X82688501Y-109633001D02*
X90797501Y-109633001D01*
X82613500Y-109558000D02*
X82688501Y-109633001D01*
X82613500Y-108458000D02*
X82613500Y-109558000D01*
X89641500Y-89154000D02*
X86847500Y-86360000D01*
X90741500Y-89154000D02*
X89641500Y-89154000D01*
X79819500Y-90432000D02*
X79819500Y-90932000D01*
X83891500Y-86360000D02*
X79819500Y-90432000D01*
X86847500Y-86360000D02*
X83891500Y-86360000D01*
G04 #@! TO.N,VOUT_*
X105854500Y-98679000D02*
X104203500Y-97028000D01*
X104203500Y-97028000D02*
X104076500Y-96901000D01*
X104076500Y-96901000D02*
X104076500Y-89535000D01*
X104076500Y-89535000D02*
X107505500Y-86106000D01*
X90995500Y-75311000D02*
X90995500Y-73279000D01*
X87693500Y-78613000D02*
X90995500Y-75311000D01*
X80819500Y-71755000D02*
X79819500Y-71755000D01*
X83420502Y-71755000D02*
X80819500Y-71755000D01*
X86843501Y-75177999D02*
X83420502Y-71755000D01*
X86843501Y-77763001D02*
X86843501Y-75177999D01*
X87693500Y-78613000D02*
X86843501Y-77763001D01*
X90995500Y-105156000D02*
X90995500Y-103124000D01*
X87693500Y-108458000D02*
X90995500Y-105156000D01*
X80819500Y-101600000D02*
X79819500Y-101600000D01*
X83420502Y-101600000D02*
X80819500Y-101600000D01*
X86843501Y-105022999D02*
X83420502Y-101600000D01*
X86843501Y-107608001D02*
X86843501Y-105022999D01*
X87693500Y-108458000D02*
X86843501Y-107608001D01*
G04 #@! TO.N,TRIGGER*
X105854500Y-103759000D02*
X105854500Y-103378000D01*
X105854500Y-103378000D02*
X107632500Y-101600000D01*
X107632500Y-101600000D02*
X107632500Y-93472000D01*
X107632500Y-93472000D02*
X110426500Y-90678000D01*
X114922500Y-90678000D02*
X118046500Y-93802000D01*
X110426500Y-90678000D02*
X114922500Y-90678000D01*
X121094500Y-90754000D02*
X118046500Y-93802000D01*
X121094500Y-80391000D02*
X121094500Y-90754000D01*
X96075500Y-75311000D02*
X96075500Y-73279000D01*
X92773500Y-78613000D02*
X96075500Y-75311000D01*
X97175500Y-73279000D02*
X96075500Y-73279000D01*
X98234500Y-72220000D02*
X97175500Y-73279000D01*
X98234500Y-66421000D02*
X98234500Y-72220000D01*
X96075500Y-105156000D02*
X96075500Y-103124000D01*
X92773500Y-108458000D02*
X96075500Y-105156000D01*
X97175500Y-103124000D02*
X96075500Y-103124000D01*
X98234500Y-102065000D02*
X97175500Y-103124000D01*
X98234500Y-96266000D02*
X98234500Y-102065000D01*
G04 #@! TO.N,Net-(R3-Pad2)*
X130859187Y-65263687D02*
X128460500Y-65263687D01*
X134175500Y-72517000D02*
X134175500Y-68580000D01*
X134175500Y-68580000D02*
X130859187Y-65263687D01*
G04 #@! TO.N,Net-(SW4-Pad3)*
X129857500Y-74295000D02*
X128968500Y-74295000D01*
X128968500Y-74295000D02*
X128714500Y-74295000D01*
X128714500Y-74295000D02*
X127444500Y-75565000D01*
X127444500Y-75565000D02*
X122745500Y-75565000D01*
X122745500Y-75565000D02*
X119951500Y-72771000D01*
X112839500Y-80010000D02*
X112712500Y-80137000D01*
X112839500Y-77851000D02*
X112839500Y-80010000D01*
G04 #@! TO.N,D2*
X87757000Y-117475000D02*
X85217000Y-120015000D01*
X87757000Y-111887000D02*
X87757000Y-117475000D01*
X89368999Y-111037001D02*
X89896990Y-110509010D01*
X87757000Y-111887000D02*
X88606999Y-111037001D01*
X88606999Y-111037001D02*
X89368999Y-111037001D01*
X94107000Y-112841370D02*
X94107000Y-113919000D01*
X94107000Y-111417998D02*
X94107000Y-112841370D01*
X93198012Y-110509010D02*
X94107000Y-111417998D01*
X89896990Y-110509010D02*
X93198012Y-110509010D01*
X90233500Y-51181000D02*
X90233500Y-54229000D01*
X90233500Y-81026000D02*
X90233500Y-84074000D01*
X108204000Y-117475000D02*
X105664000Y-120015000D01*
X108204000Y-111887000D02*
X108204000Y-117475000D01*
X109815999Y-111037001D02*
X110343990Y-110509010D01*
X108204000Y-111887000D02*
X109053999Y-111037001D01*
X109053999Y-111037001D02*
X109815999Y-111037001D01*
X114554000Y-112841370D02*
X114554000Y-113919000D01*
X114554000Y-111417998D02*
X114554000Y-112841370D01*
X113645012Y-110509010D02*
X114554000Y-111417998D01*
X110343990Y-110509010D02*
X113645012Y-110509010D01*
G04 #@! TO.N,D1*
X92837000Y-123063000D02*
X92837000Y-120015000D01*
X92837000Y-118965000D02*
X92837000Y-111887000D01*
X92837000Y-120015000D02*
X92837000Y-118965000D01*
X85153500Y-53026919D02*
X85153500Y-51181000D01*
X85153500Y-54229000D02*
X85153500Y-53026919D01*
X85153500Y-82871919D02*
X85153500Y-81026000D01*
X85153500Y-84074000D02*
X85153500Y-82871919D01*
X113284000Y-123063000D02*
X113284000Y-120015000D01*
X113284000Y-118965000D02*
X113284000Y-111887000D01*
X113284000Y-120015000D02*
X113284000Y-118965000D01*
G04 #@! TO.N,GND*
X91313000Y-112903000D02*
X90297000Y-111887000D01*
X91313000Y-114630000D02*
X91313000Y-112903000D01*
X85217000Y-111887000D02*
X83566000Y-111887000D01*
X83566000Y-111887000D02*
X82550000Y-112903000D01*
X82550000Y-112903000D02*
X82550000Y-115316000D01*
X82550000Y-115316000D02*
X83312000Y-116078000D01*
X83312000Y-116078000D02*
X83312000Y-122936000D01*
X91313000Y-114630000D02*
X91897000Y-114630000D01*
X91897000Y-114630000D02*
X92202000Y-114935000D01*
X92202000Y-114935000D02*
X92202000Y-116840000D01*
X92202000Y-116840000D02*
X89535000Y-119507000D01*
X85217000Y-111887000D02*
X85217000Y-112776000D01*
X85217000Y-112776000D02*
X85979000Y-113538000D01*
X85979000Y-113538000D02*
X85979000Y-116205000D01*
X111760000Y-112903000D02*
X110744000Y-111887000D01*
X111760000Y-114630000D02*
X111760000Y-112903000D01*
X105664000Y-111887000D02*
X104013000Y-111887000D01*
X104013000Y-111887000D02*
X102997000Y-112903000D01*
X102997000Y-112903000D02*
X102997000Y-115316000D01*
X102997000Y-115316000D02*
X103759000Y-116078000D01*
X103759000Y-116078000D02*
X103759000Y-122936000D01*
X111760000Y-114630000D02*
X112344000Y-114630000D01*
X112344000Y-114630000D02*
X112649000Y-114935000D01*
X112649000Y-114935000D02*
X112649000Y-116840000D01*
X112649000Y-116840000D02*
X109982000Y-119507000D01*
X105664000Y-111887000D02*
X105664000Y-112776000D01*
X105664000Y-112776000D02*
X106426000Y-113538000D01*
X106426000Y-113538000D02*
X106426000Y-116205000D01*
G04 #@! TO.N,Net-(C2-Pad2)*
X89027000Y-116205000D02*
X91313000Y-116205000D01*
X109474000Y-116205000D02*
X111760000Y-116205000D01*
G04 #@! TO.N,Net-(J1-Pad4)*
X83947000Y-114996630D02*
X83947000Y-113919000D01*
X83947000Y-120410002D02*
X83947000Y-114996630D01*
X86599998Y-123063000D02*
X83947000Y-120410002D01*
X91262000Y-123063000D02*
X86599998Y-123063000D01*
X104394000Y-114996630D02*
X104394000Y-113919000D01*
X104394000Y-120410002D02*
X104394000Y-114996630D01*
X107046998Y-123063000D02*
X104394000Y-120410002D01*
X111709000Y-123063000D02*
X107046998Y-123063000D01*
G04 #@! TD*
D34*
G04 #@! TO.N,GND*
G36*
X100271236Y-122975582D02*
X100310352Y-125655000D01*
X99960500Y-125655000D01*
X99960500Y-122664846D01*
X100271236Y-122975582D01*
X100271236Y-122975582D01*
G37*
X100271236Y-122975582D02*
X100310352Y-125655000D01*
X99960500Y-125655000D01*
X99960500Y-122664846D01*
X100271236Y-122975582D01*
G36*
X83732000Y-110910691D02*
X83732000Y-111601250D01*
X83890750Y-111760000D01*
X85090000Y-111760000D01*
X85090000Y-111740000D01*
X85344000Y-111740000D01*
X85344000Y-111760000D01*
X85364000Y-111760000D01*
X85364000Y-112014000D01*
X85344000Y-112014000D01*
X85344000Y-112034000D01*
X85090000Y-112034000D01*
X85090000Y-112014000D01*
X83890750Y-112014000D01*
X83732000Y-112172750D01*
X83732000Y-112522000D01*
X83669119Y-112522000D01*
X83155663Y-112734680D01*
X82762680Y-113127663D01*
X82550000Y-113641119D01*
X82550000Y-114196881D01*
X82762680Y-114710337D01*
X83155663Y-115103320D01*
X83187001Y-115116301D01*
X83187000Y-120335155D01*
X83172112Y-120410002D01*
X83187000Y-120484849D01*
X83187000Y-120484853D01*
X83231096Y-120706538D01*
X83399071Y-120957931D01*
X83462530Y-121000333D01*
X86009669Y-123547473D01*
X86052069Y-123610929D01*
X86115525Y-123653329D01*
X86303460Y-123778904D01*
X86351603Y-123788480D01*
X86525146Y-123823000D01*
X86525150Y-123823000D01*
X86599998Y-123837888D01*
X86674846Y-123823000D01*
X90358104Y-123823000D01*
X90430761Y-123931739D01*
X90711773Y-124119505D01*
X91043250Y-124185440D01*
X91480750Y-124185440D01*
X91812227Y-124119505D01*
X92049500Y-123960964D01*
X92286773Y-124119505D01*
X92618250Y-124185440D01*
X93055750Y-124185440D01*
X93387227Y-124119505D01*
X93668239Y-123931739D01*
X93856005Y-123650727D01*
X93921940Y-123319250D01*
X93921940Y-122806750D01*
X93856005Y-122475273D01*
X93668239Y-122194261D01*
X93597000Y-122146661D01*
X93597000Y-121462440D01*
X93637000Y-121462440D01*
X93884765Y-121413157D01*
X94094809Y-121272809D01*
X94235157Y-121062765D01*
X94284440Y-120815000D01*
X94284440Y-119215000D01*
X94235157Y-118967235D01*
X94094809Y-118757191D01*
X93884765Y-118616843D01*
X93637000Y-118567560D01*
X93597000Y-118567560D01*
X93597000Y-115927119D01*
X95250000Y-115927119D01*
X95250000Y-116482881D01*
X95462680Y-116996337D01*
X95855663Y-117389320D01*
X96369119Y-117602000D01*
X96924881Y-117602000D01*
X97438337Y-117389320D01*
X97831320Y-116996337D01*
X98044000Y-116482881D01*
X98044000Y-115927119D01*
X97831320Y-115413663D01*
X97438337Y-115020680D01*
X96924881Y-114808000D01*
X96369119Y-114808000D01*
X95855663Y-115020680D01*
X95462680Y-115413663D01*
X95250000Y-115927119D01*
X93597000Y-115927119D01*
X93597000Y-115219853D01*
X93829119Y-115316000D01*
X94384881Y-115316000D01*
X94898337Y-115103320D01*
X95291320Y-114710337D01*
X95504000Y-114196881D01*
X95504000Y-113641119D01*
X95291320Y-113127663D01*
X94898337Y-112734680D01*
X94867000Y-112721700D01*
X94867000Y-111492844D01*
X94881888Y-111417997D01*
X94867000Y-111343150D01*
X94867000Y-111343146D01*
X94822904Y-111121461D01*
X94654929Y-110870069D01*
X94615914Y-110844000D01*
X98540501Y-110844000D01*
X98540500Y-120277290D01*
X98456966Y-120075620D01*
X97856380Y-119475034D01*
X97071678Y-119150000D01*
X96222322Y-119150000D01*
X95437620Y-119475034D01*
X94837034Y-120075620D01*
X94512000Y-120860322D01*
X94512000Y-121709678D01*
X94837034Y-122494380D01*
X95437620Y-123094966D01*
X96222322Y-123420000D01*
X97071678Y-123420000D01*
X97856380Y-123094966D01*
X98456966Y-122494380D01*
X98540500Y-122292710D01*
X98540500Y-125655000D01*
X95325011Y-125655000D01*
X95291320Y-125573663D01*
X94898337Y-125180680D01*
X94384881Y-124968000D01*
X93829119Y-124968000D01*
X93315663Y-125180680D01*
X92922680Y-125573663D01*
X92888989Y-125655000D01*
X85165011Y-125655000D01*
X85131320Y-125573663D01*
X84738337Y-125180680D01*
X84224881Y-124968000D01*
X83669119Y-124968000D01*
X83155663Y-125180680D01*
X82762680Y-125573663D01*
X82728989Y-125655000D01*
X79513500Y-125655000D01*
X79513500Y-122664846D01*
X79943620Y-123094966D01*
X80728322Y-123420000D01*
X81577678Y-123420000D01*
X82362380Y-123094966D01*
X82962966Y-122494380D01*
X83288000Y-121709678D01*
X83288000Y-120860322D01*
X82962966Y-120075620D01*
X82362380Y-119475034D01*
X81577678Y-119150000D01*
X80728322Y-119150000D01*
X79943620Y-119475034D01*
X79513500Y-119905154D01*
X79513500Y-115927119D01*
X80010000Y-115927119D01*
X80010000Y-116482881D01*
X80222680Y-116996337D01*
X80615663Y-117389320D01*
X81129119Y-117602000D01*
X81684881Y-117602000D01*
X82198337Y-117389320D01*
X82591320Y-116996337D01*
X82804000Y-116482881D01*
X82804000Y-115927119D01*
X82591320Y-115413663D01*
X82198337Y-115020680D01*
X81684881Y-114808000D01*
X81129119Y-114808000D01*
X80615663Y-115020680D01*
X80222680Y-115413663D01*
X80010000Y-115927119D01*
X79513500Y-115927119D01*
X79513500Y-110844000D01*
X83759624Y-110844000D01*
X83732000Y-110910691D01*
X83732000Y-110910691D01*
G37*
X83732000Y-110910691D02*
X83732000Y-111601250D01*
X83890750Y-111760000D01*
X85090000Y-111760000D01*
X85090000Y-111740000D01*
X85344000Y-111740000D01*
X85344000Y-111760000D01*
X85364000Y-111760000D01*
X85364000Y-112014000D01*
X85344000Y-112014000D01*
X85344000Y-112034000D01*
X85090000Y-112034000D01*
X85090000Y-112014000D01*
X83890750Y-112014000D01*
X83732000Y-112172750D01*
X83732000Y-112522000D01*
X83669119Y-112522000D01*
X83155663Y-112734680D01*
X82762680Y-113127663D01*
X82550000Y-113641119D01*
X82550000Y-114196881D01*
X82762680Y-114710337D01*
X83155663Y-115103320D01*
X83187001Y-115116301D01*
X83187000Y-120335155D01*
X83172112Y-120410002D01*
X83187000Y-120484849D01*
X83187000Y-120484853D01*
X83231096Y-120706538D01*
X83399071Y-120957931D01*
X83462530Y-121000333D01*
X86009669Y-123547473D01*
X86052069Y-123610929D01*
X86115525Y-123653329D01*
X86303460Y-123778904D01*
X86351603Y-123788480D01*
X86525146Y-123823000D01*
X86525150Y-123823000D01*
X86599998Y-123837888D01*
X86674846Y-123823000D01*
X90358104Y-123823000D01*
X90430761Y-123931739D01*
X90711773Y-124119505D01*
X91043250Y-124185440D01*
X91480750Y-124185440D01*
X91812227Y-124119505D01*
X92049500Y-123960964D01*
X92286773Y-124119505D01*
X92618250Y-124185440D01*
X93055750Y-124185440D01*
X93387227Y-124119505D01*
X93668239Y-123931739D01*
X93856005Y-123650727D01*
X93921940Y-123319250D01*
X93921940Y-122806750D01*
X93856005Y-122475273D01*
X93668239Y-122194261D01*
X93597000Y-122146661D01*
X93597000Y-121462440D01*
X93637000Y-121462440D01*
X93884765Y-121413157D01*
X94094809Y-121272809D01*
X94235157Y-121062765D01*
X94284440Y-120815000D01*
X94284440Y-119215000D01*
X94235157Y-118967235D01*
X94094809Y-118757191D01*
X93884765Y-118616843D01*
X93637000Y-118567560D01*
X93597000Y-118567560D01*
X93597000Y-115927119D01*
X95250000Y-115927119D01*
X95250000Y-116482881D01*
X95462680Y-116996337D01*
X95855663Y-117389320D01*
X96369119Y-117602000D01*
X96924881Y-117602000D01*
X97438337Y-117389320D01*
X97831320Y-116996337D01*
X98044000Y-116482881D01*
X98044000Y-115927119D01*
X97831320Y-115413663D01*
X97438337Y-115020680D01*
X96924881Y-114808000D01*
X96369119Y-114808000D01*
X95855663Y-115020680D01*
X95462680Y-115413663D01*
X95250000Y-115927119D01*
X93597000Y-115927119D01*
X93597000Y-115219853D01*
X93829119Y-115316000D01*
X94384881Y-115316000D01*
X94898337Y-115103320D01*
X95291320Y-114710337D01*
X95504000Y-114196881D01*
X95504000Y-113641119D01*
X95291320Y-113127663D01*
X94898337Y-112734680D01*
X94867000Y-112721700D01*
X94867000Y-111492844D01*
X94881888Y-111417997D01*
X94867000Y-111343150D01*
X94867000Y-111343146D01*
X94822904Y-111121461D01*
X94654929Y-110870069D01*
X94615914Y-110844000D01*
X98540501Y-110844000D01*
X98540500Y-120277290D01*
X98456966Y-120075620D01*
X97856380Y-119475034D01*
X97071678Y-119150000D01*
X96222322Y-119150000D01*
X95437620Y-119475034D01*
X94837034Y-120075620D01*
X94512000Y-120860322D01*
X94512000Y-121709678D01*
X94837034Y-122494380D01*
X95437620Y-123094966D01*
X96222322Y-123420000D01*
X97071678Y-123420000D01*
X97856380Y-123094966D01*
X98456966Y-122494380D01*
X98540500Y-122292710D01*
X98540500Y-125655000D01*
X95325011Y-125655000D01*
X95291320Y-125573663D01*
X94898337Y-125180680D01*
X94384881Y-124968000D01*
X93829119Y-124968000D01*
X93315663Y-125180680D01*
X92922680Y-125573663D01*
X92888989Y-125655000D01*
X85165011Y-125655000D01*
X85131320Y-125573663D01*
X84738337Y-125180680D01*
X84224881Y-124968000D01*
X83669119Y-124968000D01*
X83155663Y-125180680D01*
X82762680Y-125573663D01*
X82728989Y-125655000D01*
X79513500Y-125655000D01*
X79513500Y-122664846D01*
X79943620Y-123094966D01*
X80728322Y-123420000D01*
X81577678Y-123420000D01*
X82362380Y-123094966D01*
X82962966Y-122494380D01*
X83288000Y-121709678D01*
X83288000Y-120860322D01*
X82962966Y-120075620D01*
X82362380Y-119475034D01*
X81577678Y-119150000D01*
X80728322Y-119150000D01*
X79943620Y-119475034D01*
X79513500Y-119905154D01*
X79513500Y-115927119D01*
X80010000Y-115927119D01*
X80010000Y-116482881D01*
X80222680Y-116996337D01*
X80615663Y-117389320D01*
X81129119Y-117602000D01*
X81684881Y-117602000D01*
X82198337Y-117389320D01*
X82591320Y-116996337D01*
X82804000Y-116482881D01*
X82804000Y-115927119D01*
X82591320Y-115413663D01*
X82198337Y-115020680D01*
X81684881Y-114808000D01*
X81129119Y-114808000D01*
X80615663Y-115020680D01*
X80222680Y-115413663D01*
X80010000Y-115927119D01*
X79513500Y-115927119D01*
X79513500Y-110844000D01*
X83759624Y-110844000D01*
X83732000Y-110910691D01*
G36*
X90444261Y-117036239D02*
X90725273Y-117224005D01*
X91056750Y-117289940D01*
X91569250Y-117289940D01*
X91900727Y-117224005D01*
X92077000Y-117106223D01*
X92077000Y-118567560D01*
X92037000Y-118567560D01*
X91789235Y-118616843D01*
X91579191Y-118757191D01*
X91438843Y-118967235D01*
X91389560Y-119215000D01*
X91389560Y-120815000D01*
X91438843Y-121062765D01*
X91579191Y-121272809D01*
X91789235Y-121413157D01*
X92037000Y-121462440D01*
X92077001Y-121462440D01*
X92077000Y-122146660D01*
X92049500Y-122165036D01*
X91812227Y-122006495D01*
X91480750Y-121940560D01*
X91043250Y-121940560D01*
X90711773Y-122006495D01*
X90430761Y-122194261D01*
X90358104Y-122303000D01*
X86914800Y-122303000D01*
X85897778Y-121285978D01*
X86251577Y-121049577D01*
X86568740Y-120574909D01*
X86680113Y-120015000D01*
X86615688Y-119691114D01*
X88241476Y-118065327D01*
X88304929Y-118022929D01*
X88347327Y-117959476D01*
X88347329Y-117959474D01*
X88472903Y-117771538D01*
X88472904Y-117771537D01*
X88517000Y-117549852D01*
X88517000Y-117549848D01*
X88525085Y-117509202D01*
X88749119Y-117602000D01*
X89304881Y-117602000D01*
X89818337Y-117389320D01*
X90211320Y-116996337D01*
X90224300Y-116965000D01*
X90396661Y-116965000D01*
X90444261Y-117036239D01*
X90444261Y-117036239D01*
G37*
X90444261Y-117036239D02*
X90725273Y-117224005D01*
X91056750Y-117289940D01*
X91569250Y-117289940D01*
X91900727Y-117224005D01*
X92077000Y-117106223D01*
X92077000Y-118567560D01*
X92037000Y-118567560D01*
X91789235Y-118616843D01*
X91579191Y-118757191D01*
X91438843Y-118967235D01*
X91389560Y-119215000D01*
X91389560Y-120815000D01*
X91438843Y-121062765D01*
X91579191Y-121272809D01*
X91789235Y-121413157D01*
X92037000Y-121462440D01*
X92077001Y-121462440D01*
X92077000Y-122146660D01*
X92049500Y-122165036D01*
X91812227Y-122006495D01*
X91480750Y-121940560D01*
X91043250Y-121940560D01*
X90711773Y-122006495D01*
X90430761Y-122194261D01*
X90358104Y-122303000D01*
X86914800Y-122303000D01*
X85897778Y-121285978D01*
X86251577Y-121049577D01*
X86568740Y-120574909D01*
X86680113Y-120015000D01*
X86615688Y-119691114D01*
X88241476Y-118065327D01*
X88304929Y-118022929D01*
X88347327Y-117959476D01*
X88347329Y-117959474D01*
X88472903Y-117771538D01*
X88472904Y-117771537D01*
X88517000Y-117549852D01*
X88517000Y-117549848D01*
X88525085Y-117509202D01*
X88749119Y-117602000D01*
X89304881Y-117602000D01*
X89818337Y-117389320D01*
X90211320Y-116996337D01*
X90224300Y-116965000D01*
X90396661Y-116965000D01*
X90444261Y-117036239D01*
G36*
X100222586Y-119643068D02*
X99960500Y-119905154D01*
X99960500Y-110844000D01*
X100094133Y-110844000D01*
X100222586Y-119643068D01*
X100222586Y-119643068D01*
G37*
X100222586Y-119643068D02*
X99960500Y-119905154D01*
X99960500Y-110844000D01*
X100094133Y-110844000D01*
X100222586Y-119643068D01*
G36*
X86686375Y-112957625D02*
X86997000Y-113165178D01*
X86997001Y-117160196D01*
X85540886Y-118616312D01*
X85358333Y-118580000D01*
X85075667Y-118580000D01*
X84707000Y-118653332D01*
X84707000Y-115116300D01*
X84738337Y-115103320D01*
X85131320Y-114710337D01*
X85344000Y-114196881D01*
X85344000Y-113641119D01*
X85232527Y-113372000D01*
X85344002Y-113372000D01*
X85344002Y-113213252D01*
X85502750Y-113372000D01*
X86193310Y-113372000D01*
X86426699Y-113275327D01*
X86605327Y-113096698D01*
X86671904Y-112935967D01*
X86686375Y-112957625D01*
X86686375Y-112957625D01*
G37*
X86686375Y-112957625D02*
X86997000Y-113165178D01*
X86997001Y-117160196D01*
X85540886Y-118616312D01*
X85358333Y-118580000D01*
X85075667Y-118580000D01*
X84707000Y-118653332D01*
X84707000Y-115116300D01*
X84738337Y-115103320D01*
X85131320Y-114710337D01*
X85344000Y-114196881D01*
X85344000Y-113641119D01*
X85232527Y-113372000D01*
X85344002Y-113372000D01*
X85344002Y-113213252D01*
X85502750Y-113372000D01*
X86193310Y-113372000D01*
X86426699Y-113275327D01*
X86605327Y-113096698D01*
X86671904Y-112935967D01*
X86686375Y-112957625D01*
G36*
X90424000Y-111760000D02*
X90444000Y-111760000D01*
X90444000Y-112014000D01*
X90424000Y-112014000D01*
X90424000Y-113207155D01*
X90653890Y-113328476D01*
X91063924Y-113158645D01*
X91492183Y-112768358D01*
X91553157Y-112638522D01*
X91766375Y-112957625D01*
X92077001Y-113165179D01*
X92077001Y-113624889D01*
X91914310Y-113557500D01*
X91598750Y-113557500D01*
X91440000Y-113716250D01*
X91440000Y-114503000D01*
X91460000Y-114503000D01*
X91460000Y-114757000D01*
X91440000Y-114757000D01*
X91440000Y-114777000D01*
X91186000Y-114777000D01*
X91186000Y-114757000D01*
X90361750Y-114757000D01*
X90203000Y-114915750D01*
X90203000Y-115193809D01*
X90299673Y-115427198D01*
X90317475Y-115445000D01*
X90224300Y-115445000D01*
X90211320Y-115413663D01*
X89818337Y-115020680D01*
X89304881Y-114808000D01*
X88749119Y-114808000D01*
X88517000Y-114904147D01*
X88517000Y-114066191D01*
X90203000Y-114066191D01*
X90203000Y-114344250D01*
X90361750Y-114503000D01*
X91186000Y-114503000D01*
X91186000Y-113716250D01*
X91027250Y-113557500D01*
X90711690Y-113557500D01*
X90478301Y-113654173D01*
X90299673Y-113832802D01*
X90203000Y-114066191D01*
X88517000Y-114066191D01*
X88517000Y-113165178D01*
X88827625Y-112957625D01*
X89040843Y-112638522D01*
X89101817Y-112768358D01*
X89530076Y-113158645D01*
X89940110Y-113328476D01*
X90170000Y-113207155D01*
X90170000Y-112014000D01*
X90150000Y-112014000D01*
X90150000Y-111760000D01*
X90170000Y-111760000D01*
X90170000Y-111740000D01*
X90424000Y-111740000D01*
X90424000Y-111760000D01*
X90424000Y-111760000D01*
G37*
X90424000Y-111760000D02*
X90444000Y-111760000D01*
X90444000Y-112014000D01*
X90424000Y-112014000D01*
X90424000Y-113207155D01*
X90653890Y-113328476D01*
X91063924Y-113158645D01*
X91492183Y-112768358D01*
X91553157Y-112638522D01*
X91766375Y-112957625D01*
X92077001Y-113165179D01*
X92077001Y-113624889D01*
X91914310Y-113557500D01*
X91598750Y-113557500D01*
X91440000Y-113716250D01*
X91440000Y-114503000D01*
X91460000Y-114503000D01*
X91460000Y-114757000D01*
X91440000Y-114757000D01*
X91440000Y-114777000D01*
X91186000Y-114777000D01*
X91186000Y-114757000D01*
X90361750Y-114757000D01*
X90203000Y-114915750D01*
X90203000Y-115193809D01*
X90299673Y-115427198D01*
X90317475Y-115445000D01*
X90224300Y-115445000D01*
X90211320Y-115413663D01*
X89818337Y-115020680D01*
X89304881Y-114808000D01*
X88749119Y-114808000D01*
X88517000Y-114904147D01*
X88517000Y-114066191D01*
X90203000Y-114066191D01*
X90203000Y-114344250D01*
X90361750Y-114503000D01*
X91186000Y-114503000D01*
X91186000Y-113716250D01*
X91027250Y-113557500D01*
X90711690Y-113557500D01*
X90478301Y-113654173D01*
X90299673Y-113832802D01*
X90203000Y-114066191D01*
X88517000Y-114066191D01*
X88517000Y-113165178D01*
X88827625Y-112957625D01*
X89040843Y-112638522D01*
X89101817Y-112768358D01*
X89530076Y-113158645D01*
X89940110Y-113328476D01*
X90170000Y-113207155D01*
X90170000Y-112014000D01*
X90150000Y-112014000D01*
X90150000Y-111760000D01*
X90170000Y-111760000D01*
X90170000Y-111740000D01*
X90424000Y-111740000D01*
X90424000Y-111760000D01*
G36*
X82087173Y-72685302D02*
X81990500Y-72918691D01*
X81990500Y-74009250D01*
X82149250Y-74168000D01*
X83248500Y-74168000D01*
X83248500Y-74148000D01*
X83502500Y-74148000D01*
X83502500Y-74168000D01*
X84601750Y-74168000D01*
X84680225Y-74089525D01*
X86083502Y-75492802D01*
X86083501Y-77489973D01*
X85920424Y-77341355D01*
X85510390Y-77171524D01*
X85280500Y-77292845D01*
X85280500Y-78486000D01*
X85300500Y-78486000D01*
X85300500Y-78740000D01*
X85280500Y-78740000D01*
X85280500Y-78760000D01*
X85026500Y-78760000D01*
X85026500Y-78740000D01*
X85006500Y-78740000D01*
X85006500Y-78486000D01*
X85026500Y-78486000D01*
X85026500Y-77292845D01*
X84796610Y-77171524D01*
X84386576Y-77341355D01*
X84082239Y-77618708D01*
X84061657Y-77515235D01*
X83921309Y-77305191D01*
X83711265Y-77164843D01*
X83463500Y-77115560D01*
X81763500Y-77115560D01*
X81515735Y-77164843D01*
X81305691Y-77305191D01*
X81165343Y-77515235D01*
X81116060Y-77763000D01*
X81116060Y-79463000D01*
X81134161Y-79554000D01*
X79513500Y-79554000D01*
X79513500Y-74580750D01*
X81990500Y-74580750D01*
X81990500Y-75671309D01*
X82087173Y-75904698D01*
X82265801Y-76083327D01*
X82499190Y-76180000D01*
X83089750Y-76180000D01*
X83248500Y-76021250D01*
X83248500Y-74422000D01*
X83502500Y-74422000D01*
X83502500Y-76021250D01*
X83661250Y-76180000D01*
X84251810Y-76180000D01*
X84485199Y-76083327D01*
X84663827Y-75904698D01*
X84760500Y-75671309D01*
X84760500Y-74580750D01*
X84601750Y-74422000D01*
X83502500Y-74422000D01*
X83248500Y-74422000D01*
X82149250Y-74422000D01*
X81990500Y-74580750D01*
X79513500Y-74580750D01*
X79513500Y-73652440D01*
X80569500Y-73652440D01*
X80817265Y-73603157D01*
X81027309Y-73462809D01*
X81167657Y-73252765D01*
X81216940Y-73005000D01*
X81216940Y-72515000D01*
X82257474Y-72515000D01*
X82087173Y-72685302D01*
X82087173Y-72685302D01*
G37*
X82087173Y-72685302D02*
X81990500Y-72918691D01*
X81990500Y-74009250D01*
X82149250Y-74168000D01*
X83248500Y-74168000D01*
X83248500Y-74148000D01*
X83502500Y-74148000D01*
X83502500Y-74168000D01*
X84601750Y-74168000D01*
X84680225Y-74089525D01*
X86083502Y-75492802D01*
X86083501Y-77489973D01*
X85920424Y-77341355D01*
X85510390Y-77171524D01*
X85280500Y-77292845D01*
X85280500Y-78486000D01*
X85300500Y-78486000D01*
X85300500Y-78740000D01*
X85280500Y-78740000D01*
X85280500Y-78760000D01*
X85026500Y-78760000D01*
X85026500Y-78740000D01*
X85006500Y-78740000D01*
X85006500Y-78486000D01*
X85026500Y-78486000D01*
X85026500Y-77292845D01*
X84796610Y-77171524D01*
X84386576Y-77341355D01*
X84082239Y-77618708D01*
X84061657Y-77515235D01*
X83921309Y-77305191D01*
X83711265Y-77164843D01*
X83463500Y-77115560D01*
X81763500Y-77115560D01*
X81515735Y-77164843D01*
X81305691Y-77305191D01*
X81165343Y-77515235D01*
X81116060Y-77763000D01*
X81116060Y-79463000D01*
X81134161Y-79554000D01*
X79513500Y-79554000D01*
X79513500Y-74580750D01*
X81990500Y-74580750D01*
X81990500Y-75671309D01*
X82087173Y-75904698D01*
X82265801Y-76083327D01*
X82499190Y-76180000D01*
X83089750Y-76180000D01*
X83248500Y-76021250D01*
X83248500Y-74422000D01*
X83502500Y-74422000D01*
X83502500Y-76021250D01*
X83661250Y-76180000D01*
X84251810Y-76180000D01*
X84485199Y-76083327D01*
X84663827Y-75904698D01*
X84760500Y-75671309D01*
X84760500Y-74580750D01*
X84601750Y-74422000D01*
X83502500Y-74422000D01*
X83248500Y-74422000D01*
X82149250Y-74422000D01*
X81990500Y-74580750D01*
X79513500Y-74580750D01*
X79513500Y-73652440D01*
X80569500Y-73652440D01*
X80817265Y-73603157D01*
X81027309Y-73462809D01*
X81167657Y-73252765D01*
X81216940Y-73005000D01*
X81216940Y-72515000D01*
X82257474Y-72515000D01*
X82087173Y-72685302D01*
G36*
X90360500Y-78486000D02*
X90380500Y-78486000D01*
X90380500Y-78740000D01*
X90360500Y-78740000D01*
X90360500Y-78760000D01*
X90106500Y-78760000D01*
X90106500Y-78740000D01*
X90086500Y-78740000D01*
X90086500Y-78486000D01*
X90106500Y-78486000D01*
X90106500Y-78466000D01*
X90360500Y-78466000D01*
X90360500Y-78486000D01*
X90360500Y-78486000D01*
G37*
X90360500Y-78486000D02*
X90380500Y-78486000D01*
X90380500Y-78740000D01*
X90360500Y-78740000D01*
X90360500Y-78760000D01*
X90106500Y-78760000D01*
X90106500Y-78740000D01*
X90086500Y-78740000D01*
X90086500Y-78486000D01*
X90106500Y-78486000D01*
X90106500Y-78466000D01*
X90360500Y-78466000D01*
X90360500Y-78486000D01*
G36*
X98515500Y-64523560D02*
X97484500Y-64523560D01*
X97236735Y-64572843D01*
X97026691Y-64713191D01*
X96886343Y-64923235D01*
X96837060Y-65171000D01*
X96837060Y-67671000D01*
X96886343Y-67918765D01*
X97026691Y-68128809D01*
X97236735Y-68269157D01*
X97474500Y-68316451D01*
X97474501Y-71905197D01*
X97393402Y-71986296D01*
X97383309Y-71971191D01*
X97173265Y-71830843D01*
X96925500Y-71781560D01*
X95225500Y-71781560D01*
X94977735Y-71830843D01*
X94767691Y-71971191D01*
X94627343Y-72181235D01*
X94578060Y-72429000D01*
X94578060Y-74129000D01*
X94627343Y-74376765D01*
X94767691Y-74586809D01*
X94977735Y-74727157D01*
X95225500Y-74776440D01*
X95315500Y-74776440D01*
X95315500Y-74996198D01*
X93139908Y-77171791D01*
X92919756Y-77128000D01*
X92627244Y-77128000D01*
X92358499Y-77181457D01*
X92358499Y-75275804D01*
X92654974Y-74979330D01*
X92718430Y-74936930D01*
X92886405Y-74685538D01*
X92930501Y-74463853D01*
X92930501Y-74463848D01*
X92945389Y-74389001D01*
X92930501Y-74314154D01*
X92930501Y-70858440D01*
X93904500Y-70858440D01*
X94152265Y-70809157D01*
X94362309Y-70668809D01*
X94502657Y-70458765D01*
X94551940Y-70211000D01*
X94551940Y-67711000D01*
X94502657Y-67463235D01*
X94362309Y-67253191D01*
X94152265Y-67112843D01*
X93904500Y-67063560D01*
X92449501Y-67063560D01*
X92449501Y-64166750D01*
X93293500Y-64166750D01*
X93293500Y-65257309D01*
X93390173Y-65490698D01*
X93568801Y-65669327D01*
X93802190Y-65766000D01*
X94392750Y-65766000D01*
X94551500Y-65607250D01*
X94551500Y-64008000D01*
X94805500Y-64008000D01*
X94805500Y-65607250D01*
X94964250Y-65766000D01*
X95554810Y-65766000D01*
X95788199Y-65669327D01*
X95966827Y-65490698D01*
X96063500Y-65257309D01*
X96063500Y-64166750D01*
X95904750Y-64008000D01*
X94805500Y-64008000D01*
X94551500Y-64008000D01*
X93452250Y-64008000D01*
X93293500Y-64166750D01*
X92449501Y-64166750D01*
X92449501Y-62504691D01*
X93293500Y-62504691D01*
X93293500Y-63595250D01*
X93452250Y-63754000D01*
X94551500Y-63754000D01*
X94551500Y-62154750D01*
X94805500Y-62154750D01*
X94805500Y-63754000D01*
X95904750Y-63754000D01*
X96063500Y-63595250D01*
X96063500Y-62504691D01*
X95966827Y-62271302D01*
X95788199Y-62092673D01*
X95554810Y-61996000D01*
X94964250Y-61996000D01*
X94805500Y-62154750D01*
X94551500Y-62154750D01*
X94392750Y-61996000D01*
X93802190Y-61996000D01*
X93568801Y-62092673D01*
X93390173Y-62271302D01*
X93293500Y-62504691D01*
X92449501Y-62504691D01*
X92449501Y-61431848D01*
X92464389Y-61357001D01*
X92449501Y-61282154D01*
X92449501Y-61282149D01*
X92405405Y-61060464D01*
X92237430Y-60809072D01*
X92173974Y-60766672D01*
X92034204Y-60626902D01*
X92049309Y-60616809D01*
X92189657Y-60406765D01*
X92238940Y-60159000D01*
X92238940Y-58459000D01*
X92189657Y-58211235D01*
X92049309Y-58001191D01*
X91839265Y-57860843D01*
X91591500Y-57811560D01*
X89891500Y-57811560D01*
X89643735Y-57860843D01*
X89433691Y-58001191D01*
X89423598Y-58016296D01*
X87437831Y-56030530D01*
X87395429Y-55967071D01*
X87323644Y-55919106D01*
X87336610Y-55924476D01*
X87566500Y-55803155D01*
X87566500Y-54610000D01*
X87546500Y-54610000D01*
X87546500Y-54356000D01*
X87566500Y-54356000D01*
X87566500Y-53162845D01*
X87336610Y-53041524D01*
X86926576Y-53211355D01*
X86498317Y-53601642D01*
X86437343Y-53731478D01*
X86224125Y-53412375D01*
X85913500Y-53204822D01*
X85913500Y-52713178D01*
X86224125Y-52505625D01*
X86437343Y-52186522D01*
X86498317Y-52316358D01*
X86926576Y-52706645D01*
X87336610Y-52876476D01*
X87566500Y-52755155D01*
X87566500Y-51562000D01*
X87546500Y-51562000D01*
X87546500Y-51308000D01*
X87566500Y-51308000D01*
X87566500Y-51288000D01*
X87820500Y-51288000D01*
X87820500Y-51308000D01*
X87840500Y-51308000D01*
X87840500Y-51562000D01*
X87820500Y-51562000D01*
X87820500Y-52755155D01*
X88050390Y-52876476D01*
X88460424Y-52706645D01*
X88888683Y-52316358D01*
X88949657Y-52186522D01*
X89162875Y-52505625D01*
X89473501Y-52713178D01*
X89473501Y-53204822D01*
X89162875Y-53412375D01*
X88949657Y-53731478D01*
X88888683Y-53601642D01*
X88460424Y-53211355D01*
X88050390Y-53041524D01*
X87820500Y-53162845D01*
X87820500Y-54356000D01*
X87840500Y-54356000D01*
X87840500Y-54610000D01*
X87820500Y-54610000D01*
X87820500Y-55803155D01*
X88050390Y-55924476D01*
X88460424Y-55754645D01*
X88888683Y-55364358D01*
X88949657Y-55234522D01*
X89162875Y-55553625D01*
X89654082Y-55881839D01*
X90087244Y-55968000D01*
X90379756Y-55968000D01*
X90812918Y-55881839D01*
X91304125Y-55553625D01*
X91318596Y-55531967D01*
X91385173Y-55692698D01*
X91563801Y-55871327D01*
X91797190Y-55968000D01*
X92487750Y-55968000D01*
X92646500Y-55809250D01*
X92646500Y-54610000D01*
X92900500Y-54610000D01*
X92900500Y-55809250D01*
X93059250Y-55968000D01*
X93749810Y-55968000D01*
X93983199Y-55871327D01*
X94161827Y-55692698D01*
X94258500Y-55459309D01*
X94258500Y-54768750D01*
X94099750Y-54610000D01*
X92900500Y-54610000D01*
X92646500Y-54610000D01*
X92626500Y-54610000D01*
X92626500Y-54356000D01*
X92646500Y-54356000D01*
X92646500Y-53156750D01*
X92900500Y-53156750D01*
X92900500Y-54356000D01*
X94099750Y-54356000D01*
X94258500Y-54197250D01*
X94258500Y-53506691D01*
X94161827Y-53273302D01*
X93983199Y-53094673D01*
X93749810Y-52998000D01*
X93059250Y-52998000D01*
X92900500Y-53156750D01*
X92646500Y-53156750D01*
X92487750Y-52998000D01*
X91797190Y-52998000D01*
X91563801Y-53094673D01*
X91385173Y-53273302D01*
X91318596Y-53434033D01*
X91304125Y-53412375D01*
X90993500Y-53204822D01*
X90993500Y-52713178D01*
X91304125Y-52505625D01*
X91318596Y-52483967D01*
X91385173Y-52644698D01*
X91563801Y-52823327D01*
X91797190Y-52920000D01*
X92487750Y-52920000D01*
X92646500Y-52761250D01*
X92646500Y-51562000D01*
X92900500Y-51562000D01*
X92900500Y-52761250D01*
X93059250Y-52920000D01*
X93749810Y-52920000D01*
X93983199Y-52823327D01*
X94161827Y-52644698D01*
X94258500Y-52411309D01*
X94258500Y-51720750D01*
X94099750Y-51562000D01*
X92900500Y-51562000D01*
X92646500Y-51562000D01*
X92626500Y-51562000D01*
X92626500Y-51308000D01*
X92646500Y-51308000D01*
X92646500Y-51288000D01*
X92900500Y-51288000D01*
X92900500Y-51308000D01*
X94099750Y-51308000D01*
X94258500Y-51149250D01*
X94258500Y-51129000D01*
X98515500Y-51129000D01*
X98515500Y-64523560D01*
X98515500Y-64523560D01*
G37*
X98515500Y-64523560D02*
X97484500Y-64523560D01*
X97236735Y-64572843D01*
X97026691Y-64713191D01*
X96886343Y-64923235D01*
X96837060Y-65171000D01*
X96837060Y-67671000D01*
X96886343Y-67918765D01*
X97026691Y-68128809D01*
X97236735Y-68269157D01*
X97474500Y-68316451D01*
X97474501Y-71905197D01*
X97393402Y-71986296D01*
X97383309Y-71971191D01*
X97173265Y-71830843D01*
X96925500Y-71781560D01*
X95225500Y-71781560D01*
X94977735Y-71830843D01*
X94767691Y-71971191D01*
X94627343Y-72181235D01*
X94578060Y-72429000D01*
X94578060Y-74129000D01*
X94627343Y-74376765D01*
X94767691Y-74586809D01*
X94977735Y-74727157D01*
X95225500Y-74776440D01*
X95315500Y-74776440D01*
X95315500Y-74996198D01*
X93139908Y-77171791D01*
X92919756Y-77128000D01*
X92627244Y-77128000D01*
X92358499Y-77181457D01*
X92358499Y-75275804D01*
X92654974Y-74979330D01*
X92718430Y-74936930D01*
X92886405Y-74685538D01*
X92930501Y-74463853D01*
X92930501Y-74463848D01*
X92945389Y-74389001D01*
X92930501Y-74314154D01*
X92930501Y-70858440D01*
X93904500Y-70858440D01*
X94152265Y-70809157D01*
X94362309Y-70668809D01*
X94502657Y-70458765D01*
X94551940Y-70211000D01*
X94551940Y-67711000D01*
X94502657Y-67463235D01*
X94362309Y-67253191D01*
X94152265Y-67112843D01*
X93904500Y-67063560D01*
X92449501Y-67063560D01*
X92449501Y-64166750D01*
X93293500Y-64166750D01*
X93293500Y-65257309D01*
X93390173Y-65490698D01*
X93568801Y-65669327D01*
X93802190Y-65766000D01*
X94392750Y-65766000D01*
X94551500Y-65607250D01*
X94551500Y-64008000D01*
X94805500Y-64008000D01*
X94805500Y-65607250D01*
X94964250Y-65766000D01*
X95554810Y-65766000D01*
X95788199Y-65669327D01*
X95966827Y-65490698D01*
X96063500Y-65257309D01*
X96063500Y-64166750D01*
X95904750Y-64008000D01*
X94805500Y-64008000D01*
X94551500Y-64008000D01*
X93452250Y-64008000D01*
X93293500Y-64166750D01*
X92449501Y-64166750D01*
X92449501Y-62504691D01*
X93293500Y-62504691D01*
X93293500Y-63595250D01*
X93452250Y-63754000D01*
X94551500Y-63754000D01*
X94551500Y-62154750D01*
X94805500Y-62154750D01*
X94805500Y-63754000D01*
X95904750Y-63754000D01*
X96063500Y-63595250D01*
X96063500Y-62504691D01*
X95966827Y-62271302D01*
X95788199Y-62092673D01*
X95554810Y-61996000D01*
X94964250Y-61996000D01*
X94805500Y-62154750D01*
X94551500Y-62154750D01*
X94392750Y-61996000D01*
X93802190Y-61996000D01*
X93568801Y-62092673D01*
X93390173Y-62271302D01*
X93293500Y-62504691D01*
X92449501Y-62504691D01*
X92449501Y-61431848D01*
X92464389Y-61357001D01*
X92449501Y-61282154D01*
X92449501Y-61282149D01*
X92405405Y-61060464D01*
X92237430Y-60809072D01*
X92173974Y-60766672D01*
X92034204Y-60626902D01*
X92049309Y-60616809D01*
X92189657Y-60406765D01*
X92238940Y-60159000D01*
X92238940Y-58459000D01*
X92189657Y-58211235D01*
X92049309Y-58001191D01*
X91839265Y-57860843D01*
X91591500Y-57811560D01*
X89891500Y-57811560D01*
X89643735Y-57860843D01*
X89433691Y-58001191D01*
X89423598Y-58016296D01*
X87437831Y-56030530D01*
X87395429Y-55967071D01*
X87323644Y-55919106D01*
X87336610Y-55924476D01*
X87566500Y-55803155D01*
X87566500Y-54610000D01*
X87546500Y-54610000D01*
X87546500Y-54356000D01*
X87566500Y-54356000D01*
X87566500Y-53162845D01*
X87336610Y-53041524D01*
X86926576Y-53211355D01*
X86498317Y-53601642D01*
X86437343Y-53731478D01*
X86224125Y-53412375D01*
X85913500Y-53204822D01*
X85913500Y-52713178D01*
X86224125Y-52505625D01*
X86437343Y-52186522D01*
X86498317Y-52316358D01*
X86926576Y-52706645D01*
X87336610Y-52876476D01*
X87566500Y-52755155D01*
X87566500Y-51562000D01*
X87546500Y-51562000D01*
X87546500Y-51308000D01*
X87566500Y-51308000D01*
X87566500Y-51288000D01*
X87820500Y-51288000D01*
X87820500Y-51308000D01*
X87840500Y-51308000D01*
X87840500Y-51562000D01*
X87820500Y-51562000D01*
X87820500Y-52755155D01*
X88050390Y-52876476D01*
X88460424Y-52706645D01*
X88888683Y-52316358D01*
X88949657Y-52186522D01*
X89162875Y-52505625D01*
X89473501Y-52713178D01*
X89473501Y-53204822D01*
X89162875Y-53412375D01*
X88949657Y-53731478D01*
X88888683Y-53601642D01*
X88460424Y-53211355D01*
X88050390Y-53041524D01*
X87820500Y-53162845D01*
X87820500Y-54356000D01*
X87840500Y-54356000D01*
X87840500Y-54610000D01*
X87820500Y-54610000D01*
X87820500Y-55803155D01*
X88050390Y-55924476D01*
X88460424Y-55754645D01*
X88888683Y-55364358D01*
X88949657Y-55234522D01*
X89162875Y-55553625D01*
X89654082Y-55881839D01*
X90087244Y-55968000D01*
X90379756Y-55968000D01*
X90812918Y-55881839D01*
X91304125Y-55553625D01*
X91318596Y-55531967D01*
X91385173Y-55692698D01*
X91563801Y-55871327D01*
X91797190Y-55968000D01*
X92487750Y-55968000D01*
X92646500Y-55809250D01*
X92646500Y-54610000D01*
X92900500Y-54610000D01*
X92900500Y-55809250D01*
X93059250Y-55968000D01*
X93749810Y-55968000D01*
X93983199Y-55871327D01*
X94161827Y-55692698D01*
X94258500Y-55459309D01*
X94258500Y-54768750D01*
X94099750Y-54610000D01*
X92900500Y-54610000D01*
X92646500Y-54610000D01*
X92626500Y-54610000D01*
X92626500Y-54356000D01*
X92646500Y-54356000D01*
X92646500Y-53156750D01*
X92900500Y-53156750D01*
X92900500Y-54356000D01*
X94099750Y-54356000D01*
X94258500Y-54197250D01*
X94258500Y-53506691D01*
X94161827Y-53273302D01*
X93983199Y-53094673D01*
X93749810Y-52998000D01*
X93059250Y-52998000D01*
X92900500Y-53156750D01*
X92646500Y-53156750D01*
X92487750Y-52998000D01*
X91797190Y-52998000D01*
X91563801Y-53094673D01*
X91385173Y-53273302D01*
X91318596Y-53434033D01*
X91304125Y-53412375D01*
X90993500Y-53204822D01*
X90993500Y-52713178D01*
X91304125Y-52505625D01*
X91318596Y-52483967D01*
X91385173Y-52644698D01*
X91563801Y-52823327D01*
X91797190Y-52920000D01*
X92487750Y-52920000D01*
X92646500Y-52761250D01*
X92646500Y-51562000D01*
X92900500Y-51562000D01*
X92900500Y-52761250D01*
X93059250Y-52920000D01*
X93749810Y-52920000D01*
X93983199Y-52823327D01*
X94161827Y-52644698D01*
X94258500Y-52411309D01*
X94258500Y-51720750D01*
X94099750Y-51562000D01*
X92900500Y-51562000D01*
X92646500Y-51562000D01*
X92626500Y-51562000D01*
X92626500Y-51308000D01*
X92646500Y-51308000D01*
X92646500Y-51288000D01*
X92900500Y-51288000D01*
X92900500Y-51308000D01*
X94099750Y-51308000D01*
X94258500Y-51149250D01*
X94258500Y-51129000D01*
X98515500Y-51129000D01*
X98515500Y-64523560D01*
G36*
X89051171Y-59793473D02*
X89093571Y-59856929D01*
X89157027Y-59899329D01*
X89244060Y-59957483D01*
X89244060Y-60159000D01*
X89293343Y-60406765D01*
X89433691Y-60616809D01*
X89643735Y-60757157D01*
X89891500Y-60806440D01*
X90093018Y-60806440D01*
X90193571Y-60956929D01*
X90257030Y-60999331D01*
X90929502Y-61671804D01*
X90929502Y-64536000D01*
X90900250Y-64536000D01*
X90741500Y-64694750D01*
X90741500Y-66294000D01*
X90761500Y-66294000D01*
X90761500Y-66548000D01*
X90741500Y-66548000D01*
X90741500Y-68147250D01*
X90900250Y-68306000D01*
X90929501Y-68306000D01*
X90929501Y-69980154D01*
X90914613Y-70055001D01*
X90929501Y-70129848D01*
X90929501Y-70129852D01*
X90973597Y-70351537D01*
X91141572Y-70602930D01*
X91205031Y-70645332D01*
X91410502Y-70850803D01*
X91410502Y-71781560D01*
X90145500Y-71781560D01*
X89897735Y-71830843D01*
X89687691Y-71971191D01*
X89547343Y-72181235D01*
X89498060Y-72429000D01*
X89498060Y-74129000D01*
X89547343Y-74376765D01*
X89687691Y-74586809D01*
X89897735Y-74727157D01*
X90145500Y-74776440D01*
X90235500Y-74776440D01*
X90235500Y-74996198D01*
X88059908Y-77171791D01*
X87839756Y-77128000D01*
X87603501Y-77128000D01*
X87603501Y-75252847D01*
X87618389Y-75177999D01*
X87603501Y-75103151D01*
X87603501Y-75103147D01*
X87559405Y-74881462D01*
X87391430Y-74630070D01*
X87327974Y-74587670D01*
X84781054Y-72040750D01*
X86054500Y-72040750D01*
X86054500Y-73131309D01*
X86151173Y-73364698D01*
X86329801Y-73543327D01*
X86563190Y-73640000D01*
X87153750Y-73640000D01*
X87312500Y-73481250D01*
X87312500Y-71882000D01*
X87566500Y-71882000D01*
X87566500Y-73481250D01*
X87725250Y-73640000D01*
X88315810Y-73640000D01*
X88549199Y-73543327D01*
X88727827Y-73364698D01*
X88824500Y-73131309D01*
X88824500Y-72040750D01*
X88665750Y-71882000D01*
X87566500Y-71882000D01*
X87312500Y-71882000D01*
X86213250Y-71882000D01*
X86054500Y-72040750D01*
X84781054Y-72040750D01*
X84010833Y-71270530D01*
X83968431Y-71207071D01*
X83717039Y-71039096D01*
X83495354Y-70995000D01*
X83495349Y-70995000D01*
X83420502Y-70980112D01*
X83345655Y-70995000D01*
X81216940Y-70995000D01*
X81216940Y-70505000D01*
X81167657Y-70257235D01*
X81027309Y-70047191D01*
X80817265Y-69906843D01*
X80569500Y-69857560D01*
X79513500Y-69857560D01*
X79513500Y-67965000D01*
X83502060Y-67965000D01*
X83502060Y-70465000D01*
X83551343Y-70712765D01*
X83691691Y-70922809D01*
X83901735Y-71063157D01*
X84149500Y-71112440D01*
X85649500Y-71112440D01*
X85897265Y-71063157D01*
X86054500Y-70958095D01*
X86054500Y-71469250D01*
X86213250Y-71628000D01*
X87312500Y-71628000D01*
X87312500Y-70028750D01*
X87566500Y-70028750D01*
X87566500Y-71628000D01*
X88665750Y-71628000D01*
X88824500Y-71469250D01*
X88824500Y-70378691D01*
X88727827Y-70145302D01*
X88549199Y-69966673D01*
X88315810Y-69870000D01*
X87725250Y-69870000D01*
X87566500Y-70028750D01*
X87312500Y-70028750D01*
X87153750Y-69870000D01*
X86563190Y-69870000D01*
X86329801Y-69966673D01*
X86296940Y-69999534D01*
X86296940Y-67965000D01*
X86247657Y-67717235D01*
X86107309Y-67507191D01*
X85897265Y-67366843D01*
X85649500Y-67317560D01*
X84149500Y-67317560D01*
X83901735Y-67366843D01*
X83691691Y-67507191D01*
X83551343Y-67717235D01*
X83502060Y-67965000D01*
X79513500Y-67965000D01*
X79513500Y-66706750D01*
X89229500Y-66706750D01*
X89229500Y-67797309D01*
X89326173Y-68030698D01*
X89504801Y-68209327D01*
X89738190Y-68306000D01*
X90328750Y-68306000D01*
X90487500Y-68147250D01*
X90487500Y-66548000D01*
X89388250Y-66548000D01*
X89229500Y-66706750D01*
X79513500Y-66706750D01*
X79513500Y-64039750D01*
X81990500Y-64039750D01*
X81990500Y-65130309D01*
X82087173Y-65363698D01*
X82265801Y-65542327D01*
X82499190Y-65639000D01*
X83089750Y-65639000D01*
X83248500Y-65480250D01*
X83248500Y-63881000D01*
X83502500Y-63881000D01*
X83502500Y-65480250D01*
X83661250Y-65639000D01*
X84251810Y-65639000D01*
X84485199Y-65542327D01*
X84663827Y-65363698D01*
X84760500Y-65130309D01*
X84760500Y-65044691D01*
X89229500Y-65044691D01*
X89229500Y-66135250D01*
X89388250Y-66294000D01*
X90487500Y-66294000D01*
X90487500Y-64694750D01*
X90328750Y-64536000D01*
X89738190Y-64536000D01*
X89504801Y-64632673D01*
X89326173Y-64811302D01*
X89229500Y-65044691D01*
X84760500Y-65044691D01*
X84760500Y-64039750D01*
X84601750Y-63881000D01*
X83502500Y-63881000D01*
X83248500Y-63881000D01*
X82149250Y-63881000D01*
X81990500Y-64039750D01*
X79513500Y-64039750D01*
X79513500Y-63111440D01*
X80569500Y-63111440D01*
X80817265Y-63062157D01*
X81027309Y-62921809D01*
X81167657Y-62711765D01*
X81216940Y-62464000D01*
X81216940Y-62377691D01*
X81990500Y-62377691D01*
X81990500Y-63468250D01*
X82149250Y-63627000D01*
X83248500Y-63627000D01*
X83248500Y-62027750D01*
X83502500Y-62027750D01*
X83502500Y-63627000D01*
X84601750Y-63627000D01*
X84760500Y-63468250D01*
X84760500Y-62377691D01*
X84663827Y-62144302D01*
X84485199Y-61965673D01*
X84251810Y-61869000D01*
X83661250Y-61869000D01*
X83502500Y-62027750D01*
X83248500Y-62027750D01*
X83089750Y-61869000D01*
X82499190Y-61869000D01*
X82265801Y-61965673D01*
X82087173Y-62144302D01*
X81990500Y-62377691D01*
X81216940Y-62377691D01*
X81216940Y-61499750D01*
X86054500Y-61499750D01*
X86054500Y-62590309D01*
X86151173Y-62823698D01*
X86329801Y-63002327D01*
X86563190Y-63099000D01*
X87153750Y-63099000D01*
X87312500Y-62940250D01*
X87312500Y-61341000D01*
X87566500Y-61341000D01*
X87566500Y-62940250D01*
X87725250Y-63099000D01*
X88315810Y-63099000D01*
X88549199Y-63002327D01*
X88727827Y-62823698D01*
X88824500Y-62590309D01*
X88824500Y-61499750D01*
X88665750Y-61341000D01*
X87566500Y-61341000D01*
X87312500Y-61341000D01*
X86213250Y-61341000D01*
X86054500Y-61499750D01*
X81216940Y-61499750D01*
X81216940Y-60264361D01*
X83502060Y-57979242D01*
X83502060Y-59924000D01*
X83551343Y-60171765D01*
X83691691Y-60381809D01*
X83901735Y-60522157D01*
X84149500Y-60571440D01*
X85649500Y-60571440D01*
X85897265Y-60522157D01*
X86054500Y-60417095D01*
X86054500Y-60928250D01*
X86213250Y-61087000D01*
X87312500Y-61087000D01*
X87312500Y-59487750D01*
X87566500Y-59487750D01*
X87566500Y-61087000D01*
X88665750Y-61087000D01*
X88824500Y-60928250D01*
X88824500Y-59837691D01*
X88727827Y-59604302D01*
X88549199Y-59425673D01*
X88315810Y-59329000D01*
X87725250Y-59329000D01*
X87566500Y-59487750D01*
X87312500Y-59487750D01*
X87153750Y-59329000D01*
X86563190Y-59329000D01*
X86329801Y-59425673D01*
X86296940Y-59458534D01*
X86296940Y-57424000D01*
X86267302Y-57275000D01*
X86532699Y-57275000D01*
X89051171Y-59793473D01*
X89051171Y-59793473D01*
G37*
X89051171Y-59793473D02*
X89093571Y-59856929D01*
X89157027Y-59899329D01*
X89244060Y-59957483D01*
X89244060Y-60159000D01*
X89293343Y-60406765D01*
X89433691Y-60616809D01*
X89643735Y-60757157D01*
X89891500Y-60806440D01*
X90093018Y-60806440D01*
X90193571Y-60956929D01*
X90257030Y-60999331D01*
X90929502Y-61671804D01*
X90929502Y-64536000D01*
X90900250Y-64536000D01*
X90741500Y-64694750D01*
X90741500Y-66294000D01*
X90761500Y-66294000D01*
X90761500Y-66548000D01*
X90741500Y-66548000D01*
X90741500Y-68147250D01*
X90900250Y-68306000D01*
X90929501Y-68306000D01*
X90929501Y-69980154D01*
X90914613Y-70055001D01*
X90929501Y-70129848D01*
X90929501Y-70129852D01*
X90973597Y-70351537D01*
X91141572Y-70602930D01*
X91205031Y-70645332D01*
X91410502Y-70850803D01*
X91410502Y-71781560D01*
X90145500Y-71781560D01*
X89897735Y-71830843D01*
X89687691Y-71971191D01*
X89547343Y-72181235D01*
X89498060Y-72429000D01*
X89498060Y-74129000D01*
X89547343Y-74376765D01*
X89687691Y-74586809D01*
X89897735Y-74727157D01*
X90145500Y-74776440D01*
X90235500Y-74776440D01*
X90235500Y-74996198D01*
X88059908Y-77171791D01*
X87839756Y-77128000D01*
X87603501Y-77128000D01*
X87603501Y-75252847D01*
X87618389Y-75177999D01*
X87603501Y-75103151D01*
X87603501Y-75103147D01*
X87559405Y-74881462D01*
X87391430Y-74630070D01*
X87327974Y-74587670D01*
X84781054Y-72040750D01*
X86054500Y-72040750D01*
X86054500Y-73131309D01*
X86151173Y-73364698D01*
X86329801Y-73543327D01*
X86563190Y-73640000D01*
X87153750Y-73640000D01*
X87312500Y-73481250D01*
X87312500Y-71882000D01*
X87566500Y-71882000D01*
X87566500Y-73481250D01*
X87725250Y-73640000D01*
X88315810Y-73640000D01*
X88549199Y-73543327D01*
X88727827Y-73364698D01*
X88824500Y-73131309D01*
X88824500Y-72040750D01*
X88665750Y-71882000D01*
X87566500Y-71882000D01*
X87312500Y-71882000D01*
X86213250Y-71882000D01*
X86054500Y-72040750D01*
X84781054Y-72040750D01*
X84010833Y-71270530D01*
X83968431Y-71207071D01*
X83717039Y-71039096D01*
X83495354Y-70995000D01*
X83495349Y-70995000D01*
X83420502Y-70980112D01*
X83345655Y-70995000D01*
X81216940Y-70995000D01*
X81216940Y-70505000D01*
X81167657Y-70257235D01*
X81027309Y-70047191D01*
X80817265Y-69906843D01*
X80569500Y-69857560D01*
X79513500Y-69857560D01*
X79513500Y-67965000D01*
X83502060Y-67965000D01*
X83502060Y-70465000D01*
X83551343Y-70712765D01*
X83691691Y-70922809D01*
X83901735Y-71063157D01*
X84149500Y-71112440D01*
X85649500Y-71112440D01*
X85897265Y-71063157D01*
X86054500Y-70958095D01*
X86054500Y-71469250D01*
X86213250Y-71628000D01*
X87312500Y-71628000D01*
X87312500Y-70028750D01*
X87566500Y-70028750D01*
X87566500Y-71628000D01*
X88665750Y-71628000D01*
X88824500Y-71469250D01*
X88824500Y-70378691D01*
X88727827Y-70145302D01*
X88549199Y-69966673D01*
X88315810Y-69870000D01*
X87725250Y-69870000D01*
X87566500Y-70028750D01*
X87312500Y-70028750D01*
X87153750Y-69870000D01*
X86563190Y-69870000D01*
X86329801Y-69966673D01*
X86296940Y-69999534D01*
X86296940Y-67965000D01*
X86247657Y-67717235D01*
X86107309Y-67507191D01*
X85897265Y-67366843D01*
X85649500Y-67317560D01*
X84149500Y-67317560D01*
X83901735Y-67366843D01*
X83691691Y-67507191D01*
X83551343Y-67717235D01*
X83502060Y-67965000D01*
X79513500Y-67965000D01*
X79513500Y-66706750D01*
X89229500Y-66706750D01*
X89229500Y-67797309D01*
X89326173Y-68030698D01*
X89504801Y-68209327D01*
X89738190Y-68306000D01*
X90328750Y-68306000D01*
X90487500Y-68147250D01*
X90487500Y-66548000D01*
X89388250Y-66548000D01*
X89229500Y-66706750D01*
X79513500Y-66706750D01*
X79513500Y-64039750D01*
X81990500Y-64039750D01*
X81990500Y-65130309D01*
X82087173Y-65363698D01*
X82265801Y-65542327D01*
X82499190Y-65639000D01*
X83089750Y-65639000D01*
X83248500Y-65480250D01*
X83248500Y-63881000D01*
X83502500Y-63881000D01*
X83502500Y-65480250D01*
X83661250Y-65639000D01*
X84251810Y-65639000D01*
X84485199Y-65542327D01*
X84663827Y-65363698D01*
X84760500Y-65130309D01*
X84760500Y-65044691D01*
X89229500Y-65044691D01*
X89229500Y-66135250D01*
X89388250Y-66294000D01*
X90487500Y-66294000D01*
X90487500Y-64694750D01*
X90328750Y-64536000D01*
X89738190Y-64536000D01*
X89504801Y-64632673D01*
X89326173Y-64811302D01*
X89229500Y-65044691D01*
X84760500Y-65044691D01*
X84760500Y-64039750D01*
X84601750Y-63881000D01*
X83502500Y-63881000D01*
X83248500Y-63881000D01*
X82149250Y-63881000D01*
X81990500Y-64039750D01*
X79513500Y-64039750D01*
X79513500Y-63111440D01*
X80569500Y-63111440D01*
X80817265Y-63062157D01*
X81027309Y-62921809D01*
X81167657Y-62711765D01*
X81216940Y-62464000D01*
X81216940Y-62377691D01*
X81990500Y-62377691D01*
X81990500Y-63468250D01*
X82149250Y-63627000D01*
X83248500Y-63627000D01*
X83248500Y-62027750D01*
X83502500Y-62027750D01*
X83502500Y-63627000D01*
X84601750Y-63627000D01*
X84760500Y-63468250D01*
X84760500Y-62377691D01*
X84663827Y-62144302D01*
X84485199Y-61965673D01*
X84251810Y-61869000D01*
X83661250Y-61869000D01*
X83502500Y-62027750D01*
X83248500Y-62027750D01*
X83089750Y-61869000D01*
X82499190Y-61869000D01*
X82265801Y-61965673D01*
X82087173Y-62144302D01*
X81990500Y-62377691D01*
X81216940Y-62377691D01*
X81216940Y-61499750D01*
X86054500Y-61499750D01*
X86054500Y-62590309D01*
X86151173Y-62823698D01*
X86329801Y-63002327D01*
X86563190Y-63099000D01*
X87153750Y-63099000D01*
X87312500Y-62940250D01*
X87312500Y-61341000D01*
X87566500Y-61341000D01*
X87566500Y-62940250D01*
X87725250Y-63099000D01*
X88315810Y-63099000D01*
X88549199Y-63002327D01*
X88727827Y-62823698D01*
X88824500Y-62590309D01*
X88824500Y-61499750D01*
X88665750Y-61341000D01*
X87566500Y-61341000D01*
X87312500Y-61341000D01*
X86213250Y-61341000D01*
X86054500Y-61499750D01*
X81216940Y-61499750D01*
X81216940Y-60264361D01*
X83502060Y-57979242D01*
X83502060Y-59924000D01*
X83551343Y-60171765D01*
X83691691Y-60381809D01*
X83901735Y-60522157D01*
X84149500Y-60571440D01*
X85649500Y-60571440D01*
X85897265Y-60522157D01*
X86054500Y-60417095D01*
X86054500Y-60928250D01*
X86213250Y-61087000D01*
X87312500Y-61087000D01*
X87312500Y-59487750D01*
X87566500Y-59487750D01*
X87566500Y-61087000D01*
X88665750Y-61087000D01*
X88824500Y-60928250D01*
X88824500Y-59837691D01*
X88727827Y-59604302D01*
X88549199Y-59425673D01*
X88315810Y-59329000D01*
X87725250Y-59329000D01*
X87566500Y-59487750D01*
X87312500Y-59487750D01*
X87153750Y-59329000D01*
X86563190Y-59329000D01*
X86329801Y-59425673D01*
X86296940Y-59458534D01*
X86296940Y-57424000D01*
X86267302Y-57275000D01*
X86532699Y-57275000D01*
X89051171Y-59793473D01*
G36*
X82087173Y-102530302D02*
X81990500Y-102763691D01*
X81990500Y-103854250D01*
X82149250Y-104013000D01*
X83248500Y-104013000D01*
X83248500Y-103993000D01*
X83502500Y-103993000D01*
X83502500Y-104013000D01*
X84601750Y-104013000D01*
X84680225Y-103934525D01*
X86083502Y-105337802D01*
X86083501Y-107334973D01*
X85920424Y-107186355D01*
X85510390Y-107016524D01*
X85280500Y-107137845D01*
X85280500Y-108331000D01*
X85300500Y-108331000D01*
X85300500Y-108585000D01*
X85280500Y-108585000D01*
X85280500Y-108605000D01*
X85026500Y-108605000D01*
X85026500Y-108585000D01*
X85006500Y-108585000D01*
X85006500Y-108331000D01*
X85026500Y-108331000D01*
X85026500Y-107137845D01*
X84796610Y-107016524D01*
X84386576Y-107186355D01*
X84082239Y-107463708D01*
X84061657Y-107360235D01*
X83921309Y-107150191D01*
X83711265Y-107009843D01*
X83463500Y-106960560D01*
X81763500Y-106960560D01*
X81515735Y-107009843D01*
X81305691Y-107150191D01*
X81165343Y-107360235D01*
X81116060Y-107608000D01*
X81116060Y-109308000D01*
X81129188Y-109374000D01*
X79513500Y-109374000D01*
X79513500Y-104425750D01*
X81990500Y-104425750D01*
X81990500Y-105516309D01*
X82087173Y-105749698D01*
X82265801Y-105928327D01*
X82499190Y-106025000D01*
X83089750Y-106025000D01*
X83248500Y-105866250D01*
X83248500Y-104267000D01*
X83502500Y-104267000D01*
X83502500Y-105866250D01*
X83661250Y-106025000D01*
X84251810Y-106025000D01*
X84485199Y-105928327D01*
X84663827Y-105749698D01*
X84760500Y-105516309D01*
X84760500Y-104425750D01*
X84601750Y-104267000D01*
X83502500Y-104267000D01*
X83248500Y-104267000D01*
X82149250Y-104267000D01*
X81990500Y-104425750D01*
X79513500Y-104425750D01*
X79513500Y-103497440D01*
X80569500Y-103497440D01*
X80817265Y-103448157D01*
X81027309Y-103307809D01*
X81167657Y-103097765D01*
X81216940Y-102850000D01*
X81216940Y-102360000D01*
X82257474Y-102360000D01*
X82087173Y-102530302D01*
X82087173Y-102530302D01*
G37*
X82087173Y-102530302D02*
X81990500Y-102763691D01*
X81990500Y-103854250D01*
X82149250Y-104013000D01*
X83248500Y-104013000D01*
X83248500Y-103993000D01*
X83502500Y-103993000D01*
X83502500Y-104013000D01*
X84601750Y-104013000D01*
X84680225Y-103934525D01*
X86083502Y-105337802D01*
X86083501Y-107334973D01*
X85920424Y-107186355D01*
X85510390Y-107016524D01*
X85280500Y-107137845D01*
X85280500Y-108331000D01*
X85300500Y-108331000D01*
X85300500Y-108585000D01*
X85280500Y-108585000D01*
X85280500Y-108605000D01*
X85026500Y-108605000D01*
X85026500Y-108585000D01*
X85006500Y-108585000D01*
X85006500Y-108331000D01*
X85026500Y-108331000D01*
X85026500Y-107137845D01*
X84796610Y-107016524D01*
X84386576Y-107186355D01*
X84082239Y-107463708D01*
X84061657Y-107360235D01*
X83921309Y-107150191D01*
X83711265Y-107009843D01*
X83463500Y-106960560D01*
X81763500Y-106960560D01*
X81515735Y-107009843D01*
X81305691Y-107150191D01*
X81165343Y-107360235D01*
X81116060Y-107608000D01*
X81116060Y-109308000D01*
X81129188Y-109374000D01*
X79513500Y-109374000D01*
X79513500Y-104425750D01*
X81990500Y-104425750D01*
X81990500Y-105516309D01*
X82087173Y-105749698D01*
X82265801Y-105928327D01*
X82499190Y-106025000D01*
X83089750Y-106025000D01*
X83248500Y-105866250D01*
X83248500Y-104267000D01*
X83502500Y-104267000D01*
X83502500Y-105866250D01*
X83661250Y-106025000D01*
X84251810Y-106025000D01*
X84485199Y-105928327D01*
X84663827Y-105749698D01*
X84760500Y-105516309D01*
X84760500Y-104425750D01*
X84601750Y-104267000D01*
X83502500Y-104267000D01*
X83248500Y-104267000D01*
X82149250Y-104267000D01*
X81990500Y-104425750D01*
X79513500Y-104425750D01*
X79513500Y-103497440D01*
X80569500Y-103497440D01*
X80817265Y-103448157D01*
X81027309Y-103307809D01*
X81167657Y-103097765D01*
X81216940Y-102850000D01*
X81216940Y-102360000D01*
X82257474Y-102360000D01*
X82087173Y-102530302D01*
G36*
X90360500Y-108331000D02*
X90380500Y-108331000D01*
X90380500Y-108585000D01*
X90360500Y-108585000D01*
X90360500Y-108605000D01*
X90106500Y-108605000D01*
X90106500Y-108585000D01*
X90086500Y-108585000D01*
X90086500Y-108331000D01*
X90106500Y-108331000D01*
X90106500Y-108311000D01*
X90360500Y-108311000D01*
X90360500Y-108331000D01*
X90360500Y-108331000D01*
G37*
X90360500Y-108331000D02*
X90380500Y-108331000D01*
X90380500Y-108585000D01*
X90360500Y-108585000D01*
X90360500Y-108605000D01*
X90106500Y-108605000D01*
X90106500Y-108585000D01*
X90086500Y-108585000D01*
X90086500Y-108331000D01*
X90106500Y-108331000D01*
X90106500Y-108311000D01*
X90360500Y-108311000D01*
X90360500Y-108331000D01*
G36*
X98515501Y-94368560D02*
X97484500Y-94368560D01*
X97236735Y-94417843D01*
X97026691Y-94558191D01*
X96886343Y-94768235D01*
X96837060Y-95016000D01*
X96837060Y-97516000D01*
X96886343Y-97763765D01*
X97026691Y-97973809D01*
X97236735Y-98114157D01*
X97474500Y-98161451D01*
X97474501Y-101750197D01*
X97393402Y-101831296D01*
X97383309Y-101816191D01*
X97173265Y-101675843D01*
X96925500Y-101626560D01*
X95225500Y-101626560D01*
X94977735Y-101675843D01*
X94767691Y-101816191D01*
X94627343Y-102026235D01*
X94578060Y-102274000D01*
X94578060Y-103974000D01*
X94627343Y-104221765D01*
X94767691Y-104431809D01*
X94977735Y-104572157D01*
X95225500Y-104621440D01*
X95315500Y-104621440D01*
X95315500Y-104841198D01*
X93139908Y-107016791D01*
X92919756Y-106973000D01*
X92627244Y-106973000D01*
X92358499Y-107026457D01*
X92358499Y-105120804D01*
X92654974Y-104824330D01*
X92718430Y-104781930D01*
X92886405Y-104530538D01*
X92930501Y-104308853D01*
X92930501Y-104308848D01*
X92945389Y-104234001D01*
X92930501Y-104159154D01*
X92930501Y-100703440D01*
X93904500Y-100703440D01*
X94152265Y-100654157D01*
X94362309Y-100513809D01*
X94502657Y-100303765D01*
X94551940Y-100056000D01*
X94551940Y-97556000D01*
X94502657Y-97308235D01*
X94362309Y-97098191D01*
X94152265Y-96957843D01*
X93904500Y-96908560D01*
X92449501Y-96908560D01*
X92449501Y-94011750D01*
X93293500Y-94011750D01*
X93293500Y-95102309D01*
X93390173Y-95335698D01*
X93568801Y-95514327D01*
X93802190Y-95611000D01*
X94392750Y-95611000D01*
X94551500Y-95452250D01*
X94551500Y-93853000D01*
X94805500Y-93853000D01*
X94805500Y-95452250D01*
X94964250Y-95611000D01*
X95554810Y-95611000D01*
X95788199Y-95514327D01*
X95966827Y-95335698D01*
X96063500Y-95102309D01*
X96063500Y-94011750D01*
X95904750Y-93853000D01*
X94805500Y-93853000D01*
X94551500Y-93853000D01*
X93452250Y-93853000D01*
X93293500Y-94011750D01*
X92449501Y-94011750D01*
X92449501Y-92349691D01*
X93293500Y-92349691D01*
X93293500Y-93440250D01*
X93452250Y-93599000D01*
X94551500Y-93599000D01*
X94551500Y-91999750D01*
X94805500Y-91999750D01*
X94805500Y-93599000D01*
X95904750Y-93599000D01*
X96063500Y-93440250D01*
X96063500Y-92349691D01*
X95966827Y-92116302D01*
X95788199Y-91937673D01*
X95554810Y-91841000D01*
X94964250Y-91841000D01*
X94805500Y-91999750D01*
X94551500Y-91999750D01*
X94392750Y-91841000D01*
X93802190Y-91841000D01*
X93568801Y-91937673D01*
X93390173Y-92116302D01*
X93293500Y-92349691D01*
X92449501Y-92349691D01*
X92449501Y-91276848D01*
X92464389Y-91202001D01*
X92449501Y-91127154D01*
X92449501Y-91127149D01*
X92405405Y-90905464D01*
X92237430Y-90654072D01*
X92173974Y-90611672D01*
X92034204Y-90471902D01*
X92049309Y-90461809D01*
X92189657Y-90251765D01*
X92238940Y-90004000D01*
X92238940Y-88304000D01*
X92189657Y-88056235D01*
X92049309Y-87846191D01*
X91839265Y-87705843D01*
X91591500Y-87656560D01*
X89891500Y-87656560D01*
X89643735Y-87705843D01*
X89433691Y-87846191D01*
X89423598Y-87861296D01*
X87437831Y-85875530D01*
X87395429Y-85812071D01*
X87323644Y-85764106D01*
X87336610Y-85769476D01*
X87566500Y-85648155D01*
X87566500Y-84455000D01*
X87546500Y-84455000D01*
X87546500Y-84201000D01*
X87566500Y-84201000D01*
X87566500Y-83007845D01*
X87336610Y-82886524D01*
X86926576Y-83056355D01*
X86498317Y-83446642D01*
X86437343Y-83576478D01*
X86224125Y-83257375D01*
X85913500Y-83049822D01*
X85913500Y-82558178D01*
X86224125Y-82350625D01*
X86437343Y-82031522D01*
X86498317Y-82161358D01*
X86926576Y-82551645D01*
X87336610Y-82721476D01*
X87566500Y-82600155D01*
X87566500Y-81407000D01*
X87546500Y-81407000D01*
X87546500Y-81153000D01*
X87566500Y-81153000D01*
X87566500Y-81133000D01*
X87820500Y-81133000D01*
X87820500Y-81153000D01*
X87840500Y-81153000D01*
X87840500Y-81407000D01*
X87820500Y-81407000D01*
X87820500Y-82600155D01*
X88050390Y-82721476D01*
X88460424Y-82551645D01*
X88888683Y-82161358D01*
X88949657Y-82031522D01*
X89162875Y-82350625D01*
X89473501Y-82558178D01*
X89473501Y-83049822D01*
X89162875Y-83257375D01*
X88949657Y-83576478D01*
X88888683Y-83446642D01*
X88460424Y-83056355D01*
X88050390Y-82886524D01*
X87820500Y-83007845D01*
X87820500Y-84201000D01*
X87840500Y-84201000D01*
X87840500Y-84455000D01*
X87820500Y-84455000D01*
X87820500Y-85648155D01*
X88050390Y-85769476D01*
X88460424Y-85599645D01*
X88888683Y-85209358D01*
X88949657Y-85079522D01*
X89162875Y-85398625D01*
X89654082Y-85726839D01*
X90087244Y-85813000D01*
X90379756Y-85813000D01*
X90812918Y-85726839D01*
X91304125Y-85398625D01*
X91318596Y-85376967D01*
X91385173Y-85537698D01*
X91563801Y-85716327D01*
X91797190Y-85813000D01*
X92487750Y-85813000D01*
X92646500Y-85654250D01*
X92646500Y-84455000D01*
X92900500Y-84455000D01*
X92900500Y-85654250D01*
X93059250Y-85813000D01*
X93749810Y-85813000D01*
X93983199Y-85716327D01*
X94161827Y-85537698D01*
X94258500Y-85304309D01*
X94258500Y-84613750D01*
X94099750Y-84455000D01*
X92900500Y-84455000D01*
X92646500Y-84455000D01*
X92626500Y-84455000D01*
X92626500Y-84201000D01*
X92646500Y-84201000D01*
X92646500Y-83001750D01*
X92900500Y-83001750D01*
X92900500Y-84201000D01*
X94099750Y-84201000D01*
X94258500Y-84042250D01*
X94258500Y-83351691D01*
X94161827Y-83118302D01*
X93983199Y-82939673D01*
X93749810Y-82843000D01*
X93059250Y-82843000D01*
X92900500Y-83001750D01*
X92646500Y-83001750D01*
X92487750Y-82843000D01*
X91797190Y-82843000D01*
X91563801Y-82939673D01*
X91385173Y-83118302D01*
X91318596Y-83279033D01*
X91304125Y-83257375D01*
X90993500Y-83049822D01*
X90993500Y-82558178D01*
X91304125Y-82350625D01*
X91318596Y-82328967D01*
X91385173Y-82489698D01*
X91563801Y-82668327D01*
X91797190Y-82765000D01*
X92487750Y-82765000D01*
X92646500Y-82606250D01*
X92646500Y-81407000D01*
X92900500Y-81407000D01*
X92900500Y-82606250D01*
X93059250Y-82765000D01*
X93749810Y-82765000D01*
X93983199Y-82668327D01*
X94161827Y-82489698D01*
X94258500Y-82256309D01*
X94258500Y-81565750D01*
X94099750Y-81407000D01*
X92900500Y-81407000D01*
X92646500Y-81407000D01*
X92626500Y-81407000D01*
X92626500Y-81153000D01*
X92646500Y-81153000D01*
X92646500Y-81133000D01*
X92900500Y-81133000D01*
X92900500Y-81153000D01*
X94099750Y-81153000D01*
X94258500Y-80994250D01*
X94258500Y-80974000D01*
X98515501Y-80974000D01*
X98515501Y-94368560D01*
X98515501Y-94368560D01*
G37*
X98515501Y-94368560D02*
X97484500Y-94368560D01*
X97236735Y-94417843D01*
X97026691Y-94558191D01*
X96886343Y-94768235D01*
X96837060Y-95016000D01*
X96837060Y-97516000D01*
X96886343Y-97763765D01*
X97026691Y-97973809D01*
X97236735Y-98114157D01*
X97474500Y-98161451D01*
X97474501Y-101750197D01*
X97393402Y-101831296D01*
X97383309Y-101816191D01*
X97173265Y-101675843D01*
X96925500Y-101626560D01*
X95225500Y-101626560D01*
X94977735Y-101675843D01*
X94767691Y-101816191D01*
X94627343Y-102026235D01*
X94578060Y-102274000D01*
X94578060Y-103974000D01*
X94627343Y-104221765D01*
X94767691Y-104431809D01*
X94977735Y-104572157D01*
X95225500Y-104621440D01*
X95315500Y-104621440D01*
X95315500Y-104841198D01*
X93139908Y-107016791D01*
X92919756Y-106973000D01*
X92627244Y-106973000D01*
X92358499Y-107026457D01*
X92358499Y-105120804D01*
X92654974Y-104824330D01*
X92718430Y-104781930D01*
X92886405Y-104530538D01*
X92930501Y-104308853D01*
X92930501Y-104308848D01*
X92945389Y-104234001D01*
X92930501Y-104159154D01*
X92930501Y-100703440D01*
X93904500Y-100703440D01*
X94152265Y-100654157D01*
X94362309Y-100513809D01*
X94502657Y-100303765D01*
X94551940Y-100056000D01*
X94551940Y-97556000D01*
X94502657Y-97308235D01*
X94362309Y-97098191D01*
X94152265Y-96957843D01*
X93904500Y-96908560D01*
X92449501Y-96908560D01*
X92449501Y-94011750D01*
X93293500Y-94011750D01*
X93293500Y-95102309D01*
X93390173Y-95335698D01*
X93568801Y-95514327D01*
X93802190Y-95611000D01*
X94392750Y-95611000D01*
X94551500Y-95452250D01*
X94551500Y-93853000D01*
X94805500Y-93853000D01*
X94805500Y-95452250D01*
X94964250Y-95611000D01*
X95554810Y-95611000D01*
X95788199Y-95514327D01*
X95966827Y-95335698D01*
X96063500Y-95102309D01*
X96063500Y-94011750D01*
X95904750Y-93853000D01*
X94805500Y-93853000D01*
X94551500Y-93853000D01*
X93452250Y-93853000D01*
X93293500Y-94011750D01*
X92449501Y-94011750D01*
X92449501Y-92349691D01*
X93293500Y-92349691D01*
X93293500Y-93440250D01*
X93452250Y-93599000D01*
X94551500Y-93599000D01*
X94551500Y-91999750D01*
X94805500Y-91999750D01*
X94805500Y-93599000D01*
X95904750Y-93599000D01*
X96063500Y-93440250D01*
X96063500Y-92349691D01*
X95966827Y-92116302D01*
X95788199Y-91937673D01*
X95554810Y-91841000D01*
X94964250Y-91841000D01*
X94805500Y-91999750D01*
X94551500Y-91999750D01*
X94392750Y-91841000D01*
X93802190Y-91841000D01*
X93568801Y-91937673D01*
X93390173Y-92116302D01*
X93293500Y-92349691D01*
X92449501Y-92349691D01*
X92449501Y-91276848D01*
X92464389Y-91202001D01*
X92449501Y-91127154D01*
X92449501Y-91127149D01*
X92405405Y-90905464D01*
X92237430Y-90654072D01*
X92173974Y-90611672D01*
X92034204Y-90471902D01*
X92049309Y-90461809D01*
X92189657Y-90251765D01*
X92238940Y-90004000D01*
X92238940Y-88304000D01*
X92189657Y-88056235D01*
X92049309Y-87846191D01*
X91839265Y-87705843D01*
X91591500Y-87656560D01*
X89891500Y-87656560D01*
X89643735Y-87705843D01*
X89433691Y-87846191D01*
X89423598Y-87861296D01*
X87437831Y-85875530D01*
X87395429Y-85812071D01*
X87323644Y-85764106D01*
X87336610Y-85769476D01*
X87566500Y-85648155D01*
X87566500Y-84455000D01*
X87546500Y-84455000D01*
X87546500Y-84201000D01*
X87566500Y-84201000D01*
X87566500Y-83007845D01*
X87336610Y-82886524D01*
X86926576Y-83056355D01*
X86498317Y-83446642D01*
X86437343Y-83576478D01*
X86224125Y-83257375D01*
X85913500Y-83049822D01*
X85913500Y-82558178D01*
X86224125Y-82350625D01*
X86437343Y-82031522D01*
X86498317Y-82161358D01*
X86926576Y-82551645D01*
X87336610Y-82721476D01*
X87566500Y-82600155D01*
X87566500Y-81407000D01*
X87546500Y-81407000D01*
X87546500Y-81153000D01*
X87566500Y-81153000D01*
X87566500Y-81133000D01*
X87820500Y-81133000D01*
X87820500Y-81153000D01*
X87840500Y-81153000D01*
X87840500Y-81407000D01*
X87820500Y-81407000D01*
X87820500Y-82600155D01*
X88050390Y-82721476D01*
X88460424Y-82551645D01*
X88888683Y-82161358D01*
X88949657Y-82031522D01*
X89162875Y-82350625D01*
X89473501Y-82558178D01*
X89473501Y-83049822D01*
X89162875Y-83257375D01*
X88949657Y-83576478D01*
X88888683Y-83446642D01*
X88460424Y-83056355D01*
X88050390Y-82886524D01*
X87820500Y-83007845D01*
X87820500Y-84201000D01*
X87840500Y-84201000D01*
X87840500Y-84455000D01*
X87820500Y-84455000D01*
X87820500Y-85648155D01*
X88050390Y-85769476D01*
X88460424Y-85599645D01*
X88888683Y-85209358D01*
X88949657Y-85079522D01*
X89162875Y-85398625D01*
X89654082Y-85726839D01*
X90087244Y-85813000D01*
X90379756Y-85813000D01*
X90812918Y-85726839D01*
X91304125Y-85398625D01*
X91318596Y-85376967D01*
X91385173Y-85537698D01*
X91563801Y-85716327D01*
X91797190Y-85813000D01*
X92487750Y-85813000D01*
X92646500Y-85654250D01*
X92646500Y-84455000D01*
X92900500Y-84455000D01*
X92900500Y-85654250D01*
X93059250Y-85813000D01*
X93749810Y-85813000D01*
X93983199Y-85716327D01*
X94161827Y-85537698D01*
X94258500Y-85304309D01*
X94258500Y-84613750D01*
X94099750Y-84455000D01*
X92900500Y-84455000D01*
X92646500Y-84455000D01*
X92626500Y-84455000D01*
X92626500Y-84201000D01*
X92646500Y-84201000D01*
X92646500Y-83001750D01*
X92900500Y-83001750D01*
X92900500Y-84201000D01*
X94099750Y-84201000D01*
X94258500Y-84042250D01*
X94258500Y-83351691D01*
X94161827Y-83118302D01*
X93983199Y-82939673D01*
X93749810Y-82843000D01*
X93059250Y-82843000D01*
X92900500Y-83001750D01*
X92646500Y-83001750D01*
X92487750Y-82843000D01*
X91797190Y-82843000D01*
X91563801Y-82939673D01*
X91385173Y-83118302D01*
X91318596Y-83279033D01*
X91304125Y-83257375D01*
X90993500Y-83049822D01*
X90993500Y-82558178D01*
X91304125Y-82350625D01*
X91318596Y-82328967D01*
X91385173Y-82489698D01*
X91563801Y-82668327D01*
X91797190Y-82765000D01*
X92487750Y-82765000D01*
X92646500Y-82606250D01*
X92646500Y-81407000D01*
X92900500Y-81407000D01*
X92900500Y-82606250D01*
X93059250Y-82765000D01*
X93749810Y-82765000D01*
X93983199Y-82668327D01*
X94161827Y-82489698D01*
X94258500Y-82256309D01*
X94258500Y-81565750D01*
X94099750Y-81407000D01*
X92900500Y-81407000D01*
X92646500Y-81407000D01*
X92626500Y-81407000D01*
X92626500Y-81153000D01*
X92646500Y-81153000D01*
X92646500Y-81133000D01*
X92900500Y-81133000D01*
X92900500Y-81153000D01*
X94099750Y-81153000D01*
X94258500Y-80994250D01*
X94258500Y-80974000D01*
X98515501Y-80974000D01*
X98515501Y-94368560D01*
G36*
X89051171Y-89638473D02*
X89093571Y-89701929D01*
X89157027Y-89744329D01*
X89244060Y-89802483D01*
X89244060Y-90004000D01*
X89293343Y-90251765D01*
X89433691Y-90461809D01*
X89643735Y-90602157D01*
X89891500Y-90651440D01*
X90093018Y-90651440D01*
X90193571Y-90801929D01*
X90257030Y-90844331D01*
X90929502Y-91516804D01*
X90929502Y-94381000D01*
X90900250Y-94381000D01*
X90741500Y-94539750D01*
X90741500Y-96139000D01*
X90761500Y-96139000D01*
X90761500Y-96393000D01*
X90741500Y-96393000D01*
X90741500Y-97992250D01*
X90900250Y-98151000D01*
X90929501Y-98151000D01*
X90929501Y-99825154D01*
X90914613Y-99900001D01*
X90929501Y-99974848D01*
X90929501Y-99974852D01*
X90973597Y-100196537D01*
X91141572Y-100447930D01*
X91205031Y-100490332D01*
X91410502Y-100695803D01*
X91410502Y-101626560D01*
X90145500Y-101626560D01*
X89897735Y-101675843D01*
X89687691Y-101816191D01*
X89547343Y-102026235D01*
X89498060Y-102274000D01*
X89498060Y-103974000D01*
X89547343Y-104221765D01*
X89687691Y-104431809D01*
X89897735Y-104572157D01*
X90145500Y-104621440D01*
X90235500Y-104621440D01*
X90235500Y-104841198D01*
X88059908Y-107016791D01*
X87839756Y-106973000D01*
X87603501Y-106973000D01*
X87603501Y-105097847D01*
X87618389Y-105022999D01*
X87603501Y-104948151D01*
X87603501Y-104948147D01*
X87559405Y-104726462D01*
X87391430Y-104475070D01*
X87327974Y-104432670D01*
X84781054Y-101885750D01*
X86054500Y-101885750D01*
X86054500Y-102976309D01*
X86151173Y-103209698D01*
X86329801Y-103388327D01*
X86563190Y-103485000D01*
X87153750Y-103485000D01*
X87312500Y-103326250D01*
X87312500Y-101727000D01*
X87566500Y-101727000D01*
X87566500Y-103326250D01*
X87725250Y-103485000D01*
X88315810Y-103485000D01*
X88549199Y-103388327D01*
X88727827Y-103209698D01*
X88824500Y-102976309D01*
X88824500Y-101885750D01*
X88665750Y-101727000D01*
X87566500Y-101727000D01*
X87312500Y-101727000D01*
X86213250Y-101727000D01*
X86054500Y-101885750D01*
X84781054Y-101885750D01*
X84010833Y-101115530D01*
X83968431Y-101052071D01*
X83717039Y-100884096D01*
X83495354Y-100840000D01*
X83495349Y-100840000D01*
X83420502Y-100825112D01*
X83345655Y-100840000D01*
X81216940Y-100840000D01*
X81216940Y-100350000D01*
X81167657Y-100102235D01*
X81027309Y-99892191D01*
X80817265Y-99751843D01*
X80569500Y-99702560D01*
X79513500Y-99702560D01*
X79513500Y-97810000D01*
X83502060Y-97810000D01*
X83502060Y-100310000D01*
X83551343Y-100557765D01*
X83691691Y-100767809D01*
X83901735Y-100908157D01*
X84149500Y-100957440D01*
X85649500Y-100957440D01*
X85897265Y-100908157D01*
X86054500Y-100803095D01*
X86054500Y-101314250D01*
X86213250Y-101473000D01*
X87312500Y-101473000D01*
X87312500Y-99873750D01*
X87566500Y-99873750D01*
X87566500Y-101473000D01*
X88665750Y-101473000D01*
X88824500Y-101314250D01*
X88824500Y-100223691D01*
X88727827Y-99990302D01*
X88549199Y-99811673D01*
X88315810Y-99715000D01*
X87725250Y-99715000D01*
X87566500Y-99873750D01*
X87312500Y-99873750D01*
X87153750Y-99715000D01*
X86563190Y-99715000D01*
X86329801Y-99811673D01*
X86296940Y-99844534D01*
X86296940Y-97810000D01*
X86247657Y-97562235D01*
X86107309Y-97352191D01*
X85897265Y-97211843D01*
X85649500Y-97162560D01*
X84149500Y-97162560D01*
X83901735Y-97211843D01*
X83691691Y-97352191D01*
X83551343Y-97562235D01*
X83502060Y-97810000D01*
X79513500Y-97810000D01*
X79513500Y-96551750D01*
X89229500Y-96551750D01*
X89229500Y-97642309D01*
X89326173Y-97875698D01*
X89504801Y-98054327D01*
X89738190Y-98151000D01*
X90328750Y-98151000D01*
X90487500Y-97992250D01*
X90487500Y-96393000D01*
X89388250Y-96393000D01*
X89229500Y-96551750D01*
X79513500Y-96551750D01*
X79513500Y-93884750D01*
X81990500Y-93884750D01*
X81990500Y-94975309D01*
X82087173Y-95208698D01*
X82265801Y-95387327D01*
X82499190Y-95484000D01*
X83089750Y-95484000D01*
X83248500Y-95325250D01*
X83248500Y-93726000D01*
X83502500Y-93726000D01*
X83502500Y-95325250D01*
X83661250Y-95484000D01*
X84251810Y-95484000D01*
X84485199Y-95387327D01*
X84663827Y-95208698D01*
X84760500Y-94975309D01*
X84760500Y-94889691D01*
X89229500Y-94889691D01*
X89229500Y-95980250D01*
X89388250Y-96139000D01*
X90487500Y-96139000D01*
X90487500Y-94539750D01*
X90328750Y-94381000D01*
X89738190Y-94381000D01*
X89504801Y-94477673D01*
X89326173Y-94656302D01*
X89229500Y-94889691D01*
X84760500Y-94889691D01*
X84760500Y-93884750D01*
X84601750Y-93726000D01*
X83502500Y-93726000D01*
X83248500Y-93726000D01*
X82149250Y-93726000D01*
X81990500Y-93884750D01*
X79513500Y-93884750D01*
X79513500Y-92956440D01*
X80569500Y-92956440D01*
X80817265Y-92907157D01*
X81027309Y-92766809D01*
X81167657Y-92556765D01*
X81216940Y-92309000D01*
X81216940Y-92222691D01*
X81990500Y-92222691D01*
X81990500Y-93313250D01*
X82149250Y-93472000D01*
X83248500Y-93472000D01*
X83248500Y-91872750D01*
X83502500Y-91872750D01*
X83502500Y-93472000D01*
X84601750Y-93472000D01*
X84760500Y-93313250D01*
X84760500Y-92222691D01*
X84663827Y-91989302D01*
X84485199Y-91810673D01*
X84251810Y-91714000D01*
X83661250Y-91714000D01*
X83502500Y-91872750D01*
X83248500Y-91872750D01*
X83089750Y-91714000D01*
X82499190Y-91714000D01*
X82265801Y-91810673D01*
X82087173Y-91989302D01*
X81990500Y-92222691D01*
X81216940Y-92222691D01*
X81216940Y-91344750D01*
X86054500Y-91344750D01*
X86054500Y-92435309D01*
X86151173Y-92668698D01*
X86329801Y-92847327D01*
X86563190Y-92944000D01*
X87153750Y-92944000D01*
X87312500Y-92785250D01*
X87312500Y-91186000D01*
X87566500Y-91186000D01*
X87566500Y-92785250D01*
X87725250Y-92944000D01*
X88315810Y-92944000D01*
X88549199Y-92847327D01*
X88727827Y-92668698D01*
X88824500Y-92435309D01*
X88824500Y-91344750D01*
X88665750Y-91186000D01*
X87566500Y-91186000D01*
X87312500Y-91186000D01*
X86213250Y-91186000D01*
X86054500Y-91344750D01*
X81216940Y-91344750D01*
X81216940Y-90109361D01*
X83502060Y-87824242D01*
X83502060Y-89769000D01*
X83551343Y-90016765D01*
X83691691Y-90226809D01*
X83901735Y-90367157D01*
X84149500Y-90416440D01*
X85649500Y-90416440D01*
X85897265Y-90367157D01*
X86054500Y-90262095D01*
X86054500Y-90773250D01*
X86213250Y-90932000D01*
X87312500Y-90932000D01*
X87312500Y-89332750D01*
X87566500Y-89332750D01*
X87566500Y-90932000D01*
X88665750Y-90932000D01*
X88824500Y-90773250D01*
X88824500Y-89682691D01*
X88727827Y-89449302D01*
X88549199Y-89270673D01*
X88315810Y-89174000D01*
X87725250Y-89174000D01*
X87566500Y-89332750D01*
X87312500Y-89332750D01*
X87153750Y-89174000D01*
X86563190Y-89174000D01*
X86329801Y-89270673D01*
X86296940Y-89303534D01*
X86296940Y-87269000D01*
X86267302Y-87120000D01*
X86532699Y-87120000D01*
X89051171Y-89638473D01*
X89051171Y-89638473D01*
G37*
X89051171Y-89638473D02*
X89093571Y-89701929D01*
X89157027Y-89744329D01*
X89244060Y-89802483D01*
X89244060Y-90004000D01*
X89293343Y-90251765D01*
X89433691Y-90461809D01*
X89643735Y-90602157D01*
X89891500Y-90651440D01*
X90093018Y-90651440D01*
X90193571Y-90801929D01*
X90257030Y-90844331D01*
X90929502Y-91516804D01*
X90929502Y-94381000D01*
X90900250Y-94381000D01*
X90741500Y-94539750D01*
X90741500Y-96139000D01*
X90761500Y-96139000D01*
X90761500Y-96393000D01*
X90741500Y-96393000D01*
X90741500Y-97992250D01*
X90900250Y-98151000D01*
X90929501Y-98151000D01*
X90929501Y-99825154D01*
X90914613Y-99900001D01*
X90929501Y-99974848D01*
X90929501Y-99974852D01*
X90973597Y-100196537D01*
X91141572Y-100447930D01*
X91205031Y-100490332D01*
X91410502Y-100695803D01*
X91410502Y-101626560D01*
X90145500Y-101626560D01*
X89897735Y-101675843D01*
X89687691Y-101816191D01*
X89547343Y-102026235D01*
X89498060Y-102274000D01*
X89498060Y-103974000D01*
X89547343Y-104221765D01*
X89687691Y-104431809D01*
X89897735Y-104572157D01*
X90145500Y-104621440D01*
X90235500Y-104621440D01*
X90235500Y-104841198D01*
X88059908Y-107016791D01*
X87839756Y-106973000D01*
X87603501Y-106973000D01*
X87603501Y-105097847D01*
X87618389Y-105022999D01*
X87603501Y-104948151D01*
X87603501Y-104948147D01*
X87559405Y-104726462D01*
X87391430Y-104475070D01*
X87327974Y-104432670D01*
X84781054Y-101885750D01*
X86054500Y-101885750D01*
X86054500Y-102976309D01*
X86151173Y-103209698D01*
X86329801Y-103388327D01*
X86563190Y-103485000D01*
X87153750Y-103485000D01*
X87312500Y-103326250D01*
X87312500Y-101727000D01*
X87566500Y-101727000D01*
X87566500Y-103326250D01*
X87725250Y-103485000D01*
X88315810Y-103485000D01*
X88549199Y-103388327D01*
X88727827Y-103209698D01*
X88824500Y-102976309D01*
X88824500Y-101885750D01*
X88665750Y-101727000D01*
X87566500Y-101727000D01*
X87312500Y-101727000D01*
X86213250Y-101727000D01*
X86054500Y-101885750D01*
X84781054Y-101885750D01*
X84010833Y-101115530D01*
X83968431Y-101052071D01*
X83717039Y-100884096D01*
X83495354Y-100840000D01*
X83495349Y-100840000D01*
X83420502Y-100825112D01*
X83345655Y-100840000D01*
X81216940Y-100840000D01*
X81216940Y-100350000D01*
X81167657Y-100102235D01*
X81027309Y-99892191D01*
X80817265Y-99751843D01*
X80569500Y-99702560D01*
X79513500Y-99702560D01*
X79513500Y-97810000D01*
X83502060Y-97810000D01*
X83502060Y-100310000D01*
X83551343Y-100557765D01*
X83691691Y-100767809D01*
X83901735Y-100908157D01*
X84149500Y-100957440D01*
X85649500Y-100957440D01*
X85897265Y-100908157D01*
X86054500Y-100803095D01*
X86054500Y-101314250D01*
X86213250Y-101473000D01*
X87312500Y-101473000D01*
X87312500Y-99873750D01*
X87566500Y-99873750D01*
X87566500Y-101473000D01*
X88665750Y-101473000D01*
X88824500Y-101314250D01*
X88824500Y-100223691D01*
X88727827Y-99990302D01*
X88549199Y-99811673D01*
X88315810Y-99715000D01*
X87725250Y-99715000D01*
X87566500Y-99873750D01*
X87312500Y-99873750D01*
X87153750Y-99715000D01*
X86563190Y-99715000D01*
X86329801Y-99811673D01*
X86296940Y-99844534D01*
X86296940Y-97810000D01*
X86247657Y-97562235D01*
X86107309Y-97352191D01*
X85897265Y-97211843D01*
X85649500Y-97162560D01*
X84149500Y-97162560D01*
X83901735Y-97211843D01*
X83691691Y-97352191D01*
X83551343Y-97562235D01*
X83502060Y-97810000D01*
X79513500Y-97810000D01*
X79513500Y-96551750D01*
X89229500Y-96551750D01*
X89229500Y-97642309D01*
X89326173Y-97875698D01*
X89504801Y-98054327D01*
X89738190Y-98151000D01*
X90328750Y-98151000D01*
X90487500Y-97992250D01*
X90487500Y-96393000D01*
X89388250Y-96393000D01*
X89229500Y-96551750D01*
X79513500Y-96551750D01*
X79513500Y-93884750D01*
X81990500Y-93884750D01*
X81990500Y-94975309D01*
X82087173Y-95208698D01*
X82265801Y-95387327D01*
X82499190Y-95484000D01*
X83089750Y-95484000D01*
X83248500Y-95325250D01*
X83248500Y-93726000D01*
X83502500Y-93726000D01*
X83502500Y-95325250D01*
X83661250Y-95484000D01*
X84251810Y-95484000D01*
X84485199Y-95387327D01*
X84663827Y-95208698D01*
X84760500Y-94975309D01*
X84760500Y-94889691D01*
X89229500Y-94889691D01*
X89229500Y-95980250D01*
X89388250Y-96139000D01*
X90487500Y-96139000D01*
X90487500Y-94539750D01*
X90328750Y-94381000D01*
X89738190Y-94381000D01*
X89504801Y-94477673D01*
X89326173Y-94656302D01*
X89229500Y-94889691D01*
X84760500Y-94889691D01*
X84760500Y-93884750D01*
X84601750Y-93726000D01*
X83502500Y-93726000D01*
X83248500Y-93726000D01*
X82149250Y-93726000D01*
X81990500Y-93884750D01*
X79513500Y-93884750D01*
X79513500Y-92956440D01*
X80569500Y-92956440D01*
X80817265Y-92907157D01*
X81027309Y-92766809D01*
X81167657Y-92556765D01*
X81216940Y-92309000D01*
X81216940Y-92222691D01*
X81990500Y-92222691D01*
X81990500Y-93313250D01*
X82149250Y-93472000D01*
X83248500Y-93472000D01*
X83248500Y-91872750D01*
X83502500Y-91872750D01*
X83502500Y-93472000D01*
X84601750Y-93472000D01*
X84760500Y-93313250D01*
X84760500Y-92222691D01*
X84663827Y-91989302D01*
X84485199Y-91810673D01*
X84251810Y-91714000D01*
X83661250Y-91714000D01*
X83502500Y-91872750D01*
X83248500Y-91872750D01*
X83089750Y-91714000D01*
X82499190Y-91714000D01*
X82265801Y-91810673D01*
X82087173Y-91989302D01*
X81990500Y-92222691D01*
X81216940Y-92222691D01*
X81216940Y-91344750D01*
X86054500Y-91344750D01*
X86054500Y-92435309D01*
X86151173Y-92668698D01*
X86329801Y-92847327D01*
X86563190Y-92944000D01*
X87153750Y-92944000D01*
X87312500Y-92785250D01*
X87312500Y-91186000D01*
X87566500Y-91186000D01*
X87566500Y-92785250D01*
X87725250Y-92944000D01*
X88315810Y-92944000D01*
X88549199Y-92847327D01*
X88727827Y-92668698D01*
X88824500Y-92435309D01*
X88824500Y-91344750D01*
X88665750Y-91186000D01*
X87566500Y-91186000D01*
X87312500Y-91186000D01*
X86213250Y-91186000D01*
X86054500Y-91344750D01*
X81216940Y-91344750D01*
X81216940Y-90109361D01*
X83502060Y-87824242D01*
X83502060Y-89769000D01*
X83551343Y-90016765D01*
X83691691Y-90226809D01*
X83901735Y-90367157D01*
X84149500Y-90416440D01*
X85649500Y-90416440D01*
X85897265Y-90367157D01*
X86054500Y-90262095D01*
X86054500Y-90773250D01*
X86213250Y-90932000D01*
X87312500Y-90932000D01*
X87312500Y-89332750D01*
X87566500Y-89332750D01*
X87566500Y-90932000D01*
X88665750Y-90932000D01*
X88824500Y-90773250D01*
X88824500Y-89682691D01*
X88727827Y-89449302D01*
X88549199Y-89270673D01*
X88315810Y-89174000D01*
X87725250Y-89174000D01*
X87566500Y-89332750D01*
X87312500Y-89332750D01*
X87153750Y-89174000D01*
X86563190Y-89174000D01*
X86329801Y-89270673D01*
X86296940Y-89303534D01*
X86296940Y-87269000D01*
X86267302Y-87120000D01*
X86532699Y-87120000D01*
X89051171Y-89638473D01*
G36*
X98540500Y-125655000D02*
X98298000Y-125655000D01*
X98298000Y-122653346D01*
X98456966Y-122494380D01*
X98540500Y-122292710D01*
X98540500Y-125655000D01*
X98540500Y-125655000D01*
G37*
X98540500Y-125655000D02*
X98298000Y-125655000D01*
X98298000Y-122653346D01*
X98456966Y-122494380D01*
X98540500Y-122292710D01*
X98540500Y-125655000D01*
G36*
X104179000Y-110910691D02*
X104179000Y-111601250D01*
X104337750Y-111760000D01*
X105537000Y-111760000D01*
X105537000Y-111740000D01*
X105791000Y-111740000D01*
X105791000Y-111760000D01*
X105811000Y-111760000D01*
X105811000Y-112014000D01*
X105791000Y-112014000D01*
X105791000Y-112034000D01*
X105537000Y-112034000D01*
X105537000Y-112014000D01*
X104337750Y-112014000D01*
X104179000Y-112172750D01*
X104179000Y-112522000D01*
X104116119Y-112522000D01*
X103602663Y-112734680D01*
X103209680Y-113127663D01*
X102997000Y-113641119D01*
X102997000Y-114196881D01*
X103209680Y-114710337D01*
X103602663Y-115103320D01*
X103634001Y-115116301D01*
X103634000Y-120335155D01*
X103619112Y-120410002D01*
X103634000Y-120484849D01*
X103634000Y-120484853D01*
X103678096Y-120706538D01*
X103846071Y-120957931D01*
X103909530Y-121000333D01*
X106456669Y-123547473D01*
X106499069Y-123610929D01*
X106562525Y-123653329D01*
X106750460Y-123778904D01*
X106798603Y-123788480D01*
X106972146Y-123823000D01*
X106972150Y-123823000D01*
X107046998Y-123837888D01*
X107121846Y-123823000D01*
X110805104Y-123823000D01*
X110877761Y-123931739D01*
X111158773Y-124119505D01*
X111490250Y-124185440D01*
X111927750Y-124185440D01*
X112259227Y-124119505D01*
X112496500Y-123960964D01*
X112733773Y-124119505D01*
X113065250Y-124185440D01*
X113502750Y-124185440D01*
X113834227Y-124119505D01*
X114115239Y-123931739D01*
X114303005Y-123650727D01*
X114368940Y-123319250D01*
X114368940Y-122806750D01*
X114303005Y-122475273D01*
X114115239Y-122194261D01*
X114044000Y-122146661D01*
X114044000Y-121462440D01*
X114084000Y-121462440D01*
X114331765Y-121413157D01*
X114541809Y-121272809D01*
X114682157Y-121062765D01*
X114731440Y-120815000D01*
X114731440Y-119215000D01*
X114682157Y-118967235D01*
X114541809Y-118757191D01*
X114331765Y-118616843D01*
X114084000Y-118567560D01*
X114044000Y-118567560D01*
X114044000Y-115927119D01*
X115697000Y-115927119D01*
X115697000Y-116482881D01*
X115909680Y-116996337D01*
X116302663Y-117389320D01*
X116816119Y-117602000D01*
X117371881Y-117602000D01*
X117885337Y-117389320D01*
X118278320Y-116996337D01*
X118491000Y-116482881D01*
X118491000Y-115927119D01*
X118278320Y-115413663D01*
X117885337Y-115020680D01*
X117371881Y-114808000D01*
X116816119Y-114808000D01*
X116302663Y-115020680D01*
X115909680Y-115413663D01*
X115697000Y-115927119D01*
X114044000Y-115927119D01*
X114044000Y-115219853D01*
X114276119Y-115316000D01*
X114831881Y-115316000D01*
X115345337Y-115103320D01*
X115738320Y-114710337D01*
X115951000Y-114196881D01*
X115951000Y-113641119D01*
X115738320Y-113127663D01*
X115345337Y-112734680D01*
X115314000Y-112721700D01*
X115314000Y-111492844D01*
X115328888Y-111417997D01*
X115314000Y-111343150D01*
X115314000Y-111343146D01*
X115269904Y-111121461D01*
X115101929Y-110870069D01*
X115062914Y-110844000D01*
X118987501Y-110844000D01*
X118987500Y-120277290D01*
X118903966Y-120075620D01*
X118303380Y-119475034D01*
X117518678Y-119150000D01*
X116669322Y-119150000D01*
X115884620Y-119475034D01*
X115284034Y-120075620D01*
X114959000Y-120860322D01*
X114959000Y-121709678D01*
X115284034Y-122494380D01*
X115884620Y-123094966D01*
X116669322Y-123420000D01*
X117518678Y-123420000D01*
X118303380Y-123094966D01*
X118903966Y-122494380D01*
X118987500Y-122292710D01*
X118987500Y-125655000D01*
X115772011Y-125655000D01*
X115738320Y-125573663D01*
X115345337Y-125180680D01*
X114831881Y-124968000D01*
X114276119Y-124968000D01*
X113762663Y-125180680D01*
X113369680Y-125573663D01*
X113335989Y-125655000D01*
X105612011Y-125655000D01*
X105578320Y-125573663D01*
X105185337Y-125180680D01*
X104671881Y-124968000D01*
X104116119Y-124968000D01*
X103602663Y-125180680D01*
X103209680Y-125573663D01*
X103175989Y-125655000D01*
X99960500Y-125655000D01*
X99960500Y-122664846D01*
X100390620Y-123094966D01*
X101175322Y-123420000D01*
X102024678Y-123420000D01*
X102809380Y-123094966D01*
X103409966Y-122494380D01*
X103735000Y-121709678D01*
X103735000Y-120860322D01*
X103409966Y-120075620D01*
X102809380Y-119475034D01*
X102024678Y-119150000D01*
X101175322Y-119150000D01*
X100390620Y-119475034D01*
X99960500Y-119905154D01*
X99960500Y-115927119D01*
X100457000Y-115927119D01*
X100457000Y-116482881D01*
X100669680Y-116996337D01*
X101062663Y-117389320D01*
X101576119Y-117602000D01*
X102131881Y-117602000D01*
X102645337Y-117389320D01*
X103038320Y-116996337D01*
X103251000Y-116482881D01*
X103251000Y-115927119D01*
X103038320Y-115413663D01*
X102645337Y-115020680D01*
X102131881Y-114808000D01*
X101576119Y-114808000D01*
X101062663Y-115020680D01*
X100669680Y-115413663D01*
X100457000Y-115927119D01*
X99960500Y-115927119D01*
X99960500Y-110844000D01*
X104206624Y-110844000D01*
X104179000Y-110910691D01*
X104179000Y-110910691D01*
G37*
X104179000Y-110910691D02*
X104179000Y-111601250D01*
X104337750Y-111760000D01*
X105537000Y-111760000D01*
X105537000Y-111740000D01*
X105791000Y-111740000D01*
X105791000Y-111760000D01*
X105811000Y-111760000D01*
X105811000Y-112014000D01*
X105791000Y-112014000D01*
X105791000Y-112034000D01*
X105537000Y-112034000D01*
X105537000Y-112014000D01*
X104337750Y-112014000D01*
X104179000Y-112172750D01*
X104179000Y-112522000D01*
X104116119Y-112522000D01*
X103602663Y-112734680D01*
X103209680Y-113127663D01*
X102997000Y-113641119D01*
X102997000Y-114196881D01*
X103209680Y-114710337D01*
X103602663Y-115103320D01*
X103634001Y-115116301D01*
X103634000Y-120335155D01*
X103619112Y-120410002D01*
X103634000Y-120484849D01*
X103634000Y-120484853D01*
X103678096Y-120706538D01*
X103846071Y-120957931D01*
X103909530Y-121000333D01*
X106456669Y-123547473D01*
X106499069Y-123610929D01*
X106562525Y-123653329D01*
X106750460Y-123778904D01*
X106798603Y-123788480D01*
X106972146Y-123823000D01*
X106972150Y-123823000D01*
X107046998Y-123837888D01*
X107121846Y-123823000D01*
X110805104Y-123823000D01*
X110877761Y-123931739D01*
X111158773Y-124119505D01*
X111490250Y-124185440D01*
X111927750Y-124185440D01*
X112259227Y-124119505D01*
X112496500Y-123960964D01*
X112733773Y-124119505D01*
X113065250Y-124185440D01*
X113502750Y-124185440D01*
X113834227Y-124119505D01*
X114115239Y-123931739D01*
X114303005Y-123650727D01*
X114368940Y-123319250D01*
X114368940Y-122806750D01*
X114303005Y-122475273D01*
X114115239Y-122194261D01*
X114044000Y-122146661D01*
X114044000Y-121462440D01*
X114084000Y-121462440D01*
X114331765Y-121413157D01*
X114541809Y-121272809D01*
X114682157Y-121062765D01*
X114731440Y-120815000D01*
X114731440Y-119215000D01*
X114682157Y-118967235D01*
X114541809Y-118757191D01*
X114331765Y-118616843D01*
X114084000Y-118567560D01*
X114044000Y-118567560D01*
X114044000Y-115927119D01*
X115697000Y-115927119D01*
X115697000Y-116482881D01*
X115909680Y-116996337D01*
X116302663Y-117389320D01*
X116816119Y-117602000D01*
X117371881Y-117602000D01*
X117885337Y-117389320D01*
X118278320Y-116996337D01*
X118491000Y-116482881D01*
X118491000Y-115927119D01*
X118278320Y-115413663D01*
X117885337Y-115020680D01*
X117371881Y-114808000D01*
X116816119Y-114808000D01*
X116302663Y-115020680D01*
X115909680Y-115413663D01*
X115697000Y-115927119D01*
X114044000Y-115927119D01*
X114044000Y-115219853D01*
X114276119Y-115316000D01*
X114831881Y-115316000D01*
X115345337Y-115103320D01*
X115738320Y-114710337D01*
X115951000Y-114196881D01*
X115951000Y-113641119D01*
X115738320Y-113127663D01*
X115345337Y-112734680D01*
X115314000Y-112721700D01*
X115314000Y-111492844D01*
X115328888Y-111417997D01*
X115314000Y-111343150D01*
X115314000Y-111343146D01*
X115269904Y-111121461D01*
X115101929Y-110870069D01*
X115062914Y-110844000D01*
X118987501Y-110844000D01*
X118987500Y-120277290D01*
X118903966Y-120075620D01*
X118303380Y-119475034D01*
X117518678Y-119150000D01*
X116669322Y-119150000D01*
X115884620Y-119475034D01*
X115284034Y-120075620D01*
X114959000Y-120860322D01*
X114959000Y-121709678D01*
X115284034Y-122494380D01*
X115884620Y-123094966D01*
X116669322Y-123420000D01*
X117518678Y-123420000D01*
X118303380Y-123094966D01*
X118903966Y-122494380D01*
X118987500Y-122292710D01*
X118987500Y-125655000D01*
X115772011Y-125655000D01*
X115738320Y-125573663D01*
X115345337Y-125180680D01*
X114831881Y-124968000D01*
X114276119Y-124968000D01*
X113762663Y-125180680D01*
X113369680Y-125573663D01*
X113335989Y-125655000D01*
X105612011Y-125655000D01*
X105578320Y-125573663D01*
X105185337Y-125180680D01*
X104671881Y-124968000D01*
X104116119Y-124968000D01*
X103602663Y-125180680D01*
X103209680Y-125573663D01*
X103175989Y-125655000D01*
X99960500Y-125655000D01*
X99960500Y-122664846D01*
X100390620Y-123094966D01*
X101175322Y-123420000D01*
X102024678Y-123420000D01*
X102809380Y-123094966D01*
X103409966Y-122494380D01*
X103735000Y-121709678D01*
X103735000Y-120860322D01*
X103409966Y-120075620D01*
X102809380Y-119475034D01*
X102024678Y-119150000D01*
X101175322Y-119150000D01*
X100390620Y-119475034D01*
X99960500Y-119905154D01*
X99960500Y-115927119D01*
X100457000Y-115927119D01*
X100457000Y-116482881D01*
X100669680Y-116996337D01*
X101062663Y-117389320D01*
X101576119Y-117602000D01*
X102131881Y-117602000D01*
X102645337Y-117389320D01*
X103038320Y-116996337D01*
X103251000Y-116482881D01*
X103251000Y-115927119D01*
X103038320Y-115413663D01*
X102645337Y-115020680D01*
X102131881Y-114808000D01*
X101576119Y-114808000D01*
X101062663Y-115020680D01*
X100669680Y-115413663D01*
X100457000Y-115927119D01*
X99960500Y-115927119D01*
X99960500Y-110844000D01*
X104206624Y-110844000D01*
X104179000Y-110910691D01*
G36*
X110891261Y-117036239D02*
X111172273Y-117224005D01*
X111503750Y-117289940D01*
X112016250Y-117289940D01*
X112347727Y-117224005D01*
X112524000Y-117106223D01*
X112524000Y-118567560D01*
X112484000Y-118567560D01*
X112236235Y-118616843D01*
X112026191Y-118757191D01*
X111885843Y-118967235D01*
X111836560Y-119215000D01*
X111836560Y-120815000D01*
X111885843Y-121062765D01*
X112026191Y-121272809D01*
X112236235Y-121413157D01*
X112484000Y-121462440D01*
X112524001Y-121462440D01*
X112524000Y-122146660D01*
X112496500Y-122165036D01*
X112259227Y-122006495D01*
X111927750Y-121940560D01*
X111490250Y-121940560D01*
X111158773Y-122006495D01*
X110877761Y-122194261D01*
X110805104Y-122303000D01*
X107361800Y-122303000D01*
X106344778Y-121285978D01*
X106698577Y-121049577D01*
X107015740Y-120574909D01*
X107127113Y-120015000D01*
X107062688Y-119691114D01*
X108688476Y-118065327D01*
X108751929Y-118022929D01*
X108794327Y-117959476D01*
X108794329Y-117959474D01*
X108919903Y-117771538D01*
X108919904Y-117771537D01*
X108964000Y-117549852D01*
X108964000Y-117549848D01*
X108972085Y-117509202D01*
X109196119Y-117602000D01*
X109751881Y-117602000D01*
X110265337Y-117389320D01*
X110658320Y-116996337D01*
X110671300Y-116965000D01*
X110843661Y-116965000D01*
X110891261Y-117036239D01*
X110891261Y-117036239D01*
G37*
X110891261Y-117036239D02*
X111172273Y-117224005D01*
X111503750Y-117289940D01*
X112016250Y-117289940D01*
X112347727Y-117224005D01*
X112524000Y-117106223D01*
X112524000Y-118567560D01*
X112484000Y-118567560D01*
X112236235Y-118616843D01*
X112026191Y-118757191D01*
X111885843Y-118967235D01*
X111836560Y-119215000D01*
X111836560Y-120815000D01*
X111885843Y-121062765D01*
X112026191Y-121272809D01*
X112236235Y-121413157D01*
X112484000Y-121462440D01*
X112524001Y-121462440D01*
X112524000Y-122146660D01*
X112496500Y-122165036D01*
X112259227Y-122006495D01*
X111927750Y-121940560D01*
X111490250Y-121940560D01*
X111158773Y-122006495D01*
X110877761Y-122194261D01*
X110805104Y-122303000D01*
X107361800Y-122303000D01*
X106344778Y-121285978D01*
X106698577Y-121049577D01*
X107015740Y-120574909D01*
X107127113Y-120015000D01*
X107062688Y-119691114D01*
X108688476Y-118065327D01*
X108751929Y-118022929D01*
X108794327Y-117959476D01*
X108794329Y-117959474D01*
X108919903Y-117771538D01*
X108919904Y-117771537D01*
X108964000Y-117549852D01*
X108964000Y-117549848D01*
X108972085Y-117509202D01*
X109196119Y-117602000D01*
X109751881Y-117602000D01*
X110265337Y-117389320D01*
X110658320Y-116996337D01*
X110671300Y-116965000D01*
X110843661Y-116965000D01*
X110891261Y-117036239D01*
G36*
X98540500Y-120277290D02*
X98456966Y-120075620D01*
X98298000Y-119916654D01*
X98298000Y-110844000D01*
X98540501Y-110844000D01*
X98540500Y-120277290D01*
X98540500Y-120277290D01*
G37*
X98540500Y-120277290D02*
X98456966Y-120075620D01*
X98298000Y-119916654D01*
X98298000Y-110844000D01*
X98540501Y-110844000D01*
X98540500Y-120277290D01*
G36*
X107133375Y-112957625D02*
X107444000Y-113165178D01*
X107444001Y-117160196D01*
X105987886Y-118616312D01*
X105805333Y-118580000D01*
X105522667Y-118580000D01*
X105154000Y-118653332D01*
X105154000Y-115116300D01*
X105185337Y-115103320D01*
X105578320Y-114710337D01*
X105791000Y-114196881D01*
X105791000Y-113641119D01*
X105679527Y-113372000D01*
X105791002Y-113372000D01*
X105791002Y-113213252D01*
X105949750Y-113372000D01*
X106640310Y-113372000D01*
X106873699Y-113275327D01*
X107052327Y-113096698D01*
X107118904Y-112935967D01*
X107133375Y-112957625D01*
X107133375Y-112957625D01*
G37*
X107133375Y-112957625D02*
X107444000Y-113165178D01*
X107444001Y-117160196D01*
X105987886Y-118616312D01*
X105805333Y-118580000D01*
X105522667Y-118580000D01*
X105154000Y-118653332D01*
X105154000Y-115116300D01*
X105185337Y-115103320D01*
X105578320Y-114710337D01*
X105791000Y-114196881D01*
X105791000Y-113641119D01*
X105679527Y-113372000D01*
X105791002Y-113372000D01*
X105791002Y-113213252D01*
X105949750Y-113372000D01*
X106640310Y-113372000D01*
X106873699Y-113275327D01*
X107052327Y-113096698D01*
X107118904Y-112935967D01*
X107133375Y-112957625D01*
G36*
X110871000Y-111760000D02*
X110891000Y-111760000D01*
X110891000Y-112014000D01*
X110871000Y-112014000D01*
X110871000Y-113207155D01*
X111100890Y-113328476D01*
X111510924Y-113158645D01*
X111939183Y-112768358D01*
X112000157Y-112638522D01*
X112213375Y-112957625D01*
X112524001Y-113165179D01*
X112524001Y-113624889D01*
X112361310Y-113557500D01*
X112045750Y-113557500D01*
X111887000Y-113716250D01*
X111887000Y-114503000D01*
X111907000Y-114503000D01*
X111907000Y-114757000D01*
X111887000Y-114757000D01*
X111887000Y-114777000D01*
X111633000Y-114777000D01*
X111633000Y-114757000D01*
X110808750Y-114757000D01*
X110650000Y-114915750D01*
X110650000Y-115193809D01*
X110746673Y-115427198D01*
X110764475Y-115445000D01*
X110671300Y-115445000D01*
X110658320Y-115413663D01*
X110265337Y-115020680D01*
X109751881Y-114808000D01*
X109196119Y-114808000D01*
X108964000Y-114904147D01*
X108964000Y-114066191D01*
X110650000Y-114066191D01*
X110650000Y-114344250D01*
X110808750Y-114503000D01*
X111633000Y-114503000D01*
X111633000Y-113716250D01*
X111474250Y-113557500D01*
X111158690Y-113557500D01*
X110925301Y-113654173D01*
X110746673Y-113832802D01*
X110650000Y-114066191D01*
X108964000Y-114066191D01*
X108964000Y-113165178D01*
X109274625Y-112957625D01*
X109487843Y-112638522D01*
X109548817Y-112768358D01*
X109977076Y-113158645D01*
X110387110Y-113328476D01*
X110617000Y-113207155D01*
X110617000Y-112014000D01*
X110597000Y-112014000D01*
X110597000Y-111760000D01*
X110617000Y-111760000D01*
X110617000Y-111740000D01*
X110871000Y-111740000D01*
X110871000Y-111760000D01*
X110871000Y-111760000D01*
G37*
X110871000Y-111760000D02*
X110891000Y-111760000D01*
X110891000Y-112014000D01*
X110871000Y-112014000D01*
X110871000Y-113207155D01*
X111100890Y-113328476D01*
X111510924Y-113158645D01*
X111939183Y-112768358D01*
X112000157Y-112638522D01*
X112213375Y-112957625D01*
X112524001Y-113165179D01*
X112524001Y-113624889D01*
X112361310Y-113557500D01*
X112045750Y-113557500D01*
X111887000Y-113716250D01*
X111887000Y-114503000D01*
X111907000Y-114503000D01*
X111907000Y-114757000D01*
X111887000Y-114757000D01*
X111887000Y-114777000D01*
X111633000Y-114777000D01*
X111633000Y-114757000D01*
X110808750Y-114757000D01*
X110650000Y-114915750D01*
X110650000Y-115193809D01*
X110746673Y-115427198D01*
X110764475Y-115445000D01*
X110671300Y-115445000D01*
X110658320Y-115413663D01*
X110265337Y-115020680D01*
X109751881Y-114808000D01*
X109196119Y-114808000D01*
X108964000Y-114904147D01*
X108964000Y-114066191D01*
X110650000Y-114066191D01*
X110650000Y-114344250D01*
X110808750Y-114503000D01*
X111633000Y-114503000D01*
X111633000Y-113716250D01*
X111474250Y-113557500D01*
X111158690Y-113557500D01*
X110925301Y-113654173D01*
X110746673Y-113832802D01*
X110650000Y-114066191D01*
X108964000Y-114066191D01*
X108964000Y-113165178D01*
X109274625Y-112957625D01*
X109487843Y-112638522D01*
X109548817Y-112768358D01*
X109977076Y-113158645D01*
X110387110Y-113328476D01*
X110617000Y-113207155D01*
X110617000Y-112014000D01*
X110597000Y-112014000D01*
X110597000Y-111760000D01*
X110617000Y-111760000D01*
X110617000Y-111740000D01*
X110871000Y-111740000D01*
X110871000Y-111760000D01*
G04 #@! TD*
M02*
