M48
;DRILL file {KiCad (5.0.2)-1} date 20/02/2019 17:00:55
;FORMAT={-:-/ absolute / inch / decimal}
FMAT,2
INCH,TZ
T1C0.0157
T2C0.0295
T3C0.0394
T4C0.0787
%
G90
G05
T1
X2.66Y-2.195
T2
X2.61Y-2.395
X2.66Y-2.345
X2.66Y-2.445
T3
X4.805Y-1.8
X4.9034Y-1.8
X5.0019Y-1.8
X2.595Y-1.9281
X2.595Y-2.0266
X2.595Y-2.125
X4.28Y-1.8
X4.3784Y-1.8
X4.4769Y-1.8
X3.64Y-1.93
X3.64Y-2.0284
X3.64Y-2.1269
T4
X4.7302Y-2.0756
X5.0767Y-2.0756
X2.8706Y-1.8533
X2.8706Y-2.1998
X4.2052Y-2.0756
X4.5517Y-2.0756
X3.3644Y-1.8552
X3.3644Y-2.2017
T3
X3.2003Y-1.535G85X3.2397Y-1.535
G05
X3.3003Y-1.395G85X3.3397Y-1.395
G05
X3.3003Y-1.695G85X3.3397Y-1.695
G05
X3.4003Y-1.595G85X3.4397Y-1.595
G05
X4.3203Y-1.53G85X4.3597Y-1.53
G05
X4.4203Y-1.39G85X4.4597Y-1.39
G05
X4.4203Y-1.69G85X4.4597Y-1.69
G05
X4.5203Y-1.59G85X4.5597Y-1.59
G05
X2.8347Y-2.46G85X2.7953Y-2.46
G05
X2.9347Y-2.36G85X2.8953Y-2.36
G05
X2.9347Y-2.66G85X2.8953Y-2.66
G05
X3.0347Y-2.52G85X2.9953Y-2.52
G05
X2.7953Y-1.535G85X2.8347Y-1.535
G05
X2.8953Y-1.395G85X2.9347Y-1.395
G05
X2.8953Y-1.695G85X2.9347Y-1.695
G05
X2.9953Y-1.595G85X3.0347Y-1.595
G05
X4.7253Y-1.53G85X4.7647Y-1.53
G05
X4.8253Y-1.39G85X4.8647Y-1.39
G05
X4.8253Y-1.69G85X4.8647Y-1.69
G05
X4.9253Y-1.59G85X4.9647Y-1.59
G05
X4.5253Y-2.52G85X4.5647Y-2.52
G05
X4.6253Y-2.38G85X4.6647Y-2.38
G05
X4.6253Y-2.68G85X4.6647Y-2.68
G05
X4.7253Y-2.58G85X4.7647Y-2.58
G05
X3.755Y-2.0053G85X3.755Y-2.0447
G05
X3.855Y-2.1053G85X3.855Y-2.1447
G05
X3.915Y-1.9053G85X3.915Y-1.9447
G05
X4.055Y-2.0053G85X4.055Y-2.0447
G05
X3.2397Y-2.46G85X3.2003Y-2.46
G05
X3.3397Y-2.36G85X3.3003Y-2.36
G05
X3.3397Y-2.66G85X3.3003Y-2.66
G05
X3.4397Y-2.52G85X3.4003Y-2.52
G05
T0
M30
