G04 #@! TF.GenerationSoftware,KiCad,Pcbnew,(5.0.2)-1*
G04 #@! TF.CreationDate,2019-02-20T17:00:52+00:00*
G04 #@! TF.ProjectId,Modulator,4d6f6475-6c61-4746-9f72-2e6b69636164,rev?*
G04 #@! TF.SameCoordinates,Original*
G04 #@! TF.FileFunction,Legend,Top*
G04 #@! TF.FilePolarity,Positive*
%FSLAX46Y46*%
G04 Gerber Fmt 4.6, Leading zero omitted, Abs format (unit mm)*
G04 Created by KiCad (PCBNEW (5.0.2)-1) date 20/02/2019 17:00:52*
%MOMM*%
%LPD*%
G01*
G04 APERTURE LIST*
%ADD10C,0.150000*%
%ADD11C,0.120000*%
G04 APERTURE END LIST*
D10*
G04 #@! TO.C,J1*
X68961000Y-34163000D02*
X79121000Y-34163000D01*
X79121000Y-34163000D02*
X79121000Y-44577000D01*
X79121000Y-44577000D02*
X68961000Y-44577000D01*
X68961000Y-44577000D02*
X68961000Y-34163000D01*
X78008607Y-40513000D02*
G75*
G03X78008607Y-40513000I-3967607J0D01*
G01*
X75819000Y-40513000D02*
G75*
G03X75819000Y-40513000I-1778000J0D01*
G01*
G04 #@! TO.C,J2*
X75819000Y-62484000D02*
G75*
G03X75819000Y-62484000I-1778000J0D01*
G01*
X78008607Y-62484000D02*
G75*
G03X78008607Y-62484000I-3967607J0D01*
G01*
X79121000Y-58420000D02*
X79121000Y-68834000D01*
X68961000Y-58420000D02*
X79121000Y-58420000D01*
X68961000Y-68834000D02*
X68961000Y-58420000D01*
X79121000Y-68834000D02*
X68961000Y-68834000D01*
G04 #@! TO.C,J3*
X86106000Y-40513000D02*
G75*
G03X86106000Y-40513000I-1778000J0D01*
G01*
X88295607Y-40513000D02*
G75*
G03X88295607Y-40513000I-3967607J0D01*
G01*
X79248000Y-44577000D02*
X79248000Y-34163000D01*
X89408000Y-44577000D02*
X79248000Y-44577000D01*
X89408000Y-34163000D02*
X89408000Y-44577000D01*
X79248000Y-34163000D02*
X89408000Y-34163000D01*
G04 #@! TO.C,J4*
X89408000Y-68834000D02*
X79248000Y-68834000D01*
X79248000Y-68834000D02*
X79248000Y-58420000D01*
X79248000Y-58420000D02*
X89408000Y-58420000D01*
X89408000Y-58420000D02*
X89408000Y-68834000D01*
X88295607Y-62484000D02*
G75*
G03X88295607Y-62484000I-3967607J0D01*
G01*
X86106000Y-62484000D02*
G75*
G03X86106000Y-62484000I-1778000J0D01*
G01*
G04 #@! TO.C,J5*
X104267000Y-46355000D02*
X104267000Y-56515000D01*
X104267000Y-56515000D02*
X93853000Y-56515000D01*
X93853000Y-56515000D02*
X93853000Y-46355000D01*
X93853000Y-46355000D02*
X104267000Y-46355000D01*
X101884607Y-51435000D02*
G75*
G03X101884607Y-51435000I-3967607J0D01*
G01*
X99695000Y-51435000D02*
G75*
G03X99695000Y-51435000I-1778000J0D01*
G01*
G04 #@! TO.C,J6*
X114554000Y-40386000D02*
G75*
G03X114554000Y-40386000I-1778000J0D01*
G01*
X116743607Y-40386000D02*
G75*
G03X116743607Y-40386000I-3967607J0D01*
G01*
X107696000Y-44450000D02*
X107696000Y-34036000D01*
X117856000Y-44450000D02*
X107696000Y-44450000D01*
X117856000Y-34036000D02*
X117856000Y-44450000D01*
X107696000Y-34036000D02*
X117856000Y-34036000D01*
G04 #@! TO.C,J7*
X117983000Y-34036000D02*
X128143000Y-34036000D01*
X128143000Y-34036000D02*
X128143000Y-44450000D01*
X128143000Y-44450000D02*
X117983000Y-44450000D01*
X117983000Y-44450000D02*
X117983000Y-34036000D01*
X127030607Y-40386000D02*
G75*
G03X127030607Y-40386000I-3967607J0D01*
G01*
X124841000Y-40386000D02*
G75*
G03X124841000Y-40386000I-1778000J0D01*
G01*
G04 #@! TO.C,J8*
X119761000Y-65532000D02*
G75*
G03X119761000Y-65532000I-1778000J0D01*
G01*
X121950607Y-65532000D02*
G75*
G03X121950607Y-65532000I-3967607J0D01*
G01*
X112903000Y-69596000D02*
X112903000Y-59182000D01*
X123063000Y-69596000D02*
X112903000Y-69596000D01*
X123063000Y-59182000D02*
X123063000Y-69596000D01*
X112903000Y-59182000D02*
X123063000Y-59182000D01*
D11*
G04 #@! TO.C,RV1*
X66793000Y-46505000D02*
X70658000Y-46505000D01*
X75168000Y-46505000D02*
X79033000Y-46505000D01*
X66793000Y-56445000D02*
X70658000Y-56445000D01*
X75168000Y-56445000D02*
X79033000Y-56445000D01*
X66793000Y-46505000D02*
X66793000Y-48104000D01*
X66793000Y-49846000D02*
X66793000Y-50605000D01*
X66793000Y-52346000D02*
X66793000Y-53105000D01*
X66793000Y-54845000D02*
X66793000Y-56445000D01*
X79033000Y-46505000D02*
X79033000Y-56445000D01*
G04 #@! TO.C,RV2*
X79336000Y-56492000D02*
X79336000Y-46552000D01*
X91576000Y-48152000D02*
X91576000Y-46552000D01*
X91576000Y-50651000D02*
X91576000Y-49892000D01*
X91576000Y-53151000D02*
X91576000Y-52392000D01*
X91576000Y-56492000D02*
X91576000Y-54893000D01*
X83201000Y-46552000D02*
X79336000Y-46552000D01*
X91576000Y-46552000D02*
X87711000Y-46552000D01*
X83201000Y-56492000D02*
X79336000Y-56492000D01*
X91576000Y-56492000D02*
X87711000Y-56492000D01*
G04 #@! TO.C,RV3*
X129517000Y-46600000D02*
X129517000Y-50465000D01*
X129517000Y-54975000D02*
X129517000Y-58840000D01*
X119577000Y-46600000D02*
X119577000Y-50465000D01*
X119577000Y-54975000D02*
X119577000Y-58840000D01*
X129517000Y-46600000D02*
X127918000Y-46600000D01*
X126176000Y-46600000D02*
X125417000Y-46600000D01*
X123676000Y-46600000D02*
X122917000Y-46600000D01*
X121177000Y-46600000D02*
X119577000Y-46600000D01*
X129517000Y-58840000D02*
X119577000Y-58840000D01*
G04 #@! TO.C,RV4*
X116182000Y-58840000D02*
X106242000Y-58840000D01*
X107842000Y-46600000D02*
X106242000Y-46600000D01*
X110341000Y-46600000D02*
X109582000Y-46600000D01*
X112841000Y-46600000D02*
X112082000Y-46600000D01*
X116182000Y-46600000D02*
X114583000Y-46600000D01*
X106242000Y-54975000D02*
X106242000Y-58840000D01*
X106242000Y-46600000D02*
X106242000Y-50465000D01*
X116182000Y-54975000D02*
X116182000Y-58840000D01*
X116182000Y-46600000D02*
X116182000Y-50465000D01*
G04 #@! TO.C,J1*
D10*
X73707666Y-32083380D02*
X73707666Y-32797666D01*
X73660047Y-32940523D01*
X73564809Y-33035761D01*
X73421952Y-33083380D01*
X73326714Y-33083380D01*
X74707666Y-33083380D02*
X74136238Y-33083380D01*
X74421952Y-33083380D02*
X74421952Y-32083380D01*
X74326714Y-32226238D01*
X74231476Y-32321476D01*
X74136238Y-32369095D01*
G04 #@! TO.C,J2*
X73707666Y-69818380D02*
X73707666Y-70532666D01*
X73660047Y-70675523D01*
X73564809Y-70770761D01*
X73421952Y-70818380D01*
X73326714Y-70818380D01*
X74136238Y-69913619D02*
X74183857Y-69866000D01*
X74279095Y-69818380D01*
X74517190Y-69818380D01*
X74612428Y-69866000D01*
X74660047Y-69913619D01*
X74707666Y-70008857D01*
X74707666Y-70104095D01*
X74660047Y-70246952D01*
X74088619Y-70818380D01*
X74707666Y-70818380D01*
G04 #@! TO.C,J3*
X83994666Y-32083380D02*
X83994666Y-32797666D01*
X83947047Y-32940523D01*
X83851809Y-33035761D01*
X83708952Y-33083380D01*
X83613714Y-33083380D01*
X84375619Y-32083380D02*
X84994666Y-32083380D01*
X84661333Y-32464333D01*
X84804190Y-32464333D01*
X84899428Y-32511952D01*
X84947047Y-32559571D01*
X84994666Y-32654809D01*
X84994666Y-32892904D01*
X84947047Y-32988142D01*
X84899428Y-33035761D01*
X84804190Y-33083380D01*
X84518476Y-33083380D01*
X84423238Y-33035761D01*
X84375619Y-32988142D01*
G04 #@! TO.C,J4*
X83994666Y-69818380D02*
X83994666Y-70532666D01*
X83947047Y-70675523D01*
X83851809Y-70770761D01*
X83708952Y-70818380D01*
X83613714Y-70818380D01*
X84899428Y-70151714D02*
X84899428Y-70818380D01*
X84661333Y-69770761D02*
X84423238Y-70485047D01*
X85042285Y-70485047D01*
G04 #@! TO.C,J5*
X105251380Y-51768333D02*
X105965666Y-51768333D01*
X106108523Y-51815952D01*
X106203761Y-51911190D01*
X106251380Y-52054047D01*
X106251380Y-52149285D01*
X105251380Y-50815952D02*
X105251380Y-51292142D01*
X105727571Y-51339761D01*
X105679952Y-51292142D01*
X105632333Y-51196904D01*
X105632333Y-50958809D01*
X105679952Y-50863571D01*
X105727571Y-50815952D01*
X105822809Y-50768333D01*
X106060904Y-50768333D01*
X106156142Y-50815952D01*
X106203761Y-50863571D01*
X106251380Y-50958809D01*
X106251380Y-51196904D01*
X106203761Y-51292142D01*
X106156142Y-51339761D01*
G04 #@! TO.C,J6*
X112442666Y-31956380D02*
X112442666Y-32670666D01*
X112395047Y-32813523D01*
X112299809Y-32908761D01*
X112156952Y-32956380D01*
X112061714Y-32956380D01*
X113347428Y-31956380D02*
X113156952Y-31956380D01*
X113061714Y-32004000D01*
X113014095Y-32051619D01*
X112918857Y-32194476D01*
X112871238Y-32384952D01*
X112871238Y-32765904D01*
X112918857Y-32861142D01*
X112966476Y-32908761D01*
X113061714Y-32956380D01*
X113252190Y-32956380D01*
X113347428Y-32908761D01*
X113395047Y-32861142D01*
X113442666Y-32765904D01*
X113442666Y-32527809D01*
X113395047Y-32432571D01*
X113347428Y-32384952D01*
X113252190Y-32337333D01*
X113061714Y-32337333D01*
X112966476Y-32384952D01*
X112918857Y-32432571D01*
X112871238Y-32527809D01*
G04 #@! TO.C,J7*
X122729666Y-31956380D02*
X122729666Y-32670666D01*
X122682047Y-32813523D01*
X122586809Y-32908761D01*
X122443952Y-32956380D01*
X122348714Y-32956380D01*
X123110619Y-31956380D02*
X123777285Y-31956380D01*
X123348714Y-32956380D01*
G04 #@! TO.C,J8*
X117649666Y-57102380D02*
X117649666Y-57816666D01*
X117602047Y-57959523D01*
X117506809Y-58054761D01*
X117363952Y-58102380D01*
X117268714Y-58102380D01*
X118268714Y-57530952D02*
X118173476Y-57483333D01*
X118125857Y-57435714D01*
X118078238Y-57340476D01*
X118078238Y-57292857D01*
X118125857Y-57197619D01*
X118173476Y-57150000D01*
X118268714Y-57102380D01*
X118459190Y-57102380D01*
X118554428Y-57150000D01*
X118602047Y-57197619D01*
X118649666Y-57292857D01*
X118649666Y-57340476D01*
X118602047Y-57435714D01*
X118554428Y-57483333D01*
X118459190Y-57530952D01*
X118268714Y-57530952D01*
X118173476Y-57578571D01*
X118125857Y-57626190D01*
X118078238Y-57721428D01*
X118078238Y-57911904D01*
X118125857Y-58007142D01*
X118173476Y-58054761D01*
X118268714Y-58102380D01*
X118459190Y-58102380D01*
X118554428Y-58054761D01*
X118602047Y-58007142D01*
X118649666Y-57911904D01*
X118649666Y-57721428D01*
X118602047Y-57626190D01*
X118554428Y-57578571D01*
X118459190Y-57530952D01*
G04 #@! TO.C,R1*
X65322380Y-57039666D02*
X64846190Y-57373000D01*
X65322380Y-57611095D02*
X64322380Y-57611095D01*
X64322380Y-57230142D01*
X64370000Y-57134904D01*
X64417619Y-57087285D01*
X64512857Y-57039666D01*
X64655714Y-57039666D01*
X64750952Y-57087285D01*
X64798571Y-57134904D01*
X64846190Y-57230142D01*
X64846190Y-57611095D01*
X65322380Y-56087285D02*
X65322380Y-56658714D01*
X65322380Y-56373000D02*
X64322380Y-56373000D01*
X64465238Y-56468238D01*
X64560476Y-56563476D01*
X64608095Y-56658714D01*
G04 #@! TO.C,R2*
X67882333Y-59026380D02*
X67549000Y-58550190D01*
X67310904Y-59026380D02*
X67310904Y-58026380D01*
X67691857Y-58026380D01*
X67787095Y-58074000D01*
X67834714Y-58121619D01*
X67882333Y-58216857D01*
X67882333Y-58359714D01*
X67834714Y-58454952D01*
X67787095Y-58502571D01*
X67691857Y-58550190D01*
X67310904Y-58550190D01*
X68263285Y-58121619D02*
X68310904Y-58074000D01*
X68406142Y-58026380D01*
X68644238Y-58026380D01*
X68739476Y-58074000D01*
X68787095Y-58121619D01*
X68834714Y-58216857D01*
X68834714Y-58312095D01*
X68787095Y-58454952D01*
X68215666Y-59026380D01*
X68834714Y-59026380D01*
G04 #@! TO.C,RV1*
X71367761Y-44277380D02*
X71034428Y-43801190D01*
X70796333Y-44277380D02*
X70796333Y-43277380D01*
X71177285Y-43277380D01*
X71272523Y-43325000D01*
X71320142Y-43372619D01*
X71367761Y-43467857D01*
X71367761Y-43610714D01*
X71320142Y-43705952D01*
X71272523Y-43753571D01*
X71177285Y-43801190D01*
X70796333Y-43801190D01*
X71653476Y-43277380D02*
X71986809Y-44277380D01*
X72320142Y-43277380D01*
X73177285Y-44277380D02*
X72605857Y-44277380D01*
X72891571Y-44277380D02*
X72891571Y-43277380D01*
X72796333Y-43420238D01*
X72701095Y-43515476D01*
X72605857Y-43563095D01*
G04 #@! TO.C,RV2*
X85810761Y-59624380D02*
X85477428Y-59148190D01*
X85239333Y-59624380D02*
X85239333Y-58624380D01*
X85620285Y-58624380D01*
X85715523Y-58672000D01*
X85763142Y-58719619D01*
X85810761Y-58814857D01*
X85810761Y-58957714D01*
X85763142Y-59052952D01*
X85715523Y-59100571D01*
X85620285Y-59148190D01*
X85239333Y-59148190D01*
X86096476Y-58624380D02*
X86429809Y-59624380D01*
X86763142Y-58624380D01*
X87048857Y-58719619D02*
X87096476Y-58672000D01*
X87191714Y-58624380D01*
X87429809Y-58624380D01*
X87525047Y-58672000D01*
X87572666Y-58719619D01*
X87620285Y-58814857D01*
X87620285Y-58910095D01*
X87572666Y-59052952D01*
X87001238Y-59624380D01*
X87620285Y-59624380D01*
G04 #@! TO.C,RV3*
X132649380Y-52365238D02*
X132173190Y-52698571D01*
X132649380Y-52936666D02*
X131649380Y-52936666D01*
X131649380Y-52555714D01*
X131697000Y-52460476D01*
X131744619Y-52412857D01*
X131839857Y-52365238D01*
X131982714Y-52365238D01*
X132077952Y-52412857D01*
X132125571Y-52460476D01*
X132173190Y-52555714D01*
X132173190Y-52936666D01*
X131649380Y-52079523D02*
X132649380Y-51746190D01*
X131649380Y-51412857D01*
X131649380Y-51174761D02*
X131649380Y-50555714D01*
X132030333Y-50889047D01*
X132030333Y-50746190D01*
X132077952Y-50650952D01*
X132125571Y-50603333D01*
X132220809Y-50555714D01*
X132458904Y-50555714D01*
X132554142Y-50603333D01*
X132601761Y-50650952D01*
X132649380Y-50746190D01*
X132649380Y-51031904D01*
X132601761Y-51127142D01*
X132554142Y-51174761D01*
G04 #@! TO.C,RV4*
X119314380Y-52365238D02*
X118838190Y-52698571D01*
X119314380Y-52936666D02*
X118314380Y-52936666D01*
X118314380Y-52555714D01*
X118362000Y-52460476D01*
X118409619Y-52412857D01*
X118504857Y-52365238D01*
X118647714Y-52365238D01*
X118742952Y-52412857D01*
X118790571Y-52460476D01*
X118838190Y-52555714D01*
X118838190Y-52936666D01*
X118314380Y-52079523D02*
X119314380Y-51746190D01*
X118314380Y-51412857D01*
X118647714Y-50650952D02*
X119314380Y-50650952D01*
X118266761Y-50889047D02*
X118981047Y-51127142D01*
X118981047Y-50508095D01*
G04 #@! TD*
M02*
