G04 #@! TF.GenerationSoftware,KiCad,Pcbnew,(5.0.2)-1*
G04 #@! TF.CreationDate,2019-02-20T17:00:52+00:00*
G04 #@! TF.ProjectId,Modulator,4d6f6475-6c61-4746-9f72-2e6b69636164,rev?*
G04 #@! TF.SameCoordinates,Original*
G04 #@! TF.FileFunction,Soldermask,Bot*
G04 #@! TF.FilePolarity,Negative*
%FSLAX46Y46*%
G04 Gerber Fmt 4.6, Leading zero omitted, Abs format (unit mm)*
G04 Created by KiCad (PCBNEW (5.0.2)-1) date 20/02/2019 17:00:52*
%MOMM*%
%LPD*%
G01*
G04 APERTURE LIST*
%ADD10C,0.100000*%
G04 APERTURE END LIST*
D10*
G36*
X119284000Y-68873000D02*
X116682000Y-68873000D01*
X116682000Y-67271000D01*
X119284000Y-67271000D01*
X119284000Y-68873000D01*
X119284000Y-68873000D01*
G37*
G36*
X85629000Y-68365000D02*
X83027000Y-68365000D01*
X83027000Y-66763000D01*
X85629000Y-66763000D01*
X85629000Y-68365000D01*
X85629000Y-68365000D01*
G37*
G36*
X75342000Y-68365000D02*
X72740000Y-68365000D01*
X72740000Y-66763000D01*
X75342000Y-66763000D01*
X75342000Y-68365000D01*
X75342000Y-68365000D01*
G37*
G36*
X121824000Y-66333000D02*
X119222000Y-66333000D01*
X119222000Y-64731000D01*
X121824000Y-64731000D01*
X121824000Y-66333000D01*
X121824000Y-66333000D01*
G37*
G36*
X77882000Y-64809000D02*
X75280000Y-64809000D01*
X75280000Y-63207000D01*
X77882000Y-63207000D01*
X77882000Y-64809000D01*
X77882000Y-64809000D01*
G37*
G36*
X88169000Y-64809000D02*
X85567000Y-64809000D01*
X85567000Y-63207000D01*
X88169000Y-63207000D01*
X88169000Y-64809000D01*
X88169000Y-64809000D01*
G37*
G36*
X116744000Y-64809000D02*
X114142000Y-64809000D01*
X114142000Y-63207000D01*
X116744000Y-63207000D01*
X116744000Y-64809000D01*
X116744000Y-64809000D01*
G37*
G36*
X72802000Y-63285000D02*
X70200000Y-63285000D01*
X70200000Y-61683000D01*
X72802000Y-61683000D01*
X72802000Y-63285000D01*
X72802000Y-63285000D01*
G37*
G36*
X83089000Y-63285000D02*
X80487000Y-63285000D01*
X80487000Y-61683000D01*
X83089000Y-61683000D01*
X83089000Y-63285000D01*
X83089000Y-63285000D01*
G37*
G36*
X67768472Y-61428938D02*
X67896049Y-61481782D01*
X68010865Y-61558500D01*
X68108500Y-61656135D01*
X68185218Y-61770951D01*
X68238062Y-61898528D01*
X68265000Y-62033956D01*
X68265000Y-62172044D01*
X68238062Y-62307472D01*
X68185218Y-62435049D01*
X68108500Y-62549865D01*
X68010865Y-62647500D01*
X67896049Y-62724218D01*
X67768472Y-62777062D01*
X67633044Y-62804000D01*
X67494956Y-62804000D01*
X67359528Y-62777062D01*
X67231951Y-62724218D01*
X67117135Y-62647500D01*
X67019500Y-62549865D01*
X66942782Y-62435049D01*
X66889938Y-62307472D01*
X66863000Y-62172044D01*
X66863000Y-62033956D01*
X66889938Y-61898528D01*
X66942782Y-61770951D01*
X67019500Y-61656135D01*
X67117135Y-61558500D01*
X67231951Y-61481782D01*
X67359528Y-61428938D01*
X67494956Y-61402000D01*
X67633044Y-61402000D01*
X67768472Y-61428938D01*
X67768472Y-61428938D01*
G37*
G36*
X68265000Y-60264000D02*
X66990751Y-60264000D01*
X66966365Y-60266402D01*
X66942916Y-60273515D01*
X66921305Y-60285066D01*
X66902363Y-60300612D01*
X66886817Y-60319554D01*
X66875266Y-60341165D01*
X66868153Y-60364614D01*
X66865751Y-60389000D01*
X66868153Y-60413386D01*
X66875266Y-60436835D01*
X66886817Y-60458446D01*
X66915218Y-60500951D01*
X66968062Y-60628528D01*
X66995000Y-60763956D01*
X66995000Y-60902044D01*
X66968062Y-61037472D01*
X66915218Y-61165049D01*
X66838500Y-61279865D01*
X66740865Y-61377500D01*
X66626049Y-61454218D01*
X66498472Y-61507062D01*
X66363044Y-61534000D01*
X66224956Y-61534000D01*
X66089528Y-61507062D01*
X65961951Y-61454218D01*
X65847135Y-61377500D01*
X65749500Y-61279865D01*
X65672782Y-61165049D01*
X65619938Y-61037472D01*
X65593000Y-60902044D01*
X65593000Y-60763956D01*
X65619938Y-60628528D01*
X65672782Y-60500951D01*
X65749500Y-60386135D01*
X65847135Y-60288500D01*
X65961951Y-60211782D01*
X66089528Y-60158938D01*
X66224956Y-60132000D01*
X66363044Y-60132000D01*
X66498472Y-60158938D01*
X66626049Y-60211782D01*
X66668554Y-60240183D01*
X66690165Y-60251734D01*
X66713614Y-60258847D01*
X66738000Y-60261249D01*
X66762386Y-60258847D01*
X66785836Y-60251734D01*
X66807446Y-60240183D01*
X66826388Y-60224637D01*
X66841934Y-60205695D01*
X66853485Y-60184084D01*
X66860598Y-60160635D01*
X66863000Y-60136249D01*
X66863000Y-58862000D01*
X68265000Y-58862000D01*
X68265000Y-60264000D01*
X68265000Y-60264000D01*
G37*
G36*
X119284000Y-61253000D02*
X116682000Y-61253000D01*
X116682000Y-59651000D01*
X119284000Y-59651000D01*
X119284000Y-61253000D01*
X119284000Y-61253000D01*
G37*
G36*
X75342000Y-60745000D02*
X72740000Y-60745000D01*
X72740000Y-59143000D01*
X75342000Y-59143000D01*
X75342000Y-60745000D01*
X75342000Y-60745000D01*
G37*
G36*
X85629000Y-60745000D02*
X83027000Y-60745000D01*
X83027000Y-59143000D01*
X85629000Y-59143000D01*
X85629000Y-60745000D01*
X85629000Y-60745000D01*
G37*
G36*
X86054252Y-53949818D02*
X86054254Y-53949819D01*
X86054255Y-53949819D01*
X86427513Y-54104427D01*
X86648964Y-54252396D01*
X86763439Y-54328886D01*
X87049114Y-54614561D01*
X87049116Y-54614564D01*
X87273573Y-54950487D01*
X87282898Y-54973000D01*
X87428182Y-55323748D01*
X87507000Y-55719993D01*
X87507000Y-56124007D01*
X87437531Y-56473252D01*
X87428181Y-56520255D01*
X87273573Y-56893513D01*
X87273572Y-56893514D01*
X87049114Y-57229439D01*
X86763439Y-57515114D01*
X86763436Y-57515116D01*
X86427513Y-57739573D01*
X86054255Y-57894181D01*
X86054254Y-57894181D01*
X86054252Y-57894182D01*
X85658007Y-57973000D01*
X85253993Y-57973000D01*
X84857748Y-57894182D01*
X84857746Y-57894181D01*
X84857745Y-57894181D01*
X84484487Y-57739573D01*
X84148564Y-57515116D01*
X84148561Y-57515114D01*
X83862886Y-57229439D01*
X83638428Y-56893514D01*
X83638427Y-56893513D01*
X83483819Y-56520255D01*
X83474470Y-56473252D01*
X83405000Y-56124007D01*
X83405000Y-55719993D01*
X83483818Y-55323748D01*
X83629102Y-54973000D01*
X83638427Y-54950487D01*
X83862884Y-54614564D01*
X83862886Y-54614561D01*
X84148561Y-54328886D01*
X84263036Y-54252396D01*
X84484487Y-54104427D01*
X84857745Y-53949819D01*
X84857746Y-53949819D01*
X84857748Y-53949818D01*
X85253993Y-53871000D01*
X85658007Y-53871000D01*
X86054252Y-53949818D01*
X86054252Y-53949818D01*
G37*
G36*
X73511252Y-53902818D02*
X73511254Y-53902819D01*
X73511255Y-53902819D01*
X73884513Y-54057427D01*
X73971672Y-54115665D01*
X74220439Y-54281886D01*
X74506114Y-54567561D01*
X74506116Y-54567564D01*
X74730573Y-54903487D01*
X74759366Y-54973000D01*
X74885182Y-55276748D01*
X74964000Y-55672993D01*
X74964000Y-56077006D01*
X74885181Y-56473255D01*
X74730573Y-56846513D01*
X74699168Y-56893514D01*
X74506114Y-57182439D01*
X74220439Y-57468114D01*
X74220436Y-57468116D01*
X73884513Y-57692573D01*
X73511255Y-57847181D01*
X73511254Y-57847181D01*
X73511252Y-57847182D01*
X73115007Y-57926000D01*
X72710993Y-57926000D01*
X72314748Y-57847182D01*
X72314746Y-57847181D01*
X72314745Y-57847181D01*
X71941487Y-57692573D01*
X71605564Y-57468116D01*
X71605561Y-57468114D01*
X71319886Y-57182439D01*
X71126832Y-56893514D01*
X71095427Y-56846513D01*
X70940819Y-56473255D01*
X70862000Y-56077006D01*
X70862000Y-55672993D01*
X70940818Y-55276748D01*
X71066634Y-54973000D01*
X71095427Y-54903487D01*
X71319884Y-54567564D01*
X71319886Y-54567561D01*
X71605561Y-54281886D01*
X71854328Y-54115665D01*
X71941487Y-54057427D01*
X72314745Y-53902819D01*
X72314746Y-53902819D01*
X72314748Y-53902818D01*
X72710993Y-53824000D01*
X73115007Y-53824000D01*
X73511252Y-53902818D01*
X73511252Y-53902818D01*
G37*
G36*
X98718000Y-55276000D02*
X97116000Y-55276000D01*
X97116000Y-52674000D01*
X98718000Y-52674000D01*
X98718000Y-55276000D01*
X98718000Y-55276000D01*
G37*
G36*
X92733396Y-53107546D02*
X92906466Y-53179234D01*
X93062230Y-53283312D01*
X93194688Y-53415770D01*
X93298766Y-53571534D01*
X93370454Y-53744604D01*
X93407000Y-53928333D01*
X93407000Y-54115667D01*
X93370454Y-54299396D01*
X93298766Y-54472466D01*
X93194688Y-54628230D01*
X93062230Y-54760688D01*
X92906466Y-54864766D01*
X92733396Y-54936454D01*
X92549667Y-54973000D01*
X92362333Y-54973000D01*
X92178604Y-54936454D01*
X92005534Y-54864766D01*
X91849770Y-54760688D01*
X91717312Y-54628230D01*
X91613234Y-54472466D01*
X91541546Y-54299396D01*
X91505000Y-54115667D01*
X91505000Y-53928333D01*
X91541546Y-53744604D01*
X91613234Y-53571534D01*
X91717312Y-53415770D01*
X91849770Y-53283312D01*
X92005534Y-53179234D01*
X92178604Y-53107546D01*
X92362333Y-53071000D01*
X92549667Y-53071000D01*
X92733396Y-53107546D01*
X92733396Y-53107546D01*
G37*
G36*
X66190396Y-53060546D02*
X66363466Y-53132234D01*
X66519230Y-53236312D01*
X66651688Y-53368770D01*
X66755766Y-53524534D01*
X66827454Y-53697604D01*
X66864000Y-53881333D01*
X66864000Y-54068667D01*
X66827454Y-54252396D01*
X66755766Y-54425466D01*
X66651688Y-54581230D01*
X66519230Y-54713688D01*
X66363466Y-54817766D01*
X66190396Y-54889454D01*
X66006667Y-54926000D01*
X65819333Y-54926000D01*
X65635604Y-54889454D01*
X65462534Y-54817766D01*
X65306770Y-54713688D01*
X65174312Y-54581230D01*
X65070234Y-54425466D01*
X64998546Y-54252396D01*
X64962000Y-54068667D01*
X64962000Y-53881333D01*
X64998546Y-53697604D01*
X65070234Y-53524534D01*
X65174312Y-53368770D01*
X65306770Y-53236312D01*
X65462534Y-53132234D01*
X65635604Y-53060546D01*
X65819333Y-53024000D01*
X66006667Y-53024000D01*
X66190396Y-53060546D01*
X66190396Y-53060546D01*
G37*
G36*
X116210252Y-50747818D02*
X116210254Y-50747819D01*
X116210255Y-50747819D01*
X116583513Y-50902427D01*
X116836599Y-51071534D01*
X116919439Y-51126886D01*
X117205114Y-51412561D01*
X117205116Y-51412564D01*
X117429573Y-51748487D01*
X117522348Y-51972467D01*
X117584182Y-52121748D01*
X117663000Y-52517993D01*
X117663000Y-52922007D01*
X117635443Y-53060547D01*
X117584181Y-53318255D01*
X117429573Y-53691513D01*
X117271335Y-53928333D01*
X117205114Y-54027439D01*
X116919439Y-54313114D01*
X116919436Y-54313116D01*
X116583513Y-54537573D01*
X116210255Y-54692181D01*
X116210254Y-54692181D01*
X116210252Y-54692182D01*
X115814007Y-54771000D01*
X115409993Y-54771000D01*
X115013748Y-54692182D01*
X115013746Y-54692181D01*
X115013745Y-54692181D01*
X114640487Y-54537573D01*
X114304564Y-54313116D01*
X114304561Y-54313114D01*
X114018886Y-54027439D01*
X113952665Y-53928333D01*
X113794427Y-53691513D01*
X113639819Y-53318255D01*
X113588558Y-53060547D01*
X113561000Y-52922007D01*
X113561000Y-52517993D01*
X113639818Y-52121748D01*
X113701652Y-51972467D01*
X113794427Y-51748487D01*
X114018884Y-51412564D01*
X114018886Y-51412561D01*
X114304561Y-51126886D01*
X114387401Y-51071534D01*
X114640487Y-50902427D01*
X115013745Y-50747819D01*
X115013746Y-50747819D01*
X115013748Y-50747818D01*
X115409993Y-50669000D01*
X115814007Y-50669000D01*
X116210252Y-50747818D01*
X116210252Y-50747818D01*
G37*
G36*
X129545252Y-50747818D02*
X129545254Y-50747819D01*
X129545255Y-50747819D01*
X129918513Y-50902427D01*
X130171599Y-51071534D01*
X130254439Y-51126886D01*
X130540114Y-51412561D01*
X130540116Y-51412564D01*
X130764573Y-51748487D01*
X130857348Y-51972467D01*
X130919182Y-52121748D01*
X130998000Y-52517993D01*
X130998000Y-52922007D01*
X130970443Y-53060547D01*
X130919181Y-53318255D01*
X130764573Y-53691513D01*
X130606335Y-53928333D01*
X130540114Y-54027439D01*
X130254439Y-54313114D01*
X130254436Y-54313116D01*
X129918513Y-54537573D01*
X129545255Y-54692181D01*
X129545254Y-54692181D01*
X129545252Y-54692182D01*
X129149007Y-54771000D01*
X128744993Y-54771000D01*
X128348748Y-54692182D01*
X128348746Y-54692181D01*
X128348745Y-54692181D01*
X127975487Y-54537573D01*
X127639564Y-54313116D01*
X127639561Y-54313114D01*
X127353886Y-54027439D01*
X127287665Y-53928333D01*
X127129427Y-53691513D01*
X126974819Y-53318255D01*
X126923558Y-53060547D01*
X126896000Y-52922007D01*
X126896000Y-52517993D01*
X126974818Y-52121748D01*
X127036652Y-51972467D01*
X127129427Y-51748487D01*
X127353884Y-51412564D01*
X127353886Y-51412561D01*
X127639561Y-51126886D01*
X127722401Y-51071534D01*
X127975487Y-50902427D01*
X128348745Y-50747819D01*
X128348746Y-50747819D01*
X128348748Y-50747818D01*
X128744993Y-50669000D01*
X129149007Y-50669000D01*
X129545252Y-50747818D01*
X129545252Y-50747818D01*
G37*
G36*
X107410252Y-50747818D02*
X107410254Y-50747819D01*
X107410255Y-50747819D01*
X107783513Y-50902427D01*
X108036599Y-51071534D01*
X108119439Y-51126886D01*
X108405114Y-51412561D01*
X108405116Y-51412564D01*
X108629573Y-51748487D01*
X108722348Y-51972467D01*
X108784182Y-52121748D01*
X108863000Y-52517993D01*
X108863000Y-52922007D01*
X108835443Y-53060547D01*
X108784181Y-53318255D01*
X108629573Y-53691513D01*
X108471335Y-53928333D01*
X108405114Y-54027439D01*
X108119439Y-54313114D01*
X108119436Y-54313116D01*
X107783513Y-54537573D01*
X107410255Y-54692181D01*
X107410254Y-54692181D01*
X107410252Y-54692182D01*
X107014007Y-54771000D01*
X106609993Y-54771000D01*
X106213748Y-54692182D01*
X106213746Y-54692181D01*
X106213745Y-54692181D01*
X105840487Y-54537573D01*
X105504564Y-54313116D01*
X105504561Y-54313114D01*
X105218886Y-54027439D01*
X105152665Y-53928333D01*
X104994427Y-53691513D01*
X104839819Y-53318255D01*
X104788558Y-53060547D01*
X104761000Y-52922007D01*
X104761000Y-52517993D01*
X104839818Y-52121748D01*
X104901652Y-51972467D01*
X104994427Y-51748487D01*
X105218884Y-51412564D01*
X105218886Y-51412561D01*
X105504561Y-51126886D01*
X105587401Y-51071534D01*
X105840487Y-50902427D01*
X106213745Y-50747819D01*
X106213746Y-50747819D01*
X106213748Y-50747818D01*
X106609993Y-50669000D01*
X107014007Y-50669000D01*
X107410252Y-50747818D01*
X107410252Y-50747818D01*
G37*
G36*
X120745252Y-50747818D02*
X120745254Y-50747819D01*
X120745255Y-50747819D01*
X121118513Y-50902427D01*
X121371599Y-51071534D01*
X121454439Y-51126886D01*
X121740114Y-51412561D01*
X121740116Y-51412564D01*
X121964573Y-51748487D01*
X122057348Y-51972467D01*
X122119182Y-52121748D01*
X122198000Y-52517993D01*
X122198000Y-52922007D01*
X122170443Y-53060547D01*
X122119181Y-53318255D01*
X121964573Y-53691513D01*
X121806335Y-53928333D01*
X121740114Y-54027439D01*
X121454439Y-54313114D01*
X121454436Y-54313116D01*
X121118513Y-54537573D01*
X120745255Y-54692181D01*
X120745254Y-54692181D01*
X120745252Y-54692182D01*
X120349007Y-54771000D01*
X119944993Y-54771000D01*
X119548748Y-54692182D01*
X119548746Y-54692181D01*
X119548745Y-54692181D01*
X119175487Y-54537573D01*
X118839564Y-54313116D01*
X118839561Y-54313114D01*
X118553886Y-54027439D01*
X118487665Y-53928333D01*
X118329427Y-53691513D01*
X118174819Y-53318255D01*
X118123558Y-53060547D01*
X118096000Y-52922007D01*
X118096000Y-52517993D01*
X118174818Y-52121748D01*
X118236652Y-51972467D01*
X118329427Y-51748487D01*
X118553884Y-51412564D01*
X118553886Y-51412561D01*
X118839561Y-51126886D01*
X118922401Y-51071534D01*
X119175487Y-50902427D01*
X119548745Y-50747819D01*
X119548746Y-50747819D01*
X119548748Y-50747818D01*
X119944993Y-50669000D01*
X120349007Y-50669000D01*
X120745252Y-50747818D01*
X120745252Y-50747818D01*
G37*
G36*
X96178000Y-52736000D02*
X94576000Y-52736000D01*
X94576000Y-50134000D01*
X96178000Y-50134000D01*
X96178000Y-52736000D01*
X96178000Y-52736000D01*
G37*
G36*
X103798000Y-52736000D02*
X102196000Y-52736000D01*
X102196000Y-50134000D01*
X103798000Y-50134000D01*
X103798000Y-52736000D01*
X103798000Y-52736000D01*
G37*
G36*
X92733396Y-50607546D02*
X92906466Y-50679234D01*
X93062230Y-50783312D01*
X93194688Y-50915770D01*
X93298766Y-51071534D01*
X93370454Y-51244604D01*
X93407000Y-51428333D01*
X93407000Y-51615667D01*
X93370454Y-51799396D01*
X93298766Y-51972466D01*
X93194688Y-52128230D01*
X93062230Y-52260688D01*
X92906466Y-52364766D01*
X92733396Y-52436454D01*
X92549667Y-52473000D01*
X92362333Y-52473000D01*
X92178604Y-52436454D01*
X92005534Y-52364766D01*
X91849770Y-52260688D01*
X91717312Y-52128230D01*
X91613234Y-51972466D01*
X91541546Y-51799396D01*
X91505000Y-51615667D01*
X91505000Y-51428333D01*
X91541546Y-51244604D01*
X91613234Y-51071534D01*
X91717312Y-50915770D01*
X91849770Y-50783312D01*
X92005534Y-50679234D01*
X92178604Y-50607546D01*
X92362333Y-50571000D01*
X92549667Y-50571000D01*
X92733396Y-50607546D01*
X92733396Y-50607546D01*
G37*
G36*
X66190396Y-50560546D02*
X66363466Y-50632234D01*
X66519230Y-50736312D01*
X66651688Y-50868770D01*
X66755766Y-51024534D01*
X66827454Y-51197604D01*
X66864000Y-51381333D01*
X66864000Y-51568667D01*
X66827454Y-51752396D01*
X66755766Y-51925466D01*
X66651688Y-52081230D01*
X66519230Y-52213688D01*
X66363466Y-52317766D01*
X66190396Y-52389454D01*
X66006667Y-52426000D01*
X65819333Y-52426000D01*
X65635604Y-52389454D01*
X65462534Y-52317766D01*
X65306770Y-52213688D01*
X65174312Y-52081230D01*
X65070234Y-51925466D01*
X64998546Y-51752396D01*
X64962000Y-51568667D01*
X64962000Y-51381333D01*
X64998546Y-51197604D01*
X65070234Y-51024534D01*
X65174312Y-50868770D01*
X65306770Y-50736312D01*
X65462534Y-50632234D01*
X65635604Y-50560546D01*
X65819333Y-50524000D01*
X66006667Y-50524000D01*
X66190396Y-50560546D01*
X66190396Y-50560546D01*
G37*
G36*
X100242000Y-50196000D02*
X98640000Y-50196000D01*
X98640000Y-47594000D01*
X100242000Y-47594000D01*
X100242000Y-50196000D01*
X100242000Y-50196000D01*
G37*
G36*
X92733396Y-48107546D02*
X92906466Y-48179234D01*
X93062230Y-48283312D01*
X93194688Y-48415770D01*
X93298766Y-48571534D01*
X93370454Y-48744604D01*
X93407000Y-48928333D01*
X93407000Y-49115667D01*
X93370454Y-49299396D01*
X93298766Y-49472466D01*
X93194688Y-49628230D01*
X93062230Y-49760688D01*
X92906466Y-49864766D01*
X92733396Y-49936454D01*
X92549667Y-49973000D01*
X92362333Y-49973000D01*
X92178604Y-49936454D01*
X92005534Y-49864766D01*
X91849770Y-49760688D01*
X91717312Y-49628230D01*
X91613234Y-49472466D01*
X91541546Y-49299396D01*
X91505000Y-49115667D01*
X91505000Y-48928333D01*
X91541546Y-48744604D01*
X91613234Y-48571534D01*
X91717312Y-48415770D01*
X91849770Y-48283312D01*
X92005534Y-48179234D01*
X92178604Y-48107546D01*
X92362333Y-48071000D01*
X92549667Y-48071000D01*
X92733396Y-48107546D01*
X92733396Y-48107546D01*
G37*
G36*
X66190396Y-48060546D02*
X66363466Y-48132234D01*
X66519230Y-48236312D01*
X66651688Y-48368770D01*
X66755766Y-48524534D01*
X66827454Y-48697604D01*
X66864000Y-48881333D01*
X66864000Y-49068667D01*
X66827454Y-49252396D01*
X66755766Y-49425466D01*
X66651688Y-49581230D01*
X66519230Y-49713688D01*
X66363466Y-49817766D01*
X66190396Y-49889454D01*
X66006667Y-49926000D01*
X65819333Y-49926000D01*
X65635604Y-49889454D01*
X65462534Y-49817766D01*
X65306770Y-49713688D01*
X65174312Y-49581230D01*
X65070234Y-49425466D01*
X64998546Y-49252396D01*
X64962000Y-49068667D01*
X64962000Y-48881333D01*
X64998546Y-48697604D01*
X65070234Y-48524534D01*
X65174312Y-48368770D01*
X65306770Y-48236312D01*
X65462534Y-48132234D01*
X65635604Y-48060546D01*
X65819333Y-48024000D01*
X66006667Y-48024000D01*
X66190396Y-48060546D01*
X66190396Y-48060546D01*
G37*
G36*
X86054252Y-45149818D02*
X86054254Y-45149819D01*
X86054255Y-45149819D01*
X86427513Y-45304427D01*
X86427514Y-45304428D01*
X86763439Y-45528886D01*
X87049114Y-45814561D01*
X87049116Y-45814564D01*
X87273573Y-46150487D01*
X87401234Y-46458690D01*
X87428182Y-46523748D01*
X87507000Y-46919993D01*
X87507000Y-47324007D01*
X87437531Y-47673252D01*
X87428181Y-47720255D01*
X87273573Y-48093513D01*
X87146754Y-48283310D01*
X87049114Y-48429439D01*
X86763439Y-48715114D01*
X86763436Y-48715116D01*
X86427513Y-48939573D01*
X86054255Y-49094181D01*
X86054254Y-49094181D01*
X86054252Y-49094182D01*
X85658007Y-49173000D01*
X85253993Y-49173000D01*
X84857748Y-49094182D01*
X84857746Y-49094181D01*
X84857745Y-49094181D01*
X84484487Y-48939573D01*
X84148564Y-48715116D01*
X84148561Y-48715114D01*
X83862886Y-48429439D01*
X83765246Y-48283310D01*
X83638427Y-48093513D01*
X83483819Y-47720255D01*
X83474470Y-47673252D01*
X83405000Y-47324007D01*
X83405000Y-46919993D01*
X83483818Y-46523748D01*
X83510766Y-46458690D01*
X83638427Y-46150487D01*
X83862884Y-45814564D01*
X83862886Y-45814561D01*
X84148561Y-45528886D01*
X84484486Y-45304428D01*
X84484487Y-45304427D01*
X84857745Y-45149819D01*
X84857746Y-45149819D01*
X84857748Y-45149818D01*
X85253993Y-45071000D01*
X85658007Y-45071000D01*
X86054252Y-45149818D01*
X86054252Y-45149818D01*
G37*
G36*
X73511252Y-45102818D02*
X73511254Y-45102819D01*
X73511255Y-45102819D01*
X73884513Y-45257427D01*
X74161649Y-45442604D01*
X74220439Y-45481886D01*
X74506114Y-45767561D01*
X74506116Y-45767564D01*
X74730573Y-46103487D01*
X74877702Y-46458690D01*
X74885182Y-46476748D01*
X74923821Y-46671000D01*
X74964000Y-46872994D01*
X74964000Y-47277006D01*
X74885181Y-47673255D01*
X74730573Y-48046513D01*
X74699168Y-48093514D01*
X74506114Y-48382439D01*
X74220439Y-48668114D01*
X74220436Y-48668116D01*
X73884513Y-48892573D01*
X73511255Y-49047181D01*
X73511254Y-49047181D01*
X73511252Y-49047182D01*
X73115007Y-49126000D01*
X72710993Y-49126000D01*
X72314748Y-49047182D01*
X72314746Y-49047181D01*
X72314745Y-49047181D01*
X71941487Y-48892573D01*
X71605564Y-48668116D01*
X71605561Y-48668114D01*
X71319886Y-48382439D01*
X71126832Y-48093514D01*
X71095427Y-48046513D01*
X70940819Y-47673255D01*
X70862000Y-47277006D01*
X70862000Y-46872994D01*
X70902179Y-46671000D01*
X70940818Y-46476748D01*
X70948298Y-46458690D01*
X71095427Y-46103487D01*
X71319884Y-45767564D01*
X71319886Y-45767561D01*
X71605561Y-45481886D01*
X71664351Y-45442604D01*
X71941487Y-45257427D01*
X72314745Y-45102819D01*
X72314746Y-45102819D01*
X72314748Y-45102818D01*
X72710993Y-45024000D01*
X73115007Y-45024000D01*
X73511252Y-45102818D01*
X73511252Y-45102818D01*
G37*
G36*
X124824396Y-44805546D02*
X124997466Y-44877234D01*
X125153230Y-44981312D01*
X125285688Y-45113770D01*
X125389766Y-45269534D01*
X125461454Y-45442604D01*
X125498000Y-45626333D01*
X125498000Y-45813667D01*
X125461454Y-45997396D01*
X125389766Y-46170466D01*
X125285688Y-46326230D01*
X125153230Y-46458688D01*
X124997466Y-46562766D01*
X124824396Y-46634454D01*
X124640667Y-46671000D01*
X124453333Y-46671000D01*
X124269604Y-46634454D01*
X124096534Y-46562766D01*
X123940770Y-46458688D01*
X123808312Y-46326230D01*
X123704234Y-46170466D01*
X123632546Y-45997396D01*
X123596000Y-45813667D01*
X123596000Y-45626333D01*
X123632546Y-45442604D01*
X123704234Y-45269534D01*
X123808312Y-45113770D01*
X123940770Y-44981312D01*
X124096534Y-44877234D01*
X124269604Y-44805546D01*
X124453333Y-44769000D01*
X124640667Y-44769000D01*
X124824396Y-44805546D01*
X124824396Y-44805546D01*
G37*
G36*
X111489396Y-44805546D02*
X111662466Y-44877234D01*
X111818230Y-44981312D01*
X111950688Y-45113770D01*
X112054766Y-45269534D01*
X112126454Y-45442604D01*
X112163000Y-45626333D01*
X112163000Y-45813667D01*
X112126454Y-45997396D01*
X112054766Y-46170466D01*
X111950688Y-46326230D01*
X111818230Y-46458688D01*
X111662466Y-46562766D01*
X111489396Y-46634454D01*
X111305667Y-46671000D01*
X111118333Y-46671000D01*
X110934604Y-46634454D01*
X110761534Y-46562766D01*
X110605770Y-46458688D01*
X110473312Y-46326230D01*
X110369234Y-46170466D01*
X110297546Y-45997396D01*
X110261000Y-45813667D01*
X110261000Y-45626333D01*
X110297546Y-45442604D01*
X110369234Y-45269534D01*
X110473312Y-45113770D01*
X110605770Y-44981312D01*
X110761534Y-44877234D01*
X110934604Y-44805546D01*
X111118333Y-44769000D01*
X111305667Y-44769000D01*
X111489396Y-44805546D01*
X111489396Y-44805546D01*
G37*
G36*
X108989396Y-44805546D02*
X109162466Y-44877234D01*
X109318230Y-44981312D01*
X109450688Y-45113770D01*
X109554766Y-45269534D01*
X109626454Y-45442604D01*
X109663000Y-45626333D01*
X109663000Y-45813667D01*
X109626454Y-45997396D01*
X109554766Y-46170466D01*
X109450688Y-46326230D01*
X109318230Y-46458688D01*
X109162466Y-46562766D01*
X108989396Y-46634454D01*
X108805667Y-46671000D01*
X108618333Y-46671000D01*
X108434604Y-46634454D01*
X108261534Y-46562766D01*
X108105770Y-46458688D01*
X107973312Y-46326230D01*
X107869234Y-46170466D01*
X107797546Y-45997396D01*
X107761000Y-45813667D01*
X107761000Y-45626333D01*
X107797546Y-45442604D01*
X107869234Y-45269534D01*
X107973312Y-45113770D01*
X108105770Y-44981312D01*
X108261534Y-44877234D01*
X108434604Y-44805546D01*
X108618333Y-44769000D01*
X108805667Y-44769000D01*
X108989396Y-44805546D01*
X108989396Y-44805546D01*
G37*
G36*
X113989396Y-44805546D02*
X114162466Y-44877234D01*
X114318230Y-44981312D01*
X114450688Y-45113770D01*
X114554766Y-45269534D01*
X114626454Y-45442604D01*
X114663000Y-45626333D01*
X114663000Y-45813667D01*
X114626454Y-45997396D01*
X114554766Y-46170466D01*
X114450688Y-46326230D01*
X114318230Y-46458688D01*
X114162466Y-46562766D01*
X113989396Y-46634454D01*
X113805667Y-46671000D01*
X113618333Y-46671000D01*
X113434604Y-46634454D01*
X113261534Y-46562766D01*
X113105770Y-46458688D01*
X112973312Y-46326230D01*
X112869234Y-46170466D01*
X112797546Y-45997396D01*
X112761000Y-45813667D01*
X112761000Y-45626333D01*
X112797546Y-45442604D01*
X112869234Y-45269534D01*
X112973312Y-45113770D01*
X113105770Y-44981312D01*
X113261534Y-44877234D01*
X113434604Y-44805546D01*
X113618333Y-44769000D01*
X113805667Y-44769000D01*
X113989396Y-44805546D01*
X113989396Y-44805546D01*
G37*
G36*
X122324396Y-44805546D02*
X122497466Y-44877234D01*
X122653230Y-44981312D01*
X122785688Y-45113770D01*
X122889766Y-45269534D01*
X122961454Y-45442604D01*
X122998000Y-45626333D01*
X122998000Y-45813667D01*
X122961454Y-45997396D01*
X122889766Y-46170466D01*
X122785688Y-46326230D01*
X122653230Y-46458688D01*
X122497466Y-46562766D01*
X122324396Y-46634454D01*
X122140667Y-46671000D01*
X121953333Y-46671000D01*
X121769604Y-46634454D01*
X121596534Y-46562766D01*
X121440770Y-46458688D01*
X121308312Y-46326230D01*
X121204234Y-46170466D01*
X121132546Y-45997396D01*
X121096000Y-45813667D01*
X121096000Y-45626333D01*
X121132546Y-45442604D01*
X121204234Y-45269534D01*
X121308312Y-45113770D01*
X121440770Y-44981312D01*
X121596534Y-44877234D01*
X121769604Y-44805546D01*
X121953333Y-44769000D01*
X122140667Y-44769000D01*
X122324396Y-44805546D01*
X122324396Y-44805546D01*
G37*
G36*
X127324396Y-44805546D02*
X127497466Y-44877234D01*
X127653230Y-44981312D01*
X127785688Y-45113770D01*
X127889766Y-45269534D01*
X127961454Y-45442604D01*
X127998000Y-45626333D01*
X127998000Y-45813667D01*
X127961454Y-45997396D01*
X127889766Y-46170466D01*
X127785688Y-46326230D01*
X127653230Y-46458688D01*
X127497466Y-46562766D01*
X127324396Y-46634454D01*
X127140667Y-46671000D01*
X126953333Y-46671000D01*
X126769604Y-46634454D01*
X126596534Y-46562766D01*
X126440770Y-46458688D01*
X126308312Y-46326230D01*
X126204234Y-46170466D01*
X126132546Y-45997396D01*
X126096000Y-45813667D01*
X126096000Y-45626333D01*
X126132546Y-45442604D01*
X126204234Y-45269534D01*
X126308312Y-45113770D01*
X126440770Y-44981312D01*
X126596534Y-44877234D01*
X126769604Y-44805546D01*
X126953333Y-44769000D01*
X127140667Y-44769000D01*
X127324396Y-44805546D01*
X127324396Y-44805546D01*
G37*
G36*
X85629000Y-43854000D02*
X83027000Y-43854000D01*
X83027000Y-42252000D01*
X85629000Y-42252000D01*
X85629000Y-43854000D01*
X85629000Y-43854000D01*
G37*
G36*
X75342000Y-43854000D02*
X72740000Y-43854000D01*
X72740000Y-42252000D01*
X75342000Y-42252000D01*
X75342000Y-43854000D01*
X75342000Y-43854000D01*
G37*
G36*
X124364000Y-43727000D02*
X121762000Y-43727000D01*
X121762000Y-42125000D01*
X124364000Y-42125000D01*
X124364000Y-43727000D01*
X124364000Y-43727000D01*
G37*
G36*
X114077000Y-43727000D02*
X111475000Y-43727000D01*
X111475000Y-42125000D01*
X114077000Y-42125000D01*
X114077000Y-43727000D01*
X114077000Y-43727000D01*
G37*
G36*
X88169000Y-41314000D02*
X85567000Y-41314000D01*
X85567000Y-39712000D01*
X88169000Y-39712000D01*
X88169000Y-41314000D01*
X88169000Y-41314000D01*
G37*
G36*
X77882000Y-41314000D02*
X75280000Y-41314000D01*
X75280000Y-39712000D01*
X77882000Y-39712000D01*
X77882000Y-41314000D01*
X77882000Y-41314000D01*
G37*
G36*
X116617000Y-41187000D02*
X114015000Y-41187000D01*
X114015000Y-39585000D01*
X116617000Y-39585000D01*
X116617000Y-41187000D01*
X116617000Y-41187000D01*
G37*
G36*
X126904000Y-41187000D02*
X124302000Y-41187000D01*
X124302000Y-39585000D01*
X126904000Y-39585000D01*
X126904000Y-41187000D01*
X126904000Y-41187000D01*
G37*
G36*
X83089000Y-39790000D02*
X80487000Y-39790000D01*
X80487000Y-38188000D01*
X83089000Y-38188000D01*
X83089000Y-39790000D01*
X83089000Y-39790000D01*
G37*
G36*
X72802000Y-39790000D02*
X70200000Y-39790000D01*
X70200000Y-38188000D01*
X72802000Y-38188000D01*
X72802000Y-39790000D01*
X72802000Y-39790000D01*
G37*
G36*
X111537000Y-39663000D02*
X108935000Y-39663000D01*
X108935000Y-38061000D01*
X111537000Y-38061000D01*
X111537000Y-39663000D01*
X111537000Y-39663000D01*
G37*
G36*
X121824000Y-39663000D02*
X119222000Y-39663000D01*
X119222000Y-38061000D01*
X121824000Y-38061000D01*
X121824000Y-39663000D01*
X121824000Y-39663000D01*
G37*
G36*
X75342000Y-36234000D02*
X72740000Y-36234000D01*
X72740000Y-34632000D01*
X75342000Y-34632000D01*
X75342000Y-36234000D01*
X75342000Y-36234000D01*
G37*
G36*
X85629000Y-36234000D02*
X83027000Y-36234000D01*
X83027000Y-34632000D01*
X85629000Y-34632000D01*
X85629000Y-36234000D01*
X85629000Y-36234000D01*
G37*
G36*
X124364000Y-36107000D02*
X121762000Y-36107000D01*
X121762000Y-34505000D01*
X124364000Y-34505000D01*
X124364000Y-36107000D01*
X124364000Y-36107000D01*
G37*
G36*
X114077000Y-36107000D02*
X111475000Y-36107000D01*
X111475000Y-34505000D01*
X114077000Y-34505000D01*
X114077000Y-36107000D01*
X114077000Y-36107000D01*
G37*
M02*
