G04 #@! TF.GenerationSoftware,KiCad,Pcbnew,(5.0.2)-1*
G04 #@! TF.CreationDate,2019-02-20T17:00:52+00:00*
G04 #@! TF.ProjectId,Modulator,4d6f6475-6c61-4746-9f72-2e6b69636164,rev?*
G04 #@! TF.SameCoordinates,Original*
G04 #@! TF.FileFunction,Copper,L2,Bot*
G04 #@! TF.FilePolarity,Positive*
%FSLAX46Y46*%
G04 Gerber Fmt 4.6, Leading zero omitted, Abs format (unit mm)*
G04 Created by KiCad (PCBNEW (5.0.2)-1) date 20/02/2019 17:00:52*
%MOMM*%
%LPD*%
G01*
G04 APERTURE LIST*
G04 #@! TA.AperFunction,ComponentPad*
%ADD10R,2.500000X1.500000*%
G04 #@! TD*
G04 #@! TA.AperFunction,ComponentPad*
%ADD11R,1.500000X2.500000*%
G04 #@! TD*
G04 #@! TA.AperFunction,ComponentPad*
%ADD12C,1.300000*%
G04 #@! TD*
G04 #@! TA.AperFunction,ComponentPad*
%ADD13R,1.300000X1.300000*%
G04 #@! TD*
G04 #@! TA.AperFunction,ComponentPad*
%ADD14C,1.800000*%
G04 #@! TD*
G04 #@! TA.AperFunction,WasherPad*
%ADD15C,4.000000*%
G04 #@! TD*
G04 #@! TA.AperFunction,ViaPad*
%ADD16C,0.800000*%
G04 #@! TD*
G04 #@! TA.AperFunction,Conductor*
%ADD17C,0.250000*%
G04 #@! TD*
G04 APERTURE END LIST*
D10*
G04 #@! TO.P,J1,T*
G04 #@! TO.N,Net-(J1-PadT)*
X74041000Y-35433000D03*
G04 #@! TO.P,J1,R*
G04 #@! TO.N,Net-(J1-PadR)*
X76581000Y-40513000D03*
G04 #@! TO.P,J1,G*
G04 #@! TO.N,GND*
X71501000Y-38989000D03*
G04 #@! TO.P,J1,S*
X74041000Y-43053000D03*
G04 #@! TD*
G04 #@! TO.P,J2,S*
G04 #@! TO.N,GND*
X74041000Y-59944000D03*
G04 #@! TO.P,J2,G*
X76581000Y-64008000D03*
G04 #@! TO.P,J2,R*
G04 #@! TO.N,Net-(J2-PadR)*
X71501000Y-62484000D03*
G04 #@! TO.P,J2,T*
G04 #@! TO.N,Net-(J2-PadT)*
X74041000Y-67564000D03*
G04 #@! TD*
G04 #@! TO.P,J3,S*
G04 #@! TO.N,GND*
X84328000Y-43053000D03*
G04 #@! TO.P,J3,G*
X81788000Y-38989000D03*
G04 #@! TO.P,J3,R*
G04 #@! TO.N,Net-(J3-PadR)*
X86868000Y-40513000D03*
G04 #@! TO.P,J3,T*
G04 #@! TO.N,Net-(J3-PadT)*
X84328000Y-35433000D03*
G04 #@! TD*
G04 #@! TO.P,J4,T*
G04 #@! TO.N,Net-(J4-PadT)*
X84328000Y-67564000D03*
G04 #@! TO.P,J4,R*
G04 #@! TO.N,Net-(J4-PadR)*
X81788000Y-62484000D03*
G04 #@! TO.P,J4,G*
G04 #@! TO.N,GND*
X86868000Y-64008000D03*
G04 #@! TO.P,J4,S*
X84328000Y-59944000D03*
G04 #@! TD*
D11*
G04 #@! TO.P,J5,T*
G04 #@! TO.N,VOUT*
X102997000Y-51435000D03*
G04 #@! TO.P,J5,R*
G04 #@! TO.N,Net-(J5-PadR)*
X97917000Y-53975000D03*
G04 #@! TO.P,J5,G*
G04 #@! TO.N,GND*
X99441000Y-48895000D03*
G04 #@! TO.P,J5,S*
X95377000Y-51435000D03*
G04 #@! TD*
D10*
G04 #@! TO.P,J6,S*
G04 #@! TO.N,GND*
X112776000Y-42926000D03*
G04 #@! TO.P,J6,G*
X110236000Y-38862000D03*
G04 #@! TO.P,J6,R*
G04 #@! TO.N,Net-(J6-PadR)*
X115316000Y-40386000D03*
G04 #@! TO.P,J6,T*
G04 #@! TO.N,Net-(J6-PadT)*
X112776000Y-35306000D03*
G04 #@! TD*
G04 #@! TO.P,J7,T*
G04 #@! TO.N,Net-(J7-PadT)*
X123063000Y-35306000D03*
G04 #@! TO.P,J7,R*
G04 #@! TO.N,Net-(J7-PadR)*
X125603000Y-40386000D03*
G04 #@! TO.P,J7,G*
G04 #@! TO.N,GND*
X120523000Y-38862000D03*
G04 #@! TO.P,J7,S*
X123063000Y-42926000D03*
G04 #@! TD*
G04 #@! TO.P,J8,S*
G04 #@! TO.N,GND*
X117983000Y-68072000D03*
G04 #@! TO.P,J8,G*
X115443000Y-64008000D03*
G04 #@! TO.P,J8,R*
G04 #@! TO.N,R*
X120523000Y-65532000D03*
G04 #@! TO.P,J8,T*
G04 #@! TO.N,L*
X117983000Y-60452000D03*
G04 #@! TD*
D12*
G04 #@! TO.P,Q1,2*
G04 #@! TO.N,VOUT*
X66294000Y-60833000D03*
G04 #@! TO.P,Q1,3*
G04 #@! TO.N,Net-(Q1-Pad3)*
X67564000Y-62103000D03*
D13*
G04 #@! TO.P,Q1,1*
G04 #@! TO.N,Net-(Q1-Pad1)*
X67564000Y-59563000D03*
G04 #@! TD*
D14*
G04 #@! TO.P,RV1,3*
G04 #@! TO.N,GND*
X65913000Y-48975000D03*
G04 #@! TO.P,RV1,2*
G04 #@! TO.N,Net-(Q1-Pad3)*
X65913000Y-51475000D03*
G04 #@! TO.P,RV1,1*
G04 #@! TO.N,Net-(J2-PadT)*
X65913000Y-53975000D03*
D15*
G04 #@! TO.P,RV1,*
G04 #@! TO.N,*
X72913000Y-47075000D03*
X72913000Y-55875000D03*
G04 #@! TD*
G04 #@! TO.P,RV2,*
G04 #@! TO.N,*
X85456000Y-47122000D03*
X85456000Y-55922000D03*
D14*
G04 #@! TO.P,RV2,1*
G04 #@! TO.N,Net-(J3-PadT)*
X92456000Y-49022000D03*
G04 #@! TO.P,RV2,2*
G04 #@! TO.N,VOUT*
X92456000Y-51522000D03*
G04 #@! TO.P,RV2,3*
G04 #@! TO.N,Net-(J4-PadT)*
X92456000Y-54022000D03*
G04 #@! TD*
G04 #@! TO.P,RV3,3*
G04 #@! TO.N,Net-(J7-PadT)*
X127047000Y-45720000D03*
G04 #@! TO.P,RV3,2*
G04 #@! TO.N,L*
X124547000Y-45720000D03*
G04 #@! TO.P,RV3,1*
G04 #@! TO.N,Net-(J6-PadT)*
X122047000Y-45720000D03*
D15*
G04 #@! TO.P,RV3,*
G04 #@! TO.N,*
X128947000Y-52720000D03*
X120147000Y-52720000D03*
G04 #@! TD*
G04 #@! TO.P,RV4,*
G04 #@! TO.N,*
X106812000Y-52720000D03*
X115612000Y-52720000D03*
D14*
G04 #@! TO.P,RV4,1*
G04 #@! TO.N,Net-(J6-PadT)*
X108712000Y-45720000D03*
G04 #@! TO.P,RV4,2*
G04 #@! TO.N,R*
X111212000Y-45720000D03*
G04 #@! TO.P,RV4,3*
G04 #@! TO.N,Net-(J7-PadT)*
X113712000Y-45720000D03*
G04 #@! TD*
D16*
G04 #@! TO.N,Net-(J1-PadT)*
X67564000Y-55753000D03*
G04 #@! TD*
D17*
G04 #@! TO.N,Net-(J1-PadT)*
X74041000Y-36433000D02*
X74041000Y-35433000D01*
X74041000Y-40467998D02*
X74041000Y-36433000D01*
X67564000Y-46944998D02*
X74041000Y-40467998D01*
X67564000Y-55753000D02*
X67564000Y-46944998D01*
G04 #@! TO.N,Net-(J4-PadT)*
X84328000Y-66564000D02*
X84328000Y-67564000D01*
X84328000Y-63422792D02*
X84328000Y-66564000D01*
X92456000Y-55294792D02*
X84328000Y-63422792D01*
X92456000Y-54022000D02*
X92456000Y-55294792D01*
G04 #@! TO.N,VOUT*
X91183208Y-51522000D02*
X92456000Y-51522000D01*
X86414998Y-51522000D02*
X91183208Y-51522000D01*
X79736997Y-58200001D02*
X86414998Y-51522000D01*
X73199997Y-58200001D02*
X79736997Y-58200001D01*
X70566998Y-60833000D02*
X73199997Y-58200001D01*
X66294000Y-60833000D02*
X70566998Y-60833000D01*
X93355999Y-52421999D02*
X92456000Y-51522000D01*
X96484001Y-55550001D02*
X93355999Y-52421999D01*
X100381999Y-55550001D02*
X96484001Y-55550001D01*
X102997000Y-52935000D02*
X100381999Y-55550001D01*
X102997000Y-51435000D02*
X102997000Y-52935000D01*
G04 #@! TO.N,Net-(J6-PadT)*
X108712000Y-44447208D02*
X108712000Y-45720000D01*
X108712000Y-44404998D02*
X108712000Y-44447208D01*
X112776000Y-40340998D02*
X108712000Y-44404998D01*
X112776000Y-35306000D02*
X112776000Y-40340998D01*
G04 #@! TO.N,Net-(J7-PadT)*
X126147001Y-46619999D02*
X127047000Y-45720000D01*
X125015000Y-47752000D02*
X126147001Y-46619999D01*
X115744000Y-47752000D02*
X125015000Y-47752000D01*
X113712000Y-45720000D02*
X115744000Y-47752000D01*
X127946999Y-44820001D02*
X127047000Y-45720000D01*
X127946999Y-38689999D02*
X127946999Y-44820001D01*
X124563000Y-35306000D02*
X127946999Y-38689999D01*
X123063000Y-35306000D02*
X124563000Y-35306000D01*
G04 #@! TD*
M02*
