G04 #@! TF.GenerationSoftware,KiCad,Pcbnew,(5.0.2)-1*
G04 #@! TF.CreationDate,2019-03-14T16:01:40+00:00*
G04 #@! TF.ProjectId,vca,7663612e-6b69-4636-9164-5f7063625858,rev?*
G04 #@! TF.SameCoordinates,Original*
G04 #@! TF.FileFunction,Legend,Top*
G04 #@! TF.FilePolarity,Positive*
%FSLAX46Y46*%
G04 Gerber Fmt 4.6, Leading zero omitted, Abs format (unit mm)*
G04 Created by KiCad (PCBNEW (5.0.2)-1) date 14/03/2019 16:01:40*
%MOMM*%
%LPD*%
G01*
G04 APERTURE LIST*
%ADD10C,0.120000*%
%ADD11C,0.150000*%
G04 APERTURE END LIST*
D10*
G04 #@! TO.C,RV6*
X76130000Y-94479000D02*
X76130000Y-98344000D01*
X76130000Y-102854000D02*
X76130000Y-106719000D01*
X66190000Y-94479000D02*
X66190000Y-98344000D01*
X66190000Y-102854000D02*
X66190000Y-106719000D01*
X76130000Y-94479000D02*
X74531000Y-94479000D01*
X72789000Y-94479000D02*
X72030000Y-94479000D01*
X70289000Y-94479000D02*
X69530000Y-94479000D01*
X67790000Y-94479000D02*
X66190000Y-94479000D01*
X76130000Y-106719000D02*
X66190000Y-106719000D01*
G04 #@! TO.C,RV3*
X117071000Y-94479000D02*
X117071000Y-98344000D01*
X117071000Y-102854000D02*
X117071000Y-106719000D01*
X107131000Y-94479000D02*
X107131000Y-98344000D01*
X107131000Y-102854000D02*
X107131000Y-106719000D01*
X117071000Y-94479000D02*
X115472000Y-94479000D01*
X113730000Y-94479000D02*
X112971000Y-94479000D01*
X111230000Y-94479000D02*
X110471000Y-94479000D01*
X108731000Y-94479000D02*
X107131000Y-94479000D01*
X117071000Y-106719000D02*
X107131000Y-106719000D01*
D11*
G04 #@! TO.C,J1*
X118110000Y-76835000D02*
G75*
G03X118110000Y-76835000I-1778000J0D01*
G01*
X120299607Y-76835000D02*
G75*
G03X120299607Y-76835000I-3967607J0D01*
G01*
X112268000Y-71755000D02*
X122682000Y-71755000D01*
X112268000Y-81915000D02*
X112268000Y-71755000D01*
X122682000Y-81915000D02*
X112268000Y-81915000D01*
X122682000Y-71755000D02*
X122682000Y-81915000D01*
G04 #@! TO.C,J2*
X122682000Y-61341000D02*
X122682000Y-71501000D01*
X122682000Y-71501000D02*
X112268000Y-71501000D01*
X112268000Y-71501000D02*
X112268000Y-61341000D01*
X112268000Y-61341000D02*
X122682000Y-61341000D01*
X120299607Y-66421000D02*
G75*
G03X120299607Y-66421000I-3967607J0D01*
G01*
X118110000Y-66421000D02*
G75*
G03X118110000Y-66421000I-1778000J0D01*
G01*
D10*
G04 #@! TO.C,C5*
X102950000Y-46502000D02*
G75*
G03X102950000Y-46502000I-2620000J0D01*
G01*
X97750000Y-46502000D02*
X102910000Y-46502000D01*
X97750000Y-46462000D02*
X102910000Y-46462000D01*
X97751000Y-46422000D02*
X102909000Y-46422000D01*
X97752000Y-46382000D02*
X102908000Y-46382000D01*
X97754000Y-46342000D02*
X102906000Y-46342000D01*
X97757000Y-46302000D02*
X102903000Y-46302000D01*
X97761000Y-46262000D02*
X99290000Y-46262000D01*
X101370000Y-46262000D02*
X102899000Y-46262000D01*
X97765000Y-46222000D02*
X99290000Y-46222000D01*
X101370000Y-46222000D02*
X102895000Y-46222000D01*
X97769000Y-46182000D02*
X99290000Y-46182000D01*
X101370000Y-46182000D02*
X102891000Y-46182000D01*
X97774000Y-46142000D02*
X99290000Y-46142000D01*
X101370000Y-46142000D02*
X102886000Y-46142000D01*
X97780000Y-46102000D02*
X99290000Y-46102000D01*
X101370000Y-46102000D02*
X102880000Y-46102000D01*
X97787000Y-46062000D02*
X99290000Y-46062000D01*
X101370000Y-46062000D02*
X102873000Y-46062000D01*
X97794000Y-46022000D02*
X99290000Y-46022000D01*
X101370000Y-46022000D02*
X102866000Y-46022000D01*
X97802000Y-45982000D02*
X99290000Y-45982000D01*
X101370000Y-45982000D02*
X102858000Y-45982000D01*
X97810000Y-45942000D02*
X99290000Y-45942000D01*
X101370000Y-45942000D02*
X102850000Y-45942000D01*
X97819000Y-45902000D02*
X99290000Y-45902000D01*
X101370000Y-45902000D02*
X102841000Y-45902000D01*
X97829000Y-45862000D02*
X99290000Y-45862000D01*
X101370000Y-45862000D02*
X102831000Y-45862000D01*
X97839000Y-45822000D02*
X99290000Y-45822000D01*
X101370000Y-45822000D02*
X102821000Y-45822000D01*
X97850000Y-45781000D02*
X99290000Y-45781000D01*
X101370000Y-45781000D02*
X102810000Y-45781000D01*
X97862000Y-45741000D02*
X99290000Y-45741000D01*
X101370000Y-45741000D02*
X102798000Y-45741000D01*
X97875000Y-45701000D02*
X99290000Y-45701000D01*
X101370000Y-45701000D02*
X102785000Y-45701000D01*
X97888000Y-45661000D02*
X99290000Y-45661000D01*
X101370000Y-45661000D02*
X102772000Y-45661000D01*
X97902000Y-45621000D02*
X99290000Y-45621000D01*
X101370000Y-45621000D02*
X102758000Y-45621000D01*
X97916000Y-45581000D02*
X99290000Y-45581000D01*
X101370000Y-45581000D02*
X102744000Y-45581000D01*
X97932000Y-45541000D02*
X99290000Y-45541000D01*
X101370000Y-45541000D02*
X102728000Y-45541000D01*
X97948000Y-45501000D02*
X99290000Y-45501000D01*
X101370000Y-45501000D02*
X102712000Y-45501000D01*
X97965000Y-45461000D02*
X99290000Y-45461000D01*
X101370000Y-45461000D02*
X102695000Y-45461000D01*
X97982000Y-45421000D02*
X99290000Y-45421000D01*
X101370000Y-45421000D02*
X102678000Y-45421000D01*
X98001000Y-45381000D02*
X99290000Y-45381000D01*
X101370000Y-45381000D02*
X102659000Y-45381000D01*
X98020000Y-45341000D02*
X99290000Y-45341000D01*
X101370000Y-45341000D02*
X102640000Y-45341000D01*
X98040000Y-45301000D02*
X99290000Y-45301000D01*
X101370000Y-45301000D02*
X102620000Y-45301000D01*
X98062000Y-45261000D02*
X99290000Y-45261000D01*
X101370000Y-45261000D02*
X102598000Y-45261000D01*
X98083000Y-45221000D02*
X99290000Y-45221000D01*
X101370000Y-45221000D02*
X102577000Y-45221000D01*
X98106000Y-45181000D02*
X99290000Y-45181000D01*
X101370000Y-45181000D02*
X102554000Y-45181000D01*
X98130000Y-45141000D02*
X99290000Y-45141000D01*
X101370000Y-45141000D02*
X102530000Y-45141000D01*
X98155000Y-45101000D02*
X99290000Y-45101000D01*
X101370000Y-45101000D02*
X102505000Y-45101000D01*
X98181000Y-45061000D02*
X99290000Y-45061000D01*
X101370000Y-45061000D02*
X102479000Y-45061000D01*
X98208000Y-45021000D02*
X99290000Y-45021000D01*
X101370000Y-45021000D02*
X102452000Y-45021000D01*
X98235000Y-44981000D02*
X99290000Y-44981000D01*
X101370000Y-44981000D02*
X102425000Y-44981000D01*
X98265000Y-44941000D02*
X99290000Y-44941000D01*
X101370000Y-44941000D02*
X102395000Y-44941000D01*
X98295000Y-44901000D02*
X99290000Y-44901000D01*
X101370000Y-44901000D02*
X102365000Y-44901000D01*
X98326000Y-44861000D02*
X99290000Y-44861000D01*
X101370000Y-44861000D02*
X102334000Y-44861000D01*
X98359000Y-44821000D02*
X99290000Y-44821000D01*
X101370000Y-44821000D02*
X102301000Y-44821000D01*
X98393000Y-44781000D02*
X99290000Y-44781000D01*
X101370000Y-44781000D02*
X102267000Y-44781000D01*
X98429000Y-44741000D02*
X99290000Y-44741000D01*
X101370000Y-44741000D02*
X102231000Y-44741000D01*
X98466000Y-44701000D02*
X99290000Y-44701000D01*
X101370000Y-44701000D02*
X102194000Y-44701000D01*
X98504000Y-44661000D02*
X99290000Y-44661000D01*
X101370000Y-44661000D02*
X102156000Y-44661000D01*
X98545000Y-44621000D02*
X99290000Y-44621000D01*
X101370000Y-44621000D02*
X102115000Y-44621000D01*
X98587000Y-44581000D02*
X99290000Y-44581000D01*
X101370000Y-44581000D02*
X102073000Y-44581000D01*
X98631000Y-44541000D02*
X99290000Y-44541000D01*
X101370000Y-44541000D02*
X102029000Y-44541000D01*
X98677000Y-44501000D02*
X99290000Y-44501000D01*
X101370000Y-44501000D02*
X101983000Y-44501000D01*
X98725000Y-44461000D02*
X99290000Y-44461000D01*
X101370000Y-44461000D02*
X101935000Y-44461000D01*
X98776000Y-44421000D02*
X99290000Y-44421000D01*
X101370000Y-44421000D02*
X101884000Y-44421000D01*
X98830000Y-44381000D02*
X99290000Y-44381000D01*
X101370000Y-44381000D02*
X101830000Y-44381000D01*
X98887000Y-44341000D02*
X99290000Y-44341000D01*
X101370000Y-44341000D02*
X101773000Y-44341000D01*
X98947000Y-44301000D02*
X99290000Y-44301000D01*
X101370000Y-44301000D02*
X101713000Y-44301000D01*
X99011000Y-44261000D02*
X99290000Y-44261000D01*
X101370000Y-44261000D02*
X101649000Y-44261000D01*
X99079000Y-44221000D02*
X99290000Y-44221000D01*
X101370000Y-44221000D02*
X101581000Y-44221000D01*
X99152000Y-44181000D02*
X101508000Y-44181000D01*
X99232000Y-44141000D02*
X101428000Y-44141000D01*
X99319000Y-44101000D02*
X101341000Y-44101000D01*
X99415000Y-44061000D02*
X101245000Y-44061000D01*
X99525000Y-44021000D02*
X101135000Y-44021000D01*
X99653000Y-43981000D02*
X101007000Y-43981000D01*
X99812000Y-43941000D02*
X100848000Y-43941000D01*
X100046000Y-43901000D02*
X100614000Y-43901000D01*
X98855000Y-49306775D02*
X98855000Y-48806775D01*
X98605000Y-49056775D02*
X99105000Y-49056775D01*
G04 #@! TO.C,C6*
X80825000Y-41309775D02*
X81325000Y-41309775D01*
X81075000Y-41559775D02*
X81075000Y-41059775D01*
X82266000Y-36154000D02*
X82834000Y-36154000D01*
X82032000Y-36194000D02*
X83068000Y-36194000D01*
X81873000Y-36234000D02*
X83227000Y-36234000D01*
X81745000Y-36274000D02*
X83355000Y-36274000D01*
X81635000Y-36314000D02*
X83465000Y-36314000D01*
X81539000Y-36354000D02*
X83561000Y-36354000D01*
X81452000Y-36394000D02*
X83648000Y-36394000D01*
X81372000Y-36434000D02*
X83728000Y-36434000D01*
X83590000Y-36474000D02*
X83801000Y-36474000D01*
X81299000Y-36474000D02*
X81510000Y-36474000D01*
X83590000Y-36514000D02*
X83869000Y-36514000D01*
X81231000Y-36514000D02*
X81510000Y-36514000D01*
X83590000Y-36554000D02*
X83933000Y-36554000D01*
X81167000Y-36554000D02*
X81510000Y-36554000D01*
X83590000Y-36594000D02*
X83993000Y-36594000D01*
X81107000Y-36594000D02*
X81510000Y-36594000D01*
X83590000Y-36634000D02*
X84050000Y-36634000D01*
X81050000Y-36634000D02*
X81510000Y-36634000D01*
X83590000Y-36674000D02*
X84104000Y-36674000D01*
X80996000Y-36674000D02*
X81510000Y-36674000D01*
X83590000Y-36714000D02*
X84155000Y-36714000D01*
X80945000Y-36714000D02*
X81510000Y-36714000D01*
X83590000Y-36754000D02*
X84203000Y-36754000D01*
X80897000Y-36754000D02*
X81510000Y-36754000D01*
X83590000Y-36794000D02*
X84249000Y-36794000D01*
X80851000Y-36794000D02*
X81510000Y-36794000D01*
X83590000Y-36834000D02*
X84293000Y-36834000D01*
X80807000Y-36834000D02*
X81510000Y-36834000D01*
X83590000Y-36874000D02*
X84335000Y-36874000D01*
X80765000Y-36874000D02*
X81510000Y-36874000D01*
X83590000Y-36914000D02*
X84376000Y-36914000D01*
X80724000Y-36914000D02*
X81510000Y-36914000D01*
X83590000Y-36954000D02*
X84414000Y-36954000D01*
X80686000Y-36954000D02*
X81510000Y-36954000D01*
X83590000Y-36994000D02*
X84451000Y-36994000D01*
X80649000Y-36994000D02*
X81510000Y-36994000D01*
X83590000Y-37034000D02*
X84487000Y-37034000D01*
X80613000Y-37034000D02*
X81510000Y-37034000D01*
X83590000Y-37074000D02*
X84521000Y-37074000D01*
X80579000Y-37074000D02*
X81510000Y-37074000D01*
X83590000Y-37114000D02*
X84554000Y-37114000D01*
X80546000Y-37114000D02*
X81510000Y-37114000D01*
X83590000Y-37154000D02*
X84585000Y-37154000D01*
X80515000Y-37154000D02*
X81510000Y-37154000D01*
X83590000Y-37194000D02*
X84615000Y-37194000D01*
X80485000Y-37194000D02*
X81510000Y-37194000D01*
X83590000Y-37234000D02*
X84645000Y-37234000D01*
X80455000Y-37234000D02*
X81510000Y-37234000D01*
X83590000Y-37274000D02*
X84672000Y-37274000D01*
X80428000Y-37274000D02*
X81510000Y-37274000D01*
X83590000Y-37314000D02*
X84699000Y-37314000D01*
X80401000Y-37314000D02*
X81510000Y-37314000D01*
X83590000Y-37354000D02*
X84725000Y-37354000D01*
X80375000Y-37354000D02*
X81510000Y-37354000D01*
X83590000Y-37394000D02*
X84750000Y-37394000D01*
X80350000Y-37394000D02*
X81510000Y-37394000D01*
X83590000Y-37434000D02*
X84774000Y-37434000D01*
X80326000Y-37434000D02*
X81510000Y-37434000D01*
X83590000Y-37474000D02*
X84797000Y-37474000D01*
X80303000Y-37474000D02*
X81510000Y-37474000D01*
X83590000Y-37514000D02*
X84818000Y-37514000D01*
X80282000Y-37514000D02*
X81510000Y-37514000D01*
X83590000Y-37554000D02*
X84840000Y-37554000D01*
X80260000Y-37554000D02*
X81510000Y-37554000D01*
X83590000Y-37594000D02*
X84860000Y-37594000D01*
X80240000Y-37594000D02*
X81510000Y-37594000D01*
X83590000Y-37634000D02*
X84879000Y-37634000D01*
X80221000Y-37634000D02*
X81510000Y-37634000D01*
X83590000Y-37674000D02*
X84898000Y-37674000D01*
X80202000Y-37674000D02*
X81510000Y-37674000D01*
X83590000Y-37714000D02*
X84915000Y-37714000D01*
X80185000Y-37714000D02*
X81510000Y-37714000D01*
X83590000Y-37754000D02*
X84932000Y-37754000D01*
X80168000Y-37754000D02*
X81510000Y-37754000D01*
X83590000Y-37794000D02*
X84948000Y-37794000D01*
X80152000Y-37794000D02*
X81510000Y-37794000D01*
X83590000Y-37834000D02*
X84964000Y-37834000D01*
X80136000Y-37834000D02*
X81510000Y-37834000D01*
X83590000Y-37874000D02*
X84978000Y-37874000D01*
X80122000Y-37874000D02*
X81510000Y-37874000D01*
X83590000Y-37914000D02*
X84992000Y-37914000D01*
X80108000Y-37914000D02*
X81510000Y-37914000D01*
X83590000Y-37954000D02*
X85005000Y-37954000D01*
X80095000Y-37954000D02*
X81510000Y-37954000D01*
X83590000Y-37994000D02*
X85018000Y-37994000D01*
X80082000Y-37994000D02*
X81510000Y-37994000D01*
X83590000Y-38034000D02*
X85030000Y-38034000D01*
X80070000Y-38034000D02*
X81510000Y-38034000D01*
X83590000Y-38075000D02*
X85041000Y-38075000D01*
X80059000Y-38075000D02*
X81510000Y-38075000D01*
X83590000Y-38115000D02*
X85051000Y-38115000D01*
X80049000Y-38115000D02*
X81510000Y-38115000D01*
X83590000Y-38155000D02*
X85061000Y-38155000D01*
X80039000Y-38155000D02*
X81510000Y-38155000D01*
X83590000Y-38195000D02*
X85070000Y-38195000D01*
X80030000Y-38195000D02*
X81510000Y-38195000D01*
X83590000Y-38235000D02*
X85078000Y-38235000D01*
X80022000Y-38235000D02*
X81510000Y-38235000D01*
X83590000Y-38275000D02*
X85086000Y-38275000D01*
X80014000Y-38275000D02*
X81510000Y-38275000D01*
X83590000Y-38315000D02*
X85093000Y-38315000D01*
X80007000Y-38315000D02*
X81510000Y-38315000D01*
X83590000Y-38355000D02*
X85100000Y-38355000D01*
X80000000Y-38355000D02*
X81510000Y-38355000D01*
X83590000Y-38395000D02*
X85106000Y-38395000D01*
X79994000Y-38395000D02*
X81510000Y-38395000D01*
X83590000Y-38435000D02*
X85111000Y-38435000D01*
X79989000Y-38435000D02*
X81510000Y-38435000D01*
X83590000Y-38475000D02*
X85115000Y-38475000D01*
X79985000Y-38475000D02*
X81510000Y-38475000D01*
X83590000Y-38515000D02*
X85119000Y-38515000D01*
X79981000Y-38515000D02*
X81510000Y-38515000D01*
X79977000Y-38555000D02*
X85123000Y-38555000D01*
X79974000Y-38595000D02*
X85126000Y-38595000D01*
X79972000Y-38635000D02*
X85128000Y-38635000D01*
X79971000Y-38675000D02*
X85129000Y-38675000D01*
X79970000Y-38715000D02*
X85130000Y-38715000D01*
X79970000Y-38755000D02*
X85130000Y-38755000D01*
X85170000Y-38755000D02*
G75*
G03X85170000Y-38755000I-2620000J0D01*
G01*
G04 #@! TO.C,C7*
X81180000Y-47217000D02*
X81180000Y-41977000D01*
X83920000Y-47217000D02*
X83920000Y-41977000D01*
X81180000Y-47217000D02*
X83920000Y-47217000D01*
X81180000Y-41977000D02*
X83920000Y-41977000D01*
G04 #@! TO.C,C8*
X98960000Y-37786000D02*
X101700000Y-37786000D01*
X98960000Y-43026000D02*
X101700000Y-43026000D01*
X101700000Y-43026000D02*
X101700000Y-37786000D01*
X98960000Y-43026000D02*
X98960000Y-37786000D01*
G04 #@! TO.C,D1*
X97209000Y-80807000D02*
X100149000Y-80807000D01*
X97209000Y-80567000D02*
X100149000Y-80567000D01*
X97209000Y-80687000D02*
X100149000Y-80687000D01*
X98679000Y-75127000D02*
X98679000Y-76147000D01*
X98679000Y-82607000D02*
X98679000Y-81587000D01*
X97209000Y-76147000D02*
X97209000Y-81587000D01*
X100149000Y-76147000D02*
X97209000Y-76147000D01*
X100149000Y-81587000D02*
X100149000Y-76147000D01*
X97209000Y-81587000D02*
X100149000Y-81587000D01*
G04 #@! TO.C,D2*
X82985000Y-81460000D02*
X85925000Y-81460000D01*
X85925000Y-81460000D02*
X85925000Y-76020000D01*
X85925000Y-76020000D02*
X82985000Y-76020000D01*
X82985000Y-76020000D02*
X82985000Y-81460000D01*
X84455000Y-82480000D02*
X84455000Y-81460000D01*
X84455000Y-75000000D02*
X84455000Y-76020000D01*
X82985000Y-80560000D02*
X85925000Y-80560000D01*
X82985000Y-80440000D02*
X85925000Y-80440000D01*
X82985000Y-80680000D02*
X85925000Y-80680000D01*
G04 #@! TO.C,D4*
X74476000Y-46154000D02*
X77416000Y-46154000D01*
X77416000Y-46154000D02*
X77416000Y-40714000D01*
X77416000Y-40714000D02*
X74476000Y-40714000D01*
X74476000Y-40714000D02*
X74476000Y-46154000D01*
X75946000Y-47174000D02*
X75946000Y-46154000D01*
X75946000Y-39694000D02*
X75946000Y-40714000D01*
X74476000Y-45254000D02*
X77416000Y-45254000D01*
X74476000Y-45134000D02*
X77416000Y-45134000D01*
X74476000Y-45374000D02*
X77416000Y-45374000D01*
G04 #@! TO.C,D5*
X106099000Y-45247000D02*
X109039000Y-45247000D01*
X106099000Y-45007000D02*
X109039000Y-45007000D01*
X106099000Y-45127000D02*
X109039000Y-45127000D01*
X107569000Y-39567000D02*
X107569000Y-40587000D01*
X107569000Y-47047000D02*
X107569000Y-46027000D01*
X106099000Y-40587000D02*
X106099000Y-46027000D01*
X109039000Y-40587000D02*
X106099000Y-40587000D01*
X109039000Y-46027000D02*
X109039000Y-40587000D01*
X106099000Y-46027000D02*
X109039000Y-46027000D01*
D11*
G04 #@! TO.C,J3*
X122682000Y-82169000D02*
X122682000Y-92329000D01*
X122682000Y-92329000D02*
X112268000Y-92329000D01*
X112268000Y-92329000D02*
X112268000Y-82169000D01*
X112268000Y-82169000D02*
X122682000Y-82169000D01*
X120299607Y-87249000D02*
G75*
G03X120299607Y-87249000I-3967607J0D01*
G01*
X118110000Y-87249000D02*
G75*
G03X118110000Y-87249000I-1778000J0D01*
G01*
G04 #@! TO.C,J4*
X68707000Y-76835000D02*
G75*
G03X68707000Y-76835000I-1778000J0D01*
G01*
X70896607Y-76835000D02*
G75*
G03X70896607Y-76835000I-3967607J0D01*
G01*
X70993000Y-81915000D02*
X60579000Y-81915000D01*
X70993000Y-71755000D02*
X70993000Y-81915000D01*
X60579000Y-71755000D02*
X70993000Y-71755000D01*
X60579000Y-81915000D02*
X60579000Y-71755000D01*
G04 #@! TO.C,J5*
X68707000Y-66421000D02*
G75*
G03X68707000Y-66421000I-1778000J0D01*
G01*
X70896607Y-66421000D02*
G75*
G03X70896607Y-66421000I-3967607J0D01*
G01*
X70993000Y-71501000D02*
X60579000Y-71501000D01*
X70993000Y-61341000D02*
X70993000Y-71501000D01*
X60579000Y-61341000D02*
X70993000Y-61341000D01*
X60579000Y-71501000D02*
X60579000Y-61341000D01*
G04 #@! TO.C,J6*
X60579000Y-92329000D02*
X60579000Y-82169000D01*
X60579000Y-82169000D02*
X70993000Y-82169000D01*
X70993000Y-82169000D02*
X70993000Y-92329000D01*
X70993000Y-92329000D02*
X60579000Y-92329000D01*
X70896607Y-87249000D02*
G75*
G03X70896607Y-87249000I-3967607J0D01*
G01*
X68707000Y-87249000D02*
G75*
G03X68707000Y-87249000I-1778000J0D01*
G01*
D10*
G04 #@! TO.C,J8*
X93913000Y-36262000D02*
X88713000Y-36262000D01*
X93913000Y-46482000D02*
X93913000Y-36262000D01*
X88713000Y-49082000D02*
X88713000Y-36262000D01*
X93913000Y-46482000D02*
X91313000Y-46482000D01*
X91313000Y-46482000D02*
X91313000Y-49082000D01*
X91313000Y-49082000D02*
X88713000Y-49082000D01*
X93913000Y-47752000D02*
X93913000Y-49082000D01*
X93913000Y-49082000D02*
X92583000Y-49082000D01*
G04 #@! TO.C,L1*
X85521000Y-45442000D02*
X87961000Y-45442000D01*
X87961000Y-45442000D02*
X87961000Y-39902000D01*
X87961000Y-39902000D02*
X85521000Y-39902000D01*
X85521000Y-39902000D02*
X85521000Y-45442000D01*
X86741000Y-46712000D02*
X86741000Y-45442000D01*
X86741000Y-38632000D02*
X86741000Y-39902000D01*
G04 #@! TO.C,L2*
X95885000Y-46712000D02*
X95885000Y-45442000D01*
X95885000Y-38632000D02*
X95885000Y-39902000D01*
X97105000Y-45442000D02*
X97105000Y-39902000D01*
X94665000Y-45442000D02*
X97105000Y-45442000D01*
X94665000Y-39902000D02*
X94665000Y-45442000D01*
X97105000Y-39902000D02*
X94665000Y-39902000D01*
G04 #@! TO.C,Q1*
X104924000Y-72572000D02*
X101324000Y-72572000D01*
X104962478Y-72583522D02*
G75*
G02X103124000Y-77022000I-1838478J-1838478D01*
G01*
X101285522Y-72583522D02*
G75*
G03X103124000Y-77022000I1838478J-1838478D01*
G01*
G04 #@! TO.C,Q2*
X78171522Y-72456522D02*
G75*
G03X80010000Y-76895000I1838478J-1838478D01*
G01*
X81848478Y-72456522D02*
G75*
G02X80010000Y-76895000I-1838478J-1838478D01*
G01*
X81810000Y-72445000D02*
X78210000Y-72445000D01*
G04 #@! TO.C,R1*
X103974772Y-80148773D02*
X100534772Y-80148773D01*
X100534772Y-80148773D02*
X100534772Y-89388773D01*
X100534772Y-89388773D02*
X103974772Y-89388773D01*
X103974772Y-89388773D02*
X103974772Y-80148773D01*
X102254772Y-79458773D02*
X102254772Y-80148773D01*
X102254772Y-90078773D02*
X102254772Y-89388773D01*
G04 #@! TO.C,R2*
X106191772Y-90078773D02*
X106191772Y-89388773D01*
X106191772Y-79458773D02*
X106191772Y-80148773D01*
X107911772Y-89388773D02*
X107911772Y-80148773D01*
X104471772Y-89388773D02*
X107911772Y-89388773D01*
X104471772Y-80148773D02*
X104471772Y-89388773D01*
X107911772Y-80148773D02*
X104471772Y-80148773D01*
G04 #@! TO.C,R3*
X83233000Y-57219000D02*
X83233000Y-53779000D01*
X83233000Y-53779000D02*
X73993000Y-53779000D01*
X73993000Y-53779000D02*
X73993000Y-57219000D01*
X73993000Y-57219000D02*
X83233000Y-57219000D01*
X83923000Y-55499000D02*
X83233000Y-55499000D01*
X73303000Y-55499000D02*
X73993000Y-55499000D01*
G04 #@! TO.C,R4*
X73303000Y-59182000D02*
X73993000Y-59182000D01*
X83923000Y-59182000D02*
X83233000Y-59182000D01*
X73993000Y-60902000D02*
X83233000Y-60902000D01*
X73993000Y-57462000D02*
X73993000Y-60902000D01*
X83233000Y-57462000D02*
X73993000Y-57462000D01*
X83233000Y-60902000D02*
X83233000Y-57462000D01*
G04 #@! TO.C,R5*
X73993000Y-61145000D02*
X73993000Y-64585000D01*
X73993000Y-64585000D02*
X83233000Y-64585000D01*
X83233000Y-64585000D02*
X83233000Y-61145000D01*
X83233000Y-61145000D02*
X73993000Y-61145000D01*
X73303000Y-62865000D02*
X73993000Y-62865000D01*
X83923000Y-62865000D02*
X83233000Y-62865000D01*
G04 #@! TO.C,R6*
X73993000Y-64828000D02*
X73993000Y-68268000D01*
X73993000Y-68268000D02*
X83233000Y-68268000D01*
X83233000Y-68268000D02*
X83233000Y-64828000D01*
X83233000Y-64828000D02*
X73993000Y-64828000D01*
X73303000Y-66548000D02*
X73993000Y-66548000D01*
X83923000Y-66548000D02*
X83233000Y-66548000D01*
G04 #@! TO.C,R7*
X73993000Y-68638000D02*
X73993000Y-72078000D01*
X73993000Y-72078000D02*
X83233000Y-72078000D01*
X83233000Y-72078000D02*
X83233000Y-68638000D01*
X83233000Y-68638000D02*
X73993000Y-68638000D01*
X73303000Y-70358000D02*
X73993000Y-70358000D01*
X83923000Y-70358000D02*
X83233000Y-70358000D01*
G04 #@! TO.C,R8*
X83923000Y-51816000D02*
X83233000Y-51816000D01*
X73303000Y-51816000D02*
X73993000Y-51816000D01*
X83233000Y-50096000D02*
X73993000Y-50096000D01*
X83233000Y-53536000D02*
X83233000Y-50096000D01*
X73993000Y-53536000D02*
X83233000Y-53536000D01*
X73993000Y-50096000D02*
X73993000Y-53536000D01*
G04 #@! TO.C,R9*
X80899000Y-90019000D02*
X80899000Y-89329000D01*
X80899000Y-79399000D02*
X80899000Y-80089000D01*
X82619000Y-89329000D02*
X82619000Y-80089000D01*
X79179000Y-89329000D02*
X82619000Y-89329000D01*
X79179000Y-80089000D02*
X79179000Y-89329000D01*
X82619000Y-80089000D02*
X79179000Y-80089000D01*
G04 #@! TO.C,R10*
X78809000Y-80089000D02*
X75369000Y-80089000D01*
X75369000Y-80089000D02*
X75369000Y-89329000D01*
X75369000Y-89329000D02*
X78809000Y-89329000D01*
X78809000Y-89329000D02*
X78809000Y-80089000D01*
X77089000Y-79399000D02*
X77089000Y-80089000D01*
X77089000Y-90019000D02*
X77089000Y-89329000D01*
G04 #@! TO.C,R11*
X109958000Y-55499000D02*
X109268000Y-55499000D01*
X99338000Y-55499000D02*
X100028000Y-55499000D01*
X109268000Y-53779000D02*
X100028000Y-53779000D01*
X109268000Y-57219000D02*
X109268000Y-53779000D01*
X100028000Y-57219000D02*
X109268000Y-57219000D01*
X100028000Y-53779000D02*
X100028000Y-57219000D01*
G04 #@! TO.C,R12*
X100028000Y-61272000D02*
X100028000Y-64712000D01*
X100028000Y-64712000D02*
X109268000Y-64712000D01*
X109268000Y-64712000D02*
X109268000Y-61272000D01*
X109268000Y-61272000D02*
X100028000Y-61272000D01*
X99338000Y-62992000D02*
X100028000Y-62992000D01*
X109958000Y-62992000D02*
X109268000Y-62992000D01*
G04 #@! TO.C,R13*
X99338000Y-59182000D02*
X100028000Y-59182000D01*
X109958000Y-59182000D02*
X109268000Y-59182000D01*
X100028000Y-60902000D02*
X109268000Y-60902000D01*
X100028000Y-57462000D02*
X100028000Y-60902000D01*
X109268000Y-57462000D02*
X100028000Y-57462000D01*
X109268000Y-60902000D02*
X109268000Y-57462000D01*
G04 #@! TO.C,R14*
X99338000Y-66802000D02*
X100028000Y-66802000D01*
X109958000Y-66802000D02*
X109268000Y-66802000D01*
X100028000Y-68522000D02*
X109268000Y-68522000D01*
X100028000Y-65082000D02*
X100028000Y-68522000D01*
X109268000Y-65082000D02*
X100028000Y-65082000D01*
X109268000Y-68522000D02*
X109268000Y-65082000D01*
G04 #@! TO.C,R15*
X109268000Y-72205000D02*
X109268000Y-68765000D01*
X109268000Y-68765000D02*
X100028000Y-68765000D01*
X100028000Y-68765000D02*
X100028000Y-72205000D01*
X100028000Y-72205000D02*
X109268000Y-72205000D01*
X109958000Y-70485000D02*
X109268000Y-70485000D01*
X99338000Y-70485000D02*
X100028000Y-70485000D01*
G04 #@! TO.C,R16*
X99338000Y-51689000D02*
X100028000Y-51689000D01*
X109958000Y-51689000D02*
X109268000Y-51689000D01*
X100028000Y-53409000D02*
X109268000Y-53409000D01*
X100028000Y-49969000D02*
X100028000Y-53409000D01*
X109268000Y-49969000D02*
X100028000Y-49969000D01*
X109268000Y-53409000D02*
X109268000Y-49969000D01*
G04 #@! TO.C,RV1*
X103482000Y-106719000D02*
X93542000Y-106719000D01*
X95142000Y-94479000D02*
X93542000Y-94479000D01*
X97641000Y-94479000D02*
X96882000Y-94479000D01*
X100141000Y-94479000D02*
X99382000Y-94479000D01*
X103482000Y-94479000D02*
X101883000Y-94479000D01*
X93542000Y-102854000D02*
X93542000Y-106719000D01*
X93542000Y-94479000D02*
X93542000Y-98344000D01*
X103482000Y-102854000D02*
X103482000Y-106719000D01*
X103482000Y-94479000D02*
X103482000Y-98344000D01*
G04 #@! TO.C,RV2*
X59459000Y-42379000D02*
X69399000Y-42379000D01*
X67799000Y-54619000D02*
X69399000Y-54619000D01*
X65300000Y-54619000D02*
X66059000Y-54619000D01*
X62800000Y-54619000D02*
X63559000Y-54619000D01*
X59459000Y-54619000D02*
X61058000Y-54619000D01*
X69399000Y-46244000D02*
X69399000Y-42379000D01*
X69399000Y-54619000D02*
X69399000Y-50754000D01*
X59459000Y-46244000D02*
X59459000Y-42379000D01*
X59459000Y-54619000D02*
X59459000Y-50754000D01*
G04 #@! TO.C,RV4*
X89639000Y-106719000D02*
X79699000Y-106719000D01*
X81299000Y-94479000D02*
X79699000Y-94479000D01*
X83798000Y-94479000D02*
X83039000Y-94479000D01*
X86298000Y-94479000D02*
X85539000Y-94479000D01*
X89639000Y-94479000D02*
X88040000Y-94479000D01*
X79699000Y-102854000D02*
X79699000Y-106719000D01*
X79699000Y-94479000D02*
X79699000Y-98344000D01*
X89639000Y-102854000D02*
X89639000Y-106719000D01*
X89639000Y-94479000D02*
X89639000Y-98344000D01*
G04 #@! TO.C,RV5*
X113815000Y-54619000D02*
X113815000Y-50754000D01*
X113815000Y-46244000D02*
X113815000Y-42379000D01*
X123755000Y-54619000D02*
X123755000Y-50754000D01*
X123755000Y-46244000D02*
X123755000Y-42379000D01*
X113815000Y-54619000D02*
X115414000Y-54619000D01*
X117156000Y-54619000D02*
X117915000Y-54619000D01*
X119656000Y-54619000D02*
X120415000Y-54619000D01*
X122155000Y-54619000D02*
X123755000Y-54619000D01*
X113815000Y-42379000D02*
X123755000Y-42379000D01*
G04 #@! TO.C,U1*
X92618001Y-73669001D02*
G75*
G02X90618001Y-73669001I-1000000J0D01*
G01*
X90618001Y-73669001D02*
X88968001Y-73669001D01*
X88968001Y-73669001D02*
X88968001Y-91569001D01*
X88968001Y-91569001D02*
X94268001Y-91569001D01*
X94268001Y-91569001D02*
X94268001Y-73669001D01*
X94268001Y-73669001D02*
X92618001Y-73669001D01*
X86478001Y-73609001D02*
X86478001Y-91629001D01*
X86478001Y-91629001D02*
X96758001Y-91629001D01*
X96758001Y-91629001D02*
X96758001Y-73609001D01*
X96758001Y-73609001D02*
X86478001Y-73609001D01*
G04 #@! TO.C,U2*
X92618001Y-52619001D02*
G75*
G02X90618001Y-52619001I-1000000J0D01*
G01*
X90618001Y-52619001D02*
X88968001Y-52619001D01*
X88968001Y-52619001D02*
X88968001Y-73059001D01*
X88968001Y-73059001D02*
X94268001Y-73059001D01*
X94268001Y-73059001D02*
X94268001Y-52619001D01*
X94268001Y-52619001D02*
X92618001Y-52619001D01*
X86478001Y-52559001D02*
X86478001Y-73119001D01*
X86478001Y-73119001D02*
X96758001Y-73119001D01*
X96758001Y-73119001D02*
X96758001Y-52559001D01*
X96758001Y-52559001D02*
X86478001Y-52559001D01*
G04 #@! TO.C,RV6*
D11*
X79262380Y-100244238D02*
X78786190Y-100577571D01*
X79262380Y-100815666D02*
X78262380Y-100815666D01*
X78262380Y-100434714D01*
X78310000Y-100339476D01*
X78357619Y-100291857D01*
X78452857Y-100244238D01*
X78595714Y-100244238D01*
X78690952Y-100291857D01*
X78738571Y-100339476D01*
X78786190Y-100434714D01*
X78786190Y-100815666D01*
X78262380Y-99958523D02*
X79262380Y-99625190D01*
X78262380Y-99291857D01*
X78262380Y-98529952D02*
X78262380Y-98720428D01*
X78310000Y-98815666D01*
X78357619Y-98863285D01*
X78500476Y-98958523D01*
X78690952Y-99006142D01*
X79071904Y-99006142D01*
X79167142Y-98958523D01*
X79214761Y-98910904D01*
X79262380Y-98815666D01*
X79262380Y-98625190D01*
X79214761Y-98529952D01*
X79167142Y-98482333D01*
X79071904Y-98434714D01*
X78833809Y-98434714D01*
X78738571Y-98482333D01*
X78690952Y-98529952D01*
X78643333Y-98625190D01*
X78643333Y-98815666D01*
X78690952Y-98910904D01*
X78738571Y-98958523D01*
X78833809Y-99006142D01*
G04 #@! TO.C,RV3*
X120203380Y-100244238D02*
X119727190Y-100577571D01*
X120203380Y-100815666D02*
X119203380Y-100815666D01*
X119203380Y-100434714D01*
X119251000Y-100339476D01*
X119298619Y-100291857D01*
X119393857Y-100244238D01*
X119536714Y-100244238D01*
X119631952Y-100291857D01*
X119679571Y-100339476D01*
X119727190Y-100434714D01*
X119727190Y-100815666D01*
X119203380Y-99958523D02*
X120203380Y-99625190D01*
X119203380Y-99291857D01*
X119203380Y-99053761D02*
X119203380Y-98434714D01*
X119584333Y-98768047D01*
X119584333Y-98625190D01*
X119631952Y-98529952D01*
X119679571Y-98482333D01*
X119774809Y-98434714D01*
X120012904Y-98434714D01*
X120108142Y-98482333D01*
X120155761Y-98529952D01*
X120203380Y-98625190D01*
X120203380Y-98910904D01*
X120155761Y-99006142D01*
X120108142Y-99053761D01*
G04 #@! TO.C,J1*
X123666380Y-77168333D02*
X124380666Y-77168333D01*
X124523523Y-77215952D01*
X124618761Y-77311190D01*
X124666380Y-77454047D01*
X124666380Y-77549285D01*
X124666380Y-76168333D02*
X124666380Y-76739761D01*
X124666380Y-76454047D02*
X123666380Y-76454047D01*
X123809238Y-76549285D01*
X123904476Y-76644523D01*
X123952095Y-76739761D01*
G04 #@! TO.C,J2*
X123666380Y-66754333D02*
X124380666Y-66754333D01*
X124523523Y-66801952D01*
X124618761Y-66897190D01*
X124666380Y-67040047D01*
X124666380Y-67135285D01*
X123761619Y-66325761D02*
X123714000Y-66278142D01*
X123666380Y-66182904D01*
X123666380Y-65944809D01*
X123714000Y-65849571D01*
X123761619Y-65801952D01*
X123856857Y-65754333D01*
X123952095Y-65754333D01*
X124094952Y-65801952D01*
X124666380Y-66373380D01*
X124666380Y-65754333D01*
G04 #@! TO.C,C5*
X96937142Y-46668666D02*
X96984761Y-46716285D01*
X97032380Y-46859142D01*
X97032380Y-46954380D01*
X96984761Y-47097238D01*
X96889523Y-47192476D01*
X96794285Y-47240095D01*
X96603809Y-47287714D01*
X96460952Y-47287714D01*
X96270476Y-47240095D01*
X96175238Y-47192476D01*
X96080000Y-47097238D01*
X96032380Y-46954380D01*
X96032380Y-46859142D01*
X96080000Y-46716285D01*
X96127619Y-46668666D01*
X96032380Y-45763904D02*
X96032380Y-46240095D01*
X96508571Y-46287714D01*
X96460952Y-46240095D01*
X96413333Y-46144857D01*
X96413333Y-45906761D01*
X96460952Y-45811523D01*
X96508571Y-45763904D01*
X96603809Y-45716285D01*
X96841904Y-45716285D01*
X96937142Y-45763904D01*
X96984761Y-45811523D01*
X97032380Y-45906761D01*
X97032380Y-46144857D01*
X96984761Y-46240095D01*
X96937142Y-46287714D01*
G04 #@! TO.C,C6*
X79157142Y-38921666D02*
X79204761Y-38969285D01*
X79252380Y-39112142D01*
X79252380Y-39207380D01*
X79204761Y-39350238D01*
X79109523Y-39445476D01*
X79014285Y-39493095D01*
X78823809Y-39540714D01*
X78680952Y-39540714D01*
X78490476Y-39493095D01*
X78395238Y-39445476D01*
X78300000Y-39350238D01*
X78252380Y-39207380D01*
X78252380Y-39112142D01*
X78300000Y-38969285D01*
X78347619Y-38921666D01*
X78252380Y-38064523D02*
X78252380Y-38255000D01*
X78300000Y-38350238D01*
X78347619Y-38397857D01*
X78490476Y-38493095D01*
X78680952Y-38540714D01*
X79061904Y-38540714D01*
X79157142Y-38493095D01*
X79204761Y-38445476D01*
X79252380Y-38350238D01*
X79252380Y-38159761D01*
X79204761Y-38064523D01*
X79157142Y-38016904D01*
X79061904Y-37969285D01*
X78823809Y-37969285D01*
X78728571Y-38016904D01*
X78680952Y-38064523D01*
X78633333Y-38159761D01*
X78633333Y-38350238D01*
X78680952Y-38445476D01*
X78728571Y-38493095D01*
X78823809Y-38540714D01*
G04 #@! TO.C,C7*
X80407142Y-44763666D02*
X80454761Y-44811285D01*
X80502380Y-44954142D01*
X80502380Y-45049380D01*
X80454761Y-45192238D01*
X80359523Y-45287476D01*
X80264285Y-45335095D01*
X80073809Y-45382714D01*
X79930952Y-45382714D01*
X79740476Y-45335095D01*
X79645238Y-45287476D01*
X79550000Y-45192238D01*
X79502380Y-45049380D01*
X79502380Y-44954142D01*
X79550000Y-44811285D01*
X79597619Y-44763666D01*
X79502380Y-44430333D02*
X79502380Y-43763666D01*
X80502380Y-44192238D01*
G04 #@! TO.C,C8*
X98187142Y-40572666D02*
X98234761Y-40620285D01*
X98282380Y-40763142D01*
X98282380Y-40858380D01*
X98234761Y-41001238D01*
X98139523Y-41096476D01*
X98044285Y-41144095D01*
X97853809Y-41191714D01*
X97710952Y-41191714D01*
X97520476Y-41144095D01*
X97425238Y-41096476D01*
X97330000Y-41001238D01*
X97282380Y-40858380D01*
X97282380Y-40763142D01*
X97330000Y-40620285D01*
X97377619Y-40572666D01*
X97710952Y-40001238D02*
X97663333Y-40096476D01*
X97615714Y-40144095D01*
X97520476Y-40191714D01*
X97472857Y-40191714D01*
X97377619Y-40144095D01*
X97330000Y-40096476D01*
X97282380Y-40001238D01*
X97282380Y-39810761D01*
X97330000Y-39715523D01*
X97377619Y-39667904D01*
X97472857Y-39620285D01*
X97520476Y-39620285D01*
X97615714Y-39667904D01*
X97663333Y-39715523D01*
X97710952Y-39810761D01*
X97710952Y-40001238D01*
X97758571Y-40096476D01*
X97806190Y-40144095D01*
X97901428Y-40191714D01*
X98091904Y-40191714D01*
X98187142Y-40144095D01*
X98234761Y-40096476D01*
X98282380Y-40001238D01*
X98282380Y-39810761D01*
X98234761Y-39715523D01*
X98187142Y-39667904D01*
X98091904Y-39620285D01*
X97901428Y-39620285D01*
X97806190Y-39667904D01*
X97758571Y-39715523D01*
X97710952Y-39810761D01*
G04 #@! TO.C,D1*
X96661380Y-79605095D02*
X95661380Y-79605095D01*
X95661380Y-79367000D01*
X95709000Y-79224142D01*
X95804238Y-79128904D01*
X95899476Y-79081285D01*
X96089952Y-79033666D01*
X96232809Y-79033666D01*
X96423285Y-79081285D01*
X96518523Y-79128904D01*
X96613761Y-79224142D01*
X96661380Y-79367000D01*
X96661380Y-79605095D01*
X96661380Y-78081285D02*
X96661380Y-78652714D01*
X96661380Y-78367000D02*
X95661380Y-78367000D01*
X95804238Y-78462238D01*
X95899476Y-78557476D01*
X95947095Y-78652714D01*
X97031380Y-84208904D02*
X96031380Y-84208904D01*
X97031380Y-83637476D02*
X96459952Y-84066047D01*
X96031380Y-83637476D02*
X96602809Y-84208904D01*
G04 #@! TO.C,D2*
X82437380Y-79478095D02*
X81437380Y-79478095D01*
X81437380Y-79240000D01*
X81485000Y-79097142D01*
X81580238Y-79001904D01*
X81675476Y-78954285D01*
X81865952Y-78906666D01*
X82008809Y-78906666D01*
X82199285Y-78954285D01*
X82294523Y-79001904D01*
X82389761Y-79097142D01*
X82437380Y-79240000D01*
X82437380Y-79478095D01*
X81532619Y-78525714D02*
X81485000Y-78478095D01*
X81437380Y-78382857D01*
X81437380Y-78144761D01*
X81485000Y-78049523D01*
X81532619Y-78001904D01*
X81627857Y-77954285D01*
X81723095Y-77954285D01*
X81865952Y-78001904D01*
X82437380Y-78573333D01*
X82437380Y-77954285D01*
X82807380Y-84081904D02*
X81807380Y-84081904D01*
X82807380Y-83510476D02*
X82235952Y-83939047D01*
X81807380Y-83510476D02*
X82378809Y-84081904D01*
G04 #@! TO.C,D4*
X73928380Y-44172095D02*
X72928380Y-44172095D01*
X72928380Y-43934000D01*
X72976000Y-43791142D01*
X73071238Y-43695904D01*
X73166476Y-43648285D01*
X73356952Y-43600666D01*
X73499809Y-43600666D01*
X73690285Y-43648285D01*
X73785523Y-43695904D01*
X73880761Y-43791142D01*
X73928380Y-43934000D01*
X73928380Y-44172095D01*
X73261714Y-42743523D02*
X73928380Y-42743523D01*
X72880761Y-42981619D02*
X73595047Y-43219714D01*
X73595047Y-42600666D01*
X74298380Y-48775904D02*
X73298380Y-48775904D01*
X74298380Y-48204476D02*
X73726952Y-48633047D01*
X73298380Y-48204476D02*
X73869809Y-48775904D01*
G04 #@! TO.C,D5*
X105551380Y-44045095D02*
X104551380Y-44045095D01*
X104551380Y-43807000D01*
X104599000Y-43664142D01*
X104694238Y-43568904D01*
X104789476Y-43521285D01*
X104979952Y-43473666D01*
X105122809Y-43473666D01*
X105313285Y-43521285D01*
X105408523Y-43568904D01*
X105503761Y-43664142D01*
X105551380Y-43807000D01*
X105551380Y-44045095D01*
X104551380Y-42568904D02*
X104551380Y-43045095D01*
X105027571Y-43092714D01*
X104979952Y-43045095D01*
X104932333Y-42949857D01*
X104932333Y-42711761D01*
X104979952Y-42616523D01*
X105027571Y-42568904D01*
X105122809Y-42521285D01*
X105360904Y-42521285D01*
X105456142Y-42568904D01*
X105503761Y-42616523D01*
X105551380Y-42711761D01*
X105551380Y-42949857D01*
X105503761Y-43045095D01*
X105456142Y-43092714D01*
X105921380Y-48648904D02*
X104921380Y-48648904D01*
X105921380Y-48077476D02*
X105349952Y-48506047D01*
X104921380Y-48077476D02*
X105492809Y-48648904D01*
G04 #@! TO.C,J3*
X123666380Y-87582333D02*
X124380666Y-87582333D01*
X124523523Y-87629952D01*
X124618761Y-87725190D01*
X124666380Y-87868047D01*
X124666380Y-87963285D01*
X123666380Y-87201380D02*
X123666380Y-86582333D01*
X124047333Y-86915666D01*
X124047333Y-86772809D01*
X124094952Y-86677571D01*
X124142571Y-86629952D01*
X124237809Y-86582333D01*
X124475904Y-86582333D01*
X124571142Y-86629952D01*
X124618761Y-86677571D01*
X124666380Y-86772809D01*
X124666380Y-87058523D01*
X124618761Y-87153761D01*
X124571142Y-87201380D01*
G04 #@! TO.C,J4*
X58499380Y-77168333D02*
X59213666Y-77168333D01*
X59356523Y-77215952D01*
X59451761Y-77311190D01*
X59499380Y-77454047D01*
X59499380Y-77549285D01*
X58832714Y-76263571D02*
X59499380Y-76263571D01*
X58451761Y-76501666D02*
X59166047Y-76739761D01*
X59166047Y-76120714D01*
G04 #@! TO.C,J5*
X58499380Y-66754333D02*
X59213666Y-66754333D01*
X59356523Y-66801952D01*
X59451761Y-66897190D01*
X59499380Y-67040047D01*
X59499380Y-67135285D01*
X58499380Y-65801952D02*
X58499380Y-66278142D01*
X58975571Y-66325761D01*
X58927952Y-66278142D01*
X58880333Y-66182904D01*
X58880333Y-65944809D01*
X58927952Y-65849571D01*
X58975571Y-65801952D01*
X59070809Y-65754333D01*
X59308904Y-65754333D01*
X59404142Y-65801952D01*
X59451761Y-65849571D01*
X59499380Y-65944809D01*
X59499380Y-66182904D01*
X59451761Y-66278142D01*
X59404142Y-66325761D01*
G04 #@! TO.C,J6*
X58499380Y-87582333D02*
X59213666Y-87582333D01*
X59356523Y-87629952D01*
X59451761Y-87725190D01*
X59499380Y-87868047D01*
X59499380Y-87963285D01*
X58499380Y-86677571D02*
X58499380Y-86868047D01*
X58547000Y-86963285D01*
X58594619Y-87010904D01*
X58737476Y-87106142D01*
X58927952Y-87153761D01*
X59308904Y-87153761D01*
X59404142Y-87106142D01*
X59451761Y-87058523D01*
X59499380Y-86963285D01*
X59499380Y-86772809D01*
X59451761Y-86677571D01*
X59404142Y-86629952D01*
X59308904Y-86582333D01*
X59070809Y-86582333D01*
X58975571Y-86629952D01*
X58927952Y-86677571D01*
X58880333Y-86772809D01*
X58880333Y-86963285D01*
X58927952Y-87058523D01*
X58975571Y-87106142D01*
X59070809Y-87153761D01*
G04 #@! TO.C,J8*
X90979666Y-49534380D02*
X90979666Y-50248666D01*
X90932047Y-50391523D01*
X90836809Y-50486761D01*
X90693952Y-50534380D01*
X90598714Y-50534380D01*
X91598714Y-49962952D02*
X91503476Y-49915333D01*
X91455857Y-49867714D01*
X91408238Y-49772476D01*
X91408238Y-49724857D01*
X91455857Y-49629619D01*
X91503476Y-49582000D01*
X91598714Y-49534380D01*
X91789190Y-49534380D01*
X91884428Y-49582000D01*
X91932047Y-49629619D01*
X91979666Y-49724857D01*
X91979666Y-49772476D01*
X91932047Y-49867714D01*
X91884428Y-49915333D01*
X91789190Y-49962952D01*
X91598714Y-49962952D01*
X91503476Y-50010571D01*
X91455857Y-50058190D01*
X91408238Y-50153428D01*
X91408238Y-50343904D01*
X91455857Y-50439142D01*
X91503476Y-50486761D01*
X91598714Y-50534380D01*
X91789190Y-50534380D01*
X91884428Y-50486761D01*
X91932047Y-50439142D01*
X91979666Y-50343904D01*
X91979666Y-50153428D01*
X91932047Y-50058190D01*
X91884428Y-50010571D01*
X91789190Y-49962952D01*
G04 #@! TO.C,L1*
X84973380Y-42838666D02*
X84973380Y-43314857D01*
X83973380Y-43314857D01*
X84973380Y-41981523D02*
X84973380Y-42552952D01*
X84973380Y-42267238D02*
X83973380Y-42267238D01*
X84116238Y-42362476D01*
X84211476Y-42457714D01*
X84259095Y-42552952D01*
G04 #@! TO.C,L2*
X98557380Y-42838666D02*
X98557380Y-43314857D01*
X97557380Y-43314857D01*
X97652619Y-42552952D02*
X97605000Y-42505333D01*
X97557380Y-42410095D01*
X97557380Y-42172000D01*
X97605000Y-42076761D01*
X97652619Y-42029142D01*
X97747857Y-41981523D01*
X97843095Y-41981523D01*
X97985952Y-42029142D01*
X98557380Y-42600571D01*
X98557380Y-41981523D01*
G04 #@! TO.C,Q1*
X103028761Y-78529619D02*
X102933523Y-78482000D01*
X102838285Y-78386761D01*
X102695428Y-78243904D01*
X102600190Y-78196285D01*
X102504952Y-78196285D01*
X102552571Y-78434380D02*
X102457333Y-78386761D01*
X102362095Y-78291523D01*
X102314476Y-78101047D01*
X102314476Y-77767714D01*
X102362095Y-77577238D01*
X102457333Y-77482000D01*
X102552571Y-77434380D01*
X102743047Y-77434380D01*
X102838285Y-77482000D01*
X102933523Y-77577238D01*
X102981142Y-77767714D01*
X102981142Y-78101047D01*
X102933523Y-78291523D01*
X102838285Y-78386761D01*
X102743047Y-78434380D01*
X102552571Y-78434380D01*
X103933523Y-78434380D02*
X103362095Y-78434380D01*
X103647809Y-78434380D02*
X103647809Y-77434380D01*
X103552571Y-77577238D01*
X103457333Y-77672476D01*
X103362095Y-77720095D01*
G04 #@! TO.C,Q2*
X79914761Y-78402619D02*
X79819523Y-78355000D01*
X79724285Y-78259761D01*
X79581428Y-78116904D01*
X79486190Y-78069285D01*
X79390952Y-78069285D01*
X79438571Y-78307380D02*
X79343333Y-78259761D01*
X79248095Y-78164523D01*
X79200476Y-77974047D01*
X79200476Y-77640714D01*
X79248095Y-77450238D01*
X79343333Y-77355000D01*
X79438571Y-77307380D01*
X79629047Y-77307380D01*
X79724285Y-77355000D01*
X79819523Y-77450238D01*
X79867142Y-77640714D01*
X79867142Y-77974047D01*
X79819523Y-78164523D01*
X79724285Y-78259761D01*
X79629047Y-78307380D01*
X79438571Y-78307380D01*
X80248095Y-77402619D02*
X80295714Y-77355000D01*
X80390952Y-77307380D01*
X80629047Y-77307380D01*
X80724285Y-77355000D01*
X80771904Y-77402619D01*
X80819523Y-77497857D01*
X80819523Y-77593095D01*
X80771904Y-77735952D01*
X80200476Y-78307380D01*
X80819523Y-78307380D01*
G04 #@! TO.C,R1*
X105427152Y-84935439D02*
X104950962Y-85268773D01*
X105427152Y-85506868D02*
X104427152Y-85506868D01*
X104427152Y-85125915D01*
X104474772Y-85030677D01*
X104522391Y-84983058D01*
X104617629Y-84935439D01*
X104760486Y-84935439D01*
X104855724Y-84983058D01*
X104903343Y-85030677D01*
X104950962Y-85125915D01*
X104950962Y-85506868D01*
X105427152Y-83983058D02*
X105427152Y-84554487D01*
X105427152Y-84268773D02*
X104427152Y-84268773D01*
X104570010Y-84364011D01*
X104665248Y-84459249D01*
X104712867Y-84554487D01*
G04 #@! TO.C,R2*
X109364152Y-84935439D02*
X108887962Y-85268773D01*
X109364152Y-85506868D02*
X108364152Y-85506868D01*
X108364152Y-85125915D01*
X108411772Y-85030677D01*
X108459391Y-84983058D01*
X108554629Y-84935439D01*
X108697486Y-84935439D01*
X108792724Y-84983058D01*
X108840343Y-85030677D01*
X108887962Y-85125915D01*
X108887962Y-85506868D01*
X108459391Y-84554487D02*
X108411772Y-84506868D01*
X108364152Y-84411630D01*
X108364152Y-84173534D01*
X108411772Y-84078296D01*
X108459391Y-84030677D01*
X108554629Y-83983058D01*
X108649867Y-83983058D01*
X108792724Y-84030677D01*
X109364152Y-84602106D01*
X109364152Y-83983058D01*
G04 #@! TO.C,R3*
X78446333Y-58671380D02*
X78113000Y-58195190D01*
X77874904Y-58671380D02*
X77874904Y-57671380D01*
X78255857Y-57671380D01*
X78351095Y-57719000D01*
X78398714Y-57766619D01*
X78446333Y-57861857D01*
X78446333Y-58004714D01*
X78398714Y-58099952D01*
X78351095Y-58147571D01*
X78255857Y-58195190D01*
X77874904Y-58195190D01*
X78779666Y-57671380D02*
X79398714Y-57671380D01*
X79065380Y-58052333D01*
X79208238Y-58052333D01*
X79303476Y-58099952D01*
X79351095Y-58147571D01*
X79398714Y-58242809D01*
X79398714Y-58480904D01*
X79351095Y-58576142D01*
X79303476Y-58623761D01*
X79208238Y-58671380D01*
X78922523Y-58671380D01*
X78827285Y-58623761D01*
X78779666Y-58576142D01*
G04 #@! TO.C,R4*
X78446333Y-62354380D02*
X78113000Y-61878190D01*
X77874904Y-62354380D02*
X77874904Y-61354380D01*
X78255857Y-61354380D01*
X78351095Y-61402000D01*
X78398714Y-61449619D01*
X78446333Y-61544857D01*
X78446333Y-61687714D01*
X78398714Y-61782952D01*
X78351095Y-61830571D01*
X78255857Y-61878190D01*
X77874904Y-61878190D01*
X79303476Y-61687714D02*
X79303476Y-62354380D01*
X79065380Y-61306761D02*
X78827285Y-62021047D01*
X79446333Y-62021047D01*
G04 #@! TO.C,R5*
X78446333Y-60597380D02*
X78113000Y-60121190D01*
X77874904Y-60597380D02*
X77874904Y-59597380D01*
X78255857Y-59597380D01*
X78351095Y-59645000D01*
X78398714Y-59692619D01*
X78446333Y-59787857D01*
X78446333Y-59930714D01*
X78398714Y-60025952D01*
X78351095Y-60073571D01*
X78255857Y-60121190D01*
X77874904Y-60121190D01*
X79351095Y-59597380D02*
X78874904Y-59597380D01*
X78827285Y-60073571D01*
X78874904Y-60025952D01*
X78970142Y-59978333D01*
X79208238Y-59978333D01*
X79303476Y-60025952D01*
X79351095Y-60073571D01*
X79398714Y-60168809D01*
X79398714Y-60406904D01*
X79351095Y-60502142D01*
X79303476Y-60549761D01*
X79208238Y-60597380D01*
X78970142Y-60597380D01*
X78874904Y-60549761D01*
X78827285Y-60502142D01*
G04 #@! TO.C,R6*
X78446333Y-64280380D02*
X78113000Y-63804190D01*
X77874904Y-64280380D02*
X77874904Y-63280380D01*
X78255857Y-63280380D01*
X78351095Y-63328000D01*
X78398714Y-63375619D01*
X78446333Y-63470857D01*
X78446333Y-63613714D01*
X78398714Y-63708952D01*
X78351095Y-63756571D01*
X78255857Y-63804190D01*
X77874904Y-63804190D01*
X79303476Y-63280380D02*
X79113000Y-63280380D01*
X79017761Y-63328000D01*
X78970142Y-63375619D01*
X78874904Y-63518476D01*
X78827285Y-63708952D01*
X78827285Y-64089904D01*
X78874904Y-64185142D01*
X78922523Y-64232761D01*
X79017761Y-64280380D01*
X79208238Y-64280380D01*
X79303476Y-64232761D01*
X79351095Y-64185142D01*
X79398714Y-64089904D01*
X79398714Y-63851809D01*
X79351095Y-63756571D01*
X79303476Y-63708952D01*
X79208238Y-63661333D01*
X79017761Y-63661333D01*
X78922523Y-63708952D01*
X78874904Y-63756571D01*
X78827285Y-63851809D01*
G04 #@! TO.C,R7*
X78446333Y-68090380D02*
X78113000Y-67614190D01*
X77874904Y-68090380D02*
X77874904Y-67090380D01*
X78255857Y-67090380D01*
X78351095Y-67138000D01*
X78398714Y-67185619D01*
X78446333Y-67280857D01*
X78446333Y-67423714D01*
X78398714Y-67518952D01*
X78351095Y-67566571D01*
X78255857Y-67614190D01*
X77874904Y-67614190D01*
X78779666Y-67090380D02*
X79446333Y-67090380D01*
X79017761Y-68090380D01*
G04 #@! TO.C,R8*
X78446333Y-49548380D02*
X78113000Y-49072190D01*
X77874904Y-49548380D02*
X77874904Y-48548380D01*
X78255857Y-48548380D01*
X78351095Y-48596000D01*
X78398714Y-48643619D01*
X78446333Y-48738857D01*
X78446333Y-48881714D01*
X78398714Y-48976952D01*
X78351095Y-49024571D01*
X78255857Y-49072190D01*
X77874904Y-49072190D01*
X79017761Y-48976952D02*
X78922523Y-48929333D01*
X78874904Y-48881714D01*
X78827285Y-48786476D01*
X78827285Y-48738857D01*
X78874904Y-48643619D01*
X78922523Y-48596000D01*
X79017761Y-48548380D01*
X79208238Y-48548380D01*
X79303476Y-48596000D01*
X79351095Y-48643619D01*
X79398714Y-48738857D01*
X79398714Y-48786476D01*
X79351095Y-48881714D01*
X79303476Y-48929333D01*
X79208238Y-48976952D01*
X79017761Y-48976952D01*
X78922523Y-49024571D01*
X78874904Y-49072190D01*
X78827285Y-49167428D01*
X78827285Y-49357904D01*
X78874904Y-49453142D01*
X78922523Y-49500761D01*
X79017761Y-49548380D01*
X79208238Y-49548380D01*
X79303476Y-49500761D01*
X79351095Y-49453142D01*
X79398714Y-49357904D01*
X79398714Y-49167428D01*
X79351095Y-49072190D01*
X79303476Y-49024571D01*
X79208238Y-48976952D01*
G04 #@! TO.C,R9*
X84071380Y-84875666D02*
X83595190Y-85209000D01*
X84071380Y-85447095D02*
X83071380Y-85447095D01*
X83071380Y-85066142D01*
X83119000Y-84970904D01*
X83166619Y-84923285D01*
X83261857Y-84875666D01*
X83404714Y-84875666D01*
X83499952Y-84923285D01*
X83547571Y-84970904D01*
X83595190Y-85066142D01*
X83595190Y-85447095D01*
X84071380Y-84399476D02*
X84071380Y-84209000D01*
X84023761Y-84113761D01*
X83976142Y-84066142D01*
X83833285Y-83970904D01*
X83642809Y-83923285D01*
X83261857Y-83923285D01*
X83166619Y-83970904D01*
X83119000Y-84018523D01*
X83071380Y-84113761D01*
X83071380Y-84304238D01*
X83119000Y-84399476D01*
X83166619Y-84447095D01*
X83261857Y-84494714D01*
X83499952Y-84494714D01*
X83595190Y-84447095D01*
X83642809Y-84399476D01*
X83690428Y-84304238D01*
X83690428Y-84113761D01*
X83642809Y-84018523D01*
X83595190Y-83970904D01*
X83499952Y-83923285D01*
G04 #@! TO.C,R10*
X80261380Y-85351857D02*
X79785190Y-85685190D01*
X80261380Y-85923285D02*
X79261380Y-85923285D01*
X79261380Y-85542333D01*
X79309000Y-85447095D01*
X79356619Y-85399476D01*
X79451857Y-85351857D01*
X79594714Y-85351857D01*
X79689952Y-85399476D01*
X79737571Y-85447095D01*
X79785190Y-85542333D01*
X79785190Y-85923285D01*
X80261380Y-84399476D02*
X80261380Y-84970904D01*
X80261380Y-84685190D02*
X79261380Y-84685190D01*
X79404238Y-84780428D01*
X79499476Y-84875666D01*
X79547095Y-84970904D01*
X79261380Y-83780428D02*
X79261380Y-83685190D01*
X79309000Y-83589952D01*
X79356619Y-83542333D01*
X79451857Y-83494714D01*
X79642333Y-83447095D01*
X79880428Y-83447095D01*
X80070904Y-83494714D01*
X80166142Y-83542333D01*
X80213761Y-83589952D01*
X80261380Y-83685190D01*
X80261380Y-83780428D01*
X80213761Y-83875666D01*
X80166142Y-83923285D01*
X80070904Y-83970904D01*
X79880428Y-84018523D01*
X79642333Y-84018523D01*
X79451857Y-83970904D01*
X79356619Y-83923285D01*
X79309000Y-83875666D01*
X79261380Y-83780428D01*
G04 #@! TO.C,R11*
X104005142Y-53231380D02*
X103671809Y-52755190D01*
X103433714Y-53231380D02*
X103433714Y-52231380D01*
X103814666Y-52231380D01*
X103909904Y-52279000D01*
X103957523Y-52326619D01*
X104005142Y-52421857D01*
X104005142Y-52564714D01*
X103957523Y-52659952D01*
X103909904Y-52707571D01*
X103814666Y-52755190D01*
X103433714Y-52755190D01*
X104957523Y-53231380D02*
X104386095Y-53231380D01*
X104671809Y-53231380D02*
X104671809Y-52231380D01*
X104576571Y-52374238D01*
X104481333Y-52469476D01*
X104386095Y-52517095D01*
X105909904Y-53231380D02*
X105338476Y-53231380D01*
X105624190Y-53231380D02*
X105624190Y-52231380D01*
X105528952Y-52374238D01*
X105433714Y-52469476D01*
X105338476Y-52517095D01*
G04 #@! TO.C,R12*
X104005142Y-60724380D02*
X103671809Y-60248190D01*
X103433714Y-60724380D02*
X103433714Y-59724380D01*
X103814666Y-59724380D01*
X103909904Y-59772000D01*
X103957523Y-59819619D01*
X104005142Y-59914857D01*
X104005142Y-60057714D01*
X103957523Y-60152952D01*
X103909904Y-60200571D01*
X103814666Y-60248190D01*
X103433714Y-60248190D01*
X104957523Y-60724380D02*
X104386095Y-60724380D01*
X104671809Y-60724380D02*
X104671809Y-59724380D01*
X104576571Y-59867238D01*
X104481333Y-59962476D01*
X104386095Y-60010095D01*
X105338476Y-59819619D02*
X105386095Y-59772000D01*
X105481333Y-59724380D01*
X105719428Y-59724380D01*
X105814666Y-59772000D01*
X105862285Y-59819619D01*
X105909904Y-59914857D01*
X105909904Y-60010095D01*
X105862285Y-60152952D01*
X105290857Y-60724380D01*
X105909904Y-60724380D01*
G04 #@! TO.C,R13*
X104005142Y-62354380D02*
X103671809Y-61878190D01*
X103433714Y-62354380D02*
X103433714Y-61354380D01*
X103814666Y-61354380D01*
X103909904Y-61402000D01*
X103957523Y-61449619D01*
X104005142Y-61544857D01*
X104005142Y-61687714D01*
X103957523Y-61782952D01*
X103909904Y-61830571D01*
X103814666Y-61878190D01*
X103433714Y-61878190D01*
X104957523Y-62354380D02*
X104386095Y-62354380D01*
X104671809Y-62354380D02*
X104671809Y-61354380D01*
X104576571Y-61497238D01*
X104481333Y-61592476D01*
X104386095Y-61640095D01*
X105290857Y-61354380D02*
X105909904Y-61354380D01*
X105576571Y-61735333D01*
X105719428Y-61735333D01*
X105814666Y-61782952D01*
X105862285Y-61830571D01*
X105909904Y-61925809D01*
X105909904Y-62163904D01*
X105862285Y-62259142D01*
X105814666Y-62306761D01*
X105719428Y-62354380D01*
X105433714Y-62354380D01*
X105338476Y-62306761D01*
X105290857Y-62259142D01*
G04 #@! TO.C,R14*
X104005142Y-69974380D02*
X103671809Y-69498190D01*
X103433714Y-69974380D02*
X103433714Y-68974380D01*
X103814666Y-68974380D01*
X103909904Y-69022000D01*
X103957523Y-69069619D01*
X104005142Y-69164857D01*
X104005142Y-69307714D01*
X103957523Y-69402952D01*
X103909904Y-69450571D01*
X103814666Y-69498190D01*
X103433714Y-69498190D01*
X104957523Y-69974380D02*
X104386095Y-69974380D01*
X104671809Y-69974380D02*
X104671809Y-68974380D01*
X104576571Y-69117238D01*
X104481333Y-69212476D01*
X104386095Y-69260095D01*
X105814666Y-69307714D02*
X105814666Y-69974380D01*
X105576571Y-68926761D02*
X105338476Y-69641047D01*
X105957523Y-69641047D01*
G04 #@! TO.C,R15*
X104005142Y-73657380D02*
X103671809Y-73181190D01*
X103433714Y-73657380D02*
X103433714Y-72657380D01*
X103814666Y-72657380D01*
X103909904Y-72705000D01*
X103957523Y-72752619D01*
X104005142Y-72847857D01*
X104005142Y-72990714D01*
X103957523Y-73085952D01*
X103909904Y-73133571D01*
X103814666Y-73181190D01*
X103433714Y-73181190D01*
X104957523Y-73657380D02*
X104386095Y-73657380D01*
X104671809Y-73657380D02*
X104671809Y-72657380D01*
X104576571Y-72800238D01*
X104481333Y-72895476D01*
X104386095Y-72943095D01*
X105862285Y-72657380D02*
X105386095Y-72657380D01*
X105338476Y-73133571D01*
X105386095Y-73085952D01*
X105481333Y-73038333D01*
X105719428Y-73038333D01*
X105814666Y-73085952D01*
X105862285Y-73133571D01*
X105909904Y-73228809D01*
X105909904Y-73466904D01*
X105862285Y-73562142D01*
X105814666Y-73609761D01*
X105719428Y-73657380D01*
X105481333Y-73657380D01*
X105386095Y-73609761D01*
X105338476Y-73562142D01*
G04 #@! TO.C,R16*
X104005142Y-54861380D02*
X103671809Y-54385190D01*
X103433714Y-54861380D02*
X103433714Y-53861380D01*
X103814666Y-53861380D01*
X103909904Y-53909000D01*
X103957523Y-53956619D01*
X104005142Y-54051857D01*
X104005142Y-54194714D01*
X103957523Y-54289952D01*
X103909904Y-54337571D01*
X103814666Y-54385190D01*
X103433714Y-54385190D01*
X104957523Y-54861380D02*
X104386095Y-54861380D01*
X104671809Y-54861380D02*
X104671809Y-53861380D01*
X104576571Y-54004238D01*
X104481333Y-54099476D01*
X104386095Y-54147095D01*
X105814666Y-53861380D02*
X105624190Y-53861380D01*
X105528952Y-53909000D01*
X105481333Y-53956619D01*
X105386095Y-54099476D01*
X105338476Y-54289952D01*
X105338476Y-54670904D01*
X105386095Y-54766142D01*
X105433714Y-54813761D01*
X105528952Y-54861380D01*
X105719428Y-54861380D01*
X105814666Y-54813761D01*
X105862285Y-54766142D01*
X105909904Y-54670904D01*
X105909904Y-54432809D01*
X105862285Y-54337571D01*
X105814666Y-54289952D01*
X105719428Y-54242333D01*
X105528952Y-54242333D01*
X105433714Y-54289952D01*
X105386095Y-54337571D01*
X105338476Y-54432809D01*
G04 #@! TO.C,RV1*
X106614380Y-100244238D02*
X106138190Y-100577571D01*
X106614380Y-100815666D02*
X105614380Y-100815666D01*
X105614380Y-100434714D01*
X105662000Y-100339476D01*
X105709619Y-100291857D01*
X105804857Y-100244238D01*
X105947714Y-100244238D01*
X106042952Y-100291857D01*
X106090571Y-100339476D01*
X106138190Y-100434714D01*
X106138190Y-100815666D01*
X105614380Y-99958523D02*
X106614380Y-99625190D01*
X105614380Y-99291857D01*
X106614380Y-98434714D02*
X106614380Y-99006142D01*
X106614380Y-98720428D02*
X105614380Y-98720428D01*
X105757238Y-98815666D01*
X105852476Y-98910904D01*
X105900095Y-99006142D01*
G04 #@! TO.C,RV2*
X57231380Y-50044238D02*
X56755190Y-50377571D01*
X57231380Y-50615666D02*
X56231380Y-50615666D01*
X56231380Y-50234714D01*
X56279000Y-50139476D01*
X56326619Y-50091857D01*
X56421857Y-50044238D01*
X56564714Y-50044238D01*
X56659952Y-50091857D01*
X56707571Y-50139476D01*
X56755190Y-50234714D01*
X56755190Y-50615666D01*
X56231380Y-49758523D02*
X57231380Y-49425190D01*
X56231380Y-49091857D01*
X56326619Y-48806142D02*
X56279000Y-48758523D01*
X56231380Y-48663285D01*
X56231380Y-48425190D01*
X56279000Y-48329952D01*
X56326619Y-48282333D01*
X56421857Y-48234714D01*
X56517095Y-48234714D01*
X56659952Y-48282333D01*
X57231380Y-48853761D01*
X57231380Y-48234714D01*
G04 #@! TO.C,RV4*
X92771380Y-100244238D02*
X92295190Y-100577571D01*
X92771380Y-100815666D02*
X91771380Y-100815666D01*
X91771380Y-100434714D01*
X91819000Y-100339476D01*
X91866619Y-100291857D01*
X91961857Y-100244238D01*
X92104714Y-100244238D01*
X92199952Y-100291857D01*
X92247571Y-100339476D01*
X92295190Y-100434714D01*
X92295190Y-100815666D01*
X91771380Y-99958523D02*
X92771380Y-99625190D01*
X91771380Y-99291857D01*
X92104714Y-98529952D02*
X92771380Y-98529952D01*
X91723761Y-98768047D02*
X92438047Y-99006142D01*
X92438047Y-98387095D01*
G04 #@! TO.C,RV5*
X111587380Y-50044238D02*
X111111190Y-50377571D01*
X111587380Y-50615666D02*
X110587380Y-50615666D01*
X110587380Y-50234714D01*
X110635000Y-50139476D01*
X110682619Y-50091857D01*
X110777857Y-50044238D01*
X110920714Y-50044238D01*
X111015952Y-50091857D01*
X111063571Y-50139476D01*
X111111190Y-50234714D01*
X111111190Y-50615666D01*
X110587380Y-49758523D02*
X111587380Y-49425190D01*
X110587380Y-49091857D01*
X110587380Y-48282333D02*
X110587380Y-48758523D01*
X111063571Y-48806142D01*
X111015952Y-48758523D01*
X110968333Y-48663285D01*
X110968333Y-48425190D01*
X111015952Y-48329952D01*
X111063571Y-48282333D01*
X111158809Y-48234714D01*
X111396904Y-48234714D01*
X111492142Y-48282333D01*
X111539761Y-48329952D01*
X111587380Y-48425190D01*
X111587380Y-48663285D01*
X111539761Y-48758523D01*
X111492142Y-48806142D01*
G04 #@! TO.C,U1*
X90856096Y-72121381D02*
X90856096Y-72930905D01*
X90903715Y-73026143D01*
X90951334Y-73073762D01*
X91046572Y-73121381D01*
X91237048Y-73121381D01*
X91332286Y-73073762D01*
X91379905Y-73026143D01*
X91427524Y-72930905D01*
X91427524Y-72121381D01*
X92427524Y-73121381D02*
X91856096Y-73121381D01*
X92141810Y-73121381D02*
X92141810Y-72121381D01*
X92046572Y-72264239D01*
X91951334Y-72359477D01*
X91856096Y-72407096D01*
G04 #@! TO.C,U2*
X90856096Y-51071381D02*
X90856096Y-51880905D01*
X90903715Y-51976143D01*
X90951334Y-52023762D01*
X91046572Y-52071381D01*
X91237048Y-52071381D01*
X91332286Y-52023762D01*
X91379905Y-51976143D01*
X91427524Y-51880905D01*
X91427524Y-51071381D01*
X91856096Y-51166620D02*
X91903715Y-51119001D01*
X91998953Y-51071381D01*
X92237048Y-51071381D01*
X92332286Y-51119001D01*
X92379905Y-51166620D01*
X92427524Y-51261858D01*
X92427524Y-51357096D01*
X92379905Y-51499953D01*
X91808477Y-52071381D01*
X92427524Y-52071381D01*
G04 #@! TD*
M02*
