G04 #@! TF.GenerationSoftware,KiCad,Pcbnew,(5.0.2)-1*
G04 #@! TF.CreationDate,2019-03-14T16:01:40+00:00*
G04 #@! TF.ProjectId,vca,7663612e-6b69-4636-9164-5f7063625858,rev?*
G04 #@! TF.SameCoordinates,Original*
G04 #@! TF.FileFunction,Copper,L1,Top*
G04 #@! TF.FilePolarity,Positive*
%FSLAX46Y46*%
G04 Gerber Fmt 4.6, Leading zero omitted, Abs format (unit mm)*
G04 Created by KiCad (PCBNEW (5.0.2)-1) date 14/03/2019 16:01:40*
%MOMM*%
%LPD*%
G01*
G04 APERTURE LIST*
G04 #@! TA.AperFunction,ComponentPad*
%ADD10C,1.800000*%
G04 #@! TD*
G04 #@! TA.AperFunction,WasherPad*
%ADD11C,4.000000*%
G04 #@! TD*
G04 #@! TA.AperFunction,ComponentPad*
%ADD12R,1.500000X2.500000*%
G04 #@! TD*
G04 #@! TA.AperFunction,ComponentPad*
%ADD13R,1.600000X1.600000*%
G04 #@! TD*
G04 #@! TA.AperFunction,ComponentPad*
%ADD14C,1.600000*%
G04 #@! TD*
G04 #@! TA.AperFunction,ComponentPad*
%ADD15O,2.200000X2.200000*%
G04 #@! TD*
G04 #@! TA.AperFunction,ComponentPad*
%ADD16R,2.200000X2.200000*%
G04 #@! TD*
G04 #@! TA.AperFunction,ComponentPad*
%ADD17R,1.700000X1.700000*%
G04 #@! TD*
G04 #@! TA.AperFunction,ComponentPad*
%ADD18O,1.700000X1.700000*%
G04 #@! TD*
G04 #@! TA.AperFunction,ComponentPad*
%ADD19O,1.600000X1.600000*%
G04 #@! TD*
G04 #@! TA.AperFunction,ComponentPad*
%ADD20O,1.050000X1.500000*%
G04 #@! TD*
G04 #@! TA.AperFunction,ComponentPad*
%ADD21R,1.050000X1.500000*%
G04 #@! TD*
G04 #@! TA.AperFunction,Conductor*
%ADD22C,0.250000*%
G04 #@! TD*
G04 APERTURE END LIST*
D10*
G04 #@! TO.P,RV6,3*
G04 #@! TO.N,Net-(J6-PadT)*
X73660000Y-93599000D03*
G04 #@! TO.P,RV6,2*
G04 #@! TO.N,Net-(RV6-Pad1)*
X71160000Y-93599000D03*
G04 #@! TO.P,RV6,1*
X68660000Y-93599000D03*
D11*
G04 #@! TO.P,RV6,*
G04 #@! TO.N,*
X75560000Y-100599000D03*
X66760000Y-100599000D03*
G04 #@! TD*
D10*
G04 #@! TO.P,RV3,3*
G04 #@! TO.N,Net-(J3-PadT)*
X114601000Y-93599000D03*
G04 #@! TO.P,RV3,2*
G04 #@! TO.N,Net-(RV3-Pad1)*
X112101000Y-93599000D03*
G04 #@! TO.P,RV3,1*
X109601000Y-93599000D03*
D11*
G04 #@! TO.P,RV3,*
G04 #@! TO.N,*
X116501000Y-100599000D03*
X107701000Y-100599000D03*
G04 #@! TD*
D12*
G04 #@! TO.P,J1,S*
G04 #@! TO.N,GND*
X113792000Y-76835000D03*
G04 #@! TO.P,J1,G*
G04 #@! TO.N,Net-(J1-PadG)*
X117856000Y-74295000D03*
G04 #@! TO.P,J1,R*
G04 #@! TO.N,Net-(J1-PadR)*
X116332000Y-79375000D03*
G04 #@! TO.P,J1,T*
G04 #@! TO.N,Net-(J1-PadT)*
X121412000Y-76835000D03*
G04 #@! TD*
G04 #@! TO.P,J2,T*
G04 #@! TO.N,Net-(J2-PadT)*
X121412000Y-66421000D03*
G04 #@! TO.P,J2,R*
G04 #@! TO.N,Net-(J2-PadR)*
X116332000Y-68961000D03*
G04 #@! TO.P,J2,G*
G04 #@! TO.N,Net-(J2-PadG)*
X117856000Y-63881000D03*
G04 #@! TO.P,J2,S*
G04 #@! TO.N,GND*
X113792000Y-66421000D03*
G04 #@! TD*
D13*
G04 #@! TO.P,C5,1*
G04 #@! TO.N,12V_*
X100330000Y-47752000D03*
D14*
G04 #@! TO.P,C5,2*
G04 #@! TO.N,GND*
X100330000Y-45252000D03*
G04 #@! TD*
G04 #@! TO.P,C6,2*
G04 #@! TO.N,-12V_*
X82550000Y-37505000D03*
D13*
G04 #@! TO.P,C6,1*
G04 #@! TO.N,GND*
X82550000Y-40005000D03*
G04 #@! TD*
D14*
G04 #@! TO.P,C7,1*
G04 #@! TO.N,12V_*
X82550000Y-45847000D03*
G04 #@! TO.P,C7,2*
G04 #@! TO.N,GND*
X82550000Y-43347000D03*
G04 #@! TD*
G04 #@! TO.P,C8,2*
G04 #@! TO.N,-12V_*
X100330000Y-39156000D03*
G04 #@! TO.P,C8,1*
G04 #@! TO.N,GND*
X100330000Y-41656000D03*
G04 #@! TD*
D15*
G04 #@! TO.P,D1,2*
G04 #@! TO.N,Net-(D1-Pad2)*
X98679000Y-73787000D03*
D16*
G04 #@! TO.P,D1,1*
G04 #@! TO.N,Net-(D1-Pad1)*
X98679000Y-83947000D03*
G04 #@! TD*
G04 #@! TO.P,D2,1*
G04 #@! TO.N,Net-(D2-Pad1)*
X84455000Y-83820000D03*
D15*
G04 #@! TO.P,D2,2*
G04 #@! TO.N,Net-(D2-Pad2)*
X84455000Y-73660000D03*
G04 #@! TD*
D16*
G04 #@! TO.P,D4,1*
G04 #@! TO.N,12V_*
X75946000Y-48514000D03*
D15*
G04 #@! TO.P,D4,2*
G04 #@! TO.N,GND*
X75946000Y-38354000D03*
G04 #@! TD*
G04 #@! TO.P,D5,2*
G04 #@! TO.N,-12V_*
X107569000Y-38227000D03*
D16*
G04 #@! TO.P,D5,1*
G04 #@! TO.N,GND*
X107569000Y-48387000D03*
G04 #@! TD*
D12*
G04 #@! TO.P,J3,T*
G04 #@! TO.N,Net-(J3-PadT)*
X121412000Y-87249000D03*
G04 #@! TO.P,J3,R*
G04 #@! TO.N,Net-(J3-PadR)*
X116332000Y-89789000D03*
G04 #@! TO.P,J3,G*
G04 #@! TO.N,Net-(J3-PadG)*
X117856000Y-84709000D03*
G04 #@! TO.P,J3,S*
G04 #@! TO.N,GND*
X113792000Y-87249000D03*
G04 #@! TD*
G04 #@! TO.P,J4,S*
G04 #@! TO.N,GND*
X69469000Y-76835000D03*
G04 #@! TO.P,J4,G*
G04 #@! TO.N,Net-(J4-PadG)*
X65405000Y-79375000D03*
G04 #@! TO.P,J4,R*
G04 #@! TO.N,Net-(J4-PadR)*
X66929000Y-74295000D03*
G04 #@! TO.P,J4,T*
G04 #@! TO.N,Net-(J4-PadT)*
X61849000Y-76835000D03*
G04 #@! TD*
G04 #@! TO.P,J5,S*
G04 #@! TO.N,GND*
X69469000Y-66421000D03*
G04 #@! TO.P,J5,G*
G04 #@! TO.N,Net-(J5-PadG)*
X65405000Y-68961000D03*
G04 #@! TO.P,J5,R*
G04 #@! TO.N,Net-(J5-PadR)*
X66929000Y-63881000D03*
G04 #@! TO.P,J5,T*
G04 #@! TO.N,Net-(J5-PadT)*
X61849000Y-66421000D03*
G04 #@! TD*
G04 #@! TO.P,J6,T*
G04 #@! TO.N,Net-(J6-PadT)*
X61849000Y-87249000D03*
G04 #@! TO.P,J6,R*
G04 #@! TO.N,Net-(J6-PadR)*
X66929000Y-84709000D03*
G04 #@! TO.P,J6,G*
G04 #@! TO.N,Net-(J6-PadG)*
X65405000Y-89789000D03*
G04 #@! TO.P,J6,S*
G04 #@! TO.N,GND*
X69469000Y-87249000D03*
G04 #@! TD*
D17*
G04 #@! TO.P,J8,1*
G04 #@! TO.N,12VC*
X92583000Y-47752000D03*
D18*
G04 #@! TO.P,J8,2*
X90043000Y-47752000D03*
G04 #@! TO.P,J8,3*
G04 #@! TO.N,GND*
X92583000Y-45212000D03*
G04 #@! TO.P,J8,4*
X90043000Y-45212000D03*
G04 #@! TO.P,J8,5*
X92583000Y-42672000D03*
G04 #@! TO.P,J8,6*
X90043000Y-42672000D03*
G04 #@! TO.P,J8,7*
X92583000Y-40132000D03*
G04 #@! TO.P,J8,8*
X90043000Y-40132000D03*
G04 #@! TO.P,J8,9*
G04 #@! TO.N,-12VC*
X92583000Y-37592000D03*
G04 #@! TO.P,J8,10*
X90043000Y-37592000D03*
G04 #@! TD*
D14*
G04 #@! TO.P,L1,1*
G04 #@! TO.N,12VC*
X86741000Y-47752000D03*
D19*
G04 #@! TO.P,L1,2*
G04 #@! TO.N,12V_*
X86741000Y-37592000D03*
G04 #@! TD*
G04 #@! TO.P,L2,2*
G04 #@! TO.N,-12V_*
X95885000Y-47752000D03*
D14*
G04 #@! TO.P,L2,1*
G04 #@! TO.N,-12VC*
X95885000Y-37592000D03*
G04 #@! TD*
D20*
G04 #@! TO.P,Q1,2*
G04 #@! TO.N,Net-(D1-Pad2)*
X103124000Y-74422000D03*
G04 #@! TO.P,Q1,3*
G04 #@! TO.N,Net-(Q1-Pad3)*
X101854000Y-74422000D03*
D21*
G04 #@! TO.P,Q1,1*
G04 #@! TO.N,Net-(D1-Pad1)*
X104394000Y-74422000D03*
G04 #@! TD*
G04 #@! TO.P,Q2,1*
G04 #@! TO.N,Net-(D2-Pad1)*
X81280000Y-74295000D03*
D20*
G04 #@! TO.P,Q2,3*
G04 #@! TO.N,Net-(Q2-Pad3)*
X78740000Y-74295000D03*
G04 #@! TO.P,Q2,2*
G04 #@! TO.N,Net-(D2-Pad2)*
X80010000Y-74295000D03*
G04 #@! TD*
D14*
G04 #@! TO.P,R1,1*
G04 #@! TO.N,Net-(D1-Pad1)*
X102254772Y-78418773D03*
D19*
G04 #@! TO.P,R1,2*
G04 #@! TO.N,Net-(J2-PadT)*
X102254772Y-91118773D03*
G04 #@! TD*
G04 #@! TO.P,R2,2*
G04 #@! TO.N,Net-(R2-Pad2)*
X106191772Y-91118773D03*
D14*
G04 #@! TO.P,R2,1*
G04 #@! TO.N,Net-(D1-Pad1)*
X106191772Y-78418773D03*
G04 #@! TD*
G04 #@! TO.P,R3,1*
G04 #@! TO.N,Net-(R3-Pad1)*
X84963000Y-55499000D03*
D19*
G04 #@! TO.P,R3,2*
G04 #@! TO.N,12V_*
X72263000Y-55499000D03*
G04 #@! TD*
G04 #@! TO.P,R4,2*
G04 #@! TO.N,Net-(J1-PadT)*
X72263000Y-59182000D03*
D14*
G04 #@! TO.P,R4,1*
G04 #@! TO.N,Net-(R4-Pad1)*
X84963000Y-59182000D03*
G04 #@! TD*
G04 #@! TO.P,R5,1*
G04 #@! TO.N,GND*
X72263000Y-62865000D03*
D19*
G04 #@! TO.P,R5,2*
G04 #@! TO.N,Net-(R4-Pad1)*
X84963000Y-62865000D03*
G04 #@! TD*
D14*
G04 #@! TO.P,R6,1*
G04 #@! TO.N,Net-(R6-Pad1)*
X72263000Y-66548000D03*
D19*
G04 #@! TO.P,R6,2*
G04 #@! TO.N,Net-(R6-Pad2)*
X84963000Y-66548000D03*
G04 #@! TD*
D14*
G04 #@! TO.P,R7,1*
G04 #@! TO.N,GND*
X72263000Y-70358000D03*
D19*
G04 #@! TO.P,R7,2*
G04 #@! TO.N,Net-(R6-Pad2)*
X84963000Y-70358000D03*
G04 #@! TD*
G04 #@! TO.P,R8,2*
G04 #@! TO.N,Net-(R8-Pad2)*
X84963000Y-51816000D03*
D14*
G04 #@! TO.P,R8,1*
G04 #@! TO.N,Net-(Q1-Pad3)*
X72263000Y-51816000D03*
G04 #@! TD*
D19*
G04 #@! TO.P,R9,2*
G04 #@! TO.N,Net-(J5-PadT)*
X80899000Y-91059000D03*
D14*
G04 #@! TO.P,R9,1*
G04 #@! TO.N,Net-(D2-Pad1)*
X80899000Y-78359000D03*
G04 #@! TD*
G04 #@! TO.P,R10,1*
G04 #@! TO.N,Net-(D2-Pad1)*
X77089000Y-78359000D03*
D19*
G04 #@! TO.P,R10,2*
G04 #@! TO.N,Net-(R10-Pad2)*
X77089000Y-91059000D03*
G04 #@! TD*
G04 #@! TO.P,R11,2*
G04 #@! TO.N,12V_*
X110998000Y-55499000D03*
D14*
G04 #@! TO.P,R11,1*
G04 #@! TO.N,Net-(R11-Pad1)*
X98298000Y-55499000D03*
G04 #@! TD*
G04 #@! TO.P,R12,1*
G04 #@! TO.N,Net-(R12-Pad1)*
X98298000Y-62992000D03*
D19*
G04 #@! TO.P,R12,2*
G04 #@! TO.N,Net-(J4-PadT)*
X110998000Y-62992000D03*
G04 #@! TD*
G04 #@! TO.P,R13,2*
G04 #@! TO.N,Net-(R12-Pad1)*
X98298000Y-59182000D03*
D14*
G04 #@! TO.P,R13,1*
G04 #@! TO.N,GND*
X110998000Y-59182000D03*
G04 #@! TD*
D19*
G04 #@! TO.P,R14,2*
G04 #@! TO.N,Net-(R14-Pad2)*
X98298000Y-66802000D03*
D14*
G04 #@! TO.P,R14,1*
G04 #@! TO.N,Net-(R14-Pad1)*
X110998000Y-66802000D03*
G04 #@! TD*
G04 #@! TO.P,R15,1*
G04 #@! TO.N,GND*
X110998000Y-70485000D03*
D19*
G04 #@! TO.P,R15,2*
G04 #@! TO.N,Net-(R14-Pad2)*
X98298000Y-70485000D03*
G04 #@! TD*
G04 #@! TO.P,R16,2*
G04 #@! TO.N,Net-(R16-Pad2)*
X98298000Y-51689000D03*
D14*
G04 #@! TO.P,R16,1*
G04 #@! TO.N,Net-(Q2-Pad3)*
X110998000Y-51689000D03*
G04 #@! TD*
D11*
G04 #@! TO.P,RV1,*
G04 #@! TO.N,*
X94112000Y-100599000D03*
X102912000Y-100599000D03*
D10*
G04 #@! TO.P,RV1,1*
G04 #@! TO.N,12V_*
X96012000Y-93599000D03*
G04 #@! TO.P,RV1,2*
G04 #@! TO.N,Net-(R2-Pad2)*
X98512000Y-93599000D03*
G04 #@! TO.P,RV1,3*
G04 #@! TO.N,-12V_*
X101012000Y-93599000D03*
G04 #@! TD*
D11*
G04 #@! TO.P,RV2,*
G04 #@! TO.N,*
X68829000Y-48499000D03*
X60029000Y-48499000D03*
D10*
G04 #@! TO.P,RV2,1*
G04 #@! TO.N,12V_*
X66929000Y-55499000D03*
G04 #@! TO.P,RV2,2*
G04 #@! TO.N,Net-(R6-Pad1)*
X64429000Y-55499000D03*
G04 #@! TO.P,RV2,3*
G04 #@! TO.N,-12V_*
X61929000Y-55499000D03*
G04 #@! TD*
D11*
G04 #@! TO.P,RV4,*
G04 #@! TO.N,*
X80269000Y-100599000D03*
X89069000Y-100599000D03*
D10*
G04 #@! TO.P,RV4,1*
G04 #@! TO.N,12V_*
X82169000Y-93599000D03*
G04 #@! TO.P,RV4,2*
G04 #@! TO.N,Net-(R10-Pad2)*
X84669000Y-93599000D03*
G04 #@! TO.P,RV4,3*
G04 #@! TO.N,-12V_*
X87169000Y-93599000D03*
G04 #@! TD*
G04 #@! TO.P,RV5,3*
G04 #@! TO.N,-12V_*
X116285000Y-55499000D03*
G04 #@! TO.P,RV5,2*
G04 #@! TO.N,Net-(R14-Pad1)*
X118785000Y-55499000D03*
G04 #@! TO.P,RV5,1*
G04 #@! TO.N,12V_*
X121285000Y-55499000D03*
D11*
G04 #@! TO.P,RV5,*
G04 #@! TO.N,*
X114385000Y-48499000D03*
X123185000Y-48499000D03*
G04 #@! TD*
D13*
G04 #@! TO.P,U1,1*
G04 #@! TO.N,Net-(D2-Pad2)*
X87808001Y-74999001D03*
D19*
G04 #@! TO.P,U1,8*
G04 #@! TO.N,Net-(J3-PadT)*
X95428001Y-90239001D03*
G04 #@! TO.P,U1,2*
G04 #@! TO.N,Net-(D2-Pad1)*
X87808001Y-77539001D03*
G04 #@! TO.P,U1,9*
G04 #@! TO.N,Net-(RV3-Pad1)*
X95428001Y-87699001D03*
G04 #@! TO.P,U1,3*
G04 #@! TO.N,GND*
X87808001Y-80079001D03*
G04 #@! TO.P,U1,10*
X95428001Y-85159001D03*
G04 #@! TO.P,U1,4*
G04 #@! TO.N,12V_*
X87808001Y-82619001D03*
G04 #@! TO.P,U1,11*
G04 #@! TO.N,-12V_*
X95428001Y-82619001D03*
G04 #@! TO.P,U1,5*
G04 #@! TO.N,GND*
X87808001Y-85159001D03*
G04 #@! TO.P,U1,12*
X95428001Y-80079001D03*
G04 #@! TO.P,U1,6*
G04 #@! TO.N,Net-(RV6-Pad1)*
X87808001Y-87699001D03*
G04 #@! TO.P,U1,13*
G04 #@! TO.N,Net-(D1-Pad1)*
X95428001Y-77539001D03*
G04 #@! TO.P,U1,7*
G04 #@! TO.N,Net-(J6-PadT)*
X87808001Y-90239001D03*
G04 #@! TO.P,U1,14*
G04 #@! TO.N,Net-(D1-Pad2)*
X95428001Y-74999001D03*
G04 #@! TD*
D13*
G04 #@! TO.P,U2,1*
G04 #@! TO.N,Net-(R8-Pad2)*
X87808001Y-53949001D03*
D19*
G04 #@! TO.P,U2,9*
G04 #@! TO.N,N/C*
X95428001Y-71729001D03*
G04 #@! TO.P,U2,2*
G04 #@! TO.N,Net-(R3-Pad1)*
X87808001Y-56489001D03*
G04 #@! TO.P,U2,10*
G04 #@! TO.N,N/C*
X95428001Y-69189001D03*
G04 #@! TO.P,U2,3*
G04 #@! TO.N,Net-(R4-Pad1)*
X87808001Y-59029001D03*
G04 #@! TO.P,U2,11*
G04 #@! TO.N,12V_*
X95428001Y-66649001D03*
G04 #@! TO.P,U2,4*
G04 #@! TO.N,Net-(R6-Pad2)*
X87808001Y-61569001D03*
G04 #@! TO.P,U2,12*
G04 #@! TO.N,Net-(RV6-Pad1)*
X95428001Y-64109001D03*
G04 #@! TO.P,U2,5*
G04 #@! TO.N,Net-(RV3-Pad1)*
X87808001Y-64109001D03*
G04 #@! TO.P,U2,13*
G04 #@! TO.N,Net-(R14-Pad2)*
X95428001Y-61569001D03*
G04 #@! TO.P,U2,6*
G04 #@! TO.N,-12V_*
X87808001Y-66649001D03*
G04 #@! TO.P,U2,14*
G04 #@! TO.N,Net-(R12-Pad1)*
X95428001Y-59029001D03*
G04 #@! TO.P,U2,7*
G04 #@! TO.N,N/C*
X87808001Y-69189001D03*
G04 #@! TO.P,U2,15*
G04 #@! TO.N,Net-(R11-Pad1)*
X95428001Y-56489001D03*
G04 #@! TO.P,U2,8*
G04 #@! TO.N,N/C*
X87808001Y-71729001D03*
G04 #@! TO.P,U2,16*
G04 #@! TO.N,Net-(R16-Pad2)*
X95428001Y-53949001D03*
G04 #@! TD*
D22*
G04 #@! TO.N,GND*
X100290000Y-45212000D02*
X100330000Y-45252000D01*
X92583000Y-45212000D02*
X100290000Y-45212000D01*
X101461370Y-45252000D02*
X100330000Y-45252000D01*
X105784000Y-45252000D02*
X101461370Y-45252000D01*
X107569000Y-47037000D02*
X105784000Y-45252000D01*
X107569000Y-48387000D02*
X107569000Y-47037000D01*
X84564000Y-76835000D02*
X69469000Y-76835000D01*
X87808001Y-80079001D02*
X84564000Y-76835000D01*
X82677000Y-40132000D02*
X82550000Y-40005000D01*
X90043000Y-40132000D02*
X82677000Y-40132000D01*
X92888001Y-80079001D02*
X95428001Y-80079001D01*
X87808001Y-85159001D02*
X92888001Y-80079001D01*
G04 #@! TO.N,Net-(J1-PadT)*
X73062999Y-59981999D02*
X72263000Y-59182000D01*
X73388001Y-70370096D02*
X73388001Y-60307001D01*
X78387906Y-75370001D02*
X73388001Y-70370096D01*
X82065001Y-75370001D02*
X78387906Y-75370001D01*
X82130001Y-75305001D02*
X82065001Y-75370001D01*
X88058004Y-68064000D02*
X85591998Y-68064000D01*
X82130001Y-71525997D02*
X82130001Y-75305001D01*
X88933002Y-66398998D02*
X88933002Y-67189002D01*
X94888000Y-60444000D02*
X88933002Y-66398998D01*
X104771003Y-54373999D02*
X98701002Y-60444000D01*
X88933002Y-67189002D02*
X88058004Y-68064000D01*
X111538001Y-54373999D02*
X104771003Y-54373999D01*
X73388001Y-60307001D02*
X73062999Y-59981999D01*
X118931001Y-61766999D02*
X111538001Y-54373999D01*
X98701002Y-60444000D02*
X94888000Y-60444000D01*
X118931001Y-72854001D02*
X118931001Y-61766999D01*
X85591998Y-68064000D02*
X82130001Y-71525997D01*
X121412000Y-75335000D02*
X118931001Y-72854001D01*
X121412000Y-76835000D02*
X121412000Y-75335000D01*
G04 #@! TO.N,Net-(J2-PadT)*
X102254772Y-89987403D02*
X110962175Y-81280000D01*
X102254772Y-91118773D02*
X102254772Y-89987403D01*
X110962175Y-81280000D02*
X119888000Y-81280000D01*
X121412000Y-67921000D02*
X121412000Y-66421000D01*
X122487001Y-68996001D02*
X121412000Y-67921000D01*
X122487001Y-78680999D02*
X122487001Y-68996001D01*
X119888000Y-81280000D02*
X122487001Y-78680999D01*
G04 #@! TO.N,Net-(J3-PadT)*
X113701001Y-94498999D02*
X114601000Y-93599000D01*
X113375999Y-94824001D02*
X113701001Y-94498999D01*
X97923999Y-94824001D02*
X113375999Y-94824001D01*
X97237001Y-94137003D02*
X97923999Y-94824001D01*
X97237001Y-92048001D02*
X97237001Y-94137003D01*
X95428001Y-90239001D02*
X97237001Y-92048001D01*
G04 #@! TO.N,Net-(J4-PadT)*
X110198001Y-62192001D02*
X110998000Y-62992000D01*
X96930996Y-62694002D02*
X97757999Y-61866999D01*
X109872999Y-61866999D02*
X110198001Y-62192001D01*
X95177998Y-62694002D02*
X96930996Y-62694002D01*
X97757999Y-61866999D02*
X109872999Y-61866999D01*
X90920980Y-66951020D02*
X95177998Y-62694002D01*
X90920980Y-74071024D02*
X90920980Y-66951020D01*
X61849000Y-75335000D02*
X64464001Y-72719999D01*
X68528999Y-72719999D02*
X71933002Y-76124002D01*
X61849000Y-76835000D02*
X61849000Y-75335000D01*
X71933002Y-76124002D02*
X88868002Y-76124002D01*
X64464001Y-72719999D02*
X68528999Y-72719999D01*
X88868002Y-76124002D02*
X90920980Y-74071024D01*
G04 #@! TO.N,Net-(J6-PadT)*
X87008002Y-91039000D02*
X87808001Y-90239001D01*
X85943999Y-92103003D02*
X87008002Y-91039000D01*
X85943999Y-94137003D02*
X85943999Y-92103003D01*
X85257001Y-94824001D02*
X85943999Y-94137003D01*
X74885001Y-94824001D02*
X85257001Y-94824001D01*
X73660000Y-93599000D02*
X74885001Y-94824001D01*
G04 #@! TO.N,Net-(Q2-Pad3)*
X108085998Y-51689000D02*
X109866630Y-51689000D01*
X109866630Y-51689000D02*
X110998000Y-51689000D01*
X103023997Y-46626999D02*
X108085998Y-51689000D01*
X95344999Y-46626999D02*
X103023997Y-46626999D01*
X94759999Y-47211999D02*
X95344999Y-46626999D01*
X94759999Y-48240591D02*
X94759999Y-47211999D01*
X93343590Y-49657000D02*
X94759999Y-48240591D01*
X85456998Y-49657000D02*
X93343590Y-49657000D01*
X78740000Y-56373998D02*
X85456998Y-49657000D01*
X78740000Y-74295000D02*
X78740000Y-56373998D01*
G04 #@! TO.N,Net-(R10-Pad2)*
X83769001Y-92699001D02*
X84669000Y-93599000D01*
X83443999Y-92373999D02*
X83769001Y-92699001D01*
X78403999Y-92373999D02*
X83443999Y-92373999D01*
X77089000Y-91059000D02*
X78403999Y-92373999D01*
G04 #@! TO.N,Net-(RV6-Pad1)*
X94628002Y-64909000D02*
X95428001Y-64109001D01*
X91370990Y-68166012D02*
X94628002Y-64909000D01*
X91370990Y-78181014D02*
X91370990Y-68166012D01*
X88348002Y-81204002D02*
X91370990Y-78181014D01*
X86683000Y-82079000D02*
X87557998Y-81204002D01*
X87557998Y-81204002D02*
X88348002Y-81204002D01*
X86683000Y-86574000D02*
X86683000Y-82079000D01*
X87808001Y-87699001D02*
X86683000Y-86574000D01*
G04 #@! TO.N,12V_*
X94628002Y-67449000D02*
X95428001Y-66649001D01*
X91821000Y-70256002D02*
X94628002Y-67449000D01*
X91821000Y-78606002D02*
X91821000Y-70256002D01*
X87808001Y-82619001D02*
X91821000Y-78606002D01*
X111797999Y-56298999D02*
X110998000Y-55499000D01*
X112123001Y-56624001D02*
X111797999Y-56298999D01*
X112123001Y-63532001D02*
X112123001Y-56624001D01*
X111538001Y-64117001D02*
X112123001Y-63532001D01*
X97960001Y-64117001D02*
X111538001Y-64117001D01*
X95428001Y-66649001D02*
X97960001Y-64117001D01*
G04 #@! TO.N,-12V_*
X94628002Y-83419000D02*
X95428001Y-82619001D01*
X94303000Y-83744002D02*
X94628002Y-83419000D01*
X94303000Y-86465000D02*
X94303000Y-83744002D01*
X87169000Y-93599000D02*
X94303000Y-86465000D01*
X96228000Y-83419000D02*
X95428001Y-82619001D01*
X96553002Y-83744002D02*
X96228000Y-83419000D01*
X96553002Y-89140002D02*
X96553002Y-83744002D01*
X101012000Y-93599000D02*
X96553002Y-89140002D01*
X95085001Y-48551999D02*
X95885000Y-47752000D01*
X89408000Y-54229000D02*
X95085001Y-48551999D01*
X89408000Y-65049002D02*
X89408000Y-54229000D01*
X87808001Y-66649001D02*
X89408000Y-65049002D01*
G04 #@! TD*
M02*
