M48
;DRILL file {KiCad (5.0.2)-1} date 14/03/2019 16:01:43
;FORMAT={-:-/ absolute / inch / decimal}
FMAT,2
INCH,TZ
T1C0.0295
T2C0.0315
T3C0.0394
T4C0.0433
T5C0.0787
%
G90
G05
T1
X3.1Y-2.925
X3.15Y-2.925
X3.2Y-2.925
X4.01Y-2.93
X4.06Y-2.93
X4.11Y-2.93
T2
X3.87Y-2.775
X4.37Y-2.775
X2.845Y-2.77
X3.345Y-2.77
X3.25Y-1.4766
X3.25Y-1.575
X3.25Y-1.7066
X3.25Y-1.805
X3.87Y-2.63
X4.37Y-2.63
X2.845Y-2.62
X3.345Y-2.62
X3.415Y-1.48
X3.415Y-1.88
X3.457Y-2.124
X3.457Y-2.224
X3.457Y-2.324
X3.457Y-2.424
X3.457Y-2.524
X3.457Y-2.624
X3.457Y-2.724
X3.457Y-2.824
X3.757Y-2.124
X3.757Y-2.224
X3.757Y-2.324
X3.757Y-2.424
X3.757Y-2.524
X3.757Y-2.624
X3.757Y-2.724
X3.757Y-2.824
X3.457Y-2.9527
X3.457Y-3.0527
X3.457Y-3.1527
X3.457Y-3.2527
X3.457Y-3.3527
X3.457Y-3.4527
X3.457Y-3.5527
X3.757Y-2.9527
X3.757Y-3.0527
X3.757Y-3.1527
X3.757Y-3.2527
X3.757Y-3.3527
X3.757Y-3.4527
X3.757Y-3.5527
X3.87Y-2.33
X4.37Y-2.33
X2.845Y-2.475
X3.345Y-2.475
X3.87Y-2.48
X4.37Y-2.48
X2.845Y-2.33
X3.345Y-2.33
X2.845Y-2.185
X3.345Y-2.185
X3.87Y-2.185
X4.37Y-2.185
X4.1808Y-3.0874
X4.1808Y-3.5874
X3.95Y-1.5416
X3.95Y-1.64
X3.87Y-2.035
X4.37Y-2.035
X3.185Y-3.085
X3.185Y-3.585
X4.0258Y-3.0874
X4.0258Y-3.5874
X3.035Y-3.085
X3.035Y-3.585
X2.845Y-2.04
X3.345Y-2.04
X3.775Y-1.48
X3.775Y-1.88
X3.95Y-1.7816
X3.95Y-1.88
T3
X3.235Y-3.685
X3.3334Y-3.685
X3.4319Y-3.685
X4.5781Y-2.185
X4.6766Y-2.185
X4.775Y-2.185
X4.315Y-3.685
X4.4134Y-3.685
X4.5119Y-3.685
X3.545Y-1.48
X3.545Y-1.58
X3.545Y-1.68
X3.545Y-1.78
X3.545Y-1.88
X3.645Y-1.48
X3.645Y-1.58
X3.645Y-1.68
X3.645Y-1.78
X3.645Y-1.88
X2.7031Y-3.685
X2.8016Y-3.685
X2.9Y-3.685
X2.4381Y-2.185
X2.5366Y-2.185
X2.635Y-2.185
X3.78Y-3.685
X3.8784Y-3.685
X3.9769Y-3.685
T4
X4.235Y-1.505
X4.235Y-1.905
X3.885Y-2.905
X3.885Y-3.305
X2.99Y-1.51
X2.99Y-1.91
X3.325Y-2.9
X3.325Y-3.3
T5
X4.5033Y-1.9094
X4.8498Y-1.9094
X4.2402Y-3.9606
X4.5867Y-3.9606
X2.6283Y-3.9606
X2.9748Y-3.9606
X2.3633Y-1.9094
X2.7098Y-1.9094
X3.7052Y-3.9606
X4.0517Y-3.9606
X3.1602Y-3.9606
X3.5067Y-3.9606
T3
X4.48Y-3.0053G85X4.48Y-3.0447
G05
X4.58Y-3.1053G85X4.58Y-3.1447
G05
X4.64Y-2.9053G85X4.64Y-2.9447
G05
X4.78Y-3.0053G85X4.78Y-3.0447
G05
X4.48Y-2.5953G85X4.48Y-2.6347
G05
X4.58Y-2.6953G85X4.58Y-2.7347
G05
X4.64Y-2.4953G85X4.64Y-2.5347
G05
X4.78Y-2.5953G85X4.78Y-2.6347
G05
X2.435Y-2.6347G85X2.435Y-2.5953
G05
X2.575Y-2.7347G85X2.575Y-2.6953
G05
X2.635Y-2.5347G85X2.635Y-2.4953
G05
X2.735Y-2.6347G85X2.735Y-2.5953
G05
X2.435Y-3.0447G85X2.435Y-3.0053
G05
X2.575Y-3.1447G85X2.575Y-3.1053
G05
X2.635Y-2.9447G85X2.635Y-2.9053
G05
X2.735Y-3.0447G85X2.735Y-3.0053
G05
X2.435Y-3.4547G85X2.435Y-3.4153
G05
X2.575Y-3.5547G85X2.575Y-3.5153
G05
X2.635Y-3.3547G85X2.635Y-3.3153
G05
X2.735Y-3.4547G85X2.735Y-3.4153
G05
X4.48Y-3.4153G85X4.48Y-3.4547
G05
X4.58Y-3.5153G85X4.58Y-3.5547
G05
X4.64Y-3.3153G85X4.64Y-3.3547
G05
X4.78Y-3.4153G85X4.78Y-3.4547
G05
T0
M30
